<svg width="90" height="95" viewBox="0 0 90 95" fill="none" xmlns="http://www.w3.org/2000/svg">
<path d="M27.009 7.56506H11.7252V24.2422H27.009V7.56506Z" fill="#498579"/>
<path d="M25.974 7.56506H10.6902V24.2422H25.974V7.56506Z" fill="#F1ED87"/>
<path d="M23.9202 9.80728H12.7458V22H23.9202V9.80728Z" fill="#1C6758"/>
<path d="M12.7459 22.081C12.6636 22.2039 12.5702 22.3181 12.4669 22.422C12.2869 22.6105 12.0349 22.8837 11.7469 23.1757C11.4589 23.4678 11.2069 23.7259 11.0269 23.9087C10.9295 24.0144 10.8228 24.1103 10.7083 24.1951C10.7872 24.0718 10.8783 23.9575 10.9801 23.854C11.1601 23.6656 11.4121 23.3905 11.7001 23.1003C11.9881 22.8102 12.2401 22.5502 12.4291 22.3655C12.5244 22.2588 12.6306 22.1634 12.7459 22.081Z" fill="#498579"/>
<path d="M23.9202 22.0452C24.0344 22.1317 24.1405 22.2295 24.237 22.3372C24.417 22.5257 24.678 22.7895 24.957 23.0909C25.236 23.3924 25.4808 23.6562 25.6572 23.8446C25.7587 23.946 25.8504 24.0577 25.9308 24.1781C25.8156 24.0935 25.7094 23.9962 25.614 23.8879C25.434 23.6995 25.173 23.4357 24.894 23.1343C24.615 22.8328 24.3702 22.569 24.1938 22.3806C24.0915 22.2792 23.9998 22.1668 23.9202 22.0452Z" fill="#498579"/>
<path d="M23.8896 9.83931C23.9716 9.71913 24.0651 9.60801 24.1686 9.50769C24.3486 9.31927 24.5988 9.04606 24.8796 8.754C25.1604 8.46195 25.4197 8.20382 25.6087 8.02105C25.7063 7.91495 25.8136 7.81903 25.9291 7.73465C25.8467 7.85395 25.7532 7.9644 25.65 8.06439C25.47 8.25281 25.2198 8.5279 24.93 8.81807C24.6402 9.10823 24.39 9.36826 24.1992 9.55291C24.1056 9.65907 24.0018 9.75503 23.8896 9.83931Z" fill="#498579"/>
<path d="M12.7152 9.86946C12.6009 9.78291 12.4948 9.68512 12.3984 9.57741C12.2184 9.38899 11.9556 9.1252 11.6784 8.82373C11.4012 8.52226 11.1528 8.25847 10.9764 8.07005C10.875 7.969 10.7839 7.85724 10.7046 7.73654C10.8184 7.82223 10.9239 7.91942 11.0196 8.02671C11.1996 8.21513 11.4624 8.47892 11.7396 8.78039C12.0168 9.08186 12.2652 9.34565 12.4416 9.53407C12.5438 9.63546 12.6355 9.74788 12.7152 9.86946Z" fill="#498579"/>
<path d="M23.8896 22C23.8896 22 23.8896 21.9793 23.8896 21.9416C23.8896 21.9039 23.8896 21.8436 23.8896 21.772C23.8896 21.6194 23.8896 21.3952 23.8896 21.1144C23.8896 20.5378 23.8896 19.6975 23.8896 18.6291C23.8896 16.4943 23.8787 13.4513 23.8697 9.80729L23.9076 9.84498H12.7638L12.8051 9.80164C12.8051 14.2766 12.8051 18.469 12.8051 21.9943L12.7691 21.9566L20.8403 21.9755L23.1047 21.9868H23.7042H23.1138H20.8547L12.7547 22.0056H12.7188V21.9679C12.7188 18.4369 12.7188 14.2427 12.7188 9.77526V9.73004H12.7619H23.9057H23.9417V9.76961C23.9417 13.4231 23.9274 16.4755 23.9238 18.6254C23.9238 19.6899 23.9238 20.5265 23.913 21.1012C23.913 21.3838 23.913 21.6024 23.913 21.7513C23.913 21.8229 23.913 21.8775 23.913 21.9171C23.913 21.9566 23.8896 22 23.8896 22Z" fill="#498579"/>
<path d="M15.6942 14.9003C15.6942 14.9003 15.4548 17.915 18.5742 17.915C18.5778 16.3078 17.3088 15.0359 15.6942 14.9003Z" fill="#F1ED87"/>
<path d="M21.4092 14.9022C21.4092 14.9022 18.5292 14.6516 18.5292 17.9169C20.0646 17.9226 21.2796 16.5923 21.4092 14.9022Z" fill="#F1ED87"/>
<path d="M18.4392 13.2497C18.4392 13.2497 16.083 15.4637 18.5688 17.9188C19.7244 16.6375 19.62 14.6271 18.4392 13.2497Z" fill="#498579"/>
<path d="M66.3588 68.634C65.4077 68.0117 64.3334 67.625 63.2178 67.5035C62.7048 67.4489 62.1378 67.4639 61.731 67.7899C61.6839 67.8191 61.6449 67.8607 61.618 67.9107C61.5912 67.9606 61.5774 68.0171 61.578 68.0744C61.6037 68.1534 61.6554 68.2202 61.7238 68.2629C63.0018 69.2822 64.935 69.4122 66.3588 68.6303" fill="#498579"/>
<path d="M66.2777 68.5398C65.5503 67.9812 64.8715 67.3563 64.2491 66.6726C63.6244 65.9839 63.1852 65.1341 62.9765 64.2099C62.9225 63.9292 62.9063 63.6088 63.0773 63.3865C64.6973 64.7054 65.9573 66.4182 66.2777 68.5398Z" fill="#498579"/>
<path d="M66.3426 68.6208C66.1925 67.6967 66.2047 66.7517 66.3786 65.8322C66.582 64.9221 67.0554 64.0516 67.7988 63.5316C68.0778 64.2156 67.9572 65.0031 67.761 65.7173C67.456 66.8243 66.9806 67.8719 66.3534 68.8187" fill="#498579"/>
<path d="M67.9267 71.5998C66.9655 71.7222 66.1267 72.2536 65.4067 72.9338C64.6854 73.6226 64.1829 74.526 63.9667 75.5227C64.9117 75.4624 65.7127 74.769 66.2923 73.9852C66.8719 73.2013 67.2769 72.3459 67.9123 71.6148" fill="#498579"/>
<path d="M68.2722 72.0689C67.8936 71.0621 67.7612 69.9723 67.8869 68.8983C68.0127 67.8243 68.3926 66.8002 68.9922 65.9189C69.5412 67.9595 69.3396 70.2657 68.2722 72.0689Z" fill="#498579"/>
<path d="M70.3656 74.6804C69.486 74.623 68.6097 74.8379 67.846 75.2983C67.0823 75.7587 66.4649 76.4442 66.0708 77.2693C66.0168 77.3805 65.97 77.5218 66.042 77.6217C66.0791 77.6593 66.1244 77.6868 66.174 77.702C66.2235 77.7171 66.2759 77.7193 66.3264 77.7084C67.1724 77.6518 67.923 77.1186 68.5422 76.5119C69.1614 75.9052 69.7014 75.2024 70.3854 74.6786" fill="#498579"/>
<path d="M70.299 74.5391C69.8484 73.0192 69.8209 71.3963 70.2198 69.8606C70.3764 69.2577 70.641 68.6246 71.1738 68.342C71.195 68.327 71.2189 68.3169 71.244 68.3124C71.2692 68.3078 71.2949 68.3089 71.3196 68.3156C71.3625 68.3393 71.3953 68.3789 71.4115 68.4268C71.5898 68.8481 71.6671 69.3086 71.6365 69.7683C71.6045 70.2261 71.5371 70.6805 71.4348 71.1268C71.2674 71.9578 71.1792 72.8509 70.7436 73.5669C70.6404 73.7388 70.5478 73.9176 70.4665 74.102C70.3837 74.2904 70.3837 74.3488 70.3081 74.4939" fill="#498579"/>
<path d="M75.8431 75.404C75.4327 73.7666 75.8683 71.7844 76.8529 70.4429C76.9267 70.3449 77.0221 70.2394 77.1409 70.2544C77.3209 70.2714 77.3695 70.5258 77.3605 70.7161C77.2867 72.3983 76.7607 74.0246 75.8431 75.4077" fill="#498579"/>
<path d="M76.3434 75.7601C78.2424 76.2783 80.4204 75.7752 81.999 74.5561C81.0528 74.0596 79.9716 73.9212 78.939 74.1642C77.9166 74.4091 76.9824 74.8877 76.3452 75.7601" fill="#498579"/>
<path d="M76.7646 74.671C77.8284 72.8565 79.866 71.6733 81.8982 71.5659C81.6642 72.4307 80.9838 73.1015 80.2188 73.5085C79.4538 73.9155 78.5988 74.0907 77.7546 74.2622C77.427 74.3281 76.977 74.4016 76.7646 74.671Z" fill="#498579"/>
<path d="M75.9492 69.3877C76.2372 68.3552 76.527 67.3151 76.6062 66.2411C76.6854 65.1671 76.5378 64.0498 76.0068 63.1284C75.0132 65.1407 74.9142 67.4903 75.9186 69.4951" fill="#498579"/>
<path d="M79.2936 67.6184C80.4546 65.4083 82.8234 63.6446 85.221 63.3959C84.2958 65.8077 81.774 67.6693 79.2936 67.6184Z" fill="#498579"/>
<path d="M78.5627 68.0518C80.2943 68.3269 81.7703 69.4857 83.3885 70.1866C83.7274 70.3588 84.1037 70.4342 84.4793 70.4052C84.6545 70.4042 84.8252 70.3469 84.9681 70.2409C85.1111 70.1349 85.2194 69.9855 85.2784 69.8128C85.3374 69.6401 85.3442 69.4526 85.2978 69.2758C85.2515 69.0989 85.1542 68.9413 85.0193 68.8243C84.79 68.6031 84.5207 68.432 84.2273 68.3212C82.4633 67.5525 80.5733 67.5337 78.7157 67.999" fill="#498579"/>
<path d="M77.5602 69.3236C77.9526 69.4405 78.0858 69.6534 78.3972 69.9304C79.456 70.8723 80.7083 71.5455 82.0566 71.8975C82.197 71.9333 82.3788 71.9483 82.449 71.8164C82.5192 71.6845 82.4328 71.5602 82.3536 71.4584C81.7658 70.7363 81.0028 70.1934 80.145 69.887C79.299 69.5592 78.5682 69.1616 77.5602 69.2464" fill="#498579"/>
<path d="M76.428 61.6418C77.1388 62.3263 77.9786 62.8477 78.8934 63.1722C79.8082 63.4967 80.7778 63.6172 81.7398 63.526C81.8281 63.5278 81.9139 63.4956 81.981 63.4355C82.1142 63.2829 81.954 63.0474 81.801 62.9211C80.2386 61.6474 78.3486 61.1179 76.4298 61.6342" fill="#498579"/>
<path d="M77.769 61.1292C78.7092 60.4047 79.7997 59.9232 80.9515 59.7241C82.1034 59.525 83.2839 59.6139 84.3966 59.9836C83.5614 60.8447 82.404 61.3026 81.2376 61.4345C80.0733 61.5461 78.8993 61.4428 77.769 61.1292Z" fill="#498579"/>
<path d="M77.2362 57.6001C77.0832 55.9684 77.1822 54.6815 77.0742 53.0422C77.0742 52.9103 77.04 52.754 76.923 52.7069C76.7592 52.6409 76.6242 52.8501 76.563 53.0234C76.336 53.7833 76.2779 54.5874 76.393 55.3743C76.5081 56.1613 76.7934 56.9104 77.2272 57.5643" fill="#498579"/>
<path d="M77.1246 57.7791C78.1812 57.0951 78.9732 56.2039 79.7058 55.1544C80.2152 54.4233 80.6454 53.5491 80.5302 52.6522C79.8102 52.6371 79.1334 53.0498 78.6672 53.6207C78.223 54.2116 77.9 54.8922 77.7186 55.6198C77.5116 56.3377 77.3676 57.0744 77.1246 57.7791Z" fill="#498579"/>
<path d="M79.6608 57.0424C81.9843 56.1416 84.1355 54.8138 86.013 53.1214C85.2552 52.8011 84.393 52.9932 83.628 53.3098C81.8946 54.0427 80.478 55.2788 79.6284 57.0198" fill="#498579"/>
<path d="M77.8374 58.6723C79.011 58.806 80.2026 58.8946 81.3654 58.6911C82.5282 58.4876 83.5902 58.0165 84.6576 57.5455C84.7528 57.515 84.8333 57.4476 84.8826 57.3571C84.8992 57.3053 84.9003 57.2494 84.8858 57.1969C84.8714 57.1444 84.842 57.0978 84.8016 57.0631C84.7197 56.9947 84.6235 56.9475 84.5208 56.9256C83.3598 56.5845 82.1052 56.7372 80.9622 57.1479C79.8731 57.5347 78.8258 58.0399 77.8374 58.6553" fill="#498579"/>
<path d="M71.1415 61.6983C70.3423 60.0025 70.3945 58.0354 71.0839 56.2925C71.5717 57.0688 71.6239 58.0561 71.5411 58.9812C71.4583 59.9064 71.1811 60.8541 71.1667 61.783" fill="#498579"/>
<path d="M67.9447 60.01C66.9431 59.9964 65.9498 60.2017 65.0284 60.6127C64.1069 61.0238 63.2776 61.6316 62.5933 62.3973C63.5905 62.5612 64.6165 62.2918 65.5237 61.832C66.4309 61.3723 67.2373 60.7185 68.0437 60.0722" fill="#498579"/>
<path d="M65.7972 59.2582C64.8198 59.1753 63.8784 59.0491 62.9388 59.3506C61.9992 59.652 61.1388 60.336 60.7626 61.2837C61.6845 61.3613 62.6095 61.1784 63.441 60.7543C64.2674 60.3301 65.0559 59.8294 65.7972 59.2582Z" fill="#498579"/>
<path d="M68.9778 59.2921C68.0994 58.6892 67.1958 58.0768 66.1734 57.8262C65.151 57.5756 63.963 57.7603 63.2484 58.5686C64.0782 59.0773 65.0826 59.1339 66.0438 59.1339C67.005 59.1339 68.1822 59.1207 69.0876 59.4561" fill="#498579"/>
<path d="M68.9832 59.3411C67.4802 57.7961 66.9114 55.0206 67.5162 52.9103C68.7022 54.8113 69.2208 57.0844 68.9832 59.3411Z" fill="#498579"/>
<path d="M73.116 54.9641C73.4004 54.2745 73.5984 53.551 73.854 52.8482C74.0854 52.1357 74.4413 51.4744 74.9034 50.898C75.374 50.3189 76.043 49.9562 76.7664 49.8881C76.5348 50.9522 76.0939 51.9541 75.4719 52.83C74.8499 53.7059 74.0604 54.4366 73.1538 54.9754" fill="#498579"/>
<path d="M72.3689 55.8761C71.8992 55.2015 71.3574 54.2839 70.722 53.779C70.0866 53.274 69.2568 52.9687 68.481 53.1628C68.8831 53.9002 69.4438 54.5293 70.1187 55.0003C70.7936 55.4712 71.5641 55.7711 72.3689 55.8761Z" fill="#498579"/>
<path d="M72.5184 55.0188C72.2106 54.201 71.901 53.3739 71.7768 52.5052C71.6526 51.6366 71.7282 50.7077 72.153 49.9503C72.9774 51.582 73.2438 53.3418 72.5598 55.0376" fill="#498579"/>
<path d="M73.1232 49.9521C73.5912 48.3336 75.006 47.1409 76.5342 46.5945C76.7241 46.514 76.9295 46.4817 77.1336 46.5003C77.2351 46.5126 77.3309 46.5558 77.4092 46.6244C77.4876 46.693 77.5451 46.7841 77.5746 46.8865C77.6304 47.1616 77.4126 47.4085 77.2146 47.5912C76.0194 48.6588 74.6301 49.4619 73.1304 49.9521" fill="#498579"/>
<path d="M73.1412 48.6275C73.2006 47.5856 73.2618 46.5267 73.5858 45.5374C73.9098 44.5482 74.5362 43.6212 75.4452 43.1897C75.6 44.243 75.1554 45.2906 74.619 46.2045C74.0826 47.1183 73.4382 47.9662 73.116 48.978" fill="#498579"/>
<path d="M73.116 49.3473C72.7308 48.1678 72.6894 46.6698 72.0162 45.6411C71.5446 44.9232 70.7886 44.4333 70.3818 43.674C70.1365 44.4031 70.1707 45.2034 70.4772 45.9067C70.7837 46.6029 71.2061 47.2365 71.7246 47.7778C72.225 48.343 72.6516 48.7556 73.116 49.3473Z" fill="#498579"/>
<path d="M73.1233 84.0788C73.0945 84.0788 73.0675 76.2104 73.0657 66.5086C73.0639 56.8069 73.0855 48.9347 73.1161 48.9347C73.1467 48.9347 73.1719 56.8012 73.1737 66.5086C73.1755 76.2161 73.1539 84.0788 73.1233 84.0788Z" fill="#498579"/>
<path d="M79.6915 60.5112C79.6008 60.5575 79.5062 60.5947 79.4089 60.6224L78.6313 60.8975C77.9761 61.1311 77.0743 61.4628 76.0969 61.8886C75.1195 62.3144 74.2159 62.6762 73.6957 63.1472C73.4886 63.3291 73.3237 63.5578 73.2133 63.8161C73.1395 64.0045 73.1269 64.1138 73.1161 64.1119C73.1117 64.0845 73.1117 64.0565 73.1161 64.029C73.1278 63.9508 73.1465 63.8738 73.1719 63.7992C73.2699 63.5248 73.4313 63.2801 73.6417 63.0869C73.9556 62.8094 74.3068 62.5815 74.6839 62.4105C75.0997 62.207 75.5623 61.9941 76.0519 61.7831C77.0329 61.3629 77.9419 61.0294 78.6043 60.8202C78.9355 60.7128 79.2055 60.6318 79.3945 60.5791C79.4912 60.5466 79.5906 60.5239 79.6915 60.5112Z" fill="#498579"/>
<path d="M81.8443 54.9754C81.8443 54.9754 81.8209 55.0093 81.7651 55.064L81.5239 55.3014L80.6239 56.1568L77.6269 58.9511C76.4569 60.0402 75.4471 61.0821 74.7469 61.866C74.3959 62.2579 74.1187 62.582 73.9297 62.8081C73.8433 62.9136 73.7713 62.9965 73.7119 63.0681C73.6525 63.1397 73.6345 63.1585 73.6309 63.1548C73.6495 63.1195 73.6712 63.0861 73.6957 63.0549C73.7407 62.9908 73.8073 62.8966 73.8973 62.7798C74.0773 62.5443 74.3455 62.2145 74.6893 61.8113C75.5937 60.777 76.5503 59.7939 77.5549 58.8663C78.7285 57.7772 79.7977 56.7937 80.5735 56.0965L81.4969 55.2675L81.7507 55.047C81.7791 55.0195 81.8106 54.9955 81.8443 54.9754Z" fill="#498579"/>
<path d="M76.365 60.059C76.3344 60.0439 76.5774 59.4542 76.8222 58.7061C77.067 57.9581 77.1822 57.3288 77.2146 57.3344C77.247 57.3401 77.1732 57.9864 76.9248 58.7438C76.821 59.0644 76.7009 59.3789 76.5648 59.6859C76.5157 59.8197 76.4484 59.9453 76.365 60.059Z" fill="#498579"/>
<path d="M73.1305 64.8166C73.0633 64.7506 73.0029 64.6773 72.9505 64.598L72.4879 63.9781C72.1009 63.4524 71.5645 62.7289 70.9633 61.9357C70.3621 61.1424 69.8095 60.4283 69.4099 59.9177L68.9401 59.3091C68.8784 59.2374 68.8241 59.1591 68.7781 59.0754C68.8494 59.1368 68.9145 59.2056 68.9725 59.2808C69.0931 59.4165 69.2641 59.6181 69.4711 59.8687C69.8869 60.3718 70.4503 61.0746 71.0515 61.8697C71.6527 62.6648 72.1819 63.3959 72.5545 63.9329C72.7345 64.2024 72.8875 64.4209 72.9883 64.5754C73.0422 64.6514 73.0898 64.7321 73.1305 64.8166Z" fill="#498579"/>
<path d="M71.6904 62.8853C71.6724 62.9061 71.289 62.4275 71.0874 61.7039C70.9739 61.3182 70.9275 60.9142 70.9506 60.5112H70.9974C70.9776 60.6017 70.9614 60.6507 70.9524 60.6488C70.9434 60.6469 70.9434 60.596 70.9524 60.5037H71.001C71.0235 60.8963 71.0881 61.285 71.1936 61.6625C71.3862 62.3672 71.7192 62.8665 71.6904 62.8853Z" fill="#498579"/>
<path d="M69.84 60.4377C69.7106 60.334 69.569 60.2478 69.4188 60.1815C69.0398 60.0629 68.641 60.0295 68.2488 60.0835C67.8518 60.1156 67.458 60.1824 67.0716 60.2832C66.9134 60.3363 66.7515 60.3766 66.5874 60.4038C66.732 60.3142 66.8885 60.2475 67.0518 60.206C67.4385 60.0802 67.8377 60.0012 68.2416 59.9705C68.6482 59.9138 69.0618 59.9603 69.4476 60.1061C69.6116 60.1649 69.7506 60.2823 69.84 60.4377Z" fill="#498579"/>
<path d="M69.39 59.8442C69.39 59.8612 69.1452 59.7406 68.7456 59.5974C67.7002 59.2224 66.5805 59.1336 65.493 59.3393C65.0772 59.4165 64.8252 59.4975 64.8198 59.4787C64.8725 59.4439 64.9303 59.4185 64.9908 59.4033C65.1504 59.3448 65.3133 59.297 65.4786 59.2601C66.5768 59.0076 67.7217 59.0987 68.7708 59.522C68.9284 59.5852 69.0823 59.6582 69.2316 59.7406C69.3378 59.8009 69.3936 59.8367 69.39 59.8442Z" fill="#498579"/>
<path d="M73.116 57.3345C73.0872 57.3345 72.8766 56.5808 72.6462 55.6236C72.4158 54.6664 72.2502 53.892 72.2862 53.8845C72.3222 53.8769 72.5256 54.6382 72.756 55.5953C72.9864 56.5525 73.1448 57.3269 73.116 57.3345Z" fill="#498579"/>
<path d="M73.1466 57.3345C73.1142 57.3458 72.9774 56.8333 72.6246 56.3095C72.4033 55.9998 72.145 55.7212 71.856 55.4804C71.9655 55.509 72.0671 55.5638 72.153 55.6406C72.3708 55.8076 72.5601 56.0121 72.7128 56.2454C72.9456 56.5626 73.0952 56.938 73.1466 57.3345Z" fill="#498579"/>
<path d="M73.1232 79.8903C73.1124 79.8903 73.089 79.7018 73.0044 79.3664C72.8804 78.8961 72.7122 78.4398 72.5022 78.0042C71.9838 76.8944 71.0388 75.485 69.8382 74.0756C69.2424 73.3634 68.6664 72.6926 68.1768 72.0501C67.7371 71.4841 67.3393 70.8838 66.987 70.2544C66.7513 69.8297 66.5508 69.3847 66.3876 68.9242C66.3318 68.7584 66.2922 68.6321 66.2688 68.5473C66.2533 68.4985 66.2436 68.4479 66.24 68.3966C66.2508 68.3966 66.3048 68.585 66.429 68.8978C66.6068 69.3492 66.8162 69.7863 67.0554 70.2054C67.4142 70.8248 67.8155 71.4161 68.256 71.9747C68.7474 72.6097 69.3252 73.2786 69.921 73.9908C71.1252 75.4058 72.0684 76.8303 72.5742 77.9608C72.7794 78.4038 72.9381 78.8688 73.0476 79.3476C73.0776 79.4773 73.0998 79.6088 73.1142 79.7414C73.1227 79.7905 73.1257 79.8404 73.1232 79.8903Z" fill="#498579"/>
<path d="M79.0596 72.8678C78.9595 72.9371 78.8555 73 78.7482 73.0562C78.4667 73.224 78.1972 73.4129 77.9418 73.6215C77.5636 73.9292 77.2091 74.2675 76.8816 74.6333C76.509 75.0441 76.1256 75.5227 75.735 76.0333C74.9538 77.0602 74.223 77.9684 73.7856 78.6938C73.5624 79.0537 73.4004 79.357 73.2942 79.5699C73.2452 79.6836 73.188 79.7932 73.1232 79.8978C73.1283 79.8657 73.138 79.8346 73.152 79.8055C73.1754 79.7471 73.2078 79.6585 73.2564 79.5511C73.3937 79.2417 73.5481 78.941 73.719 78.6505C74.1456 77.9081 74.871 76.9867 75.6504 75.9617C76.0428 75.4492 76.4298 74.9706 76.8096 74.5598C77.1425 74.1951 77.5038 73.8598 77.8896 73.5574C78.1519 73.3544 78.4308 73.176 78.723 73.0242C78.8256 72.9696 78.903 72.9357 78.966 72.9112C78.994 72.8901 79.0259 72.8754 79.0596 72.8678Z" fill="#498579"/>
<path d="M79.1749 75.1439C78.9586 75.1947 78.739 75.2281 78.5179 75.2438C77.9901 75.3011 77.4684 75.4083 76.9591 75.5641C76.4557 75.7361 75.9836 75.9953 75.5623 76.331C75.2401 76.5929 75.0889 76.8077 75.0745 76.7945C75.097 76.7358 75.13 76.6821 75.1717 76.6362C75.2738 76.4994 75.3884 76.3732 75.5137 76.2594C75.93 75.8965 76.4091 75.6208 76.9249 75.4473C77.4412 75.2871 77.9732 75.1885 78.5107 75.1534C78.7313 75.1289 78.9537 75.1257 79.1749 75.1439Z" fill="#498579"/>
<path d="M75.2652 76.5458C75.231 76.5251 75.528 76.0503 75.7566 75.4153C75.9852 74.7803 76.023 74.2094 76.0626 74.215C76.0795 74.3404 76.0759 74.4678 76.0518 74.5919C76.0189 74.8887 75.9543 75.1807 75.8592 75.4624C75.7597 75.7416 75.6318 76.0089 75.4776 76.2594C75.4222 76.3664 75.3504 76.4631 75.2652 76.5458Z" fill="#498579"/>
<path d="M80.982 66.7555C80.9483 66.7782 80.9128 66.7978 80.8758 66.8139L80.5662 66.9608C80.4312 67.0211 80.2674 67.0984 80.082 67.2001C79.8966 67.3019 79.6806 67.4036 79.4538 67.5468L79.0938 67.7597C78.9696 67.8351 78.8454 67.9237 78.7158 68.0085C78.4512 68.178 78.1866 68.3853 77.904 68.5944C76.6932 69.5409 75.6367 70.6862 74.7756 71.986C74.5848 72.2894 74.3958 72.5739 74.2446 72.8565C74.1672 72.996 74.0862 73.1278 74.0196 73.2597L73.827 73.6366C73.6992 73.8778 73.6092 74.1076 73.5192 74.3055C73.4292 74.5033 73.359 74.6823 73.3068 74.8217L73.1772 75.1496C73.164 75.1892 73.1464 75.2272 73.125 75.2626C73.1304 75.2213 73.1407 75.1808 73.1556 75.1421C73.1862 75.0535 73.2222 74.9423 73.2672 74.8048C73.3242 74.6269 73.3897 74.452 73.4634 74.281C73.548 74.0794 73.6344 73.8457 73.7586 73.6008L73.9386 73.2126C74.0034 73.0789 74.0826 72.9451 74.16 72.8019C74.3076 72.5155 74.4948 72.2366 74.6856 71.922C75.5431 70.6057 76.6083 69.4518 77.8356 68.5097C78.1236 68.2986 78.3918 68.0932 78.66 67.9274C78.7932 67.8426 78.9174 67.756 79.0434 67.6825L79.4034 67.4733C79.632 67.3358 79.8534 67.2359 80.0424 67.1417C80.203 67.058 80.3676 66.9832 80.5356 66.9175L80.8542 66.7913C80.8949 66.773 80.938 66.7609 80.982 66.7555Z" fill="#498579"/>
<path d="M76.2841 70.0491C76.3281 69.8906 76.418 69.7504 76.5415 69.6477C76.8306 69.3835 77.1999 69.2352 77.5837 69.2294C77.9591 69.2268 78.3313 69.303 78.6781 69.4537C78.8249 69.5022 78.9643 69.5727 79.0921 69.6628C78.9443 69.6321 78.7996 69.5867 78.6601 69.5271C78.3164 69.4041 77.9559 69.3405 77.5927 69.3387C77.2327 69.3467 76.8846 69.4747 76.5991 69.7043C76.4865 69.8113 76.3812 69.9265 76.2841 70.0491Z" fill="#498579"/>
<path d="M75.582 70.8084C75.5514 70.7915 75.816 70.3845 75.8773 69.8022C75.9385 69.22 75.7782 68.7603 75.8107 68.7509C75.8431 68.7414 75.8827 68.8526 75.9331 69.0448C76.0613 69.5513 76.0015 70.0899 75.7656 70.5522C75.6738 70.7255 75.6 70.8159 75.582 70.8084Z" fill="#498579"/>
<path d="M67.932 81.0208C68.094 84.0355 68.9598 87.086 70.2918 90.178H76.0806C77.3514 87.1068 78.156 84.0544 78.3 81.0208H67.932Z" fill="#498579"/>
<path d="M77.3622 85.8764C77.3622 85.9084 75.456 85.9348 73.1034 85.9348C70.7508 85.9348 68.8464 85.9084 68.8464 85.8764C68.8464 85.8443 70.7526 85.8199 73.1034 85.8199C75.4542 85.8199 77.3622 85.8462 77.3622 85.8764Z" fill="#1C6758"/>
<path d="M77.2326 86.9655C77.2326 86.9975 75.4452 87.0239 73.242 87.0239C71.0388 87.0239 69.2496 86.9975 69.2496 86.9655C69.2496 86.9334 71.037 86.9089 73.242 86.9089C75.447 86.9089 77.2326 86.9353 77.2326 86.9655Z" fill="#1C6758"/>
<path d="M70.38 82.986C70.4521 83.9153 70.4521 84.8491 70.38 85.7784C70.3494 85.7784 70.326 85.1529 70.326 84.3822C70.326 83.6116 70.3548 82.986 70.38 82.986Z" fill="#1C6758"/>
<path d="M73.4869 82.986C73.5175 82.986 73.5409 83.6323 73.5409 84.4312C73.5409 85.2301 73.5175 85.8764 73.4869 85.8764C73.4563 85.8764 73.4329 85.2301 73.4329 84.4312C73.4329 83.6323 73.4563 82.986 73.4869 82.986Z" fill="#1C6758"/>
<path d="M76.3992 82.9615C76.4298 82.9615 76.4532 83.621 76.4532 84.435C76.4532 85.2489 76.4298 85.9103 76.3992 85.9103C76.3686 85.9103 76.3452 85.2508 76.3452 84.435C76.3452 83.6191 76.3686 82.9615 76.3992 82.9615Z" fill="#1C6758"/>
<path d="M78.1201 82.986C78.1201 83.018 75.8845 83.0425 73.1269 83.0425C70.3693 83.0425 68.1337 83.018 68.1337 82.986C68.1337 82.954 70.3675 82.9295 73.1269 82.9295C75.8863 82.9295 78.1201 82.954 78.1201 82.986Z" fill="#1C6758"/>
<path d="M75.0096 52.9895H9.4032V55.1054H75.0096V52.9895Z" fill="#F1ED87"/>
<path d="M15.0786 54.8454L10.1628 90.1686H11.2176L17.28 55.1054L15.0786 54.8454Z" fill="#F1ED87"/>
<path d="M70.3764 54.6212L75.5622 90.1686H74.5092L68.1732 54.9453L70.3764 54.6212Z" fill="#F1ED87"/>
<path d="M11.8944 44.4672V49.2305H11.1348V49.743H11.8944V52.9311H26.1V50.0294H25.0488V49.3963H26.1V48.4542H26.568V48.0246H26.01V44.4672H11.8944Z" fill="#F4F1A5"/>
<path d="M22.3254 44.4748V52.8764H26.0964V49.9766H25.0452V49.3982L26.0964 49.417V48.4693H26.5734L26.5644 47.9794L26.01 47.9662V44.4616L22.3254 44.4748Z" fill="#498579"/>
<path d="M22.5936 49.6733C22.5936 49.7034 20.025 49.726 16.8552 49.726C13.6854 49.726 11.115 49.7034 11.115 49.6733C11.115 49.6431 13.6854 49.6205 16.8552 49.6205C20.025 49.6205 22.5936 49.645 22.5936 49.6733Z" fill="#498579"/>
<path d="M22.5936 49.189C22.5936 49.2192 20.025 49.2418 16.8552 49.2418C13.6854 49.2418 11.115 49.2192 11.115 49.189C11.115 49.1589 13.6854 49.1363 16.8552 49.1363C20.025 49.1363 22.5936 49.1608 22.5936 49.189Z" fill="#498579"/>
<path d="M23.3316 47.887C23.3316 47.9172 20.7612 47.9398 17.5932 47.9398C14.4252 47.9398 11.853 47.9172 11.853 47.887C11.853 47.8569 14.4216 47.8343 17.5932 47.8343C20.7648 47.8343 23.3316 47.8588 23.3316 47.887Z" fill="#498579"/>
<path d="M23.4 51.4388C23.4 51.4689 20.8314 51.4934 17.6616 51.4934C14.4918 51.4934 11.9214 51.4689 11.9214 51.4388C11.9214 51.4086 14.49 51.386 17.6616 51.386C20.8332 51.386 23.4 51.4067 23.4 51.4388Z" fill="#498579"/>
<path d="M27.1494 41.2716H24.6726V44.3542H27.1494V41.2716Z" fill="#F4F1A5"/>
<path d="M24.7572 41.07H13.5648V44.5464H24.7572V41.07Z" fill="#498579"/>
<path d="M27.2231 41.3639H24.4565V41.0757H27.2231C27.2604 41.0757 27.2961 41.0911 27.3224 41.1187C27.3488 41.1463 27.3635 41.1836 27.3635 41.2226C27.3621 41.2606 27.3467 41.2966 27.3206 41.3229C27.2944 41.3493 27.2595 41.364 27.2231 41.3639Z" fill="#498579"/>
<path d="M27.2231 44.5482H24.4565V44.2543H27.2231C27.2604 44.2543 27.2961 44.2698 27.3224 44.2973C27.3488 44.3249 27.3635 44.3623 27.3635 44.4013C27.3635 44.4402 27.3488 44.4776 27.3224 44.5052C27.2961 44.5328 27.2604 44.5482 27.2231 44.5482Z" fill="#498579"/>
<path d="M23.8788 41.07H22.5558V44.5464H23.8788V41.07Z" fill="#F1ED87"/>
<path d="M15.9534 41.1096H14.6304V44.5859H15.9534V41.1096Z" fill="#F1ED87"/>
<path d="M27.1495 41.7822C27.1495 41.7822 26.6095 41.7973 25.9525 41.7973C25.2955 41.7973 24.7537 41.7973 24.7537 41.7822C24.7537 41.7671 25.2937 41.7653 25.9525 41.7653C26.6113 41.7653 27.1495 41.7728 27.1495 41.7822Z" fill="#498579"/>
<path d="M27.1495 42.2439C27.1495 42.2439 26.6095 42.2589 25.9525 42.2589C25.2955 42.2589 24.7537 42.2589 24.7537 42.2439C24.7537 42.2288 25.2937 42.2288 25.9525 42.2288C26.6113 42.2288 27.1495 42.2344 27.1495 42.2439Z" fill="#498579"/>
<path d="M27.1495 42.8129C27.1495 42.8129 26.6095 42.828 25.9525 42.828C25.2955 42.828 24.7537 42.828 24.7537 42.8129C24.7537 42.7978 25.2937 42.7978 25.9525 42.7978C26.6113 42.7978 27.1495 42.8035 27.1495 42.8129Z" fill="#498579"/>
<path d="M27.1495 43.3819C27.1495 43.3819 26.6095 43.397 25.9525 43.397C25.2955 43.397 24.7537 43.397 24.7537 43.3819C24.7537 43.3669 25.2937 43.3669 25.9525 43.3669C26.6113 43.3669 27.1495 43.3725 27.1495 43.3819Z" fill="#498579"/>
<path d="M27.1495 43.951C27.1495 43.951 26.6095 43.966 25.9525 43.966C25.2955 43.966 24.7537 43.966 24.7537 43.951C24.7537 43.9359 25.2937 43.9359 25.9525 43.9359C26.6113 43.9359 27.1495 43.9415 27.1495 43.951Z" fill="#498579"/>
<path d="M21.843 42.5001H16.8083V43.1257H21.843V42.5001Z" fill="#F1ED87"/>
<path d="M22.4065 37.6954L23.7997 41.1209H22.9033L22.2841 39.2913L22.4065 37.6954Z" fill="#498579"/>
<path d="M18.1296 34.5977L17.5914 41.1209H22.1436L22.644 34.5977H18.1296Z" fill="#F1ED87"/>
<path d="M18.5743 35.114L18.1027 40.5782L21.5209 40.6253L21.9817 35.082L18.5743 35.114Z" fill="#1C6758"/>
<path d="M19.2996 35.8715L19.0314 39.6305H20.8548L21.1752 35.8715H19.2996Z" fill="#498579"/>
<path d="M71.6114 10.3511L69.9285 10.3606L69.9738 19.1277L71.6568 19.1181L71.6114 10.3511Z" fill="#498579"/>
<path d="M59.7049 10.3733L55.3453 10.398L55.3704 15.2385L59.7299 15.2138L59.7049 10.3733Z" fill="#F1ED87"/>
<path d="M64.0426 10.3506L59.6831 10.3753L59.7081 15.2158L64.0677 15.1911L64.0426 10.3506Z" fill="#F4F1A5"/>
<path d="M55.3518 11.7386C58.248 11.765 61.1532 11.7386 64.0494 11.6971C64.06 11.6949 64.0695 11.6889 64.0764 11.6802C64.0833 11.6714 64.087 11.6604 64.087 11.6491C64.087 11.6378 64.0833 11.6268 64.0764 11.618C64.0695 11.6093 64.06 11.6033 64.0494 11.6011C61.1538 11.5835 58.2552 11.6017 55.3536 11.6557C55.3431 11.6557 55.333 11.6601 55.3256 11.6678C55.3181 11.6756 55.314 11.6862 55.314 11.6971C55.314 11.7081 55.3181 11.7187 55.3256 11.7265C55.333 11.7342 55.3431 11.7386 55.3536 11.7386H55.3518Z" fill="#498579"/>
<path d="M60.5485 15.1355L52.6287 15.1804L52.649 19.124L60.5689 19.0791L60.5485 15.1355Z" fill="#F1ED87"/>
<path d="M68.4304 15.089L60.5105 15.1339L60.5309 19.0775L68.4508 19.0326L68.4304 15.089Z" fill="#F4F1A5"/>
<path d="M52.632 16.2795C57.8934 16.3417 63.1728 16.2795 68.4342 16.1985C68.4466 16.1985 68.4585 16.1933 68.4673 16.1841C68.4761 16.175 68.481 16.1625 68.481 16.1495C68.481 16.1365 68.4761 16.124 68.4673 16.1149C68.4585 16.1057 68.4466 16.1005 68.4342 16.1005C63.1728 16.0722 57.8916 16.0741 52.632 16.1966C52.6215 16.1966 52.6114 16.201 52.604 16.2087C52.5966 16.2165 52.5924 16.2271 52.5924 16.2381C52.5924 16.2491 52.5966 16.2596 52.604 16.2674C52.6114 16.2751 52.6215 16.2795 52.632 16.2795Z" fill="#498579"/>
<path d="M80.3538 19.1266H49.671V20.5397H80.3538V19.1266Z" fill="#498579"/>
<path d="M55.9404 19.8068H54.6948V24.6284H55.9404V19.8068Z" fill="#498579"/>
<path d="M74.5344 19.8068H73.2888V24.6284H74.5344V19.8068Z" fill="#498579"/>
<path d="M73.2524 7.08208L71.5695 7.09161L71.6318 19.1503L73.3148 19.1408L73.2524 7.08208Z" fill="#F1ED87"/>
<path d="M75.8829 9.32824L73.2676 9.34305L73.3181 19.1144L75.9334 19.0996L75.8829 9.32824Z" fill="#F4F1A5"/>
<path d="M75.8664 11.2129C75.4317 11.2601 74.9945 11.2758 74.5578 11.26C74.1217 11.2759 73.685 11.2601 73.251 11.2129C74.1217 11.1501 74.9956 11.1501 75.8664 11.2129Z" fill="#498579"/>
<path d="M75.8664 10.8021C75.4317 10.8493 74.9945 10.8651 74.5578 10.8492C74.1217 10.8651 73.685 10.8494 73.251 10.8021C74.1217 10.7393 74.9956 10.7393 75.8664 10.8021Z" fill="#498579"/>
<path d="M75.8664 17.6324C74.9956 17.6952 74.1217 17.6952 73.251 17.6324C74.1217 17.5696 74.9956 17.5696 75.8664 17.6324Z" fill="#498579"/>
<path d="M75.8664 17.2216C74.9956 17.2844 74.1217 17.2844 73.251 17.2216C74.1217 17.1588 74.9956 17.1588 75.8664 17.2216Z" fill="#498579"/>
<path d="M74.601 16.3266C74.5758 16.3266 74.5542 15.3412 74.5542 14.124C74.5542 12.9068 74.5758 11.9232 74.601 11.9232C74.6262 11.9232 74.646 12.9087 74.646 14.124C74.646 15.3393 74.6244 16.3266 74.601 16.3266Z" fill="#498579"/>
<path d="M78.741 11.731H75.8934V19.1077H78.741V11.731Z" fill="#F1ED87"/>
<path d="M72.8712 9.14404C72.8716 9.24436 72.8435 9.34254 72.7905 9.42614C72.7375 9.50974 72.662 9.57499 72.5736 9.61365C72.4851 9.6523 72.3877 9.6626 72.2937 9.64326C72.1996 9.62392 72.1132 9.57579 72.0453 9.50498C71.9774 9.43418 71.9311 9.34387 71.9123 9.2455C71.8934 9.14713 71.9029 9.04512 71.9395 8.95239C71.9761 8.85967 72.0382 8.7804 72.1178 8.72462C72.1975 8.66884 72.2912 8.63907 72.387 8.63907C72.5151 8.63907 72.638 8.69221 72.7288 8.78685C72.8195 8.8815 72.8708 9.00994 72.8712 9.14404Z" fill="#498579"/>
<path d="M72.5365 10.5384H72.2377V17.7115H72.5365V10.5384Z" fill="#498579"/>
<path d="M82.7731 90.1686C82.7731 90.195 65.853 90.2176 45.0018 90.2176C24.1506 90.2176 7.22705 90.195 7.22705 90.1686C7.22705 90.1422 24.1362 90.1196 45.0018 90.1196C65.8675 90.1196 82.7731 90.1404 82.7731 90.1686Z" fill="#263238"/>
<path d="M44.6923 66.2995L52.1137 90.1686H50.7619L42.0679 66.2995H44.6923Z" fill="#E0E0E0"/>
<path d="M44.6923 66.2995H44.5123H44.0083L42.0607 66.3108L42.0787 66.2826C43.5691 70.3468 46.7821 79.1366 50.5045 89.3113C50.6053 89.5902 50.7061 89.8766 50.8069 90.1422L50.7637 90.1121H52.1137L52.0687 90.1761C49.9969 83.4853 48.1483 77.5218 46.8181 73.2296C46.1557 71.0797 45.6229 69.35 45.2557 68.1536C45.0757 67.5563 44.9317 67.0928 44.8345 66.7762L44.7265 66.4163C44.7031 66.3353 44.6923 66.292 44.6923 66.292C44.6923 66.292 44.7067 66.3297 44.7319 66.4088L44.8453 66.7611C44.9443 67.0758 45.0901 67.5337 45.2773 68.1253C45.6517 69.318 46.1917 71.0421 46.8649 73.1825C48.2059 77.4804 50.0689 83.4495 52.1569 90.1403L52.1767 90.2044H50.7367L50.7241 90.1724C50.6251 89.8973 50.5225 89.6203 50.4217 89.3414C46.7227 79.1517 43.5277 70.3524 42.0535 66.2939V66.2656H42.0823L44.0407 66.2769H44.5393C44.6401 66.2957 44.6923 66.2995 44.6923 66.2995Z" fill="#263238"/>
<path d="M30.087 66.2995L22.6656 90.1686H24.0156L32.7114 66.2995H30.087Z" fill="#E0E0E0"/>
<path d="M30.087 66.2995C30.087 66.2995 30.1428 66.2995 30.2544 66.2995H30.753L32.7114 66.2882H32.7402L32.7294 66.3165C31.257 70.375 28.062 79.1743 24.363 89.3641L24.0588 90.195L24.048 90.227H22.608L22.6278 90.163L27.9216 73.2051L29.5092 68.1479C29.6892 67.5563 29.8422 67.0984 29.9412 66.7838L30.0546 66.4314C30.0798 66.3523 30.0942 66.3146 30.0942 66.3146C30.0942 66.3146 30.0834 66.3579 30.06 66.4389L29.952 66.7988C29.8548 67.1154 29.7126 67.5789 29.5308 68.1762C29.1618 69.3726 28.6308 71.1023 27.9684 73.2522C26.6364 77.5444 24.7896 83.5079 22.7178 90.1988L22.6728 90.1347H24.0228L23.9796 90.1648L24.282 89.3339C28.0044 79.1592 31.2174 70.3619 32.6988 66.3071L32.7186 66.3353L30.7692 66.324H30.267L30.087 66.2995Z" fill="#263238"/>
<path d="M42.2586 66.8233C42.218 66.8595 42.1746 66.8922 42.129 66.9213L41.7474 67.1851L40.3416 68.1498C39.1554 68.9675 37.5192 70.1018 35.721 71.3642L31.1166 74.6145L29.7198 75.5962L29.34 75.8486C29.2972 75.882 29.2514 75.911 29.2032 75.9353C29.2429 75.8983 29.285 75.8643 29.3292 75.8336L29.7 75.5566L31.0806 74.5504C32.2488 73.7063 33.8706 72.5475 35.6706 71.2851C37.4706 70.0227 39.1104 68.8959 40.3074 68.0933C40.905 67.6938 41.3874 67.3716 41.7294 67.1512L42.12 66.9024C42.1643 66.8724 42.2106 66.846 42.2586 66.8233Z" fill="#263238"/>
<path d="M28.0206 40.8533C28.0206 40.8533 25.695 41.1039 25.3566 42.5698C25.0182 44.0357 23.9166 62.1656 25.3566 64.7337C26.7966 67.3019 45.3366 66.9439 46.6236 66.5915C47.9106 66.2392 48.5172 65.3649 48.3858 64.2966C48.2544 63.2282 35.6292 61.9036 35.6292 61.9036L36.3996 42.9825C36.3996 42.9825 31.86 40.5895 28.0206 40.8533Z" fill="#263238"/>
<path d="M48.3967 64.7544H48.3409H48.1753L47.5399 64.7714C46.9873 64.7865 46.1881 64.794 45.1999 64.7921C43.2199 64.7921 40.4929 64.7205 37.4851 64.4944C35.9821 64.3795 34.5511 64.2344 33.2533 64.0799C31.9555 63.9254 30.7891 63.7558 29.8135 63.5957C29.3239 63.5203 28.8847 63.4393 28.4977 63.3714C28.1107 63.3036 27.7777 63.2414 27.5059 63.183L26.8813 63.0568L26.7193 63.0229L26.6653 63.0078C26.6838 63.0053 26.7026 63.0053 26.7211 63.0078L26.8849 63.0323L27.5131 63.1397C27.7849 63.1887 28.1179 63.2471 28.5067 63.3074C28.8955 63.3677 29.3347 63.4468 29.8225 63.5165C30.7999 63.6691 31.9663 63.8255 33.2623 63.98C34.5583 64.1345 35.9893 64.2721 37.4923 64.387C40.4983 64.6131 43.2253 64.6904 45.1999 64.713C46.1863 64.7243 46.9855 64.7262 47.5399 64.7243H48.3427L48.3967 64.7544Z" fill="#1C6758"/>
<path d="M45.675 76.2029C45.6606 76.2255 42.723 74.0643 39.1158 71.3793C35.5086 68.6943 32.5944 66.4954 32.6088 66.4804C32.6232 66.4653 35.5608 68.6189 39.1698 71.3058C42.7788 73.9927 45.6894 76.1803 45.675 76.2029Z" fill="#263238"/>
<path d="M57.6666 56.903C57.6666 56.903 61.8318 56.903 62.0028 60.9653C62.1738 65.0277 49.878 86.4586 49.878 86.4586L45.9846 84.5235L54.333 63.7276L36.2178 61.8622L36.7308 57.0914L57.6666 56.903Z" fill="#FFBE9D"/>
<path d="M50.7007 85.2226L50.58 85.5108C50.58 85.5108 54.396 89.6184 54.054 90.5643L44.8542 86.2306L46.3572 83.084C47.439 84.3935 48.8395 85.1434 50.7007 85.2226Z" fill="#1C6758"/>
<g opacity="0.6">
<path d="M46.8486 84.5499C46.748 84.5367 46.6462 84.5625 46.5626 84.6226C46.479 84.6827 46.4194 84.7728 46.395 84.8759C46.3784 84.9807 46.4008 85.0883 46.4578 85.1763C46.5147 85.2643 46.6018 85.3261 46.701 85.3488C46.8076 85.3625 46.9152 85.3344 47.0032 85.2701C47.0913 85.2058 47.1535 85.1097 47.178 85.0002C47.185 84.8892 47.1504 84.7796 47.0815 84.6948C47.0126 84.61 46.9149 84.5567 46.809 84.5461" fill="white"/>
</g>
<g opacity="0.6">
<path d="M44.8542 86.2325L45.2142 85.4788L53.8992 89.9086C53.8992 89.9086 54.2286 90.2854 54.0522 90.5681L44.8542 86.2325Z" fill="white"/>
</g>
<path d="M50.5998 85.5523C50.5782 85.5975 50.3442 85.5146 50.0598 85.5617C49.7754 85.6088 49.5702 85.7501 49.536 85.7125C49.5018 85.6748 49.6872 85.4336 50.0346 85.3827C50.382 85.3319 50.6286 85.5127 50.5998 85.5523Z" fill="#263238"/>
<path d="M51.3864 86.4247C51.3774 86.4737 51.147 86.4624 50.9094 86.5905C50.6718 86.7186 50.5368 86.907 50.4936 86.8844C50.4504 86.8618 50.535 86.5811 50.8338 86.4285C51.1326 86.2758 51.4044 86.3795 51.3864 86.4247Z" fill="#263238"/>
<path d="M51.4152 87.8906C51.3702 87.8906 51.4152 87.6174 51.633 87.4139C51.8508 87.2104 52.1136 87.2085 52.1154 87.2556C52.1172 87.3027 51.9354 87.38 51.7554 87.5496C51.5754 87.7192 51.462 87.9076 51.4152 87.8906Z" fill="#263238"/>
<path d="M49.7863 41.5863L50.5261 43.9547L46.4923 44.2845L46.0225 43.0164L49.7863 41.5863Z" fill="#FFBE9D"/>
<path d="M61.2396 44.6933C61.317 44.8554 61.5186 44.8817 61.6734 44.9665C61.8176 45.053 61.9357 45.18 62.0143 45.3332C62.0929 45.4865 62.1288 45.6597 62.118 45.8333C62.0921 46.1804 61.9825 46.5149 61.7994 46.8055C61.7431 46.9236 61.6611 47.0263 61.56 47.1051C61.5087 47.1424 61.4478 47.1624 61.3854 47.1624C61.323 47.1624 61.2621 47.1424 61.2108 47.1051C61.092 47.0015 61.1064 46.8093 61.1316 46.6491C61.227 46.0481 61.1028 45.2887 61.2378 44.6952" fill="#FFBE9D"/>
<path d="M34.4124 14.9964C34.3782 14.7322 34.4399 14.4641 34.5851 14.2451C34.7304 14.0261 34.9488 13.8719 35.1972 13.8131L39.6504 10.8474C41.3478 10.4479 43.4862 13.4155 43.7904 15.2055C44.0978 17.1729 44.2184 19.1674 44.1504 21.1596C44.028 24.2233 42.1092 24.5512 42.1092 24.5512L43.5492 34.7391L36.6102 30.2603L34.4124 14.9964Z" fill="#FFBE9D"/>
<path d="M42.8652 17.7473C42.8771 17.8475 42.8513 17.9486 42.7931 18.0292C42.735 18.1097 42.6491 18.1634 42.5538 18.1788C42.46 18.197 42.3632 18.1754 42.2845 18.1189C42.2059 18.0624 42.1519 17.9755 42.1344 17.8773C42.1225 17.7771 42.1484 17.676 42.2065 17.5955C42.2647 17.5149 42.3505 17.4612 42.4458 17.4458C42.5396 17.4277 42.6365 17.4492 42.7151 17.5057C42.7937 17.5623 42.8477 17.6491 42.8652 17.7473Z" fill="#263238"/>
<path d="M43.4376 16.647C43.4016 16.6884 43.1064 16.6828 42.7338 16.8354C42.3612 16.988 42.1146 17.1915 42.0678 17.1802C42.021 17.1689 42.0678 17.1142 42.1812 17.02C42.3376 16.8863 42.5147 16.7818 42.705 16.711C42.8865 16.6379 43.0793 16.6002 43.2738 16.5999C43.4034 16.5961 43.4556 16.6281 43.4376 16.647Z" fill="#263238"/>
<path d="M39.1788 17.9339C39.1902 18.0342 39.1639 18.1353 39.1055 18.2158C39.047 18.2963 38.961 18.3499 38.8656 18.3653C38.7721 18.383 38.6757 18.3612 38.5974 18.3047C38.5192 18.2482 38.4655 18.1616 38.448 18.0639C38.4356 17.9636 38.4613 17.8622 38.5195 17.7816C38.5777 17.7009 38.6639 17.6473 38.7594 17.6324C38.8532 17.6142 38.95 17.6358 39.0287 17.6923C39.1073 17.7488 39.1613 17.8357 39.1788 17.9339Z" fill="#263238"/>
<path d="M39.5658 17.4364C39.5118 17.459 39.2346 17.2857 38.8044 17.2197C38.3742 17.1538 38.0376 17.2197 37.9962 17.1896C37.9548 17.1594 38.0376 17.1274 38.1762 17.0916C38.3921 17.0467 38.6139 17.0423 38.8314 17.0784C39.0421 17.1086 39.2454 17.1802 39.4308 17.2895C39.5586 17.3667 39.6 17.427 39.5658 17.4364Z" fill="#263238"/>
<path d="M41.3225 19.999C41.5234 19.9038 41.7352 19.836 41.9525 19.7973C42.0515 19.7747 42.1451 19.7427 42.1541 19.6673C42.151 19.5569 42.1151 19.4503 42.0515 19.3621C41.9315 19.1109 41.8019 18.854 41.6627 18.5915C41.1227 17.493 40.7123 16.5848 40.7627 16.5622C40.8131 16.5396 41.2811 17.4119 41.8247 18.5104L42.2009 19.2867C42.2791 19.4072 42.3142 19.5526 42.2999 19.6975C42.2893 19.7366 42.2703 19.7727 42.2444 19.803C42.2186 19.8334 42.1865 19.8572 42.1505 19.8727C42.0961 19.895 42.0393 19.9102 41.9813 19.9179C41.7658 19.9736 41.5445 20.0008 41.3225 19.999Z" fill="#263238"/>
<path d="M42.1075 24.5587C40.763 24.7668 39.3896 24.5708 38.1475 23.9935C38.1475 23.9935 39.3301 26.1113 42.1741 25.4782L42.1075 24.5587Z" fill="#EB996E"/>
<path d="M41.3676 21.0145C41.2708 20.8825 41.147 20.7749 41.0053 20.6996C40.8635 20.6243 40.7075 20.5832 40.5486 20.5793C40.4567 20.5813 40.3676 20.6124 40.293 20.6686C40.2184 20.7248 40.1619 20.8034 40.131 20.8939C40.0999 21.0109 40.0962 21.134 40.1204 21.2528C40.1445 21.3715 40.1957 21.4824 40.2696 21.576C40.3421 21.6751 40.4407 21.7498 40.5533 21.7909C40.6659 21.8321 40.7875 21.838 40.9032 21.8078C41.0909 21.7267 41.2509 21.5881 41.3622 21.4102C41.4025 21.3649 41.4316 21.3099 41.4468 21.2501C41.4533 21.2123 41.4519 21.1735 41.4426 21.1364C41.4333 21.0993 41.4163 21.0647 41.3928 21.0353" fill="#EB996E"/>
<path d="M40.1868 20.4285C40.2516 20.4153 40.302 20.8657 40.7052 21.1408C41.1084 21.4159 41.562 21.3103 41.5728 21.3725C41.5728 21.4008 41.481 21.4724 41.2866 21.5025C41.0353 21.5368 40.7804 21.4775 40.5666 21.3348C40.3614 21.1968 40.2155 20.9805 40.1598 20.7319C40.122 20.5378 40.158 20.4285 40.1868 20.4285Z" fill="#263238"/>
<path d="M39.6918 15.5843C39.654 15.6973 39.2544 15.6502 38.7918 15.718C38.3292 15.7859 37.9476 15.9234 37.8828 15.8236C37.854 15.7746 37.9188 15.6672 38.0628 15.5541C38.2641 15.415 38.4931 15.3257 38.7323 15.293C38.9715 15.2604 39.2147 15.2852 39.4434 15.3657C39.6198 15.4505 39.708 15.5296 39.6918 15.5843Z" fill="#263238"/>
<path d="M43.4593 15.718C43.3819 15.8217 43.0327 15.7651 42.6241 15.8085C42.2155 15.8518 41.8771 15.9611 41.7871 15.8707C41.7457 15.8273 41.7871 15.7256 41.9329 15.6201C42.131 15.4871 42.357 15.4063 42.5915 15.3847C42.8259 15.363 43.0619 15.4011 43.2793 15.4957C43.4341 15.5767 43.4917 15.6672 43.4593 15.718Z" fill="#263238"/>
<path d="M32.4595 22.8271C32.5315 21.4611 32.7403 17.0878 33.5827 14.7024C34.4251 12.317 35.6113 11.2487 36.8317 10.7456C37.2926 10.5395 37.7966 10.4613 38.2948 10.5187C38.793 10.5762 39.2687 10.7672 39.6757 11.0735C40.3021 11.537 40.6657 13.0632 40.6657 13.0632C40.6657 13.0632 37.7047 14.1334 36.8857 16.0779C35.9371 18.3013 35.7679 19.3828 35.7679 19.3828L35.5123 20.568C35.5123 20.568 36.0685 25.7194 36.3187 26.7858L32.3047 30.8482C32.4361 29.5066 32.3875 24.1913 32.4595 22.8271Z" fill="#263238"/>
<path d="M40.7538 13.0707C40.7538 13.0707 42.4692 12.6656 43.335 14.6422C43.7274 15.5371 44.1162 18.2466 44.1162 18.2466C44.1162 18.2466 44.262 16.0327 44.0352 14.8287C43.8084 13.6247 43.0614 12.155 42.0786 11.4107C41.0958 10.6665 40.3506 10.3857 38.8134 10.6684C39.2762 10.7895 39.6965 11.0464 40.0248 11.4089C40.257 11.6934 40.3722 11.9459 40.7538 13.0707Z" fill="#263238"/>
<path d="M35.8002 19.5298C35.6958 18.8665 34.9542 18.5048 34.4394 18.9061C34.1568 19.1247 33.966 19.5204 34.0704 20.2251C34.3512 22.1093 36.0918 21.4196 36.0864 21.3669C36.081 21.3141 35.9226 20.3042 35.8002 19.5298Z" fill="#FFBE9D"/>
<path d="M35.4331 20.7432C35.4331 20.7432 35.4061 20.7715 35.3575 20.8054C35.2874 20.85 35.2039 20.8654 35.1235 20.8487C34.9237 20.8073 34.7185 20.5171 34.6591 20.1817C34.6303 20.0216 34.6364 19.8567 34.6771 19.6994C34.6845 19.6378 34.7062 19.5792 34.7404 19.5285C34.7747 19.4779 34.8203 19.4369 34.8733 19.4092C34.9079 19.394 34.9464 19.3917 34.9825 19.4026C35.0185 19.4136 35.0499 19.4372 35.0713 19.4695C35.1037 19.5185 35.0965 19.5562 35.1073 19.558C35.1181 19.5599 35.1415 19.5204 35.1073 19.445C35.0905 19.4002 35.0593 19.3629 35.0191 19.3395C34.9637 19.3088 34.8991 19.302 34.8391 19.3206C34.7676 19.3481 34.704 19.3942 34.6542 19.4545C34.6045 19.5148 34.5702 19.5874 34.5547 19.6654C34.503 19.8399 34.4931 20.0249 34.5259 20.2043C34.5925 20.5812 34.8301 20.9053 35.1019 20.9411C35.152 20.9477 35.2029 20.9425 35.2509 20.9259C35.2989 20.9093 35.3427 20.8816 35.3791 20.845C35.4367 20.7884 35.4403 20.7451 35.4331 20.7432Z" fill="#EB996E"/>
<path d="M37.5389 10.5384C37.5389 10.5534 37.7873 10.5157 38.1833 10.5233C38.415 10.528 38.6446 10.5706 38.8637 10.6495C39.1299 10.7526 39.3744 10.9087 39.5837 11.1093C39.9711 11.4717 40.273 11.9231 40.4657 12.4282C40.6133 12.8051 40.6457 13.0726 40.6673 13.0688C40.6647 13.0084 40.6563 12.9485 40.6421 12.8898C40.4987 12.1839 40.1429 11.5447 39.6269 11.0659C39.4111 10.8566 39.157 10.6951 38.8799 10.5911C38.6549 10.5123 38.4188 10.4735 38.1815 10.4762C38.0226 10.4761 37.8639 10.4868 37.7063 10.5082C37.6498 10.5134 37.5938 10.5235 37.5389 10.5384Z" fill="#1C6758"/>
<path d="M34.2828 21.0918C34.2835 21.0811 34.2835 21.0704 34.2828 21.0597L34.2576 20.975C34.245 20.9354 34.2324 20.8883 34.2162 20.8355L34.1676 20.6471C34.0695 20.2352 34.0283 19.8107 34.0452 19.3866C34.0681 18.7574 34.2158 18.1401 34.479 17.574C34.8154 16.8885 35.2953 16.2914 35.883 15.8273C36.1846 15.5837 36.5002 15.3597 36.828 15.1565C37.1448 14.9568 37.4634 14.791 37.7586 14.6063C38.2748 14.2767 38.7659 13.9056 39.2274 13.4965C39.6216 13.148 39.9258 12.8484 40.1274 12.6374C40.23 12.5318 40.3074 12.4489 40.3596 12.3905L40.419 12.3246C40.4316 12.3095 40.4388 12.302 40.437 12.3001L40.4154 12.3189L40.3506 12.3811L40.113 12.6242C39.9024 12.8295 39.5946 13.1235 39.1968 13.4645C38.7336 13.8668 38.2427 14.2327 37.728 14.5592C37.4364 14.7477 37.1142 14.904 36.7956 15.1057C36.4646 15.3087 36.1465 15.534 35.8434 15.7802C35.2458 16.2488 34.7583 16.8539 34.4178 17.5495C34.1537 18.1235 34.009 18.7497 33.993 19.3866C33.9806 19.8143 34.0285 20.2416 34.1352 20.6546L34.1892 20.8431C34.209 20.8958 34.2252 20.941 34.2378 20.9806L34.2702 21.0654C34.2774 21.0824 34.281 21.0918 34.2828 21.0918Z" fill="#1C6758"/>
<path d="M33.7878 20.4286C33.7878 20.4286 33.7878 20.4173 33.7878 20.3984L33.777 20.308C33.777 20.2288 33.7482 20.1195 33.7338 19.9632C33.6914 19.5388 33.6848 19.1113 33.714 18.6857C33.758 18.0553 33.879 17.4335 34.074 16.8354C34.3177 16.1049 34.6733 15.4207 35.127 14.8099C35.5943 14.2061 36.1395 13.6735 36.747 13.2271C37.287 12.8051 37.827 12.4734 38.2572 12.1757C38.6874 11.878 39.0456 11.65 39.285 11.4767C39.4056 11.3938 39.4956 11.3241 39.5568 11.277L39.627 11.2242L39.6504 11.2035C39.6504 11.2035 39.6396 11.2035 39.6234 11.2186L39.5496 11.2657L39.2706 11.4541C39.0294 11.618 38.673 11.8498 38.232 12.1324C37.791 12.415 37.2654 12.7542 36.711 13.1763C36.1022 13.6231 35.5568 14.1579 35.091 14.7646C34.6283 15.3814 34.2664 16.0741 34.02 16.8147C33.8227 17.4186 33.7017 18.047 33.66 18.6838C33.635 19.1113 33.6489 19.5403 33.7014 19.965C33.7194 20.1158 33.7446 20.2307 33.7572 20.3099C33.7572 20.3457 33.7698 20.3758 33.7752 20.3984C33.7806 20.421 33.786 20.4286 33.7878 20.4286Z" fill="#1C6758"/>
<path d="M43.3979 27.6846C43.3979 27.6846 45.7181 28.6719 46.1627 29.9362C46.6073 31.2005 49.9806 41.6409 49.9806 41.6409L46.0655 43.2123L44.2799 34.6204L43.3979 27.6846Z" fill="#1C6758"/>
<path d="M31.4028 57.3326C31.4028 57.3326 55.3428 56.1813 56.8458 56.5958C58.3488 57.0104 59.247 57.8036 59.5458 59.6897C59.8446 61.5758 64.4598 86.5641 64.4598 86.5641L60.2622 87.8567C60.2622 87.8567 54.3726 73.7817 54.1224 71.4264C53.8722 69.0712 53.0424 64.2438 53.0424 64.2438C53.0424 64.2438 43.9416 64.4002 37.2402 64.2438C30.5388 64.0874 31.4388 57.5945 31.4388 57.5945L31.4028 57.3326Z" fill="#FFBE9D"/>
<path d="M60.21 87.9697L60.1794 87.8944C59.9382 87.3178 54.2826 73.7798 54.0342 71.4359C53.8038 69.2747 53.0784 64.973 52.9704 64.3381C52.0704 64.3531 43.5438 64.485 37.242 64.3381C35.1594 64.2891 33.5916 63.6277 32.5782 62.3747C31.0446 60.4773 31.3182 57.8206 31.3524 57.5964L31.2966 57.244H31.3974C32.3766 57.1969 55.3716 56.0965 56.8692 56.5111C58.5504 56.9765 59.3514 57.8941 59.6358 59.6784C59.931 61.54 64.4958 86.3022 64.5498 86.5528L64.5642 86.6357L60.21 87.9697ZM53.1198 64.1477L53.1342 64.2269C53.1432 64.274 53.9658 69.0844 54.2142 71.4151C54.45 73.6404 59.8464 86.6225 60.3144 87.7418L64.359 86.4982C64.0638 84.8985 59.7474 61.5136 59.4594 59.7048C59.1894 58.009 58.4262 57.131 56.8242 56.6901C55.4058 56.2963 33.2064 57.3439 31.509 57.4249L31.536 57.5964V57.6096C31.536 57.6378 31.176 60.3492 32.7204 62.256C33.6996 63.4657 35.2224 64.1025 37.2492 64.1515C43.8714 64.306 52.956 64.1515 53.0478 64.1515L53.1198 64.1477Z" fill="#EB996E"/>
<path d="M33.0193 43.8172L33.6223 47.7212C33.6223 47.7212 31.0033 52.916 30.7081 57.3816C30.5677 59.5032 31.7305 63.8481 31.7305 63.8481C31.7305 63.8481 40.9537 64.909 45.9289 64.7733L51.2371 64.5302L52.1731 55.8497L46.2151 54.9491L46.3051 43.12C46.3051 43.12 47.3851 40.0054 47.4679 39.0841C47.6587 37.1396 47.5795 35.1724 45.7237 32.6514L43.3981 27.6846L42.6223 27.3078L42.9913 33.324L36.3061 26.6747L32.9203 27.9465L31.9609 32.6853L33.0193 43.8172Z" fill="#1C6758"/>
<g opacity="0.3">
<path d="M44.6076 56.3867C44.1738 56.4658 41.0436 56.5129 40.6098 56.5921C40.536 56.6158 40.4583 56.6235 40.3816 56.6147C40.3048 56.606 40.2306 56.581 40.1634 56.5412C40.1092 56.4875 40.0716 56.4181 40.0556 56.3418C40.0396 56.2656 40.0457 56.186 40.0734 56.1135C40.1308 55.9676 40.2209 55.8383 40.3362 55.7367C41.094 54.983 42.0786 54.5477 43.0362 54.1219C43.3422 53.9881 43.6734 53.8506 43.9938 53.9335C44.1509 53.9878 44.293 54.0814 44.4077 54.2062C44.5225 54.331 44.6066 54.4831 44.6526 54.6495C44.7438 54.9816 44.7816 55.3274 44.7642 55.6726" fill="black"/>
</g>
<g opacity="0.3">
<path d="M33.2657 46.5399C34.3835 46.2667 35.0855 45.1135 35.5391 44.0094C35.9927 42.9052 36.3671 41.6862 37.2563 40.9249C37.9079 40.3597 38.7809 40.111 39.3443 39.4553C39.6121 39.1341 39.7897 38.7415 39.8574 38.3211C39.925 37.9007 39.8802 37.4689 39.7277 37.0736C39.5657 36.6704 39.2399 36.2898 38.8277 36.2672C38.3417 36.2408 37.9637 36.6817 37.6667 37.0868C36.3083 38.9497 35.0273 40.8715 33.8237 42.8525C33.1775 43.917 32.5331 45.2096 32.9831 46.3797" fill="black"/>
</g>
<path d="M33.273 28.5683C33.273 28.5683 31.3812 29.1976 30.6972 30.4393C30.0132 31.681 28.8792 37.7105 28.6056 39.3346C28.332 40.9588 27.009 47.6421 28.6056 48.6935C30.2022 49.7449 32.301 48.1282 32.8482 47.1654C33.3954 46.2026 35.6292 41.1962 35.6292 41.1962L33.6222 39.4307C33.6222 39.4307 33.9822 34.6562 33.8508 33.6519C33.7194 32.6476 33.273 28.5683 33.273 28.5683Z" fill="#FFBE9D"/>
<path d="M27.3402 40.9645L31.7304 41.2641L33.7356 38.7995L34.29 34.9181L34.1424 27.4924C34.1424 27.4924 30.2238 28.4929 29.376 31.6113C28.7478 33.9157 27.3402 40.9645 27.3402 40.9645Z" fill="#1C6758"/>
<path d="M35.109 32.1822C34.857 32.1464 34.5348 32.4573 34.749 33.2072C34.929 33.8328 35.2674 34.4414 35.2422 34.7899C35.217 35.1385 35.0874 35.8639 35.0874 36.2408C35.0717 36.6092 35.0375 36.9765 34.9848 37.3412L31.9968 41.1096L34.5834 43.4987L36.63 40.1335C36.63 40.1335 37.2474 40.2409 37.6056 39.8113L38.1456 39.1651C38.1456 39.1651 39.5316 38.6281 39.249 37.8461C39.249 37.8461 39.6594 37.4372 39.2868 36.7815C39.2868 36.7815 39.4812 36.0995 39.1986 35.6981C39.1986 35.6981 39.1734 34.7843 38.9412 34.6222C38.709 34.4602 36.3078 34.4338 36.3078 34.4338C36.1771 34.016 36.0263 33.6054 35.856 33.2034C35.5932 32.7493 35.46 32.2312 35.109 32.1822Z" fill="#FFBE9D"/>
<path d="M36.1314 35.8884C36.1314 35.8979 36.0685 35.8621 36.0127 35.7735C35.9399 35.6542 35.9082 35.5125 35.9226 35.3718C35.937 35.231 35.9967 35.0996 36.0918 34.9991C36.1638 34.9256 36.225 34.903 36.2304 34.9124C36.1234 35.0481 36.0499 35.2092 36.0162 35.3816C36.0164 35.5576 36.0559 35.7312 36.1314 35.8884Z" fill="#EB996E"/>
<path d="M39.0978 35.6303C38.7358 35.7408 38.3634 35.8096 37.9872 35.8357C37.6141 35.8925 37.2362 35.9057 36.8604 35.8753C37.2302 35.8078 37.6034 35.7619 37.9782 35.7377C38.3491 35.6795 38.7229 35.6437 39.0978 35.6303Z" fill="#EB996E"/>
<path d="M39.3102 36.7081C39.0119 36.8349 38.6969 36.9137 38.376 36.9417C38.0596 37.003 37.7363 37.0145 37.4166 36.9756C37.4166 36.9474 37.8414 36.9191 38.3634 36.8437C38.8854 36.7684 39.3048 36.6817 39.3102 36.7081Z" fill="#EB996E"/>
<path d="M39.258 37.8141C38.7923 37.9636 38.3027 38.0142 37.818 37.963C38.0548 37.9087 38.2958 37.8766 38.538 37.8669C38.7761 37.8274 39.017 37.8098 39.258 37.8141Z" fill="#EB996E"/>
<path d="M36.9901 38.1533C36.9901 38.1646 36.9397 38.1533 36.8785 38.1175C36.7978 38.0599 36.7411 37.9723 36.7201 37.8725C36.697 37.7739 36.7098 37.6697 36.7561 37.5805C36.7921 37.5145 36.8317 37.4881 36.8407 37.4957C36.8497 37.5032 36.7669 37.6596 36.8101 37.8499C36.8533 38.0402 37.0027 38.1288 36.9901 38.1533Z" fill="#EB996E"/>
<path d="M36.3996 37.2564C36.3996 37.2658 36.3402 37.2338 36.2844 37.1527C36.2128 37.0457 36.1716 36.9196 36.1656 36.7891C36.1582 36.6582 36.1856 36.5278 36.2448 36.4123C36.2934 36.3256 36.3402 36.2879 36.3492 36.2954C36.2942 36.4513 36.2638 36.6155 36.2592 36.7816C36.2822 36.9465 36.3296 37.1067 36.3996 37.2564Z" fill="#EB996E"/>
<path d="M38.5201 39.003C38.3895 39.0754 38.2462 39.1191 38.0989 39.1312C37.9563 39.1741 37.8066 39.185 37.6597 39.1632C37.7899 39.09 37.9334 39.0463 38.0809 39.0351C38.2233 38.991 38.3732 38.9801 38.5201 39.003Z" fill="#EB996E"/>
<path d="M37.3626 34.4508C37.3626 34.479 37.0026 34.479 36.5472 34.5262C36.0918 34.5733 35.7408 34.6467 35.7336 34.6204C35.9888 34.5072 36.2614 34.4434 36.5382 34.4319C36.8119 34.3871 37.0911 34.3935 37.3626 34.4508Z" fill="#EB996E"/>
<path d="M45.2664 43.5082H60.1452C60.4078 43.5082 60.6596 43.6174 60.8453 43.8117C61.0309 44.0061 61.1352 44.2696 61.1352 44.5445V55.584H44.28V44.5426C44.2805 44.2687 44.3845 44.0062 44.5694 43.8124C44.7542 43.6185 45.0048 43.5092 45.2664 43.5082Z" fill="#E0E0E0"/>
<path d="M61.1352 56.3867H41.3352C41.3352 56.1758 41.4152 55.9736 41.5577 55.8244C41.7001 55.6753 41.8933 55.5916 42.0948 55.5916H61.1352V56.3867Z" fill="#E0E0E0"/>
<path d="M60.5125 44.2845H44.7913V55.5916H60.5125V44.2845Z" fill="white"/>
<path d="M60.5106 55.584C60.5106 55.584 60.5106 55.5124 60.5106 55.3767C60.5106 55.2411 60.5106 55.0376 60.5106 54.7776C60.5106 54.2519 60.5106 53.4831 60.4998 52.4996C60.4998 50.5325 60.489 47.7118 60.48 44.2769L60.5178 44.3165H44.7984L44.8452 44.2675C44.8452 48.3053 44.8452 52.1397 44.8452 55.5727L44.8038 55.5275L56.1276 55.5501L59.3676 55.5633H60.2298H60.4512H60.5286H60.4566H60.2388H59.3856L56.1618 55.5746L44.8092 55.5972H44.766V55.584C44.766 52.1491 44.766 48.3148 44.766 44.2788V44.2298H44.8128H60.5322H60.57V44.2788C60.57 47.7231 60.5556 50.5532 60.5502 52.5259C60.5502 53.5057 60.5502 54.2707 60.5502 54.787C60.5502 55.0451 60.5502 55.243 60.5502 55.3786C60.5502 55.5143 60.5106 55.584 60.5106 55.584Z" fill="#263238"/>
<path d="M61.0525 55.584C61.0525 55.6123 56.8027 55.633 51.5611 55.633C46.3195 55.633 42.0679 55.6123 42.0679 55.584C42.0679 55.5558 46.3177 55.535 51.5611 55.535C56.8045 55.535 61.0525 55.5652 61.0525 55.584Z" fill="#263238"/>
<path d="M52.65 54.2632C54.9315 54.2632 56.781 52.3272 56.781 49.939C56.781 47.5508 54.9315 45.6147 52.65 45.6147C50.3686 45.6147 48.519 47.5508 48.519 49.939C48.519 52.3272 50.3686 54.2632 52.65 54.2632Z" fill="#1AA536"/>
<path d="M50.0833 50.0445L50.9581 49.1777L52.1659 50.3422L54.5437 48.0001L55.4077 48.8555L52.1533 52.0888L50.0833 50.0445Z" fill="white"/>
<path d="M34.9884 37.3411C35.0082 37.3581 33.768 38.9258 32.2182 40.8401C30.6684 42.7545 29.3958 44.292 29.376 44.2788C29.3562 44.2656 30.5964 42.696 32.1462 40.7798C33.696 38.8636 34.9686 37.3242 34.9884 37.3411Z" fill="#EB996E"/>
<path d="M34.7742 34.9124C34.7338 35.459 34.6622 36.0026 34.56 36.5404C34.4892 37.084 34.387 37.6226 34.254 38.1532C34.2944 37.606 34.366 37.0618 34.4682 36.5234C34.5403 35.9806 34.6424 35.4427 34.7742 34.9124Z" fill="#263238"/>
<path d="M46.305 43.12C46.3114 43.0815 46.3211 43.0437 46.3338 43.007L46.431 42.6904C46.5174 42.4172 46.6452 42.0215 46.791 41.5298C46.9651 40.9552 47.1105 40.3716 47.2266 39.7812C47.3716 39.0604 47.4363 38.3244 47.4192 37.588C47.3542 36.2472 46.9944 34.9402 46.368 33.7687C46.182 33.412 45.9777 33.0661 45.756 32.7324C45.6804 32.6137 45.6156 32.5251 45.576 32.463C45.5528 32.432 45.5329 32.3985 45.5166 32.3631C45.5441 32.3891 45.5688 32.4182 45.5904 32.4498C45.6372 32.5101 45.7074 32.5949 45.7884 32.7117C46.0224 33.0383 46.2364 33.38 46.4292 33.7348C46.7157 34.263 46.9515 34.8197 47.133 35.3967C47.3588 36.1034 47.4891 36.8397 47.52 37.5842C47.5382 38.3286 47.4705 39.0726 47.3184 39.8001C47.1972 40.392 47.0446 40.9764 46.8612 41.5505C46.7064 42.0404 46.5696 42.4342 46.4724 42.7036C46.4256 42.8292 46.3878 42.9329 46.359 43.0145C46.3452 43.0518 46.327 43.0873 46.305 43.12Z" fill="#263238"/>
<path d="M42.48 37.2526C42.4874 37.3404 42.4874 37.4286 42.48 37.5164C42.4798 37.6198 42.4726 37.723 42.4584 37.8254C42.4455 37.962 42.4256 38.0979 42.399 38.2324C42.3702 38.3955 42.3317 38.5566 42.2838 38.7147C42.2331 38.8982 42.173 39.0787 42.1038 39.2555C41.9377 39.6542 41.7313 40.0332 41.4882 40.386C41.2391 40.7381 40.9535 41.0604 40.6368 41.347C40.498 41.4711 40.3526 41.5868 40.2012 41.6937C40.0717 41.79 39.9365 41.8774 39.7962 41.9556C39.68 42.0259 39.5598 42.0888 39.4362 42.144C39.3478 42.1891 39.2563 42.2275 39.1626 42.2589C39.0847 42.2925 39.004 42.3184 38.9214 42.3362C38.9124 42.3154 39.258 42.2043 39.7548 41.9009C39.8907 41.8192 40.0223 41.7299 40.149 41.6334C40.2894 41.5354 40.4244 41.411 40.572 41.2848C41.1922 40.7136 41.684 40.0058 42.012 39.2122C42.0807 39.0397 42.1408 38.8636 42.192 38.6846C42.2418 38.5288 42.2832 38.3703 42.3162 38.2098C42.4656 37.6294 42.462 37.2526 42.48 37.2526Z" fill="#263238"/>
<path d="M47.4282 38.9653C47.418 38.955 47.4095 38.9429 47.403 38.9295L47.34 38.8146C47.2806 38.711 47.1996 38.5697 47.097 38.3944C46.9944 38.2192 46.8342 38.0044 46.6668 37.7595C46.4994 37.5145 46.287 37.2469 46.062 36.9474C45.1368 35.7641 43.7706 34.2096 42.2046 32.5496C40.6386 30.8896 39.168 29.4426 38.0898 28.4044L37.3554 27.7166C37.1394 27.5169 36.9522 27.3398 36.7956 27.2041L36.4356 26.8857L36.3438 26.8009C36.332 26.7921 36.3216 26.7813 36.3132 26.7689C36.3261 26.7755 36.3382 26.7837 36.3492 26.7934C36.3762 26.8141 36.4086 26.8386 36.4464 26.8706L36.8172 27.174L37.3878 27.6752C37.6092 27.8749 37.8576 28.1029 38.1312 28.3535C39.2238 29.371 40.698 30.8162 42.2712 32.4743C43.8444 34.1324 45.1998 35.7 46.1124 36.8965C46.3356 37.1998 46.5372 37.4731 46.71 37.718L47.1276 38.3662C47.223 38.5546 47.3076 38.6903 47.3562 38.7977L47.4138 38.9107C47.4258 38.9471 47.4306 38.9653 47.4282 38.9653Z" fill="#263238"/>
<path d="M43.9327 47.6817C43.8996 47.6938 43.8651 47.7007 43.8301 47.7024L43.5367 47.7457C43.2811 47.7815 42.9085 47.823 42.4567 47.8663C41.5369 47.953 40.2607 48.0227 38.8567 48.0058C37.4527 47.9888 36.1711 47.8814 35.2567 47.7721C34.7977 47.7175 34.4269 47.6647 34.1767 47.6214L33.8833 47.5724C33.8489 47.5684 33.815 47.5602 33.7825 47.5479C33.8171 47.5433 33.8522 47.5433 33.8869 47.5479L34.1821 47.5799C34.4377 47.612 34.8103 47.6534 35.2621 47.6986C36.1783 47.791 37.4509 47.8871 38.8621 47.904C40.2733 47.921 41.5423 47.8607 42.4621 47.7928C42.9211 47.7589 43.2937 47.7288 43.5421 47.7043L43.8373 47.6798C43.869 47.6769 43.901 47.6776 43.9327 47.6817Z" fill="#263238"/>
<path d="M51.7284 43.495C51.7284 43.495 54.6768 42.291 54.9558 42.1949C55.2348 42.0988 57.8124 41.8878 57.8124 41.8878L61.1352 43.137C61.1352 43.137 61.1658 43.8511 60.39 43.755C59.706 43.6341 59.0316 43.4602 58.3722 43.235L57.906 43.5251L51.7284 43.495Z" fill="#FFBE9D"/>
<path d="M60.975 43.9528C61.0524 44.1168 61.254 44.1413 61.4088 44.2279C61.5521 44.3155 61.6694 44.4428 61.7478 44.5957C61.8263 44.7487 61.8628 44.9213 61.8534 45.0947C61.8275 45.4412 61.7179 45.7751 61.5348 46.065C61.4786 46.1821 61.3973 46.284 61.2972 46.3627C61.246 46.4 61.1851 46.42 61.1226 46.42C61.0602 46.42 60.9993 46.4 60.948 46.3627C60.8989 46.3001 60.8658 46.2253 60.852 46.1455C60.8381 46.0657 60.8439 45.9835 60.8688 45.9068C60.9642 45.3057 60.84 44.5445 60.975 43.951" fill="#FFBE9D"/>
<path d="M64.3158 85.6314L64.4166 85.9254C64.4166 85.9254 69.8886 86.1496 70.263 87.0804L60.7446 90.5812L59.76 87.2179C61.407 87.3838 62.9136 86.9165 64.3158 85.6314Z" fill="#1C6758"/>
<g opacity="0.6">
<path d="M61.0812 87.9226C60.9992 87.9858 60.9424 88.0783 60.9214 88.1826C60.9005 88.2869 60.917 88.3955 60.9678 88.4879C61.0251 88.5775 61.1135 88.6404 61.2142 88.6633C61.3149 88.6861 61.4202 88.6671 61.5078 88.6104C61.5946 88.5437 61.6547 88.4457 61.6763 88.3353C61.6979 88.2249 61.6796 88.1101 61.6248 88.0131C61.5562 87.9282 61.4589 87.8744 61.3532 87.8628C61.2476 87.8512 61.1418 87.8828 61.0578 87.9509" fill="white"/>
</g>
<g opacity="0.6">
<path d="M60.7446 90.5813L60.5088 89.7729L69.7176 86.713C69.7176 86.713 70.2054 86.7507 70.2576 87.0898L60.7446 90.5813Z" fill="white"/>
</g>
<path d="M64.4598 85.9423C64.4742 85.9913 64.2492 86.0987 64.0728 86.3399C63.8964 86.5811 63.8442 86.8298 63.7956 86.826C63.747 86.8223 63.72 86.5151 63.9378 86.2287C64.1556 85.9423 64.4544 85.8934 64.4598 85.9423Z" fill="#263238"/>
<path d="M65.6028 86.0064C65.6298 86.0497 65.4552 86.2061 65.367 86.4699C65.2788 86.7337 65.3058 86.9692 65.259 86.9843C65.2122 86.9994 65.0898 86.7337 65.2068 86.4077C65.3238 86.0818 65.5866 85.9612 65.6028 86.0064Z" fill="#263238"/>
<path d="M66.5892 87.0503C66.5514 87.0766 66.4092 86.8618 66.4344 86.5472C66.4596 86.2325 66.6468 86.0516 66.6792 86.0837C66.7116 86.1157 66.627 86.3098 66.6054 86.5641C66.5838 86.8185 66.6342 87.0277 66.5892 87.0503Z" fill="#263238"/>
</svg>
