<svg width="21" height="22" viewBox="0 0 21 22" fill="none" xmlns="http://www.w3.org/2000/svg">
<path fill-rule="evenodd" clip-rule="evenodd" d="M10.7014 6.71262C11.0926 6.71262 11.4098 7.0484 11.4098 7.46262V14.611C11.4098 15.0253 11.0926 15.361 10.7014 15.361C10.3102 15.361 9.9931 15.0253 9.9931 14.611V7.46262C9.9931 7.0484 10.3102 6.71262 10.7014 6.71262Z" fill="#171717"/>
<path fill-rule="evenodd" clip-rule="evenodd" d="M6.61389 11.0368C6.61389 10.6226 6.93102 10.2868 7.32222 10.2868H14.0805C14.4717 10.2868 14.7888 10.6226 14.7888 11.0368C14.7888 11.451 14.4717 11.7868 14.0805 11.7868H7.32222C6.93102 11.7868 6.61389 11.451 6.61389 11.0368Z" fill="#171717"/>
<path fill-rule="evenodd" clip-rule="evenodd" d="M4.01817 3.96045C2.7913 5.25949 2.21385 7.42738 2.21385 11.0368C2.21385 14.6463 2.7913 16.8142 4.01817 18.1132C5.24505 19.4123 7.29249 20.0237 10.7014 20.0237C14.1103 20.0237 16.1578 19.4123 17.3847 18.1132C18.6115 16.8142 19.189 14.6463 19.189 11.0368C19.189 7.42738 18.6115 5.25949 17.3847 3.96045C16.1578 2.6614 14.1103 2.04999 10.7014 2.04999C7.29249 2.04999 5.24505 2.6614 4.01817 3.96045ZM3.01644 2.89979C4.66341 1.15594 7.21392 0.549988 10.7014 0.549988C14.1889 0.549988 16.7394 1.15594 18.3864 2.89979C20.0334 4.64364 20.6057 7.34418 20.6057 11.0368C20.6057 14.7295 20.0334 17.43 18.3864 19.1739C16.7394 20.9177 14.1889 21.5237 10.7014 21.5237C7.21392 21.5237 4.66341 20.9177 3.01644 19.1739C1.36947 17.43 0.79718 14.7295 0.79718 11.0368C0.79718 7.34418 1.36947 4.64364 3.01644 2.89979Z" fill="#171717"/>
</svg>
