<svg width="70" height="59" viewBox="0 0 70 59" fill="none" xmlns="http://www.w3.org/2000/svg">
<path d="M36.4151 55.5067C56.0681 55.5067 72 39.5748 72 19.9218C72 0.26884 56.0681 -15.6631 36.4151 -15.6631C16.7621 -15.6631 0.8302 0.26884 0.8302 19.9218C0.8302 39.5748 16.7621 55.5067 36.4151 55.5067Z" fill="#EBE869"/>
<path fill-rule="evenodd" clip-rule="evenodd" d="M60.2141 24.172C59.865 24.9668 59.8364 25.8331 59.6861 26.6682C58.6257 32.562 57.5939 38.4613 56.5491 44.3581C56.3277 45.6062 55.3856 46.2454 54.14 46.014C53.4184 45.88 52.6958 45.751 51.917 45.6096C51.917 46.3306 51.9052 47.0256 51.9207 47.7198C51.9328 48.2741 51.7121 48.636 51.16 48.7699C50.4246 48.6215 50.2632 48.4219 50.2629 47.6409C50.2621 43.6445 50.2555 39.648 50.2719 35.6521C50.2738 35.1789 50.1512 35.0101 49.6547 35.0119C44.7379 35.0286 39.8208 35.0234 34.9038 35.0245C34.5511 34.8712 34.2806 34.6509 34.2514 34.2317C34.4718 33.5267 34.6532 33.3828 35.3948 33.3824C40.1784 33.3796 44.9619 33.378 49.7455 33.3828C51.174 33.3845 51.9128 34.1369 51.914 35.5681C51.9163 38.0153 51.9148 40.4621 51.9148 42.9092C51.9148 44.0066 51.9148 44.0066 53.0155 44.0896C53.4254 44.177 53.8386 44.2521 54.2444 44.3554C54.6554 44.4601 54.8635 44.3992 54.9482 43.9029C55.547 40.3934 56.1784 36.8895 56.8034 33.3843C57.3736 30.1866 57.9447 26.9887 58.5274 23.7929C58.5929 23.4348 58.4817 23.2859 58.1336 23.2381C57.6441 23.1706 57.1582 23.0747 56.6708 22.991C56.4366 22.9446 56.203 22.894 55.9682 22.8524C51.0838 21.9856 46.1991 21.1208 41.315 20.2538C38.113 19.6852 34.9111 19.1184 31.7117 18.5373C31.2988 18.4622 31.0708 18.5263 30.8526 18.9446C30.0288 20.5239 28.2543 21.3968 26.5659 21.1238C24.526 20.7941 23.198 19.4538 22.8759 17.3713C22.8375 17.123 22.7889 16.9521 22.5186 16.9055C21.6313 16.753 20.7442 16.6003 19.8589 16.4371C19.5718 16.3841 19.4543 16.4456 19.4005 16.7702C19.1184 18.4739 18.8002 20.1716 18.4989 21.8722C17.697 26.3948 16.9013 30.9186 16.0872 35.4391C16.037 35.7179 16.1045 35.8843 16.2852 36.0678C17.6653 37.4725 20.0198 36.8896 20.6473 34.9839C21.0256 33.8356 21.5754 33.3903 22.7237 33.3851C25.4675 33.3726 28.2114 33.3777 30.9555 33.3832C31.6477 33.3847 31.8442 33.5515 32.0417 34.2313C31.9192 34.8087 31.5696 35.0354 30.9758 35.0315C28.2876 35.014 25.5992 35.0276 22.9112 35.0193C22.5705 35.0181 22.3425 35.051 22.2104 35.4499C21.578 37.3597 20.0373 38.4854 18.1358 38.4777C16.2318 38.47 14.6882 37.3372 14.0575 35.44C13.9473 35.108 13.7931 35.0131 13.471 35.0189C12.6244 35.0342 11.7766 35.0409 10.9304 35.0159C10.5777 35.0055 10.5012 35.1301 10.5017 35.4592C10.5099 42.3274 10.5113 49.1954 10.4992 56.0635C10.4984 56.4534 10.6418 56.5233 10.9826 56.5148C11.7554 56.495 12.5304 56.482 13.3019 56.5185C13.7624 56.5402 13.974 56.3979 14.122 55.9412C14.6881 54.1943 16.3124 53.0491 18.1372 53.0464C19.9756 53.0435 21.6037 54.2216 22.1992 55.9773C22.2541 56.1393 22.2286 56.3499 22.4319 56.4405C22.5381 56.543 22.6723 56.5158 22.7981 56.5158C31.7636 56.5154 40.7292 56.5123 49.6947 56.5187C50.1138 56.5189 50.2816 56.4041 50.2723 55.9531C50.2452 54.6466 50.2598 53.3392 50.2638 52.0321C50.2659 51.3637 50.4762 51.1288 51.1529 51.012C51.7213 51.1278 51.9239 51.5006 51.9198 52.0513C51.9105 53.3958 51.9209 54.7405 51.9157 56.0851C51.9107 57.3789 51.1624 58.1368 49.8562 58.1512C48.6039 58.1653 47.3515 58.1543 46.0988 58.1545C38.3999 58.1545 30.7008 58.1547 23.0019 58.1543C21.5335 58.1542 21.122 57.8602 20.6188 56.4566C20.2412 55.4037 19.2226 54.6876 18.1195 54.6996C16.9971 54.7119 16.0335 55.4188 15.6616 56.5024C15.2148 57.8053 14.7301 58.1531 13.3476 58.1539C10.9532 58.1556 8.55788 58.1162 6.16463 58.171C5.00093 58.1975 4.1173 57.8883 3.62329 56.7779C3.62329 49.4094 3.62329 42.0408 3.62329 34.6723C4.23023 33.5227 5.23786 33.2775 6.4374 33.3609C7.25854 33.4183 8.08902 33.3363 8.91111 33.3862C9.37267 33.4141 9.49614 33.2299 9.55713 32.8299C9.68966 31.9616 9.88331 31.1025 10.0064 30.2332C10.0933 29.6197 10.4003 29.3129 11.0141 29.305C11.6476 29.6151 11.7651 29.8528 11.6424 30.5253C11.5005 31.3024 11.4117 32.0922 11.2175 32.8554C11.0884 33.3642 11.2879 33.378 11.6859 33.3815C12.5484 33.3893 13.4242 33.2568 14.2701 33.4749C14.6393 33.5701 14.7478 33.5695 14.8195 33.15C15.3016 30.3249 15.8196 27.5065 16.3231 24.6851C16.7975 22.0268 17.2619 19.3664 17.7478 16.7101C17.832 16.2488 17.7798 16.0245 17.2325 15.9709C16.449 15.8943 15.675 15.7114 14.9 15.559C14.4882 15.478 14.2875 15.549 14.2047 16.0388C13.6437 19.3534 13.0412 22.661 12.4563 25.9714C12.299 26.8602 12.1559 27.0217 11.3931 27.1102C10.8544 26.8959 10.6598 26.5367 10.7683 25.9387C11.3909 22.5035 11.9858 19.0631 12.593 15.625C12.8251 14.3111 13.676 13.6778 14.9986 13.9039C17.6427 14.3561 20.2822 14.8359 22.9208 15.3209C23.8606 15.4937 24.4001 16.1077 24.5091 17.0458C24.6626 18.3678 25.4378 19.2331 26.6869 19.4774C27.8067 19.6964 28.9029 19.1181 29.4975 17.995C30.0202 17.0079 30.6504 16.6857 31.8221 16.8885C34.8091 17.4061 37.7923 17.947 40.7774 18.477C46.078 19.4181 51.3789 20.358 56.6798 21.2978C57.1682 21.3845 57.6548 21.4918 58.147 21.5456C59.1383 21.6539 59.8495 22.1184 60.2139 23.0668C60.2141 23.435 60.2141 23.8035 60.2141 24.172ZM8.86161 45.7755C8.86161 42.3686 8.85539 38.9615 8.86973 35.5546C8.87149 35.1593 8.79359 35 8.35854 35.0186C7.51292 35.0547 6.66432 35.043 5.81761 35.0231C5.41759 35.0139 5.27343 35.1424 5.2741 35.5613C5.28533 42.3569 5.28668 49.1523 5.27194 55.9479C5.27086 56.4087 5.44112 56.5127 5.85156 56.5016C6.62456 56.4804 7.4004 56.4628 8.17124 56.5068C8.7042 56.5372 8.88393 56.4179 8.87798 55.8303C8.84417 52.4792 8.86161 49.1273 8.86161 45.7755Z" fill="#090808"/>
<path fill-rule="evenodd" clip-rule="evenodd" d="M11.3935 27.1101C12.1563 27.0215 12.2995 26.8601 12.4567 25.9713C13.0417 22.6609 13.644 19.3533 14.2051 16.0387C14.2878 15.5489 14.4884 15.478 14.9004 15.5589C15.6754 15.7113 16.4493 15.8941 17.2329 15.9708C17.7802 16.0244 17.8324 16.2487 17.7481 16.71C17.2622 19.3663 16.7978 22.0265 16.3234 24.6849C15.82 27.5062 15.3021 30.3248 14.8199 33.1498C14.7482 33.5695 14.6396 33.57 14.2704 33.4748C13.4245 33.2567 12.5488 33.3891 11.6862 33.3813C11.2882 33.378 11.0888 33.364 11.2179 32.8553C11.4121 32.0919 11.5007 31.3022 11.6428 30.5252C11.7655 29.8525 11.648 29.6149 11.0145 29.3048C11.1407 28.5732 11.267 27.8416 11.3935 27.1101Z" fill="#EBE869"/>
<path fill-rule="evenodd" clip-rule="evenodd" d="M34.9037 35.0243C39.8207 35.0232 44.7378 35.0285 49.6545 35.0117C50.1513 35.01 50.2736 35.1787 50.2717 35.6519C50.2554 39.648 50.262 43.6444 50.2628 47.6408C50.2631 48.4216 50.4243 48.6213 51.1598 48.7697C51.1575 49.517 51.1551 50.2643 51.1528 51.0118C50.4761 51.1285 50.2657 51.3634 50.2636 52.0318C50.2597 53.3389 50.245 54.6463 50.2722 55.9528C50.2813 56.4038 50.1135 56.5187 49.6946 56.5184C40.729 56.5119 31.7635 56.5151 22.798 56.5156C22.6721 56.5156 22.5378 56.5427 22.4318 56.4402C30.8308 56.4386 39.2301 56.4301 47.6291 56.4512C48.2117 56.4527 48.3579 56.2055 48.3855 55.7315C48.3917 55.6212 48.3881 55.5102 48.3881 55.4C48.3883 48.99 48.3885 42.58 48.3875 36.1701C48.3875 36.0045 48.392 35.8371 48.369 35.6742C48.3152 35.291 48.1586 35.1033 47.6969 35.106C43.6448 35.1296 39.5925 35.1209 35.5403 35.1163C35.3273 35.1157 35.0956 35.1913 34.9037 35.0243Z" fill="#C2D6D5"/>
<path fill-rule="evenodd" clip-rule="evenodd" d="M34.9037 35.0243C35.0955 35.1912 35.3273 35.1157 35.5402 35.1163C39.5924 35.1209 43.6447 35.1296 47.6967 35.106C48.1584 35.1033 48.3149 35.291 48.3689 35.6742C48.3918 35.8371 48.3874 36.0045 48.3874 36.1701C48.3883 42.58 48.3882 48.99 48.3879 55.4C48.3879 55.5102 48.3916 55.6212 48.3854 55.7315C48.3578 56.2055 48.2116 56.4527 47.629 56.4512C39.23 56.4301 30.8306 56.4386 22.4316 56.4402C22.2284 56.3496 22.2539 56.1391 22.1989 55.977C21.6036 54.2214 19.9755 53.0434 18.137 53.0461C16.3121 53.0489 14.6878 54.194 14.1217 55.9409C13.9738 56.3976 13.7621 56.5399 13.3016 56.5183C12.53 56.4816 11.7551 56.4946 10.9824 56.5145C10.6416 56.523 10.4981 56.4531 10.4989 56.0632C10.5109 49.1952 10.5096 42.3271 10.5015 35.4589C10.5009 35.1296 10.5775 35.0052 10.9302 35.0157C11.7763 35.0408 12.6241 35.034 13.4707 35.0186C13.793 35.0128 13.947 35.1077 14.0572 35.4397C14.6879 37.337 16.2315 38.4697 18.1355 38.4774C20.037 38.4852 21.5777 37.3594 22.2101 35.4496C22.3422 35.0508 22.5702 35.0179 22.9109 35.019C25.599 35.0273 28.2873 35.0138 30.9755 35.0312C31.5694 35.0351 31.919 34.8085 32.0414 34.231C32.7782 34.2312 33.5147 34.2313 34.2513 34.2314C34.2805 34.6509 34.551 34.8711 34.9037 35.0243ZM40.3116 37.8423C38.4879 37.8423 36.6644 37.8343 34.8409 37.8456C33.8034 37.8518 33.3318 38.3367 33.321 39.3787C33.3125 40.2075 33.3119 41.0364 33.3213 41.8653C33.3328 42.9038 33.8463 43.402 34.9034 43.4028C38.4954 43.4053 42.0869 43.4058 45.6788 43.4024C46.6883 43.4014 47.2164 42.8923 47.2382 41.8854C47.2555 41.0755 47.2479 40.2647 47.2406 39.4542C47.2303 38.3292 46.7475 37.8479 45.6161 37.8438C43.848 37.8376 42.0798 37.8423 40.3116 37.8423ZM14.8326 47.7208C14.8326 48.052 14.8195 48.3287 14.8351 48.6039C14.8898 49.5852 15.7464 50.26 16.6369 49.8652C17.8466 49.3294 18.9446 49.361 20.1479 49.8761C21.0163 50.2482 21.9821 49.5675 21.8877 48.6303C21.7503 47.266 22.1501 46.2016 23.0253 45.1784C23.6216 44.4811 23.2476 43.4066 22.346 43.1945C21.0549 42.8906 20.1313 42.2483 19.4517 41.0939C18.9691 40.274 17.7985 40.264 17.318 41.0786C16.6269 42.2506 15.6891 42.9 14.3773 43.2033C13.5121 43.4033 13.2271 44.4142 13.7 45.1746C13.8646 45.4394 14.0517 45.695 14.2596 45.9267C14.7374 46.4583 15.0475 47.0333 14.8326 47.7208ZM36.5672 54.1277C39.7319 54.1277 42.8968 54.1277 46.0617 54.1276C46.209 54.1273 46.3591 54.1433 46.5026 54.1193C46.9377 54.0468 47.2003 53.7829 47.2222 53.3419C47.2425 52.9278 47.028 52.634 46.6253 52.5231C46.4353 52.4707 46.2262 52.4742 46.0255 52.4741C39.6957 52.4718 33.3659 52.472 27.0361 52.4727C26.8707 52.4728 26.6991 52.4558 26.5414 52.4925C26.0959 52.5964 25.8176 52.8765 25.8483 53.3501C25.8786 53.8149 26.1667 54.0754 26.6309 54.1238C26.7766 54.1391 26.9251 54.1274 27.0723 54.1274C30.2372 54.1277 33.402 54.1277 36.5672 54.1277ZM36.5108 51.583C39.6756 51.583 42.8405 51.583 46.0054 51.5829C46.1525 51.5829 46.3008 51.5922 46.4466 51.5765C46.9189 51.5258 47.2549 51.1759 47.2265 50.7375C47.1966 50.2727 46.9293 49.9997 46.4676 49.9337C46.3232 49.9131 46.1736 49.9256 46.0265 49.9256C39.6966 49.9253 33.367 49.9253 27.037 49.9256C26.8899 49.9256 26.7398 49.9115 26.5962 49.935C26.1412 50.0091 25.8536 50.2743 25.8467 50.7436C25.8398 51.2145 26.1235 51.4864 26.5753 51.5703C26.7359 51.6 26.9056 51.5825 27.0711 51.5825C30.2175 51.5831 33.364 51.583 36.5108 51.583ZM30.3441 47.964C31.5398 47.964 32.7358 47.9683 33.9319 47.9622C34.6018 47.9588 34.9427 47.674 34.9407 47.144C34.939 46.6187 34.5904 46.3267 33.9225 46.3253C31.5677 46.3201 29.2126 46.3198 26.8574 46.3253C26.2009 46.327 25.8366 46.6353 25.8387 47.1518C25.8409 47.664 26.2051 47.9588 26.8666 47.9621C28.0259 47.9678 29.1851 47.9637 30.3441 47.964ZM31.0144 39.2021C30.9814 38.8684 30.8347 38.5914 30.52 38.4649C30.1706 38.3246 29.8378 38.3888 29.5594 38.6683C28.6645 39.5664 27.7624 40.4574 26.8725 41.3603C26.4707 41.7681 26.4428 42.2345 26.7689 42.5845C27.116 42.9568 27.5961 42.9468 28.0268 42.5238C28.9184 41.6485 29.796 40.7588 30.6815 39.8776C30.871 39.689 30.9955 39.4739 31.0144 39.2021ZM30.0694 42.4918C30.0202 42.9119 30.353 43.3322 30.7868 43.3971C31.2105 43.4609 31.6452 43.1383 31.7077 42.7142C31.7769 42.2431 31.4699 41.8213 31.0093 41.7548C30.5638 41.691 30.1228 42.0366 30.0694 42.4918ZM26.637 37.851C26.1747 37.8576 25.8375 38.1911 25.8321 38.647C25.8266 39.123 26.1898 39.4802 26.6702 39.4716C27.1143 39.4634 27.4826 39.1023 27.489 38.6687C27.4958 38.2134 27.1112 37.8444 26.637 37.851Z" fill="#DDE6E7"/>
<path fill-rule="evenodd" clip-rule="evenodd" d="M34.2513 34.2316C33.5147 34.2314 32.7782 34.2313 32.0414 34.2312C31.844 33.5515 31.6473 33.3846 30.9552 33.3831C28.2112 33.3776 25.4672 33.3724 22.7235 33.385C21.5752 33.3901 21.0252 33.8355 20.6471 34.9837C20.0196 36.8895 17.665 37.4722 16.2849 36.0677C16.1044 35.8841 16.0369 35.7177 16.0869 35.439C16.9012 30.9185 17.6968 26.3947 18.4986 21.8721C18.8 20.1715 19.1181 18.4739 19.4002 16.77C19.454 16.4456 19.5715 16.3841 19.8586 16.437C20.7439 16.6003 21.631 16.7529 22.5183 16.9054C22.7888 16.9519 22.8372 17.1229 22.8756 17.3712C23.1976 19.4536 24.5256 20.794 26.5656 21.1237C28.254 21.3967 30.0286 20.5238 30.8523 18.9445C31.0704 18.5262 31.2984 18.4621 31.7114 18.5372C34.9108 19.1183 38.1128 19.6852 41.3147 20.2537C46.1989 21.1208 51.0836 21.9855 55.968 22.8522C56.2027 22.8939 56.4363 22.9445 56.6705 22.991C56.5044 23.9804 56.3468 24.9712 56.1704 25.9587C55.7561 28.2774 55.3282 30.5938 54.9141 32.9126C54.4777 35.3569 54.0249 37.7985 53.6308 40.2495C53.4251 41.5292 53.0844 42.788 53.0154 44.0895C51.9147 44.0065 51.9147 44.0065 51.9147 42.9091C51.9147 40.462 51.9162 38.0152 51.9139 35.568C51.9127 34.1368 51.1739 33.3843 49.7454 33.3827C44.9617 33.3778 40.1782 33.3795 35.3947 33.3823C34.6531 33.3827 34.4717 33.5266 34.2513 34.2316ZM54.9095 26.8586C54.9225 25.9657 54.4696 25.4356 53.6949 25.2861C53.1363 25.1781 52.5738 25.0896 52.0132 24.9907C48.9387 24.4496 45.8655 23.9004 42.7887 23.3718C41.9457 23.2271 41.3588 23.6524 41.1895 24.496C41.0233 25.3242 40.8855 26.1578 40.7428 26.9904C40.5515 28.1065 40.9142 28.6641 42.0307 28.8673C45.6075 29.5184 49.1876 30.1521 52.7676 30.7846C53.4905 30.9122 54.1826 30.5475 54.3357 29.8857C54.5794 28.8315 54.7426 27.759 54.9095 26.8586ZM21.2683 29.9515C21.2543 30.9068 21.9584 31.6372 22.7632 31.4321C24.0799 31.0967 25.2004 31.3119 26.3337 32.0556C27.108 32.5643 28.176 32.0106 28.2383 31.0828C28.3257 29.7838 28.8412 28.825 29.8563 28.0128C30.6678 27.3631 30.4965 26.209 29.5351 25.7929C28.3717 25.2892 27.6164 24.5278 27.1624 23.3342C26.7904 22.3565 25.6459 22.1582 24.9609 22.9466C24.1233 23.9107 23.1705 24.394 21.88 24.4358C20.8592 24.4691 20.3894 25.488 20.8306 26.4333C21.0011 26.7987 21.1749 27.1646 21.3762 27.5135C21.5686 27.8462 21.6406 28.1652 21.5372 28.5531C21.4049 29.0486 21.3404 29.5619 21.2683 29.9515ZM33.6729 29.3643C33.1548 29.3412 32.7906 29.6118 32.7134 30.047C32.6368 30.4779 32.9336 30.9048 33.4351 30.9947C35.8352 31.4261 38.2373 31.8476 40.641 32.257C41.2316 32.3576 41.5936 32.1139 41.6803 31.6303C41.7712 31.1233 41.5077 30.7769 40.8914 30.6539C40.0282 30.482 39.1608 30.3322 38.2944 30.1783C36.742 29.9026 35.1887 29.6309 33.6729 29.3643ZM34.864 27.0365C34.9544 27.0091 35.0952 26.9995 35.195 26.9306C36.3586 26.1276 37.5303 25.335 38.6672 24.4956C39.0149 24.2389 39.0159 23.809 38.7662 23.4508C38.5147 23.0901 38.1172 22.951 37.7509 23.1947C36.5739 23.9777 35.4192 24.795 34.2741 25.624C34.0041 25.8197 33.9459 26.1489 34.069 26.4765C34.1995 26.8242 34.4751 26.9816 34.864 27.0365ZM34.7063 21.9486C34.2526 21.9544 33.9055 22.3014 33.9022 22.7522C33.899 23.2164 34.2839 23.5997 34.7448 23.5912C35.1724 23.5833 35.5554 23.1979 35.5606 22.7707C35.5662 22.3139 35.1802 21.9424 34.7063 21.9486ZM39.041 27.3451C39.0322 26.8802 38.6415 26.5149 38.1772 26.5375C37.7357 26.559 37.3985 26.9258 37.4058 27.3767C37.4135 27.8528 37.777 28.1871 38.2659 28.1679C38.7208 28.1499 39.0497 27.8007 39.041 27.3451Z" fill="#CADFDE"/>
<path fill-rule="evenodd" clip-rule="evenodd" d="M8.86165 45.7755C8.86165 49.1273 8.84421 52.4791 8.87802 55.8305C8.88397 56.4181 8.70437 56.5373 8.17128 56.5069C7.40044 56.463 6.6246 56.4805 5.8516 56.5018C5.44116 56.5129 5.2709 56.4089 5.27198 55.948C5.28658 49.1524 5.28536 42.357 5.27414 35.5615C5.27346 35.1424 5.41776 35.0139 5.81765 35.0232C6.66436 35.043 7.51295 35.0547 8.35858 35.0188C8.79376 35.0001 8.87152 35.1594 8.86977 35.5547C8.85543 38.9615 8.86165 42.3686 8.86165 45.7755Z" fill="#EBE869"/>
<path fill-rule="evenodd" clip-rule="evenodd" d="M53.0154 44.0895C53.0844 42.788 53.425 41.5292 53.6308 40.2495C54.0249 37.7985 54.4778 35.3569 54.9141 32.9126C55.3283 30.5939 55.756 28.2776 56.1704 25.9587C56.3469 24.9712 56.5046 23.9805 56.6705 22.991C57.1579 23.0746 57.6438 23.1704 58.1333 23.2379C58.4814 23.2858 58.5926 23.4347 58.5271 23.7928C57.9444 26.9885 57.3733 30.1863 56.8032 33.3842C56.1781 36.8893 55.5467 40.3933 54.9479 43.9028C54.8632 44.3991 54.6551 44.4599 54.2441 44.3552C53.8384 44.2521 53.4253 44.177 53.0154 44.0895Z" fill="#A7D0D2"/>
<path fill-rule="evenodd" clip-rule="evenodd" d="M40.3116 37.8423C42.0798 37.8423 43.8479 37.8376 45.6163 37.844C46.7477 37.848 47.2304 38.3293 47.2407 39.4543C47.2482 40.2647 47.2556 41.0755 47.2383 41.8856C47.2165 42.8923 46.6884 43.4016 45.6789 43.4025C42.0871 43.4059 38.4955 43.4054 34.9035 43.4029C33.8464 43.4021 33.3329 42.9039 33.3214 41.8654C33.3121 41.0366 33.3126 40.2076 33.3211 39.3789C33.332 38.3369 33.8034 37.8519 34.841 37.8457C36.6644 37.8345 38.4878 37.8423 40.3116 37.8423ZM35.0151 39.5363C34.875 40.2626 34.8715 40.989 35.0163 41.7153C37.8899 41.7202 40.7635 41.7249 43.6373 41.7298C44.1522 41.7363 44.6691 41.7176 45.1815 41.757C45.5731 41.787 45.6412 41.6177 45.6221 41.2814C45.598 40.8593 45.5831 40.4314 45.6251 40.0122C45.6733 39.5297 45.4735 39.441 45.033 39.4433C41.8665 39.4604 38.6998 39.4503 35.5332 39.4558C35.3613 39.4561 35.1649 39.3716 35.0147 39.5367L35.0151 39.5363Z" fill="#070707"/>
<path fill-rule="evenodd" clip-rule="evenodd" d="M14.8327 47.7208C15.0474 47.0333 14.7375 46.4583 14.2594 45.9265C14.0513 45.6949 13.8644 45.4393 13.6998 45.1745C13.2269 44.4141 13.5118 43.4031 14.3771 43.2032C15.6889 42.8998 16.6267 42.2505 17.3178 41.0785C17.7984 40.264 18.9688 40.2739 19.4515 41.0938C20.1311 42.2481 21.0547 42.8905 22.3458 43.1944C23.2474 43.4064 23.6215 44.481 23.0251 45.1783C22.15 46.2015 21.7501 47.266 21.8875 48.6302C21.982 49.5673 21.0162 50.2481 20.1477 49.8759C18.9445 49.3607 17.8464 49.3293 16.6367 49.8651C15.7462 50.2599 14.8896 49.585 14.8348 48.6038C14.8197 48.3287 14.8327 48.052 14.8327 47.7208ZM16.5434 46.8116C16.5249 47.0844 16.5257 47.36 16.4843 47.6294C16.4005 48.1759 16.6535 48.2127 17.049 48.0113C17.92 47.5684 18.7732 47.555 19.6708 47.9748C20.2551 48.2478 20.2716 48.1962 20.2643 47.5627C20.2568 46.9162 20.0931 46.255 20.6103 45.6801C20.892 45.3673 21.4017 44.9735 21.2719 44.6391C21.148 44.3198 20.5088 44.3283 20.092 44.2047C19.1438 43.9836 18.9857 42.9903 18.3247 42.4022C17.7834 43.4586 17.0718 44.3156 15.8019 44.464C15.3816 44.5128 15.3444 44.6556 15.6053 45.0022C16.0164 45.5475 16.5984 46.02 16.5434 46.8116Z" fill="#090808"/>
<path fill-rule="evenodd" clip-rule="evenodd" d="M36.5672 54.1277C33.402 54.1277 30.2373 54.1277 27.0725 54.1276C26.9252 54.1276 26.7766 54.1392 26.6311 54.1239C26.167 54.0757 25.8788 53.8151 25.8485 53.3503C25.8178 52.8767 26.096 52.5966 26.5416 52.4926C26.6993 52.456 26.871 52.4729 27.0363 52.4729C33.3661 52.4722 39.6959 52.4719 46.0257 52.4742C46.2262 52.4743 46.4353 52.471 46.6254 52.5233C47.0283 52.6341 47.2426 52.9279 47.2224 53.342C47.2005 53.783 46.9378 54.047 46.5028 54.1195C46.3593 54.1434 46.2092 54.1275 46.0619 54.1277C42.8969 54.1277 39.732 54.1277 36.5672 54.1277Z" fill="#070707"/>
<path fill-rule="evenodd" clip-rule="evenodd" d="M36.5108 51.583C33.3641 51.583 30.2175 51.5831 27.0711 51.5826C26.9056 51.5826 26.7358 51.6002 26.5753 51.5704C26.1235 51.4866 25.8398 51.2146 25.8467 50.7437C25.8536 50.2743 26.1412 50.0091 26.5962 49.9352C26.7398 49.9115 26.8899 49.9257 27.037 49.9257C33.367 49.9254 39.6966 49.9254 46.0264 49.9257C46.1736 49.9257 46.323 49.9131 46.4676 49.9338C46.9293 49.9998 47.1967 50.273 47.2265 50.7376C47.2549 51.1761 46.919 51.5259 46.4466 51.5767C46.3008 51.5923 46.1525 51.583 46.0053 51.583C42.8404 51.583 39.6754 51.583 36.5108 51.583Z" fill="#070707"/>
<path fill-rule="evenodd" clip-rule="evenodd" d="M30.3441 47.9639C29.1851 47.9637 28.0259 47.9678 26.8668 47.9622C26.2054 47.959 25.8412 47.6642 25.8389 47.1519C25.8366 46.6354 26.201 46.327 26.8576 46.3255C29.2127 46.3199 31.5678 46.3202 33.9227 46.3255C34.5906 46.3268 34.9392 46.6188 34.9409 47.1442C34.9429 47.6742 34.602 47.9589 33.932 47.9624C32.7359 47.9683 31.54 47.964 30.3441 47.9639Z" fill="#0A0A0A"/>
<path fill-rule="evenodd" clip-rule="evenodd" d="M31.0144 39.2021C30.9953 39.474 30.8708 39.6891 30.6816 39.8775C29.7959 40.7588 28.9185 41.6485 28.0269 42.5236C27.5961 42.9466 27.1161 42.9567 26.769 42.5844C26.4428 42.2344 26.4708 41.7679 26.8725 41.3602C27.7625 40.4571 28.6645 39.5662 29.5595 38.6682C29.8378 38.3888 30.1707 38.3245 30.5201 38.4648C30.8348 38.5914 30.9814 38.8684 31.0144 39.2021Z" fill="#090808"/>
<path fill-rule="evenodd" clip-rule="evenodd" d="M30.0694 42.4918C30.1228 42.0366 30.5638 41.691 31.0093 41.755C31.4699 41.8215 31.7769 42.2432 31.7076 42.7143C31.6452 43.1384 31.2105 43.4609 30.7868 43.3972C30.353 43.3322 30.0202 42.9119 30.0694 42.4918Z" fill="#0A0A0A"/>
<path fill-rule="evenodd" clip-rule="evenodd" d="M26.637 37.851C27.1111 37.8444 27.4957 38.2135 27.4891 38.6687C27.4828 39.1022 27.1144 39.4634 26.6703 39.4716C26.1898 39.4801 25.8267 39.123 25.8322 38.647C25.8375 38.191 26.1745 37.8575 26.637 37.851Z" fill="#0A0A0A"/>
<path fill-rule="evenodd" clip-rule="evenodd" d="M54.9095 26.8586C54.7427 27.7588 54.5795 28.8315 54.3357 29.8858C54.1826 30.5478 53.4904 30.9125 52.7676 30.7847C49.1875 30.1522 45.6076 29.5186 42.0307 28.8675C40.914 28.6642 40.5515 28.1066 40.7428 26.9906C40.8855 26.1579 41.0231 25.3243 41.1895 24.4961C41.3588 23.6524 41.9457 23.2271 42.7886 23.3719C45.8655 23.9006 48.9387 24.4498 52.0131 24.9908C52.5738 25.0896 53.1363 25.1783 53.6949 25.2862C54.4695 25.4356 54.9224 25.9659 54.9095 26.8586ZM50.6962 28.7086C51.3394 28.8357 51.9827 28.9627 52.6258 29.0908C52.8845 29.1423 52.8782 28.9364 52.905 28.7876C53.0025 28.2476 53.0678 27.7011 53.1858 27.1661C53.243 26.9056 53.1633 26.8528 52.9318 26.8188C52.3359 26.7319 51.7439 26.6188 51.1503 26.516C48.4847 26.0349 45.8183 25.5561 43.1539 25.0687C42.8583 25.0149 42.7136 25.1047 42.6679 25.4009C42.6007 25.835 42.5355 26.2708 42.4334 26.6974C42.3313 27.1232 42.4465 27.312 42.9037 27.3768C43.8817 27.5155 44.8512 27.7137 45.8255 27.8809C47.4486 28.1595 49.0725 28.433 50.6962 28.7086Z" fill="#090808"/>
<path fill-rule="evenodd" clip-rule="evenodd" d="M21.2683 29.9515C21.3404 29.5618 21.4049 29.0484 21.5371 28.5531C21.6406 28.1653 21.5684 27.8462 21.3762 27.5135C21.175 27.1646 21.0012 26.7987 20.8305 26.4332C20.3894 25.4881 20.8592 24.4692 21.88 24.4358C23.1705 24.3939 24.1232 23.9107 24.9609 22.9466C25.6458 22.1581 26.7903 22.3565 27.1624 23.3342C27.6163 24.5277 28.3716 25.2892 29.5351 25.7929C30.4966 26.209 30.6679 27.3631 29.8562 28.0128C28.841 28.825 28.3256 29.7838 28.2383 31.0828C28.1759 32.0106 27.108 32.5643 26.3336 32.0556C25.2004 31.3118 24.0797 31.0966 22.7632 31.4321C21.9584 31.6372 21.2544 30.907 21.2683 29.9515ZM28.452 27.1557C28.2116 26.8956 27.9661 26.7985 27.7325 26.7103C26.9583 26.4184 26.4844 25.8807 26.1883 25.1096C25.8929 24.3402 25.8599 24.3667 25.2645 24.9323C24.887 25.2907 24.6011 25.7868 23.9903 25.8271C23.6238 25.8513 23.26 25.9314 22.8937 25.9422C22.4774 25.9546 22.4693 26.1399 22.6611 26.4132C23.2837 27.3004 23.4235 28.2496 23.0844 29.2799C23.0459 29.3964 22.9464 29.5472 23.136 29.7687C24.3932 29.2306 25.5811 29.5435 26.7672 30.5119C26.6834 28.9363 27.2649 27.8732 28.452 27.1557Z" fill="#090808"/>
<path fill-rule="evenodd" clip-rule="evenodd" d="M33.6729 29.3643C35.1887 29.631 36.742 29.9026 38.2944 30.1784C39.1608 30.3323 40.0282 30.482 40.8914 30.6541C41.5077 30.777 41.7711 31.1235 41.6803 31.6305C41.5936 32.1141 41.2317 32.3578 40.641 32.2571C38.2373 31.8478 35.8351 31.4263 33.4351 30.9949C32.9335 30.9049 32.6368 30.478 32.7134 30.0471C32.7906 29.6118 33.1548 29.3412 33.6729 29.3643Z" fill="#090808"/>
<path fill-rule="evenodd" clip-rule="evenodd" d="M34.8641 27.0365C34.4751 26.9816 34.1994 26.8242 34.0692 26.4765C33.946 26.1489 34.0042 25.8198 34.2743 25.624C35.4195 24.795 36.5741 23.9777 37.7511 23.1947C38.1174 22.951 38.5147 23.09 38.7664 23.4508C39.016 23.809 39.0151 24.2389 38.6674 24.4956C37.5305 25.335 36.359 26.1276 35.1951 26.9307C35.0952 26.9994 34.9545 27.0091 34.8641 27.0365Z" fill="#090808"/>
<path fill-rule="evenodd" clip-rule="evenodd" d="M34.7063 21.9486C35.1802 21.9425 35.5662 22.3139 35.5608 22.7708C35.5555 23.198 35.1724 23.5834 34.7449 23.5913C34.284 23.5998 33.899 23.2166 33.9024 22.7523C33.9053 22.3014 34.2526 21.9544 34.7063 21.9486Z" fill="#0A0A0A"/>
<path fill-rule="evenodd" clip-rule="evenodd" d="M39.041 27.3451C39.0497 27.8007 38.7208 28.1499 38.266 28.1679C37.7771 28.1872 37.4135 27.853 37.4059 27.3767C37.3986 26.9258 37.7358 26.559 38.1773 26.5375C38.6415 26.5149 39.0322 26.8802 39.041 27.3451Z" fill="#090808"/>
<path fill-rule="evenodd" clip-rule="evenodd" d="M43.6371 41.7299C40.7634 41.7251 37.8898 41.7203 35.0162 41.7155C35.0156 40.9891 35.0153 40.2628 35.0149 39.5364L35.0144 39.537C37.6822 39.5393 40.3504 39.5567 43.0177 39.5303C43.5451 39.5251 43.685 39.6936 43.6477 40.1851C43.609 40.6973 43.6378 41.2148 43.6371 41.7299Z" fill="#1C6758"/>
<path fill-rule="evenodd" clip-rule="evenodd" d="M43.6371 41.7299C43.6378 41.2147 43.609 40.6973 43.6478 40.185C43.685 39.6934 43.5453 39.5249 43.0179 39.5302C40.3504 39.5564 37.6823 39.539 35.0145 39.5368C35.1649 39.3717 35.3611 39.4562 35.533 39.4559C38.6997 39.4504 41.8663 39.4605 45.0329 39.4434C45.4733 39.4411 45.6732 39.5298 45.6249 40.0123C45.5829 40.4315 45.5979 40.8594 45.6219 41.2815C45.6411 41.6177 45.573 41.787 45.1813 41.7571C44.6689 41.7178 44.1521 41.7364 43.6371 41.7299Z" fill="#133E35"/>
<path fill-rule="evenodd" clip-rule="evenodd" d="M35.0151 39.5363C35.0155 40.2626 35.0157 40.989 35.0163 41.7153C34.8714 40.9891 34.875 40.2628 35.0151 39.5363Z" fill="#1F7CB4"/>
<path fill-rule="evenodd" clip-rule="evenodd" d="M16.5433 46.8117C16.5984 46.02 16.0163 45.5474 15.6054 45.0024C15.3444 44.6557 15.3815 44.5129 15.802 44.4641C17.0718 44.3158 17.7834 43.4586 18.3248 42.4023C18.9858 42.9905 19.1439 43.9838 20.0919 44.2049C20.0627 44.2902 20.0489 44.3853 20.0018 44.4594C19.216 45.6953 18.1702 46.6559 16.8985 47.3756C16.6901 47.4935 16.5532 47.4865 16.562 47.1937C16.5658 47.0667 16.55 46.9392 16.5433 46.8117Z" fill="#D32C28"/>
<path fill-rule="evenodd" clip-rule="evenodd" d="M16.5434 46.8117C16.55 46.939 16.5658 47.0667 16.5619 47.1937C16.5531 47.4865 16.6901 47.4935 16.8984 47.3756C18.1701 46.6559 19.2159 45.6952 20.0017 44.4594C20.0488 44.3853 20.0626 44.2902 20.0918 44.2049C20.5087 44.3285 21.148 44.32 21.2718 44.6392C21.4017 44.9738 20.8918 45.3675 20.6103 45.6803C20.093 46.2552 20.2568 46.9163 20.2642 47.5629C20.2715 48.1963 20.2552 48.2479 19.6708 47.9749C18.773 47.5552 17.9199 47.5684 17.049 48.0115C16.6536 48.2127 16.4006 48.176 16.4843 47.6296C16.5256 47.36 16.5248 47.0844 16.5434 46.8117Z" fill="#541210"/>
<path fill-rule="evenodd" clip-rule="evenodd" d="M50.6962 28.7086C49.0725 28.433 47.4486 28.1594 45.8255 27.8808C44.8512 27.7137 43.8817 27.5155 42.9037 27.3767C42.4465 27.3119 42.3314 27.1231 42.4334 26.6972C42.5356 26.2707 42.6007 25.8348 42.6679 25.4007C42.7136 25.1046 42.8583 25.0148 43.1539 25.0686C45.8183 25.556 48.4847 26.0349 51.1503 26.5159C51.3797 27.2568 51.0915 27.9353 50.8865 28.6216C50.8733 28.6656 50.7618 28.6802 50.6962 28.7086Z" fill="#1C6758"/>
<path fill-rule="evenodd" clip-rule="evenodd" d="M50.6963 28.7086C50.7619 28.6802 50.8734 28.6656 50.8866 28.6216C51.0917 27.9353 51.3798 27.2568 51.1504 26.5159C51.7439 26.6186 52.336 26.7318 52.9318 26.8187C53.1634 26.8526 53.243 26.9056 53.1858 27.1659C53.0679 27.7009 53.0026 28.2474 52.9051 28.7874C52.8783 28.9364 52.8845 29.1421 52.6258 29.0906C51.9826 28.9627 51.3393 28.8358 50.6963 28.7086Z" fill="#133E35"/>
<path fill-rule="evenodd" clip-rule="evenodd" d="M28.452 27.1557C27.2649 27.8733 26.6834 28.9363 26.7673 30.5121C25.5811 29.5436 24.3934 29.2307 23.1361 29.7688C22.9465 29.5472 23.046 29.3965 23.0844 29.2801C23.4236 28.2497 23.2839 27.3004 22.6611 26.4134C22.4694 26.14 22.4775 25.9546 22.8937 25.9423C23.2601 25.9315 23.6237 25.8515 23.9904 25.8272C24.6014 25.7869 24.8871 25.2908 25.2645 24.9324C25.86 24.3667 25.893 24.3402 26.1883 25.1097C26.4844 25.8808 26.9584 26.4185 27.7326 26.7105C27.966 26.7985 28.2117 26.8956 28.452 27.1557Z" fill="#D32C28"/>
<path d="M20.8488 5.58654C22.6883 5.58654 24.1795 4.09533 24.1795 2.25584C24.1795 0.416345 22.6883 -1.07486 20.8488 -1.07486C19.0093 -1.07486 17.5181 0.416345 17.5181 2.25584C17.5181 4.09533 19.0093 5.58654 20.8488 5.58654Z" fill="#BFB942"/>
<path d="M29.2259 0.101676C30.235 0.101676 31.053 -0.716307 31.053 -1.72534C31.053 -2.73438 30.235 -3.55237 29.2259 -3.55237C28.2169 -3.55237 27.3989 -2.73438 27.3989 -1.72534C27.3989 -0.716307 28.2169 0.101676 29.2259 0.101676Z" fill="#BFB942"/>
<path d="M54.9097 15.6857C55.9187 15.6857 56.7367 14.8678 56.7367 13.8587C56.7367 12.8497 55.9187 12.0317 54.9097 12.0317C53.9006 12.0317 53.0826 12.8497 53.0826 13.8587C53.0826 14.8678 53.9006 15.6857 54.9097 15.6857Z" fill="#BFB942"/>
</svg>
