<svg width="14" height="16" viewBox="0 0 14 16" fill="none" xmlns="http://www.w3.org/2000/svg">
<path d="M13.1271 9.6548C13.1839 9.55213 13.2096 9.4403 13.2096 9.3303C13.2096 9.08463 13.0785 8.84905 12.8484 8.72438C12.5139 8.54471 12.0968 8.66846 11.9171 9.00305C10.9867 10.7275 9.16099 13.3214 7.68734 14.0131L7.68734 1.12477C7.68734 0.745267 7.37934 0.437266 6.99984 0.437266C6.62034 0.437266 6.31234 0.745267 6.31234 1.12477L6.31234 14.0116C4.83728 13.3177 3.01273 10.7262 2.08219 9.00305C1.90161 8.66846 1.48544 8.54471 1.15086 8.72438C0.81719 8.90496 0.69344 9.32388 0.87219 9.6548C1.19761 10.2607 4.13919 15.5627 7.00194 15.5627C9.86102 15.5627 12.8017 10.2607 13.1271 9.6548Z" fill="#D32D28"/>
</svg>
