<svg width="14" height="16" viewBox="0 0 14 16" fill="none" xmlns="http://www.w3.org/2000/svg">
<path d="M13.1273 6.3452C13.1841 6.44787 13.2098 6.5597 13.2098 6.6697C13.2098 6.91537 13.0787 7.15095 12.8486 7.27562C12.514 7.45529 12.097 7.33154 11.9173 6.99695C10.9869 5.27252 9.16118 2.67859 7.68752 1.9869L7.68752 14.8752C7.68752 15.2547 7.37952 15.5627 7.00002 15.5627C6.62052 15.5627 6.31252 15.2547 6.31252 14.8752L6.31252 1.98838C4.83746 2.68229 3.01292 5.27375 2.08237 6.99695C1.90179 7.33154 1.48562 7.45529 1.15104 7.27562C0.817373 7.09504 0.693623 6.67612 0.872373 6.3452C1.19779 5.73929 4.13937 0.437287 7.00212 0.437287C9.86121 0.437287 12.8019 5.73929 13.1273 6.3452Z" fill="#1AA536"/>
</svg>
