<svg width="18" height="16" viewBox="0 0 18 16" fill="none" xmlns="http://www.w3.org/2000/svg">
<path fill-rule="evenodd" clip-rule="evenodd" d="M16.5 7.00036H2.867C3.773 5.58136 6.194 3.84436 8.024 2.85536C8.511 2.59336 8.691 1.98636 8.43 1.50136C8.167 1.01636 7.562 0.832358 7.075 1.09636C5.978 1.68736 0.505 4.80036 0.5 7.99836C0.5 7.99936 0.5 7.99936 0.5 8.00036V8.00236C0.5 11.1994 5.978 14.3124 7.075 14.9044C7.227 14.9864 7.389 15.0244 7.549 15.0244C7.904 15.0244 8.249 14.8344 8.43 14.4994C8.691 14.0144 8.511 13.4064 8.024 13.1454C6.193 12.1554 3.77 10.4184 2.865 9.00036H16.5C17.053 9.00036 17.5 8.55336 17.5 8.00036C17.5 7.44736 17.053 7.00036 16.5 7.00036Z" fill="#171717"/>
</svg>
