<svg width="40" height="40" viewBox="0 0 40 40" fill="none" xmlns="http://www.w3.org/2000/svg">
<path d="M22.8923 20.1041H22.9383C23.3523 20.1041 23.6653 19.7681 23.6653 19.3541C23.6653 18.9401 23.3063 18.6041 22.8923 18.6041C22.4783 18.6041 22.1423 18.9401 22.1423 19.3541C22.1423 19.7681 22.4783 20.1041 22.8923 20.1041Z" fill="#262626"/>
<path d="M17.1073 20.1041H17.0613C16.6473 20.1041 16.3113 19.7681 16.3113 19.3541C16.3113 18.9401 16.6473 18.6041 17.0613 18.6041C17.4753 18.6041 17.8343 18.9401 17.8343 19.3541C17.8343 19.7681 17.5213 20.1041 17.1073 20.1041Z" fill="#262626"/>
<path fill-rule="evenodd" clip-rule="evenodd" d="M14.9552 14.2675C15.0876 13.1167 15.597 12.0661 16.4217 11.2492C17.3837 10.2952 18.6817 9.81415 20.0137 9.78015C22.6091 9.78015 24.7568 11.7452 25.0464 14.2679C26.8314 14.6943 28.0791 15.4094 28.8653 16.4358C29.9263 17.8208 30.1143 19.7048 29.4423 22.1978C27.9423 27.7608 26.9843 30.2198 20.0003 30.2198C13.0163 30.2198 12.0583 27.7608 10.5583 22.1978C9.88534 19.7048 10.0743 17.8208 11.1343 16.4358C11.9208 15.4091 13.1691 14.6939 14.9552 14.2675ZM23.4753 13.9843C23.0926 12.4295 21.6987 11.2793 19.9937 11.2802C19.0427 11.2802 18.1507 11.6462 17.4777 12.3142C17.0067 12.7809 16.6819 13.3561 16.5261 13.9841C17.5471 13.851 18.7022 13.7858 20.0003 13.7858C21.2988 13.7858 22.4542 13.8511 23.4753 13.9843ZM12.3253 17.3488C13.3883 15.9608 15.8983 15.2858 20.0003 15.2858C24.1013 15.2858 26.6113 15.9608 27.6743 17.3488C28.4323 18.3368 28.5363 19.7958 27.9943 21.8068C26.5993 26.9778 26.1293 28.7198 20.0003 28.7198C13.8703 28.7198 13.4003 26.9778 12.0063 21.8068C11.4633 19.7958 11.5673 18.3368 12.3253 17.3488Z" fill="#262626"/>
</svg>
