<svg width="24" height="24" viewBox="0 0 24 24" fill="none" xmlns="http://www.w3.org/2000/svg">
<path d="M14.8923 12.1041H14.9383C15.3523 12.1041 15.6653 11.7681 15.6653 11.3541C15.6653 10.9401 15.3063 10.6041 14.8923 10.6041C14.4783 10.6041 14.1423 10.9401 14.1423 11.3541C14.1423 11.7681 14.4783 12.1041 14.8923 12.1041Z" fill="#262626"/>
<path d="M9.10728 12.1041H9.06128C8.64728 12.1041 8.31128 11.7681 8.31128 11.3541C8.31128 10.9401 8.64728 10.6041 9.06128 10.6041C9.47528 10.6041 9.83428 10.9401 9.83428 11.3541C9.83428 11.7681 9.52128 12.1041 9.10728 12.1041Z" fill="#262626"/>
<path fill-rule="evenodd" clip-rule="evenodd" d="M6.95516 6.26748C7.08759 5.11672 7.597 4.06609 8.42165 3.24915C9.38365 2.29515 10.6817 1.81415 12.0137 1.78015C14.6091 1.78015 16.7568 3.74518 17.0464 6.26789C18.8314 6.69434 20.0791 7.4094 20.8653 8.43577C21.9263 9.82077 22.1143 11.7048 21.4423 14.1978C19.9423 19.7608 18.9843 22.2198 12.0003 22.2198C5.01634 22.2198 4.05834 19.7608 2.55834 14.1978C1.88534 11.7048 2.07434 9.82077 3.13434 8.43577C3.92084 7.40906 5.16911 6.69387 6.95516 6.26748ZM15.4753 5.98432C15.0926 4.42951 13.6987 3.2793 11.9937 3.28015C11.0427 3.28015 10.1507 3.64615 9.47765 4.31415C9.0067 4.78093 8.68189 5.35611 8.52612 5.98414C9.54707 5.851 10.7022 5.78577 12.0003 5.78577C13.2988 5.78577 14.4542 5.85106 15.4753 5.98432ZM4.32534 9.34877C5.38834 7.96077 7.89834 7.28577 12.0003 7.28577C16.1013 7.28577 18.6113 7.96077 19.6743 9.34877C20.4323 10.3368 20.5363 11.7958 19.9943 13.8068C18.5993 18.9778 18.1293 20.7198 12.0003 20.7198C5.87034 20.7198 5.40034 18.9778 4.00634 13.8068C3.46334 11.7958 3.56734 10.3368 4.32534 9.34877Z" fill="#262626"/>
</svg>
