<svg width="360" height="258" viewBox="0 0 360 258" fill="none" xmlns="http://www.w3.org/2000/svg">
<g clip-path="url(#clip0_546_7630)">
<rect width="360" height="258" fill="#113E35"/>
<ellipse cx="181.371" cy="280.906" rx="188.94" ry="120.561" fill="#0B2923"/>
<path d="M147.702 107.387C147.822 107.918 147.934 108.453 148.059 109.002C148.239 109.871 148.433 110.756 148.623 111.661C153.25 133.661 158.387 166.842 156.293 168.822C153.143 171.761 72.6458 194.42 68.6834 192.298C68.0406 191.957 66.8516 189.861 65.3313 186.612C60.5567 176.377 52.4224 154.572 47.2448 138.8C47.0316 138.169 46.832 137.554 46.6347 136.948C46.3888 136.192 46.1517 135.434 45.9151 134.714C43.4507 126.957 41.9842 121.367 42.455 120.616C43.8636 118.422 116.183 98.1536 137.39 93.3551C140.739 92.5918 142.818 92.224 143.123 92.3701C144.082 92.8255 145.791 98.8657 147.693 107.389L147.702 107.387Z" fill="#1C6758"/>
<g style="mix-blend-mode:multiply" opacity="0.27">
<path d="M147.49 107.442C147.61 107.968 147.722 108.497 147.846 109.042C148.026 109.902 148.22 110.779 148.409 111.675C130.605 116.171 65.3381 133.838 47.2964 138.55C47.0838 137.926 46.8847 137.316 46.688 136.716C46.4427 135.967 46.2062 135.217 45.9702 134.504C69.6837 126.194 131.995 111.206 147.481 107.444L147.49 107.442Z" fill="#B6B3AA"/>
</g>
<path d="M147.836 108.899C145.65 109.561 142.668 110.422 139.107 111.431C132.619 113.295 124.147 115.681 114.905 118.257C113.253 118.708 111.577 119.174 109.882 119.646C85.6924 126.336 57.9056 133.864 46.6306 136.671C43.7383 127.821 41.9415 121.251 42.4683 120.432C43.076 119.486 56.9816 115.172 74.2611 110.185L74.27 110.182C77.4891 109.248 80.813 108.313 84.2056 107.35C89.592 105.824 95.1099 104.291 100.51 102.819C103.104 102.112 105.662 101.415 108.16 100.743C118.729 97.8903 128.303 95.4227 134.713 93.9131C139.507 92.7774 142.538 92.1792 142.919 92.3608C143.933 92.8458 145.805 99.5951 147.836 108.899Z" fill="#0B2923"/>
<g style="mix-blend-mode:multiply" opacity="0.27">
<path d="M84.2256 107.253C84.1793 112.941 85.116 126.347 85.116 126.347L76.2755 128.315L74.2417 110.109L74.2506 110.107C77.4825 109.165 80.8195 108.223 84.2256 107.253Z" fill="#B6B3AA"/>
</g>
<g style="mix-blend-mode:multiply" opacity="0.27">
<path d="M114.966 118.433C115.484 119.75 111.533 120.811 109.885 119.746C109.851 119.727 109.806 119.7 109.781 119.679C108.933 117.541 103.03 107.23 100.467 102.789C103.074 102.076 105.645 101.372 108.157 100.695C110.43 106.002 114.381 116.895 114.934 118.346C114.945 118.391 114.961 118.415 114.966 118.433Z" fill="#B6B3AA"/>
</g>
<path d="M94.737 76.4078C94.6351 76.4547 93.6291 76.7579 92.1409 77.1833C87.1036 78.6349 76.4812 81.5923 75.9986 81.6764C75.4715 81.7726 74.6707 78.2927 75.1542 76.8357C75.2379 76.5745 75.3693 76.3861 75.5508 76.2794C76.4076 75.8071 92.1099 71.5962 92.6828 71.6019C93.2646 71.6051 95.171 76.1749 94.737 76.4078Z" fill="#368BE6"/>
<g style="mix-blend-mode:multiply" opacity="0.27">
<path d="M94.7366 76.4081C94.6347 76.455 93.6287 76.7583 92.1405 77.1837C92.3509 75.8106 92.5098 72.6118 92.1633 72.5252C91.7564 72.4266 78.2832 75.9528 75.1534 76.836C75.2371 76.5748 75.3686 76.3864 75.55 76.2797C76.4068 75.8074 92.1094 71.5961 92.6824 71.6018C93.2642 71.605 95.1706 76.1752 94.7366 76.4081Z" fill="#046EE0"/>
</g>
<path d="M74.9833 123.818C74.1757 120.418 67.8892 84.9454 68.5883 83.3718C69.2873 81.7982 74.4989 76.5536 75.6535 76.2383C75.6535 76.2383 83.192 120.376 83.5148 121.239C83.8351 122.093 76.0198 124.841 74.9857 123.827L74.9833 123.818Z" fill="#68A8EC"/>
<path d="M116.597 112.516C116.202 113.929 108.073 115.525 107.932 114.622C107.927 114.566 107.861 114.353 107.749 114C105.986 108.682 92.6621 71.6541 92.6621 71.6541C93.6735 71.3779 99.1218 72.7614 101.454 73.7859C101.813 73.9471 102.111 74.0962 102.29 74.2297C103.658 75.2388 115.622 109.171 116.597 112.516Z" fill="#68A8EC"/>
<path d="M74.4632 123.772C75.04 122.695 83.4242 120.476 84.2105 120.998C84.9268 121.473 87.3976 129.876 86.8358 130.719C86.2739 131.562 77.7734 134.139 77.0148 133.504C76.2563 132.868 73.9716 124.702 74.4632 123.772Z" fill="#77A49B"/>
<path d="M75.897 124.722L85.5224 130.044" stroke="#FFF8F0" stroke-width="0.64" stroke-miterlimit="10"/>
<path d="M83.4051 122.512L78.0145 132.254" stroke="#FFF8F0" stroke-width="0.64" stroke-miterlimit="10"/>
<path d="M107.538 115.079C108.115 114.001 116.499 111.782 117.285 112.304C118.002 112.779 120.472 121.182 119.91 122.025C119.349 122.868 110.848 125.445 110.09 124.81C109.331 124.175 107.046 116.008 107.538 115.079Z" fill="#77A49B"/>
<path d="M108.969 116.02L118.597 121.351" stroke="#FFF8F0" stroke-width="0.64" stroke-miterlimit="10"/>
<path d="M116.48 113.819L111.087 123.552" stroke="#FFF8F0" stroke-width="0.64" stroke-miterlimit="10"/>
<path d="M110.989 154.001C113.115 150.289 111.88 145.558 108.231 143.434C104.582 141.31 99.9004 142.598 97.7748 146.31C95.6493 150.021 96.8844 154.752 100.533 156.876C104.182 159 108.864 157.713 110.989 154.001Z" fill="#EDE869"/>
<g style="mix-blend-mode:multiply" opacity="0.27">
<path d="M147.962 109.04C152.756 130.96 158.481 166.905 156.299 168.967C153.156 171.905 72.753 194.449 68.7893 192.316C68.1464 191.974 66.9543 189.872 65.4291 186.615C73.3147 187.755 147.218 167.74 148.588 164.835C149.894 162.053 139.788 105.791 137.272 93.3484C140.618 92.5902 142.694 92.2257 143 92.3726C144.015 92.8631 145.903 99.6658 147.953 109.042L147.962 109.04Z" fill="#B6B3AA"/>
</g>
<path d="M220.114 152.707C211.432 162.165 176.781 171.366 153.564 155.584C151.534 154.208 149.834 152.669 148.415 151.017C137.375 138.179 143.059 118.011 145.531 107.234C146.113 104.613 146.527 102.543 146.461 101.28C149.101 99.9033 200.158 99.1532 222.801 101.65C222.529 107.652 236.613 134.666 220.105 152.698L220.114 152.707Z" fill="#F9CD33"/>
<path d="M155.734 98.3653C155.819 100.217 151.891 126.538 152.145 127.127C152.399 127.716 157.238 99.97 157.153 98.6217C157.068 97.2733 155.734 96.846 155.734 98.3653Z" fill="#634D00"/>
<path d="M179.834 99.6664C179.872 101.528 178.886 150.154 179.12 150.742C179.355 151.34 181.291 101.309 181.244 99.9513C181.197 98.6029 179.872 98.1377 179.834 99.6569V99.6664Z" fill="#634D00"/>
<path d="M167.958 99.419C168.043 98.5739 169.79 98.9157 169.79 99.3335C169.79 99.7513 164.115 143.611 163.702 143.952C163.288 144.294 167.874 100.264 167.958 99.419Z" fill="#634D00"/>
<path d="M213.5 99.1156C213.415 100.967 218.15 133.546 217.897 134.135C217.643 134.723 211.996 100.72 212.081 99.3719C212.165 98.0236 213.5 97.5963 213.5 99.1156Z" fill="#634D00"/>
<path d="M190.564 99.6664C190.527 101.528 192.65 134.714 192.415 135.312C192.181 135.91 189.108 101.309 189.155 99.9513C189.202 98.6029 190.527 98.1377 190.564 99.6569V99.6664Z" fill="#634D00"/>
<path d="M201.914 98.6978C201.83 97.8527 200.082 98.1946 200.082 98.6124C200.082 99.0302 204.526 148.245 204.94 148.587C205.353 148.929 201.999 99.5429 201.914 98.6978Z" fill="#634D00"/>
<g style="mix-blend-mode:multiply" opacity="0.27">
<path d="M220.114 152.708C211.432 162.165 176.781 171.366 153.564 155.585C151.534 154.208 149.834 152.67 148.415 151.017C174.141 165.716 201.858 158.12 212.607 141.266C221.373 127.516 217.652 109.978 216.901 109.38C215.256 108.07 150.379 104.889 145.54 107.244C146.122 104.623 146.536 102.553 146.47 101.29C149.11 99.9131 200.167 99.1629 222.811 101.66C222.538 107.661 236.622 134.676 220.114 152.708Z" fill="#B6B3AA"/>
</g>
<path d="M145.822 88.5184C147.447 87.4739 222.566 87.7018 223.638 88.243C224.718 88.7842 224.446 101.85 223.506 102.799C222.566 103.749 147.165 104.566 145.69 102.667C144.215 100.767 144.347 89.4679 145.822 88.5184Z" fill="#EDE869"/>
<path d="M178.228 58.3324C179.628 57.8861 187.539 57.6108 188.732 58.228C189.926 58.8452 192.819 65.5774 190.668 62.9662C188.093 59.8422 180.238 59.9656 176.649 62.9662C174.263 64.9602 176.114 59.5573 178.228 58.3324Z" fill="#165246"/>
<path d="M178.228 58.3323C169.565 61.2853 166.803 86.6381 166.032 95.013C165.901 96.4184 166.812 97.7097 168.174 98.0326C169.847 98.4314 171.463 97.235 171.604 95.5068C172.6 83.0203 176.612 62.5577 178.228 58.3323Z" fill="#498579"/>
<path d="M188.723 58.2185C197.452 60.9722 200.787 86.2585 201.755 94.6049C201.915 96.0102 201.031 97.3111 199.678 97.6719C198.015 98.1087 196.371 96.9503 196.193 95.2221C194.915 82.7641 190.433 62.3965 188.723 58.2185Z" fill="#498579"/>
<path d="M297.626 183.07C295.914 188.638 294.687 192.236 294.387 192.467C293.954 192.809 286.378 191 276.028 188.297C262.763 184.84 244.953 179.889 231.771 176.035C221.556 173.055 214.117 170.73 213.738 170.27C213.476 169.958 214.15 166.283 215.39 160.649C220.118 139.441 233.066 90.5534 235.298 89.469C236.169 89.048 243.655 90.6021 253.742 93.0763C267.051 96.3266 284.865 101.142 298.023 105.052C308.076 108.05 315.407 110.514 315.871 111.321C317.388 113.953 304.038 162.27 297.624 183.08L297.626 183.07Z" fill="#368BE6"/>
<path d="M276.05 188.346C262.762 184.884 244.921 179.927 231.716 176.068C233.68 165.859 250.724 100.377 253.725 93.0073C254.911 93.2997 256.147 93.5956 257.408 93.9191C260.56 94.7068 263.904 95.5574 267.329 96.4613C273.038 97.958 278.968 99.5674 284.647 101.14C288.185 102.127 291.647 103.125 294.873 104.069C295.97 104.379 297.046 104.694 298.079 105.008C297.088 113.304 279.23 178.469 276.038 188.353L276.05 188.346Z" fill="#1C6758"/>
<g style="mix-blend-mode:multiply" opacity="0.27">
<path d="M267.488 96.4486C266.856 98.7341 264.859 105.584 264.138 106.108C263.279 106.721 254.609 104.561 254.443 103.846C254.157 102.596 256.427 96.4907 257.594 93.9121C260.741 94.6989 264.079 95.5485 267.497 96.4512L267.488 96.4486Z" fill="#B6B3AA"/>
</g>
<g style="mix-blend-mode:multiply" opacity="0.27">
<path d="M292.293 114.199C291.667 114.562 282.854 112.153 282.595 111.392C282.372 110.735 283.85 103.367 284.692 101.034C288.224 102.02 291.68 103.017 294.9 103.96C294.601 106.326 292.836 113.877 292.293 114.199Z" fill="#B6B3AA"/>
</g>
<path d="M292.167 69.6798C292.075 69.6753 291.206 69.4591 289.933 69.1219C285.631 68.0099 276.589 65.5933 276.192 65.4433C275.766 65.2853 276.624 62.3774 277.589 61.5169C277.766 61.3572 277.932 61.2778 278.11 61.2742C278.937 61.2919 292.235 64.9953 292.657 65.2459C293.09 65.4992 292.58 69.6886 292.17 69.67L292.167 69.6798Z" fill="#E5817E"/>
<g style="mix-blend-mode:multiply" opacity="0.27">
<path d="M292.167 69.6786C292.075 69.6742 291.206 69.4579 289.933 69.1207C290.665 68.1967 292.106 65.9161 291.89 65.7113C291.633 65.4642 280.261 62.2239 277.586 61.5249C277.763 61.3651 277.929 61.2857 278.107 61.2822C278.934 61.2998 292.232 65.0035 292.655 65.2542C293.087 65.5075 292.578 69.6971 292.167 69.6786Z" fill="#E5817E"/>
</g>
<path d="M256.035 102.794C256.857 99.9471 268.8 64.3908 269.971 63.5257C271.141 62.6607 277.166 61.0658 278.144 61.3325C278.144 61.3325 263.511 103.807 263.391 104.581C263.271 105.356 256.371 103.986 256.035 102.794Z" fill="#E5817E"/>
<path d="M291.361 112.387C292.047 109.503 299.161 72.6289 298.572 71.2837C297.983 69.9385 293.548 65.4894 292.57 65.2227C292.57 65.2227 284.39 109.458 284.113 110.189C283.837 110.921 290.485 113.249 291.361 112.387Z" fill="#E5817E"/>
<path opacity="0.73" d="M252.651 93.7921C251.645 95.8803 232.346 166.918 231.142 174.566" stroke="white" stroke-width="0.29" stroke-linecap="round" stroke-linejoin="round"/>
<path opacity="0.73" d="M298.928 106.093C298.566 110.957 279.476 183.205 277.272 187.591" stroke="white" stroke-width="0.29" stroke-linecap="round" stroke-linejoin="round"/>
<path d="M297.409 183.141C295.701 188.672 294.477 192.246 294.178 192.476C293.745 192.816 286.19 191.019 275.866 188.334C262.634 184.898 244.87 179.98 231.721 176.152C221.532 173.191 214.112 170.881 213.733 170.424C213.472 170.114 214.145 166.463 215.382 160.866C226.134 162.597 285.404 178.678 297.409 183.141Z" fill="#77A49B"/>
<path opacity="0.73" d="M216.31 161.821C253.261 170.608 290.805 181.862 296.314 183.604" stroke="white" stroke-width="0.29" stroke-linecap="round" stroke-linejoin="round"/>
<path d="M262.636 101.577C262.386 102.525 261.428 103.081 260.487 102.824C259.545 102.568 258.989 101.599 259.239 100.652C259.488 99.7039 260.446 99.1482 261.388 99.4049C262.329 99.6615 262.886 100.63 262.636 101.577Z" fill="#C7C2B8"/>
<path d="M288.447 110.233C289.385 110.489 290.347 109.93 290.596 108.986C290.845 108.042 290.286 107.069 289.347 106.814C288.409 106.558 287.447 107.116 287.198 108.06C286.95 109.004 287.508 109.977 288.447 110.233Z" fill="#C7C2B8"/>
<path d="M260.125 102.033C261.064 102.289 262.026 101.731 262.274 100.786C262.523 99.8422 261.964 98.8695 261.026 98.6138C260.088 98.3582 259.126 98.9163 258.877 99.8605C258.628 100.805 259.187 101.777 260.125 102.033Z" fill="#262626"/>
<path d="M290.234 108.196C289.984 109.144 289.026 109.699 288.085 109.443C287.143 109.186 286.587 108.218 286.836 107.27C287.086 106.322 288.044 105.767 288.986 106.023C289.927 106.28 290.484 107.248 290.234 108.196Z" fill="#262626"/>
</g>
<defs>
<clipPath id="clip0_546_7630">
<rect width="360" height="258" fill="white"/>
</clipPath>
</defs>
</svg>
