<svg width="40" height="40" viewBox="0 0 40 40" fill="none" xmlns="http://www.w3.org/2000/svg">
<g clip-path="url(#clip0_1369_3099)">
<path d="M30 30C35.5228 24.4772 35.5228 15.5228 30 10C24.4772 4.47715 15.5228 4.47715 10 10C4.47715 15.5228 4.47715 24.4772 10 30C15.5228 35.5228 24.4772 35.5228 30 30Z" fill="#E9B522"/>
<path d="M19.9997 36.9144C10.6725 36.9144 3.08441 29.3263 3.08441 19.9992C3.08441 10.672 10.6725 3.08475 19.9997 3.08475C29.3268 3.08475 36.9149 10.6729 36.9149 19.9992C36.9149 29.3254 29.3268 36.9144 19.9997 36.9144ZM19.9997 5.85787C12.202 5.85787 5.85753 12.2015 5.85753 20C5.85753 27.7985 12.202 34.1421 19.9997 34.1421C27.7973 34.1421 34.1418 27.7976 34.1418 20C34.1418 12.2024 27.7973 5.85787 19.9997 5.85787Z" fill="#F7DE61"/>
<path d="M24.5194 26.1816C23.7797 26.9086 22.7872 27.3642 21.5427 27.5474V29.7284H19.539V27.5864C18.661 27.5211 17.8458 27.3506 17.0933 27.0757C16.34 26.8009 15.6817 26.4276 15.1185 25.956L15.9829 24.1092C17.1222 24.9999 18.3531 25.4911 19.6764 25.5827V21.4964C18.7984 21.2742 18.0587 21.0282 17.4564 20.7601C16.8541 20.492 16.3494 20.0916 15.9439 19.5614C15.5375 19.0312 15.3348 18.3399 15.3348 17.489C15.3348 16.7815 15.5112 16.1368 15.865 15.554C16.2187 14.9712 16.7133 14.4869 17.3487 14.1C17.9841 13.714 18.7144 13.468 19.539 13.3628V11.1818H21.5427V13.3425C22.3019 13.4341 23.0162 13.6173 23.6838 13.893C24.3514 14.1679 24.9147 14.5157 25.3737 14.9339L24.5092 16.7807C23.5532 15.9951 22.5183 15.5235 21.4053 15.3657V19.6293C22.2824 19.8524 23.0094 20.0908 23.5863 20.3461C24.1623 20.6015 24.6467 20.9849 25.0403 21.4956C25.433 22.0063 25.6298 22.6747 25.6298 23.4993C25.6298 24.5605 25.26 25.4546 24.5203 26.1808L24.5194 26.1816ZM18.3403 18.4612C18.6542 18.7428 19.0996 18.982 19.6764 19.178V15.3861C19.1131 15.504 18.6712 15.7339 18.3505 16.074C18.029 16.4151 17.8695 16.8401 17.8695 17.3516C17.8695 17.8105 18.0265 18.1804 18.3412 18.4612H18.3403ZM22.6625 24.8269C22.95 24.5062 23.0951 24.0897 23.0951 23.579C23.0951 23.1735 22.9509 22.8461 22.6625 22.5967C22.374 22.3481 21.955 22.1386 21.4053 21.9681V25.4852C21.955 25.3672 22.374 25.1475 22.6625 24.8269Z" fill="#CE9811"/>
<path d="M4.11595 19.9992C4.11595 10.8451 11.4258 3.36723 20.5154 3.09323C20.3441 3.08814 20.1727 3.08475 19.9997 3.08475C10.6725 3.08475 3.08441 10.6729 3.08441 19.9992C3.08441 29.3254 10.6725 36.9144 19.9997 36.9144C20.1719 36.9144 20.3441 36.911 20.5154 36.9059C11.4267 36.6319 4.11595 29.1541 4.11595 19.9992Z" fill="#FFF2BD"/>
<path d="M19.9996 5.85786C19.8486 5.85786 19.6985 5.86126 19.5483 5.8655C27.1381 6.10472 33.2392 12.3525 33.2392 19.9992C33.2392 27.6458 27.1381 33.8936 19.5483 34.1337C19.6985 34.1387 19.8486 34.1413 19.9996 34.1413C27.7973 34.1413 34.1418 27.7968 34.1418 19.9992C34.1418 12.2015 27.7973 5.85786 19.9996 5.85786Z" fill="#CE9811"/>
<path d="M17.9663 18.0056C18.2801 18.2873 18.7255 18.5265 19.3023 18.7224V14.9305C18.7391 15.0484 18.2971 15.2783 17.9764 15.6185C17.6549 15.9595 17.4954 16.3845 17.4954 16.896C17.4954 17.355 17.6524 17.724 17.9671 18.0056H17.9663ZM22.2884 24.3713C22.576 24.0507 22.721 23.6342 22.721 23.1235C22.721 22.718 22.5768 22.3905 22.2884 22.1411C22 21.8926 21.5809 21.683 21.0312 21.5125V25.0296C21.5809 24.9117 22 24.692 22.2884 24.3713ZM24.1453 25.7269C23.4056 26.4539 22.4131 26.9095 21.1686 27.0927V29.2737H19.1649V27.1317C18.2869 27.0664 17.4717 26.8959 16.7192 26.621C15.9659 26.3462 15.3077 25.9729 14.7444 25.5013L15.6088 23.6545C16.7481 24.5452 17.979 25.0364 19.3023 25.128V21.0417C18.4243 20.8195 17.6846 20.5735 17.0823 20.3054C16.48 20.0373 15.9753 19.6369 15.5698 19.1067C15.1634 18.5765 14.9607 17.8852 14.9607 17.0343C14.9607 16.3268 15.1372 15.6821 15.4909 15.0993C15.8446 14.5165 16.3392 14.0322 16.9746 13.6453C17.61 13.2593 18.3404 13.0133 19.1649 12.9081V10.7271H21.1686V12.8878C21.9279 12.9794 22.6421 13.1626 23.3097 13.4383C23.9774 13.7132 24.5406 14.061 24.9996 14.4792L24.1352 16.326C23.1791 15.5404 22.1442 15.0688 21.0312 14.911V19.1746C21.9083 19.3977 22.6353 19.6361 23.2122 19.8914C23.7882 20.1468 24.2726 20.5302 24.6662 21.0409C25.059 21.5516 25.2558 22.22 25.2558 23.0446C25.2558 24.1058 24.8859 24.9999 24.1453 25.7261V25.7269Z" fill="#F7DE61"/>
</g>
<defs>
<clipPath id="clip0_1369_3099">
<rect width="40" height="40" fill="white"/>
</clipPath>
</defs>
</svg>
