<svg width="330" height="115" viewBox="0 0 330 115" fill="none" xmlns="http://www.w3.org/2000/svg">
<path fill-rule="evenodd" clip-rule="evenodd" d="M8 0C3.58172 0 0 3.58172 0 8V115L1 115C1 113.609 1.82357 112.482 2.83951 112.482C3.85544 112.482 4.67901 113.609 4.67901 115H6C6 113.609 6.82358 112.482 7.83951 112.482C8.85544 112.482 9.67901 113.609 9.67901 115H11C11 113.609 11.8236 112.482 12.8395 112.482C13.8554 112.482 14.679 113.609 14.679 115H16C16 113.609 16.8236 112.482 17.8395 112.482C18.8554 112.482 19.679 113.609 19.679 115H20.5988C20.5988 113.609 21.4223 112.482 22.4383 112.482C23.4542 112.482 24.2778 113.609 24.2778 115H25.1975C25.1975 113.609 26.0211 112.482 27.037 112.482C28.053 112.482 28.8765 113.609 28.8765 115H29.7963C29.7963 113.609 30.6199 112.482 31.6358 112.482C32.6517 112.482 33.4753 113.609 33.4753 115H34.3951C34.3951 113.609 35.2186 112.482 36.2346 112.482C37.2505 112.482 38.0741 113.609 38.0741 115H38.9938C38.9938 113.609 39.8174 112.482 40.8333 112.482C41.8493 112.482 42.6728 113.609 42.6728 115H43.5926C43.5926 113.609 44.4162 112.482 45.4321 112.482C46.448 112.482 47.2716 113.609 47.2716 115H48.1914C48.1914 113.609 49.0149 112.482 50.0309 112.482C51.0468 112.482 51.8704 113.609 51.8704 115H52.7901C52.7901 113.609 53.6137 112.482 54.6296 112.482C55.6456 112.482 56.4691 113.609 56.4691 115H57.3889C57.3889 113.609 58.2125 112.482 59.2284 112.482C60.2443 112.482 61.0679 113.609 61.0679 115H61.9877C61.9877 113.609 62.8112 112.482 63.8272 112.482C64.8431 112.482 65.6667 113.609 65.6667 115H66.5864C66.5864 113.609 67.41 112.482 68.4259 112.482C69.4419 112.482 70.2654 113.609 70.2654 115H71.1852C71.1852 113.609 72.0088 112.482 73.0247 112.482C74.0406 112.482 74.8642 113.609 74.8642 115H75.784C75.784 113.609 76.6075 112.482 77.6235 112.482C78.6394 112.482 79.463 113.609 79.463 115H80.3827C80.3827 113.609 81.2063 112.482 82.2222 112.482C83.2382 112.482 84.0617 113.609 84.0617 115H84.9815C84.9815 113.609 85.8051 112.482 86.821 112.482C87.8369 112.482 88.6605 113.609 88.6605 115H89.5802C89.5802 113.609 90.4038 112.482 91.4198 112.482C92.4357 112.482 93.2593 113.609 93.2593 115H94.179C94.179 113.609 95.0026 112.482 96.0185 112.482C97.0345 112.482 97.858 113.609 97.858 115H98.7778C98.7778 113.609 99.6014 112.482 100.617 112.482C101.633 112.482 102.457 113.609 102.457 115H103.377C103.377 113.609 104.2 112.482 105.216 112.482C106.232 112.482 107.056 113.609 107.056 115H107.975C107.975 113.609 108.799 112.482 109.815 112.482C110.831 112.482 111.654 113.609 111.654 115H112.574C112.574 113.609 113.398 112.482 114.414 112.482C115.43 112.482 116.253 113.609 116.253 115H117.173C117.173 113.609 117.996 112.482 119.012 112.482C120.028 112.482 120.852 113.609 120.852 115H121.772C121.772 113.609 122.595 112.482 123.611 112.482C124.627 112.482 125.451 113.609 125.451 115H126.37C126.37 113.609 127.194 112.482 128.21 112.482C129.226 112.482 130.049 113.609 130.049 115H130.969C130.969 113.609 131.793 112.482 132.809 112.482C133.825 112.482 134.648 113.609 134.648 115H135.568C135.568 113.609 136.391 112.482 137.407 112.482C138.423 112.482 139.247 113.609 139.247 115H140.167C140.167 113.609 140.99 112.482 142.006 112.482C143.022 112.482 143.846 113.609 143.846 115H144.765C144.765 113.609 145.589 112.482 146.605 112.482C147.621 112.482 148.444 113.609 148.444 115H149.364C149.364 113.609 150.188 112.482 151.204 112.482C152.22 112.482 153.043 113.609 153.043 115H153.963C153.963 113.609 154.787 112.482 155.802 112.482C156.818 112.482 157.642 113.609 157.642 115H158.562C158.562 113.609 159.385 112.482 160.401 112.482C161.417 112.482 162.241 113.609 162.241 115H163.16C163.16 113.609 163.984 112.482 165 112.482C166.016 112.482 166.84 113.609 166.84 115H167.759C167.759 113.609 168.583 112.482 169.599 112.482C170.615 112.482 171.438 113.609 171.438 115H172.358C172.358 113.609 173.182 112.482 174.198 112.482C175.213 112.482 176.037 113.609 176.037 115H176.957C176.957 113.609 177.78 112.482 178.796 112.482C179.812 112.482 180.636 113.609 180.636 115H181.556C181.556 113.609 182.379 112.482 183.395 112.482C184.411 112.482 185.235 113.609 185.235 115H186.154C186.154 113.609 186.978 112.482 187.994 112.482C189.01 112.482 189.833 113.609 189.833 115H190.753C190.753 113.609 191.577 112.482 192.593 112.482C193.609 112.482 194.432 113.609 194.432 115H195.352C195.352 113.609 196.175 112.482 197.191 112.482C198.207 112.482 199.031 113.609 199.031 115H199.951C199.951 113.609 200.774 112.482 201.79 112.482C202.806 112.482 203.63 113.609 203.63 115H204.549C204.549 113.609 205.373 112.482 206.389 112.482C207.405 112.482 208.228 113.609 208.228 115H209.148C209.148 113.609 209.972 112.482 210.988 112.482C212.004 112.482 212.827 113.609 212.827 115H213.747C213.747 113.609 214.57 112.482 215.586 112.482C216.602 112.482 217.426 113.609 217.426 115H218.346C218.346 113.609 219.169 112.482 220.185 112.482C221.201 112.482 222.025 113.609 222.025 115H222.944C222.944 113.609 223.768 112.482 224.784 112.482C225.8 112.482 226.623 113.609 226.623 115H227.543C227.543 113.609 228.367 112.482 229.383 112.482C230.399 112.482 231.222 113.609 231.222 115H232.142C232.142 113.609 232.966 112.482 233.981 112.482C234.997 112.482 235.821 113.609 235.821 115H236.741C236.741 113.609 237.564 112.482 238.58 112.482C239.596 112.482 240.42 113.609 240.42 115H241.34C241.34 113.609 242.163 112.482 243.179 112.482C244.195 112.482 245.019 113.609 245.019 115H245.938C245.938 113.609 246.762 112.482 247.778 112.482C248.794 112.482 249.617 113.609 249.617 115H250.537C250.537 113.609 251.361 112.482 252.377 112.482C253.392 112.482 254.216 113.609 254.216 115H255.136C255.136 113.609 255.959 112.482 256.975 112.482C257.991 112.482 258.815 113.609 258.815 115H259.735C259.735 113.609 260.558 112.482 261.574 112.482C262.59 112.482 263.414 113.609 263.414 115H264.333C264.333 113.609 265.157 112.482 266.173 112.482C267.189 112.482 268.012 113.609 268.012 115H268.932C268.932 113.609 269.756 112.482 270.772 112.482C271.788 112.482 272.611 113.609 272.611 115H273.531C273.531 113.609 274.354 112.482 275.37 112.482C276.386 112.482 277.21 113.609 277.21 115H278.13C278.13 113.609 278.953 112.482 279.969 112.482C280.985 112.482 281.809 113.609 281.809 115H282.728C282.728 113.609 283.552 112.482 284.568 112.482C285.584 112.482 286.407 113.609 286.407 115H287.327C287.327 113.609 288.151 112.482 289.167 112.482C290.183 112.482 291.006 113.609 291.006 115H291.926C291.926 113.609 292.75 112.482 293.765 112.482C294.781 112.482 295.605 113.609 295.605 115H296.525C296.525 113.609 297.348 112.482 298.364 112.482C299.38 112.482 300.204 113.609 300.204 115H301.123C301.123 113.609 301.947 112.482 302.963 112.482C303.979 112.482 304.802 113.609 304.802 115H305.722C305.722 113.609 306.546 112.482 307.562 112.482C308.578 112.482 309.401 113.609 309.401 115H310.321C310.321 113.609 311.145 112.482 312.16 112.482C313.176 112.482 314 113.609 314 115H315.321C315.321 113.609 316.145 112.482 317.16 112.482C318.176 112.482 319 113.609 319 115H320.321C320.321 113.609 321.145 112.482 322.16 112.482C323.176 112.482 324 113.609 324 115H325.321C325.321 113.609 326.145 112.482 327.16 112.482C328.176 112.482 329 113.609 329 115L330 115V8C330 3.58172 326.418 0 322 0H8Z" fill="#368BE6"/>
</svg>
