<svg width="24" height="24" viewBox="0 0 24 24" fill="none" xmlns="http://www.w3.org/2000/svg">
<path fill-rule="evenodd" clip-rule="evenodd" d="M7.48315 9.51093C7.89737 9.51093 8.23315 9.84671 8.23315 10.2609V16.9546C8.23315 17.3688 7.89737 17.7046 7.48315 17.7046C7.06894 17.7046 6.73315 17.3688 6.73315 16.9546V10.2609C6.73315 9.84671 7.06894 9.51093 7.48315 9.51093Z" fill="#A3A3A3"/>
<path fill-rule="evenodd" clip-rule="evenodd" d="M12.0369 6.30737C12.4511 6.30737 12.7869 6.64316 12.7869 7.05737V16.9553C12.7869 17.3695 12.4511 17.7053 12.0369 17.7053C11.6227 17.7053 11.2869 17.3695 11.2869 16.9553V7.05737C11.2869 6.64316 11.6227 6.30737 12.0369 6.30737Z" fill="#A3A3A3"/>
<path fill-rule="evenodd" clip-rule="evenodd" d="M16.5156 13.0482C16.9298 13.0482 17.2656 13.384 17.2656 13.7982V16.9551C17.2656 17.3693 16.9298 17.7051 16.5156 17.7051C16.1014 17.7051 15.7656 17.3693 15.7656 16.9551V13.7982C15.7656 13.384 16.1014 13.0482 16.5156 13.0482Z" fill="#A3A3A3"/>
<path fill-rule="evenodd" clip-rule="evenodd" d="M4.96051 4.96045C3.66147 6.25949 3.05005 8.42738 3.05005 12.0368C3.05005 15.6463 3.66147 17.8142 4.96051 19.1132C6.25956 20.4123 8.42744 21.0237 12.0369 21.0237C15.6463 21.0237 17.8142 20.4123 19.1133 19.1132C20.4123 17.8142 21.0237 15.6463 21.0237 12.0368C21.0237 8.42738 20.4123 6.25949 19.1133 4.96045C17.8142 3.6614 15.6463 3.04999 12.0369 3.04999C8.42744 3.04999 6.25956 3.6614 4.96051 4.96045ZM3.89985 3.89979C5.6437 2.15594 8.34424 1.54999 12.0369 1.54999C15.7295 1.54999 18.4301 2.15594 20.1739 3.89979C21.9178 5.64364 22.5237 8.34418 22.5237 12.0368C22.5237 15.7295 21.9178 18.43 20.1739 20.1739C18.4301 21.9177 15.7295 22.5237 12.0369 22.5237C8.34424 22.5237 5.6437 21.9177 3.89985 20.1739C2.156 18.43 1.55005 15.7295 1.55005 12.0368C1.55005 8.34418 2.156 5.64364 3.89985 3.89979Z" fill="#A3A3A3"/>
</svg>
