<svg width="22" height="22" viewBox="0 0 22 22" fill="none" xmlns="http://www.w3.org/2000/svg">
<path fill-rule="evenodd" clip-rule="evenodd" d="M16.2289 15.918C16.2289 16.332 15.8929 16.668 15.4789 16.668C15.0649 16.668 14.7289 16.332 14.7289 15.918V12.761C14.7289 12.347 15.0649 12.011 15.4789 12.011C15.8929 12.011 16.2289 12.347 16.2289 12.761V15.918ZM11.7499 15.918C11.7499 16.332 11.4139 16.668 10.9999 16.668C10.5859 16.668 10.2499 16.332 10.2499 15.918V6.02C10.2499 5.605 10.5859 5.27 10.9999 5.27C11.4139 5.27 11.7499 5.605 11.7499 6.02V15.918ZM7.19594 15.918C7.19594 16.332 6.85994 16.668 6.44594 16.668C6.03194 16.668 5.69594 16.332 5.69594 15.918V9.224C5.69594 8.81 6.03194 8.474 6.44594 8.474C6.85994 8.474 7.19594 8.81 7.19594 9.224V15.918ZM10.9999 0.763C3.44094 0.763 0.762939 3.441 0.762939 11C0.762939 18.559 3.44094 21.237 10.9999 21.237C18.5579 21.237 21.2369 18.559 21.2369 11C21.2369 3.441 18.5579 0.763 10.9999 0.763Z" fill="#1C6758"/>
</svg>
