<svg width="24" height="24" viewBox="0 0 24 24" fill="none" xmlns="http://www.w3.org/2000/svg">
<path d="M8.24048 15.8749C8.24048 16.2889 8.57648 16.6249 8.99048 16.6249C9.40448 16.6249 9.74048 16.2889 9.74048 15.8749V14.8367H10.8147C11.2287 14.8367 11.5647 14.5007 11.5647 14.0867C11.5647 13.6727 11.2287 13.3367 10.8147 13.3367H9.74048V12.2999C9.74048 11.8859 9.40448 11.5499 8.99048 11.5499C8.57648 11.5499 8.24048 11.8859 8.24048 12.2999V13.3367H7.16675C6.75275 13.3367 6.41675 13.6727 6.41675 14.0867C6.41675 14.5007 6.75275 14.8367 7.16675 14.8367H8.24048V15.8749Z" fill="#A3A3A3"/>
<path d="M15.2126 13.1585H15.1106C14.6966 13.1585 14.3606 12.8225 14.3606 12.4085C14.3606 11.9945 14.6966 11.6585 15.1106 11.6585H15.2126C15.6266 11.6585 15.9626 11.9945 15.9626 12.4085C15.9626 12.8225 15.6266 13.1585 15.2126 13.1585Z" fill="#A3A3A3"/>
<path d="M16.8406 16.5706H16.9436C17.3576 16.5706 17.6936 16.2346 17.6936 15.8206C17.6936 15.4066 17.3576 15.0706 16.9436 15.0706H16.8406C16.4266 15.0706 16.0906 15.4066 16.0906 15.8206C16.0906 16.2346 16.4266 16.5706 16.8406 16.5706Z" fill="#A3A3A3"/>
<path fill-rule="evenodd" clip-rule="evenodd" d="M11.8338 5.96891C4.35662 6.00003 1.7019 8.14867 1.7019 14.1326C1.7019 20.1596 4.3959 22.2966 11.9999 22.2966C19.6029 22.2966 22.2979 20.1596 22.2979 14.1326C22.2979 8.47136 19.9209 6.24292 13.3338 5.99269V5.70143C13.3128 4.19043 12.0498 2.99143 10.5638 2.98343H9.54878C9.53063 2.97869 9.51088 2.97406 9.49008 2.96917C9.38363 2.9442 9.24961 2.91275 9.16178 2.82743C9.05878 2.72643 9.00078 2.59143 8.99978 2.44743C8.99678 2.03443 8.66178 1.70343 8.24978 1.70343H8.24378C7.82978 1.70643 7.49678 2.04543 7.49978 2.45943C7.50378 3.00543 7.72178 3.51643 8.11178 3.89943C8.50178 4.28043 8.99378 4.46743 9.55578 4.48343H10.5698C11.2638 4.46643 11.8248 5.03343 11.8338 5.71143V5.96891ZM3.2019 14.1326C3.2019 9.02557 5.2569 7.46857 11.9999 7.46857C18.7419 7.46857 20.7979 9.02557 20.7979 14.1326C20.7979 19.2396 18.7419 20.7966 11.9999 20.7966C5.2569 20.7966 3.2019 19.2396 3.2019 14.1326Z" fill="#A3A3A3"/>
</svg>
