<svg width="22" height="22" viewBox="0 0 22 22" fill="none" xmlns="http://www.w3.org/2000/svg">
<path fill-rule="evenodd" clip-rule="evenodd" d="M15.9439 15.6961H15.8419C15.4279 15.6961 15.0919 15.3601 15.0919 14.9461C15.0919 14.5321 15.4279 14.1961 15.8419 14.1961H15.9439C16.3579 14.1961 16.6939 14.5321 16.6939 14.9461C16.6939 15.3601 16.3579 15.6961 15.9439 15.6961ZM14.2129 12.2841H14.1109C13.6969 12.2841 13.3609 11.9481 13.3609 11.5341C13.3609 11.1201 13.6969 10.7841 14.1109 10.7841H14.2129C14.6269 10.7841 14.9629 11.1201 14.9629 11.5341C14.9629 11.9481 14.6269 12.2841 14.2129 12.2841ZM9.8149 13.9631H8.7409V15.0011C8.7409 15.4151 8.4049 15.7511 7.9909 15.7511C7.5769 15.7511 7.2409 15.4151 7.2409 15.0011V13.9631H6.1669C5.7529 13.9631 5.4169 13.6271 5.4169 13.2131C5.4169 12.7991 5.7529 12.4631 6.1669 12.4631H7.2409V11.4251C7.2409 11.0111 7.5769 10.6751 7.9909 10.6751C8.4049 10.6751 8.7409 11.0111 8.7409 11.4251V12.4631H9.8149C10.2289 12.4631 10.5649 12.7991 10.5649 13.2131C10.5649 13.6271 10.2289 13.9631 9.8149 13.9631ZM12.3339 5.36913V4.82613C12.3139 3.31713 11.0899 2.06213 9.5639 2.10913H8.5429C8.3999 2.10913 8.2649 2.05413 8.1629 1.95413C8.0589 1.85213 8.0019 1.71713 7.9999 1.57213C7.9959 1.15713 7.6399 0.804133 7.2429 0.829133C6.8289 0.833133 6.4959 1.17213 6.4999 1.58613C6.5109 2.70613 7.4249 3.60913 8.5359 3.60913H9.5779C10.2619 3.60913 10.8249 4.16313 10.8339 4.83713V5.34813C3.5469 5.38013 0.951904 7.46013 0.951904 13.2581C0.951904 19.1001 3.5819 21.1721 11.0009 21.1721C18.4189 21.1721 21.0479 19.1001 21.0479 13.2581C21.0479 7.77913 18.7369 5.61713 12.3339 5.36913Z" fill="#1C6758"/>
</svg>
