<svg width="24" height="24" viewBox="0 0 24 24" fill="none" xmlns="http://www.w3.org/2000/svg">
<path d="M13.02 10.892H15.793C16.207 10.892 16.543 10.556 16.543 10.142C16.543 9.72797 16.207 9.39197 15.793 9.39197H13.02C12.605 9.39197 12.27 9.72797 12.27 10.142C12.27 10.556 12.605 10.892 13.02 10.892Z" fill="#A3A3A3"/>
<path fill-rule="evenodd" clip-rule="evenodd" d="M12.3318 17.8023C12.5808 17.8093 12.8358 17.8133 13.0978 17.8133C15.0608 17.8133 17.3148 17.5823 18.8778 16.3673C20.5978 15.0303 21.7528 11.8943 21.4518 9.37528C21.2518 7.69828 20.4158 6.44828 19.0988 5.85528C18.1458 5.42528 17.1168 5.45828 16.2108 5.48928L16.2018 5.48958C16.0269 5.49548 15.8539 5.50131 15.6828 5.50328C14.6048 5.51728 13.5258 5.55028 12.4468 5.58828C10.4218 5.66014 8.39777 5.7559 6.37274 5.85172L6.36084 5.85228L6.31684 5.85428C6.31784 5.70228 6.31684 5.55228 6.31384 5.40528C6.36784 3.35328 4.58184 2.54228 3.62984 2.40028C3.22584 2.33628 2.83884 2.62128 2.77684 3.03128C2.71684 3.44128 2.99884 3.82228 3.40884 3.88328C3.46784 3.89228 4.84784 4.11328 4.81384 5.40328C4.83484 6.27128 4.76084 7.25028 4.68184 8.28628L4.68172 8.28796C4.45275 11.3075 4.19326 14.7296 6.45384 16.3393C8.15084 17.5483 10.4868 17.7563 12.3318 17.8023ZM6.18563 8.29834C6.20999 7.97948 6.23396 7.66566 6.25384 7.35928L6.43284 7.35128C8.45484 7.25528 10.4778 7.15928 12.4998 7.08728C13.5668 7.04928 14.6358 7.01728 15.7018 7.00328C15.8819 7.00034 16.0639 6.99453 16.2478 6.98866L16.2598 6.98828L16.2781 6.98772C17.0864 6.96291 17.8516 6.93942 18.4828 7.22328C19.3258 7.60228 19.8228 8.38628 19.9628 9.55228C20.1988 11.5383 19.2628 14.1693 17.9578 15.1823C16.5458 16.2803 14.0948 16.3493 12.3698 16.3033C10.7378 16.2623 8.69084 16.0903 7.32484 15.1183C5.75284 13.9983 5.96884 11.1523 6.17784 8.40028L6.18563 8.29834Z" fill="#A3A3A3"/>
<path d="M5.98816 20.3128C5.98816 21.0268 6.56916 21.6078 7.28416 21.6078C7.99816 21.6078 8.57816 21.0268 8.57816 20.3128C8.57816 19.5998 7.99816 19.0188 7.28416 19.0188C6.56916 19.0188 5.98816 19.5998 5.98816 20.3128Z" fill="#A3A3A3"/>
<path d="M16.3203 20.3128C16.3203 21.0268 16.9013 21.6078 17.6153 21.6078C18.3293 21.6078 18.9103 21.0268 18.9103 20.3128C18.9103 19.5998 18.3293 19.0188 17.6153 19.0188C16.9013 19.0188 16.3203 19.5998 16.3203 20.3128Z" fill="#A3A3A3"/>
</svg>
