<svg width="24" height="24" viewBox="0 0 24 24" fill="none" xmlns="http://www.w3.org/2000/svg">
<path fill-rule="evenodd" clip-rule="evenodd" d="M11.9617 11.892H11.9927C14.8247 11.892 17.1287 9.58802 17.1287 6.75602C17.1287 3.92402 14.8247 1.61902 11.9927 1.61902C9.15975 1.61902 6.85575 3.92402 6.85575 6.75302C6.85075 8.12202 7.37975 9.41002 8.34375 10.381C9.30675 11.351 10.5917 11.888 11.9617 11.892ZM8.35575 6.75602C8.35575 4.75102 9.98775 3.11902 11.9927 3.11902C13.9977 3.11902 15.6287 4.75102 15.6287 6.75602C15.6287 8.76102 13.9977 10.392 11.9927 10.392H11.9647C10.9967 10.39 10.0897 10.01 9.40775 9.32302C8.72575 8.63702 8.35275 7.72602 8.35575 6.75602Z" fill="#A3A3A3"/>
<path fill-rule="evenodd" clip-rule="evenodd" d="M4.40552 18.7559C4.40552 22.3809 10.1215 22.3809 11.9995 22.3809C13.8775 22.3809 19.5945 22.3809 19.5945 18.7339C19.5945 15.9409 16.1165 13.5809 11.9995 13.5809C7.88352 13.5809 4.40552 15.9509 4.40552 18.7559ZM5.90552 18.7559C5.90552 17.0209 8.51152 15.0809 11.9995 15.0809C15.4885 15.0809 18.0945 17.0099 18.0945 18.7339C18.0945 20.1579 16.0435 20.8809 11.9995 20.8809C7.95652 20.8809 5.90552 20.1659 5.90552 18.7559Z" fill="#A3A3A3"/>
</svg>
