<svg width="24" height="24" viewBox="0 0 24 24" fill="none" xmlns="http://www.w3.org/2000/svg">
<path fill-rule="evenodd" clip-rule="evenodd" d="M8.32861 16.1354C8.32861 15.7212 8.6644 15.3854 9.07861 15.3854H14.8936C15.3078 15.3854 15.6436 15.7212 15.6436 16.1354C15.6436 16.5496 15.3078 16.8854 14.8936 16.8854H9.07861C8.6644 16.8854 8.32861 16.5496 8.32861 16.1354Z" fill="#A3A3A3"/>
<path fill-rule="evenodd" clip-rule="evenodd" d="M6.80976 5.97765C6.39721 6.35978 6.0268 6.68822 5.69752 6.97845C5.65105 7.01941 5.60554 7.05949 5.56095 7.09875C5.28204 7.34435 5.03915 7.55824 4.82098 7.75963C4.31567 8.22608 3.99647 8.57827 3.77075 8.97216C3.31825 9.76176 3.1499 10.869 3.1499 13.713C3.1499 15.7691 3.27297 17.2451 3.55106 18.3153C3.82406 19.3658 4.23102 19.9679 4.77012 20.3548C5.33316 20.759 6.13694 20.9997 7.34735 21.1245C8.55656 21.2491 10.0649 21.25 11.9859 21.25C13.9069 21.25 15.4152 21.2491 16.6245 21.1245C17.8349 20.9997 18.6386 20.759 19.2017 20.3548C19.7408 19.9679 20.1478 19.3658 20.4207 18.3153C20.6988 17.2451 20.8219 15.7691 20.8219 13.713C20.8219 10.8689 20.6538 9.76166 20.2015 8.97204C19.9759 8.57818 19.6568 8.22601 19.1516 7.75958C18.9333 7.55801 18.6902 7.34391 18.411 7.09801C18.3666 7.05898 18.3214 7.01914 18.2752 6.97843C17.946 6.6882 17.5756 6.35976 17.163 5.97762C16.9188 5.78041 16.6658 5.56703 16.4036 5.34588C15.8325 4.86414 15.2176 4.34554 14.5543 3.87695C13.5694 3.18118 12.6774 2.75 11.9579 2.75C11.2408 2.75 10.361 3.18121 9.38903 3.87803C8.75474 4.33278 8.17452 4.827 7.62932 5.29137C7.34766 5.53128 7.07534 5.76323 6.80976 5.97765ZM8.51502 2.65897C9.51535 1.94179 10.732 1.25 11.9579 1.25C13.1804 1.25 14.4069 1.93632 15.4198 2.6518C16.1357 3.15759 16.844 3.75449 17.4369 4.25416C17.6898 4.46729 17.9218 4.66274 18.1243 4.82587C18.1379 4.83681 18.1511 4.84822 18.1639 4.86008C18.5699 5.23662 18.9353 5.5607 19.2671 5.85318C19.3121 5.89284 19.3566 5.93205 19.4007 5.97083C19.6785 6.21553 19.9367 6.4429 20.1691 6.65748C20.7084 7.15537 21.1623 7.63157 21.5031 8.22646C22.1835 9.41434 22.3219 10.9261 22.3219 13.713C22.3219 15.8004 22.2001 17.432 21.8725 18.6926C21.5399 19.9727 20.9804 20.9245 20.0764 21.5734C19.1963 22.2051 18.0803 22.4824 16.7783 22.6166C15.4836 22.75 13.8993 22.75 12.0231 22.75H11.9487C10.0725 22.75 8.48821 22.75 7.19355 22.6166C5.89155 22.4824 4.77552 22.2051 3.89543 21.5734C2.99141 20.9245 2.43194 19.9727 2.09928 18.6926C1.77171 17.432 1.6499 15.8004 1.6499 13.713C1.6499 10.926 1.78856 9.41424 2.46931 8.22634C2.8102 7.63148 3.2642 7.1553 3.80355 6.65743C4.03573 6.4431 4.29366 6.216 4.57121 5.97161C4.61555 5.93257 4.66038 5.89309 4.7057 5.85316C5.03752 5.56069 5.4029 5.23661 5.80892 4.86008C5.82174 4.84818 5.83498 4.83674 5.84861 4.82577C6.06073 4.65502 6.30829 4.44454 6.57983 4.21367C7.15381 3.72566 7.83495 3.14655 8.51502 2.65897Z" fill="#A3A3A3"/>
</svg>
