<svg width="41" height="40" viewBox="0 0 41 40" fill="none" xmlns="http://www.w3.org/2000/svg">
<path d="M28.9 17.6H30.1V30.8H10.9V17.6H12.1V15.2C12.1 11.888 14.788 9.20001 18.1 9.20001C18.952 9.20001 19.768 9.38001 20.5 9.70401C21.2557 9.3692 22.0735 9.19746 22.9 9.20001C26.212 9.20001 28.9 11.888 28.9 15.2V17.6ZM14.5 15.2V17.6H16.9V15.2C16.9 13.844 17.368 12.608 18.124 11.6H18.1C16.12 11.6 14.5 13.22 14.5 15.2ZM26.5 17.6V15.2C26.5 13.22 24.88 11.6 22.9 11.6H22.876C23.6651 12.6347 24.0949 13.8988 24.1 15.2V17.6H26.5ZM20.5 12.536C19.768 13.196 19.3 14.144 19.3 15.2V17.6H21.7V15.2C21.7 14.144 21.232 13.196 20.5 12.536Z" fill="#1C6758"/>
</svg>
