<svg width="32" height="33" viewBox="0 0 32 33" fill="none" xmlns="http://www.w3.org/2000/svg">
<path d="M0 8.5C0 4.08172 3.58172 0.5 8 0.5H24C28.4183 0.5 32 4.08172 32 8.5V24.5C32 28.9183 28.4183 32.5 24 32.5H8C3.58172 32.5 0 28.9183 0 24.5V8.5Z" fill="#1C6758"/>
<path fill-rule="evenodd" clip-rule="evenodd" d="M20.9216 14.6269C20.5076 14.6269 20.1676 14.2909 20.1676 13.8769C20.1676 13.4629 20.4986 13.1269 20.9126 13.1269H20.9216C21.3356 13.1269 21.6716 13.4629 21.6716 13.8769C21.6716 14.2909 21.3356 14.6269 20.9216 14.6269ZM16.0006 21.2709C13.8526 21.2709 12.1056 19.5229 12.1056 17.3749C12.1056 15.2279 13.8526 13.4809 16.0006 13.4809C18.1486 13.4809 19.8956 15.2279 19.8956 17.3749C19.8956 19.5229 18.1486 21.2709 16.0006 21.2709ZM21.6196 10.5029C21.4506 10.4499 21.2046 10.3389 20.9976 10.1119C20.9116 10.0179 20.7956 9.78285 20.6836 9.55685C20.3816 8.94585 19.9686 8.10985 19.1376 7.75985C18.0696 7.31185 13.9696 7.30985 12.8666 7.75785C12.0466 8.09485 11.6286 8.93485 11.3236 9.54785C11.2086 9.77785 11.0906 10.0159 11.0026 10.1119C10.7966 10.3399 10.5506 10.4499 10.3976 10.4989C7.10058 11.4109 6.49658 13.5539 6.49658 17.4439C6.49658 23.0679 7.86858 25.5769 16.0006 25.5769C24.1316 25.5769 25.5036 23.0679 25.5036 17.4439C25.5036 13.5539 24.9006 11.4109 21.6196 10.5029Z" fill="#EDE869"/>
<path fill-rule="evenodd" clip-rule="evenodd" d="M16.0007 14.9803C14.6797 14.9803 13.6057 16.0543 13.6057 17.3753C13.6057 18.6963 14.6797 19.7703 16.0007 19.7703C17.3217 19.7703 18.3957 18.6963 18.3957 17.3753C18.3957 16.0543 17.3217 14.9803 16.0007 14.9803Z" fill="#EDE869"/>
</svg>
