<svg width="20" height="20" viewBox="0 0 20 20" fill="none" xmlns="http://www.w3.org/2000/svg">
<g clip-path="url(#clip0_734_2586)">
<path d="M17.055 1.63915L12.3167 0.184151C11.2708 -0.134382 10.1417 -0.0300212 9.17188 0.474818C8.20209 0.979657 7.46897 1.8447 7.13 2.88415L6.97333 3.33332H4.16667C3.062 3.33464 2.00296 3.77405 1.22185 4.55517C0.440735 5.33628 0.00132321 6.39532 0 7.49998L0 15.8333C0.00132321 16.938 0.440735 17.997 1.22185 18.7781C2.00296 19.5592 3.062 19.9987 4.16667 20H9.16667C9.79793 19.9978 10.4204 19.8514 10.9865 19.5721C11.5526 19.2928 12.0475 18.8879 12.4333 18.3883C12.6235 18.4159 12.8153 18.4304 13.0075 18.4317C13.9023 18.4323 14.7734 18.1435 15.4906 17.6084C16.2077 17.0733 16.7326 16.3205 16.9867 15.4625L19.8333 6.79665C20.1374 5.7444 20.0168 4.61485 19.4973 3.65056C18.9779 2.68626 18.101 1.9641 17.055 1.63915ZM9.16667 18.3333H4.16667C3.50363 18.3333 2.86774 18.0699 2.3989 17.6011C1.93006 17.1322 1.66667 16.4964 1.66667 15.8333V7.49998C1.66667 6.83694 1.93006 6.20106 2.3989 5.73222C2.86774 5.26338 3.50363 4.99998 4.16667 4.99998H9.16667C9.82971 4.99998 10.4656 5.26338 10.9344 5.73222C11.4033 6.20106 11.6667 6.83694 11.6667 7.49998V15.8333C11.6667 16.4964 11.4033 17.1322 10.9344 17.6011C10.4656 18.0699 9.82971 18.3333 9.16667 18.3333ZM18.2392 6.30248L15.3958 14.9692C15.2545 15.4486 14.9724 15.8745 14.5861 16.1916C14.1997 16.5087 13.727 16.7024 13.2292 16.7475C13.2976 16.4476 13.3325 16.141 13.3333 15.8333V7.49998C13.332 6.39532 12.8926 5.33628 12.1115 4.55517C11.3304 3.77405 10.2713 3.33464 9.16667 3.33332H8.74417C8.95927 2.72713 9.39974 2.22718 9.974 1.93741C10.5483 1.64764 11.2121 1.59037 11.8275 1.77748L16.5658 3.23248C17.1899 3.42507 17.7141 3.85378 18.0267 4.42726C18.3393 5.00073 18.4155 5.67361 18.2392 6.30248ZM10 10.8333C10 12.0417 8.71333 13.6592 7.73833 14.4817C7.43877 14.7351 7.05907 14.8742 6.66667 14.8742C6.27427 14.8742 5.89457 14.7351 5.595 14.4817C4.62 13.6592 3.33333 12.0417 3.33333 10.8333C3.33333 10.3913 3.50893 9.96737 3.82149 9.65481C4.13405 9.34225 4.55797 9.16665 5 9.16665C5.44203 9.16665 5.86595 9.34225 6.17851 9.65481C6.49107 9.96737 6.66667 10.3913 6.66667 10.8333C6.66667 10.3913 6.84226 9.96737 7.15482 9.65481C7.46738 9.34225 7.89131 9.16665 8.33333 9.16665C8.77536 9.16665 9.19928 9.34225 9.51184 9.65481C9.8244 9.96737 10 10.3913 10 10.8333Z" fill="#024286"/>
</g>
<defs>
<clipPath id="clip0_734_2586">
<rect width="20" height="20" fill="white"/>
</clipPath>
</defs>
</svg>
