<svg width="24" height="24" viewBox="0 0 24 24" fill="none" xmlns="http://www.w3.org/2000/svg">
<g clip-path="url(#clip0_816_7383)">
<path d="M12.5306 0.759013V0.75902L12.5339 0.75918C12.9531 0.779384 13.2708 1.13065 13.2509 1.54395C13.2312 1.95264 12.9057 2.27103 12.4476 2.26026L12.4388 2.26005H12.43C12.3752 2.26005 12.3158 2.25808 12.2408 2.2555L12.2355 2.25531C12.1665 2.25293 12.0831 2.25005 12 2.25005C6.62579 2.25005 2.25 6.62584 2.25 12.0001C2.25 17.3743 6.62579 21.7501 12 21.7501C17.3742 21.7501 21.75 17.3743 21.75 12.0001V11.9895C21.75 11.8591 21.75 11.6909 21.7388 11.5272C21.7227 11.1184 22.0367 10.7719 22.4513 10.7494C22.8868 10.7364 23.2131 11.0436 23.24 11.4516C23.2404 11.549 23.2429 11.6446 23.2451 11.7305L23.2453 11.7348C23.2478 11.8314 23.25 11.9166 23.25 12.0001C23.25 18.2058 18.2058 23.2501 12 23.2501C5.79421 23.2501 0.75 18.2058 0.75 12.0001C0.75 5.79426 5.79421 0.750049 12 0.750049C12.1933 0.750049 12.3636 0.750222 12.5306 0.759013ZM10.7028 7.42925L9.48007 7.78078L9.60941 7.91012C8.18433 8.74872 7.26 10.3054 7.26 12.0101C7.26 14.6343 9.38579 16.7601 12.01 16.7601C14.1242 16.7601 16.0107 15.3383 16.5821 13.3027L16.5832 13.2989C16.6931 12.899 17.1067 12.667 17.5028 12.7809L17.5028 12.7809L17.5111 12.7832C17.911 12.8932 18.1431 13.3067 18.0292 13.7028L18.0284 13.7056C17.2701 16.382 14.7954 18.2501 12.01 18.2501C8.56421 18.2501 5.76 15.4458 5.76 12.0001C5.76 9.21534 7.62715 6.74111 10.3026 5.98217C10.7015 5.87191 11.1196 6.10885 11.2268 6.49892C11.3377 6.90196 11.1088 7.31252 10.7028 7.42925ZM11.4703 12.5297L11.4704 12.5297L11.4658 12.5252C11.1773 12.2416 11.1707 11.77 11.4703 11.4704L16.5303 6.41038L16.75 6.19071V5.88005V3.50005C16.75 3.30122 16.8294 3.11133 16.9703 2.97038L16.44 2.44005L16.9703 2.97038L18.9703 0.97038L18.9704 0.970416L18.9765 0.964104C19.1778 0.758095 19.4987 0.68869 19.7798 0.801695C20.0718 0.929194 20.25 1.20353 20.25 1.50005V3.00005V3.75005H21H22.5C22.806 3.75005 23.0819 3.93653 23.1962 4.21499C23.3103 4.49282 23.2475 4.81186 23.0297 5.02972L21.0297 7.02972C20.8887 7.17067 20.6988 7.25005 20.5 7.25005H18.12H17.8093L17.5897 7.46972L12.5297 12.5297C12.3851 12.6743 12.1879 12.7501 12 12.7501C11.8121 12.7501 11.6149 12.6743 11.4703 12.5297Z" stroke="#262626" stroke-width="1.5"/>
</g>
<defs>
<clipPath id="clip0_816_7383">
<rect width="24" height="24" fill="white"/>
</clipPath>
</defs>
</svg>
