<svg width="41" height="40" viewBox="0 0 41 40" fill="none" xmlns="http://www.w3.org/2000/svg">
<g clip-path="url(#clip0_1604_612)">
<path d="M21.0306 8.75895V8.75896L21.0339 8.75912C21.4531 8.77932 21.7708 9.13059 21.7509 9.54389C21.7312 9.95258 21.4057 10.271 20.9476 10.2602L20.9388 10.26H20.93C20.8752 10.26 20.8158 10.258 20.7408 10.2554L20.7355 10.2553C20.6665 10.2529 20.5831 10.25 20.5 10.25C15.1258 10.25 10.75 14.6258 10.75 20C10.75 25.3742 15.1258 29.75 20.5 29.75C25.8742 29.75 30.25 25.3742 30.25 20V19.9895C30.25 19.859 30.25 19.6908 30.2388 19.5272C30.2227 19.1184 30.5367 18.7719 30.9513 18.7494C31.3868 18.7364 31.7131 19.0435 31.74 19.4515C31.7404 19.549 31.7429 19.6445 31.7451 19.7305L31.7453 19.7347C31.7478 19.8314 31.75 19.9165 31.75 20C31.75 26.2058 26.7058 31.25 20.5 31.25C14.2942 31.25 9.25 26.2058 9.25 20C9.25 13.7942 14.2942 8.74999 20.5 8.74999C20.6933 8.74999 20.8636 8.75016 21.0306 8.75895ZM19.2028 15.4292L17.9801 15.7807L18.1094 15.9101C16.6843 16.7487 15.76 18.3053 15.76 20.01C15.76 22.6342 17.8858 24.76 20.51 24.76C22.6242 24.76 24.5107 23.3382 25.0821 21.3027L25.0832 21.2989C25.1931 20.899 25.6067 20.6669 26.0028 20.7808L26.0028 20.7808L26.0111 20.7831C26.411 20.8931 26.6431 21.3067 26.5292 21.7028L26.5284 21.7055C25.7701 24.382 23.2954 26.25 20.51 26.25C17.0642 26.25 14.26 23.4458 14.26 20C14.26 17.2153 16.1272 14.7411 18.8026 13.9821C19.2015 13.8719 19.6196 14.1088 19.7268 14.4989C19.8377 14.9019 19.6088 15.3125 19.2028 15.4292ZM19.9703 20.5297L19.9704 20.5296L19.9658 20.5251C19.6773 20.2415 19.6707 19.77 19.9703 19.4703L25.0303 14.4103L25.25 14.1906V13.88V11.5C25.25 11.3012 25.3294 11.1113 25.4703 10.9703L24.94 10.44L25.4703 10.9703L27.4703 8.97032L27.4704 8.97036L27.4765 8.96404C27.6778 8.75803 27.9987 8.68863 28.2798 8.80163C28.5718 8.92913 28.75 9.20347 28.75 9.49999V11V11.75H29.5H31C31.306 11.75 31.5819 11.9365 31.6962 12.2149C31.8103 12.4928 31.7475 12.8118 31.5297 13.0297L29.5297 15.0297C29.3887 15.1706 29.1988 15.25 29 15.25H26.62H26.3093L26.0897 15.4697L21.0297 20.5297C20.8851 20.6743 20.6879 20.75 20.5 20.75C20.3121 20.75 20.1149 20.6743 19.9703 20.5297Z" stroke="#1C6758" stroke-width="1.5"/>
</g>
<defs>
<clipPath id="clip0_1604_612">
<rect width="24" height="24" fill="white" transform="translate(8.5 8)"/>
</clipPath>
</defs>
</svg>
