<svg width="24" height="24" viewBox="0 0 24 24" fill="none" xmlns="http://www.w3.org/2000/svg">
<path fill-rule="evenodd" clip-rule="evenodd" d="M14.9244 9.06452C15.2173 9.35741 15.2173 9.83229 14.9244 10.1252L10.1324 14.9172C9.83954 15.2101 9.36466 15.2101 9.07177 14.9172C8.77888 14.6243 8.77888 14.1494 9.07177 13.8565L13.8638 9.06452C14.1567 8.77163 14.6315 8.77163 14.9244 9.06452Z" fill="#262626"/>
<path fill-rule="evenodd" clip-rule="evenodd" d="M9.06957 9.06281C9.36246 8.76992 9.83734 8.76992 10.1302 9.06281L14.9302 13.8628C15.2231 14.1557 15.2231 14.6306 14.9302 14.9235C14.6373 15.2164 14.1625 15.2164 13.8696 14.9235L9.06957 10.1235C8.77668 9.83058 8.77668 9.3557 9.06957 9.06281Z" fill="#262626"/>
<path fill-rule="evenodd" clip-rule="evenodd" d="M4.24329 4.24342C5.91107 2.57564 8.4899 2.00012 12 2.00012C15.5101 2.00012 18.0889 2.57564 19.7567 4.24342C21.4245 5.91119 22 8.49002 22 12.0001C22 15.5102 21.4245 18.0891 19.7567 19.7568C18.0889 21.4246 15.5101 22.0001 12 22.0001C8.4899 22.0001 5.91107 21.4246 4.24329 19.7568C2.57552 18.0891 2 15.5102 2 12.0001C2 8.49002 2.57552 5.91119 4.24329 4.24342ZM5.30396 5.30408C4.08098 6.52705 3.5 8.57322 3.5 12.0001C3.5 15.427 4.08098 17.4732 5.30396 18.6962C6.52693 19.9191 8.5731 20.5001 12 20.5001C15.4269 20.5001 17.4731 19.9191 18.696 18.6962C19.919 17.4732 20.5 15.427 20.5 12.0001C20.5 8.57322 19.919 6.52705 18.696 5.30408C17.4731 4.0811 15.4269 3.50012 12 3.50012C8.5731 3.50012 6.52693 4.0811 5.30396 5.30408Z" fill="#262626"/>
</svg>
