<svg width="20" height="20" viewBox="0 0 20 20" fill="none" xmlns="http://www.w3.org/2000/svg">
<path fill-rule="evenodd" clip-rule="evenodd" d="M12.9244 7.0644C13.2173 7.35729 13.2173 7.83216 12.9244 8.12506L8.13238 12.9171C7.83949 13.2099 7.36461 13.2099 7.07172 12.9171C6.77883 12.6242 6.77883 12.1493 7.07172 11.8564L11.8637 7.0644C12.1566 6.7715 12.6315 6.7715 12.9244 7.0644Z" fill="#262626"/>
<path fill-rule="evenodd" clip-rule="evenodd" d="M7.06952 7.06269C7.36242 6.76979 7.83729 6.76979 8.13018 7.06269L12.9302 11.8627C13.2231 12.1556 13.2231 12.6305 12.9302 12.9233C12.6373 13.2162 12.1624 13.2162 11.8695 12.9233L7.06952 8.12335C6.77663 7.83045 6.77663 7.35558 7.06952 7.06269Z" fill="#262626"/>
<path fill-rule="evenodd" clip-rule="evenodd" d="M2.24329 2.24329C3.91107 0.575518 6.4899 0 10 0C13.5101 0 16.0889 0.575518 17.7567 2.24329C19.4245 3.91107 20 6.4899 20 10C20 13.5101 19.4245 16.0889 17.7567 17.7567C16.0889 19.4245 13.5101 20 10 20C6.4899 20 3.91107 19.4245 2.24329 17.7567C0.575518 16.0889 0 13.5101 0 10C0 6.4899 0.575518 3.91107 2.24329 2.24329ZM3.30396 3.30396C2.08098 4.52693 1.5 6.5731 1.5 10C1.5 13.4269 2.08098 15.4731 3.30396 16.696C4.52693 17.919 6.5731 18.5 10 18.5C13.4269 18.5 15.4731 17.919 16.696 16.696C17.919 15.4731 18.5 13.4269 18.5 10C18.5 6.5731 17.919 4.52693 16.696 3.30396C15.4731 2.08098 13.4269 1.5 10 1.5C6.5731 1.5 4.52693 2.08098 3.30396 3.30396Z" fill="#262626"/>
</svg>
