<svg width="20" height="20" viewBox="0 0 20 20" fill="none" xmlns="http://www.w3.org/2000/svg">
<path d="M19.9938 9.61513C19.9938 9.76925 19.9938 9.92337 19.9799 10.0775C19.7273 15.0879 15.3595 19.0786 10.0053 19.0786C4.65119 19.0786 0.286882 15.0879 0.0342297 10.0742C0.0238467 9.92009 0.0203857 9.76597 0.0203857 9.61186C0.0203857 7.79524 0.563761 6.09667 1.50169 4.65388C3.25987 1.95519 6.41284 0.154968 10.0053 0.154968C11.7531 0.154968 13.4006 0.58125 14.83 1.32888C17.9068 2.94219 19.9938 6.04749 19.9938 9.61513Z" fill="#EEBE97"/>
<path d="M19.9799 10.0742C19.9903 10.2283 19.9938 10.3824 19.9938 10.5366C19.9938 15.7634 15.5222 20 10.0053 20C4.48853 20 0.0203857 15.7634 0.0203857 10.5366C0.0203857 10.3824 0.0203857 10.2283 0.0342297 10.0742C0.286882 15.0846 4.65465 19.0753 10.0053 19.0753C15.356 19.0753 19.7273 15.0846 19.9799 10.0742Z" fill="#D27641"/>
<path d="M18.5472 9.61841C18.5472 14.0845 14.7228 17.7079 10.0089 17.7079C5.29502 17.7079 1.46716 14.0845 1.46716 9.61841C1.46716 5.15229 5.29156 1.52562 10.0089 1.52562C14.7262 1.52562 18.5472 5.14901 18.5472 9.61841Z" fill="#F4F1A5"/>
<path d="M10.0088 3.65047C13.4456 3.65047 16.2352 6.29013 16.2352 9.55282C16.2352 12.8155 13.4491 15.4552 10.0088 15.4552C6.56861 15.4552 3.77905 12.8122 3.77905 9.55282C3.77905 6.29341 6.56861 3.65047 10.0088 3.65047Z" fill="#EEBE97"/>
<path d="M0.0342892 10.0742C-0.446789 4.81127 4.20132 0.0729875 9.75967 0.00740576C15.3076 -0.209014 20.198 4.34892 19.9938 9.61185C19.9558 4.49648 15.1761 0.0729875 9.7666 0.31564C4.36053 0.332035 -0.204519 4.95883 0.0342892 10.0742Z" fill="#F5DCCB"/>
<path d="M13.0719 10.9399C12.9888 11.0907 12.9577 11.2645 12.9888 11.4383L13.3142 13.2385C13.3834 13.6058 13.1792 13.9238 12.8781 14.0747C12.6497 14.1927 12.3624 14.2091 12.0959 14.0747L10.6284 13.3434L10.3896 13.2254C10.1474 13.1008 9.85664 13.1008 9.61091 13.2254L7.90464 14.0747C7.30935 14.3731 6.61715 13.9173 6.67599 13.3041C6.67599 13.2811 6.68291 13.2582 6.68637 13.2385L6.8075 12.5729L7.0117 11.4383C7.06016 11.1792 6.96671 10.9169 6.76943 10.7333L5.3885 9.46101C4.89012 8.99866 5.16353 8.19856 5.85227 8.10347L7.75928 7.83786C8.0327 7.80179 8.26804 7.63784 8.38918 7.40502L9.24058 5.76548C9.55207 5.17524 10.4381 5.17524 10.7461 5.76548L11.5975 7.40502C11.7221 7.64111 11.9575 7.80179 12.2309 7.83786L12.487 7.87393L13.9198 8.07067L14.1379 8.10347C14.4598 8.14937 14.6916 8.34612 14.7955 8.59205C14.9166 8.87405 14.8682 9.21508 14.6017 9.46101L13.2207 10.7333C13.1653 10.7858 13.1169 10.8448 13.0823 10.9071C13.0754 10.9169 13.0684 10.93 13.0615 10.9399H13.0719Z" fill="#E48A5D"/>
<path d="M13.0719 10.5464C12.9888 10.6972 12.9577 10.871 12.9888 11.0448L13.3142 12.845C13.3834 13.2123 13.1792 13.5304 12.8781 13.6812C12.6497 13.7993 12.3624 13.8156 12.0959 13.6812L10.6284 12.95L10.3896 12.8319C10.1474 12.7073 9.85664 12.7073 9.61091 12.8319L7.90464 13.6812C7.30935 13.9796 6.61715 13.5238 6.67599 12.9106C6.67599 12.8877 6.68291 12.8647 6.68637 12.845L6.8075 12.1794L7.0117 11.0448C7.06016 10.7858 6.96671 10.5234 6.76943 10.3398L5.3885 9.06753C4.89012 8.60518 5.16353 7.80508 5.85227 7.70999L7.75928 7.44438C8.0327 7.40831 8.26804 7.24436 8.38918 7.01154L9.24058 5.372C9.55207 4.78176 10.4381 4.78176 10.7461 5.372L11.5975 7.01154C11.7221 7.24764 11.9575 7.40831 12.2309 7.44438L12.487 7.48045L13.9198 7.6772L14.1379 7.70999C14.4598 7.75589 14.6916 7.95264 14.7955 8.19857C14.9166 8.48057 14.8682 8.8216 14.6017 9.06753L13.2207 10.3398C13.1653 10.3923 13.1169 10.4513 13.0823 10.5136C13.0754 10.5234 13.0684 10.5366 13.0615 10.5464H13.0719Z" fill="#EDE869"/>
</svg>
