<svg width="24" height="24" viewBox="0 0 24 24" fill="none" xmlns="http://www.w3.org/2000/svg">
<path d="M12 22C4.617 22 2 19.383 2 12C2 4.617 4.617 2 12 2C12.414 2 12.75 2.336 12.75 2.75C12.75 3.164 12.414 3.5 12 3.5C5.486 3.5 3.5 5.486 3.5 12C3.5 18.514 5.486 20.5 12 20.5C18.514 20.5 20.5 18.514 20.5 12C20.5 11.586 20.836 11.25 21.25 11.25C21.664 11.25 22 11.586 22 12C22 19.383 19.383 22 12 22Z" fill="#262626"/>
<path fill-rule="evenodd" clip-rule="evenodd" d="M19.2365 9.38594L20.2952 8.1906C21.4472 6.8896 21.3252 4.8946 20.0252 3.7416C19.3952 3.1836 18.5812 2.9036 17.7452 2.9556C16.9052 3.0066 16.1352 3.3826 15.5772 4.0126L9.6932 10.6606C7.8692 12.7186 9.1172 15.4396 9.1712 15.5546C9.2602 15.7436 9.4242 15.8876 9.6232 15.9496C9.6802 15.9686 10.3442 16.1716 11.2192 16.1716C12.2042 16.1716 13.4572 15.9126 14.4092 14.8366L19.0774 9.56559C19.1082 9.54033 19.1374 9.51226 19.1646 9.48138C19.1915 9.45105 19.2155 9.41912 19.2365 9.38594ZM10.4082 14.5956C11.0352 14.7096 12.4192 14.8216 13.2862 13.8426L17.5371 9.04286L15.0656 6.85399L10.8172 11.6556C9.9292 12.6566 10.2122 13.9916 10.4082 14.5956ZM16.0596 5.73064L18.5322 7.91926L19.1722 7.1966C19.7752 6.5146 19.7122 5.4686 19.0312 4.8656C18.7002 4.5736 18.2712 4.4246 17.8362 4.4526C17.3962 4.4806 16.9932 4.6766 16.7002 5.0066L16.0596 5.73064Z" fill="#262626"/>
</svg>
