<svg width="300" height="262" viewBox="0 0 300 262" fill="none" xmlns="http://www.w3.org/2000/svg">
<g clip-path="url(#clip0_572_4700)">
<path d="M155.557 261.002C229.839 261.002 290.057 255.629 290.057 249.002C290.057 242.374 229.839 237.002 155.557 237.002C81.2743 237.002 21.0566 242.374 21.0566 249.002C21.0566 255.629 81.2743 261.002 155.557 261.002Z" fill="#A4C2BC"/>
<path d="M265.049 199.997C270.591 195.448 277.484 192.325 284.653 192.112C286.266 192.063 288.12 192.291 289.03 193.628C289.857 194.848 289.54 196.489 289.119 197.902C285.983 208.324 278.862 216.996 271.907 225.364C275.202 222.131 279.951 220.442 284.549 220.856C285.769 220.966 287.058 221.262 287.899 222.152C289.953 224.33 287.879 227.845 285.68 229.872C281.895 233.353 277.56 236.241 272.893 238.399C275.34 238.075 278.38 238.012 279.634 240.142C280.606 241.79 279.862 244.009 278.463 245.305C277.063 246.601 275.168 247.194 273.341 247.746C267.234 249.593 260.21 251.337 254.833 247.904C251.014 245.471 249.043 240.921 248.312 236.448C246.038 222.606 254.675 208.517 265.062 199.99L265.049 199.997Z" fill="#4F6E59"/>
<path d="M137.403 199.997C131.861 195.448 124.968 192.325 117.799 192.112C116.186 192.063 114.332 192.291 113.422 193.628C112.595 194.848 112.912 196.489 113.332 197.902C116.468 208.324 123.589 216.996 130.544 225.364C127.249 222.131 122.5 220.442 117.902 220.856C116.682 220.966 115.393 221.262 114.552 222.152C112.498 224.33 114.573 227.845 116.772 229.872C120.556 233.353 124.892 236.241 129.558 238.399C127.111 238.075 124.072 238.012 122.817 240.142C121.845 241.79 122.59 244.009 123.989 245.305C125.388 246.601 127.284 247.194 129.11 247.746C135.218 249.593 142.242 251.337 147.618 247.904C151.437 245.471 153.408 240.921 154.139 236.448C156.414 222.606 147.777 208.517 137.389 199.99L137.403 199.997Z" fill="#4F6E59"/>
<path d="M253.634 7.01196H145.537C139.594 7.01196 134.777 11.8294 134.777 17.772V239.756C134.777 245.699 139.594 250.516 145.537 250.516H253.634C259.576 250.516 264.394 245.699 264.394 239.756V17.772C264.394 11.8294 259.576 7.01196 253.634 7.01196Z" fill="#2E344B"/>
<path d="M259.631 7.01196H151.534C145.591 7.01196 140.774 11.8294 140.774 17.772V239.756C140.774 245.699 145.591 250.516 151.534 250.516H259.631C265.573 250.516 270.391 245.699 270.391 239.756V17.772C270.391 11.8294 265.573 7.01196 259.631 7.01196Z" fill="#2E344B"/>
<path d="M252.365 11.7888H146.805C143.093 11.7888 140.084 14.7978 140.084 18.5096V239.033C140.084 242.744 143.093 245.753 146.805 245.753H252.365C256.077 245.753 259.086 242.744 259.086 239.033V18.5096C259.086 14.7978 256.077 11.7888 252.365 11.7888Z" fill="#498579"/>
<path d="M164.885 38.5753L165.533 38.7821C165.83 38.8786 165.83 39.2922 165.533 39.3887L164.885 39.5955C164.079 39.8574 163.445 40.4916 163.183 41.298L162.976 41.946C162.88 42.2424 162.466 42.2424 162.369 41.946L162.163 41.298C161.901 40.4916 161.267 39.8574 160.46 39.5955L159.812 39.3887C159.516 39.2922 159.516 38.8786 159.812 38.7821L160.46 38.5753C161.267 38.3133 161.901 37.6792 162.163 36.8727L162.369 36.2247C162.466 35.9283 162.88 35.9283 162.976 36.2247L163.183 36.8727C163.445 37.6792 164.079 38.3133 164.885 38.5753Z" fill="white"/>
<path d="M238.386 111.856L239.034 112.062C239.331 112.159 239.331 112.572 239.034 112.669L238.386 112.876C237.58 113.138 236.946 113.772 236.684 114.578L236.477 115.226C236.38 115.523 235.967 115.523 235.87 115.226L235.663 114.578C235.401 113.772 234.767 113.138 233.961 112.876L233.313 112.669C233.016 112.572 233.016 112.159 233.313 112.062L233.961 111.856C234.767 111.594 235.401 110.959 235.663 110.153L235.87 109.505C235.967 109.209 236.38 109.209 236.477 109.505L236.684 110.153C236.946 110.959 237.58 111.594 238.386 111.856Z" fill="white"/>
<path d="M249.043 225.77L249.691 225.977C249.987 226.074 249.987 226.487 249.691 226.584L249.043 226.791C248.236 227.052 247.602 227.687 247.34 228.493L247.134 229.141C247.037 229.437 246.623 229.437 246.527 229.141L246.32 228.493C246.058 227.687 245.424 227.052 244.618 226.791L243.97 226.584C243.673 226.487 243.673 226.074 243.97 225.977L244.618 225.77C245.424 225.508 246.058 224.874 246.32 224.068L246.527 223.42C246.623 223.123 247.037 223.123 247.134 223.42L247.34 224.068C247.602 224.874 248.236 225.508 249.043 225.77Z" fill="white"/>
<path d="M243.542 104.349L243.97 104.487C244.163 104.549 244.163 104.825 243.97 104.894L243.542 105.031C243.005 105.204 242.584 105.624 242.412 106.162L242.274 106.589C242.212 106.782 241.936 106.782 241.867 106.589L241.729 106.162C241.557 105.624 241.137 105.204 240.599 105.031L240.172 104.894C239.979 104.831 239.979 104.556 240.172 104.487L240.599 104.349C241.137 104.177 241.557 103.756 241.729 103.218L241.867 102.791C241.929 102.598 242.205 102.598 242.274 102.791L242.412 103.218C242.584 103.756 243.005 104.177 243.542 104.349Z" fill="white"/>
<path d="M154.188 151.05L154.615 151.187C154.808 151.249 154.808 151.525 154.615 151.594L154.188 151.732C153.65 151.904 153.229 152.325 153.057 152.862L152.919 153.29C152.857 153.483 152.581 153.483 152.513 153.29L152.375 152.862C152.202 152.325 151.782 151.904 151.244 151.732L150.817 151.594C150.624 151.532 150.624 151.256 150.817 151.187L151.244 151.05C151.782 150.877 152.202 150.457 152.375 149.919L152.513 149.492C152.575 149.299 152.85 149.299 152.919 149.492L153.057 149.919C153.229 150.457 153.65 150.877 154.188 151.05Z" fill="white"/>
<path d="M206.12 46.0337H165.271V124.022H226.082V65.996L206.12 46.0337Z" fill="#2E344B"/>
<path d="M207.788 44.2552H166.94V122.243H227.75V64.2176L207.788 44.2552Z" fill="#C9B5A9"/>
<path d="M210.525 42.4286H169.683V120.41H230.494V62.3909L210.525 42.4286Z" fill="#FAFAFA"/>
<path d="M210.524 62.3909H230.494L210.524 42.4286V62.3909Z" fill="#C9B5A9"/>
<path d="M205.816 83.1252C205.348 82.5945 204.858 82.0706 204.369 81.5536C204.865 81.0297 205.362 80.499 205.837 79.9613C207.485 78.2932 209.125 76.6182 210.745 74.9225C211.524 74.1091 211.82 72.8752 211.531 71.7999C211.448 71.2761 211.214 70.766 210.828 70.38C210.38 69.9319 209.801 69.6975 209.208 69.6562C208.188 69.4149 207.078 69.6424 206.292 70.4627C204.596 72.0894 202.915 73.7369 201.239 75.3843C200.723 75.8393 200.219 76.3149 199.716 76.7836C197.628 74.6812 195.532 72.5857 193.395 70.5316C192.175 69.2633 189.852 69.2081 188.639 70.5316C187.384 71.8964 187.336 73.9299 188.639 75.2878C190.679 77.404 192.754 79.4857 194.836 81.5536C192.754 83.6146 190.686 85.6963 188.646 87.8056C187.378 89.0257 187.322 91.3487 188.646 92.5618C190.011 93.8164 192.044 93.8646 193.402 92.5618C195.539 90.5077 197.634 88.4191 199.716 86.3167C200.219 86.7923 200.723 87.268 201.246 87.7229C202.915 89.3704 204.59 91.0109 206.285 92.6308C207.099 93.4097 208.332 93.7061 209.408 93.4166C209.932 93.3339 210.442 93.0995 210.828 92.7135C211.276 92.2654 211.51 91.6864 211.552 91.0936C211.793 90.0734 211.565 88.9637 210.745 88.1778C209.118 86.4822 207.471 84.8002 205.823 83.1252H205.816Z" fill="#C85F64"/>
<path d="M210.642 22.2732H188.673C187.205 22.2732 186.006 21.0738 186.006 19.6056C186.006 18.1374 187.205 16.938 188.673 16.938H210.642C212.11 16.938 213.309 18.1374 213.309 19.6056C213.309 21.0738 212.11 22.2732 210.642 22.2732Z" fill="#2E344B"/>
<path d="M228.571 240.797H170.758C170.096 240.797 169.559 241.334 169.559 241.997V242.245C169.559 242.907 170.096 243.444 170.758 243.444H228.571C229.233 243.444 229.77 242.907 229.77 242.245V241.997C229.77 241.334 229.233 240.797 228.571 240.797Z" fill="#B9CFE6"/>
<path d="M246.865 16.7312V17.9099H246.12V19.7159H246.865V20.8946H254.323V16.7312H246.865Z" fill="white"/>
<path d="M146.192 15.3595H144.441V22.2732H146.192V15.3595Z" fill="white"/>
<path d="M148.88 16.5864H147.129V22.2663H148.88V16.5864Z" fill="white"/>
<path d="M151.63 17.7996H149.879V22.2732H151.63V17.7996Z" fill="white"/>
<path d="M172.227 130.356H224.311C226.344 130.356 227.998 132.011 227.998 134.044V140C227.998 142.033 226.344 143.688 224.311 143.688H172.227C170.193 143.688 168.539 142.033 168.539 140V134.044C168.539 132.011 170.193 130.356 172.227 130.356Z" fill="#2E344B"/>
<path d="M233.857 29.9108C233.175 29.5799 232.41 29.4972 231.679 29.6971C231.307 29.8005 230.983 29.9866 230.687 30.2348C230.445 30.4415 230.321 30.6759 230.266 30.9585C229.922 31.4341 229.701 31.9994 229.701 32.5991C229.701 33.247 229.935 33.8812 230.356 34.3706C230.818 34.9151 231.521 35.1702 232.217 35.2184C233.492 35.3012 235.126 34.6601 235.498 33.3297C235.863 32.0338 235.036 30.4898 233.851 29.9108H233.857ZM234.278 33.1919C234.188 33.3642 234.044 33.5159 233.906 33.6124C233.533 33.8812 233.106 34.019 232.644 34.0811C232.189 34.1431 231.693 34.1087 231.307 33.8398C230.969 33.6055 230.769 33.2332 230.687 32.8334C230.59 32.3716 230.714 31.896 230.962 31.5031C231.031 31.3997 231.107 31.3032 231.19 31.2136C231.417 31.0757 231.548 31.0275 231.776 30.9447C232.217 30.7931 232.548 30.7724 232.968 30.8965C233.01 30.9103 233.051 30.9241 233.092 30.9378C233.113 30.9447 233.134 30.9516 233.141 30.9516C233.147 30.9516 233.161 30.9654 233.189 30.9792C233.285 31.0344 233.382 31.0826 233.478 31.1446C233.616 31.2343 233.775 31.3721 233.926 31.5513C234.147 31.8064 234.333 32.1993 234.368 32.5991C234.388 32.8128 234.347 33.0471 234.278 33.185V33.1919Z" fill="#C9B5A9"/>
<path d="M148.997 183.171C148.315 182.84 147.55 182.758 146.819 182.957C146.447 183.061 146.123 183.247 145.826 183.495C145.585 183.702 145.461 183.936 145.406 184.219C145.061 184.695 144.841 185.26 144.841 185.859C144.841 186.507 145.075 187.142 145.495 187.631C145.957 188.176 146.66 188.431 147.357 188.479C148.632 188.562 150.265 187.92 150.638 186.59C151.003 185.294 150.176 183.75 148.99 183.171H148.997ZM149.418 186.452C149.328 186.625 149.183 186.776 149.045 186.873C148.673 187.142 148.246 187.279 147.784 187.341C147.329 187.403 146.833 187.369 146.447 187.1C146.109 186.866 145.909 186.494 145.826 186.094C145.73 185.632 145.854 185.156 146.102 184.763C146.171 184.66 146.247 184.564 146.329 184.474C146.557 184.336 146.688 184.288 146.915 184.205C147.357 184.053 147.687 184.033 148.108 184.157C148.149 184.171 148.191 184.184 148.232 184.198C148.253 184.205 148.273 184.212 148.28 184.212C148.287 184.212 148.301 184.226 148.328 184.24C148.425 184.295 148.521 184.343 148.618 184.405C148.756 184.495 148.914 184.632 149.066 184.812C149.287 185.067 149.473 185.46 149.507 185.859C149.528 186.073 149.487 186.308 149.418 186.445V186.452Z" fill="#C9B5A9"/>
<path d="M155.545 76.9834C155.008 76.7215 154.401 76.6526 153.822 76.818C153.526 76.9007 153.271 77.0455 153.036 77.2454C152.843 77.4108 152.747 77.59 152.705 77.8175C152.43 78.1966 152.257 78.6447 152.257 79.1134C152.257 79.6304 152.443 80.1267 152.774 80.5196C153.14 80.9538 153.698 81.1537 154.249 81.1882C155.263 81.2571 156.552 80.7471 156.848 79.6924C157.138 78.6653 156.483 77.4453 155.545 76.9834ZM155.883 79.5821C155.814 79.7131 155.697 79.8372 155.587 79.9199C155.29 80.1336 154.953 80.2439 154.587 80.2921C154.229 80.3404 153.836 80.3128 153.526 80.0991C153.257 79.913 153.098 79.6166 153.036 79.3064C152.96 78.9411 153.057 78.5688 153.257 78.2518C153.312 78.169 153.374 78.0932 153.436 78.0243C153.615 77.914 153.719 77.8726 153.898 77.8106C154.243 77.6934 154.511 77.6727 154.835 77.7761C154.87 77.783 154.904 77.7968 154.939 77.8106C154.959 77.8106 154.966 77.8244 154.98 77.8244C154.987 77.8244 155.001 77.8382 155.015 77.8451C155.09 77.8864 155.166 77.9278 155.242 77.976C155.352 78.045 155.476 78.1553 155.6 78.3C155.773 78.4999 155.924 78.8101 155.952 79.1272C155.966 79.2926 155.938 79.4787 155.883 79.589V79.5821Z" fill="#C9B5A9"/>
<path d="M200.826 225.467C200.288 225.205 199.682 225.136 199.103 225.302C198.806 225.384 198.551 225.529 198.317 225.729C198.124 225.894 198.027 226.074 197.986 226.301C197.71 226.68 197.538 227.128 197.538 227.597C197.538 228.114 197.724 228.61 198.055 229.003C198.42 229.437 198.979 229.637 199.53 229.672C200.537 229.741 201.832 229.231 202.129 228.176C202.418 227.149 201.764 225.929 200.826 225.467ZM201.164 228.066C201.095 228.197 200.978 228.321 200.867 228.404C200.571 228.617 200.233 228.728 199.868 228.776C199.51 228.824 199.117 228.796 198.806 228.583C198.538 228.397 198.379 228.1 198.317 227.79C198.241 227.425 198.338 227.052 198.538 226.735C198.593 226.653 198.655 226.577 198.717 226.508C198.896 226.398 198.999 226.356 199.179 226.294C199.523 226.177 199.792 226.156 200.116 226.26C200.151 226.267 200.185 226.28 200.219 226.294C200.24 226.294 200.247 226.308 200.261 226.308C200.268 226.308 200.282 226.322 200.295 226.329C200.371 226.37 200.447 226.411 200.523 226.46C200.633 226.536 200.757 226.639 200.881 226.784C201.054 226.984 201.205 227.294 201.233 227.611C201.247 227.776 201.219 227.962 201.164 228.073V228.066Z" fill="#C9B5A9"/>
<path d="M243.301 119.19C242.591 118.838 241.785 118.755 241.013 118.969C240.62 119.079 240.282 119.272 239.972 119.534C239.717 119.748 239.586 119.996 239.531 120.293C239.165 120.796 238.938 121.382 238.938 122.009C238.938 122.691 239.186 123.353 239.627 123.87C240.116 124.442 240.847 124.711 241.585 124.759C242.922 124.849 244.631 124.18 245.024 122.781C245.41 121.416 244.535 119.803 243.301 119.197V119.19ZM243.742 122.629C243.646 122.809 243.501 122.967 243.349 123.071C242.956 123.353 242.515 123.498 242.026 123.56C241.55 123.622 241.026 123.588 240.62 123.305C240.261 123.064 240.054 122.664 239.972 122.25C239.868 121.768 239.999 121.271 240.261 120.858C240.33 120.748 240.413 120.644 240.496 120.555C240.73 120.41 240.868 120.355 241.109 120.272C241.571 120.113 241.916 120.093 242.357 120.224C242.405 120.237 242.446 120.251 242.488 120.272C242.508 120.279 242.529 120.286 242.536 120.293C242.543 120.293 242.564 120.306 242.584 120.32C242.688 120.375 242.791 120.43 242.887 120.493C243.032 120.589 243.198 120.734 243.356 120.92C243.584 121.189 243.784 121.595 243.818 122.016C243.839 122.236 243.797 122.485 243.722 122.629H243.742Z" fill="#C9B5A9"/>
<path d="M266.496 78.045C266.51 77.1765 265.745 76.432 264.883 76.432C264.022 76.432 263.284 77.1696 263.27 78.045C263.222 81.3192 263.229 84.5934 263.229 87.8676C263.229 88.7361 263.987 89.5633 264.883 89.5219C265.779 89.4806 266.538 88.7913 266.538 87.8676C266.538 84.5934 266.538 81.3192 266.496 78.045Z" fill="#6779B7"/>
<path d="M266.496 101.695C266.51 100.827 265.745 100.082 264.883 100.082C264.022 100.082 263.284 100.82 263.27 101.695C263.222 104.969 263.229 108.244 263.229 111.518C263.229 112.386 263.987 113.213 264.883 113.172C265.779 113.131 266.538 112.441 266.538 111.518C266.538 108.244 266.538 104.969 266.496 101.695Z" fill="#6779B7"/>
<path d="M193.823 179.883C193.823 181.31 185.758 182.468 175.804 182.468C165.851 182.468 157.786 181.31 157.786 179.883C157.786 178.456 165.851 177.298 175.804 177.298C185.758 177.298 193.823 178.456 193.823 179.883Z" fill="#EDE869"/>
<path d="M239.344 179.883C239.344 181.31 231.279 182.468 221.326 182.468C211.372 182.468 203.307 181.31 203.307 179.883C203.307 178.456 211.372 177.298 221.326 177.298C231.279 177.298 239.344 178.456 239.344 179.883Z" fill="#EDE869"/>
<path d="M193.823 217.63C193.823 219.056 185.758 220.214 175.804 220.214C165.851 220.214 157.786 219.056 157.786 217.63C157.786 216.203 165.851 215.045 175.804 215.045C185.758 215.045 193.823 216.203 193.823 217.63Z" fill="#EDE869"/>
<path d="M239.344 217.63C239.344 219.056 231.279 220.214 221.326 220.214C211.372 220.214 203.307 219.056 203.307 217.63C203.307 216.203 211.372 215.045 221.326 215.045C231.279 215.045 239.344 216.203 239.344 217.63Z" fill="#EDE869"/>
<path d="M192.258 159.445C192.258 158.735 191.679 158.156 190.969 158.156H175.99C175.563 158.156 175.163 157.949 174.922 157.598L173.716 155.84C173.474 155.489 173.074 155.275 172.647 155.275H162.459C161.749 155.275 161.17 155.854 161.17 156.564V177.636C161.17 178.346 161.749 178.925 162.459 178.925H190.018L189.542 180.007C191.169 180.007 192.23 179.731 192.23 177.836C192.244 177.767 192.251 177.705 192.251 177.636V159.445H192.258Z" fill="#165246"/>
<path d="M189.549 159.238H174.57C174.143 159.238 173.743 159.032 173.502 158.68L172.296 156.922C172.054 156.571 171.655 156.364 171.227 156.364H161.039C160.329 156.364 159.75 156.943 159.75 157.653V178.725C159.75 179.435 160.329 180.014 161.039 180.014H189.535C190.245 180.014 190.824 179.435 190.824 178.725V160.534C190.824 159.824 190.245 159.245 189.535 159.245L189.549 159.238Z" fill="#1C6758"/>
<path d="M174.936 174.893C178.054 174.893 180.581 172.365 180.581 169.247C180.581 166.129 178.054 163.602 174.936 163.602C171.818 163.602 169.29 166.129 169.29 169.247C169.29 172.365 171.818 174.893 174.936 174.893Z" fill="white"/>
<path d="M176.369 169.647C176.252 169.516 176.128 169.385 176.011 169.254C176.135 169.123 176.259 168.992 176.376 168.854C176.79 168.434 177.197 168.02 177.603 167.593C177.796 167.386 177.872 167.083 177.803 166.814C177.783 166.683 177.727 166.559 177.624 166.455C177.514 166.345 177.369 166.283 177.217 166.276C176.962 166.214 176.687 166.276 176.487 166.476C176.059 166.883 175.639 167.296 175.225 167.71C175.094 167.827 174.97 167.944 174.846 168.062C174.322 167.538 173.798 167.014 173.261 166.497C172.957 166.18 172.371 166.166 172.068 166.497C171.758 166.841 171.744 167.352 172.068 167.689C172.578 168.22 173.095 168.737 173.619 169.254C173.095 169.771 172.578 170.288 172.068 170.819C171.751 171.122 171.737 171.708 172.068 172.011C172.413 172.321 172.923 172.335 173.261 172.011C173.798 171.494 174.322 170.97 174.839 170.447C174.963 170.564 175.094 170.681 175.218 170.798C175.639 171.212 176.052 171.618 176.48 172.025C176.687 172.218 176.99 172.294 177.259 172.225C177.39 172.204 177.514 172.149 177.617 172.046C177.727 171.935 177.789 171.791 177.796 171.639C177.858 171.384 177.796 171.108 177.596 170.908C177.19 170.481 176.776 170.061 176.363 169.647H176.369Z" fill="#C85F64"/>
<path d="M238.359 159.445C238.359 158.735 237.78 158.156 237.07 158.156H222.091C221.664 158.156 221.264 157.949 221.023 157.598L219.816 155.84C219.575 155.489 219.175 155.275 218.748 155.275H208.56C207.85 155.275 207.271 155.854 207.271 156.564V177.636C207.271 178.346 207.85 178.925 208.56 178.925H236.118L235.643 180.007C237.27 180.007 238.331 179.731 238.331 177.836C238.345 177.767 238.352 177.705 238.352 177.636V159.445H238.359Z" fill="#165246"/>
<path d="M235.657 159.238H220.678C220.251 159.238 219.851 159.032 219.61 158.68L218.403 156.922C218.162 156.571 217.762 156.364 217.335 156.364H207.147C206.437 156.364 205.858 156.943 205.858 157.653V178.725C205.858 179.435 206.437 180.014 207.147 180.014H235.643C236.353 180.014 236.932 179.435 236.932 178.725V160.534C236.932 159.824 236.353 159.245 235.643 159.245L235.657 159.238Z" fill="#1C6758"/>
<path d="M221.037 174.893C224.154 174.893 226.682 172.365 226.682 169.247C226.682 166.129 224.154 163.602 221.037 163.602C217.919 163.602 215.391 166.129 215.391 169.247C215.391 172.365 217.919 174.893 221.037 174.893Z" fill="white"/>
<path d="M222.477 169.647C222.36 169.516 222.236 169.385 222.119 169.254C222.243 169.123 222.367 168.992 222.484 168.854C222.898 168.434 223.304 168.02 223.711 167.593C223.904 167.386 223.98 167.083 223.911 166.814C223.89 166.683 223.835 166.559 223.732 166.455C223.621 166.345 223.477 166.283 223.325 166.276C223.07 166.214 222.794 166.276 222.594 166.476C222.167 166.883 221.746 167.296 221.333 167.71C221.202 167.827 221.078 167.944 220.954 168.062C220.43 167.538 219.906 167.014 219.368 166.497C219.065 166.18 218.479 166.166 218.176 166.497C217.866 166.841 217.852 167.352 218.176 167.689C218.686 168.22 219.203 168.737 219.727 169.254C219.203 169.771 218.686 170.288 218.176 170.819C217.859 171.122 217.845 171.708 218.176 172.011C218.521 172.321 219.031 172.335 219.368 172.011C219.906 171.494 220.43 170.97 220.947 170.447C221.071 170.564 221.202 170.681 221.326 170.798C221.746 171.212 222.16 171.618 222.587 172.025C222.794 172.218 223.098 172.294 223.366 172.225C223.497 172.204 223.621 172.149 223.725 172.046C223.835 171.935 223.897 171.791 223.904 171.639C223.966 171.384 223.904 171.108 223.704 170.908C223.297 170.481 222.884 170.061 222.47 169.647H222.477Z" fill="#C85F64"/>
<path d="M192.258 197.192C192.258 196.482 191.679 195.903 190.969 195.903H175.99C175.563 195.903 175.163 195.696 174.922 195.344L173.716 193.587C173.474 193.235 173.074 193.028 172.647 193.028H162.459C161.749 193.028 161.17 193.607 161.17 194.317V215.389C161.17 216.099 161.749 216.678 162.459 216.678H190.018L189.542 217.761C191.169 217.761 192.23 217.485 192.23 215.589C192.244 215.52 192.251 215.458 192.251 215.389V197.199L192.258 197.192Z" fill="#165246"/>
<path d="M189.549 196.985H174.57C174.143 196.985 173.743 196.778 173.502 196.427L172.296 194.669C172.054 194.317 171.655 194.111 171.227 194.111H161.039C160.329 194.111 159.75 194.69 159.75 195.4V216.472C159.75 217.182 160.329 217.761 161.039 217.761H189.535C190.245 217.761 190.824 217.182 190.824 216.472V198.281C190.824 197.571 190.245 196.992 189.535 196.992L189.549 196.985Z" fill="#1C6758"/>
<path d="M174.936 212.639C178.054 212.639 180.581 210.111 180.581 206.994C180.581 203.876 178.054 201.348 174.936 201.348C171.818 201.348 169.29 203.876 169.29 206.994C169.29 210.111 171.818 212.639 174.936 212.639Z" fill="white"/>
<path d="M176.369 207.387C176.252 207.256 176.128 207.125 176.011 206.994C176.135 206.863 176.259 206.732 176.376 206.594C176.79 206.173 177.197 205.76 177.603 205.333C177.796 205.126 177.872 204.822 177.803 204.554C177.783 204.423 177.727 204.299 177.624 204.195C177.514 204.085 177.369 204.023 177.217 204.016C176.962 203.954 176.687 204.016 176.487 204.216C176.059 204.623 175.639 205.036 175.225 205.45C175.094 205.567 174.97 205.684 174.846 205.801C174.322 205.277 173.798 204.754 173.261 204.237C172.957 203.919 172.371 203.906 172.068 204.237C171.758 204.581 171.744 205.091 172.068 205.429C172.578 205.96 173.095 206.477 173.619 206.994C173.095 207.511 172.578 208.028 172.068 208.558C171.751 208.862 171.737 209.448 172.068 209.751C172.413 210.061 172.923 210.075 173.261 209.751C173.798 209.234 174.322 208.71 174.839 208.186C174.963 208.303 175.094 208.421 175.218 208.538C175.639 208.951 176.052 209.358 176.48 209.765C176.687 209.958 176.99 210.034 177.259 209.965C177.39 209.944 177.514 209.889 177.617 209.785C177.727 209.675 177.789 209.53 177.796 209.379C177.858 209.124 177.796 208.848 177.596 208.648C177.19 208.221 176.776 207.8 176.363 207.387H176.369Z" fill="#C85F64"/>
<path d="M238.359 197.192C238.359 196.482 237.78 195.903 237.07 195.903H222.091C221.664 195.903 221.264 195.696 221.023 195.344L219.816 193.587C219.575 193.235 219.175 193.028 218.748 193.028H208.56C207.85 193.028 207.271 193.607 207.271 194.317V215.389C207.271 216.099 207.85 216.678 208.56 216.678H236.118L235.643 217.761C237.27 217.761 238.331 217.485 238.331 215.589C238.345 215.52 238.352 215.458 238.352 215.389V197.199L238.359 197.192Z" fill="#165246"/>
<path d="M235.657 196.985H220.678C220.251 196.985 219.851 196.778 219.61 196.427L218.403 194.669C218.162 194.317 217.762 194.111 217.335 194.111H207.147C206.437 194.111 205.858 194.69 205.858 195.4V216.472C205.858 217.182 206.437 217.761 207.147 217.761H235.643C236.353 217.761 236.932 217.182 236.932 216.472V198.281C236.932 197.571 236.353 196.992 235.643 196.992L235.657 196.985Z" fill="#1C6758"/>
<path d="M221.037 212.639C224.154 212.639 226.682 210.111 226.682 206.994C226.682 203.876 224.154 201.348 221.037 201.348C217.919 201.348 215.391 203.876 215.391 206.994C215.391 210.111 217.919 212.639 221.037 212.639Z" fill="white"/>
<path d="M222.477 207.387C222.36 207.256 222.236 207.125 222.119 206.994C222.243 206.863 222.367 206.732 222.484 206.594C222.898 206.173 223.304 205.76 223.711 205.333C223.904 205.126 223.98 204.822 223.911 204.554C223.89 204.423 223.835 204.299 223.732 204.195C223.621 204.085 223.477 204.023 223.325 204.016C223.07 203.954 222.794 204.016 222.594 204.216C222.167 204.623 221.746 205.036 221.333 205.45C221.202 205.567 221.078 205.684 220.954 205.801C220.43 205.277 219.906 204.754 219.368 204.237C219.065 203.919 218.479 203.906 218.176 204.237C217.866 204.581 217.852 205.091 218.176 205.429C218.686 205.96 219.203 206.477 219.727 206.994C219.203 207.511 218.686 208.028 218.176 208.558C217.859 208.862 217.845 209.448 218.176 209.751C218.521 210.061 219.031 210.075 219.368 209.751C219.906 209.234 220.43 208.71 220.947 208.186C221.071 208.303 221.202 208.421 221.326 208.538C221.746 208.951 222.16 209.358 222.587 209.765C222.794 209.958 223.098 210.034 223.366 209.965C223.497 209.944 223.621 209.889 223.725 209.785C223.835 209.675 223.897 209.53 223.904 209.379C223.966 209.124 223.904 208.848 223.704 208.648C223.297 208.221 222.884 207.8 222.47 207.387H222.477Z" fill="#C85F64"/>
<path d="M285.852 5.45414L287.224 5.90219C287.851 6.10209 287.851 6.99129 287.224 7.19808L285.852 7.64613C284.135 8.20447 282.798 9.54173 282.24 11.2581L281.792 12.6298C281.592 13.2571 280.703 13.2571 280.496 12.6298L280.048 11.2581C279.49 9.54173 278.152 8.20447 276.436 7.64613L275.064 7.19808C274.437 6.99818 274.437 6.10898 275.064 5.90219L276.436 5.45414C278.152 4.8958 279.49 3.55855 280.048 1.84217L280.496 0.470452C280.696 -0.156817 281.585 -0.156817 281.792 0.470452L282.24 1.84217C282.798 3.55855 284.135 4.8958 285.852 5.45414Z" fill="white"/>
<path d="M18.5939 49.7628L19.6417 50.1006C20.1173 50.2591 20.1173 50.9346 19.6417 51.0863L18.5939 51.424C17.2842 51.8514 16.2572 52.8785 15.8298 54.1882L15.4921 55.2359C15.3335 55.7115 14.658 55.7115 14.5063 55.2359L14.1686 54.1882C13.7412 52.8785 12.7141 51.8514 11.4045 51.424L10.3567 51.0863C9.88109 50.9277 9.88109 50.2522 10.3567 50.1006L11.4045 49.7628C12.7141 49.3354 13.7412 48.3084 14.1686 46.9987L14.5063 45.951C14.6649 45.4753 15.3404 45.4753 15.4921 45.951L15.8298 46.9987C16.2572 48.3084 17.2842 49.3354 18.5939 49.7628Z" fill="white"/>
<path d="M287.658 177.071L288.706 177.409C289.181 177.567 289.181 178.243 288.706 178.394L287.658 178.732C286.348 179.16 285.321 180.187 284.894 181.496L284.556 182.544C284.397 183.02 283.722 183.02 283.57 182.544L283.233 181.496C282.805 180.187 281.778 179.16 280.468 178.732L279.421 178.394C278.945 178.236 278.945 177.56 279.421 177.409L280.468 177.071C281.778 176.644 282.805 175.616 283.233 174.307L283.57 173.259C283.729 172.783 284.404 172.783 284.556 173.259L284.894 174.307C285.321 175.616 286.348 176.644 287.658 177.071Z" fill="white"/>
<path d="M124.168 157.791L125.106 158.094C125.533 158.232 125.533 158.839 125.106 158.976L124.168 159.28C123.003 159.659 122.086 160.576 121.707 161.741L121.404 162.678C121.266 163.105 120.659 163.105 120.522 162.678L120.218 161.741C119.839 160.576 118.922 159.659 117.757 159.28L116.82 158.976C116.393 158.839 116.393 158.232 116.82 158.094L117.757 157.791C118.922 157.412 119.839 156.495 120.218 155.33L120.522 154.393C120.659 153.965 121.266 153.965 121.404 154.393L121.707 155.33C122.086 156.495 123.003 157.412 124.168 157.791Z" fill="white"/>
<path d="M28.7252 231.721L29.6626 232.024C30.09 232.162 30.09 232.768 29.6626 232.906L28.7252 233.209C27.5602 233.589 26.6435 234.505 26.2644 235.67L25.9611 236.608C25.8232 237.035 25.2166 237.035 25.0787 236.608L24.7754 235.67C24.3963 234.505 23.4796 233.589 22.3146 233.209L21.3772 232.906C20.9498 232.768 20.9498 232.162 21.3772 232.024L22.3146 231.721C23.4796 231.341 24.3963 230.425 24.7754 229.26L25.0787 228.322C25.2166 227.895 25.8232 227.895 25.9611 228.322L26.2644 229.26C26.6435 230.425 27.5602 231.341 28.7252 231.721Z" fill="white"/>
<path d="M186.717 134.058C186.845 134.058 186.949 134.1 187.029 134.186C187.109 134.271 187.149 134.378 187.149 134.506V139.17C187.149 139.308 187.101 139.426 187.005 139.522C186.914 139.612 186.8 139.658 186.661 139.658C186.592 139.658 186.52 139.647 186.445 139.626C186.376 139.599 186.322 139.564 186.285 139.522L183.141 135.53L183.349 135.402V139.21C183.349 139.338 183.306 139.444 183.221 139.53C183.141 139.615 183.034 139.658 182.901 139.658C182.773 139.658 182.669 139.615 182.589 139.53C182.509 139.444 182.469 139.338 182.469 139.21V134.546C182.469 134.407 182.514 134.292 182.605 134.202C182.701 134.106 182.818 134.058 182.957 134.058C183.032 134.058 183.109 134.074 183.189 134.106C183.269 134.132 183.328 134.175 183.365 134.234L186.413 138.122L186.277 138.218V134.506C186.277 134.378 186.317 134.271 186.397 134.186C186.477 134.1 186.584 134.058 186.717 134.058ZM193.504 136.858C193.504 137.258 193.437 137.631 193.304 137.978C193.17 138.324 192.981 138.631 192.736 138.898C192.496 139.159 192.208 139.364 191.872 139.514C191.541 139.663 191.178 139.738 190.784 139.738C190.389 139.738 190.026 139.663 189.696 139.514C189.365 139.364 189.077 139.159 188.832 138.898C188.592 138.631 188.405 138.324 188.272 137.978C188.138 137.631 188.072 137.258 188.072 136.858C188.072 136.458 188.138 136.084 188.272 135.738C188.405 135.391 188.592 135.087 188.832 134.826C189.077 134.559 189.365 134.351 189.696 134.202C190.026 134.052 190.389 133.978 190.784 133.978C191.178 133.978 191.541 134.052 191.872 134.202C192.208 134.351 192.496 134.559 192.736 134.826C192.981 135.087 193.17 135.391 193.304 135.738C193.437 136.084 193.504 136.458 193.504 136.858ZM192.464 136.858C192.464 136.5 192.392 136.178 192.248 135.89C192.104 135.596 191.906 135.364 191.656 135.194C191.405 135.023 191.114 134.938 190.784 134.938C190.453 134.938 190.162 135.023 189.912 135.194C189.661 135.364 189.464 135.594 189.32 135.882C189.181 136.17 189.112 136.495 189.112 136.858C189.112 137.215 189.181 137.54 189.32 137.834C189.464 138.122 189.661 138.351 189.912 138.522C190.162 138.692 190.453 138.778 190.784 138.778C191.114 138.778 191.405 138.692 191.656 138.522C191.906 138.351 192.104 138.122 192.248 137.834C192.392 137.54 192.464 137.215 192.464 136.858ZM199.064 134.058C199.448 134.058 199.79 134.13 200.088 134.274C200.387 134.418 200.638 134.62 200.84 134.882C201.048 135.138 201.203 135.436 201.304 135.778C201.411 136.114 201.464 136.474 201.464 136.858C201.464 137.375 201.371 137.847 201.184 138.274C200.998 138.695 200.726 139.031 200.368 139.282C200.016 139.532 199.582 139.658 199.064 139.658H197.152C197.014 139.658 196.896 139.612 196.8 139.522C196.71 139.426 196.664 139.308 196.664 139.17V134.546C196.664 134.407 196.71 134.292 196.8 134.202C196.896 134.106 197.014 134.058 197.152 134.058H199.064ZM198.984 138.738C199.32 138.738 199.595 138.652 199.808 138.482C200.022 138.306 200.176 138.076 200.272 137.794C200.374 137.506 200.424 137.194 200.424 136.858C200.424 136.607 200.395 136.37 200.336 136.146C200.283 135.916 200.198 135.716 200.08 135.546C199.963 135.37 199.814 135.231 199.632 135.13C199.451 135.028 199.235 134.978 198.984 134.978H197.584L197.664 134.906V138.826L197.616 138.738H198.984ZM204.4 135.314L202.672 139.378C202.635 139.479 202.576 139.559 202.496 139.618C202.421 139.671 202.339 139.698 202.248 139.698C202.104 139.698 201.997 139.658 201.928 139.578C201.859 139.498 201.824 139.399 201.824 139.282C201.824 139.234 201.832 139.183 201.848 139.13L203.84 134.346C203.883 134.239 203.947 134.156 204.032 134.098C204.123 134.039 204.219 134.015 204.32 134.026C204.416 134.026 204.504 134.055 204.584 134.114C204.669 134.167 204.731 134.244 204.768 134.346L206.736 139.034C206.763 139.103 206.776 139.167 206.776 139.226C206.776 139.37 206.728 139.484 206.632 139.57C206.541 139.655 206.44 139.698 206.328 139.698C206.232 139.698 206.144 139.668 206.064 139.61C205.989 139.551 205.931 139.471 205.888 139.37L204.168 135.362L204.4 135.314ZM202.92 138.402L203.36 137.482H205.52L205.672 138.402H202.92ZM208.951 139.658C208.802 139.658 208.679 139.612 208.583 139.522C208.487 139.426 208.439 139.308 208.439 139.17V134.53H209.479V139.17C209.479 139.308 209.428 139.426 209.327 139.522C209.231 139.612 209.106 139.658 208.951 139.658ZM207.183 134.978C207.044 134.978 206.927 134.935 206.831 134.85C206.74 134.764 206.695 134.652 206.695 134.514C206.695 134.375 206.74 134.266 206.831 134.186C206.927 134.1 207.044 134.058 207.183 134.058H210.735C210.874 134.058 210.988 134.1 211.079 134.186C211.175 134.271 211.223 134.383 211.223 134.522C211.223 134.66 211.175 134.772 211.079 134.858C210.988 134.938 210.874 134.978 210.735 134.978H207.183ZM213.72 135.314L211.992 139.378C211.955 139.479 211.896 139.559 211.816 139.618C211.742 139.671 211.659 139.698 211.568 139.698C211.424 139.698 211.318 139.658 211.248 139.578C211.179 139.498 211.144 139.399 211.144 139.282C211.144 139.234 211.152 139.183 211.168 139.13L213.16 134.346C213.203 134.239 213.267 134.156 213.352 134.098C213.443 134.039 213.539 134.015 213.64 134.026C213.736 134.026 213.824 134.055 213.904 134.114C213.99 134.167 214.051 134.244 214.088 134.346L216.056 139.034C216.083 139.103 216.096 139.167 216.096 139.226C216.096 139.37 216.048 139.484 215.952 139.57C215.862 139.655 215.76 139.698 215.648 139.698C215.552 139.698 215.464 139.668 215.384 139.61C215.31 139.551 215.251 139.471 215.208 139.37L213.488 135.362L213.72 135.314ZM212.24 138.402L212.68 137.482H214.84L214.992 138.402H212.24Z" fill="white"/>
<path d="M42.2002 225.038C42.1902 224.598 40.7102 180.938 33.6002 174.028C26.6902 167.308 18.7602 173.778 18.4302 174.058L17.7202 173.208C17.8102 173.128 26.7602 165.828 34.3802 173.238C41.8002 180.458 43.2502 223.198 43.3102 225.008L42.2002 225.038Z" fill="#E0E0E0"/>
<path d="M42.8101 233.628C42.7601 233.108 37.9601 181.208 56.9101 159.458L57.7501 160.188C39.1101 181.578 43.8701 233.008 43.9201 233.518L42.8101 233.628Z" fill="#E0E0E0"/>
<path d="M42.11 228.138L41.0001 228.068C41.0401 227.478 44.7101 169.068 30.8101 156.278L31.5601 155.458C45.8501 168.608 42.27 225.708 42.11 228.138Z" fill="#E0E0E0"/>
<path d="M43.92 228.098H42.8101C42.8201 226.478 43.2701 188.638 54.0201 182.478C56.4101 181.108 58.75 180.878 60.98 181.798C67.48 184.488 70.7001 196.058 70.8401 196.548L69.7701 196.839C69.74 196.719 66.5601 185.298 60.5601 182.828C58.6701 182.048 56.66 182.258 54.58 183.448C44.38 189.298 43.9301 227.718 43.9301 228.108L43.92 228.098Z" fill="#E0E0E0"/>
<path d="M39.7301 228.128L38.6201 228.068C38.6401 227.768 40.2401 198.158 32.2501 187.728C30.3101 185.198 28.2101 183.998 25.9901 184.148C20.7501 184.518 16.3601 192.178 16.3201 192.248L15.3501 191.698C15.5401 191.358 20.0801 183.438 25.9101 183.028C28.5201 182.838 30.9501 184.198 33.1301 187.038C41.3701 197.798 39.8001 226.888 39.7301 228.118V228.128Z" fill="#E0E0E0"/>
<path d="M41.4801 232.159C41.2601 229.289 36.2601 161.679 45.0601 149.769L45.9501 150.429C37.3901 162.009 42.5301 231.379 42.5801 232.079L41.4701 232.159H41.4801Z" fill="#E0E0E0"/>
<path d="M63.3701 188.649C63.3701 188.649 58.0901 190.599 59.6601 195.199C61.2301 199.799 77.9401 207.369 77.9401 207.369C77.9401 207.369 84.9401 200.959 78.5101 190.519C72.0801 180.089 63.5101 185.359 63.3701 188.649Z" fill="#EBEBEB"/>
<path d="M40.3899 179.899C40.3899 179.899 46.0199 179.659 46.3399 184.509C46.6599 189.359 34.1499 202.779 34.1499 202.779C34.1499 202.779 25.2199 199.549 27.1399 187.449C29.0599 175.349 38.9899 176.919 40.3899 179.899Z" fill="#EBEBEB"/>
<path d="M35.6301 156.679C35.6301 156.679 39.3801 156.279 39.0801 153.989C38.7801 151.699 24.5001 145.819 16.0701 155.329C16.0701 155.329 21.4701 164.599 29.2601 164.719C37.0601 164.839 35.6301 156.679 35.6301 156.679Z" fill="#EBEBEB"/>
<path d="M42.6199 151.139C42.6199 151.139 39.2199 152.779 38.2699 150.679C37.3199 148.579 46.3299 136.039 58.5099 139.649C58.5099 139.649 58.8299 150.369 52.2799 154.599C45.7299 158.829 42.6199 151.139 42.6199 151.139Z" fill="#EBEBEB"/>
<path d="M24.86 186.799C24.86 186.799 27.45 184.709 24.65 183.689C21.86 182.669 8.15 182.959 8 196.539C8 196.539 23.97 199.189 25.94 194.019C27.92 188.849 24.85 186.799 24.85 186.799H24.86Z" fill="#EBEBEB"/>
<path d="M57.4199 156.339C57.4199 156.339 54.8299 154.249 57.6199 153.229C60.4099 152.209 74.1199 152.499 74.2699 166.079C74.2699 166.079 58.2999 168.729 56.3299 163.559C54.3499 158.389 57.4199 156.339 57.4199 156.339Z" fill="#EBEBEB"/>
<path d="M48.9799 167.279C48.9799 167.279 48.7499 164.739 50.7999 165.729C52.8499 166.729 59.9999 174.439 52.5899 181.749C52.5899 181.749 42.6199 174.359 44.4099 170.519C46.2099 166.669 48.97 167.269 48.97 167.269L48.9799 167.279Z" fill="#EBEBEB"/>
<path d="M22.5499 170.909C22.5499 170.909 24.0999 168.879 21.8299 168.629C19.5599 168.379 9.40987 171.089 11.7699 181.229C11.7699 181.229 24.1499 180.299 24.6799 176.089C25.2099 171.879 22.5499 170.909 22.5499 170.909Z" fill="#EBEBEB"/>
<path d="M54.3199 247.689H29.36L22.72 217.069H60.33L54.3199 247.689Z" fill="#F0F0F0"/>
<path d="M62.5 216.619H20.46V225.429H62.5V216.619Z" fill="#E6E6E6"/>
<path d="M90.6482 233.944L95.7252 247.639L100.323 246.157L98.737 231.695L90.6482 233.944Z" fill="#E9B376"/>
<path d="M103.212 243.146C103.285 242.26 103.23 241.523 102.277 241.468L100.931 241.394C100.421 241.394 100.058 241.732 99.6528 242.015C96.5672 244.16 95.2949 241.388 94.0963 241.394C92.5536 241.394 93.5493 246.317 93.4755 246.575L91.7914 252.285C91.6439 252.765 91.9389 253.791 92.4552 253.927C92.5474 253.951 92.6396 253.963 92.738 253.963H110.575C113.409 253.963 113.446 250.491 112.278 250.245C107.022 249.163 104.951 247.442 103.218 246.188C103.218 246.188 103.107 244.516 103.218 243.152L103.212 243.146Z" fill="#1C6758"/>
<path opacity="0.4" d="M110.569 253.957H92.7318C92.6396 253.957 92.5412 253.945 92.449 253.92C92.1048 253.828 91.859 253.324 91.7791 252.863V252.427H112.837C112.554 253.232 111.854 253.957 110.557 253.957H110.569Z" fill="white"/>
<path d="M105.67 247.94C105.215 248.364 104.834 248.868 104.558 249.427C104.502 249.538 104.527 249.679 104.638 249.741C104.742 249.796 104.896 249.771 104.951 249.661C105.222 249.12 105.554 248.677 105.99 248.272C106.076 248.192 106.082 248.026 105.99 247.946C105.898 247.86 105.756 247.86 105.664 247.946L105.67 247.94Z" fill="#263238"/>
<path d="M104.029 246.944C103.611 247.344 103.248 247.811 102.972 248.327C102.917 248.432 102.941 248.585 103.052 248.641C103.162 248.696 103.304 248.671 103.365 248.561C103.5 248.315 103.648 248.081 103.814 247.86C103.82 247.854 103.832 247.835 103.82 247.854L103.851 247.817C103.851 247.817 103.894 247.762 103.918 247.737C103.961 247.682 104.011 247.633 104.054 247.577C104.146 247.473 104.25 247.368 104.349 247.27C104.435 247.184 104.441 247.024 104.349 246.944C104.256 246.864 104.115 246.858 104.023 246.944H104.029Z" fill="#263238"/>
<path d="M102.91 246.047C102.486 246.28 102.13 246.649 101.921 247.085C101.872 247.196 101.89 247.337 102.001 247.399C102.105 247.454 102.259 247.43 102.314 247.319C102.363 247.221 102.419 247.122 102.48 247.03C102.492 247.012 102.511 246.987 102.523 246.969L102.535 246.95C102.535 246.95 102.535 246.944 102.523 246.969C102.523 246.956 102.542 246.95 102.548 246.938C102.585 246.895 102.621 246.852 102.658 246.815C102.732 246.735 102.818 246.667 102.898 246.6C102.867 246.624 102.88 246.612 102.898 246.6L102.929 246.575C102.929 246.575 102.978 246.538 103.003 246.526C103.052 246.495 103.095 246.471 103.144 246.44C103.248 246.385 103.291 246.225 103.224 246.127C103.156 246.028 103.021 245.979 102.91 246.047Z" fill="#263238"/>
<path d="M103.027 244.197C102.529 244.203 102.031 244.301 101.571 244.492C101.46 244.535 101.368 244.645 101.411 244.774C101.448 244.879 101.577 244.983 101.693 244.934C102.136 244.75 102.566 244.664 103.027 244.658C103.15 244.658 103.261 244.553 103.261 244.424C103.261 244.295 103.162 244.19 103.027 244.19V244.197Z" fill="#263238"/>
<g opacity="0.3">
<path d="M97.7597 244.682C97.7351 245.192 97.5507 245.752 97.102 245.991C96.8193 246.139 96.4873 246.133 96.1739 246.12L93.3342 246.041L93.3219 246.016C93.1744 244.67 92.7687 241.394 93.9427 241.394C94.8647 241.394 95.8358 243.275 97.7658 242.728C97.7474 243.441 97.7781 244.344 97.7658 244.688L97.7597 244.682Z" fill="black"/>
</g>
<path d="M57.5245 231.504L55.4901 246.409L50.6343 246.655L49.0608 232.285L57.5245 231.504Z" fill="#E9B376"/>
<path d="M46.4977 253.33H57.3648C57.3648 253.33 57.6045 252.876 57.3279 251.659C57.2849 251.468 57.2357 251.259 57.162 251.032C57.162 251.019 57.1558 251.007 57.1497 250.995C57.0452 250.657 56.9284 250.245 56.8055 249.796C56.3076 247.977 55.9695 243.791 55.9695 243.791C55.9695 243.791 53.9166 241.726 51.8022 242.697C49.9459 243.545 50.2348 244.621 50.2348 244.621C50.2348 244.621 50.2041 247.399 48.7965 248.653C47.9237 249.427 47.0632 250.03 46.6453 250.995C46.5654 251.173 46.5039 251.37 46.4609 251.573C46.4609 251.597 46.4486 251.622 46.4486 251.652C46.3625 252.12 46.3687 252.66 46.4916 253.324L46.4977 253.33Z" fill="#1C6758"/>
<g opacity="0.4">
<path d="M57.3279 251.659C57.5983 252.876 57.3647 253.331 57.3647 253.331H46.4977C46.3748 252.667 46.3686 252.126 46.4547 251.659H57.334H57.3279Z" fill="white"/>
</g>
<path d="M50.8248 246.588C51.4333 246.114 52.2385 246.176 52.7856 246.711C52.9331 246.852 53.1605 246.631 53.013 246.483C52.3246 245.813 51.3473 245.776 50.5974 246.36C50.4376 246.489 50.665 246.711 50.8248 246.588Z" fill="#263238"/>
<path d="M50.5175 247.602C51.126 247.129 51.9312 247.19 52.4782 247.725C52.6257 247.866 52.8531 247.645 52.7056 247.497C52.0172 246.827 51.0399 246.791 50.29 247.375C50.1302 247.504 50.3576 247.725 50.5175 247.602Z" fill="#263238"/>
<path d="M50.2103 248.536C50.8188 248.063 51.624 248.124 52.1711 248.659C52.3186 248.801 52.546 248.579 52.3985 248.432C51.7101 247.762 50.7328 247.725 49.9829 248.309C49.8231 248.438 50.0505 248.659 50.2103 248.536Z" fill="#263238"/>
<path d="M46.2949 131.242L69.7562 131.451L84.0345 130.996C84.0345 130.996 94.0657 176.573 94.9139 185.153C95.7621 193.734 103.076 238.929 103.076 238.929L91.9697 241.498C91.9697 241.498 79.3447 193.175 78.4351 188.534C77.6422 184.483 68.8711 158.539 66.6276 151.944C66.4002 153.296 66.1728 154.654 65.933 156C65.3676 162.085 63.5482 181.478 62.7553 188.694C62.7553 188.694 61.0343 229.925 59.0428 241.892L48.5937 241.91C47.2169 224.915 46.3318 165.214 46.3318 165.214C45.5573 152.245 46.2826 131.242 46.2826 131.242H46.2949Z" fill="#EDE869"/>
<g opacity="0.5">
<path d="M78.1769 137.813C79.5045 142.41 83.0511 146.105 87.4274 147.444C87.661 147.518 87.5626 147.905 87.3229 147.832C82.8175 146.449 79.1726 142.65 77.8019 137.917C77.7282 137.665 78.097 137.561 78.1707 137.813H78.1769Z" fill="black"/>
<path d="M66.2588 137.813C66.517 141.833 66.769 145.865 67.0272 149.885C67.0394 150.143 67.4205 150.143 67.4082 149.885C67.273 147.819 67.1439 145.754 67.0149 143.683C67.9553 144.451 69.0555 143.523 69.3628 142.496C69.8668 140.837 69.6763 138.864 69.2829 137.204C69.2215 136.952 68.8527 137.063 68.9141 137.309C69.1907 138.477 69.3075 139.669 69.2276 140.874C69.1907 141.482 69.1354 142.183 68.865 142.742C68.5638 143.363 67.8016 143.892 67.1931 143.326C67.1255 143.265 67.0517 143.259 66.9903 143.296C66.8735 141.47 66.7567 139.644 66.6399 137.819C66.6276 137.561 66.2465 137.561 66.2588 137.819V137.813Z" fill="black"/>
<path d="M55.0414 138.495C55.0968 143.83 51.1999 148.293 46.1659 148.711C45.9262 148.729 45.9262 148.336 46.1659 148.311C50.997 147.912 54.7157 143.591 54.6665 138.489C54.6665 138.231 55.0414 138.231 55.0414 138.489V138.495Z" fill="black"/>
<path d="M52.5706 190.513C51.0032 191.122 49.3191 191.134 47.7456 190.544C47.5182 190.458 47.6165 190.077 47.8439 190.163C49.3621 190.734 50.9602 190.722 52.4723 190.132C52.6997 190.046 52.798 190.427 52.5706 190.513Z" fill="black"/>
</g>
<path d="M85.9152 68.855C87.9619 67.8592 90.0149 66.9065 91.9695 65.8124C87.0092 62.6347 79.2216 58.9468 74.8391 56.4697L76.4803 52.2102C80.7214 53.3412 84.858 54.6442 88.9761 56.1993C92.1477 57.4163 95.2886 58.6763 98.3065 60.4404C99.9661 61.4546 101.656 62.5855 102.382 64.6692C103.457 67.9514 101.091 69.9245 98.7798 71.6455C92.326 76.2861 85.2145 79.5315 77.9001 82.4941L74.4519 73.9566C78.2505 72.3216 82.1535 70.6067 85.909 68.855H85.9152Z" fill="#E9B376"/>
<path d="M78.1829 54.0419L76.9843 48.8973C76.8552 48.3318 76.5171 47.8278 76.05 47.4897L70.1678 43.2363C70.1678 43.2363 69.6208 43.9739 70.1678 44.7607L68.7111 44.1829C68.7111 44.1829 68.2255 45.1295 69.1966 45.867C70.1678 46.6046 71.686 48.2826 71.686 48.2826L68.3484 46.7091C68.3484 46.7091 67.5002 47.0226 68.3484 48.0736C69.1966 49.1247 71.8704 50.5445 71.8704 50.5445C71.8704 50.5445 72.3252 55.9781 73.2964 56.9246C74.2675 57.8712 77.5559 57.5823 77.5559 57.5823L78.189 54.0419H78.1829Z" fill="#E9B376"/>
<path d="M84.8457 131.144L80.3218 102.446L77.1011 72.8256L65.6931 72.7211L56.9098 72.506L47.4749 73.0039L41.9614 87.9829C41.9614 87.9829 45.0777 108.93 45.1761 110.018C45.2928 111.352 45.9812 132.121 45.9812 132.121C57.3031 138.919 85.2698 132.281 84.8457 131.15V131.144Z" fill="#1C6758"/>
<path d="M78.7914 88.4009C81.5634 86.8581 88.675 81.8179 91.5085 80.2383L94.1146 78.7877L88.2447 66.2795C88.2447 66.2795 81.2192 69.0824 74.6855 72.1863C74.6855 72.1863 74.1507 71.922 73.825 71.9405C73.4931 71.9589 72.356 73.7414 72.356 73.7414L78.7975 88.4009H78.7914Z" fill="#1C6758"/>
<path opacity="0.2" d="M55.447 123.86C55.3855 123.86 55.3241 123.823 55.3056 123.762C55.2749 123.682 55.3179 123.596 55.3978 123.565C62.3557 120.99 68.41 116.152 72.4544 109.932C72.5036 109.858 72.5958 109.84 72.6695 109.889C72.7433 109.938 72.7617 110.031 72.7126 110.104C68.6313 116.374 62.5216 121.26 55.5023 123.854C55.4839 123.86 55.4654 123.866 55.447 123.866V123.86Z" fill="black"/>
<path d="M55.5946 72.7151C55.5946 72.7151 56.1539 68.6952 53.7998 61.7251C53.7998 61.7189 54.1624 61.5345 54.1624 61.5284C53.8367 60.5511 53.4986 59.6537 53.179 58.8792C53.1729 58.8546 53.1729 58.8485 53.1729 58.8485L63.0872 64.3927C62.9581 66.6607 63.96 70.9817 64.5193 72.8072C64.5193 72.8072 66.6153 76.8086 62.1898 77.1528C58.9506 77.3987 55.5946 72.7151 55.5946 72.7151Z" fill="#E9B376"/>
<path opacity="0.2" d="M63.3945 67.5582L57.7827 66.5502C58.3605 68.2589 59.9832 70.2381 63.8555 70.2381C63.8555 70.2381 63.3883 68.3204 63.3945 67.5643V67.5582Z" fill="black"/>
<path d="M69.0371 47.4221C70.2725 49.6041 70.8872 54.4967 67.2853 53.63C63.6835 52.7634 66.9165 43.6665 69.0371 47.4221Z" fill="#263238"/>
<path d="M52.8963 54.1587C53.8121 60.2499 54.2055 63.7043 57.5799 66.5439C62.6569 70.8158 69.8115 67.429 70.7335 61.1657C71.5633 55.5294 69.9221 46.5124 63.708 44.6685C57.5799 42.8491 51.9743 48.0675 52.8963 54.1587Z" fill="#E9B376"/>
<path d="M50.9847 46.1682C51.5256 42.72 55.7298 40.4704 58.2437 41.9886C58.6187 42.216 56.031 43.3654 56.326 43.2302L56.578 48.2211C56.2092 48.172 55.5331 48.6575 55.2627 49.8192C55.2627 49.8192 56.7378 56.2239 54.3161 59.1804C47.4197 56.7095 46.5654 47.9876 50.9847 46.1682Z" fill="#263238"/>
<path d="M50.9294 59.4815C51.5563 61.0182 52.8409 62.1061 54.1071 62.604C56.0125 63.3477 57.1927 61.6881 56.8485 59.7704C56.5411 58.0494 55.1766 55.5846 53.1667 55.6522C51.1937 55.726 50.2102 57.7236 50.9294 59.4754V59.4815Z" fill="#E9B376"/>
<path d="M61.8211 55.1544C61.8764 55.7814 62.2514 56.2546 62.6632 56.2178C63.075 56.1747 63.3577 55.6338 63.3024 55.0069C63.2471 54.38 62.8722 53.9067 62.4604 53.9435C62.0485 53.9866 61.7658 54.5275 61.8211 55.1544Z" fill="#263238"/>
<path d="M67.9798 54.7364C68.0351 55.3634 68.4101 55.8367 68.8219 55.7998C69.2337 55.7568 69.5164 55.2159 69.4611 54.5889C69.4058 53.962 69.0309 53.4887 68.619 53.5256C68.2072 53.5686 67.9245 54.1095 67.9798 54.7364Z" fill="#263238"/>
<path d="M65.9514 54.5644C65.9514 54.5644 68.2133 57.5024 68.9571 58.7133C68.1519 59.5799 66.6214 59.3464 66.6214 59.3464L65.9514 54.5582V54.5644Z" fill="#D58745"/>
<path d="M62.4847 51.4541C62.3803 51.448 62.2758 51.4972 62.2204 51.5894C61.489 52.6896 60.4072 52.6957 60.3949 52.6957C60.2351 52.6957 60.0999 52.8248 60.0938 52.9908C60.0938 53.1506 60.2228 53.2858 60.3826 53.2858C60.438 53.2858 61.8025 53.2735 62.706 51.909C62.7982 51.7737 62.7613 51.5894 62.6261 51.5033C62.5831 51.4726 62.5339 51.4603 62.4847 51.4541Z" fill="#263238"/>
<path d="M68.0906 50.4954C68.0352 50.5015 67.9799 50.5261 67.9369 50.563C67.814 50.6675 67.7955 50.8519 67.8939 50.9809C68.9265 52.2348 70.2726 52.075 70.334 52.0812C70.4938 52.0627 70.6106 51.9152 70.5922 51.7554C70.5738 51.5956 70.4324 51.4788 70.2726 51.4972C70.2173 51.5034 69.1785 51.614 68.3487 50.606C68.2811 50.5261 68.1889 50.4892 68.0906 50.5015V50.4954Z" fill="#263238"/>
<path d="M73.2656 44.4102C72.9706 42.8429 71.2742 41.6074 69.7314 42.0192C70.2293 40.9989 69.7806 39.6221 68.7787 39.0812C67.7768 38.5465 66.3815 38.9398 65.8099 39.9171C65.7546 38.9644 64.7343 38.2637 63.7816 38.3375C62.8289 38.4112 62.0114 39.0997 61.5319 39.9171C61.2369 40.4212 61.0218 41.0051 60.5485 41.3493C59.8048 41.8902 58.7844 41.6074 57.8748 41.5398C56.3381 41.423 54.7646 42.007 53.6767 43.0949C52.5887 44.1828 52.0048 45.7625 52.1216 47.293C51.2734 47.5265 50.8493 48.2088 50.3022 48.8911L54.9982 49.6409C56.3135 47.1823 59.8662 49.0816 61.6487 49.7577C62.9272 50.2433 64.1872 50.2802 65.1584 50.2433C66.1295 50.2064 66.5721 49.4934 66.5844 48.5223C68.0718 49.1 69.8174 49.1369 71.2188 48.3686C72.6203 47.6003 73.5668 45.953 73.2656 44.3857V44.4102Z" fill="#263238"/>
<path d="M51.2674 46.451C51.2674 46.451 51.2059 46.4449 51.1813 46.4264C50.2655 45.7995 49.1775 45.3999 48.3478 45.3876C48.2617 45.3876 48.1941 45.3139 48.1941 45.234C48.1941 45.1541 48.2801 45.0926 48.3478 45.0803C49.2513 45.0988 50.37 45.5044 51.3473 46.1744C51.4149 46.2236 51.4333 46.3158 51.3903 46.3895C51.3595 46.4326 51.3104 46.4571 51.2612 46.4571L51.2674 46.451Z" fill="#263238"/>
<path d="M51.1506 46.3894C51.1014 46.3894 51.0522 46.3648 51.0215 46.3218C50.3331 45.2953 50.038 44.0046 50.2101 42.7814C50.2224 42.6954 50.3023 42.64 50.3822 42.6523C50.4683 42.6646 50.5236 42.7445 50.5113 42.8244C50.3454 43.9738 50.622 45.1847 51.2735 46.1497C51.3227 46.2173 51.3042 46.3157 51.2305 46.3648C51.2059 46.3833 51.1751 46.3894 51.1444 46.3894H51.1506Z" fill="#263238"/>
<path d="M66.0498 63.2925C66.2772 62.5611 66.2526 61.7313 65.7793 61.1228C65.3122 60.5143 64.5316 60.1824 63.7633 60.2008C62.995 60.2192 62.2574 60.5819 61.7226 61.1351C61.4583 61.4117 61.2309 61.762 61.2493 62.1431C61.2678 62.5795 61.6181 62.9544 62.0177 63.1265C62.4172 63.3048 62.872 63.3232 63.3084 63.3417C63.7448 63.354 64.1935 63.3663 64.6053 63.5261C64.802 63.5998 64.9926 63.7105 65.2016 63.7228C65.2016 63.7228 65.89 63.7719 66.0436 63.2802L66.0498 63.2925Z" fill="#263238"/>
<path d="M62.3557 60.6309C62.5401 60.6739 65.4105 61.2886 65.5458 61.2394C65.6625 61.1964 65.6441 61.012 65.638 60.9505C65.5642 60.8706 65.4904 60.7846 65.4044 60.7169C65.3798 60.6985 65.3552 60.6801 65.3306 60.6616C64.8819 60.3359 64.3226 60.1576 63.7633 60.1699C63.2593 60.1822 62.786 60.3666 62.3619 60.6309H62.3557Z" fill="white"/>
<path d="M64.3349 62.5856C63.2592 62.0754 61.3661 62.4873 61.3477 62.4934C61.4767 62.7761 61.7349 63.0097 62.0238 63.1326C62.4233 63.3109 62.8781 63.3293 63.3145 63.3478C63.7509 63.3601 64.1996 63.3724 64.6115 63.5322C64.8081 63.6059 64.9987 63.7166 65.2077 63.7289C65.2077 63.7289 65.3736 63.7411 65.558 63.692C65.4228 63.4215 65.0847 62.936 64.3349 62.5795V62.5856Z" fill="#DE5753"/>
<path opacity="0.2" d="M55.1396 59.4018C55.0658 59.4018 55.0044 59.3526 54.9921 59.2788C54.8937 58.781 54.6602 58.32 54.3283 57.9389C54.1131 57.693 53.7566 57.3857 53.3079 57.312C52.9023 57.2505 52.4905 57.4287 52.3245 57.7361C52.2815 57.8098 52.1893 57.8344 52.1155 57.7975C52.0418 57.7545 52.0172 57.6623 52.0541 57.5886C52.2876 57.1644 52.8224 56.9309 53.3571 57.0108C53.898 57.0968 54.3098 57.4533 54.5618 57.7361C54.9306 58.154 55.1888 58.6703 55.2994 59.2174C55.3179 59.3034 55.2625 59.3833 55.1765 59.3956C55.1642 59.3956 55.158 59.3956 55.1458 59.3956L55.1396 59.4018Z" fill="black"/>
<path d="M21.8563 71.1784C21.9669 71.2583 22.2742 71.498 22.391 71.5779C24.2903 72.9977 26.0974 74.0857 27.9413 75.1429C33.3748 78.2284 38.9313 80.853 44.7029 83.2255L48.2801 74.7372C43.4182 72.4876 36.6817 69.6909 31.2174 66.9188C35.6552 63.9501 41.6911 60.4773 45.2376 58.1908L43.3445 54.0419C37.3947 55.9534 31.66 58.1355 26.0728 61.0182C23.5896 62.4503 20.2827 63.864 20.0123 67.3614C19.8894 68.6767 20.7007 70.41 21.8624 71.1845L21.8563 71.1784Z" fill="#E9B376"/>
<path opacity="0.2" d="M31.205 66.9188L27.6523 65.9968L32.2561 66.2304L31.205 66.9188Z" fill="black"/>
<path d="M43.074 54.6197L45.0347 48.0982C45.1454 47.7171 45.3912 47.3914 45.717 47.164L51.089 43.4453C51.089 43.4453 51.6361 44.2075 51.089 45.0188L52.5458 44.4226C52.5458 44.4226 53.0313 45.3999 52.0602 46.1621C51.089 46.9243 49.5708 48.6637 49.5708 48.6637L52.9084 47.0349C52.9084 47.0349 53.7566 47.3606 52.9084 48.4486C52.0602 49.5365 49.3865 51.0055 49.3865 51.0055C49.3865 51.0055 48.7841 56.0826 47.8129 57.066C46.8418 58.0433 43.7071 58.2892 43.7071 58.2892L43.074 54.6258V54.6197Z" fill="#E9B376"/>
<path d="M41.9615 87.9768L27.5786 80.5826L33.9648 68.1236C33.8419 68.0683 43.074 70.5699 50.1732 73.2928C54.7401 75.0507 47.8437 86.1021 41.9615 87.9768Z" fill="#1C6758"/>
<path d="M104.297 33.79C108.836 26.4151 106.537 16.7571 99.1619 12.2182C91.787 7.67936 82.129 9.97844 77.5901 17.3533C73.0513 24.7282 75.3504 34.3863 82.7253 38.9251C90.1002 43.4639 99.7582 41.1649 104.297 33.79Z" fill="#1C6758"/>
<path d="M84.735 36.1801L85.7983 40.0769L81.2929 42.4434L80.7766 37.4647L84.735 36.1801Z" fill="#1C6758"/>
<path d="M90.5128 33.2175C89.9411 33.2175 89.4678 33.0331 89.0868 32.6643C88.7057 32.2955 88.5151 31.8468 88.5151 31.3244C88.5151 30.8019 88.6995 30.3594 89.0745 30.0029C89.4494 29.6464 89.9288 29.4743 90.5128 29.4743C91.0967 29.4743 91.5761 29.6525 91.951 30.0029C92.326 30.3594 92.5104 30.7958 92.5104 31.3244C92.5104 31.853 92.3198 32.3017 91.9387 32.6643C91.5577 33.0331 91.0844 33.2175 90.5128 33.2175ZM91.8035 27.993H89.222L88.5766 18.4781H92.4489L91.8035 27.993Z" fill="#FAFAFA"/>
<path d="M72.4174 22.1475H72.399C72.3129 22.1352 72.2515 22.0615 72.2638 21.9754C72.7985 16.8738 76.1115 12.098 80.6968 9.8053C80.7706 9.76842 80.8628 9.79915 80.9058 9.87291C80.9427 9.94667 80.9119 10.0389 80.8382 10.0819C76.3451 12.3315 73.0997 17.009 72.5711 22.0123C72.565 22.0922 72.4973 22.1475 72.4174 22.1475Z" fill="#1C6758"/>
<path d="M72.3191 26.8005C72.2515 26.8005 72.1839 26.7513 72.1716 26.6837C71.9872 25.9092 71.9626 25.0856 72.104 24.305C72.1163 24.2189 72.1962 24.1698 72.2822 24.182C72.3683 24.1943 72.4236 24.2742 72.4052 24.3603C72.2699 25.104 72.2945 25.8785 72.4666 26.6099C72.4851 26.6898 72.4359 26.7759 72.3498 26.7943C72.3376 26.7943 72.3253 26.7943 72.313 26.7943L72.3191 26.8005Z" fill="#1C6758"/>
</g>
<defs>
<clipPath id="clip0_572_4700">
<rect width="300" height="261.406" fill="white"/>
</clipPath>
</defs>
</svg>
