<svg width="240" height="240" viewBox="0 0 240 240" fill="none" xmlns="http://www.w3.org/2000/svg">
<path d="M120 229.406C182.454 229.406 233.083 200.175 233.083 164.117C233.083 128.058 182.454 98.8271 120 98.8271C57.5458 98.8271 6.91675 128.058 6.91675 164.117C6.91675 200.175 57.5458 229.406 120 229.406Z" fill="#F0F0F0"/>
<path d="M96.5999 213.59C118.136 213.59 135.595 203.511 135.595 191.078C135.595 178.645 118.136 168.566 96.5999 168.566C75.0635 168.566 57.6047 178.645 57.6047 191.078C57.6047 203.511 75.0635 213.59 96.5999 213.59Z" fill="#E0E0E0"/>
<path d="M207.494 162.912L202.92 160.272C202.92 160.272 201.802 150.48 202.546 142.896C203.592 132.24 210.475 119.414 218.683 122.429C226.891 125.443 214.92 136.291 212.256 145.33C209.592 154.368 207.494 162.912 207.494 162.912Z" fill="#1C6758"/>
<path opacity="0.15" d="M207.494 162.912L202.92 160.272C202.92 160.272 201.802 150.48 202.546 142.896C203.592 132.24 210.475 119.414 218.683 122.429C226.891 125.443 214.92 136.291 212.256 145.33C209.592 154.368 207.494 162.912 207.494 162.912Z" fill="black"/>
<path d="M205.09 161.803C205.163 161.8 205.231 161.767 205.281 161.713C205.33 161.659 205.356 161.588 205.354 161.515C204.552 137.837 216.341 125.923 216.456 125.808C216.508 125.756 216.537 125.685 216.537 125.611C216.537 125.537 216.508 125.467 216.456 125.414C216.431 125.389 216.4 125.368 216.367 125.354C216.334 125.341 216.298 125.333 216.262 125.333C216.225 125.333 216.19 125.341 216.156 125.354C216.123 125.368 216.093 125.389 216.067 125.414C215.942 125.53 203.986 137.616 204.797 161.534C204.798 161.571 204.807 161.608 204.822 161.641C204.838 161.675 204.86 161.705 204.887 161.73C204.914 161.755 204.946 161.775 204.981 161.787C205.016 161.8 205.053 161.805 205.09 161.803Z" fill="white"/>
<path d="M210.37 164.558L207.115 162.682C207.115 162.682 206.559 155.962 209.856 147.802C212.736 140.698 219.84 134.798 223.421 136.037C227.002 137.275 226.911 139.814 225.163 142.478C223.416 145.142 212.803 151.483 210.37 164.558Z" fill="#1C6758"/>
<path d="M208.651 163.848C208.725 163.847 208.795 163.817 208.847 163.765C208.899 163.713 208.928 163.643 208.93 163.57C208.862 148.594 222.922 138.475 223.066 138.374C223.096 138.354 223.121 138.327 223.141 138.297C223.16 138.266 223.173 138.232 223.179 138.196C223.185 138.16 223.183 138.123 223.175 138.088C223.166 138.053 223.15 138.019 223.128 137.99C223.086 137.931 223.022 137.891 222.95 137.878C222.878 137.866 222.804 137.882 222.744 137.923C222.6 138.024 208.31 148.315 208.373 163.57C208.373 163.643 208.402 163.714 208.454 163.767C208.507 163.819 208.577 163.848 208.651 163.848Z" fill="white"/>
<path d="M38.2367 157.032L42.4607 154.181C42.4607 154.181 44.3183 143.141 42.5903 133.402C40.1615 119.741 30.7199 115.2 27.3599 116.64C23.9999 118.08 23.2799 122.146 29.5535 129.941C33.2735 134.525 38.1071 144.312 38.2367 157.032Z" fill="#1C6758"/>
<g opacity="0.15">
<path d="M38.2367 157.032L42.4607 154.181C42.4607 154.181 44.3183 143.141 42.5903 133.402C40.1615 119.741 30.7199 115.2 27.3599 116.64C23.9999 118.08 23.2799 122.146 29.5535 129.941C33.2735 134.525 38.1071 144.312 38.2367 157.032Z" fill="black"/>
</g>
<path d="M39.6863 151.56H39.6431C39.6 151.557 39.5579 151.545 39.5196 151.525C39.4813 151.505 39.4477 151.477 39.421 151.443C39.3943 151.409 39.375 151.37 39.3645 151.328C39.354 151.286 39.3524 151.243 39.3599 151.2C40.8863 138.341 35.4575 124.382 29.5487 118.829C29.4919 118.771 29.46 118.694 29.46 118.613C29.46 118.532 29.4919 118.454 29.5487 118.397C29.5769 118.368 29.6105 118.345 29.6476 118.33C29.6847 118.314 29.7245 118.306 29.7647 118.306C29.805 118.306 29.8448 118.314 29.8819 118.33C29.919 118.345 29.9526 118.368 29.9807 118.397C35.9999 124.051 41.5295 138.24 39.9839 151.286C39.9749 151.36 39.9399 151.428 39.8854 151.478C39.8309 151.528 39.7603 151.557 39.6863 151.56Z" fill="white"/>
<path d="M27.1775 164.491C26.5055 164.894 24.5471 163.44 24.0047 163.09C23.0752 162.483 22.318 161.646 21.8063 160.661C21.2324 159.543 21.0194 158.276 21.1967 157.032C21.2951 156.383 21.4378 155.741 21.6239 155.112C21.7919 154.483 21.9599 153.854 22.1039 153.221C22.3168 152.605 22.3986 151.951 22.3439 151.301C22.1567 150.019 20.9999 149.141 19.9439 148.387C18.7823 147.547 17.5439 146.438 17.5439 144.893C17.6032 143.678 18.0679 142.519 18.8639 141.6C19.5839 140.64 20.4479 139.805 21.0959 138.802C21.6027 138.106 21.8613 137.261 21.8303 136.402C21.7469 135.872 21.5575 135.364 21.2735 134.909C20.7071 133.91 19.9727 132.989 19.5743 131.928C19.1759 130.867 19.2047 129.504 20.0543 128.712C20.7311 128.064 21.7631 127.958 22.6991 128.002C23.5811 128.089 24.4332 128.37 25.1951 128.822C27.6767 130.142 29.1359 133.022 31.7615 134.026C32.7743 134.41 33.8783 134.477 34.9295 134.736C35.9807 134.995 37.0655 135.509 37.5695 136.464C38.5631 138.36 36.8303 140.75 37.5407 142.762C38.1743 144.547 39.9407 145.2 40.9391 146.798C41.3444 147.508 41.5125 148.329 41.4191 149.141C41.3628 150.512 41.0553 151.86 40.5119 153.12C39.887 154.426 39.1816 155.693 38.3999 156.912C38.3999 156.912 27.2783 164.429 27.1775 164.491Z" fill="#1C6758"/>
<path d="M33.6671 160.512C33.6267 160.511 33.5869 160.503 33.5499 160.487C33.5128 160.471 33.4793 160.448 33.4512 160.419C33.4231 160.39 33.401 160.356 33.3862 160.318C33.3713 160.281 33.364 160.24 33.3647 160.2C33.6335 148.046 27.6527 134.76 23.4191 130.92C23.3589 130.866 23.3226 130.79 23.3181 130.709C23.3136 130.628 23.3413 130.549 23.3951 130.488C23.4232 130.459 23.4568 130.437 23.4939 130.421C23.531 130.405 23.5708 130.397 23.6111 130.397C23.6513 130.397 23.6911 130.405 23.7282 130.421C23.7653 130.437 23.7989 130.459 23.8271 130.488C28.1471 134.376 34.2479 147.893 33.9743 160.214C33.9736 160.254 33.9652 160.293 33.9494 160.33C33.9336 160.366 33.9108 160.399 33.8823 160.427C33.8538 160.455 33.8201 160.476 33.7831 160.491C33.7462 160.506 33.7068 160.513 33.6671 160.512Z" fill="white"/>
<path d="M31.4255 145.704C31.3971 145.711 31.3674 145.711 31.3391 145.704C27.4127 144.571 22.5455 144.456 22.4975 144.451C22.4573 144.451 22.4177 144.442 22.381 144.426C22.3442 144.41 22.311 144.387 22.2833 144.358C22.2556 144.329 22.2339 144.294 22.2196 144.257C22.2053 144.219 22.1986 144.179 22.1999 144.139C22.1991 144.099 22.2068 144.059 22.2224 144.021C22.238 143.984 22.2612 143.95 22.2905 143.922C22.3198 143.894 22.3547 143.872 22.3928 143.859C22.4309 143.845 22.4714 143.839 22.5119 143.842C22.5599 143.842 27.5039 143.962 31.5071 145.114C31.5844 145.137 31.6495 145.19 31.6881 145.261C31.7267 145.332 31.7358 145.415 31.7135 145.493C31.6948 145.555 31.6566 145.608 31.6047 145.646C31.5527 145.685 31.4899 145.705 31.4255 145.704Z" fill="white"/>
<path d="M144.557 148.675L142.738 147.624C142.435 147.427 142.182 147.162 142.001 146.849C141.82 146.536 141.716 146.185 141.696 145.824V70.2144C141.716 69.8541 141.82 69.5036 142 69.1909C142.18 68.8783 142.431 68.6123 142.733 68.4144L193.301 39.2208C193.623 39.0576 193.979 38.9725 194.34 38.9725C194.701 38.9725 195.057 39.0576 195.379 39.2208L197.198 40.272C197.502 40.4688 197.754 40.7344 197.935 41.0472C198.116 41.36 198.22 41.7111 198.24 42.072V117.682C198.22 118.042 198.116 118.392 197.936 118.705C197.756 119.018 197.505 119.284 197.203 119.482L146.635 148.68C146.313 148.844 145.957 148.928 145.595 148.928C145.234 148.927 144.878 148.84 144.557 148.675Z" fill="#455A64"/>
<path d="M198.24 41.904C198.168 41.3664 197.731 41.1696 197.208 41.472L146.635 70.6704C146.33 70.8623 146.077 71.128 145.901 71.4432L141.999 69.192C142.173 68.8744 142.426 68.6068 142.733 68.4144L193.301 39.2208C193.623 39.0576 193.979 38.9725 194.34 38.9725C194.701 38.9725 195.057 39.0576 195.379 39.2208L197.199 40.272C197.48 40.4529 197.718 40.6924 197.898 40.9741C198.078 41.2557 198.194 41.573 198.24 41.904Z" fill="#455A64"/>
<path d="M146.458 148.762C146.15 148.886 145.82 148.943 145.489 148.929C145.157 148.915 144.833 148.83 144.538 148.68L142.714 147.624C142.412 147.426 142.161 147.16 141.981 146.848C141.801 146.535 141.697 146.184 141.677 145.824V70.2144C141.689 69.8535 141.793 69.5016 141.979 69.192L145.882 71.4432C145.692 71.7532 145.586 72.1072 145.574 72.4704V148.08C145.594 148.675 145.968 148.949 146.458 148.762Z" fill="#263238"/>
<path d="M145.594 72.48V148.08C145.594 148.742 146.074 149.011 146.635 148.68L197.203 119.482C197.505 119.284 197.756 119.018 197.936 118.705C198.116 118.392 198.22 118.042 198.24 117.682V42.072C198.24 41.4096 197.76 41.1408 197.203 41.472L146.635 70.6704C146.331 70.8681 146.078 71.1353 145.897 71.4498C145.716 71.7644 145.612 72.1175 145.594 72.48Z" fill="#37474F"/>
<path d="M133.786 101.28C133.133 100.891 130.104 99.1679 129.946 99.0767C129.822 99.0031 129.717 98.9027 129.637 98.7829C129.558 98.6631 129.507 98.527 129.487 98.3846C129.467 98.2423 129.479 98.0973 129.523 97.9604C129.567 97.8234 129.641 97.6981 129.739 97.5935L141.696 84.7679L145.594 87.0047L133.642 99.8399C133.548 99.9399 133.476 100.059 133.432 100.189C133.388 100.318 133.373 100.456 133.386 100.593C133.4 100.729 133.443 100.861 133.511 100.98C133.58 101.098 133.674 101.201 133.786 101.28Z" fill="#455A64"/>
<path d="M145.594 87.0192L133.642 99.84C133.509 99.9817 133.422 100.16 133.393 100.352C133.364 100.544 133.394 100.741 133.479 100.915C133.563 101.09 133.699 101.235 133.868 101.331C134.037 101.427 134.231 101.469 134.424 101.453L145.594 100.531V87.0192Z" fill="#37474F"/>
<path d="M171.917 63.936C177.811 60.5328 182.587 63.2928 182.587 70.0992C182.587 76.9056 177.811 85.176 171.917 88.5792C166.022 91.9824 161.246 89.2224 161.246 82.4208C161.246 75.6192 166.022 67.3392 171.917 63.936Z" fill="#1C6758"/>
<path d="M171.84 69.2928C173.76 68.1888 175.301 69.0816 175.301 71.2896C175.236 72.4898 174.888 73.6577 174.287 74.6986C173.685 75.7394 172.847 76.6238 171.84 77.28C169.92 78.384 168.375 77.4912 168.375 75.2832C168.44 74.0825 168.789 72.9143 169.391 71.8735C169.993 70.8326 170.832 69.9484 171.84 69.2928Z" fill="white"/>
<path d="M178.666 81.0624C178.666 77.4384 176.117 75.9648 172.978 77.7792L171.014 78.912C167.875 80.7264 165.326 85.152 165.326 88.7664V89.76C165.919 89.9494 166.538 90.0449 167.16 90.0432C168.844 89.9859 170.484 89.4895 171.917 88.6032C174.645 86.9225 176.954 84.6403 178.666 81.9312V81.0624Z" fill="white"/>
<path d="M165.159 122.27L178.675 114.466C179.251 114.134 179.717 114.403 179.717 115.066V119.419C179.697 119.78 179.593 120.131 179.412 120.444C179.231 120.757 178.978 121.022 178.675 121.219L165.159 129.024C164.583 129.355 164.117 129.086 164.117 128.424V124.07C164.137 123.709 164.241 123.358 164.422 123.046C164.603 122.733 164.855 122.467 165.159 122.27Z" fill="#1C6758"/>
<path d="M158.539 112.546L185.28 97.0991C185.967 96.7007 186.528 97.0223 186.528 97.8191V99.4368C186.505 99.8696 186.379 100.291 186.163 100.666C185.946 101.041 185.643 101.36 185.28 101.597L158.525 117.043C157.839 117.442 157.282 117.12 157.282 116.323V114.72C157.304 114.284 157.429 113.859 157.648 113.481C157.866 113.103 158.172 112.782 158.539 112.546Z" fill="#FAFAFA"/>
<path d="M161.669 101.366C162.034 101.155 162.317 101.122 162.518 101.27C162.72 101.419 162.821 101.75 162.821 102.259C162.831 102.724 162.727 103.183 162.518 103.598C162.33 103.973 162.034 104.284 161.669 104.491L160.949 104.909V106.459C160.947 106.513 160.934 106.565 160.91 106.613C160.894 106.656 160.863 106.693 160.824 106.718L160.459 106.93C160.447 106.939 160.432 106.944 160.416 106.944C160.4 106.944 160.385 106.939 160.373 106.93C160.347 106.897 160.335 106.856 160.339 106.814V102.326C160.339 102.273 160.35 102.221 160.373 102.173C160.391 102.13 160.421 102.093 160.459 102.067L161.669 101.366ZM160.949 104.04L161.645 103.637C161.813 103.542 161.955 103.407 162.058 103.243C162.167 103.05 162.22 102.831 162.211 102.61C162.211 102.35 162.158 102.202 162.058 102.158C161.986 102.141 161.912 102.14 161.841 102.156C161.769 102.172 161.702 102.204 161.645 102.25L160.949 102.653V104.04Z" fill="#FAFAFA"/>
<path d="M164.832 99.5376C164.88 99.5088 164.918 99.5088 164.942 99.5376C164.973 99.5806 164.994 99.6297 165.005 99.6816L166.114 103.435C166.114 103.435 166.114 103.464 166.114 103.478C166.113 103.532 166.1 103.584 166.075 103.632C166.058 103.675 166.028 103.712 165.989 103.738L165.662 103.925C165.605 103.958 165.562 103.963 165.538 103.925C165.514 103.901 165.498 103.871 165.49 103.838L165.293 103.181L163.853 104.006L163.661 104.89C163.647 104.937 163.63 104.984 163.608 105.029C163.584 105.087 163.54 105.135 163.483 105.163L163.157 105.35C163.145 105.361 163.129 105.366 163.114 105.366C163.098 105.366 163.083 105.361 163.07 105.35C163.045 105.319 163.033 105.28 163.037 105.24C163.034 105.222 163.034 105.205 163.037 105.187L164.141 100.157C164.154 100.083 164.175 100.01 164.203 99.9408C164.227 99.8903 164.265 99.8484 164.314 99.8208L164.832 99.5376ZM165.082 102.446L164.602 100.752L164.122 103.018L165.082 102.446Z" fill="#FAFAFA"/>
<path d="M167.794 97.7567C167.954 97.6554 168.137 97.5944 168.326 97.5791C168.46 97.5671 168.595 97.5973 168.71 97.6655C168.816 97.7339 168.898 97.8327 168.946 97.9487C168.998 98.0669 169.027 98.194 169.032 98.3231C169.035 98.3764 169.024 98.4296 168.998 98.4767C168.982 98.5202 168.951 98.5571 168.912 98.5823L168.595 98.7647C168.542 98.7935 168.504 98.7983 168.48 98.7647C168.45 98.7452 168.426 98.7188 168.408 98.6879C168.389 98.6447 168.361 98.6059 168.326 98.5737C168.292 98.5415 168.251 98.5167 168.206 98.5007C168.06 98.4798 167.912 98.5178 167.794 98.6063C167.716 98.6565 167.642 98.7127 167.573 98.7743C167.502 98.8399 167.439 98.9141 167.386 98.9951C167.335 99.0733 167.293 99.157 167.261 99.2447C167.233 99.3282 167.218 99.4158 167.218 99.5039C167.212 99.5847 167.227 99.6656 167.261 99.7391C167.276 99.7649 167.296 99.7867 167.322 99.8026C167.347 99.8185 167.375 99.828 167.405 99.8303C167.494 99.8457 167.585 99.8457 167.674 99.8303L168.091 99.7391C168.247 99.693 168.409 99.6735 168.571 99.6815C168.687 99.6812 168.8 99.7182 168.893 99.7871C168.981 99.861 169.044 99.9597 169.075 100.07C169.122 100.226 169.143 100.388 169.138 100.55C169.137 100.765 169.107 100.978 169.046 101.184C168.988 101.396 168.902 101.599 168.792 101.789C168.676 101.983 168.537 102.164 168.379 102.326C168.218 102.494 168.034 102.638 167.832 102.754C167.684 102.844 167.522 102.907 167.352 102.941C167.214 102.967 167.071 102.956 166.939 102.907C166.819 102.851 166.72 102.759 166.656 102.643C166.578 102.495 166.535 102.331 166.531 102.163C166.531 102.109 166.542 102.054 166.565 102.005C166.586 101.964 166.618 101.929 166.656 101.904L166.973 101.722C167.021 101.693 167.059 101.683 167.088 101.698C167.117 101.712 167.136 101.736 167.155 101.779C167.175 101.828 167.201 101.875 167.232 101.918C167.262 101.96 167.304 101.992 167.352 102.01C167.415 102.024 167.481 102.024 167.544 102.01C167.646 101.985 167.743 101.945 167.832 101.89C167.925 101.836 168.013 101.775 168.096 101.707C168.257 101.579 168.386 101.415 168.47 101.227C168.509 101.131 168.528 101.028 168.528 100.925C168.533 100.887 168.529 100.849 168.519 100.813C168.508 100.776 168.49 100.743 168.466 100.714C168.44 100.691 168.409 100.674 168.376 100.664C168.343 100.654 168.308 100.651 168.274 100.656C168.165 100.66 168.057 100.678 167.952 100.709C167.827 100.738 167.683 100.771 167.515 100.8C167.387 100.832 167.254 100.842 167.122 100.829C167.018 100.822 166.919 100.78 166.843 100.709C166.76 100.627 166.702 100.524 166.675 100.411C166.637 100.244 166.619 100.073 166.622 99.9023C166.622 99.691 166.653 99.4807 166.714 99.2783C166.771 99.07 166.855 98.87 166.963 98.6831C167.067 98.4976 167.193 98.3251 167.338 98.1695C167.469 98.011 167.623 97.872 167.794 97.7567Z" fill="#FAFAFA"/>
<path d="M170.947 95.9424C171.107 95.838 171.29 95.7752 171.48 95.76C171.614 95.7487 171.748 95.7788 171.864 95.8464C171.967 95.9166 172.047 96.015 172.094 96.1296C172.147 96.2478 172.176 96.3749 172.181 96.504C172.186 96.5575 172.175 96.6114 172.147 96.6576C172.13 96.7011 172.1 96.738 172.061 96.7632L171.744 96.9456C171.696 96.9744 171.658 96.984 171.629 96.9456C171.598 96.9264 171.575 96.8978 171.562 96.864C171.518 96.7798 171.444 96.7148 171.355 96.6816C171.284 96.6711 171.211 96.6751 171.141 96.6932C171.07 96.7113 171.005 96.7433 170.947 96.7872C170.867 96.8362 170.792 96.8924 170.722 96.9552C170.652 97.0209 170.591 97.0951 170.539 97.176C170.486 97.2531 170.444 97.3371 170.414 97.4256C170.385 97.5089 170.368 97.5964 170.366 97.6848C170.361 97.7656 170.376 97.8465 170.41 97.92C170.424 97.9458 170.445 97.9676 170.47 97.9835C170.495 97.9994 170.524 98.0089 170.554 98.0112C170.643 98.0268 170.733 98.0268 170.822 98.0112L171.24 97.92C171.396 97.8765 171.558 97.8571 171.72 97.8624C171.836 97.8614 171.949 97.8985 172.042 97.968C172.129 98.043 172.194 98.1411 172.229 98.2512C172.271 98.4076 172.291 98.5693 172.286 98.7312C172.286 98.9457 172.255 99.159 172.195 99.3648C172.137 99.5765 172.051 99.7798 171.941 99.9696C171.825 100.166 171.687 100.348 171.528 100.512C171.366 100.675 171.184 100.817 170.986 100.934C170.838 101.024 170.675 101.087 170.506 101.122C170.369 101.148 170.228 101.136 170.098 101.088C169.975 101.034 169.874 100.941 169.81 100.824C169.731 100.676 169.69 100.511 169.69 100.344C169.684 100.291 169.696 100.237 169.723 100.19C169.74 100.147 169.77 100.11 169.81 100.085L170.126 99.9024C170.174 99.8736 170.218 99.864 170.242 99.8784C170.258 99.886 170.273 99.8973 170.285 99.9114C170.296 99.9256 170.305 99.9422 170.309 99.96C170.331 100.008 170.356 100.055 170.386 100.099C170.417 100.141 170.461 100.173 170.51 100.19C170.574 100.205 170.639 100.205 170.702 100.19C170.804 100.166 170.902 100.126 170.99 100.07C171.081 100.016 171.168 99.9552 171.25 99.888C171.334 99.8222 171.408 99.7446 171.47 99.6576C171.533 99.5747 171.584 99.4844 171.624 99.3888C171.662 99.2927 171.682 99.19 171.682 99.0864C171.686 99.0488 171.683 99.0107 171.672 98.9744C171.661 98.9381 171.643 98.9044 171.619 98.8752C171.593 98.8524 171.563 98.8354 171.53 98.8254C171.496 98.8155 171.461 98.8128 171.427 98.8176C171.32 98.8242 171.214 98.8419 171.11 98.8704C170.986 98.8992 170.837 98.9328 170.674 98.9616C170.543 98.9938 170.409 99.0035 170.275 98.9904C170.171 98.985 170.072 98.9424 169.997 98.8704C169.915 98.7887 169.859 98.6855 169.834 98.5728C169.791 98.4084 169.772 98.2387 169.776 98.0688C169.778 97.8561 169.808 97.6445 169.867 97.44C169.927 97.2325 170.01 97.0327 170.117 96.8448C170.221 96.6581 170.348 96.4855 170.496 96.3312C170.625 96.179 170.778 96.0478 170.947 95.9424Z" fill="#FAFAFA"/>
<path d="M174.446 96.5424L174.058 98.8416C174.046 98.9107 174.027 98.9784 174 99.0432C173.981 99.0949 173.946 99.1389 173.899 99.168L173.534 99.3792C173.486 99.408 173.453 99.408 173.429 99.3792C173.397 99.3397 173.378 99.2909 173.376 99.24L172.8 95.184C172.8 95.184 172.8 95.1456 172.8 95.1312C172.801 95.0778 172.815 95.0254 172.838 94.9776C172.857 94.9349 172.887 94.8983 172.925 94.872L173.256 94.68C173.284 94.6688 173.315 94.6688 173.342 94.68C173.371 94.68 173.39 94.7184 173.4 94.7952L173.779 97.5264L174.11 95.4768C174.119 95.4257 174.134 95.3758 174.154 95.328C174.173 95.2673 174.214 95.2159 174.269 95.184L174.638 94.968C174.691 94.9392 174.73 94.944 174.754 94.968C174.774 94.9985 174.789 95.0327 174.797 95.0688L175.133 96.7344L175.512 93.5664C175.517 93.5041 175.535 93.4435 175.565 93.3888C175.587 93.3529 175.617 93.3219 175.651 93.2976L175.982 93.1056C175.995 93.0962 176.01 93.0912 176.026 93.0912C176.041 93.0912 176.056 93.0962 176.069 93.1056C176.083 93.1213 176.093 93.1396 176.1 93.1594C176.106 93.1791 176.109 93.2 176.107 93.2208C176.109 93.2399 176.109 93.2592 176.107 93.2784L175.531 97.9968C175.522 98.0658 175.504 98.1335 175.478 98.1984C175.457 98.2496 175.42 98.2931 175.373 98.3232L175.003 98.5344C174.96 98.5584 174.926 98.5584 174.902 98.5344C174.878 98.4903 174.859 98.4436 174.845 98.3952L174.446 96.5424Z" fill="#FAFAFA"/>
<path d="M176.693 94.5072C176.703 94.2411 176.736 93.9762 176.789 93.7152C176.844 93.4601 176.927 93.2121 177.038 92.976C177.144 92.7464 177.28 92.5318 177.442 92.3376C177.606 92.145 177.802 91.9825 178.022 91.8576C178.191 91.7429 178.389 91.678 178.594 91.6704C178.746 91.6721 178.892 91.7322 179.002 91.8384C179.118 91.9691 179.202 92.1253 179.246 92.2944C179.308 92.5149 179.342 92.7423 179.347 92.9712C179.347 93.0576 179.347 93.1536 179.347 93.2592C179.347 93.3648 179.347 93.4752 179.347 93.5904C179.347 93.7056 179.347 93.816 179.347 93.9216C179.347 94.0272 179.347 94.128 179.347 94.2192C179.337 94.4838 179.305 94.7471 179.251 95.0064C179.196 95.2607 179.114 95.5085 179.006 95.7456C178.897 95.9745 178.76 96.1889 178.598 96.384C178.434 96.5748 178.24 96.737 178.022 96.864C177.849 96.9779 177.649 97.0426 177.442 97.0512C177.367 97.0527 177.293 97.0391 177.223 97.011C177.154 96.9829 177.091 96.9411 177.038 96.888C176.913 96.7536 176.827 96.5877 176.789 96.408C176.732 96.1867 176.699 95.9597 176.693 95.7312C176.693 95.6448 176.693 95.5488 176.693 95.4432C176.693 95.3376 176.693 95.2272 176.693 95.112C176.693 94.9968 176.693 94.8912 176.693 94.7808C176.693 94.6704 176.688 94.5936 176.693 94.5072ZM178.738 93.36C178.748 93.2426 178.735 93.1242 178.699 93.012C178.662 92.8998 178.604 92.7961 178.526 92.7072C178.402 92.5968 178.229 92.6016 178.022 92.7072C177.798 92.8389 177.621 93.0368 177.514 93.2736C177.378 93.5534 177.305 93.8601 177.302 94.1712C177.302 94.3488 177.302 94.5456 177.302 94.7616C177.302 94.9776 177.302 95.1696 177.302 95.3424C177.292 95.4598 177.305 95.5782 177.341 95.6904C177.378 95.8026 177.436 95.9063 177.514 95.9952C177.638 96.1008 177.811 96.0912 178.022 95.9712C178.243 95.8386 178.418 95.643 178.526 95.4096C178.663 95.1315 178.735 94.8265 178.738 94.5168C178.738 94.3344 178.738 94.1376 178.738 93.9216C178.738 93.7056 178.742 93.5328 178.738 93.36Z" fill="#FAFAFA"/>
<path d="M181.44 89.9423C181.819 89.7263 182.102 89.6927 182.299 89.8511C182.416 89.9796 182.503 90.1324 182.553 90.2983C182.604 90.4643 182.617 90.6394 182.592 90.8111C182.596 91.1372 182.546 91.4616 182.443 91.7711C182.346 92.0595 182.194 92.3266 181.997 92.5583L182.621 93.9167C182.623 93.9391 182.623 93.9616 182.621 93.9839C182.621 94.0272 182.611 94.0699 182.592 94.1087C182.579 94.1436 182.555 94.1737 182.525 94.1951L182.141 94.4159C182.078 94.4495 182.035 94.4543 182.006 94.4159C181.981 94.3907 181.96 94.3616 181.944 94.3295L181.354 93.0479L180.754 93.3935V95.0159C180.754 95.069 180.743 95.1215 180.72 95.1695C180.7 95.2113 180.671 95.2475 180.634 95.2751L180.269 95.4863C180.257 95.4965 180.241 95.5021 180.226 95.5021C180.21 95.5021 180.195 95.4965 180.182 95.4863C180.169 95.4716 180.158 95.4542 180.152 95.4352C180.145 95.4162 180.142 95.396 180.144 95.3759V90.8879C180.145 90.8345 180.159 90.7821 180.182 90.7343C180.199 90.6909 180.23 90.6539 180.269 90.6287L181.44 89.9423ZM180.763 92.5247L181.44 92.1599C181.605 92.0676 181.747 91.9377 181.853 91.7807C181.964 91.5958 182.018 91.3818 182.006 91.1663C182.006 90.9071 181.954 90.7631 181.853 90.7343C181.707 90.7145 181.559 90.7523 181.44 90.8399L180.787 91.2143L180.763 92.5247Z" fill="#FAFAFA"/>
<path d="M184.656 88.0943C184.83 87.9806 185.03 87.9114 185.237 87.8927C185.387 87.8872 185.533 87.9406 185.645 88.0415C185.772 88.1752 185.86 88.3413 185.899 88.5215C185.964 88.7596 185.999 89.0046 186.005 89.2511C186.005 89.5871 186.005 89.9327 186.005 90.2831C185.995 90.5689 185.96 90.8532 185.899 91.1327C185.844 91.3924 185.761 91.6452 185.65 91.8863C185.543 92.1078 185.407 92.3143 185.246 92.5007C185.086 92.6916 184.895 92.8538 184.68 92.9807L183.542 93.5999C183.53 93.6101 183.515 93.6156 183.499 93.6156C183.483 93.6156 183.468 93.6101 183.456 93.5999C183.442 93.5854 183.431 93.568 183.425 93.5489C183.418 93.5299 183.416 93.5096 183.418 93.4895V89.0015C183.419 88.9481 183.432 88.8957 183.456 88.8479C183.473 88.8045 183.503 88.7675 183.542 88.7423L184.656 88.0943ZM185.395 89.5871C185.393 89.4571 185.374 89.328 185.338 89.2031C185.315 89.1086 185.267 89.0222 185.198 88.9535C185.168 88.9234 185.132 88.8998 185.093 88.8841C185.053 88.8684 185.011 88.861 184.968 88.8623C184.848 88.8704 184.732 88.9101 184.632 88.9775L184.027 89.3231V92.4527L184.656 92.0927C184.778 92.0219 184.886 91.931 184.978 91.8239C185.067 91.7186 185.143 91.6025 185.203 91.4783C185.263 91.3461 185.308 91.2076 185.338 91.0655C185.371 90.9173 185.39 90.7662 185.395 90.6143C185.41 90.2639 185.41 89.9231 185.395 89.5871Z" fill="#FAFAFA"/>
<path d="M118.742 18.4271C119.571 18.6115 120.369 18.9121 121.114 19.3199C121.826 19.7031 122.465 20.2102 123 20.8175C123.512 21.4017 123.892 22.0893 124.114 22.8335C124.34 23.6302 124.357 24.4718 124.162 25.2767C124.033 25.9149 123.78 26.5216 123.418 27.0623C123.087 27.5248 122.692 27.9384 122.246 28.2911C121.808 28.6312 121.341 28.9316 120.85 29.1887L119.467 29.9231C119.051 30.1403 118.655 30.3958 118.286 30.6863C117.953 30.9425 117.697 31.2865 117.547 31.6799C117.474 31.8597 117.353 32.0158 117.197 32.1311C117.123 32.1885 117.037 32.2283 116.946 32.2474C116.854 32.2665 116.759 32.2645 116.669 32.2415L114.634 31.7903C114.536 31.7698 114.443 31.7299 114.36 31.6731C114.278 31.6162 114.208 31.5435 114.154 31.4591C114.096 31.3807 114.058 31.2899 114.042 31.194C114.026 31.0981 114.033 30.9999 114.062 30.9071C114.226 30.2768 114.515 29.6859 114.912 29.1695C115.274 28.7128 115.694 28.3046 116.16 27.9551C116.615 27.6225 117.096 27.3286 117.6 27.0767C118.08 26.8319 118.56 26.5967 118.978 26.3615C119.366 26.1527 119.731 25.9033 120.067 25.6175C120.362 25.3708 120.566 25.0331 120.648 24.6575C120.724 24.3314 120.721 23.9917 120.637 23.6673C120.553 23.343 120.392 23.0437 120.168 22.7951C119.607 22.1823 118.856 21.7751 118.037 21.6383C116.52 21.3023 115.24 21.8127 114.197 23.1695C114.096 23.3176 113.969 23.4461 113.822 23.5487C113.657 23.6309 113.465 23.6447 113.29 23.5871L111.125 23.1071C110.97 23.0773 110.834 22.9876 110.746 22.8575C110.698 22.7881 110.667 22.7092 110.653 22.6264C110.638 22.5436 110.642 22.4587 110.664 22.3775C110.848 21.7106 111.191 21.0979 111.662 20.5919C112.195 20.0051 112.827 19.5175 113.53 19.1519C114.298 18.7499 115.126 18.4744 115.982 18.3359C116.9 18.1868 117.837 18.2177 118.742 18.4271ZM116.443 33.8735C116.634 33.9182 116.799 34.0357 116.904 34.2007C117.009 34.3658 117.045 34.5653 117.005 34.7567L116.486 37.1087C116.469 37.2072 116.431 37.3009 116.374 37.3836C116.318 37.4663 116.245 37.5362 116.16 37.5887C116.08 37.6441 115.989 37.6822 115.893 37.7003C115.797 37.7185 115.698 37.7165 115.603 37.6943L113.28 37.1615C113.181 37.1449 113.087 37.1071 113.004 37.0508C112.922 36.9944 112.852 36.9209 112.8 36.8351C112.746 36.7541 112.71 36.6629 112.692 36.5671C112.675 36.4714 112.677 36.3731 112.699 36.2783L113.222 33.9263C113.267 33.7357 113.384 33.5699 113.549 33.4642C113.714 33.3585 113.914 33.3211 114.106 33.3599L116.443 33.8735Z" fill="#1C6758"/>
<path d="M121.306 40.9439C121.884 40.8512 122.472 40.8399 123.053 40.9103C123.608 40.9763 124.147 41.1387 124.646 41.3903C125.122 41.6369 125.54 41.9803 125.875 42.3983C126.176 42.8074 126.388 43.2751 126.497 43.7711C126.607 44.2672 126.61 44.7806 126.509 45.2783C126.417 45.6609 126.27 46.028 126.072 46.3679C125.881 46.6984 125.659 47.0102 125.41 47.2991C125.165 47.5871 124.93 47.8607 124.714 48.1247C124.502 48.3706 124.314 48.6358 124.152 48.9167C124 49.1629 123.923 49.4482 123.931 49.7375C123.927 49.8727 123.889 50.0047 123.821 50.1215C123.786 50.1753 123.74 50.2211 123.687 50.2559C123.633 50.2906 123.572 50.3135 123.509 50.3231L122.069 50.5535C122.002 50.5657 121.933 50.5643 121.866 50.5495C121.799 50.5347 121.736 50.5066 121.68 50.4671C121.623 50.4314 121.576 50.3828 121.542 50.3252C121.508 50.2676 121.487 50.2027 121.483 50.1359C121.423 49.6892 121.456 49.2349 121.579 48.8015C121.692 48.4178 121.853 48.05 122.059 47.7071C122.261 47.378 122.492 47.0679 122.75 46.7807C123.005 46.4927 123.231 46.2239 123.451 45.9647C123.648 45.7332 123.819 45.4804 123.96 45.2111C124.085 44.9792 124.131 44.7129 124.09 44.4527C124.054 44.2237 123.963 44.0068 123.825 43.8204C123.687 43.6341 123.506 43.4838 123.298 43.3823C122.782 43.133 122.198 43.0621 121.637 43.1807C121.129 43.2549 120.657 43.4844 120.285 43.8376C119.913 44.1907 119.659 44.6504 119.559 45.1535C119.53 45.2745 119.482 45.3898 119.415 45.4943C119.329 45.5854 119.213 45.6418 119.088 45.6527L117.571 45.8975C117.465 45.9179 117.354 45.8955 117.264 45.8351C117.218 45.8033 117.179 45.7621 117.15 45.714C117.121 45.666 117.103 45.6124 117.096 45.5567C117.051 45.0804 117.125 44.6003 117.312 44.1599C117.502 43.6474 117.781 43.1728 118.138 42.7583C118.528 42.3044 118.988 41.9156 119.501 41.6063C120.054 41.2709 120.667 41.0459 121.306 40.9439ZM123.783 51.4319C123.849 51.4214 123.916 51.4241 123.981 51.4397C124.046 51.4554 124.108 51.4837 124.162 51.5231C124.218 51.5603 124.266 51.609 124.303 51.6661C124.339 51.7232 124.363 51.7873 124.373 51.8543L124.642 53.5007C124.663 53.6342 124.63 53.7706 124.551 53.8802C124.472 53.9899 124.353 54.0639 124.219 54.0863L122.611 54.3503C122.478 54.3709 122.342 54.3382 122.232 54.2591C122.176 54.2214 122.129 54.1725 122.094 54.1154C122.058 54.0584 122.035 53.9945 122.026 53.9279L121.757 52.2815C121.745 52.2154 121.747 52.1475 121.762 52.0822C121.778 52.0169 121.807 51.9556 121.848 51.9023C121.886 51.8466 121.935 51.7995 121.992 51.7639C122.049 51.7284 122.113 51.7052 122.179 51.6959L123.783 51.4319Z" fill="#1C6758"/>
<g opacity="0.2">
<path d="M121.306 40.9439C121.884 40.8512 122.472 40.8399 123.053 40.9103C123.608 40.9763 124.147 41.1387 124.646 41.3903C125.122 41.6369 125.54 41.9803 125.875 42.3983C126.176 42.8074 126.388 43.2751 126.497 43.7711C126.607 44.2672 126.61 44.7806 126.509 45.2783C126.417 45.6609 126.27 46.028 126.072 46.3679C125.881 46.6984 125.659 47.0102 125.41 47.2991C125.165 47.5871 124.93 47.8607 124.714 48.1247C124.502 48.3706 124.314 48.6358 124.152 48.9167C124 49.1629 123.923 49.4482 123.931 49.7375C123.927 49.8727 123.889 50.0047 123.821 50.1215C123.786 50.1753 123.74 50.2211 123.687 50.2559C123.633 50.2906 123.572 50.3135 123.509 50.3231L122.069 50.5535C122.002 50.5657 121.933 50.5643 121.866 50.5495C121.799 50.5347 121.736 50.5066 121.68 50.4671C121.623 50.4314 121.576 50.3828 121.542 50.3252C121.508 50.2676 121.487 50.2027 121.483 50.1359C121.423 49.6892 121.456 49.2349 121.579 48.8015C121.692 48.4178 121.853 48.05 122.059 47.7071C122.261 47.378 122.492 47.0679 122.75 46.7807C123.005 46.4927 123.231 46.2239 123.451 45.9647C123.648 45.7332 123.819 45.4804 123.96 45.2111C124.085 44.9792 124.131 44.7129 124.09 44.4527C124.054 44.2237 123.963 44.0068 123.825 43.8204C123.687 43.6341 123.506 43.4838 123.298 43.3823C122.782 43.133 122.198 43.0621 121.637 43.1807C121.129 43.2549 120.657 43.4844 120.285 43.8376C119.913 44.1907 119.659 44.6504 119.559 45.1535C119.53 45.2745 119.482 45.3898 119.415 45.4943C119.329 45.5854 119.213 45.6418 119.088 45.6527L117.571 45.8975C117.465 45.9179 117.354 45.8955 117.264 45.8351C117.218 45.8033 117.179 45.7621 117.15 45.714C117.121 45.666 117.103 45.6124 117.096 45.5567C117.051 45.0804 117.125 44.6003 117.312 44.1599C117.502 43.6474 117.781 43.1728 118.138 42.7583C118.528 42.3044 118.988 41.9156 119.501 41.6063C120.054 41.2709 120.667 41.0459 121.306 40.9439ZM123.783 51.4319C123.849 51.4214 123.916 51.4241 123.981 51.4397C124.046 51.4554 124.108 51.4837 124.162 51.5231C124.218 51.5603 124.266 51.609 124.303 51.6661C124.339 51.7232 124.363 51.7873 124.373 51.8543L124.642 53.5007C124.663 53.6342 124.63 53.7706 124.551 53.8802C124.472 53.9899 124.353 54.0639 124.219 54.0863L122.611 54.3503C122.478 54.3709 122.342 54.3382 122.232 54.2591C122.176 54.2214 122.129 54.1725 122.094 54.1154C122.058 54.0584 122.035 53.9945 122.026 53.9279L121.757 52.2815C121.745 52.2154 121.747 52.1475 121.762 52.0822C121.778 52.0169 121.807 51.9556 121.848 51.9023C121.886 51.8466 121.935 51.7995 121.992 51.7639C122.049 51.7284 122.113 51.7052 122.179 51.6959L123.783 51.4319Z" fill="black"/>
</g>
<path d="M134.88 43.5312C134.945 43.5767 135.001 43.635 135.043 43.7027C135.085 43.7704 135.113 43.846 135.125 43.9248C135.14 44.0029 135.139 44.0833 135.122 44.1609C135.104 44.2386 135.071 44.3118 135.024 44.376L133.882 45.984C133.836 46.0494 133.778 46.1049 133.71 46.147C133.642 46.1891 133.567 46.2169 133.488 46.2288C133.41 46.244 133.329 46.243 133.252 46.2256C133.174 46.2083 133.101 46.175 133.037 46.128L131.462 45.0096C131.397 44.9647 131.342 44.9064 131.3 44.8385C131.259 44.7707 131.232 44.6948 131.222 44.616C131.207 44.5379 131.208 44.4575 131.226 44.3798C131.243 44.3022 131.276 44.2289 131.323 44.1648L132.48 42.5568C132.574 42.4264 132.715 42.3382 132.873 42.3113C133.031 42.2843 133.193 42.3208 133.325 42.4128L134.88 43.5312ZM141.523 32.64C142.097 33.0423 142.608 33.5276 143.04 34.08C143.461 34.5938 143.786 35.1791 144 35.808C144.199 36.4106 144.266 37.0491 144.197 37.68C144.115 38.3527 143.861 38.9928 143.458 39.5376C143.158 39.978 142.773 40.3535 142.325 40.6416C141.93 40.8888 141.502 41.0764 141.053 41.1984C140.615 41.3127 140.169 41.3898 139.718 41.4288L138.442 41.544C138.059 41.5746 137.68 41.6404 137.309 41.7408C136.967 41.8184 136.654 41.9915 136.406 42.24C136.295 42.3535 136.153 42.4333 135.998 42.4704C135.925 42.4915 135.847 42.4947 135.772 42.4797C135.697 42.4646 135.626 42.4318 135.566 42.384L134.174 41.3952C134.041 41.3002 133.95 41.1574 133.92 40.9968C133.902 40.9189 133.903 40.8379 133.922 40.7604C133.941 40.6828 133.978 40.6109 134.03 40.5504C134.356 40.1284 134.762 39.7759 135.226 39.5136C135.643 39.2856 136.088 39.113 136.55 39C136.996 38.8918 137.451 38.8227 137.909 38.7936C138.36 38.7648 138.782 38.7312 139.176 38.6928C139.536 38.661 139.892 38.5901 140.237 38.4816C140.538 38.3811 140.798 38.1836 140.976 37.92C141.136 37.6973 141.241 37.4392 141.28 37.1676C141.319 36.896 141.292 36.6189 141.202 36.36C140.975 35.7202 140.54 35.1746 139.968 34.8096C138.931 34.0704 137.8 34.0464 136.574 34.7376C136.451 34.8161 136.314 34.8714 136.171 34.9008C136.097 34.906 136.022 34.8963 135.951 34.8724C135.88 34.8485 135.815 34.8109 135.758 34.7616L134.28 33.7104C134.226 33.6748 134.181 33.6289 134.145 33.5753C134.11 33.5217 134.085 33.4615 134.074 33.3984C134.062 33.333 134.064 33.2661 134.08 33.2016C134.096 33.1372 134.125 33.0767 134.165 33.024C134.514 32.577 134.967 32.2227 135.485 31.992C136.073 31.7254 136.703 31.563 137.347 31.512C138.056 31.4528 138.769 31.5095 139.459 31.68C140.204 31.8595 140.906 32.1859 141.523 32.64Z" fill="#1C6758"/>
<g opacity="0.6">
<path d="M134.88 43.5312C134.945 43.5767 135.001 43.635 135.043 43.7027C135.085 43.7704 135.113 43.846 135.125 43.9248C135.14 44.0029 135.139 44.0833 135.122 44.1609C135.104 44.2386 135.071 44.3118 135.024 44.376L133.882 45.984C133.836 46.0494 133.778 46.1049 133.71 46.147C133.642 46.1891 133.567 46.2169 133.488 46.2288C133.41 46.244 133.329 46.243 133.252 46.2256C133.174 46.2083 133.101 46.175 133.037 46.128L131.462 45.0096C131.397 44.9647 131.342 44.9064 131.3 44.8385C131.259 44.7707 131.232 44.6948 131.222 44.616C131.207 44.5379 131.208 44.4575 131.226 44.3798C131.243 44.3022 131.276 44.2289 131.323 44.1648L132.48 42.5568C132.574 42.4264 132.715 42.3382 132.873 42.3113C133.031 42.2843 133.193 42.3208 133.325 42.4128L134.88 43.5312ZM141.523 32.64C142.097 33.0423 142.608 33.5276 143.04 34.08C143.461 34.5938 143.786 35.1791 144 35.808C144.199 36.4106 144.266 37.0491 144.197 37.68C144.115 38.3527 143.861 38.9928 143.458 39.5376C143.158 39.978 142.773 40.3535 142.325 40.6416C141.93 40.8888 141.502 41.0764 141.053 41.1984C140.615 41.3127 140.169 41.3898 139.718 41.4288L138.442 41.544C138.059 41.5746 137.68 41.6404 137.309 41.7408C136.967 41.8184 136.654 41.9915 136.406 42.24C136.295 42.3535 136.153 42.4333 135.998 42.4704C135.925 42.4915 135.847 42.4947 135.772 42.4797C135.697 42.4646 135.626 42.4318 135.566 42.384L134.174 41.3952C134.041 41.3002 133.95 41.1574 133.92 40.9968C133.902 40.9189 133.903 40.8379 133.922 40.7604C133.941 40.6828 133.978 40.6109 134.03 40.5504C134.356 40.1284 134.762 39.7759 135.226 39.5136C135.643 39.2856 136.088 39.113 136.55 39C136.996 38.8918 137.451 38.8227 137.909 38.7936C138.36 38.7648 138.782 38.7312 139.176 38.6928C139.536 38.661 139.892 38.5901 140.237 38.4816C140.538 38.3811 140.798 38.1836 140.976 37.92C141.136 37.6973 141.241 37.4392 141.28 37.1676C141.319 36.896 141.292 36.6189 141.202 36.36C140.975 35.7202 140.54 35.1746 139.968 34.8096C138.931 34.0704 137.8 34.0464 136.574 34.7376C136.451 34.8161 136.314 34.8714 136.171 34.9008C136.097 34.906 136.022 34.8963 135.951 34.8724C135.88 34.8485 135.815 34.8109 135.758 34.7616L134.28 33.7104C134.226 33.6748 134.181 33.6289 134.145 33.5753C134.11 33.5217 134.085 33.4615 134.074 33.3984C134.062 33.333 134.064 33.2661 134.08 33.2016C134.096 33.1372 134.125 33.0767 134.165 33.024C134.514 32.577 134.967 32.2227 135.485 31.992C136.073 31.7254 136.703 31.563 137.347 31.512C138.056 31.4528 138.769 31.5095 139.459 31.68C140.204 31.8595 140.906 32.1859 141.523 32.64Z" fill="white"/>
</g>
<path d="M99.1342 86.0207H82.0798V44.7023C82.0798 41.1136 83.5054 37.6719 86.043 35.1343C88.5806 32.5967 92.0223 31.1711 95.611 31.1711H97.1854C100.774 31.1711 104.216 32.5967 106.753 35.1343C109.291 37.6719 110.717 41.1136 110.717 44.7023V74.4623C110.71 77.53 109.487 80.4699 107.316 82.6368C105.144 84.8038 102.202 86.0207 99.1342 86.0207Z" fill="#263238"/>
<path d="M80.4191 185.491C80.1174 187.203 79.9569 188.937 79.9391 190.675C79.8767 193.824 79.3007 194.942 79.2239 197.525C79.1327 200.477 79.6463 201.581 80.8415 203.242C82.0367 204.902 85.1615 206.405 86.5151 203.602C87.8687 200.798 87.6719 198.96 87.2447 196.066C86.8079 193.07 86.7647 191.414 86.4959 189.134C86.2751 187.123 86.0159 185.592 86.0159 185.592L80.4191 185.491Z" fill="#263238"/>
<path d="M89.3568 164.578L78.9888 164.39C79.1424 171.312 80.2416 178.997 80.4288 185.51C80.4672 186.734 80.4 195.01 80.8608 197.51C81.5568 201.293 86.04 200.779 86.28 198.518C86.52 196.258 85.992 186.595 86.0064 185.597C85.9632 181.43 87.9264 174.398 88.9392 166.92C88.9824 166.56 89.3088 164.938 89.3568 164.578Z" fill="#FFA8A7"/>
<path d="M102.677 180.106C102.677 180.106 102.269 179.885 102.197 180.322C102.096 180.84 101.942 181.91 101.717 182.765C101.419 183.95 101.17 185.904 101.347 186.874C101.525 187.843 103.781 189.082 105.245 189.533C107.049 190.09 108.695 191.069 110.045 192.389C111.485 193.752 114.619 195.038 116.765 195.024C119.285 195.024 121.042 194.184 121.872 192.835C122.702 191.486 121.114 191.323 118.234 189.475L116.002 188.035C111.437 185.054 109.762 183.461 108.48 180.48L102.677 180.106Z" fill="#263238"/>
<path d="M108.518 178.258C108.442 176.117 109.92 157.92 109.92 157.92L100.075 162.408C102.182 174.994 102.634 177.965 102.667 180.024C102.624 180.196 102.606 180.374 102.614 180.552C102.614 182.995 105.384 184.315 107.534 185.947C109.362 187.379 111.31 188.651 113.357 189.749C114.922 190.531 118.099 190.603 118.493 189.6C115.872 187.598 112.061 184.603 109.978 182.318C108.96 181.243 108.595 180.403 108.518 178.258Z" fill="#FFA8A7"/>
<path d="M83.2366 97.0367C79.4542 105.336 79.4542 111.758 80.083 122.352C80.6398 132.072 81.5662 140.64 81.5662 140.64C81.4222 142.363 79.027 145.728 78.715 153.35C78.427 160.474 79.195 169.531 79.195 169.531C79.195 169.531 84.5758 172.512 88.555 169.502C88.555 169.502 92.395 151.171 93.5182 142.253C94.4782 134.472 96.2062 124.531 96.2062 124.531L99.8398 142.2C99.0556 144.707 98.4871 147.276 98.1406 149.88C97.6318 155.126 100.569 165.427 100.569 165.427C100.569 165.427 106.128 167.083 109.521 164.074C109.521 164.074 110.789 147.326 111.264 141.01C111.897 132.547 110.563 109.642 109.521 97.5119L83.2366 97.0367Z" fill="#455A64"/>
<path d="M96.2158 124.517L97.7086 111.202C97.7086 111.202 104.4 110.309 107.433 107.458C106.565 108.816 105.408 109.967 104.046 110.828C102.683 111.689 101.147 112.239 99.547 112.44L97.387 124.829L99.8398 142.2L96.2158 124.517Z" fill="#263238"/>
<path d="M123.312 93.7632C123.588 91.3334 123.71 88.8884 123.677 86.4432C123.528 84.3312 123.149 83.9856 120.197 80.2464C116.213 75.192 112.809 70.6464 109.209 66.1296C106.637 62.904 103.929 62.4096 101.299 62.5536C99.4559 62.6544 103.056 71.52 104.865 76.7664L115.2 87.8928C115.52 88.3319 115.667 88.8737 115.613 89.4144L114.989 98.88L118.085 103.027C118.085 103.027 122.774 98.9856 123.312 93.7632Z" fill="#FFA8A7"/>
<path d="M91.3342 62.8415C89.3326 62.9807 85.6942 63.3215 85.6942 63.3215C83.5966 64.4927 83.0638 65.4575 82.675 68.2415C82.507 69.4319 83.4766 72.5951 84.307 77.0928L85.8814 85.4303L85.7086 89.568C84.8926 92.0928 83.0446 95.2272 81.4126 99.8496C89.4286 104.323 96.1486 104.491 102.245 103.69C106.891 103.09 109.353 101.966 110.174 100.853C110.001 96.2879 109.694 93.4655 109.598 88.6943C109.565 86.6927 109.685 84.6671 109.766 82.3631C112.881 79.7999 112.92 75.5375 111.206 72.7631C107.256 66.3647 103.411 62.3376 100.867 62.544L91.3342 62.8415Z" fill="#1C6758"/>
<path opacity="0.6" d="M91.3342 62.8415C89.3326 62.9807 85.6942 63.3215 85.6942 63.3215C83.5966 64.4927 83.0638 65.4575 82.675 68.2415C82.507 69.4319 83.4766 72.5951 84.307 77.0928L85.8814 85.4303L85.7086 89.568C84.8926 92.0928 83.0446 95.2271 81.4126 99.8496C89.4286 104.323 96.1486 104.491 102.245 103.69C106.891 103.09 109.353 101.966 110.174 100.853C110.001 96.2879 109.694 93.4655 109.598 88.6943C109.565 86.6927 109.685 84.6671 109.766 82.3631C112.881 79.7999 112.92 75.5375 111.206 72.7631C107.256 66.3647 103.411 62.3376 100.867 62.544L91.3342 62.8415Z" fill="white"/>
<path opacity="0.1" d="M103.56 82.4255C103.56 82.4255 99.9023 85.2671 95.7215 83.7839C94.5475 83.414 93.4888 82.7473 92.6479 81.8484C91.807 80.9495 91.2124 79.8488 90.9215 78.6527C90.9215 78.6527 90.4799 83.4287 95.7455 85.0559C100.848 86.6255 103.56 82.4255 103.56 82.4255Z" fill="black"/>
<path d="M108.523 49.7328C108.365 56.664 106.123 58.3728 104.99 58.8528C103.858 59.3328 101.688 59.0448 99.576 58.6944V62.88C99.576 62.88 102.014 65.4335 101.832 67.3391C101.65 69.2447 97.992 69.4608 95.2656 67.5936C93.7612 66.5602 92.4006 65.3319 91.2192 63.9408C90.9924 63.6724 90.8682 63.3322 90.8688 62.9808V53.1888C90.8688 53.1888 89.712 54.4128 87.6672 53.0112C87.226 52.7296 86.8482 52.3593 86.5579 51.9238C86.2675 51.4883 86.0709 50.9972 85.9806 50.4817C85.8903 49.9661 85.9083 49.4374 86.0334 48.9292C86.1585 48.421 86.3879 47.9443 86.7072 47.5296C87.6 46.4784 89.8656 46.4064 90.9504 48.0096C91.5648 49.2048 91.6464 50.4096 92.3328 49.9296C94.1568 48.6144 93.1776 45.6096 95.3808 44.1696C96.1038 43.7922 96.8548 43.4712 97.6272 43.2096C101.558 41.8512 104.966 40.7088 105.787 38.0208C107.333 38.904 108.715 41.5584 108.523 49.7328Z" fill="#FFA8A7"/>
<path d="M100.771 55.9247C101.275 55.9247 101.683 55.5164 101.683 55.0127C101.683 54.509 101.275 54.1007 100.771 54.1007C100.267 54.1007 99.8591 54.509 99.8591 55.0127C99.8591 55.5164 100.267 55.9247 100.771 55.9247Z" fill="#B16668"/>
<path d="M100.166 48.6815C100.166 48.8693 100.111 49.0529 100.007 49.2096C99.9038 49.3662 99.7566 49.4891 99.584 49.563C99.4113 49.6368 99.2208 49.6584 99.036 49.6251C98.8512 49.5918 98.6802 49.505 98.5443 49.3755C98.4083 49.246 98.3133 49.0795 98.271 48.8965C98.2287 48.7136 98.241 48.5222 98.3064 48.3462C98.3717 48.1702 98.4873 48.0172 98.6387 47.9061C98.7901 47.7951 98.9708 47.7309 99.1583 47.7215C99.2884 47.715 99.4184 47.735 99.5405 47.7804C99.6625 47.8257 99.7741 47.8954 99.8684 47.9852C99.9627 48.075 100.038 48.183 100.089 48.3027C100.14 48.4224 100.166 48.5513 100.166 48.6815Z" fill="#263238"/>
<path d="M107.438 48.7775C107.448 48.895 107.434 49.0132 107.398 49.1253C107.362 49.2374 107.304 49.3412 107.227 49.4305C107.15 49.5199 107.056 49.593 106.951 49.6457C106.845 49.6984 106.73 49.7296 106.613 49.7375C106.494 49.7485 106.374 49.7341 106.262 49.6952C106.149 49.6564 106.046 49.5941 105.959 49.5124C105.873 49.4307 105.804 49.3314 105.759 49.2213C105.713 49.1111 105.692 48.9926 105.696 48.8735C105.684 48.7552 105.695 48.6356 105.731 48.5221C105.766 48.4085 105.825 48.3034 105.902 48.2132C105.98 48.123 106.075 48.0495 106.182 47.9974C106.289 47.9452 106.405 47.9155 106.524 47.9099C106.643 47.9043 106.761 47.9231 106.873 47.965C106.984 48.007 107.086 48.0712 107.171 48.1538C107.257 48.2364 107.325 48.3355 107.371 48.4453C107.417 48.555 107.44 48.673 107.438 48.7919V48.7775Z" fill="#263238"/>
<path d="M98.9327 51.1487C98.1047 51.1487 97.3107 50.8201 96.7248 50.2352C96.1389 49.6502 95.8091 48.8566 95.8079 48.0287C95.8079 45.9071 97.9967 45.9071 98.9327 45.9071C99.8687 45.9071 102.053 45.9071 102.053 48.0287C102.051 48.8558 101.722 49.6486 101.137 50.2335C100.553 50.8183 99.7597 51.1474 98.9327 51.1487ZM98.9327 46.3967C97.0127 46.3967 96.3023 46.8767 96.3023 48.0287C96.3023 48.7289 96.5804 49.4004 97.0755 49.8955C97.5706 50.3906 98.2421 50.6687 98.9423 50.6687C99.6424 50.6687 100.314 50.3906 100.809 49.8955C101.304 49.4004 101.582 48.7289 101.582 48.0287C101.563 46.8527 100.824 46.3967 98.9327 46.3967Z" fill="#455A64"/>
<path d="M106.857 51.1487C106.03 51.1487 105.235 50.8201 104.65 50.2352C104.064 49.6502 103.734 48.8566 103.733 48.0287C103.733 45.9071 105.921 45.9071 106.857 45.9071C107.793 45.9071 109.977 45.9071 109.977 48.0287C109.976 48.8558 109.647 49.6486 109.062 50.2335C108.477 50.8183 107.685 51.1474 106.857 51.1487ZM106.857 46.3967C104.966 46.3967 104.227 46.8767 104.227 48.0287C104.227 48.7289 104.505 49.4004 105 49.8955C105.495 50.3906 106.167 50.6687 106.867 50.6687C107.567 50.6687 108.239 50.3906 108.734 49.8955C109.229 49.4004 109.507 48.7289 109.507 48.0287C109.488 46.8527 108.749 46.3967 106.857 46.3967Z" fill="#455A64"/>
<path d="M102.538 47.0208L102.691 52.8528L105.758 51.9024L102.538 47.0208Z" fill="#F28F8F"/>
<path d="M99.5711 58.7088C97.3439 58.416 92.7599 57.1008 92.0447 55.2864C92.3325 56.2033 92.8936 57.0105 93.6527 57.6C95.0207 58.776 99.5711 60.096 99.5711 60.096V58.7088Z" fill="#F28F8F"/>
<path d="M99.6815 44.1887L97.6463 45.4319C97.4859 45.1525 97.4393 44.8221 97.5162 44.5092C97.593 44.1964 97.7875 43.9252 98.0591 43.7519C98.1934 43.6705 98.3428 43.617 98.4982 43.5949C98.6537 43.5728 98.8121 43.5825 98.9637 43.6233C99.1154 43.6641 99.2572 43.7353 99.3805 43.8325C99.5039 43.9297 99.6063 44.0509 99.6815 44.1887Z" fill="#263238"/>
<path d="M107.961 45.5712L105.696 44.7792C105.74 44.629 105.814 44.4894 105.914 44.369C106.013 44.2485 106.137 44.1497 106.276 44.0787C106.415 44.0077 106.568 43.9659 106.724 43.9559C106.88 43.946 107.037 43.968 107.184 44.0208C107.488 44.13 107.738 44.3519 107.883 44.6405C108.027 44.9291 108.056 45.2624 107.961 45.5712Z" fill="#263238"/>
<path d="M101.808 48.2784C101.775 48.2784 101.743 48.2719 101.713 48.2593C101.683 48.2467 101.656 48.2283 101.633 48.205C101.61 48.1818 101.592 48.1542 101.58 48.124C101.568 48.0937 101.562 48.0614 101.563 48.0288C101.563 47.6304 102.35 47.3712 103.061 47.3712C103.771 47.3712 104.227 47.6304 104.227 48.0288C104.212 48.081 104.181 48.1269 104.137 48.1595C104.094 48.1922 104.041 48.2099 103.987 48.2099C103.933 48.2099 103.88 48.1922 103.837 48.1595C103.793 48.1269 103.762 48.081 103.747 48.0288C103.747 47.9808 103.502 47.8608 103.075 47.8608C102.731 47.8535 102.389 47.9122 102.067 48.0336C102.067 48.067 102.06 48.1001 102.047 48.1307C102.034 48.1614 102.015 48.1891 101.99 48.212C101.966 48.2349 101.937 48.2527 101.906 48.2641C101.875 48.2755 101.841 48.2804 101.808 48.2784Z" fill="#455A64"/>
<path d="M96.0622 48.0672H96.0334L90.547 47.5872C90.2907 47.3331 89.9853 47.1338 89.6494 47.0016L96.091 47.5968C96.1556 47.6052 96.2143 47.6385 96.2547 47.6896C96.295 47.7408 96.3138 47.8056 96.307 47.8704C96.2958 47.9267 96.2651 47.9773 96.2203 48.0132C96.1756 48.0492 96.1196 48.0683 96.0622 48.0672Z" fill="#455A64"/>
<path d="M73.5359 53.7888C75.3311 51.3888 76.5551 49.5792 78.1919 47.5488C79.1231 46.3824 79.7183 45.5472 80.5919 44.352C81.2063 43.5264 81.5519 42.8304 82.2527 42.576C83.0098 42.2657 83.6922 41.7977 84.2543 41.2032C84.5998 40.8209 84.9205 40.4169 85.2143 39.9936C86.2431 38.6088 87.4652 37.3787 88.8431 36.3408C90.2831 35.256 91.8911 34.4208 93.3743 33.3888C94.2575 32.7696 95.2031 31.7424 94.1279 30.7824C93.7981 30.5046 93.4035 30.3148 92.9807 30.2304C90.3647 29.664 88.0895 30.5616 85.5311 31.2144C84.4198 31.4917 83.333 31.8594 82.2815 32.3136C81.7643 32.5181 81.2793 32.7962 80.8415 33.1392C80.2294 33.7563 79.7277 34.4739 79.3583 35.2608C78.2399 37.2576 75.8399 39.0432 74.1599 40.6224C72.1967 42.4704 70.4399 44.1648 68.1983 46.2C66.1823 48.0384 64.2095 49.728 62.3615 51.7344C60.8303 53.3904 61.4015 54.6864 61.6031 55.1376C62.8511 57.7008 64.2479 58.6224 65.9231 60.2112C68.8031 62.9616 78.7631 70.8768 82.0607 73.4928C82.7692 74.0493 83.3256 74.7757 83.6783 75.6048L84.3119 77.0688C88.0751 77.76 90.5855 72.1104 87.4703 65.3088C86.9544 64.2089 86.1664 63.2589 85.1807 62.5488C81.2447 59.6832 73.5359 53.7888 73.5359 53.7888Z" fill="#FFA8A7"/>
<path d="M73.5359 53.7888C72.3381 55.2623 70.7419 56.3603 68.9375 56.952C68.9375 56.952 71.3375 57.5664 74.6255 54.6144L73.5359 53.7888Z" fill="#F28F8F"/>
<path d="M122.333 88.7567L121.718 88.2287C121.626 88.1683 121.522 88.1302 121.413 88.1177C121.303 88.1052 121.193 88.1186 121.09 88.1567L114.422 89.9711C114.086 90.0831 113.779 90.2663 113.52 90.5082C113.262 90.7501 113.059 91.045 112.925 91.3727L108.125 105.211C108.067 105.324 108.044 105.451 108.06 105.577C108.075 105.703 108.128 105.821 108.211 105.917L108.845 106.464C108.937 106.528 109.043 106.568 109.154 106.581C109.266 106.594 109.378 106.581 109.483 106.541L116.16 104.726C116.496 104.614 116.803 104.431 117.062 104.189C117.32 103.947 117.524 103.652 117.658 103.325C118.618 100.603 121.498 92.2079 122.458 89.4863C122.573 89.1455 122.515 88.8863 122.333 88.7567Z" fill="#455A64"/>
<path d="M108.754 105.744L113.554 91.9056C113.687 91.5781 113.89 91.2835 114.149 91.0423C114.407 90.8011 114.715 90.6191 115.051 90.5088L121.714 88.6944C122.333 88.5264 122.674 88.8816 122.453 89.4864C121.493 92.208 118.613 100.603 117.653 103.325C117.519 103.652 117.316 103.947 117.057 104.189C116.799 104.431 116.491 104.614 116.155 104.726L109.493 106.56C108.878 106.704 108.547 106.349 108.754 105.744Z" fill="#1C6758"/>
<path d="M114.326 90.8928C113.98 91.1553 113.711 91.507 113.549 91.9104L108.749 105.744C108.694 105.854 108.671 105.977 108.683 106.099C108.695 106.222 108.741 106.338 108.816 106.435L108.221 105.926C108.135 105.832 108.081 105.714 108.065 105.588C108.048 105.462 108.071 105.334 108.13 105.221L112.93 91.3824C113.081 91.0061 113.328 90.6755 113.645 90.4224L114.326 90.8928Z" fill="#37474F"/>
<path d="M120.504 95.064C120.024 96.4704 118.358 97.4112 115.603 98.064C112.848 98.7168 111.326 101.64 111.763 102.528C112.2 103.416 116.654 104.246 118.435 103.992C120.216 103.738 122.001 101.165 122.544 100.368C123.086 99.5712 123.71 94.0128 123.139 93.2496C122.568 92.4864 121.363 92.6064 121.363 92.6064L120.504 95.064Z" fill="#F28F8F"/>
</svg>
