<svg width="32" height="33" viewBox="0 0 32 33" fill="none" xmlns="http://www.w3.org/2000/svg">
<path d="M0 8.5C0 4.08172 3.58172 0.5 8 0.5H24C28.4183 0.5 32 4.08172 32 8.5V24.5C32 28.9183 28.4183 32.5 24 32.5H8C3.58172 32.5 0 28.9183 0 24.5V8.5Z" fill="#1C6758"/>
<path fill-rule="evenodd" clip-rule="evenodd" d="M12.838 11.0235C14.084 11.0235 15.099 12.0385 15.099 13.2845C15.099 14.5305 14.084 15.5445 12.838 15.5445C11.592 15.5445 10.577 14.5305 10.577 13.2845C10.577 12.0385 11.592 11.0235 12.838 11.0235ZM10.476 19.1265C11.661 18.5705 12.619 18.9145 13.546 19.2485C14.245 19.5005 14.969 19.7605 15.97 19.7605C16.748 19.7605 17.207 19.0735 17.87 17.9395C18.53 16.8125 19.351 15.4095 21.009 15.4095C23.313 15.4095 24.741 16.8625 25.709 17.9335C25.734 17.4755 25.75 17.0015 25.75 16.5005C25.75 9.30149 23.198 6.75049 16 6.75049C8.802 6.75049 6.25 9.30149 6.25 16.5005C6.25 19.1855 6.606 21.2235 7.426 22.7245C7.942 21.7075 9.064 19.7895 10.476 19.1265Z" fill="#EDE869"/>
<path fill-rule="evenodd" clip-rule="evenodd" d="M25.2315 19.6319C25.0845 19.4809 24.9285 19.3079 24.7615 19.1209C23.8775 18.1359 22.7765 16.9089 21.0085 16.9089C20.2645 16.9089 19.8155 17.5849 19.1655 18.6969C18.4965 19.8399 17.6655 21.2609 15.9695 21.2609C14.7065 21.2609 13.7815 20.9279 13.0375 20.6589C12.1615 20.3429 11.7095 20.2029 11.1145 20.4839C9.9825 21.0159 8.8465 23.1619 8.5045 23.9439C8.4845 23.9919 8.4535 24.0309 8.4245 24.0729C9.9615 25.6119 12.3995 26.2499 16.0005 26.2499C21.9595 26.2499 24.7275 24.4919 25.5065 19.8059C25.4055 19.7679 25.3115 19.7139 25.2315 19.6319Z" fill="#EDE869"/>
</svg>
