<svg width="72" height="68" viewBox="0 0 72 68" fill="none" xmlns="http://www.w3.org/2000/svg">
<path d="M43.3129 54.8167C63.1446 54.8167 79.2213 38.74 79.2213 18.9084C79.2213 -0.923277 63.1446 -17 43.3129 -17C23.4813 -17 7.40454 -0.923277 7.40454 18.9084C7.40454 38.74 23.4813 54.8167 43.3129 54.8167Z" fill="#EBE869"/>
<path d="M27.605 4.44284C29.4613 4.44284 30.9661 2.93801 30.9661 1.08171C30.9661 -0.774591 29.4613 -2.27942 27.605 -2.27942C25.7487 -2.27942 24.2439 -0.774591 24.2439 1.08171C24.2439 2.93801 25.7487 4.44284 27.605 4.44284Z" fill="#BFB942"/>
<path d="M61.9757 14.6337C62.994 14.6337 63.8194 13.8083 63.8194 12.7901C63.8194 11.7718 62.994 10.9464 61.9757 10.9464C60.9575 10.9464 60.1321 11.7718 60.1321 12.7901C60.1321 13.8083 60.9575 14.6337 61.9757 14.6337Z" fill="#BFB942"/>
<path d="M52.1831 21.172C54.0407 16.504 51.7625 11.2139 47.0945 9.35632C42.4265 7.4987 37.1364 9.77695 35.2788 14.4449C33.4212 19.1129 35.6994 24.403 40.3674 26.2606C45.0354 28.1182 50.3255 25.84 52.1831 21.172Z" fill="#E9B522"/>
<path d="M48.0343 27.8013C42.524 30.1744 36.1104 27.6222 33.7373 22.1119C31.3641 16.6015 33.9166 10.1885 39.427 7.81535C44.9373 5.44224 51.3509 7.99451 53.7237 13.5043C56.0966 19.0141 53.5446 25.4282 48.0343 27.8013ZM40.1325 9.45366C35.5258 11.4376 33.3916 16.7996 35.3758 21.4068C37.36 26.014 42.7222 28.1475 47.3289 26.1635C51.9356 24.1796 54.0696 18.8171 52.0857 14.2104C50.1017 9.60368 44.7392 7.4697 40.1325 9.45366Z" fill="#F7DE61"/>
<path d="M47.9738 20.3106C47.7218 20.9283 47.2513 21.4499 46.5627 21.8748L47.1177 23.1633L45.9339 23.6731L45.3889 22.4077C44.8536 22.5925 44.3286 22.6992 43.8141 22.7282C43.2992 22.7575 42.8153 22.7045 42.3625 22.5692L42.4033 21.2582C43.303 21.4945 44.1552 21.4715 44.9603 21.189L43.9206 18.7749C43.3454 18.8669 42.8458 18.9098 42.4217 18.9047C41.9977 18.8996 41.5976 18.7914 41.2232 18.5814C40.8482 18.3715 40.5525 18.0147 40.3361 17.512C40.156 17.094 40.0963 16.6682 40.157 16.2339C40.2177 15.7996 40.3866 15.3876 40.6636 14.9974C40.9407 14.6078 41.3096 14.2766 41.77 14.0046L41.2151 12.7161L42.3988 12.2063L42.9486 13.4828C43.4204 13.3438 43.889 13.2703 44.3536 13.2633C44.8179 13.2558 45.2392 13.318 45.6167 13.4483L45.5759 14.7593C44.8113 14.5384 44.0798 14.5231 43.3822 14.7131L44.4669 17.2319C45.0419 17.1405 45.5321 17.0964 45.9378 17.1005C46.3431 17.1048 46.7268 17.2081 47.0893 17.4096C47.4513 17.6114 47.7376 17.9562 47.9474 18.4434C48.2174 19.0703 48.2264 19.6927 47.9741 20.3099L47.9738 20.3106ZM42.359 17.3216C42.6161 17.4082 42.9401 17.4362 43.3307 17.4052L42.366 15.165C42.0632 15.3779 41.8606 15.6262 41.7577 15.9088C41.6545 16.192 41.6684 16.4837 41.7986 16.7859C41.9153 17.057 42.1022 17.2356 42.3595 17.3214L42.359 17.3216ZM46.5321 19.9827C46.6204 19.7201 46.6001 19.4371 46.4702 19.1354C46.367 18.8958 46.1985 18.7391 45.9647 18.6651C45.731 18.5917 45.4301 18.5745 45.062 18.6136L45.9569 20.6915C46.2516 20.4819 46.4433 20.2455 46.5321 19.9827Z" fill="#CE9811"/>
<path d="M34.3467 21.8494C32.0176 16.4413 34.4336 10.1637 39.7338 7.68913C39.6313 7.72972 39.5292 7.77132 39.427 7.81535C33.9166 10.1885 31.3644 16.602 33.7373 22.1119C36.1102 27.6217 42.524 30.1744 48.0343 27.8013C48.136 27.7575 48.2369 27.7117 48.3368 27.6651C42.8976 29.8157 36.676 27.258 34.3467 21.8494Z" fill="#FFF2BD"/>
<path d="M40.1325 9.45364C40.0433 9.49206 39.9555 9.53227 39.8678 9.57298C44.4126 7.78322 49.6067 9.92202 51.5522 14.4395C53.4977 18.957 51.483 24.2004 47.0601 26.2733C47.1501 26.2381 47.2395 26.2014 47.3287 26.163C51.9354 24.179 54.0694 18.8166 52.0854 14.2099C50.1015 9.60316 44.7392 7.46968 40.1325 9.45364Z" fill="#CE9811"/>
<path d="M42.022 17.1477C42.2791 17.2342 42.6031 17.2622 42.9937 17.2312L42.029 14.991C41.7262 15.204 41.5236 15.4523 41.4207 15.7348C41.3175 16.0181 41.3314 16.3097 41.4616 16.6119C41.5783 16.8831 41.7644 17.0614 42.022 17.1477ZM46.1951 19.8087C46.2834 19.5461 46.2631 19.2632 46.1332 18.9615C46.03 18.7219 45.8615 18.5651 45.6277 18.4912C45.394 18.4177 45.0931 18.4006 44.725 18.4397L45.6199 20.5175C45.9146 20.308 46.1063 20.0716 46.1951 19.8087ZM47.637 20.1371C47.385 20.7548 46.9145 21.2765 46.226 21.7014L46.7809 22.9899L45.5971 23.4997L45.0521 22.2342C44.5168 22.419 43.9918 22.5257 43.4773 22.5548C42.9624 22.5841 42.4785 22.5311 42.0257 22.3957L42.0665 21.0847C42.9662 21.3211 43.8184 21.2981 44.6235 21.0155L43.5838 18.6014C43.0086 18.6935 42.509 18.7364 42.0849 18.7312C41.6609 18.7261 41.2608 18.618 40.8864 18.4079C40.5114 18.1981 40.2157 17.8412 39.9993 17.3385C39.8193 16.9206 39.7595 16.4948 39.8202 16.0605C39.8809 15.6262 40.0498 15.2142 40.3268 14.824C40.6039 14.4343 40.9728 14.1031 41.4332 13.8312L40.8783 12.5427L42.0621 12.0329L42.6118 13.3094C43.0836 13.1703 43.5522 13.0968 44.0168 13.0899C44.4812 13.0824 44.9024 13.1445 45.28 13.2748L45.2391 14.5858C44.4745 14.365 43.743 14.3497 43.0454 14.5396L44.1302 17.0585C44.7051 16.9671 45.1953 16.923 45.601 16.927C46.0063 16.9313 46.39 17.0346 46.7525 17.2362C47.1145 17.4379 47.4008 17.7828 47.6106 18.2699C47.8806 18.8969 47.8898 19.5197 47.637 20.1371Z" fill="#F7DE61"/>
<path d="M27.8221 36.0115C29.8603 30.8896 27.3605 25.0851 22.2386 23.0469C17.1167 21.0086 11.3122 23.5084 9.27397 28.6303C7.23571 33.7522 9.73551 39.5567 14.8574 41.595C19.9793 43.6332 25.7838 41.1334 27.8221 36.0115Z" fill="#E9B522"/>
<path d="M23.2699 43.2855C17.2238 45.8894 10.1865 43.0889 7.58263 37.0428C4.97875 30.9966 7.77945 23.9599 13.8256 21.3561C19.8718 18.7522 26.909 21.5526 29.5127 27.5982C32.1163 33.6438 29.3161 40.6816 23.2699 43.2855ZM14.5998 23.1537C9.5451 25.3306 7.20337 31.2139 9.38049 36.2692C11.5576 41.3244 17.4413 43.6653 22.496 41.4885C27.5507 39.3116 29.8922 33.4277 27.7153 28.373C25.5384 23.3183 19.6545 20.9768 14.5998 23.1537Z" fill="#F7DE61"/>
<path d="M23.2035 35.0664C22.927 35.7441 22.4108 36.3165 21.6552 36.7827L22.2641 38.1965L20.9652 38.7559L20.3672 37.3674C19.7798 37.5702 19.2038 37.6872 18.6393 37.7191C18.0743 37.7512 17.5433 37.6931 17.0465 37.5446L17.0913 36.1061C18.0785 36.3654 19.0135 36.3402 19.8969 36.0302L18.7562 33.3813C18.125 33.4823 17.5768 33.5294 17.1115 33.5237C16.6462 33.5181 16.2073 33.3995 15.7964 33.169C15.385 32.9387 15.0605 32.5472 14.823 31.9956C14.6255 31.537 14.5599 31.0698 14.6265 30.5933C14.6931 30.1167 14.8785 29.6647 15.1824 29.2365C15.4865 28.809 15.8913 28.4456 16.3964 28.1472L15.7875 26.7334L17.0864 26.174L17.6896 27.5746C18.2073 27.4221 18.7215 27.3414 19.2312 27.3338C19.7407 27.3256 20.203 27.3938 20.6172 27.5367L20.5724 28.9752C19.7334 28.7329 18.9308 28.7161 18.1653 28.9245L19.3556 31.6883C19.9865 31.5881 20.5243 31.5396 20.9695 31.5441C21.4142 31.5488 21.8352 31.6621 22.2329 31.8833C22.6301 32.1047 22.9443 32.4831 23.1745 33.0176C23.4708 33.7055 23.4806 34.3883 23.2038 35.0656L23.2035 35.0664ZM17.0427 31.7867C17.3248 31.8817 17.6803 31.9124 18.1089 31.8784L17.0503 29.4203C16.7181 29.654 16.4958 29.9264 16.3829 30.2365C16.2697 30.5473 16.2849 30.8673 16.4277 31.1989C16.5559 31.4964 16.7609 31.6923 17.0433 31.7865L17.0427 31.7867ZM21.6216 34.7066C21.7185 34.4184 21.6962 34.1079 21.5537 33.7769C21.4405 33.514 21.2556 33.342 20.999 33.2609C20.7426 33.1803 20.4125 33.1614 20.0085 33.2044L20.9904 35.4843C21.3138 35.2544 21.5241 34.995 21.6216 34.7066Z" fill="#CE9811"/>
<path d="M8.25131 36.7548C5.69574 30.8208 8.34663 23.9327 14.1623 21.2176C14.0498 21.2621 13.9378 21.3077 13.8256 21.3561C7.77945 23.9599 4.97899 30.9972 7.58263 37.0428C10.1863 43.0884 17.2238 45.8894 23.2699 43.2855C23.3815 43.2375 23.4922 43.1872 23.6019 43.136C17.6338 45.4958 10.8071 42.6893 8.25131 36.7548Z" fill="#FFF2BD"/>
<path d="M14.5997 23.1536C14.5018 23.1958 14.4054 23.2399 14.3093 23.2846C19.296 21.3208 24.9951 23.6676 27.1298 28.6244C29.2646 33.5812 27.0539 39.3344 22.2009 41.6089C22.2997 41.5703 22.3977 41.53 22.4956 41.4879C27.5503 39.311 29.8918 33.4271 27.7149 28.3724C25.538 23.3177 19.6544 20.9768 14.5997 23.1536Z" fill="#CE9811"/>
<path d="M16.673 31.5959C16.9551 31.6908 17.3105 31.7216 17.7392 31.6875L16.6806 29.2295C16.3484 29.4632 16.126 29.7356 16.0131 30.0456C15.8999 30.3564 15.9152 30.6765 16.058 31.008C16.1861 31.3055 16.3903 31.5012 16.673 31.5959ZM21.2518 34.5157C21.3487 34.2276 21.3265 33.9171 21.1839 33.586C21.0707 33.3232 20.8858 33.1512 20.6292 33.07C20.3729 32.9894 20.0427 32.9706 19.6388 33.0135L20.6207 35.2934C20.9441 35.0635 21.1544 34.8041 21.2518 34.5157ZM22.834 34.876C22.5575 35.5538 22.0412 36.1262 21.2857 36.5924L21.8946 38.0062L20.5957 38.5656L19.9977 37.1771C19.4103 37.3798 18.8343 37.4969 18.2698 37.5288C17.7048 37.5609 17.1738 37.5028 16.677 37.3543L16.7218 35.9158C17.709 36.1751 18.644 36.1499 19.5274 35.8398L18.3866 33.191C17.7555 33.292 17.2073 33.3391 16.742 33.3334C16.2767 33.3278 15.8378 33.2092 15.4269 32.9787C15.0155 32.7484 14.691 32.3569 14.4535 31.8053C14.256 31.3467 14.1904 30.8795 14.257 30.403C14.3236 29.9264 14.509 29.4744 14.8129 29.0462C15.117 28.6187 15.5218 28.2553 16.0269 27.9569L15.418 26.5431L16.7169 25.9837L17.3201 27.3843C17.8378 27.2318 18.352 27.1511 18.8617 27.1435C19.3712 27.1352 19.8335 27.2035 20.2477 27.3464L20.2029 28.7849C19.3639 28.5426 18.5613 28.5258 17.7958 28.7342L18.9861 31.498C19.617 31.3977 20.1548 31.3493 20.6 31.3538C21.0447 31.3585 21.4657 31.4718 21.8634 31.693C22.2606 31.9144 22.5748 32.2928 22.805 32.8273C23.1013 33.5152 23.1114 34.1986 22.834 34.876Z" fill="#F7DE61"/>
<path d="M55.9727 50.7626C58.2654 45.0012 55.4536 38.4721 49.6922 36.1794C43.9308 33.8866 37.4017 36.6985 35.109 42.4599C32.8163 48.2212 35.6281 54.7503 41.3895 57.0431C47.1509 59.3358 53.68 56.5239 55.9727 50.7626Z" fill="#E9B522"/>
<path d="M50.8521 58.9447C44.0511 61.8736 36.1353 58.7235 33.2063 51.9226C30.2774 45.1216 33.4277 37.2064 40.2287 34.2774C47.0297 31.3485 54.9455 34.4986 57.8742 41.2989C60.8029 48.0993 57.6531 56.0157 50.8521 58.9447ZM41.0995 36.2995C35.4138 38.7481 32.7797 45.366 35.2286 51.0524C37.6776 56.7387 44.2958 59.3719 49.9815 56.9232C55.6672 54.4746 58.3011 47.8561 55.8524 42.1704C53.4037 36.4846 46.7853 33.8508 41.0995 36.2995Z" fill="#F7DE61"/>
<path d="M50.7774 49.6994C50.4664 50.4618 49.8857 51.1056 49.0358 51.63L49.7207 53.2203L48.2597 53.8496L47.5871 52.2877C46.9264 52.5158 46.2784 52.6475 45.6434 52.6833C45.0078 52.7195 44.4106 52.654 43.8518 52.487L43.9022 50.869C45.0126 51.1607 46.0643 51.1323 47.0581 50.7835L45.7749 47.804C45.0649 47.9176 44.4482 47.9705 43.9249 47.9642C43.4015 47.9579 42.9078 47.8244 42.4456 47.5652C41.9828 47.3062 41.6179 46.8657 41.3507 46.2453C41.1285 45.7294 41.0547 45.2039 41.1296 44.6679C41.2046 44.1319 41.4131 43.6234 41.7549 43.1418C42.097 42.6608 42.5523 42.2521 43.1205 41.9164L42.4356 40.3262L43.8966 39.6969L44.5751 41.2724C45.1575 41.1008 45.7359 41.0101 46.3092 41.0015C46.8824 40.9922 47.4023 41.0689 47.8683 41.2298L47.8179 42.8478C46.8741 42.5753 45.9714 42.5563 45.1103 42.7908L46.4491 45.8996C47.1588 45.7869 47.7637 45.7324 48.2645 45.7374C48.7647 45.7427 49.2383 45.8702 49.6857 46.119C50.1325 46.368 50.4859 46.7936 50.7448 47.3948C51.0781 48.1687 51.0891 48.9368 50.7778 49.6985L50.7774 49.6994ZM43.8475 46.0104C44.1648 46.1172 44.5647 46.1517 45.0468 46.1135L43.8561 43.3485C43.4824 43.6114 43.2323 43.9178 43.1053 44.2666C42.978 44.6162 42.9951 44.9761 43.1558 45.3491C43.2999 45.6838 43.5305 45.9042 43.8481 46.0101L43.8475 46.0104ZM48.998 49.2947C49.107 48.9706 49.082 48.6213 48.9216 48.249C48.7943 47.9533 48.5863 47.7598 48.2977 47.6685C48.0093 47.5779 47.6379 47.5567 47.1836 47.605L48.288 50.1695C48.6518 49.9109 48.8884 49.6191 48.998 49.2947Z" fill="#CE9811"/>
<path d="M33.9585 51.5986C31.0839 44.9238 34.0657 37.1758 40.6075 34.1217C40.4809 34.1717 40.3549 34.2231 40.2287 34.2774C33.4277 37.2064 30.2776 45.1222 33.2063 51.9226C36.135 58.7229 44.0511 61.8736 50.8521 58.9447C50.9776 58.8906 51.1021 58.834 51.2255 58.7765C44.5123 61.4308 36.8334 58.274 33.9585 51.5986Z" fill="#FFF2BD"/>
<path d="M41.0996 36.2995C40.9895 36.3469 40.8811 36.3965 40.7729 36.4467C46.3822 34.2378 52.7928 36.8775 55.194 42.4532C57.5953 48.0288 55.1086 54.5003 49.6498 57.0588C49.7609 57.0153 49.8712 56.97 49.9813 56.9226C55.667 54.4739 58.3008 47.8555 55.8522 42.1697C53.4035 36.484 46.7853 33.8508 41.0996 36.2995Z" fill="#CE9811"/>
<path d="M43.4316 45.7956C43.7489 45.9024 44.1488 45.937 44.631 45.8988L43.4402 43.1338C43.0665 43.3967 42.8164 43.7031 42.6894 44.0518C42.5621 44.4015 42.5793 44.7614 42.7399 45.1344C42.884 45.4691 43.1137 45.6891 43.4316 45.7956ZM48.5822 49.08C48.6911 48.7559 48.6661 48.4066 48.5058 48.0343C48.3784 47.7386 48.1704 47.5451 47.8818 47.4538C47.5935 47.3632 47.2221 47.342 46.7677 47.3903L47.8722 49.9548C48.236 49.6962 48.4725 49.4044 48.5822 49.08ZM50.3619 49.4853C50.0508 50.2477 49.4701 50.8916 48.6202 51.416L49.3051 53.0062L47.8441 53.6355L47.1715 52.0736C46.5108 52.3017 45.8628 52.4334 45.2278 52.4693C44.5922 52.5054 43.995 52.44 43.4362 52.2729L43.4866 50.6549C44.597 50.9466 45.6488 50.9182 46.6425 50.5694L45.3593 47.5899C44.6493 47.7035 44.0326 47.7564 43.5093 47.7501C42.9859 47.7438 42.4922 47.6103 42.03 47.3511C41.5672 47.0921 41.2023 46.6516 40.9351 46.0312C40.7129 45.5153 40.6391 44.9898 40.7141 44.4538C40.789 43.9178 40.9975 43.4093 41.3393 42.9277C41.6814 42.4467 42.1367 42.038 42.7049 41.7024L42.02 40.1121L43.481 39.4828L44.1595 41.0583C44.7419 40.8867 45.3203 40.796 45.8937 40.7874C46.4668 40.7781 46.9867 40.8549 47.4527 41.0157L47.4023 42.6337C46.4585 42.3612 45.5558 42.3422 44.6947 42.5767L46.0336 45.6855C46.7432 45.5728 47.3482 45.5183 47.849 45.5233C48.3491 45.5286 48.8227 45.6561 49.2701 45.9049C49.7169 46.1539 50.0703 46.5795 50.3292 47.1808C50.6625 47.9546 50.6738 48.7233 50.3619 49.4853Z" fill="#F7DE61"/>
</svg>
