<svg width="24" height="25" viewBox="0 0 24 25" fill="none" xmlns="http://www.w3.org/2000/svg">
<path fill-rule="evenodd" clip-rule="evenodd" d="M3.58279 20.7196C3.72879 20.8666 3.92079 20.9396 4.11279 20.9396C4.30479 20.9396 4.49679 20.8666 4.64279 20.7196L6.8693 18.4931C6.92208 18.453 6.97024 18.4053 7.01201 18.3504L20.4168 4.94561C20.7098 4.65261 20.7098 4.17761 20.4168 3.88461C20.1238 3.59161 19.6498 3.59161 19.3568 3.88461L17.4787 5.76284C15.8036 4.77445 13.9202 4.2547 11.9958 4.2547C6.45585 4.2547 1.99585 8.6587 1.99585 12.3047C1.99585 14.2544 3.25178 16.4109 5.25638 17.9859L3.58279 19.6596C3.28979 19.9526 3.28979 20.4266 3.58279 20.7196ZM6.32619 16.916C4.61299 15.621 3.49585 13.8243 3.49585 12.3047C3.49585 9.3567 7.41785 5.7547 11.9958 5.7547C13.5225 5.7547 15.0206 6.13608 16.3776 6.86401L14.1842 9.0575C13.5423 8.6252 12.7766 8.38629 11.9977 8.38629H11.9887C10.9437 8.38829 9.96272 8.79729 9.22472 9.53729C8.48772 10.2773 8.08272 11.2603 8.08572 12.3003C8.0827 13.0804 8.32084 13.8469 8.75435 14.4877L6.32619 16.916ZM9.84732 13.3947L13.0907 10.1511C12.754 9.97919 12.3779 9.88629 11.9967 9.88629H11.9917C11.3467 9.88729 10.7417 10.1393 10.2877 10.5953C9.83372 11.0523 9.58372 11.6573 9.58572 12.3013C9.58392 12.6837 9.67612 13.0593 9.84732 13.3947Z" fill="#262626"/>
<path d="M11.9942 20.3555C11.0472 20.3555 10.0962 20.2255 9.16418 19.9675C8.76518 19.8575 8.53118 19.4445 8.64118 19.0455C8.75118 18.6455 9.16718 18.4125 9.56418 18.5225C10.3652 18.7435 11.1822 18.8555 11.9942 18.8555C16.5772 18.8555 20.5042 15.2535 20.5042 12.3045C20.5042 11.3495 20.0602 10.2605 19.2552 9.24048C18.9992 8.91548 19.0552 8.44348 19.3802 8.18648C19.7052 7.93048 20.1772 7.98548 20.4332 8.31048C21.4462 9.59548 22.0042 11.0135 22.0042 12.3045C22.0042 15.9515 17.5392 20.3555 11.9942 20.3555Z" fill="#262626"/>
<path d="M12.5662 16.1562C12.2112 16.1562 11.8962 15.9032 11.8292 15.5422C11.7542 15.1352 12.0242 14.7432 12.4322 14.6692C13.4112 14.4882 14.1892 13.7102 14.3662 12.7302C14.4402 12.3222 14.8292 12.0542 15.2382 12.1262C15.6452 12.2002 15.9162 12.5902 15.8422 12.9982C15.5542 14.5882 14.2932 15.8512 12.7022 16.1432C12.6572 16.1522 12.6112 16.1562 12.5662 16.1562Z" fill="#262626"/>
</svg>
