<svg width="20" height="20" viewBox="0 0 20 20" fill="none" xmlns="http://www.w3.org/2000/svg">
<path fill-rule="evenodd" clip-rule="evenodd" d="M16.9641 3.85C18.2841 4.45 19.1141 5.7 19.3141 7.37C19.3941 8 19.3741 8.67 19.2841 9.34C19.0041 11.35 18.0341 13.36 16.7441 14.37C15.7641 15.13 14.5141 15.5 13.2441 15.67C12.4741 15.78 11.6941 15.81 10.9641 15.81C10.7041 15.81 10.4441 15.81 10.1941 15.8C8.35408 15.75 6.01409 15.54 4.32409 14.34C2.05446 12.7303 2.314 9.31113 2.54397 6.2815L2.54409 6.28C2.54704 6.24195 2.55 6.20397 2.55295 6.16607C2.62985 5.17775 2.70298 4.23786 2.67409 3.4C2.71409 2.15 1.41409 1.9 1.26409 1.88C0.864086 1.81 0.584086 1.43 0.644086 1.02C0.714085 0.619996 1.09409 0.349996 1.49409 0.399996C2.43409 0.539996 4.18409 1.34 4.17409 3.34C4.17409 3.39028 4.17496 3.4405 4.17619 3.49071C4.18099 3.68651 4.34745 3.84276 4.54312 3.8341C6.46968 3.74608 8.3871 3.65847 10.3141 3.59C11.3941 3.55 12.4641 3.52 13.5441 3.5C13.6341 3.5 13.7216 3.4975 13.8091 3.495C13.8966 3.4925 13.9841 3.49 14.0741 3.49L14.1108 3.48878C15.0114 3.45901 16.017 3.42576 16.9641 3.85ZM10.8841 8.89H13.6541C14.0741 8.89 14.4041 8.55 14.4041 8.14C14.4041 7.73 14.0741 7.39 13.6541 7.39H10.8841C10.4741 7.39 10.1341 7.73 10.1341 8.14C10.1341 8.55 10.4741 8.89 10.8841 8.89Z" fill="#262626"/>
<path d="M5.14778 17.017C4.43378 17.017 3.85278 17.597 3.85278 18.311C3.85278 19.025 4.43378 19.606 5.14778 19.606C5.86178 19.606 6.44178 19.025 6.44178 18.311C6.44178 17.597 5.86178 17.017 5.14778 17.017Z" fill="#262626"/>
<path d="M15.4788 17.017C14.7648 17.017 14.1848 17.597 14.1848 18.311C14.1848 19.025 14.7648 19.606 15.4788 19.606C16.1928 19.606 16.7738 19.025 16.7738 18.311C16.7738 17.597 16.1928 17.017 15.4788 17.017Z" fill="#262626"/>
</svg>
