<svg width="20" height="21" viewBox="0 0 20 21" fill="none" xmlns="http://www.w3.org/2000/svg">
<path d="M20.0004 10.1048C20.0004 12.0827 19.4138 14.0162 18.315 15.6608C17.2161 17.3053 15.6543 18.5871 13.8269 19.344C11.9996 20.1009 9.98884 20.299 8.04895 19.9131C6.10906 19.5272 4.32716 18.5748 2.92857 17.1762C1.52999 15.7776 0.57754 13.9957 0.191672 12.0558C-0.194197 10.1159 0.00384474 8.10518 0.760753 6.27784C1.51766 4.4505 2.79944 2.88865 4.444 1.78979C6.08856 0.69093 8.02204 0.104416 9.99994 0.104416C11.3132 0.104416 12.6136 0.363084 13.8269 0.865653C15.0402 1.36822 16.1427 2.10485 17.0713 3.03347C17.9999 3.9621 18.7366 5.06453 19.2391 6.27784C19.7417 7.49115 20.0004 8.79156 20.0004 10.1048ZM16.4799 10.1806C16.4793 9.05717 16.1834 7.95361 15.6221 6.98048C15.0607 6.00734 14.2534 5.19879 13.2812 4.6358C12.309 4.07281 11.206 3.77515 10.0825 3.77264C8.95905 3.77012 7.85466 4.06284 6.87994 4.62147C6.28828 4.96249 5.75448 5.39524 5.29846 5.90357V5.03578C5.29846 4.90312 5.24576 4.77589 5.15196 4.68208C5.05815 4.58827 4.93092 4.53557 4.79825 4.53557C4.66559 4.53557 4.53836 4.58827 4.44455 4.68208C4.35074 4.77589 4.29804 4.90312 4.29804 5.03578V7.13263C4.29838 7.26507 4.35123 7.39198 4.445 7.48551C4.53877 7.57905 4.66581 7.63157 4.79825 7.63157H6.89257C7.02072 7.62513 7.1415 7.56968 7.22992 7.4767C7.31834 7.38372 7.36765 7.26031 7.36765 7.132C7.36765 7.00368 7.31834 6.88027 7.22992 6.78729C7.1415 6.69431 7.02072 6.63886 6.89257 6.63242H5.98688C6.49422 6.04733 7.12149 5.57824 7.82613 5.25698C8.53076 4.93572 9.29626 4.76982 10.0707 4.77052C11.1403 4.77077 12.1859 5.08817 13.0752 5.6826C13.9645 6.27703 14.6575 7.12179 15.0668 8.11007C15.476 9.09836 15.583 10.1858 15.3743 11.2349C15.1655 12.284 14.6504 13.2476 13.894 14.004C13.1377 14.7604 12.174 15.2755 11.1249 15.4842C10.0758 15.693 8.98841 15.586 8.00012 15.1767C7.01184 14.7675 6.16708 14.0744 5.57265 13.1851C4.97822 12.2959 4.66082 11.2503 4.66057 10.1806C4.66057 10.048 4.60787 9.92073 4.51406 9.82692C4.42025 9.73312 4.29302 9.68042 4.16036 9.68042C4.02769 9.68042 3.90046 9.73312 3.80666 9.82692C3.71285 9.92073 3.66015 10.048 3.66015 10.1806C3.66015 11.0225 3.82596 11.8561 4.14812 12.6338C4.47028 13.4116 4.94248 14.1183 5.53775 14.7136C6.13302 15.3088 6.83971 15.781 7.61747 16.1032C8.39523 16.4253 9.22883 16.5912 10.0707 16.5912C10.9125 16.5912 11.7461 16.4253 12.5239 16.1032C13.3016 15.781 14.0083 15.3088 14.6036 14.7136C15.1989 14.1183 15.6711 13.4116 15.9932 12.6338C16.3154 11.8561 16.4799 11.0225 16.4799 10.1806ZM10.4635 10.0556V6.68042C10.4571 6.55226 10.4016 6.43149 10.3086 6.34307C10.2157 6.25464 10.0923 6.20533 9.96394 6.20533C9.83562 6.20533 9.71222 6.25464 9.61923 6.34307C9.52625 6.43149 9.47081 6.55226 9.46436 6.68042V10.269C9.4642 10.3453 9.48154 10.4206 9.51505 10.4892C9.54855 10.5577 9.59733 10.6177 9.65762 10.6644L11.5991 12.6046C11.6454 12.6518 11.7005 12.6894 11.7614 12.7152C11.8223 12.7409 11.8877 12.7544 11.9538 12.7547C12.0199 12.7551 12.0855 12.7423 12.1466 12.7171C12.2078 12.692 12.2633 12.655 12.3101 12.6082C12.3568 12.5615 12.3938 12.5059 12.419 12.4448C12.4441 12.3836 12.4569 12.3181 12.4566 12.252C12.4562 12.1859 12.4428 12.1205 12.417 12.0596C12.3913 11.9987 12.3537 11.9435 12.3065 11.8973L10.4635 10.0556Z" fill="#262626"/>
</svg>
