<svg width="22" height="22" viewBox="0 0 22 22" fill="none" xmlns="http://www.w3.org/2000/svg">
<path fill-rule="evenodd" clip-rule="evenodd" d="M13.9081 15.885H8.09306C7.67906 15.885 7.34306 15.549 7.34306 15.135C7.34306 14.721 7.67906 14.385 8.09306 14.385H13.9081C14.3221 14.385 14.6581 14.721 14.6581 15.135C14.6581 15.549 14.3221 15.885 13.9081 15.885ZM18.2491 5.158C17.8861 4.838 17.4731 4.476 16.9811 4.021C16.7581 3.841 16.5141 3.635 16.2551 3.417C14.7951 2.186 12.7951 0.5 10.9721 0.5C9.17006 0.5 7.29906 2.092 5.79606 3.371C5.51806 3.607 5.25806 3.829 4.99306 4.044C4.52706 4.476 4.11406 4.839 3.75006 5.16C1.36306 7.261 0.914062 7.812 0.914062 12.713C0.914062 21.5 3.45506 21.5 11.0001 21.5C18.5441 21.5 21.0861 21.5 21.0861 12.713C21.0861 7.811 20.6371 7.26 18.2491 5.158Z" fill="#1C6758"/>
</svg>
