<svg width="36" height="36" viewBox="0 0 36 36" fill="none" xmlns="http://www.w3.org/2000/svg">
<path fill-rule="evenodd" clip-rule="evenodd" d="M13.257 9.78499C15.126 9.78499 16.6485 11.3075 16.6485 13.1765C16.6485 15.0455 15.126 16.5665 13.257 16.5665C11.388 16.5665 9.8655 15.0455 9.8655 13.1765C9.8655 11.3075 11.388 9.78499 13.257 9.78499ZM9.714 21.9395C11.4915 21.1055 12.9285 21.6215 14.319 22.1225C15.3675 22.5005 16.4535 22.8905 17.955 22.8905C19.122 22.8905 19.8105 21.86 20.805 20.159C21.795 18.4685 23.0265 16.364 25.5135 16.364C28.9695 16.364 31.1115 18.5435 32.5635 20.15C32.601 19.463 32.625 18.752 32.625 18.0005C32.625 7.20199 28.797 3.37549 18 3.37549C7.203 3.37549 3.375 7.20199 3.375 18.0005C3.375 22.028 3.909 25.085 5.139 27.3365C5.913 25.811 7.596 22.934 9.714 21.9395Z" fill="#EDEDED"/>
<path fill-rule="evenodd" clip-rule="evenodd" d="M31.8472 22.6976C31.6267 22.4711 31.3927 22.2116 31.1423 21.9311C29.8162 20.4536 28.1647 18.6131 25.5127 18.6131C24.3967 18.6131 23.7232 19.6271 22.7482 21.2951C21.7447 23.0096 20.4982 25.1411 17.9542 25.1411C16.0597 25.1411 14.6722 24.6416 13.5562 24.2381C12.2422 23.7641 11.5642 23.5541 10.6717 23.9756C8.97375 24.7736 7.26975 27.9926 6.75675 29.1656C6.72675 29.2376 6.68025 29.2961 6.63675 29.3591C8.94225 31.6676 12.5992 32.6246 18.0007 32.6246C26.9392 32.6246 31.0912 29.9876 32.2598 22.9586C32.1082 22.9016 31.9672 22.8206 31.8472 22.6976Z" fill="#EDEDED"/>
</svg>
