<svg width="24" height="24" viewBox="0 0 24 24" fill="none" xmlns="http://www.w3.org/2000/svg">
<path fill-rule="evenodd" clip-rule="evenodd" d="M2.5 13H4C5.381 13 6.5 14.119 6.5 15.5V21.5C6.5 22.881 5.381 24 4 24H2.5C1.119 24 0 22.881 0 21.5V15.5C0 14.119 1.119 13 2.5 13Z" fill="#1C6758"/>
<path d="M13 9H11C9.619 9 8.5 10.119 8.5 11.5V21.5C8.5 22.881 9.619 24 11 24H13C14.381 24 15.5 22.881 15.5 21.5V11.5C15.5 10.119 14.381 9 13 9Z" fill="#1C6758"/>
<path d="M21.5 16H20C18.619 16 17.5 17.119 17.5 18.5V21.5C17.5 22.881 18.619 24 20 24H21.5C22.881 24 24 22.881 24 21.5V18.5C24 17.119 22.881 16 21.5 16Z" fill="#1C6758"/>
<path d="M9.829 7.762C9.688 7.762 9.547 7.717 9.429 7.629C9.202 7.459 9.108 7.165 9.193 6.895L9.82 4.884L8.235 3.594C8.022 3.413 7.944 3.118 8.041 2.856C8.137 2.594 8.387 2.419 8.667 2.419H10.668L11.376 0.432C11.472 0.173 11.722 0 12 0C12.278 0 12.528 0.173 12.625 0.434L13.333 2.421H15.334C15.614 2.421 15.864 2.596 15.96 2.859C16.056 3.122 15.977 3.417 15.763 3.598L14.186 4.883L14.838 6.87C14.927 7.139 14.837 7.435 14.612 7.608C14.387 7.781 14.078 7.793 13.841 7.639L12.005 6.443L10.2 7.651C10.088 7.726 9.958 7.764 9.829 7.764V7.762Z" fill="#EDE869"/>
<path d="M10.1356 4.4962L8.5561 3.21066C8.50428 3.16474 8.48666 3.09236 8.5099 3.0296L8.51048 3.02802C8.5343 2.963 8.59682 2.919 8.667 2.919H10.668H11.0206L11.139 2.58682L11.8456 0.603863C11.8688 0.543778 11.9299 0.5 12 0.5C12.0691 0.5 12.131 0.542864 12.1555 0.606101L12.862 2.58882L12.9804 2.921H13.333H15.334C15.4038 2.921 15.4663 2.96461 15.4903 3.03044L15.9227 2.87262L15.4903 3.03045C15.5137 3.09445 15.4955 3.16772 15.4424 3.21423L13.8702 4.49539L13.6038 4.71243L13.7109 5.03889L14.3629 7.02589L14.3633 7.02705C14.3859 7.09523 14.3628 7.16886 14.3072 7.21162C14.2503 7.25541 14.1727 7.25813 14.1137 7.21988C14.1136 7.21984 14.1135 7.21979 14.1134 7.21974L12.2779 6.02405L12.0013 5.84385L11.7269 6.02747L9.92191 7.23547L9.9218 7.23555C9.90096 7.2495 9.87768 7.25831 9.85429 7.262H9.829C9.7941 7.262 9.75848 7.25084 9.72834 7.2285C9.67209 7.18613 9.6485 7.11321 9.66993 7.04514L9.67034 7.04383L10.2973 5.03283L10.3981 4.70979L10.1356 4.4962ZM2.5 13.5H4C5.10486 13.5 6 14.3951 6 15.5V21.5C6 22.6049 5.10486 23.5 4 23.5H2.5C1.39514 23.5 0.5 22.6049 0.5 21.5V15.5C0.5 14.3951 1.39514 13.5 2.5 13.5ZM9 11.5C9 10.3951 9.89514 9.5 11 9.5H13C14.1049 9.5 15 10.3951 15 11.5V21.5C15 22.6049 14.1049 23.5 13 23.5H11C9.89514 23.5 9 22.6049 9 21.5V11.5ZM20 16.5H21.5C22.6049 16.5 23.5 17.3951 23.5 18.5V21.5C23.5 22.6049 22.6049 23.5 21.5 23.5H20C18.8951 23.5 18 22.6049 18 21.5V18.5C18 17.3951 18.8951 16.5 20 16.5Z" stroke="#262626"/>
</svg>
