<svg width="24" height="25" viewBox="0 0 24 25" fill="none" xmlns="http://www.w3.org/2000/svg">
<path d="M12.0005 17.3705C11.5865 17.3705 11.2505 17.0345 11.2505 16.6205V14.3995C11.2505 13.9855 11.5865 13.6495 12.0005 13.6495C12.4145 13.6495 12.7505 13.9855 12.7505 14.3995V16.6205C12.7505 17.0345 12.4145 17.3705 12.0005 17.3705Z" fill="#D4D4D4"/>
<path fill-rule="evenodd" clip-rule="evenodd" d="M17.3099 9.16848C19.5076 10.1695 20.4103 12.117 20.4103 15.3387C20.4103 20.4577 18.1313 22.3607 12.0003 22.3607C5.86933 22.3607 3.59033 20.4577 3.59033 15.3387C3.59033 12.1174 4.49286 10.17 6.68994 9.16884V7.47777C6.73694 4.57377 9.03894 2.28077 11.9299 2.24377C13.3679 2.25077 14.6919 2.76177 15.7069 3.75177C16.7239 4.74377 17.2929 6.06977 17.3099 7.48877V9.16848ZM16.2062 10.3082C16.2687 10.3417 16.3365 10.3666 16.4079 10.3813C18.2742 11.1009 18.9103 12.595 18.9103 15.3387C18.9103 19.6227 17.3603 20.8607 12.0003 20.8607C6.64033 20.8607 5.09033 19.6227 5.09033 15.3387C5.09033 12.5946 5.72663 11.1004 7.59364 10.381C7.66395 10.3663 7.73067 10.3418 7.79227 10.3089C8.81976 9.95841 10.1936 9.81775 12.0003 9.81775C13.8058 9.81775 15.179 9.95821 16.2062 10.3082ZM8.18994 8.67371V7.48977C8.22294 5.41577 9.87394 3.76977 11.9499 3.74377C12.9859 3.73677 13.9319 4.11577 14.6609 4.82677C15.3899 5.53777 15.7979 6.48877 15.8099 7.49777V8.67353C14.7525 8.43005 13.4901 8.31775 12.0003 8.31775C10.5102 8.31775 9.24757 8.43011 8.18994 8.67371Z" fill="#D4D4D4"/>
</svg>
