<svg width="234" height="72" viewBox="0 0 234 72" fill="none" xmlns="http://www.w3.org/2000/svg">
<path d="M39.927 14.168C40.0948 14.2215 40.2725 14.2557 40.4561 14.2678C40.2796 14.2312 40.1045 14.1985 39.927 14.168ZM40.6044 14.2981V14.3333L40.6082 14.2981H40.6044ZM45.2054 15.8104C45.1884 15.8236 45.17 15.8409 45.1531 15.8589C45.1798 15.8468 45.2066 15.8347 45.2347 15.8236C45.2248 15.8188 45.2152 15.815 45.2054 15.8104ZM45.0643 15.8968C45.0739 15.9016 45.085 15.9064 45.0957 15.9113C45.1139 15.893 45.1338 15.8746 45.1531 15.8589C45.1229 15.8713 45.0934 15.8845 45.0643 15.8968Z" fill="#1C6758"/>
<path d="M52.4946 21.3796C52.4935 21.3091 52.4908 21.2398 52.4887 21.1693C52.4366 19.6156 52.2236 18.0902 51.8586 16.6108C51.85 16.571 51.8402 16.5319 51.8293 16.4917C51.7891 16.5063 51.7477 16.5233 51.7077 16.5392C50.7185 16.9322 49.765 17.3958 48.8523 17.9213C48.8084 17.9468 48.7647 17.9711 48.7222 17.9979C45.4763 19.8954 42.7549 22.5951 40.8291 25.8213L40.709 26.026C40.6941 26.0502 40.6795 26.0758 40.665 26.1013C40.6382 26.1475 40.6114 26.1948 40.5849 26.2436C38.7453 29.483 37.7004 33.2264 37.71 37.2106C37.7146 39.0171 37.9337 40.7907 38.3561 42.5013C38.3659 42.5415 38.3755 42.5804 38.3854 42.6206C38.4253 42.6047 38.467 42.5875 38.5069 42.5718C41.3014 41.465 43.8634 39.7824 46.047 37.5877C46.1979 37.4368 46.3462 37.2836 46.4911 37.1279C46.5191 37.0986 46.5469 37.0695 46.5737 37.0392C48.0776 35.4248 49.3136 33.6231 50.2597 31.689C50.2832 31.6428 50.3062 31.5952 50.328 31.549C51.7598 28.5733 52.5105 25.2887 52.5019 21.8898C52.5021 21.719 52.4996 21.5489 52.4946 21.3796ZM40.7127 26.2641V26.2398C40.714 26.2447 40.7165 26.2509 40.7176 26.2555C40.7163 26.2583 40.715 26.2604 40.7127 26.2641Z" fill="#1C6758"/>
<path d="M58.1189 37.6326C58.1149 37.6738 58.1126 37.7152 58.109 37.7554C58.0979 37.899 58.0848 38.0436 58.0709 38.1861C58.0676 38.2273 58.0628 38.2688 58.0578 38.309C58.0274 38.6105 57.9908 38.9113 57.9471 39.2103C57.9412 39.2545 57.9347 39.298 57.9286 39.3407C57.2317 43.9768 55.0896 48.2557 51.7221 51.641C50.4495 52.9199 49.0505 54.023 47.5506 54.9415C47.5165 54.9624 47.4811 54.984 47.446 55.0047C47.357 55.0597 47.2672 55.1131 47.177 55.1654C47.1346 55.1912 47.0908 55.2152 47.0469 55.241C46.9581 55.292 46.8692 55.3431 46.7792 55.3931C46.7307 55.4199 46.6806 55.4477 46.6308 55.4747C43.9801 56.9271 41.0507 57.8188 37.9898 58.0888C37.9486 58.0926 37.9084 58.0961 37.8669 58.0986C37.8695 58.0572 37.8732 58.017 37.8766 57.9768C38.0873 55.2922 38.7794 52.7399 39.8658 50.4064C39.8852 50.3612 39.9072 50.3164 39.9277 50.2723C40.209 49.6788 40.5155 49.0997 40.8449 48.5376C40.8717 48.4928 40.8985 48.4476 40.9268 48.4026C42.2295 46.2165 43.8987 44.2727 45.849 42.6569C45.9099 42.6058 45.9706 42.556 46.0315 42.5075C47.6105 41.225 49.3696 40.1558 51.2636 39.3417C51.3257 39.3149 51.3879 39.2882 51.4511 39.2624C52.5167 38.816 53.6238 38.4511 54.7648 38.1763C54.9594 38.1279 55.154 38.084 55.3499 38.0423C56.2151 37.8575 57.0982 37.7238 57.996 37.6437C58.0373 37.6397 58.0776 37.6361 58.1189 37.6326Z" fill="#1C6758"/>
<path d="M40.5984 9.6875C40.5498 9.6875 40.5021 9.68875 40.4546 9.69357C40.8392 9.75677 41.2197 9.82855 41.5981 9.90996C41.2955 9.7664 40.956 9.6875 40.5984 9.6875Z" fill="#1C6758"/>
<path d="M65.8997 15.9321C65.8633 15.8758 65.8256 15.8199 65.7865 15.7653C65.7294 15.6814 65.672 15.5974 65.6136 15.5146C65.5628 15.4405 65.5105 15.3662 65.4581 15.2921C64.2646 13.6011 62.9167 12.0012 61.4218 10.5099C54.8842 3.99176 46.2844 0.28964 37.0995 0.0171609C36.7347 0.00481353 36.3685 0 36.0022 0H35.9074C35.7563 0 35.6067 0.00125679 35.4573 0.00376812H35.4514C34.9427 0.0110928 34.4366 0.0292986 33.9319 0.0585974C33.7335 0.0696891 33.5363 0.0818272 33.3394 0.0964766C31.7068 0.2143 30.0973 0.441993 28.517 0.773907C27.9938 0.883359 27.4744 1.00516 26.9585 1.13889C21.8675 2.44918 17.1267 4.86884 13.0305 8.27629C12.8809 8.39914 12.7325 8.52555 12.5854 8.65216C11.8613 9.27392 11.1594 9.92603 10.4795 10.6097C4.33718 16.7849 0.704559 24.791 0.092634 33.3894C0.088867 33.4392 0.0855206 33.4892 0.0830093 33.5403C0.026086 34.3857 -0.00217189 35.2373 0.000130159 36.0926C0.0258712 45.6924 3.78219 54.7131 10.5793 61.4901C14.601 65.5013 19.4051 68.4463 24.646 70.181C24.6935 70.1981 24.7408 70.2126 24.7896 70.2287C28.3603 71.3941 32.1325 72 35.9989 72H36.0926C36.2992 72 36.5062 71.9975 36.7129 71.9927C36.7678 71.9927 36.8213 71.9914 36.876 71.9891C36.8504 71.9489 36.8249 71.9088 36.8006 71.8688C35.0109 69.0071 33.859 65.7104 33.5464 62.1753C33.5426 62.1338 33.539 62.0924 33.5353 62.0497C33.494 62.0464 33.4524 62.0424 33.411 62.0378C32.9001 61.9855 32.3943 61.9185 31.8918 61.8369C31.8504 61.831 31.8089 61.8237 31.7663 61.8161C27.1984 61.0546 23.0206 59.1144 19.5583 56.3176C19.5001 56.2711 19.4413 56.2238 19.3831 56.1751C13.4951 51.3395 9.72376 44.0121 9.70304 35.8247C9.70199 35.4926 9.70785 35.1617 9.71894 34.8334C9.72166 34.758 9.7248 34.6825 9.72878 34.6072C9.77859 33.4162 9.90855 32.2459 10.1145 31.1011C10.1277 31.0218 10.1425 30.944 10.1582 30.8651C10.2022 30.629 10.2495 30.3942 10.2993 30.1594C10.3091 30.1182 10.3175 30.0765 10.3273 30.034C10.7773 28.0049 11.4612 26.0622 12.3504 24.2362C12.3832 24.1655 12.4186 24.096 12.4538 24.0255C16.7699 15.3492 25.7211 9.36391 36.0535 9.33692H36.124C37.5986 9.33692 39.0449 9.4585 40.4548 9.69352C40.5023 9.68871 40.5498 9.68745 40.5986 9.68745C40.9562 9.68745 41.2957 9.76635 41.5983 9.90991C42.4 10.2845 42.9559 11.0961 42.9584 12.0341C42.9623 13.2213 42.0803 14.2101 40.9355 14.3709C40.8271 14.3453 40.7176 14.3211 40.6082 14.2978L40.6044 14.333V14.2978C40.5546 14.2867 40.5059 14.2769 40.4561 14.2673C40.2725 14.2551 40.0946 14.221 39.927 14.1675C39.7663 14.1382 39.6058 14.1114 39.445 14.0858C38.3162 13.9107 37.1652 13.8217 36.0012 13.8217H35.9428C25.7629 13.8487 17.1815 20.7647 14.6095 30.1368C14.5984 30.177 14.5878 30.2184 14.5769 30.2584C14.5742 30.2682 14.5721 30.2791 14.5696 30.2889C14.5549 30.3425 14.5403 30.3961 14.5271 30.4497C14.4649 30.6903 14.4065 30.9327 14.3517 31.1761C14.336 31.2501 14.3191 31.3244 14.3042 31.3985C13.9857 32.9009 13.8201 34.4594 13.8237 36.0566C13.8237 36.2268 13.8262 36.3961 13.8308 36.5652C13.8321 36.6357 13.8346 36.7062 13.8369 36.7767C14.029 42.4207 16.3225 47.6981 20.3391 51.7028C21.8976 53.2563 23.6459 54.5494 25.5315 55.5615C25.58 55.5883 25.6288 55.6151 25.6788 55.6406C28.0118 56.8705 30.5533 57.672 33.2029 58.0029C33.2429 58.0092 33.2833 58.014 33.3245 58.0176C33.3369 57.9776 33.3465 57.9374 33.3574 57.8974C33.4315 57.6197 33.4999 57.3414 33.5629 57.0614C33.6906 56.4932 33.7952 55.9193 33.8779 55.3399C34.0313 54.2755 34.1068 53.1914 34.1043 52.0965C34.1005 50.7985 33.9875 49.5177 33.7661 48.2644C33.7538 48.1941 33.7406 48.1235 33.727 48.0528C33.4777 46.7109 33.1067 45.4019 32.6176 44.1406C32.6004 44.0977 32.5847 44.0552 32.5678 44.0127H32.563C32.5642 44.0127 32.5655 44.0127 32.5667 44.0115C32.5523 43.9725 32.5362 43.9336 32.5205 43.8945C31.4172 41.1393 29.7528 38.6111 27.5874 36.4517C26.6702 35.537 25.6859 34.7122 24.6469 33.981C24.2687 33.7156 23.8843 33.4626 23.4914 33.222C23.1558 32.8155 22.9538 32.2961 22.9515 31.7292C22.9501 31.1003 23.1934 30.5078 23.6361 30.0625C24.0521 29.6452 24.5958 29.402 25.1812 29.3715C25.1812 29.3715 25.1812 29.3715 25.1824 29.3715C25.3247 29.4165 25.4658 29.4627 25.6058 29.5115C25.9329 29.6232 26.2554 29.7498 26.5716 29.8873C26.7089 29.9455 26.8441 30.0064 26.979 30.0721C30.4936 31.7304 33.1994 34.8351 34.3207 38.6123C34.2903 38.3982 34.2638 38.1816 34.2393 37.9652C34.3134 38.1743 34.3818 38.3873 34.4446 38.6012C34.3023 37.6038 34.2282 36.5842 34.2255 35.5491C34.2087 29.1879 36.9009 23.441 41.2136 19.4009C41.3183 19.3035 41.424 19.2062 41.5311 19.11C41.6198 18.9702 41.7134 18.8339 41.8109 18.7C42.0616 18.3547 42.34 18.0261 42.6465 17.7183C43.2162 17.1467 43.8547 16.6673 44.5432 16.2925C44.6322 16.1977 44.7245 16.1049 44.817 16.0127C44.8986 15.9727 44.9812 15.9335 45.0641 15.8959C45.0932 15.8835 45.1223 15.8703 45.1529 15.858C45.1698 15.8398 45.1882 15.8226 45.2052 15.8094C46.4692 14.6258 47.9547 13.6805 49.5933 13.0407C49.6494 13.0177 49.7052 12.9955 49.7624 12.9762C49.9633 12.8994 50.1675 12.8277 50.3733 12.7619C50.417 12.7475 50.4607 12.7329 50.5057 12.7207C51.6492 12.3633 52.8574 12.1525 54.1078 12.1088C54.3183 12.5225 54.5155 12.9434 54.699 13.3716C54.7162 13.4105 54.7331 13.4507 54.749 13.4907C55.0152 14.1197 55.2525 14.7633 55.4595 15.4189C55.4719 15.4579 55.4838 15.4968 55.4961 15.5359C55.7795 16.4519 56.0047 17.3947 56.1677 18.3568C56.1824 18.4457 56.1968 18.5347 56.2112 18.6244C56.333 19.4067 56.4134 20.2034 56.4498 21.0112C56.4584 21.1791 56.4645 21.3469 56.4682 21.516C56.472 21.6692 56.4741 21.8226 56.4741 21.9771C56.4779 23.5002 56.3295 25.0001 56.0325 26.4587C56.0181 26.533 56.0034 26.6073 55.9863 26.6814C55.9559 26.8273 55.9231 26.9723 55.889 27.1182C55.85 27.2835 55.8088 27.4503 55.7663 27.6144C55.0632 30.3237 53.8464 32.8712 52.1651 35.1375C52.1031 35.2214 52.0412 35.3041 51.9776 35.3867C52.0667 35.3331 52.1563 35.281 52.2477 35.231C53.9485 34.2773 55.8708 33.675 57.9171 33.5231C57.9583 33.5193 57.9997 33.517 58.0409 33.5145C58.3304 33.4951 58.6213 33.4854 58.9157 33.484H58.9524C60.1699 33.484 61.3525 33.6434 62.4791 33.9437C62.5193 34.5205 62.54 35.1019 62.5412 35.687C62.5423 36.164 62.5314 36.6384 62.5071 37.1116C62.5046 37.1641 62.5023 37.2152 62.4988 37.2675C62.4914 37.4088 62.4816 37.5498 62.4718 37.6896C62.4692 37.731 62.4659 37.7725 62.4619 37.8139C62.4293 38.2457 62.3868 38.6751 62.332 39.1022C62.3271 39.147 62.3211 39.191 62.315 39.236C61.5679 44.9488 58.9839 50.235 54.8516 54.3881C53.8732 55.371 52.8308 56.2686 51.7338 57.0754C51.6886 57.1093 51.6413 57.1434 51.595 57.1775C51.4747 57.264 51.3529 57.3502 51.2313 57.4353C51.1876 57.4667 51.1449 57.4973 51.1013 57.5266C50.8638 57.6909 50.6257 57.8501 50.3846 58.0035C50.3492 58.0278 50.3128 58.051 50.2759 58.0728C46.6193 60.4037 42.4454 61.7894 38.0573 62.1058C38.0161 62.1094 37.9744 62.1116 37.933 62.1142C37.938 62.1543 37.9416 62.1947 37.9464 62.2347C38.3172 65.5524 39.4222 68.7056 41.1812 71.5034C41.2055 71.5425 41.2297 71.5814 41.2542 71.6202C41.3053 71.613 41.3564 71.6057 41.4064 71.5984C49.0038 70.4599 56.0061 66.933 61.5218 61.3882C61.7274 61.1814 61.9291 60.9734 62.13 60.7629C62.1811 60.7093 62.2321 60.6544 62.2821 60.5998C62.77 60.0804 63.2394 59.5491 63.692 59.0064C63.732 58.9587 63.7724 58.9103 63.8124 58.8626C64.7759 57.6936 65.6603 56.4733 66.462 55.2068C66.5058 55.1389 66.5483 55.0707 66.5907 55.0014C68.6128 51.7616 70.0945 48.2311 70.9899 44.5233C71.0033 44.471 71.0155 44.42 71.0278 44.3689C71.2344 43.4931 71.4098 42.6087 71.5508 41.7157C71.5632 41.6424 71.5738 41.5686 71.5849 41.4943C71.6092 41.3384 71.6324 41.1829 71.6531 41.0257C71.6603 40.9761 71.6676 40.9261 71.6749 40.8763C71.894 39.2422 72.0035 37.5831 71.9999 35.9053C71.9811 28.6848 69.8498 21.7906 65.8997 15.9321ZM56.12 26.6446C56.1164 26.6375 56.1127 26.6314 56.1102 26.6239C56.1187 26.6031 56.1273 26.5826 56.1357 26.5619C56.1309 26.5889 56.1246 26.6165 56.12 26.6446Z" fill="#1C6758"/>
<path d="M112.154 52.6647H106.889L106.466 48.8568C105.62 50.1421 104.358 51.2151 102.682 52.0772C101.005 52.9386 98.9915 53.3698 96.641 53.3698C92.0024 53.3698 88.0693 51.7877 84.8416 48.6218C81.6134 45.4568 80 41.2579 80 36.0234C80 30.8216 81.6688 26.6215 85.0063 23.4251C88.3438 20.2288 92.3633 18.6304 97.0645 18.6304C101.138 18.6304 104.468 19.6177 107.054 21.592C109.639 23.5666 111.386 25.9956 112.295 28.8785L106.09 31.0879C105.588 29.3649 104.578 27.8675 103.058 26.5985C101.537 25.3293 99.5395 24.6945 97.0643 24.6945C94.2435 24.6945 91.791 25.6664 89.707 27.6095C87.6226 29.553 86.5811 32.3573 86.5811 36.0239C86.5811 39.6279 87.5916 42.4333 89.6131 44.4383C91.6345 46.4443 94.1332 47.447 97.1111 47.447C99.8685 47.447 101.984 46.7501 103.457 45.3552C104.93 43.961 105.792 42.4956 106.043 40.9601H95.5129V35.319H112.154V52.6647Z" fill="#1C6758"/>
<path d="M132.32 29.4424V35.7415C131.693 35.6168 131.067 35.5534 130.44 35.5534C128.654 35.5534 127.212 36.0632 126.115 37.0815C125.018 38.1 124.47 39.769 124.47 42.0878V52.665H118.218V29.5366H124.282V32.9679C125.41 30.5551 127.603 29.3484 130.863 29.3484C131.207 29.3484 131.693 29.3799 132.32 29.4424Z" fill="#1C6758"/>
<path d="M152.017 44.485L157.235 46.0364C156.607 48.1681 155.378 49.9228 153.544 51.3016C151.711 52.6802 149.431 53.3699 146.705 53.3699C143.382 53.3699 140.562 52.2496 138.243 50.0088C135.923 47.7685 134.764 44.7672 134.764 41.0064C134.764 37.4336 135.893 34.5119 138.149 32.2396C140.405 29.9675 143.069 28.8311 146.141 28.8311C149.713 28.8311 152.51 29.8969 154.532 32.0277C156.553 34.1595 157.564 37.0892 157.564 40.8185C157.564 41.0698 157.556 41.352 157.541 41.6645C157.524 41.9781 157.517 42.2285 157.517 42.4165L157.47 42.7457H140.923C140.985 44.25 141.581 45.504 142.709 46.5067C143.838 47.5101 145.185 48.0107 146.752 48.0107C149.415 48.0107 151.171 46.8357 152.017 44.485ZM141.063 38.468H151.405C151.342 37.1834 150.88 36.1019 150.019 35.2244C149.156 34.3474 147.895 33.9081 146.234 33.9081C144.73 33.9081 143.508 34.3782 142.568 35.3184C141.628 36.2588 141.126 37.309 141.063 38.468Z" fill="#1C6758"/>
<path d="M178.012 44.485L183.23 46.0364C182.603 48.1681 181.374 49.9228 179.54 51.3016C177.707 52.6802 175.427 53.3699 172.7 53.3699C169.378 53.3699 166.558 52.2496 164.239 50.0088C161.919 47.7685 160.76 44.7672 160.76 41.0064C160.76 37.4336 161.889 34.5119 164.145 32.2396C166.401 29.9675 169.064 28.8311 172.136 28.8311C175.709 28.8311 178.506 29.8969 180.527 32.0277C182.549 34.1595 183.559 37.0892 183.559 40.8185C183.559 41.0698 183.551 41.352 183.536 41.6645C183.52 41.9781 183.513 42.2285 183.513 42.4165L183.466 42.7457H166.919C166.981 44.25 167.577 45.504 168.705 46.5067C169.833 47.5101 171.18 48.0107 172.748 48.0107C175.411 48.0107 177.166 46.8357 178.012 44.485ZM167.059 38.468H177.401C177.338 37.1834 176.876 36.1019 176.014 35.2244C175.152 34.3474 173.891 33.9081 172.23 33.9081C170.726 33.9081 169.504 34.3782 168.563 35.3184C167.623 36.2588 167.122 37.309 167.059 38.468Z" fill="#1C6758"/>
<path d="M209.838 29.5366L200.859 52.6648H194.606L185.157 29.5366H192.021L197.756 45.0493L203.256 29.5366H209.838Z" fill="#1C6758"/>
<path d="M228.453 44.485L233.671 46.0364C233.044 48.1681 231.814 49.9228 229.981 51.3016C228.147 52.6802 225.867 53.3699 223.141 53.3699C219.819 53.3699 216.998 52.2496 214.679 50.0088C212.36 47.7685 211.2 44.7672 211.2 41.0064C211.2 37.4336 212.329 34.5119 214.585 32.2396C216.842 29.9675 219.505 28.8311 222.577 28.8311C226.149 28.8311 228.946 29.8969 230.968 32.0277C232.989 34.1595 234 37.0892 234 40.8185C234 41.0698 233.992 41.352 233.977 41.6645C233.961 41.9781 233.953 42.2285 233.953 42.4165L233.906 42.7457H217.359C217.421 44.25 218.017 45.504 219.145 46.5067C220.274 47.5101 221.621 48.0107 223.188 48.0107C225.851 48.0107 227.607 46.8357 228.453 44.485ZM217.5 38.468H227.842C227.779 37.1834 227.316 36.1019 226.455 35.2244C225.593 34.3474 224.331 33.9081 222.671 33.9081C221.167 33.9081 219.944 34.3782 219.004 35.3184C218.064 36.2588 217.562 37.309 217.5 38.468Z" fill="#1C6758"/>
</svg>
