<svg width="72" height="72" viewBox="0 0 72 72" fill="none" xmlns="http://www.w3.org/2000/svg">
<path d="M39.9268 14.1678C40.0946 14.2214 40.2723 14.2555 40.4558 14.2676C40.2794 14.231 40.1042 14.1983 39.9268 14.1678ZM40.6042 14.298V14.3331L40.608 14.298H40.6042ZM45.2051 15.8102C45.1882 15.8234 45.1698 15.8407 45.1528 15.8587C45.1796 15.8466 45.2064 15.8345 45.2344 15.8234C45.2246 15.8186 45.215 15.8148 45.2051 15.8102ZM45.0641 15.8966C45.0737 15.9014 45.0848 15.9063 45.0955 15.9111C45.1137 15.8929 45.1336 15.8744 45.1528 15.8587C45.1227 15.8711 45.0932 15.8843 45.0641 15.8966Z" fill="#1C6758"/>
<path d="M52.4945 21.3793C52.4934 21.3087 52.4907 21.2395 52.4886 21.1689C52.4365 19.6153 52.2235 18.0898 51.8585 16.6105C51.8499 16.5707 51.8401 16.5316 51.8292 16.4914C51.789 16.506 51.7476 16.523 51.7076 16.5389C50.7183 16.9319 49.7649 17.3955 48.8522 17.921C48.8083 17.9465 48.7645 17.9708 48.722 17.9976C45.4762 19.8951 42.7547 22.5947 40.829 25.8209L40.7088 26.0256C40.694 26.0499 40.6793 26.0754 40.6649 26.101C40.6381 26.1472 40.6113 26.1945 40.5847 26.2433C38.7452 29.4827 37.7003 33.226 37.7099 37.2102C37.7145 39.0169 37.9336 40.7903 38.3559 42.5009C38.3658 42.5413 38.3754 42.5803 38.3852 42.6202C38.4252 42.6043 38.4669 42.5872 38.5068 42.5717C41.3013 41.4648 43.8633 39.782 46.0469 37.5875C46.1977 37.4366 46.3461 37.2835 46.4909 37.1278C46.519 37.0982 46.5468 37.0694 46.5736 37.039C48.0775 35.4247 49.3135 33.6228 50.2596 31.6887C50.283 31.6424 50.3061 31.5949 50.3278 31.5486C51.7597 28.5729 52.5104 25.2883 52.5018 21.8895C52.502 21.7187 52.4995 21.5486 52.4945 21.3793ZM40.7126 26.2638V26.2395C40.7139 26.2443 40.7164 26.2506 40.7174 26.2552C40.7162 26.2579 40.7149 26.26 40.7126 26.2638Z" fill="#1C6758"/>
<path d="M58.1188 37.6323C58.1148 37.6736 58.1125 37.715 58.109 37.7554C58.0979 37.8989 58.0847 38.0435 58.0709 38.1859C58.0675 38.2271 58.0627 38.2685 58.0577 38.3089C58.0273 38.6105 57.9907 38.911 57.947 39.2103C57.9411 39.2544 57.9346 39.2977 57.9286 39.3406C57.2317 43.9765 55.0895 48.2554 51.7221 51.6409C50.4494 52.9198 49.0504 54.0227 47.5505 54.9414C47.5164 54.9623 47.481 54.9839 47.4459 55.0044C47.3569 55.0596 47.2672 55.1128 47.177 55.1651C47.1345 55.1908 47.0908 55.2149 47.0468 55.2407C46.9581 55.2917 46.8691 55.3428 46.7791 55.3928C46.7306 55.4198 46.6806 55.4476 46.6308 55.4746C43.9801 56.9268 41.0506 57.8187 37.9897 58.0885C37.9485 58.0923 37.9083 58.0958 37.8669 58.0983C37.8694 58.0571 37.8732 58.0169 37.8765 57.9765C38.0873 55.2919 38.7793 52.7398 39.8657 50.4062C39.8852 50.3612 39.9071 50.3162 39.9276 50.272C40.2089 49.6785 40.5155 49.0996 40.8449 48.5373C40.8717 48.4927 40.8985 48.4473 40.9267 48.4023C42.2295 46.2164 43.8987 44.2725 45.8489 42.6566C45.9098 42.6056 45.9705 42.5558 46.0314 42.5074C47.6104 41.2248 49.3696 40.1556 51.2635 39.3417C51.3257 39.3147 51.3878 39.2881 51.451 39.2624C52.5167 38.816 53.6237 38.451 54.7647 38.176C54.9594 38.1279 55.154 38.0837 55.3499 38.0423C56.215 37.8575 57.0982 37.7236 57.996 37.6434C58.0372 37.6396 58.0776 37.6359 58.1188 37.6323Z" fill="#1C6758"/>
<path d="M40.5984 9.68738C40.5498 9.68738 40.5021 9.68864 40.4546 9.69345C40.8392 9.75665 41.2197 9.82843 41.5981 9.90984C41.2955 9.76628 40.956 9.68738 40.5984 9.68738Z" fill="#1C6758"/>
<path d="M65.8997 15.932C65.8633 15.8757 65.8256 15.8199 65.7865 15.7652C65.7294 15.6813 65.672 15.5974 65.6136 15.5145C65.5628 15.4404 65.5105 15.3661 65.4581 15.2921C64.2646 13.6011 62.9167 12.0012 61.4218 10.5099C54.8842 3.99174 46.2844 0.289639 37.0995 0.0171608C36.7347 0.00481352 36.3685 0 36.0022 0H35.9074C35.7563 0 35.6067 0.0012504 35.4573 0.00376172H35.4514C34.9427 0.0110864 34.4366 0.0292985 33.9319 0.0585972C33.7335 0.0696889 33.5363 0.0818269 33.3394 0.0964763C31.7068 0.214299 30.0973 0.441992 28.517 0.773905C27.9938 0.883357 27.4744 1.00515 26.9585 1.13888C21.8675 2.44916 17.1267 4.86882 13.0305 8.27627C12.8809 8.39911 12.7325 8.52551 12.5854 8.65213C11.8613 9.27389 11.1594 9.92599 10.4795 10.6097C4.33718 16.7848 0.704559 24.7909 0.092634 33.3893C0.088867 33.4391 0.0855206 33.4891 0.0830093 33.5402C0.026086 34.3856 -0.00217189 35.2372 0.000130159 36.0925C0.0258712 45.6922 3.78219 54.7127 10.5793 61.4901C14.601 65.5011 19.4051 68.446 24.646 70.1807C24.6935 70.1979 24.7408 70.2126 24.7896 70.2287C28.3603 71.3939 32.1325 71.9998 35.9989 71.9998H36.0926C36.2992 71.9998 36.5062 71.9973 36.7129 71.9925C36.7678 71.9925 36.8213 71.9912 36.876 71.9891C36.8504 71.9487 36.8249 71.9085 36.8006 71.8686C35.0109 69.0069 33.859 65.7104 33.5464 62.1753C33.5426 62.1336 33.539 62.0924 33.5353 62.0497C33.494 62.0464 33.4524 62.0424 33.411 62.0378C32.9001 61.9855 32.3943 61.9185 31.8918 61.8367C31.8504 61.831 31.8089 61.8235 31.7663 61.8162C27.1984 61.0546 23.0206 59.1144 19.5583 56.3174C19.5001 56.2712 19.4413 56.2239 19.3831 56.1751C13.4951 51.3394 9.72376 44.0122 9.70304 35.8246C9.70199 35.4925 9.70785 35.1616 9.71894 34.8333C9.72166 34.7579 9.7248 34.6824 9.72878 34.607C9.77859 33.416 9.90855 32.2458 10.1145 31.101C10.1277 31.0217 10.1425 30.9439 10.1582 30.865C10.2022 30.6289 10.2495 30.3941 10.2993 30.1593C10.3091 30.1181 10.3175 30.0764 10.3273 30.0339C10.7773 28.0048 11.4612 26.0621 12.3504 24.2361C12.3832 24.1654 12.4186 24.0959 12.4538 24.0254C16.7699 15.3492 25.7211 9.36388 36.0535 9.33688H36.124C37.5986 9.33688 39.0449 9.45847 40.4548 9.69349C40.5023 9.68868 40.5498 9.68742 40.5986 9.68742C40.9562 9.68742 41.2957 9.76632 41.5983 9.90988C42.4 10.2845 42.9559 11.0961 42.9584 12.034C42.9623 13.2213 42.0803 14.2101 40.9355 14.3708C40.8271 14.3453 40.7176 14.321 40.6082 14.2978L40.6044 14.3329V14.2978C40.5546 14.2867 40.5059 14.2769 40.4561 14.2672C40.2725 14.2551 40.0946 14.221 39.927 14.1674C39.7663 14.1381 39.6058 14.1113 39.445 14.0858C38.3162 13.9106 37.1652 13.8217 36.0012 13.8217H35.9428C25.7629 13.8487 17.1815 20.7646 14.6095 30.1367C14.5984 30.1769 14.5878 30.2183 14.5769 30.2583C14.5742 30.2681 14.5721 30.279 14.5696 30.2888C14.5549 30.3424 14.5403 30.396 14.5271 30.4496C14.4649 30.6902 14.4065 30.9326 14.3517 31.176C14.336 31.25 14.3191 31.3243 14.3042 31.3984C13.9857 32.9008 13.8201 34.4593 13.8237 36.0565C13.8237 36.2266 13.8262 36.3959 13.8308 36.565C13.8321 36.6354 13.8346 36.7061 13.8369 36.7764C14.029 42.4204 16.3225 47.6977 20.3391 51.7024C21.8976 53.2561 23.6459 54.549 25.5315 55.5613C25.58 55.5879 25.6288 55.6149 25.6788 55.6402C28.0118 56.8701 30.5533 57.6716 33.2029 58.0027C33.2429 58.0088 33.2833 58.0138 33.3245 58.0174C33.3369 57.9774 33.3465 57.9372 33.3574 57.8972C33.4315 57.6193 33.4999 57.341 33.5629 57.061C33.6906 56.4928 33.7952 55.919 33.8779 55.3397C34.0313 54.2753 34.1068 53.1912 34.1043 52.0963C34.1005 50.7982 33.9875 49.5176 33.7661 48.2642C33.7538 48.1939 33.7406 48.1232 33.727 48.0524C33.4777 46.7106 33.1067 45.4017 32.6176 44.1404C32.6004 44.0975 32.5847 44.0551 32.5678 44.0126H32.563C32.5642 44.0126 32.5655 44.0126 32.5667 44.0113C32.5523 43.9724 32.5362 43.9333 32.5205 43.8943C31.4172 41.139 29.7528 38.6109 27.5874 36.4516C26.6702 35.5367 25.6859 34.7121 24.6469 33.9809C24.2687 33.7155 23.8843 33.4625 23.4914 33.2218C23.1558 32.8154 22.9538 32.296 22.9515 31.7291C22.9501 31.1002 23.1934 30.5077 23.6361 30.0624C24.0521 29.6451 24.5958 29.4019 25.1812 29.3714C25.1812 29.3714 25.1812 29.3714 25.1824 29.3714C25.3247 29.4164 25.4658 29.4626 25.6058 29.5114C25.9329 29.6231 26.2554 29.7497 26.5716 29.8872C26.7089 29.9454 26.8441 30.0063 26.979 30.072C30.4936 31.7303 33.1994 34.8349 34.3207 38.6122C34.2903 38.3981 34.2638 38.1813 34.2393 37.9651C34.3134 38.174 34.3818 38.387 34.4446 38.6011C34.3023 37.6037 34.2282 36.5839 34.2255 35.549C34.2087 29.1878 36.9009 23.4409 41.2136 19.4008C41.3183 19.3035 41.424 19.2062 41.5311 19.1099C41.6198 18.9701 41.7134 18.8339 41.8109 18.6999C42.0616 18.3546 42.34 18.0261 42.6465 17.7182C43.2162 17.1467 43.8547 16.6672 44.5432 16.2924C44.6322 16.1976 44.7245 16.1049 44.817 16.0126C44.8986 15.9726 44.9812 15.9335 45.0641 15.8958C45.0932 15.8835 45.1223 15.8703 45.1529 15.8579C45.1698 15.8397 45.1882 15.8226 45.2052 15.8094C46.4692 14.6257 47.9547 13.6804 49.5933 13.0407C49.6494 13.0176 49.7052 12.9955 49.7624 12.9762C49.9633 12.8994 50.1675 12.8276 50.3733 12.7619C50.417 12.7475 50.4607 12.7328 50.5057 12.7207C51.6492 12.3632 52.8574 12.1525 54.1078 12.1087C54.3183 12.5225 54.5155 12.9433 54.699 13.3715C54.7162 13.4104 54.7331 13.4506 54.749 13.4906C55.0152 14.1197 55.2525 14.7632 55.4595 15.4189C55.4719 15.4578 55.4838 15.4967 55.4961 15.5359C55.7795 16.4519 56.0047 17.3947 56.1677 18.3567C56.1824 18.4457 56.1968 18.5346 56.2112 18.6244C56.333 19.4066 56.4134 20.2034 56.4498 21.0112C56.4584 21.179 56.4645 21.3469 56.4682 21.5159C56.472 21.6691 56.4741 21.8225 56.4741 21.977C56.4779 23.5001 56.3295 25 56.0325 26.4586C56.0181 26.5329 56.0034 26.6072 55.9863 26.6813C55.9559 26.8272 55.9231 26.9722 55.889 27.1181C55.85 27.2834 55.8088 27.4502 55.7663 27.6143C55.0632 30.3236 53.8464 32.8711 52.1651 35.1374C52.1031 35.2213 52.0412 35.3039 51.9776 35.3866C52.0667 35.333 52.1563 35.2809 52.2477 35.2309C53.9485 34.2772 55.8708 33.6749 57.9171 33.523C57.9583 33.5192 57.9997 33.5169 58.0409 33.5144C58.3304 33.495 58.6213 33.4853 58.9157 33.4839H58.9524C60.1699 33.4839 61.3525 33.6433 62.4791 33.9436C62.5193 34.5204 62.54 35.1018 62.5412 35.6869C62.5423 36.1639 62.5314 36.6381 62.5071 37.1115C62.5046 37.1638 62.5023 37.2149 62.4988 37.2672C62.4914 37.4086 62.4816 37.5497 62.4718 37.6895C62.4692 37.7307 62.4659 37.7722 62.4619 37.8138C62.4293 38.2455 62.3868 38.675 62.332 39.1021C62.3271 39.1467 62.3211 39.1908 62.315 39.2358C61.5679 44.9485 58.9839 50.2348 54.8516 54.3879C53.8732 55.3709 52.8308 56.2685 51.7338 57.075C51.6886 57.1089 51.6413 57.1432 51.595 57.1771C51.4747 57.2638 51.3529 57.35 51.2313 57.435C51.1876 57.4663 51.1449 57.4971 51.1013 57.5262C50.8638 57.6905 50.6257 57.85 50.3846 58.0031C50.3492 58.0276 50.3128 58.0506 50.2759 58.0726C46.6193 60.4033 42.4454 61.789 38.0573 62.1054C38.0161 62.1092 37.9744 62.1115 37.933 62.114C37.938 62.1539 37.9416 62.1945 37.9464 62.2345C38.3172 65.552 39.4222 68.7053 41.1812 71.5032C41.2055 71.5421 41.2297 71.5812 41.2542 71.6197C41.3053 71.6128 41.3564 71.6055 41.4064 71.598C49.0038 70.4593 56.0061 66.9326 61.5218 61.3876C61.7274 61.1808 61.9291 60.9728 62.13 60.7622C62.1811 60.7087 62.2321 60.6538 62.2821 60.5992C62.77 60.0798 63.2394 59.5484 63.692 59.006C63.732 58.9581 63.7724 58.9099 63.8124 58.862C64.7759 57.693 65.6603 56.4729 66.462 55.2062C66.5058 55.1384 66.5483 55.0701 66.5907 55.0011C68.6128 51.761 70.0945 48.2305 70.9899 44.523C71.0033 44.4707 71.0155 44.4196 71.0278 44.3686C71.2344 43.4925 71.4098 42.6081 71.5508 41.7153C71.5632 41.6421 71.5738 41.5682 71.5849 41.4937C71.6092 41.338 71.6324 41.1823 71.6531 41.0254C71.6603 40.9755 71.6676 40.9255 71.6749 40.8757C71.894 39.2419 72.0035 37.5825 71.9999 35.905C71.9811 28.6847 69.8498 21.7905 65.8997 15.932ZM56.12 26.6445C56.1164 26.6374 56.1127 26.6313 56.1102 26.6238C56.1187 26.603 56.1273 26.5825 56.1357 26.5618C56.1309 26.5888 56.1246 26.6167 56.12 26.6445Z" fill="#1C6758"/>
</svg>
