<svg width="90" height="66" viewBox="0 0 90 66" fill="none" xmlns="http://www.w3.org/2000/svg">
<path d="M47.2949 8.27991C47.393 8.31122 47.4968 8.33116 47.6041 8.33825C47.501 8.31685 47.3986 8.29776 47.2949 8.27991ZM47.6908 8.35598V8.37653L47.693 8.35598H47.6908ZM50.3797 9.23976C50.3698 9.24746 50.359 9.25762 50.3491 9.26813C50.3648 9.26104 50.3804 9.25395 50.3968 9.24746C50.3911 9.24465 50.3854 9.24245 50.3797 9.23976ZM50.2973 9.29027C50.3029 9.29308 50.3094 9.2959 50.3156 9.29871C50.3262 9.28807 50.3379 9.27731 50.3491 9.26813C50.3315 9.27535 50.3143 9.28305 50.2973 9.29027Z" fill="#1C6758"/>
<path d="M54.6396 12.4944C54.639 12.4532 54.6374 12.4127 54.6362 12.3715C54.6058 11.4635 54.4813 10.572 54.268 9.70747C54.2629 9.68423 54.2572 9.66136 54.2508 9.63788C54.2273 9.64644 54.2031 9.65635 54.1798 9.66564C53.6016 9.89533 53.0444 10.1662 52.511 10.4733C52.4854 10.4883 52.4598 10.5025 52.435 10.5181C50.538 11.627 48.9476 13.2048 47.8221 15.0902L47.7519 15.2098C47.7432 15.224 47.7347 15.239 47.7262 15.2539C47.7106 15.2809 47.6949 15.3085 47.6794 15.337C46.6043 17.2302 45.9937 19.4179 45.9993 21.7463C46.002 22.8021 46.13 23.8386 46.3769 24.8383C46.3826 24.8618 46.3882 24.8845 46.394 24.908C46.4173 24.8987 46.4417 24.8887 46.465 24.8795C48.0982 24.2326 49.5954 23.2493 50.8716 21.9667C50.9597 21.8785 51.0464 21.789 51.1311 21.698C51.1475 21.6809 51.1637 21.6639 51.1794 21.6461C52.0583 20.7027 52.7806 19.6498 53.3335 18.5194C53.3472 18.4924 53.3607 18.4646 53.3734 18.4376C54.2102 16.6985 54.6489 14.779 54.6439 12.7926C54.644 12.6928 54.6426 12.5934 54.6396 12.4944ZM47.7541 15.349V15.3348C47.7549 15.3377 47.7563 15.3413 47.7569 15.344C47.7562 15.3456 47.7555 15.3468 47.7541 15.349Z" fill="#1C6758"/>
<path d="M57.9266 21.993C57.9243 22.0171 57.9229 22.0413 57.9209 22.0648C57.9144 22.1487 57.9067 22.2332 57.8986 22.3165C57.8966 22.3406 57.8938 22.3648 57.8909 22.3883C57.8732 22.5645 57.8518 22.7403 57.8262 22.915C57.8228 22.9408 57.819 22.9663 57.8154 22.9912C57.4082 25.7007 56.1562 28.2013 54.1882 30.1797C53.4445 30.9271 52.6269 31.5718 51.7503 32.1086C51.7304 32.1208 51.7097 32.1334 51.6892 32.1455C51.6372 32.1777 51.5847 32.2089 51.532 32.2394C51.5072 32.2545 51.4816 32.2686 51.456 32.2836C51.4041 32.3134 51.3521 32.3433 51.2995 32.3725C51.2712 32.3882 51.2419 32.4044 51.2128 32.4202C49.6637 33.269 47.9517 33.7902 46.1629 33.9479C46.1388 33.9501 46.1153 33.9522 46.0911 33.9537C46.0925 33.9295 46.0947 33.906 46.0967 33.8825C46.2199 32.3136 46.6243 30.8219 47.2592 29.4582C47.2706 29.4318 47.2834 29.4056 47.2954 29.3798C47.4598 29.033 47.6389 28.6946 47.8315 28.366C47.8471 28.3399 47.8628 28.3135 47.8793 28.2872C48.6406 27.0096 49.6161 25.8736 50.7559 24.9293C50.7915 24.8994 50.8269 24.8703 50.8625 24.842C51.7853 24.0925 52.8134 23.4676 53.9203 22.9918C53.9566 22.9762 53.9929 22.9605 54.0299 22.9455C54.6526 22.6846 55.2996 22.4713 55.9664 22.3107C56.0802 22.2825 56.1939 22.2568 56.3084 22.2325C56.814 22.1245 57.3301 22.0463 57.8548 21.9995C57.8789 21.9971 57.9025 21.9951 57.9266 21.993Z" fill="#1C6758"/>
<path d="M47.6873 5.6615C47.6589 5.6615 47.631 5.66223 47.6033 5.66504C47.8281 5.70198 48.0504 5.74393 48.2715 5.79151C48.0947 5.70761 47.8963 5.6615 47.6873 5.6615Z" fill="#1C6758"/>
<path d="M62.4737 9.31095C62.4525 9.27805 62.4304 9.2454 62.4076 9.21348C62.3742 9.16443 62.3407 9.11539 62.3066 9.06696C62.2768 9.02366 62.2463 8.98024 62.2157 8.93695C61.5182 7.94872 60.7304 7.0137 59.8568 6.14215C56.0361 2.33284 51.0103 0.16927 45.6424 0.0100291C45.4293 0.0028131 45.2152 0 45.0012 0H44.9458C44.8575 0 44.77 0.000734487 44.6827 0.00220215H44.6793C44.382 0.00648282 44.0862 0.0171225 43.7912 0.0342452C43.6753 0.0407274 43.5601 0.0478211 43.445 0.0563824C42.4909 0.12524 41.5502 0.258308 40.6267 0.452283C40.321 0.516249 40.0174 0.587433 39.7159 0.665586C36.7406 1.43134 33.9701 2.84542 31.5762 4.83679C31.4887 4.90859 31.402 4.98246 31.316 5.05646C30.8929 5.41982 30.4827 5.80093 30.0853 6.2005C26.4957 9.80935 24.3727 14.4882 24.0151 19.5133C24.0129 19.5424 24.0109 19.5716 24.0094 19.6014C23.9762 20.0956 23.9597 20.5932 23.961 21.0931C23.9761 26.7033 26.1713 31.9752 30.1436 35.9358C32.494 38.28 35.3016 40.0011 38.3645 41.0148C38.3922 41.0249 38.4199 41.0333 38.4484 41.0427C40.5351 41.7238 42.7397 42.0779 44.9992 42.0779H45.054C45.1747 42.0779 45.2957 42.0764 45.4165 42.0736C45.4486 42.0736 45.4799 42.0729 45.5118 42.0716C45.4969 42.0481 45.482 42.0246 45.4678 42.0012C44.4218 40.3288 43.7487 38.4022 43.5659 36.3362C43.5637 36.312 43.5617 36.2878 43.5595 36.2628C43.5354 36.2609 43.511 36.2585 43.4868 36.2558C43.1883 36.2253 42.8927 36.1861 42.599 36.1384C42.5748 36.135 42.5506 36.1307 42.5256 36.1263C39.8561 35.6812 37.4145 34.5474 35.3911 32.9129C35.3571 32.8857 35.3227 32.8581 35.2887 32.8296C31.8477 30.0036 29.6437 25.7213 29.6315 20.9365C29.6309 20.7424 29.6344 20.5491 29.6408 20.3572C29.6424 20.3131 29.6443 20.269 29.6466 20.225C29.6757 19.5289 29.7516 18.845 29.872 18.176C29.8797 18.1296 29.8884 18.0841 29.8976 18.038C29.9232 17.9001 29.9509 17.7628 29.98 17.6256C29.9857 17.6015 29.9906 17.5772 29.9964 17.5523C30.2593 16.3665 30.659 15.2311 31.1787 14.164C31.1979 14.1227 31.2186 14.0821 31.2391 14.0409C33.7615 8.97033 38.9927 5.47242 45.0312 5.45664H45.0724C45.9341 5.45664 46.7794 5.52769 47.6034 5.66504C47.6311 5.66223 47.6589 5.6615 47.6874 5.6615C47.8964 5.6615 48.0948 5.7076 48.2716 5.79151C48.7402 6.01043 49.065 6.48473 49.0665 7.0329C49.0688 7.72674 48.5533 8.30463 47.8843 8.39856C47.8209 8.38364 47.757 8.36945 47.693 8.35587L47.6908 8.37642V8.35587C47.6617 8.34939 47.6332 8.34364 47.6041 8.33802C47.4968 8.33093 47.3929 8.31099 47.2949 8.27968C47.201 8.26256 47.1072 8.2469 47.0132 8.23198C46.3535 8.12961 45.6808 8.07763 45.0006 8.07763H44.9665C39.0172 8.09341 34.0021 12.1352 32.499 17.6124C32.4925 17.6359 32.4863 17.6601 32.4799 17.6835C32.4783 17.6892 32.4771 17.6956 32.4756 17.7013C32.4671 17.7326 32.4585 17.7639 32.4508 17.7953C32.4145 17.9359 32.3803 18.0775 32.3483 18.2198C32.3391 18.2631 32.3292 18.3065 32.3205 18.3498C32.1344 19.2278 32.0376 20.1386 32.0397 21.072C32.0397 21.1715 32.0412 21.2704 32.0439 21.3692C32.0446 21.4105 32.0461 21.4517 32.0474 21.4929C32.1597 24.7913 33.5 27.8755 35.8474 30.2159C36.7582 31.1238 37.78 31.8795 38.8819 32.471C38.9103 32.4866 38.9388 32.5023 38.968 32.5172C40.3315 33.236 41.8167 33.7044 43.3652 33.8978C43.3886 33.9015 43.4122 33.9043 43.4363 33.9064C43.4435 33.883 43.4492 33.8595 43.4555 33.8362C43.4988 33.6739 43.5388 33.5112 43.5756 33.3475C43.6502 33.0155 43.7114 32.6801 43.7597 32.3415C43.8493 31.7194 43.8935 31.0859 43.892 30.446C43.8898 29.6874 43.8238 28.9389 43.6944 28.2065C43.6872 28.1654 43.6795 28.1241 43.6715 28.0828C43.5258 27.2986 43.309 26.5336 43.0232 25.7964C43.0131 25.7714 43.004 25.7465 42.9941 25.7217H42.9912C42.992 25.7217 42.9927 25.7217 42.9934 25.721C42.985 25.6982 42.9756 25.6755 42.9664 25.6526C42.3216 24.0425 41.3489 22.5649 40.0835 21.303C39.5474 20.7684 38.9722 20.2864 38.365 19.859C38.1439 19.7039 37.9193 19.5561 37.6897 19.4154C37.4935 19.1779 37.3755 18.8743 37.3742 18.543C37.3733 18.1755 37.5155 17.8293 37.7742 17.569C38.0174 17.3251 38.3351 17.183 38.6772 17.1651C38.6772 17.1651 38.6772 17.1651 38.6779 17.1651C38.7611 17.1914 38.8435 17.2185 38.9253 17.247C39.1165 17.3123 39.305 17.3863 39.4898 17.4666C39.57 17.5006 39.649 17.5362 39.7279 17.5746C41.7819 18.5438 43.3632 20.3582 44.0185 22.5656C44.0007 22.4405 43.9852 22.3139 43.9709 22.1875C44.0142 22.3096 44.0542 22.4342 44.0909 22.5591C44.0077 21.9762 43.9644 21.3804 43.9628 20.7755C43.953 17.0579 45.5264 13.6993 48.0468 11.3382C48.108 11.2813 48.1697 11.2244 48.2324 11.1682C48.2842 11.0865 48.3389 11.0068 48.3959 10.9286C48.5424 10.7268 48.7051 10.5347 48.8842 10.3548C49.2172 10.0208 49.5903 9.74061 49.9927 9.52156C50.0447 9.46616 50.0986 9.41198 50.1527 9.35804C50.2004 9.33468 50.2487 9.31181 50.2971 9.2898C50.3141 9.28258 50.3311 9.27488 50.349 9.26766C50.3589 9.25702 50.3696 9.24699 50.3795 9.23928C51.1183 8.54753 51.9864 7.99508 52.944 7.62119C52.9768 7.60774 53.0095 7.59477 53.0428 7.58352C53.1603 7.53863 53.2796 7.49668 53.3999 7.45828C53.4254 7.44984 53.451 7.44128 53.4773 7.43418C54.1455 7.22529 54.8516 7.10213 55.5824 7.07657C55.7054 7.31836 55.8206 7.56432 55.9279 7.81455C55.9379 7.8373 55.9478 7.86079 55.9571 7.88415C56.1127 8.25179 56.2514 8.62788 56.3723 9.01106C56.3796 9.03381 56.3865 9.05656 56.3937 9.07943C56.5593 9.61476 56.6909 10.1657 56.7862 10.728C56.7948 10.78 56.8032 10.8319 56.8117 10.8844C56.8828 11.3416 56.9298 11.8072 56.9511 12.2793C56.9561 12.3774 56.9596 12.4755 56.9619 12.5743C56.9641 12.6638 56.9653 12.7535 56.9653 12.8437C56.9675 13.7339 56.8808 14.6104 56.7072 15.4629C56.6988 15.5063 56.6902 15.5497 56.6802 15.593C56.6624 15.6783 56.6432 15.763 56.6233 15.8483C56.6006 15.9449 56.5765 16.0424 56.5516 16.1383C56.1407 17.7216 55.4296 19.2104 54.447 20.5349C54.4108 20.5839 54.3746 20.6322 54.3374 20.6805C54.3895 20.6492 54.4419 20.6188 54.4953 20.5895C55.4893 20.0322 56.6127 19.6802 57.8086 19.5914C57.8327 19.5892 57.8569 19.5879 57.881 19.5864C58.0501 19.575 58.2201 19.5694 58.3922 19.5685H58.4136C59.1252 19.5685 59.8163 19.6617 60.4747 19.8373C60.4982 20.1743 60.5103 20.5141 60.511 20.8561C60.5116 21.1348 60.5053 21.412 60.4911 21.6886C60.4896 21.7193 60.4883 21.7491 60.4862 21.7797C60.4819 21.8623 60.4761 21.9447 60.4704 22.0264C60.4689 22.0506 60.467 22.0748 60.4646 22.099C60.4456 22.3514 60.4207 22.6023 60.3887 22.8519C60.3859 22.8781 60.3823 22.9038 60.3788 22.9301C59.9422 26.2688 58.4321 29.3581 56.017 31.7852C55.4453 32.3597 54.8361 32.8843 54.195 33.3557C54.1685 33.3756 54.1409 33.3955 54.1139 33.4154C54.0435 33.4659 53.9724 33.5163 53.9013 33.5661C53.8757 33.5845 53.8508 33.6023 53.8253 33.6194C53.6865 33.7154 53.5474 33.8085 53.4065 33.8982C53.3858 33.9124 53.3645 33.9259 53.343 33.9386C51.2059 35.3009 48.7667 36.1107 46.2022 36.2956C46.1781 36.2977 46.1538 36.299 46.1296 36.3005C46.1325 36.324 46.1346 36.3476 46.1374 36.3709C46.3541 38.3098 46.9999 40.1526 48.0279 41.7877C48.0421 41.8106 48.0562 41.8333 48.0705 41.8559C48.1004 41.8518 48.1302 41.8475 48.1595 41.8432C52.5995 41.1779 56.6918 39.1167 59.9153 35.8762C60.0354 35.7554 60.1533 35.6338 60.2707 35.5108C60.3005 35.4794 60.3304 35.4474 60.3596 35.4155C60.6447 35.1119 60.919 34.8014 61.1836 34.4843C61.2069 34.4564 61.2305 34.4281 61.2539 34.4002C61.817 33.717 62.3338 33.0039 62.8024 32.2637C62.8279 32.2241 62.8528 32.1842 62.8776 32.1437C64.0593 30.2503 64.9252 28.187 65.4486 26.0201C65.4564 25.9896 65.4635 25.9597 65.4707 25.9299C65.5914 25.418 65.6939 24.9012 65.7763 24.3793C65.7836 24.3365 65.7898 24.2933 65.7963 24.2499C65.8105 24.1588 65.824 24.0679 65.8361 23.9761C65.8403 23.9471 65.8446 23.9178 65.8489 23.8887C65.9769 22.9338 66.0409 21.9641 66.0388 20.9836C66.0278 16.7639 64.7822 12.7348 62.4737 9.31095ZM56.7583 15.5715C56.7563 15.5673 56.754 15.5638 56.7526 15.5594C56.7576 15.5473 56.7626 15.5353 56.7675 15.5232C56.7647 15.539 56.761 15.5551 56.7583 15.5715Z" fill="#1C6758"/>
<path d="M18.7913 64.8902H15.7144L15.4671 62.6648C14.9726 63.416 14.2351 64.043 13.2556 64.5468C12.2755 65.0503 11.0989 65.3023 9.72528 65.3023C7.01437 65.3023 4.71582 64.3776 2.82949 62.5274C0.942901 60.6778 0 58.2239 0 55.1648C0 52.1247 0.975254 49.6702 2.92576 47.8021C4.87627 45.9342 7.22531 45 9.97275 45C12.3532 45 14.2996 45.577 15.8106 46.7308C17.3216 47.8848 18.3424 49.3044 18.8737 50.9892L15.2474 52.2804C14.9542 51.2734 14.3636 50.3983 13.4754 49.6567C12.5866 48.915 11.4192 48.544 9.97262 48.544C8.3241 48.544 6.89083 49.112 5.67294 50.2475C4.45478 51.3834 3.8461 53.0222 3.8461 55.165C3.8461 57.2713 4.43665 58.9108 5.61802 60.0825C6.79939 61.2549 8.25966 61.8409 10 61.8409C11.6115 61.8409 12.8478 61.4336 13.7089 60.6184C14.5695 59.8036 15.0731 58.9472 15.2199 58.0498H9.06598V54.7531H18.7913V64.8902Z" fill="#1C6758"/>
<path d="M30.5769 51.3187V55C30.2102 54.9271 29.8443 54.89 29.4781 54.89C28.434 54.89 27.5914 55.188 26.9506 55.7831C26.3092 56.3783 25.989 57.3537 25.989 58.7089V64.8903H22.335V51.3737H25.8789V53.379C26.5384 51.969 27.8202 51.2637 29.7252 51.2637C29.9265 51.2637 30.2102 51.2821 30.5769 51.3187Z" fill="#1C6758"/>
<path d="M42.0877 60.1098L45.1371 61.0164C44.7705 62.2622 44.0519 63.2877 42.9804 64.0935C41.9091 64.8992 40.5767 65.3023 38.9832 65.3023C37.0416 65.3023 35.3932 64.6475 34.0381 63.3379C32.6824 62.0287 32.0051 60.2747 32.0051 58.0768C32.0051 55.9888 32.6646 54.2814 33.9832 52.9534C35.3018 51.6255 36.8583 50.9614 38.6536 50.9614C40.7415 50.9614 42.3761 51.5843 43.5574 52.8296C44.7388 54.0754 45.3296 55.7875 45.3296 57.967C45.3296 58.1139 45.3246 58.2788 45.3159 58.4614C45.3063 58.6447 45.3022 58.7911 45.3022 58.9009L45.2746 59.0933H35.6043C35.6407 59.9724 35.9887 60.7053 36.6483 61.2913C37.3076 61.8777 38.0949 62.1703 39.0108 62.1703C40.5672 62.1703 41.5932 61.4836 42.0877 60.1098ZM35.6863 56.5933H41.7304C41.6935 55.8426 41.4233 55.2106 40.9199 54.6978C40.416 54.1852 39.6788 53.9285 38.7084 53.9285C37.8293 53.9285 37.1149 54.2032 36.5654 54.7527C36.0161 55.3023 35.723 55.916 35.6863 56.5933Z" fill="#1C6758"/>
<path d="M57.28 60.1098L60.3294 61.0164C59.9628 62.2622 59.2443 63.2877 58.1729 64.0935C57.1014 64.8992 55.7689 65.3023 54.1754 65.3023C52.2338 65.3023 50.5856 64.6475 49.2305 63.3379C47.8747 62.0287 47.1975 60.2747 47.1975 58.0768C47.1975 55.9888 47.8569 54.2814 49.1754 52.9534C50.4941 51.6255 52.0506 50.9614 53.846 50.9614C55.934 50.9614 57.5684 51.5843 58.7498 52.8296C59.9311 54.0754 60.5217 55.7875 60.5217 57.967C60.5217 58.1139 60.517 58.2788 60.508 58.4614C60.4987 58.6447 60.4944 58.7911 60.4944 58.9009L60.467 59.0933H50.7965C50.8329 59.9724 51.1811 60.7053 51.8404 61.2913C52.4998 61.8777 53.287 62.1703 54.2031 62.1703C55.7594 62.1703 56.7854 61.4836 57.28 60.1098ZM50.8787 56.5933H56.9227C56.8857 55.8426 56.6156 55.2106 56.1122 54.6978C55.6084 54.1852 54.8712 53.9285 53.9006 53.9285C53.0216 53.9285 52.3073 54.2032 51.7577 54.7527C51.2084 55.3023 50.9152 55.916 50.8787 56.5933Z" fill="#1C6758"/>
<path d="M75.8791 51.3737L70.6316 64.8902H66.9777L61.4556 51.3737H65.4667L68.8184 60.4396L72.0327 51.3737H75.8791Z" fill="#1C6758"/>
<path d="M86.7581 60.1098L89.8077 61.0164C89.441 62.2622 88.7225 63.2877 87.6509 64.0935C86.5795 64.8992 85.2471 65.3023 83.6538 65.3023C81.7121 65.3023 80.0636 64.6475 78.7086 63.3379C77.353 62.0287 76.6755 60.2747 76.6755 58.0768C76.6755 55.9888 77.3351 54.2814 78.6536 52.9534C79.9723 51.6255 81.5287 50.9614 83.3241 50.9614C85.412 50.9614 87.0466 51.5843 88.2279 52.8296C89.4093 54.0754 90 55.7875 90 57.967C90 58.1139 89.9953 58.2788 89.9863 58.4614C89.9769 58.6447 89.9727 58.7911 89.9727 58.9009L89.9452 59.0933H80.2747C80.3112 59.9724 80.6593 60.7053 81.3187 61.2913C81.9781 61.8777 82.7653 62.1703 83.6813 62.1703C85.2376 62.1703 86.2636 61.4836 86.7581 60.1098ZM80.357 56.5933H86.4011C86.364 55.8426 86.094 55.2106 85.5905 54.6978C85.0867 54.1852 84.3495 53.9285 83.379 53.9285C82.4999 53.9285 81.7856 54.2032 81.2361 54.7527C80.6868 55.3023 80.3934 55.916 80.357 56.5933Z" fill="#1C6758"/>
</svg>
