<svg width="22" height="22" viewBox="0 0 22 22" fill="none" xmlns="http://www.w3.org/2000/svg">
<path fill-rule="evenodd" clip-rule="evenodd" d="M14.9506 12.416C14.3986 12.416 13.9456 11.969 13.9456 11.416C13.9456 10.863 14.3886 10.416 14.9416 10.416H14.9506C15.5026 10.416 15.9506 10.863 15.9506 11.416C15.9506 11.969 15.5026 12.416 14.9506 12.416ZM10.9416 12.416C10.3886 12.416 9.93664 11.969 9.93664 11.416C9.93664 10.863 10.3806 10.416 10.9326 10.416H10.9416C11.4936 10.416 11.9416 10.863 11.9416 11.416C11.9416 11.969 11.4936 12.416 10.9416 12.416ZM6.93264 12.416C6.38064 12.416 5.92864 11.969 5.92864 11.416C5.92864 10.863 6.37064 10.416 6.92364 10.416H6.93264C7.48464 10.416 7.93264 10.863 7.93264 11.416C7.93264 11.969 7.48464 12.416 6.93264 12.416ZM18.4266 3.57599C16.4456 1.59499 13.8086 0.502991 11.0026 0.502991C8.19664 0.502991 5.55964 1.59499 3.57864 3.57599C0.476636 6.67899 -0.369364 11.441 1.45564 15.375C1.48864 15.537 1.39964 16.196 1.33564 16.678C1.09364 18.484 0.969636 19.81 1.58264 20.424C2.19464 21.037 3.51964 20.913 5.32564 20.67C5.80764 20.606 6.47464 20.52 6.57864 20.531C7.98464 21.182 9.48764 21.497 10.9796 21.497C13.7176 21.497 16.4196 20.435 18.4266 18.427C22.5196 14.332 22.5206 7.66999 18.4266 3.57599Z" fill="#262626"/>
</svg>
