<svg width="24" height="25" viewBox="0 0 24 25" fill="none" xmlns="http://www.w3.org/2000/svg">
<path d="M5.84434 9.8357C6.20034 10.2567 9.39134 13.9547 12.0113 13.9547C14.6343 13.9547 17.7933 10.2537 18.1443 9.8317C18.4093 9.5147 18.3663 9.0417 18.0493 8.7767C17.7293 8.5117 17.2583 8.5547 16.9923 8.8717C15.8363 10.2567 13.4613 12.4547 12.0113 12.4547C10.5593 12.4547 8.16234 10.2547 6.99134 8.8687C6.72434 8.5517 6.25134 8.5117 5.93534 8.7787C5.61834 9.0457 5.57834 9.5187 5.84434 9.8357Z" fill="#D4D4D4"/>
<path fill-rule="evenodd" clip-rule="evenodd" d="M1.72656 12.3022C1.72656 19.5872 4.41556 22.1692 11.9996 22.1692C19.5846 22.1692 22.2736 19.5872 22.2736 12.3022C22.2736 5.01724 19.5846 2.43524 11.9996 2.43524C4.41556 2.43524 1.72656 5.01724 1.72656 12.3022ZM3.22656 12.3022C3.22656 5.89024 5.27656 3.93524 11.9996 3.93524C18.7236 3.93524 20.7736 5.89024 20.7736 12.3022C20.7736 18.7142 18.7236 20.6692 11.9996 20.6692C5.27656 20.6692 3.22656 18.7142 3.22656 12.3022Z" fill="#D4D4D4"/>
</svg>
