<svg width="18" height="20" viewBox="0 0 18 20" fill="none" xmlns="http://www.w3.org/2000/svg">
<path fill-rule="evenodd" clip-rule="evenodd" d="M12.5949 10.6875H5.37489C4.96089 10.6875 4.62489 10.3515 4.62489 9.93751C4.62489 9.52351 4.96089 9.18751 5.37489 9.18751H12.5949C13.0089 9.18751 13.3449 9.52351 13.3449 9.93751C13.3449 10.3515 13.0089 10.6875 12.5949 10.6875ZM12.5949 14.4465H5.37489C4.96089 14.4465 4.62489 14.1105 4.62489 13.6965C4.62489 13.2825 4.96089 12.9465 5.37489 12.9465H12.5949C13.0089 12.9465 13.3449 13.2825 13.3449 13.6965C13.3449 14.1105 13.0089 14.4465 12.5949 14.4465ZM5.37489 5.42651H8.12989C8.54389 5.42651 8.87989 5.76251 8.87989 6.17651C8.87989 6.59051 8.54389 6.92651 8.12989 6.92651H5.37489C4.96089 6.92651 4.62489 6.59051 4.62489 6.17651C4.62489 5.76251 4.96089 5.42651 5.37489 5.42651ZM8.99989 0.249512C2.43489 0.249512 0.108887 2.80151 0.108887 10.0005C0.108887 17.1985 2.43489 19.7505 8.99989 19.7505C15.5639 19.7505 17.8909 17.1985 17.8909 10.0005C17.8909 2.80151 15.5639 0.249512 8.99989 0.249512Z" fill="#262626"/>
</svg>
