<svg width="16" height="22" viewBox="0 0 16 22" fill="none" xmlns="http://www.w3.org/2000/svg">
<path fill-rule="evenodd" clip-rule="evenodd" d="M15.6274 12.9624C14.7804 11.0994 14.8024 10.3984 14.8414 9.12436C14.8514 8.82336 14.8614 8.49636 14.8614 8.12136C14.8614 5.14435 12.7324 0.951355 8.00036 0.951355C3.26836 0.951355 1.13936 5.14435 1.13936 8.12136C1.13936 8.49536 1.14936 8.82336 1.15936 9.12436C1.19836 10.3984 1.21936 11.0994 0.363361 12.9874C-0.00263917 13.9314 0.0413608 14.7464 0.496361 15.4104C1.58836 17.0084 4.74836 17.2284 8.00036 17.2284C11.2524 17.2284 14.4124 17.0084 15.5044 15.4104C15.9604 14.7464 16.0044 13.9314 15.6274 12.9624Z" fill="#262626"/>
<path fill-rule="evenodd" clip-rule="evenodd" d="M10.6977 18.2406C9.06665 18.4216 7.29865 18.4206 5.28865 18.2386C4.98765 18.2146 4.68965 18.3736 4.55165 18.6486C4.41265 18.9246 4.45666 19.2556 4.66165 19.4856C5.56166 20.4926 6.74566 21.0486 7.99566 21.0486H7.99765C9.25066 21.0486 10.4377 20.4936 11.3397 19.4856C11.5467 19.2546 11.5897 18.9186 11.4477 18.6416C11.3047 18.3666 11.0107 18.2126 10.6977 18.2406Z" fill="#262626"/>
</svg>
