<svg width="24" height="24" viewBox="0 0 24 24" fill="none" xmlns="http://www.w3.org/2000/svg">
<path fill-rule="evenodd" clip-rule="evenodd" d="M6.56012 4.39393C7.72157 2.89654 9.52139 1.76419 11.9961 1.76419C14.4703 1.76419 16.2701 2.89657 17.4317 4.39389C18.5749 5.86764 19.107 7.6987 19.107 9.18371C19.107 9.60995 19.0941 9.92639 19.0843 10.1665C19.0822 10.2159 19.0803 10.262 19.0787 10.3052C19.0691 10.5635 19.071 10.6876 19.0909 10.8105C19.1361 11.0901 19.2791 11.4345 19.8505 12.6938C19.8562 12.7064 19.8616 12.7192 19.8666 12.7321C20.2794 13.7945 20.1871 14.7719 19.6961 15.6001C19.2275 16.3905 18.44 16.9724 17.5887 17.3971C15.8864 18.2463 13.6361 18.6118 11.9961 18.6118C10.3556 18.6118 8.10503 18.2463 6.40271 17.3971C5.55144 16.9724 4.76394 16.3904 4.29552 15.6C3.80463 14.7717 3.71253 13.7943 4.12564 12.7319C4.13063 12.7191 4.13598 12.7064 4.14168 12.6938C4.71309 11.4345 4.85611 11.0901 4.90128 10.8105C4.92114 10.6876 4.9231 10.5635 4.91344 10.3052C4.91182 10.262 4.90993 10.2159 4.90791 10.1665C4.89808 9.9264 4.88513 9.60996 4.88513 9.18371C4.88513 7.69878 5.41698 5.86771 6.56012 4.39393ZM7.74537 5.31326C6.81661 6.51067 6.38513 8.01436 6.38513 9.18371C6.38513 9.57681 6.39671 9.86079 6.40646 10.0999C6.40857 10.1515 6.41059 10.201 6.41239 10.2491C6.42234 10.515 6.42757 10.7682 6.38208 11.0498C6.29757 11.5728 6.04065 12.139 5.52668 13.2717L5.51665 13.2937C5.26777 13.9464 5.3476 14.4331 5.58593 14.8353C5.84894 15.2791 6.3531 15.6961 7.07231 16.0549C8.51095 16.7725 10.5165 17.1118 11.9961 17.1118C13.4751 17.1118 15.4805 16.7725 16.9191 16.0549C17.6384 15.6961 18.1426 15.2791 18.4058 14.8352C18.6442 14.433 18.7241 13.9463 18.4755 13.2937L18.4655 13.2716C17.9515 12.139 17.6946 11.5728 17.6101 11.0498C17.5646 10.7682 17.5698 10.515 17.5798 10.2491C17.5816 10.2011 17.5836 10.1515 17.5857 10.0999C17.5955 9.8608 17.607 9.57682 17.607 9.18371C17.607 8.01444 17.1754 6.51075 16.2465 5.3133C15.3358 4.13943 13.9552 3.26419 11.9961 3.26419C10.0365 3.26419 8.65583 4.13946 7.74537 5.31326Z" fill="#262626"/>
<path fill-rule="evenodd" clip-rule="evenodd" d="M9.18617 19.9528C9.49509 19.6769 9.96921 19.7036 10.2451 20.0126C11.2507 21.1383 12.7479 21.1279 13.747 20.0119C14.0233 19.7033 14.4974 19.6771 14.8061 19.9534C15.1147 20.2297 15.1409 20.7038 14.8646 21.0124C13.2751 22.7879 10.7342 22.8118 9.12645 21.0118C8.85051 20.7029 8.87725 20.2288 9.18617 19.9528Z" fill="#262626"/>
</svg>
