<svg width="240" height="240" viewBox="0 0 240 240" fill="none" xmlns="http://www.w3.org/2000/svg">
<path d="M213.082 158.496H126.322C124.771 158.496 123.509 157.233 123.509 155.683V29.3086C123.509 27.7582 124.771 26.4958 126.322 26.4958H213.082C214.632 26.4958 215.895 27.7582 215.895 29.3086V155.683C215.895 157.233 214.632 158.496 213.082 158.496ZM126.322 26.6158C124.839 26.6158 123.629 27.8254 123.629 29.3086V155.683C123.629 157.166 124.839 158.376 126.322 158.376H213.082C214.565 158.376 215.775 157.166 215.775 155.683V29.3086C215.775 27.8254 214.565 26.6158 213.082 26.6158H126.322Z" fill="#E0E0E0"/>
<path d="M113.036 158.496H26.2803C24.7299 158.496 23.4675 157.233 23.4675 155.683V29.3086C23.4675 27.7582 24.7299 26.4958 26.2803 26.4958H113.036C114.586 26.4958 115.848 27.7582 115.848 29.3086V155.683C115.848 157.233 114.586 158.496 113.036 158.496ZM26.2803 26.6158C24.7971 26.6158 23.5875 27.8254 23.5875 29.3086V155.683C23.5875 157.166 24.7971 158.376 26.2803 158.376H113.036C114.519 158.376 115.728 157.166 115.728 155.683V29.3086C115.728 27.8254 114.519 26.6158 113.036 26.6158H26.2803Z" fill="#E0E0E0"/>
<path d="M240 187.81H0V187.93H240V187.81Z" fill="#E0E0E0"/>
<path d="M32.5106 194.654H24.8018V194.774H32.5106V194.654Z" fill="#E0E0E0"/>
<path d="M107.462 193.354H81.7681V193.474H107.462V193.354Z" fill="#E0E0E0"/>
<path d="M50.3905 199.114H32.9905V199.234H50.3905V199.114Z" fill="#E0E0E0"/>
<path d="M202.339 193.291H181.608V193.411H202.339V193.291Z" fill="#E0E0E0"/>
<path d="M209.654 193.291H206.616V193.411H209.654V193.291Z" fill="#E0E0E0"/>
<path d="M177.648 196.281H151.781V196.401H177.648V196.281Z" fill="#E0E0E0"/>
<path d="M67.3966 23.659C66.4702 22.9582 65.1118 22.8766 64.1086 23.467C62.7742 20.7742 59.0638 19.5838 56.4142 21.0046C55.723 18.1006 52.8622 15.8734 49.8814 15.907C46.8958 15.9406 44.0926 18.2398 43.4734 21.1582C43.3726 21.6238 43.3102 22.1278 42.979 22.4686C42.4414 23.0206 41.539 22.8334 40.771 22.7758C38.3566 22.5886 35.923 24.283 35.2654 26.6158L68.539 26.4958C68.8318 25.3678 68.3278 24.3598 67.4014 23.659H67.3966Z" fill="#F5F5F5"/>
<path d="M207.149 31.1281C206.222 30.4273 204.864 30.3457 203.861 30.9361C202.526 28.2433 198.816 27.0529 196.166 28.4737C195.475 25.5697 192.614 23.3425 189.634 23.3761C186.648 23.4097 183.845 25.7089 183.226 28.6273C183.125 29.0929 183.062 29.5969 182.731 29.9377C182.194 30.4897 181.291 30.3025 180.523 30.2449C178.109 30.0577 175.675 31.7521 175.018 34.0849L208.291 33.9649C208.584 32.8369 208.08 31.8289 207.154 31.1281H207.149Z" fill="#F5F5F5"/>
<path d="M225.36 93.0047C224.434 92.3039 223.075 92.2223 222.072 92.8127C220.738 90.1199 217.027 88.9295 214.378 90.3503C213.686 87.4463 210.826 85.2191 207.845 85.2527C204.859 85.2863 202.056 87.5855 201.437 90.5039C201.336 90.9695 201.274 91.4735 200.942 91.8143C200.405 92.3663 199.502 92.1791 198.734 92.1215C196.32 91.9343 193.886 93.6287 193.229 95.9615L226.502 95.8415C226.795 94.7135 226.291 93.7055 225.365 93.0047H225.36Z" fill="#EBEBEB"/>
<path d="M48.9985 81.1538C47.8465 80.285 46.1712 80.1842 44.9232 80.9138C43.272 77.5778 38.6689 76.1042 35.3857 77.861C34.5313 74.2658 30.9841 71.501 27.288 71.5442C23.5921 71.5874 20.1169 74.4386 19.3441 78.053C19.2241 78.629 19.1425 79.2578 18.7297 79.6754C18.0625 80.357 16.9489 80.1266 15.9937 80.0546C12.9985 79.8194 9.98885 81.9218 9.17285 84.8114L50.4001 84.6626C50.7601 83.2658 50.1409 82.0178 48.9888 81.149L48.9985 81.1538Z" fill="#F5F5F5"/>
<path d="M61.8097 121.401C60.6577 120.533 58.9825 120.432 57.7345 121.161C56.0833 117.825 51.4801 116.352 48.1969 118.109C47.3425 114.513 43.7953 111.749 40.0993 111.792C36.4033 111.835 32.9281 114.686 32.1553 118.301C32.0353 118.877 31.9537 119.505 31.5409 119.923C30.8737 120.605 29.7601 120.374 28.8049 120.302C25.8097 120.067 22.8001 122.169 21.9841 125.059L63.2113 124.91C63.5713 123.513 62.9521 122.265 61.8001 121.397L61.8097 121.401Z" fill="#F5F5F5"/>
<path d="M140.549 18.4898C139.55 17.7362 138.091 17.6498 137.011 18.2834C135.576 15.3842 131.578 14.1026 128.726 15.6338C127.982 12.509 124.906 10.109 121.69 10.1474C118.478 10.1858 115.459 12.6626 114.787 15.8018C114.682 16.301 114.61 16.8482 114.254 17.213C113.674 17.8034 112.704 17.6066 111.878 17.5442C109.277 17.3426 106.661 19.1666 105.95 21.677L141.773 21.5474C142.085 20.333 141.547 19.2482 140.549 18.4946V18.4898Z" fill="#EBEBEB"/>
<path d="M220.262 213.672C220.262 215.299 175.373 216.614 120 216.614C64.6272 216.614 19.7375 215.294 19.7375 213.672C19.7375 212.05 64.6272 210.73 120 210.73C175.373 210.73 220.262 212.05 220.262 213.672Z" fill="#F5F5F5"/>
<path d="M206.621 50.6447H33.0767V212.438H206.621V50.6447Z" fill="#165246"/>
<path opacity="0.3" d="M206.621 50.6447H33.0767V212.438H206.621V50.6447Z" fill="white"/>
<path d="M132.965 73.2191H38.8462V145.512H132.965V73.2191Z" fill="#165246"/>
<path d="M203.357 71.5487H139.018V212.438H203.357V71.5487Z" fill="#263238"/>
<path opacity="0.8" d="M132.965 73.2191H38.8462V145.512H132.965V73.2191Z" fill="white"/>
<path d="M197.424 79.9536H145.819V140.683H197.424V79.9536Z" fill="#165246"/>
<path opacity="0.8" d="M197.424 79.9536H145.819V140.683H197.424V79.9536Z" fill="white"/>
<path opacity="0.6" d="M182.889 79.9536L145.819 111.893V123.326L197.169 79.9536H182.889Z" fill="white"/>
<path opacity="0.6" d="M197.428 87.269L145.819 131.184V136.69L197.428 93.4562V87.269Z" fill="white"/>
<path opacity="0.6" d="M99.739 73.2191L39.187 112.915V128.424L119.107 73.2191H99.739Z" fill="white"/>
<path opacity="0.6" d="M132.96 73.2191L38.8462 138.941V145.512H40.1422L133.022 81.2015L132.96 73.2191Z" fill="white"/>
<path d="M151.785 151.085C151.785 152.871 150.34 154.315 148.555 154.315C146.769 154.315 145.324 152.871 145.324 151.085C145.324 149.299 146.769 147.855 148.555 147.855C150.34 147.855 151.785 149.299 151.785 151.085Z" fill="#165246"/>
<path d="M135.782 144.874H36.0864V150.835H135.782V144.874Z" fill="#263238"/>
<path opacity="0.3" d="M130.229 198.01H46.0127V159.36H130.229V198.01ZM46.4927 197.53H129.749V159.84H46.4927V197.53Z" fill="white"/>
<path opacity="0.3" d="M125.712 193.901H50.6975V163.464H125.712V193.901ZM51.1775 193.421H125.232V163.944H51.1775V193.421Z" fill="white"/>
<path d="M44.9375 32.5201L26.0303 51.5377H213.485L195.264 32.5201H44.9375Z" fill="#165246"/>
<path d="M26.0303 51.5376C26.0303 57.7536 30.7007 62.7936 36.4655 62.7936C42.2303 62.7936 46.9439 57.7536 46.9439 51.5376H26.0303Z" fill="#165246"/>
<path d="M46.9441 51.5376C46.9441 57.7536 51.6145 62.7936 57.3793 62.7936C63.1441 62.7936 67.8577 57.7536 67.8577 51.5376H46.9441Z" fill="#165246"/>
<path d="M67.8577 51.5376C67.8577 57.7536 72.5281 62.7936 78.2929 62.7936C84.0577 62.7936 88.7713 57.7536 88.7713 51.5376H67.8577Z" fill="#165246"/>
<path d="M88.771 51.5376C88.771 57.7536 93.4414 62.7936 99.2062 62.7936C104.971 62.7936 109.641 57.7536 109.641 51.5376H88.771Z" fill="#165246"/>
<path d="M109.685 51.5376C109.685 57.7536 114.355 62.7936 120.12 62.7936C125.885 62.7936 130.555 57.7536 130.555 51.5376H109.685Z" fill="#165246"/>
<path d="M130.598 51.5376C130.598 57.7536 135.269 62.7936 141.034 62.7936C146.798 62.7936 151.469 57.7536 151.469 51.5376H130.598Z" fill="#165246"/>
<path d="M151.512 51.5376C151.512 57.7536 156.182 62.7936 161.947 62.7936C167.712 62.7936 172.382 57.7536 172.382 51.5376H151.512Z" fill="#165246"/>
<path d="M172.426 51.5376C172.426 57.7536 177.096 62.7936 182.861 62.7936C188.626 62.7936 192.758 57.7536 192.758 51.5376H172.426Z" fill="#165246"/>
<path d="M193.152 51.5376C193.152 57.7536 197.823 62.7936 203.587 62.7936C209.352 62.7936 213.485 57.7536 213.485 51.5376H193.152Z" fill="#165246"/>
<path opacity="0.5" d="M46.9439 51.5377L57.3791 32.5201H44.9375L26.0303 51.5377H46.9439Z" fill="white"/>
<path opacity="0.5" d="M67.8576 51.5377C67.8144 51.5377 75.6336 32.5201 75.6336 32.5201H90.5088L88.7712 51.5377H67.8576Z" fill="white"/>
<path opacity="0.5" d="M124.891 32.5201H108.283L109.685 51.5377H130.598L124.891 32.5201Z" fill="white"/>
<path opacity="0.5" d="M151.512 51.5377L151.19 50.6017L143.885 32.5201H159.787L172.426 51.5377" fill="white"/>
<path opacity="0.6" d="M26.0303 51.5376C26.0303 57.7536 30.7007 62.7936 36.4655 62.7936C42.2303 62.7936 46.9439 57.7536 46.9439 51.5376H26.0303Z" fill="white"/>
<path opacity="0.6" d="M67.8577 51.5376C67.8577 57.7536 72.5281 62.7936 78.2929 62.7936C84.0577 62.7936 88.7713 57.7536 88.7713 51.5376H67.8577Z" fill="white"/>
<path opacity="0.6" d="M109.685 51.5376C109.685 57.7536 114.355 62.7936 120.12 62.7936C125.885 62.7936 130.555 57.7536 130.555 51.5376H109.685Z" fill="white"/>
<path opacity="0.6" d="M151.512 51.5376C151.512 57.7536 156.182 62.7936 161.947 62.7936C167.712 62.7936 172.382 57.7536 172.382 51.5376H151.512Z" fill="white"/>
<path opacity="0.5" d="M193.152 51.5377L178.848 32.5201H195.264L213.485 51.5377H193.152Z" fill="white"/>
<path opacity="0.6" d="M193.152 51.5376C193.152 57.7536 197.823 62.7936 203.587 62.7936C209.352 62.7936 213.485 57.7536 213.485 51.5376H193.152Z" fill="white"/>
<path d="M155.88 103.541L155.544 103.195L171.629 87.3601L187.085 103.2L186.744 103.536L171.619 88.0417L155.88 103.541Z" fill="#263238"/>
<path d="M188.28 103.018H154.085V123.168H188.28V103.018Z" fill="#165246"/>
<path d="M186.259 105.101H156.086V121.09H186.259V105.101Z" fill="#263238"/>
<path d="M164.889 112.552C164.889 113.115 164.788 113.601 164.584 114.011C164.381 114.421 164.102 114.738 163.748 114.96C163.393 115.182 162.988 115.294 162.533 115.294C162.078 115.294 161.673 115.182 161.319 114.96C160.964 114.738 160.685 114.421 160.482 114.011C160.279 113.601 160.177 113.115 160.177 112.552C160.177 111.989 160.279 111.502 160.482 111.092C160.685 110.682 160.964 110.366 161.319 110.144C161.673 109.921 162.078 109.81 162.533 109.81C162.988 109.81 163.393 109.921 163.748 110.144C164.102 110.366 164.381 110.682 164.584 111.092C164.788 111.502 164.889 111.989 164.889 112.552ZM164.264 112.552C164.264 112.09 164.186 111.7 164.032 111.382C163.879 111.064 163.671 110.823 163.409 110.66C163.148 110.496 162.856 110.415 162.533 110.415C162.21 110.415 161.917 110.496 161.655 110.66C161.394 110.823 161.187 111.064 161.032 111.382C160.879 111.7 160.803 112.09 160.803 112.552C160.803 113.014 160.879 113.404 161.032 113.722C161.187 114.04 161.394 114.281 161.655 114.444C161.917 114.607 162.21 114.689 162.533 114.689C162.856 114.689 163.148 114.607 163.409 114.444C163.671 114.281 163.879 114.04 164.032 113.722C164.186 113.404 164.264 113.014 164.264 112.552ZM165.976 115.221V109.883H167.78C168.198 109.883 168.541 109.959 168.806 110.11C169.074 110.259 169.272 110.462 169.401 110.717C169.529 110.973 169.593 111.257 169.593 111.572C169.593 111.886 169.529 112.172 169.401 112.429C169.274 112.687 169.077 112.892 168.812 113.044C168.546 113.196 168.205 113.271 167.79 113.271H166.497V112.698H167.769C168.056 112.698 168.286 112.648 168.46 112.549C168.634 112.45 168.759 112.316 168.838 112.148C168.918 111.978 168.958 111.786 168.958 111.572C168.958 111.358 168.918 111.167 168.838 110.999C168.759 110.83 168.633 110.698 168.457 110.602C168.282 110.505 168.049 110.456 167.759 110.456H166.622V115.221H165.976ZM170.635 115.221V109.883H173.856V110.456H171.281V112.26H173.689V112.833H171.281V114.647H173.898V115.221H170.635ZM179.254 109.883V115.221H178.628L175.719 111.03H175.667V115.221H175.021V109.883H175.647L178.566 114.084H178.618V109.883H179.254Z" fill="white"/>
<path d="M95.0255 220.939L85.6943 160.214H57.0383L59.8895 220.939H63.4703L63.1487 213.614L90.1631 213.595L91.4735 220.939H95.0255Z" fill="#165246"/>
<path opacity="0.5" d="M95.0255 220.939L85.6943 160.214H57.0383L59.8895 220.939H63.4703L63.1487 213.614L90.1631 213.595L91.4735 220.939H95.0255Z" fill="black"/>
<path d="M74.9423 220.939L85.6943 160.214H50.5535L40.6079 220.939H44.6159L45.7391 213.389L72.3743 213.734L71.2511 220.939H74.9423Z" fill="#165246"/>
<path d="M73.4973 208.075L80.8797 164.333H53.4429L46.0605 208.075H73.4973Z" fill="#263238"/>
<path opacity="0.3" d="M47.2221 208.075L54.4509 165.485H80.6877L80.8797 164.333H53.4429L46.0605 208.075H47.2221Z" fill="black"/>
<path d="M59.1142 182.464L57.2392 175.607H58.083L59.516 181.192H59.583L61.0428 175.607H61.9803L63.4401 181.192H63.5071L64.9401 175.607H65.7838L63.9088 182.464H63.0517L61.5383 177H61.4847L59.9714 182.464H59.1142ZM66.8445 182.464V175.392H71.1129V176.151H67.701V178.541H70.8919V179.301H67.701V181.704H71.1682V182.464H66.8445Z" fill="white"/>
<path d="M59.0491 187.933H58.5644L59.9662 184.115H60.4435L61.8453 187.933H61.3606L60.2198 184.719H60.1899L59.0491 187.933ZM59.228 186.442H61.1817V186.852H59.228V186.442ZM62.44 187.933V184.115H63.73C64.0282 184.115 64.2731 184.166 64.4644 184.268C64.6558 184.369 64.7975 184.507 64.8895 184.684C64.9814 184.86 65.0274 185.061 65.0274 185.286C65.0274 185.511 64.9814 185.71 64.8895 185.884C64.7975 186.058 64.6564 186.195 64.4663 186.294C64.2762 186.392 64.0332 186.442 63.7374 186.442H62.6935V186.024H63.7225C63.9263 186.024 64.0904 185.994 64.2146 185.934C64.3402 185.875 64.4309 185.79 64.4868 185.681C64.544 185.57 64.5726 185.439 64.5726 185.286C64.5726 185.133 64.544 184.999 64.4868 184.885C64.4296 184.771 64.3383 184.682 64.2128 184.62C64.0873 184.557 63.9214 184.525 63.7151 184.525H62.9023V187.933H62.44ZM64.237 186.218L65.1765 187.933H64.6397L63.7151 186.218H64.237ZM65.7978 187.933V184.115H68.1019V184.525H66.2601V185.815H67.9826V186.225H66.2601V187.523H68.1317V187.933H65.7978Z" fill="white"/>
<path d="M56.728 193.245C56.728 193.812 56.6256 194.302 56.4209 194.715C56.2162 195.128 55.9354 195.446 55.5785 195.67C55.2216 195.894 54.8139 196.006 54.3555 196.006C53.8972 196.006 53.4895 195.894 53.1326 195.67C52.7757 195.446 52.4949 195.128 52.2902 194.715C52.0855 194.302 51.9831 193.812 51.9831 193.245C51.9831 192.679 52.0855 192.189 52.2902 191.776C52.4949 191.363 52.7757 191.044 53.1326 190.82C53.4895 190.597 53.8972 190.485 54.3555 190.485C54.8139 190.485 55.2216 190.597 55.5785 190.82C55.9354 191.044 56.2162 191.363 56.4209 191.776C56.6256 192.189 56.728 192.679 56.728 193.245ZM56.0981 193.245C56.0981 192.78 56.0203 192.387 55.8646 192.067C55.7106 191.747 55.5015 191.505 55.2373 191.34C54.9749 191.176 54.681 191.093 54.3555 191.093C54.0301 191.093 53.7353 191.176 53.4711 191.34C53.2087 191.505 52.9996 191.747 52.8439 192.067C52.69 192.387 52.613 192.78 52.613 193.245C52.613 193.711 52.69 194.104 52.8439 194.424C52.9996 194.744 53.2087 194.986 53.4711 195.151C53.7353 195.315 54.0301 195.397 54.3555 195.397C54.681 195.397 54.9749 195.315 55.2373 195.151C55.5015 194.986 55.7106 194.744 55.8646 194.424C56.0203 194.104 56.0981 193.711 56.0981 193.245ZM57.8428 195.933V190.389H59.7159C60.1508 190.389 60.5063 190.468 60.7824 190.625C61.0603 190.78 61.266 190.99 61.3995 191.255C61.5331 191.521 61.5998 191.817 61.5998 192.143C61.5998 192.47 61.5331 192.767 61.3995 193.034C61.2678 193.301 61.0639 193.514 60.7878 193.673C60.5117 193.83 60.158 193.908 59.7267 193.908H58.3841V193.313H59.7051C60.0028 193.313 60.2419 193.261 60.4224 193.158C60.6028 193.055 60.7337 192.916 60.8149 192.741C60.8979 192.565 60.9394 192.365 60.9394 192.143C60.9394 191.921 60.8979 191.723 60.8149 191.548C60.7337 191.373 60.6019 191.236 60.4197 191.136C60.2374 191.035 59.9956 190.985 59.6942 190.985H58.5141V195.933H57.8428ZM62.6812 195.933V190.389H66.0268V190.985H63.3525V192.858H65.8536V193.453H63.3525V195.337H66.0702V195.933H62.6812ZM71.6327 190.389V195.933H70.983L67.9622 191.58H67.9081V195.933H67.2368V190.389H67.8864L70.9181 194.753H70.9722V190.389H71.6327Z" fill="white"/>
<path opacity="0.3" d="M62.5965 172.061C61.8957 170.577 61.1901 169.089 60.4893 167.606C60.2925 167.189 59.6685 167.554 59.8653 167.971C60.5661 169.454 61.2717 170.942 61.9725 172.426C62.1693 172.843 62.7933 172.478 62.5965 172.061Z" fill="white"/>
<path opacity="0.3" d="M65.803 172.584C66.0622 170.923 66.3214 169.262 66.5806 167.602C66.6094 167.41 66.5326 167.218 66.331 167.16C66.163 167.112 65.9182 167.218 65.8894 167.41C65.6302 169.07 65.371 170.731 65.1118 172.392C65.083 172.584 65.1598 172.776 65.3614 172.834C65.5294 172.882 65.7742 172.776 65.803 172.584Z" fill="white"/>
<path opacity="0.3" d="M67.8046 173.194C69.1486 171.413 70.6558 169.762 72.307 168.264C72.6526 167.952 72.139 167.443 71.7982 167.755C70.099 169.296 68.563 171 67.1854 172.829C67.0654 172.987 67.1614 173.232 67.315 173.323C67.4974 173.434 67.6894 173.347 67.8094 173.194H67.8046Z" fill="white"/>
<path opacity="0.3" d="M58.1855 199.742C56.8127 201.125 55.5263 202.593 54.3311 204.129C54.2111 204.283 54.1823 204.489 54.3311 204.638C54.4559 204.763 54.7199 204.792 54.8399 204.638C56.0351 203.097 57.3215 201.633 58.6943 200.251C59.0207 199.92 58.5119 199.411 58.1855 199.742Z" fill="white"/>
<path opacity="0.3" d="M60.7535 199.805C60.3983 201.782 60.2927 203.798 60.4511 205.805C60.4895 206.266 61.2095 206.266 61.1711 205.805C61.0127 203.866 61.0991 201.912 61.4447 199.997C61.5263 199.546 60.8303 199.349 60.7487 199.805H60.7535Z" fill="white"/>
<path opacity="0.3" d="M63.7823 200.266C64.5455 201.773 65.491 203.136 66.5086 204.485C66.6238 204.638 66.8206 204.72 67.003 204.614C67.1566 204.523 67.2478 204.278 67.1326 204.12C66.115 202.771 65.1694 201.408 64.4062 199.901C64.195 199.488 63.5759 199.853 63.7823 200.266Z" fill="white"/>
<path d="M221.289 139.234C213.633 148.186 211.401 161.438 215.693 172.411C220.464 168.154 223.824 161.664 224.035 155.986C224.246 150.307 222.763 144.72 221.289 139.234Z" fill="#165246"/>
<path d="M219.955 173.443C217.358 177.422 216.115 182.27 216.475 187.008C220.613 185.568 224.261 180.893 226.45 177.096C228.638 173.299 229.858 169.037 230.971 164.798C226.488 166.378 222.552 169.464 219.955 173.443Z" fill="#165246"/>
<path d="M218.976 154.867C215.904 165.907 214.339 177.35 214.344 188.808C214.344 192.086 214.478 195.365 214.733 198.634C214.752 198.864 215.112 198.864 215.093 198.634C214.195 187.166 214.862 175.589 217.099 164.304C217.723 161.16 218.467 158.045 219.326 154.958C219.389 154.733 219.043 154.642 218.981 154.862L218.976 154.867Z" fill="#263238"/>
<path d="M214.867 190.757C218.011 183.278 222.139 176.275 226.91 169.728C227.045 169.541 226.733 169.358 226.598 169.545C221.808 176.121 217.675 183.149 214.522 190.656C214.43 190.867 214.781 190.963 214.867 190.752V190.757Z" fill="#263238"/>
<path d="M210.389 179.645C212.554 182.962 213.59 187.003 213.288 190.954C209.837 189.754 206.798 185.856 204.974 182.688C203.15 179.52 202.133 175.968 201.202 172.435C204.941 173.751 208.219 176.328 210.389 179.645Z" fill="#165246"/>
<path d="M214.771 193.57C212.193 187.435 208.785 181.752 204.873 176.386C204.739 176.198 204.427 176.381 204.561 176.568C208.454 181.91 211.857 187.565 214.421 193.666C214.507 193.877 214.857 193.786 214.766 193.57H214.771Z" fill="#263238"/>
<path d="M214.887 195.629C219.754 190.618 224.727 185.712 229.594 180.701C229.757 180.533 229.503 180.278 229.339 180.446C224.472 185.458 219.499 190.363 214.632 195.374C214.469 195.542 214.723 195.797 214.887 195.629Z" fill="#263238"/>
<path d="M229.762 178.382C225.538 182.458 221.688 186.922 218.28 191.698H219.053C222.269 191.549 225.389 189.96 227.405 187.454C229.421 184.949 230.304 181.555 229.762 178.382Z" fill="#165246"/>
<path d="M209.745 168.677C211.56 171.643 213.269 174.672 214.867 177.759C214.973 177.965 215.285 177.783 215.179 177.576C213.576 174.49 211.867 171.461 210.057 168.495C209.937 168.298 209.625 168.48 209.745 168.677Z" fill="#263238"/>
<path d="M205.392 153.691C204.701 156.802 204.014 160.848 204.01 164.088C204.005 167.328 204.989 170.491 206.832 172.661C208.675 174.83 212.39 175.781 213.888 174.542L205.397 153.691H205.392Z" fill="#165246"/>
<path d="M223.747 197.059H205.296V200.477H223.747V197.059Z" fill="#263238"/>
<path d="M220.762 212.659H209.304L207.221 199.694H222.408L220.762 212.659Z" fill="#263238"/>
<path opacity="0.2" d="M207.36 200.539H222.303L222.115 202.008H207.595L207.36 200.539Z" fill="black"/>
<path d="M21.0238 138.71C28.6798 147.662 30.9118 160.915 26.6206 171.888C21.8494 167.63 18.4894 161.141 18.2782 155.462C18.067 149.784 19.5502 144.197 21.0238 138.71Z" fill="#165246"/>
<path d="M22.3583 172.92C24.9551 176.899 26.1983 181.747 25.8383 186.485C21.7007 185.045 18.0527 180.37 15.8639 176.573C13.6751 172.776 12.4559 168.514 11.3423 164.275C15.8255 165.854 19.7615 168.941 22.3583 172.92Z" fill="#165246"/>
<path d="M22.9872 154.435C26.0688 165.518 27.6336 177.005 27.6048 188.51C27.6 191.712 27.4656 194.914 27.216 198.11C27.1968 198.341 27.5568 198.341 27.576 198.11C28.4688 186.686 27.8064 175.157 25.6032 163.91C24.9744 160.694 24.2112 157.502 23.3328 154.339C23.2704 154.118 22.9248 154.21 22.9872 154.435Z" fill="#263238"/>
<path d="M27.7921 190.138C24.6385 182.63 20.5057 175.598 15.7153 169.027C15.5809 168.84 15.2689 169.022 15.4033 169.21C20.1745 175.757 24.3025 182.76 27.4465 190.238C27.5329 190.45 27.8833 190.358 27.7921 190.142V190.138Z" fill="#263238"/>
<path d="M31.9248 179.121C29.76 182.438 28.7232 186.48 29.0256 190.43C32.4768 189.23 35.5152 185.333 37.3392 182.165C39.1632 178.997 40.1808 175.445 41.112 171.912C37.3728 173.227 34.0944 175.805 31.9248 179.121Z" fill="#165246"/>
<path d="M27.8881 193.138C30.4561 187.037 33.8545 181.378 37.7473 176.04C37.8817 175.853 37.5697 175.67 37.4353 175.858C33.5233 181.229 30.1153 186.912 27.5377 193.042C27.4465 193.253 27.7969 193.349 27.8833 193.138H27.8881Z" fill="#263238"/>
<path d="M27.6765 194.846C22.8093 189.835 17.8365 184.93 12.9693 179.918C12.8061 179.75 12.5517 180.005 12.7149 180.173C17.5821 185.184 22.5549 190.09 27.4221 195.101C27.5853 195.269 27.8397 195.014 27.6765 194.846Z" fill="#263238"/>
<path d="M12.5472 177.855C16.7712 181.93 20.6208 186.394 24.0288 191.17H23.256C20.04 191.021 16.92 189.432 14.904 186.927C12.888 184.421 12.0048 181.028 12.5472 177.855Z" fill="#165246"/>
<path d="M32.2513 167.971C30.4369 170.938 28.7281 173.967 27.1297 177.053C27.0241 177.259 27.3361 177.442 27.4417 177.235C29.0449 174.149 30.7537 171.12 32.5633 168.154C32.6833 167.957 32.3713 167.775 32.2513 167.971Z" fill="#263238"/>
<path d="M36.9167 153.163C37.6079 156.273 38.2943 160.32 38.3039 163.56C38.3087 166.8 37.3247 169.963 35.4815 172.133C33.6383 174.302 29.9231 175.253 28.4255 174.014L36.9167 153.163Z" fill="#165246"/>
<path d="M18.5615 199.954H37.0127V196.536H18.5615V199.954Z" fill="#263238"/>
<path d="M21.5471 212.136H33.0095L35.0879 199.166H19.9055L21.5471 212.136Z" fill="#263238"/>
<path opacity="0.2" d="M34.9536 200.016H20.0112L20.1984 201.485H34.7184L34.9536 200.016Z" fill="black"/>
<path d="M108.375 107.011L99.4274 114.254L98.1554 102.605H94.9538C94.9538 102.605 94.6034 114.317 94.5506 115.776C94.4978 117.182 94.7522 118.56 95.189 119.693C95.9138 121.579 98.213 122.294 99.917 121.21L110.674 114.379L112.935 105.082L111.163 105.514C110.151 105.835 109.205 106.344 108.379 107.011H108.375Z" fill="#B97964"/>
<path d="M98.1649 102.951C98.1649 102.951 99.2017 102.053 99.2785 100.925C99.3553 99.7971 99.7153 98.9091 99.7105 98.0691C99.7105 97.2243 98.9665 98.0931 98.6641 98.6355C98.3617 99.1779 98.0161 99.7875 97.6465 99.4947C97.2769 99.2067 95.7841 95.4579 95.2273 95.1123C94.6705 94.7667 94.7233 95.4531 94.7233 95.4531C94.7233 95.4531 94.3345 94.5507 93.9361 94.6131C93.8305 94.6275 93.6145 94.8339 93.7297 95.2707C93.9841 96.2595 94.6177 98.2995 94.6177 98.2995C94.5841 98.1795 93.6193 95.7171 93.4225 95.3667C93.1729 94.9107 92.8177 94.8243 92.5585 94.9827C92.1889 95.2035 93.2833 98.2995 93.2353 98.4627C93.2353 98.4627 92.6641 96.6579 92.1217 96.5523C91.5745 96.4467 91.8721 97.6035 92.3281 98.5731C92.7457 99.4611 93.3313 101.314 93.8449 102.173C94.4737 103.234 95.1361 103.8 96.2881 103.671C97.4401 103.536 98.1601 102.96 98.1601 102.96L98.1649 102.951Z" fill="#B97964"/>
<path opacity="0.2" d="M99.4272 114.25C99.4272 114.25 99.6384 115.085 99.4272 116.165C99.4272 116.165 100.824 114.96 100.469 113.405L99.4272 114.25Z" fill="black"/>
<path opacity="0.2" d="M95.8273 97.8625C95.7793 97.8625 95.7361 97.8337 95.7169 97.7905C95.3905 97.0081 95.0161 96.2305 94.6081 95.4865C94.5745 95.4289 94.5985 95.3569 94.6561 95.3233C94.7137 95.2897 94.7857 95.3137 94.8193 95.3713C95.2321 96.1249 95.6065 96.9073 95.9377 97.6993C95.9617 97.7617 95.9377 97.8289 95.8753 97.8577C95.8609 97.8625 95.8465 97.8673 95.8273 97.8673V97.8625Z" fill="black"/>
<path opacity="0.2" d="M93.8689 99.6335C93.8353 99.6335 93.7969 99.6191 93.7729 99.5855C93.7345 99.5327 93.7441 99.4559 93.7969 99.4175C94.4737 98.8943 95.2225 98.4815 96.0241 98.1887C96.0865 98.1647 96.1537 98.1983 96.1777 98.2607C96.2017 98.3231 96.1681 98.3903 96.1057 98.4143C95.3281 98.7023 94.5985 99.1055 93.9409 99.6095C93.9169 99.6239 93.8929 99.6335 93.8689 99.6335Z" fill="black"/>
<path d="M132.758 217.234L128.611 217.637L126.346 207.053L132.758 206.453V217.234Z" fill="#B97964"/>
<path d="M128.011 215.808H129.49C129.826 215.808 130.133 215.976 130.335 216.249C131.189 217.416 131.832 216.974 132.759 215.88C133.349 215.813 133.507 216.489 133.555 216.672L134.664 220.699C134.76 221.035 134.563 221.385 134.227 221.481C134.17 221.501 134.107 221.505 134.045 221.505H122.314C120.447 221.505 120.063 219.624 120.831 219.451C124.287 218.688 126.735 217.67 127.8 216.667C127.997 216.489 127.795 216.36 128.011 215.813V215.808Z" fill="#263238"/>
<path d="M125.803 217.181C126.269 217.171 126.735 217.109 127.191 217.003C127.234 216.989 127.258 216.941 127.239 216.898C127.229 216.874 127.21 216.855 127.191 216.85C126.984 216.749 125.131 215.885 124.666 216.211C124.579 216.269 124.531 216.37 124.546 216.471C124.546 216.663 124.642 216.84 124.795 216.955C125.098 217.138 125.448 217.215 125.799 217.181H125.803ZM126.903 216.893C126.355 216.994 125.343 217.128 124.92 216.816C124.81 216.73 124.743 216.6 124.738 216.461C124.728 216.418 124.747 216.375 124.786 216.351C125.04 216.173 126.135 216.552 126.903 216.893Z" fill="#165246"/>
<path d="M127.171 217.003C127.171 217.003 127.21 217.008 127.229 217.003C127.253 216.984 127.263 216.946 127.253 216.917C127.253 216.84 126.816 215.016 125.803 215.131C125.554 215.165 125.482 215.285 125.472 215.386C125.41 215.871 126.576 216.783 127.128 217.013L127.171 216.999V217.003ZM125.904 215.28C126.547 215.28 126.917 216.346 127.047 216.768C126.442 216.451 125.597 215.688 125.65 215.395C125.65 215.371 125.65 215.304 125.837 215.285H125.904V215.28Z" fill="#165246"/>
<path d="M128.242 217.882C128.203 217.882 128.165 217.863 128.141 217.824C127.886 217.416 127.445 217.133 126.97 217.071C126.902 217.061 126.859 217.003 126.869 216.936C126.878 216.869 126.936 216.831 127.003 216.835C127.55 216.912 128.05 217.234 128.347 217.699C128.381 217.757 128.366 217.829 128.309 217.863C128.29 217.877 128.266 217.882 128.246 217.882H128.242Z" fill="#165246"/>
<path d="M127.32 218.573C127.282 218.573 127.243 218.554 127.219 218.516C126.965 218.108 126.523 217.824 126.048 217.762C125.981 217.752 125.938 217.695 125.947 217.628C125.957 217.56 126.015 217.522 126.082 217.527C126.629 217.604 127.128 217.925 127.426 218.391C127.459 218.448 127.445 218.52 127.387 218.554C127.368 218.568 127.344 218.573 127.325 218.573H127.32Z" fill="#165246"/>
<path d="M126.178 219.154C126.139 219.154 126.101 219.134 126.077 219.096C125.822 218.688 125.381 218.405 124.906 218.342C124.838 218.333 124.795 218.275 124.805 218.208C124.814 218.141 124.872 218.102 124.939 218.107C125.486 218.184 125.986 218.506 126.283 218.971C126.317 219.029 126.302 219.101 126.245 219.134C126.226 219.149 126.202 219.154 126.182 219.154H126.178Z" fill="#165246"/>
<path d="M112.661 216.912L108.514 217.315L106.594 206.693L112.488 206.055L112.661 216.912Z" fill="#B97964"/>
<path d="M107.914 215.486H109.392C109.728 215.486 110.035 215.654 110.237 215.928C111.091 217.094 111.734 216.653 112.661 215.558C113.251 215.491 113.41 216.168 113.458 216.35L114.566 220.378C114.662 220.714 114.466 221.064 114.13 221.16C114.072 221.179 114.01 221.184 113.947 221.184H102.216C100.349 221.184 99.9649 219.302 100.733 219.13C104.189 218.366 106.637 217.349 107.702 216.346C107.899 216.168 107.698 216.038 107.914 215.491V215.486Z" fill="#263238"/>
<path d="M105.706 216.859C106.171 216.85 106.637 216.787 107.093 216.682C107.136 216.667 107.16 216.619 107.141 216.576C107.131 216.552 107.112 216.533 107.093 216.528C106.886 216.427 105.034 215.563 104.568 215.89C104.482 215.947 104.434 216.048 104.448 216.149C104.448 216.341 104.544 216.518 104.698 216.634C105 216.816 105.35 216.893 105.701 216.859H105.706ZM106.805 216.571C106.258 216.672 105.245 216.806 104.822 216.494C104.712 216.408 104.645 216.278 104.64 216.139C104.63 216.096 104.65 216.053 104.688 216.029C104.942 215.851 106.037 216.23 106.805 216.571Z" fill="#165246"/>
<path d="M107.074 216.686C107.074 216.686 107.112 216.691 107.131 216.686C107.155 216.662 107.165 216.629 107.155 216.6C107.155 216.523 106.718 214.699 105.706 214.814C105.456 214.848 105.384 214.968 105.374 215.069C105.312 215.554 106.478 216.466 107.03 216.696L107.074 216.682V216.686ZM105.806 214.963C106.45 214.963 106.819 216.029 106.949 216.451C106.344 216.134 105.499 215.371 105.552 215.078C105.552 215.054 105.552 214.987 105.739 214.968H105.806V214.963Z" fill="#165246"/>
<path d="M108.144 217.56C108.106 217.56 108.067 217.541 108.043 217.502C107.789 217.094 107.347 216.811 106.872 216.749C106.805 216.739 106.762 216.682 106.771 216.614C106.781 216.547 106.843 216.504 106.906 216.514C107.453 216.59 107.952 216.912 108.25 217.378C108.283 217.435 108.269 217.507 108.211 217.541C108.192 217.555 108.168 217.56 108.149 217.56H108.144Z" fill="#165246"/>
<path d="M107.223 218.251C107.184 218.251 107.146 218.232 107.122 218.194C106.867 217.786 106.426 217.503 105.951 217.44C105.883 217.431 105.84 217.368 105.85 217.306C105.859 217.239 105.922 217.195 105.984 217.205C106.531 217.282 107.031 217.603 107.328 218.069C107.362 218.127 107.347 218.199 107.29 218.232C107.271 218.247 107.247 218.251 107.227 218.251H107.223Z" fill="#165246"/>
<path d="M106.08 218.832C106.042 218.832 106.003 218.813 105.979 218.775C105.725 218.367 105.283 218.083 104.808 218.021C104.741 218.011 104.698 217.954 104.707 217.887C104.717 217.819 104.779 217.776 104.842 217.786C105.389 217.863 105.888 218.184 106.186 218.65C106.219 218.707 106.205 218.779 106.147 218.813C106.128 218.827 106.104 218.832 106.085 218.832H106.08Z" fill="#165246"/>
<path d="M105.994 138.327C105.696 139.21 102.346 167.573 102.384 173.693C102.418 178.647 106.248 212.059 106.248 212.059L113.463 211.81C113.463 211.81 113.088 195.317 113.299 189.591C113.511 183.864 112.133 173.107 112.133 173.107L120.768 147.283L120.442 138.619L105.984 138.331L105.994 138.327Z" fill="#263238"/>
<path d="M131.784 176.429C131.592 175.603 131.29 173.923 130.92 171.71C130.93 171.71 130.944 171.706 130.954 171.701C130.68 168.773 131.621 153.605 130.695 144.946C129.984 139.426 128.664 136.493 127.248 134.664C127.176 134.568 127.109 134.486 127.047 134.41C126.811 134.117 126.667 133.954 126.667 133.954C126.399 134.021 126.13 134.083 125.861 134.141C125.76 134.165 125.659 134.184 125.563 134.203C115.536 136.301 107.055 133.296 107.055 133.296C106.133 135.576 105.629 141.23 104.952 146.266C105.999 147.418 110.079 148.483 115.359 149.477L116.866 156.288C117.658 160.512 118.675 164.65 119.539 168.379L120.442 172.464C120.495 172.733 120.552 172.997 120.6 173.256C121.056 175.603 126.207 212.803 126.207 212.803L133.536 212.923C133.536 212.923 134.347 187.622 131.779 176.429H131.784Z" fill="#263238"/>
<path d="M111.423 104.909C107.707 106.819 102.955 110.856 102.955 110.856L107.179 118.33C107.179 118.33 115.882 112.402 114.965 110.213C114.01 107.933 113.967 104.511 111.423 104.909Z" fill="#263238"/>
<g opacity="0.3">
<path d="M109.368 109.637C108.903 110.434 108.739 110.89 108.451 111.807C108.159 112.723 108 114.394 107.928 115.258L109.503 115.714C109.44 113.607 109.431 111.749 109.373 109.642L109.368 109.637Z" fill="black"/>
</g>
<path d="M129.96 115.906L132.312 107.324C130.671 104.876 122.799 102.74 122.799 102.74L117.452 103.032C117.452 103.032 115.397 103.488 113.636 104.064C111.288 104.832 110.016 105.447 109.46 106.748C109.46 106.748 108.48 109.632 109.071 115.584C109.234 117.221 109.047 125.727 108.591 128.535L106.181 135.672C115.949 143.28 128.098 135.164 128.098 135.164C127.661 133.82 127.364 132.327 127.167 131.016C127.311 129.341 127.109 126.759 127.82 123.826C127.959 123.26 129.725 116.453 129.96 115.906Z" fill="#263238"/>
<path opacity="0.3" d="M129.139 118.334C129.139 118.334 125.395 113.616 126.029 111.657L129.883 115.262L129.139 118.334Z" fill="black"/>
<path d="M128.448 107.174C128.688 107.333 130.546 106.397 132.615 108.955C134.467 111.245 143.299 120.341 143.011 123.533C142.752 126.384 130.723 135.413 130.723 135.413L128.736 132.662L136.599 122.947L129.154 116.213L128.443 107.174H128.448Z" fill="#B97964"/>
<path d="M130.786 106.229C132.898 106.695 136.603 112.119 136.603 112.119L130.071 117.528C130.071 117.528 125.995 112.695 126.336 109.935C126.629 107.602 128.107 105.634 130.791 106.229H130.786Z" fill="#263238"/>
<path d="M108.739 112.834C108.725 112.464 109.022 112.167 109.392 112.176C112.344 112.258 124.061 112.195 124.555 112.973C125.126 113.866 124.253 125.367 125.232 126.475C126.211 127.584 127.378 127.426 127.378 127.426L127.315 129.97C127.315 129.97 126.274 129.538 125.957 130.435C125.64 131.333 128.554 171.528 126.403 172.263C124.253 172.997 103.378 174.547 101.995 172.263C100.608 169.978 104.136 141.547 105.336 135.595C106.536 129.643 107.626 125.635 108.274 122.688C108.912 119.779 108.802 114.667 108.739 112.834Z" fill="#EDE869"/>
<path d="M110.054 115.709C110.054 115.709 111.36 105.682 112.066 104.63C112.766 103.579 115.094 103.368 115.094 103.368C115.094 103.368 114.086 104.194 113.669 105.802C113.251 107.41 112.138 116.165 112.138 116.165L110.054 115.709Z" fill="#165246"/>
<path d="M120.341 114.994C120.341 114.994 122.347 104.131 125.131 103.368L127.224 104.064C127.224 104.064 122.875 108.168 122.789 115.397L120.341 114.994Z" fill="#165246"/>
<path opacity="0.3" d="M107.246 140.237C107.246 140.237 117.206 141.043 121.306 140.237C121.306 140.237 121.709 148.728 119.914 150.269C117.864 152.026 107.683 152.904 107.237 148.147C106.939 144.984 107.246 140.237 107.246 140.237Z" fill="black"/>
<path opacity="0.3" d="M111.816 113.04C111.816 113.242 111.653 113.41 111.446 113.41C111.24 113.41 111.077 113.246 111.077 113.04C111.077 112.834 111.24 112.67 111.446 112.67C111.653 112.67 111.816 112.834 111.816 113.04Z" fill="black"/>
<path opacity="0.3" d="M122.338 113.04C122.338 113.242 122.174 113.41 121.968 113.41C121.762 113.41 121.598 113.246 121.598 113.04C121.598 112.834 121.762 112.67 121.968 112.67C122.174 112.67 122.338 112.834 122.338 113.04Z" fill="black"/>
<path d="M135.307 101.386C134.991 100.891 134.4 100.603 133.877 100.277C131.895 99.0287 130.767 96.9407 130.191 94.8383C129.615 92.7359 129.504 90.5567 129.106 88.4207C128.923 87.4559 128.669 86.4671 128.035 85.6703C127.402 84.8687 125.443 83.6015 124.046 85.4303L124.037 88.5407C123.49 90.0095 123.557 91.6031 123.754 93.1391C123.951 94.6751 122.88 92.3039 122.803 93.8495C122.755 94.7759 122.823 98.9663 122.803 99.8927C122.779 100.824 124.071 102.432 124.651 103.205C125.381 104.174 126.672 104.693 127.954 104.923C129.61 105.226 131.357 105.12 132.955 104.621C133.733 104.376 134.501 104.026 135.01 103.445C135.518 102.864 135.711 102.019 135.303 101.381L135.307 101.386Z" fill="#263238"/>
<path d="M124.075 85.1855C124.896 85.3295 125.544 86.0015 125.89 86.7599C126.12 87.2639 126.24 87.8351 126.144 88.3775C126.048 88.9247 125.717 89.4431 125.218 89.6831C124.719 89.9231 124.056 89.8415 123.687 89.4287C123.351 89.0543 123.298 88.4975 123.399 88.0031C123.495 87.5087 123.72 87.0527 123.883 86.5775C124.042 86.1023 124.138 85.5743 123.975 85.1039" fill="#165246"/>
<path d="M124.051 103.08C124.051 103.08 122.395 104.357 120.259 106.195C119.813 106.579 119.323 106.91 118.805 107.184C117.408 107.928 116.803 107.736 116.458 107.064C116.381 106.915 116.218 106.493 116.174 106.325C115.882 105.197 115.435 104.486 116.347 103.762C117.374 102.941 117.874 102.24 117.686 101.131C117.59 100.502 117.36 99.8544 117.096 99.2256L117.907 98.28L122.141 94.0032C122.035 96.8592 121.819 101.534 124.051 103.085V103.08Z" fill="#B97964"/>
<path opacity="0.2" d="M117.72 101.371C118.886 100.68 120.163 99.4803 120.01 98.1123C119.942 97.5363 119.818 96.9891 119.678 96.6387L117.312 99.7731C117.504 100.277 117.576 100.613 117.72 101.376V101.371Z" fill="black"/>
<path d="M123.341 89.4144C122.943 93.768 122.866 95.6112 120.619 97.896C117.24 101.328 112.047 100.176 111.149 95.8608C110.343 91.9776 111.13 85.512 115.402 83.6832C119.611 81.8832 123.739 85.0656 123.336 89.4144H123.341Z" fill="#B97964"/>
<path d="M117.922 90.7872C117.898 91.1952 117.648 91.5312 117.36 91.536C117.072 91.5408 116.861 91.2144 116.885 90.8112C116.909 90.4032 117.159 90.0672 117.442 90.0624C117.73 90.0576 117.941 90.384 117.917 90.7872H117.922Z" fill="#263238"/>
<path d="M113.41 90.7247C113.386 91.1183 113.136 91.4447 112.853 91.4495C112.57 91.4543 112.354 91.1423 112.378 90.7439C112.402 90.3503 112.651 90.0239 112.935 90.0191C113.218 90.0143 113.434 90.3263 113.41 90.7247Z" fill="#263238"/>
<path d="M118.666 89.1119C118.613 89.1263 118.555 89.1167 118.507 89.0831C117.759 88.5599 117.039 88.8767 117.034 88.8815C116.928 88.9295 116.808 88.8815 116.765 88.7711C116.727 88.6607 116.779 88.5311 116.885 88.4831C116.923 88.4639 117.826 88.0656 118.752 88.7136C118.843 88.7808 118.863 88.9151 118.795 89.0159C118.762 89.0639 118.714 89.0975 118.666 89.1071V89.1119Z" fill="#263238"/>
<path d="M111.869 88.968C111.821 88.9488 111.778 88.9104 111.759 88.8624C111.715 88.7568 111.773 88.6368 111.883 88.5888C113.011 88.128 113.837 88.6416 113.871 88.6656C113.967 88.728 113.991 88.8576 113.919 88.9488C113.847 89.0448 113.712 89.0688 113.611 89.0112C113.578 88.992 112.935 88.6032 112.037 88.968C111.979 88.992 111.917 88.992 111.864 88.968H111.869Z" fill="#263238"/>
<path d="M121.488 92.1457C121.488 92.1457 120.144 90.1153 120.701 86.1649C120.792 85.5025 120.375 84.8737 119.717 84.7489C117.84 84.3841 115.33 82.0177 112.267 86.7217C112.267 86.7217 113.827 80.7409 122.28 83.3569C127.719 85.0369 124.68 91.8289 123.893 92.4913C123.111 93.1537 121.488 92.1505 121.488 92.1505V92.1457Z" fill="#263238"/>
<path d="M124.656 92.9616C124.142 93.8544 123.307 94.416 122.539 94.608C121.387 94.896 120.792 93.0432 121.186 91.8912C121.541 90.8544 122.674 90.1632 123.792 90.3888C124.896 90.6144 125.242 91.9392 124.656 92.9616Z" fill="#B97964"/>
<path d="M114.581 90.6047C114.581 90.6047 113.899 92.2319 113.131 93.2495C112.997 93.4271 113.078 93.6863 113.29 93.7631C113.827 93.9599 114.456 93.7823 114.456 93.7823L114.581 90.6047Z" fill="#A24E3F"/>
<path d="M117.528 90.0481L116.53 89.8129C116.53 89.8129 117.077 90.5569 117.528 90.0481Z" fill="#263238"/>
<path d="M113.035 90.0289L112.037 89.7937C112.037 89.7937 112.584 90.5377 113.035 90.0289Z" fill="#263238"/>
<path d="M121.195 83.069C117.384 80.5057 113.41 82.6898 113.41 82.6898C108.854 85.3346 110.866 89.7938 110.866 89.7938C114.053 88.1042 115.608 87.4609 118.666 85.6993C117.95 86.8417 119.165 88.4497 120.504 89.6305C121.843 90.8113 121.45 91.3249 121.45 91.3249C125.069 87.3649 125.006 85.6322 121.195 83.0642V83.069Z" fill="#263238"/>
<path opacity="0.2" d="M122.414 93.408C122.357 93.408 122.309 93.3696 122.294 93.3072C122.222 92.9232 122.256 92.5248 122.385 92.1552C122.472 91.9056 122.649 91.5648 122.981 91.368C123.307 91.176 123.72 91.1904 123.984 91.4016C124.037 91.4448 124.041 91.5168 124.003 91.5696C123.96 91.6224 123.883 91.6272 123.835 91.5888C123.653 91.44 123.345 91.4304 123.105 91.5744C122.837 91.7328 122.693 92.0208 122.616 92.232C122.501 92.5632 122.472 92.9184 122.534 93.2592C122.544 93.3264 122.501 93.3888 122.438 93.3984C122.433 93.3984 122.424 93.3984 122.419 93.3984L122.414 93.408Z" fill="black"/>
<path d="M114.725 95.0257C115.066 95.5153 115.493 96.4657 115.493 96.4657C115.584 96.4417 115.68 96.4177 115.771 96.3937C117.029 96.0529 117.499 95.4769 117.638 94.9441C117.715 94.6513 117.686 94.3681 117.638 94.1473C117.581 93.8881 117.485 93.7201 117.485 93.7201C116.928 94.3009 115.776 94.7089 115.157 94.9009C114.898 94.9825 114.73 95.0257 114.73 95.0257H114.725Z" fill="#263238"/>
<path d="M115.152 94.9009L115.387 95.3185C116.573 94.9921 117.36 94.6081 117.634 94.1473C117.576 93.8881 117.48 93.7201 117.48 93.7201C116.923 94.3009 115.771 94.7089 115.152 94.9009Z" fill="white"/>
<path d="M115.766 96.3938C117.024 96.053 117.494 95.477 117.634 94.9442C117.211 95.0786 116.712 95.285 116.314 95.6018C116.006 95.8418 115.848 96.125 115.766 96.3938Z" fill="#DC5753"/>
<path opacity="0.3" d="M136.603 122.947C136.603 122.947 137.304 122.51 138.749 122.558C138.749 122.558 137.645 121.406 135.912 122.318L136.603 122.947Z" fill="black"/>
<path d="M129.091 133.142C129.091 133.142 127.363 130.709 126.629 130.55C125.894 130.392 122.534 130.805 122.467 131.285C122.405 131.765 122.914 131.827 122.914 131.827L122.083 132.787C122.083 132.787 122.083 133.075 122.467 133.138C122.467 133.138 122.501 133.843 122.885 133.872C123.269 133.906 124.771 133.392 124.771 133.392L123.523 134.256C123.523 134.256 123.331 134.578 124.291 134.482C125.251 134.386 125.587 133.906 125.587 133.906C125.587 133.906 127.81 135.792 128.899 135.792C129.989 135.792 130.723 135.408 130.723 135.408L129.091 133.138V133.142Z" fill="#B97964"/>
</svg>
