<svg width="240" height="240" viewBox="0 0 240 240" fill="none" xmlns="http://www.w3.org/2000/svg">
<path d="M240 183.552H0V183.672H240V183.552Z" fill="#EBEBEB"/>
<path d="M171.686 186.821H155.789V186.941H171.686V186.821Z" fill="#EBEBEB"/>
<path d="M209.885 187.872H205.714V187.992H209.885V187.872Z" fill="#EBEBEB"/>
<path d="M181.382 191.275H172.171V191.395H181.382V191.275Z" fill="#EBEBEB"/>
<path d="M120 189.653H99.2688V189.773H120V189.653Z" fill="#EBEBEB"/>
<path d="M94.992 189.653H91.9536V189.773H94.992V189.653Z" fill="#EBEBEB"/>
<path d="M82.0753 187.627H37.1089V187.747H82.0753V187.627Z" fill="#EBEBEB"/>
<path d="M113.76 162.144H21.0768C20.3507 162.143 19.6548 161.853 19.1419 161.339C18.6289 160.826 18.3408 160.129 18.3408 159.403V29.1167C18.3471 28.3948 18.638 27.7045 19.1503 27.1958C19.6626 26.6872 20.3549 26.4011 21.0768 26.3999H113.76C114.487 26.3999 115.184 26.6887 115.698 27.2027C116.212 27.7167 116.501 28.4138 116.501 29.1407V159.403C116.501 160.13 116.212 160.827 115.698 161.341C115.184 161.855 114.487 162.144 113.76 162.144ZM21.0768 26.4959C20.3826 26.4972 19.7172 26.7739 19.2267 27.2652C18.7363 27.7566 18.4608 28.4225 18.4608 29.1167V159.403C18.4608 160.097 18.7363 160.763 19.2267 161.255C19.7172 161.746 20.3826 162.023 21.0768 162.024H113.76C114.455 162.023 115.121 161.746 115.612 161.255C116.103 160.764 116.38 160.098 116.381 159.403V29.1167C116.38 28.422 116.103 27.7561 115.612 27.2649C115.121 26.7737 114.455 26.4972 113.76 26.4959H21.0768Z" fill="#EBEBEB"/>
<path d="M217.589 162.144H124.901C124.174 162.143 123.478 161.853 122.964 161.34C122.45 160.826 122.161 160.13 122.16 159.403V29.1167C122.167 28.3944 122.459 27.7041 122.972 27.1955C123.486 26.687 124.178 26.4011 124.901 26.3999H217.589C218.31 26.4024 219.001 26.689 219.512 27.1975C220.023 27.7061 220.314 28.3956 220.32 29.1167V159.403C220.32 160.128 220.032 160.824 219.521 161.338C219.009 161.851 218.314 162.141 217.589 162.144ZM124.901 26.4959C124.206 26.4972 123.54 26.7737 123.049 27.2649C122.558 27.7561 122.281 28.422 122.28 29.1167V159.403C122.281 160.098 122.558 160.764 123.049 161.255C123.54 161.746 124.206 162.023 124.901 162.024H217.589C218.283 162.023 218.949 161.746 219.44 161.255C219.932 160.764 220.208 160.098 220.21 159.403V29.1167C220.208 28.422 219.932 27.7561 219.44 27.2649C218.949 26.7737 218.283 26.4972 217.589 26.4959H124.901Z" fill="#EBEBEB"/>
<path d="M115.2 152.885C115.171 152.208 115.114 151.521 115.023 150.83C114.063 143.601 109.834 137.16 104.04 132.96C104.049 132.329 104.01 131.699 103.925 131.073C102.965 124.07 96.5377 118.392 89.5249 118.392C88.1462 118.386 86.7771 118.62 85.4785 119.083C80.5681 112.536 72.7441 108.168 64.4929 108.168C61.8241 108.155 59.1765 108.643 56.6881 109.608C53.9953 105.715 49.4881 103.075 44.6881 103.075C37.6849 103.075 32.7697 108.753 33.7153 115.757C33.8335 116.641 34.0393 117.51 34.3297 118.353C25.3345 121.233 19.6849 129.945 21.0769 140.265C21.3022 141.922 21.6963 143.551 22.2529 145.128C15.2929 148.901 11.2129 156.648 12.4177 165.585C13.3777 172.877 17.6977 179.366 23.5441 183.561H118.008C121.517 179.419 123.259 173.76 122.4 167.52C121.616 162.001 119.094 156.874 115.2 152.885Z" fill="#F0F0F0"/>
<path d="M231.413 145.147C231.662 144.297 231.893 143.438 232.061 142.569C233.947 133.521 231.725 125.457 226.733 120.197C227.002 119.424 227.222 118.635 227.39 117.835C229.219 109.061 224.088 101.952 215.933 101.952C214.229 101.962 212.539 102.256 210.931 102.821C207.941 94.6126 200.64 89.1406 191.04 89.1406C187.728 89.1624 184.447 89.7719 181.349 90.9406C179.846 86.0638 175.694 82.7806 170.136 82.7806C161.976 82.7806 153.888 89.8894 152.059 98.659C151.835 99.7298 151.713 100.82 151.694 101.913C140.026 105.504 129.802 116.429 127.109 129.35C126.691 131.354 126.47 133.394 126.451 135.441C116.77 140.165 108.782 149.865 106.454 161.064C104.534 170.184 106.819 178.32 111.902 183.571H221.89C227.87 178.295 232.018 171.253 233.731 163.464C235.2 156.48 234.206 150.115 231.413 145.147Z" fill="#F0F0F0"/>
<path d="M25.92 54.5615H21.9216V137.443H25.92V54.5615Z" fill="#E0E0E0"/>
<path d="M27.3601 52.9583H20.4817V54.5567H27.3601V52.9583Z" fill="#E0E0E0"/>
<path d="M24.24 26.3758L24.72 19.4974L23.9184 16.6174L23.1216 19.4974L23.6016 26.3758H24.24Z" fill="#E0E0E0"/>
<path d="M27.36 52.9583H20.4816L15.6816 33.1199H32.16L27.36 52.9583Z" fill="#F5F5F5"/>
<path d="M25.6224 52.9583H22.2144L19.8384 33.1199H27.9984L25.6224 52.9583Z" fill="#FAFAFA"/>
<path d="M29.6016 179.841H18.24L20.5392 137.438H27.3024L29.6016 179.841Z" fill="#E0E0E0"/>
<path d="M35.2513 183.552V179.842H12.5857V183.552" fill="#E0E0E0"/>
<path d="M23.9184 23.9711C21.4928 23.9723 19.167 24.9368 17.4523 26.6524C15.7376 28.368 14.7744 30.6943 14.7744 33.1199H33.0672C33.0672 31.9184 32.8306 30.7288 32.3708 29.6188C31.911 28.5088 31.2371 27.5002 30.3876 26.6507C29.538 25.8011 28.5295 25.1273 27.4195 24.6675C26.3095 24.2077 25.1199 23.9711 23.9184 23.9711Z" fill="#E0E0E0"/>
<path d="M25.4687 21.7582C25.4697 22.0651 25.3795 22.3653 25.2098 22.6209C25.04 22.8765 24.7982 23.076 24.515 23.194C24.2317 23.3121 23.9199 23.3435 23.6188 23.2842C23.3177 23.225 23.041 23.0777 22.8237 22.861C22.6064 22.6444 22.4583 22.3682 22.3981 22.0673C22.3379 21.7664 22.3683 21.4544 22.4855 21.1708C22.6027 20.8873 22.8014 20.6448 23.0565 20.4743C23.3115 20.3037 23.6115 20.2126 23.9183 20.2126C24.3287 20.2126 24.7223 20.3753 25.0129 20.665C25.3035 20.9548 25.4674 21.3479 25.4687 21.7582Z" fill="#E0E0E0"/>
<path d="M120 205.229C171.4 205.229 213.067 202.796 213.067 199.795C213.067 196.794 171.4 194.362 120 194.362C68.6005 194.362 26.9329 196.794 26.9329 199.795C26.9329 202.796 68.6005 205.229 120 205.229Z" fill="#F5F5F5"/>
<path d="M193.013 51.3984H46.9873V198.394H193.013V51.3984Z" fill="#165246"/>
<path d="M154.551 66.2784H85.4497C84.5908 66.2784 83.8945 66.9747 83.8945 67.8336V81.2016C83.8945 82.0606 84.5908 82.7568 85.4497 82.7568H154.551C155.409 82.7568 156.106 82.0606 156.106 81.2016V67.8336C156.106 66.9747 155.409 66.2784 154.551 66.2784Z" fill="white"/>
<path d="M152.506 68.4144H87.4896C87.0628 68.4144 86.7168 68.7604 86.7168 69.1872V79.8528C86.7168 80.2796 87.0628 80.6256 87.4896 80.6256H152.506C152.932 80.6256 153.278 80.2796 153.278 79.8528V69.1872C153.278 68.7604 152.932 68.4144 152.506 68.4144Z" fill="#165246"/>
<path d="M89.8752 76.8672L93.7152 76.6272C93.7457 77.1411 93.9112 77.6378 94.1952 78.0672C94.4082 78.3307 94.6807 78.5399 94.9903 78.6776C95.2999 78.8153 95.6377 78.8775 95.976 78.8592C96.4549 78.8903 96.9289 78.7471 97.3104 78.456C97.4584 78.3432 97.5786 78.198 97.6618 78.0316C97.745 77.8652 97.789 77.682 97.7904 77.496C97.7874 77.3217 97.7464 77.1502 97.6701 76.9935C97.5938 76.8368 97.4841 76.6986 97.3488 76.5888C97.0512 76.32 96.36 76.0656 95.28 75.8304C93.5088 75.432 92.2512 74.904 91.4928 74.2464C91.1263 73.9375 90.8338 73.5503 90.6369 73.1133C90.44 72.6763 90.3438 72.2007 90.3552 71.7216C90.3536 71.038 90.5558 70.3696 90.936 69.8016C91.3706 69.1702 91.9817 68.681 92.6928 68.3952C93.7183 68.0116 94.8101 67.837 95.904 67.8816C97.5696 67.8816 98.8464 68.1936 99.744 68.8128C100.201 69.1659 100.578 69.6129 100.848 70.1238C101.118 70.6347 101.275 71.1975 101.309 71.7744L97.5024 72C97.4915 71.7565 97.4306 71.5179 97.3236 71.299C97.2165 71.0801 97.0655 70.8856 96.88 70.7276C96.6945 70.5695 96.4784 70.4514 96.2453 70.3804C96.0122 70.3095 95.7669 70.2873 95.5248 70.3152C95.149 70.2887 94.7756 70.3939 94.4688 70.6128C94.3574 70.698 94.267 70.8076 94.2045 70.9333C94.1421 71.0589 94.1094 71.1973 94.1088 71.3376C94.1122 71.4477 94.1407 71.5556 94.1923 71.653C94.2439 71.7503 94.3172 71.8346 94.4064 71.8992C94.8163 72.158 95.2787 72.322 95.76 72.3792C97.0632 72.6137 98.3343 73.0003 99.5472 73.5312C100.227 73.8443 100.805 74.3435 101.213 74.9712C101.559 75.5514 101.74 76.2154 101.736 76.8912C101.738 77.7143 101.496 78.5195 101.04 79.2048C100.566 79.9222 99.8896 80.4821 99.096 80.8128C98.0982 81.2083 97.0297 81.3946 95.9568 81.36C93.736 81.36 92.1968 80.9328 91.3392 80.0784C90.4802 79.2194 89.9603 78.079 89.8752 76.8672Z" fill="white"/>
<path d="M105.408 68.1312H109.44V72.7008H113.846V68.1312H117.902V81.1872H113.846V75.9072H109.44V81.1872H105.408V68.1312Z" fill="white"/>
<path d="M121.718 74.6687C121.718 72.5375 122.312 70.8783 123.499 69.6911C124.686 68.5039 126.341 67.9087 128.462 67.9055C130.638 67.9055 132.312 68.4895 133.483 69.6575C134.654 70.8255 135.243 72.4607 135.25 74.5631C135.298 75.8583 135.033 77.1459 134.477 78.3167C133.975 79.2795 133.2 80.0727 132.25 80.5967C131.135 81.1703 129.893 81.4496 128.64 81.4079C127.385 81.4527 126.136 81.2131 124.987 80.7071C124 80.2154 123.183 79.4397 122.64 78.4799C121.995 77.3156 121.677 75.9989 121.718 74.6687ZM125.755 74.6687C125.755 75.9839 126 76.9295 126.49 77.5055C126.749 77.7756 127.061 77.9904 127.406 78.1371C127.751 78.2839 128.121 78.3595 128.496 78.3595C128.871 78.3595 129.242 78.2839 129.586 78.1371C129.931 77.9904 130.243 77.7756 130.502 77.5055C130.979 76.9423 131.216 75.9295 131.213 74.4671C131.213 73.2383 130.968 72.3407 130.469 71.7743C130.217 71.4914 129.906 71.2683 129.557 71.1213C129.208 70.9743 128.831 70.9071 128.453 70.9247C128.082 70.9114 127.714 70.9822 127.374 71.1318C127.035 71.2815 126.734 71.5061 126.494 71.7887C126 72.4031 125.76 73.3535 125.76 74.6879L125.755 74.6687Z" fill="white"/>
<path d="M139.046 68.1312H145.766C147.226 68.1312 148.32 68.4784 149.05 69.1728C149.427 69.5646 149.719 70.0307 149.906 70.5414C150.094 71.0521 150.173 71.5962 150.139 72.1392C150.171 72.7094 150.081 73.2797 149.876 73.8125C149.67 74.3454 149.355 74.8287 148.949 75.2304C148.157 75.9696 146.947 76.344 145.32 76.344H143.112V81.1872H139.061L139.046 68.1312ZM143.098 73.6992H144.086C144.663 73.7537 145.24 73.6098 145.723 73.2912C145.877 73.1666 146 73.0083 146.084 72.8286C146.167 72.6488 146.208 72.4524 146.203 72.2544C146.207 72.062 146.173 71.8707 146.102 71.6918C146.031 71.5129 145.925 71.3501 145.79 71.2128C145.522 70.9248 145.008 70.7856 144.25 70.7856H143.102L143.098 73.6992Z" fill="white"/>
<path opacity="0.5" d="M58.128 87.7681H181.872C182.58 87.7681 183.259 88.0492 183.759 88.5497C184.26 89.0502 184.541 89.7291 184.541 90.4369V198.389H55.4592V90.4417C55.4586 90.0908 55.5272 89.7432 55.661 89.4189C55.7948 89.0945 55.9913 88.7998 56.2392 88.5514C56.4871 88.3031 56.7815 88.1061 57.1056 87.9717C57.4297 87.8373 57.7772 87.7681 58.128 87.7681Z" fill="white"/>
<path opacity="0.4" d="M197.76 100.296V108.715L180.754 110.736L164.966 112.618L152.342 114.115L140.947 115.469L139.728 112.248L138.422 108.806L138.254 113.981L138.197 115.795L136.55 115.992L123.926 117.494L108.139 119.371L95.5104 120.869L79.7232 122.746L67.0944 124.248L51.3072 126.125L42.24 127.2V118.786L59.2464 116.765L75.0336 114.888L87.6528 113.386L98.7312 112.07L103.45 111.514L116.074 110.011V110.006L131.861 108.134L144.49 106.627L160.277 104.75L172.906 103.253L188.693 101.376L197.76 100.296Z" fill="#165246"/>
<path opacity="0.4" d="M197.76 178.867L42.24 142.781V134.366L197.76 170.448V178.867Z" fill="#165246"/>
<path d="M46.9824 198.394H41.7792C41.2076 198.394 40.6594 198.166 40.2553 197.762C39.8511 197.358 39.624 196.81 39.624 196.238L39.624 51.3984H46.9824L46.9824 198.394Z" fill="#263238"/>
<path d="M198.221 198.394H193.018L193.018 51.3983H200.376L200.376 196.234C200.377 196.517 200.321 196.798 200.213 197.06C200.105 197.322 199.947 197.56 199.746 197.761C199.546 197.961 199.308 198.12 199.047 198.229C198.785 198.338 198.504 198.394 198.221 198.394Z" fill="#263238"/>
<path opacity="0.3" d="M153.509 87.7681H136.968L108.23 198.394H124.766L153.509 87.7681Z" fill="white"/>
<path opacity="0.3" d="M165.691 87.7681H158.64L129.898 198.394H136.954L165.691 87.7681Z" fill="white"/>
<path opacity="0.3" d="M107.534 87.7681H100.478L71.7361 198.394H78.7921L107.534 87.7681Z" fill="white"/>
<path d="M122.563 86.088H117.442V198.394H122.563V86.088Z" fill="#165246"/>
<path d="M210.134 55.7808L189.974 29.1168H50.0305L29.8705 55.7808C27.5665 59.2176 28.5937 62.136 32.2705 62.136C35.9473 62.136 40.6081 59.2176 42.5857 55.7808H42.7585C40.7857 59.2176 42.0913 62.136 45.7681 62.136C49.4449 62.136 53.8273 59.2176 55.4737 55.7808H55.6465C54.0049 59.2176 55.5889 62.136 59.2657 62.136C62.9425 62.136 67.0417 59.2176 68.3857 55.7808H68.5585C67.2433 59.2176 69.1105 62.136 72.7873 62.136C76.4641 62.136 80.2849 59.2176 81.2785 55.7808H81.4465C80.4625 59.2176 82.6081 62.136 86.2849 62.136C89.9617 62.136 93.4849 59.2176 94.1665 55.7808H94.3393C93.6817 59.2176 96.1057 62.136 99.7825 62.136C103.459 62.136 106.723 59.2176 107.054 55.7808H107.227C106.901 59.2176 109.603 62.136 113.28 62.136C116.957 62.136 119.942 59.2176 119.942 55.7808H120.115C120.115 59.2176 123.101 62.136 126.778 62.136C130.454 62.136 133.157 59.2176 132.83 55.7808H132.96C133.291 59.2176 136.555 62.136 140.232 62.136C143.909 62.136 146.333 59.2176 145.675 55.7808H145.848C146.51 59.2176 150.053 62.136 153.73 62.136C157.406 62.136 159.552 59.2176 158.568 55.7808H158.736C159.73 59.2176 163.536 62.136 167.227 62.136C170.918 62.136 172.771 59.2176 171.456 55.7808H171.629C172.949 59.2176 177.048 62.136 180.749 62.136C184.45 62.136 186.029 59.2176 184.368 55.7808H184.541C186.187 59.2176 190.57 62.136 194.246 62.136C197.923 62.136 199.229 59.2176 197.256 55.7808H197.429C199.406 59.2176 204.067 62.136 207.744 62.136C211.421 62.136 212.438 59.2176 210.134 55.7808Z" fill="#165246"/>
<path opacity="0.8" d="M210.134 55.7808L189.974 29.1168H50.0305L29.8705 55.7808C27.5665 59.2176 28.5937 62.136 32.2705 62.136C35.9473 62.136 40.6081 59.2176 42.5857 55.7808H42.7585C40.7857 59.2176 42.0913 62.136 45.7681 62.136C49.4449 62.136 53.8273 59.2176 55.4737 55.7808H55.6465C54.0049 59.2176 55.5889 62.136 59.2657 62.136C62.9425 62.136 67.0417 59.2176 68.3857 55.7808H68.5585C67.2433 59.2176 69.1105 62.136 72.7873 62.136C76.4641 62.136 80.2849 59.2176 81.2785 55.7808H81.4465C80.4625 59.2176 82.6081 62.136 86.2849 62.136C89.9617 62.136 93.4849 59.2176 94.1665 55.7808H94.3393C93.6817 59.2176 96.1057 62.136 99.7825 62.136C103.459 62.136 106.723 59.2176 107.054 55.7808H107.227C106.901 59.2176 109.603 62.136 113.28 62.136C116.957 62.136 119.942 59.2176 119.942 55.7808H120.115C120.115 59.2176 123.101 62.136 126.778 62.136C130.454 62.136 133.157 59.2176 132.83 55.7808H132.96C133.291 59.2176 136.555 62.136 140.232 62.136C143.909 62.136 146.333 59.2176 145.675 55.7808H145.848C146.51 59.2176 150.053 62.136 153.73 62.136C157.406 62.136 159.552 59.2176 158.568 55.7808H158.736C159.73 59.2176 163.536 62.136 167.227 62.136C170.918 62.136 172.771 59.2176 171.456 55.7808H171.629C172.949 59.2176 177.048 62.136 180.749 62.136C184.45 62.136 186.029 59.2176 184.368 55.7808H184.541C186.187 59.2176 190.57 62.136 194.246 62.136C197.923 62.136 199.229 59.2176 197.256 55.7808H197.429C199.406 59.2176 204.067 62.136 207.744 62.136C211.421 62.136 212.438 59.2176 210.134 55.7808Z" fill="white"/>
<g opacity="0.2">
<path d="M50.0305 29.1168H59.9041L42.5809 55.7808H29.8657L50.0305 29.1168Z" fill="#165246"/>
<path d="M70.0416 29.1168H79.9152L68.3568 55.7808H55.6416L70.0416 29.1168Z" fill="#165246"/>
<path d="M90.0527 29.1168H99.9215L94.1375 55.7808H81.4175L90.0527 29.1168Z" fill="#165246"/>
<path d="M110.064 29.1168H119.933L119.914 55.7808H107.198L110.064 29.1168Z" fill="#165246"/>
<path d="M130.07 29.1168H139.944L145.69 55.7808H132.974L130.07 29.1168Z" fill="#165246"/>
<path d="M150.082 29.1168H159.955L171.47 55.7808H158.755L150.082 29.1168Z" fill="#165246"/>
<path d="M170.093 29.1168H179.962L197.246 55.7808H184.531L170.093 29.1168Z" fill="#165246"/>
<path d="M184.531 55.7808C186.178 59.2176 190.56 62.136 194.237 62.136C197.914 62.136 199.219 59.2176 197.246 55.7808" fill="#165246"/>
<path d="M158.75 55.7808C159.744 59.2176 163.55 62.136 167.242 62.136C170.933 62.136 172.786 59.2176 171.47 55.7808" fill="#165246"/>
<path d="M132.96 55.7808C133.291 59.2176 136.555 62.136 140.232 62.136C143.909 62.136 146.333 59.2176 145.675 55.7808" fill="#165246"/>
<path d="M107.198 55.7808C106.872 59.2176 109.574 62.136 113.251 62.136C116.928 62.136 119.914 59.2176 119.914 55.7808" fill="#165246"/>
<path d="M81.4176 55.7808C80.4336 59.2176 82.5792 62.136 86.256 62.136C89.9328 62.136 93.456 59.2176 94.1376 55.7808" fill="#165246"/>
<path d="M55.6415 55.7808C53.9999 59.2176 55.5839 62.136 59.2607 62.136C62.9375 62.136 67.0367 59.2176 68.3807 55.7808" fill="#165246"/>
<path d="M29.8656 55.7808C27.5616 59.2176 28.5888 62.136 32.2656 62.136C35.9424 62.136 40.6032 59.2176 42.5808 55.7808" fill="#165246"/>
</g>
<path d="M201.518 175.944L38.4817 139.858V131.438L201.518 167.525V175.944Z" fill="#165246"/>
<path opacity="0.4" d="M201.518 175.944L38.4817 139.858V131.438L201.518 167.525V175.944Z" fill="white"/>
<g opacity="0.6">
<path d="M64.5409 145.622L47.9905 141.96L56.3089 135.384L72.8593 139.046L64.5409 145.622Z" fill="#165246"/>
<path d="M94.3249 152.218L77.7793 148.555L86.0977 141.979L102.648 145.642L94.3249 152.218Z" fill="#165246"/>
<path d="M124.114 158.808L107.563 155.146L115.886 148.57L132.437 152.232L124.114 158.808Z" fill="#165246"/>
<path d="M153.902 165.403L137.352 161.741L145.67 155.165L162.221 158.827L153.902 165.403Z" fill="#165246"/>
<path d="M183.691 171.994L167.141 168.331L175.459 161.755L192.01 165.418L183.691 171.994Z" fill="#165246"/>
</g>
<path d="M201.518 97.3728V105.792L183.691 107.813L167.141 109.69L153.907 111.192L141.96 112.541L140.683 109.32L139.315 105.878L139.138 111.058L139.075 112.872L137.352 113.069L124.114 114.566L107.563 116.443L94.3297 117.946L77.7745 119.822L64.5361 121.32L47.9905 123.197L38.4817 124.277V115.862L56.3089 113.842L72.8593 111.96L86.0881 110.462L97.6993 109.142L102.648 108.586L115.886 107.083L132.432 105.206L145.671 103.704L162.226 101.827L175.464 100.325L192.01 98.448L201.518 97.3728Z" fill="#165246"/>
<path opacity="0.4" d="M201.518 97.3728V105.792L183.691 107.813L167.141 109.69L153.907 111.192L141.96 112.541L140.683 109.32L139.315 105.878L139.138 111.058L139.075 112.872L137.352 113.069L124.114 114.566L107.563 116.443L94.3297 117.946L77.7745 119.822L64.5361 121.32L47.9905 123.197L38.4817 124.277V115.862L56.3089 113.842L72.8593 111.96L86.0881 110.462L97.6993 109.142L102.648 108.586L115.886 107.083L132.432 105.206L145.671 103.704L162.226 101.827L175.464 100.325L192.01 98.448L201.518 97.3728Z" fill="white"/>
<g opacity="0.6">
<path d="M64.536 121.32L47.9856 123.202L56.3088 113.837L72.8592 111.96L64.536 121.32Z" fill="#165246"/>
<path d="M94.3248 117.946L77.7744 119.822L86.0976 110.462L102.648 108.586L94.3248 117.946Z" fill="#165246"/>
<path d="M124.114 114.566L107.563 116.443L115.886 107.083L132.437 105.206L124.114 114.566Z" fill="#165246"/>
<path d="M137.352 113.069L139.138 111.058L139.075 112.872L137.352 113.069Z" fill="white"/>
<path d="M162.226 101.827L153.907 111.192L141.96 112.541L140.683 109.32L145.67 103.704L162.226 101.827Z" fill="#165246"/>
<path d="M183.691 107.813L167.141 109.69L175.464 100.325L192.014 98.448L183.691 107.813Z" fill="#165246"/>
</g>
<path d="M157.493 100.224C158.453 98.0785 162.259 97.0417 165.739 99.2401C169.219 101.439 168.902 106.109 167.381 106.675C171.902 108.202 174.139 117.749 170.342 118.512C171.701 121.282 172.162 131.995 160.742 129.879C149.323 127.762 152.664 118.359 152.664 118.359C152.664 118.359 149.424 110.77 154.507 107.415C152.342 105.6 153.763 99.1633 157.493 100.224Z" fill="#263238"/>
<path d="M161.395 192.37L158.606 193.704L152.649 185.659L156.365 183.139L161.395 192.37Z" fill="#FF8B7B"/>
<path d="M157.973 192.96L160.57 190.646C160.613 190.608 160.668 190.587 160.726 190.587C160.783 190.587 160.839 190.608 160.882 190.646L162.859 192.307C162.907 192.355 162.945 192.412 162.969 192.475C162.993 192.538 163.004 192.606 163 192.673C162.997 192.741 162.979 192.807 162.948 192.867C162.917 192.927 162.874 192.98 162.821 193.022C161.904 193.814 161.424 194.15 160.282 195.168C159.581 195.792 158.184 197.155 157.214 198.019C156.245 198.883 155.41 198.019 155.741 197.587C157.234 195.61 157.512 194.472 157.704 193.45C157.735 193.26 157.83 193.088 157.973 192.96Z" fill="#263238"/>
<path d="M157.44 194.117C157.259 194.309 157.022 194.438 156.763 194.487C156.701 194.489 156.639 194.475 156.584 194.446C156.528 194.418 156.481 194.375 156.446 194.323C156.423 194.292 156.409 194.255 156.404 194.217C156.399 194.178 156.403 194.139 156.418 194.103C156.576 193.704 157.882 193.325 158.03 193.287C158.044 193.282 158.059 193.281 158.073 193.286C158.087 193.29 158.099 193.299 158.107 193.311C158.115 193.323 158.12 193.337 158.12 193.351C158.12 193.366 158.115 193.38 158.107 193.392C157.907 193.653 157.684 193.896 157.44 194.117ZM156.638 194.035C156.601 194.064 156.571 194.102 156.552 194.146C156.544 194.16 156.54 194.175 156.54 194.191C156.54 194.207 156.544 194.223 156.552 194.237C156.574 194.271 156.605 194.299 156.641 194.318C156.677 194.336 156.718 194.345 156.758 194.343C157.003 194.343 157.402 194.016 157.843 193.483C157.413 193.602 157.005 193.788 156.634 194.035H156.638Z" fill="#165246"/>
<path d="M158.083 193.406C157.704 193.536 156.753 193.55 156.581 193.267C156.542 193.2 156.523 193.09 156.662 192.941C156.71 192.887 156.769 192.843 156.834 192.812C156.899 192.78 156.969 192.762 157.042 192.758C157.449 192.809 157.828 192.995 158.117 193.286C158.13 193.301 158.138 193.32 158.138 193.339C158.138 193.359 158.13 193.378 158.117 193.392L158.083 193.406ZM156.768 193.018L156.739 193.046C156.643 193.147 156.672 193.19 156.682 193.205C156.782 193.373 157.473 193.411 157.891 193.32C157.653 193.093 157.345 192.951 157.017 192.917C156.925 192.92 156.837 192.956 156.768 193.018Z" fill="#165246"/>
<path d="M153.005 117.317C152.598 119.192 152.056 121.035 151.382 122.832C151.046 123.748 150.656 124.644 150.216 125.515C149.759 126.446 149.198 127.321 148.545 128.126L148.416 128.285L148.195 128.515C148.001 128.693 147.781 128.841 147.542 128.952C147.029 129.185 146.447 129.217 145.91 129.043C145.541 128.921 145.198 128.733 144.897 128.486C144.664 128.297 144.446 128.09 144.245 127.867C143.579 127.094 143.004 126.246 142.531 125.342C141.643 123.649 140.901 121.882 140.313 120.062C140.259 119.884 140.272 119.692 140.35 119.523C140.429 119.354 140.566 119.22 140.737 119.146C140.908 119.072 141.1 119.063 141.277 119.121C141.454 119.18 141.603 119.301 141.696 119.462C142.133 120.25 142.584 121.056 143.049 121.834C143.515 122.611 143.981 123.384 144.489 124.104C144.943 124.807 145.47 125.459 146.064 126.048C146.182 126.159 146.309 126.26 146.443 126.35C146.558 126.422 146.659 126.456 146.654 126.437C146.564 126.404 146.466 126.404 146.376 126.437L146.289 126.48C146.289 126.48 146.289 126.48 146.289 126.451L146.371 126.341C146.845 125.674 147.245 124.957 147.566 124.205C147.907 123.413 148.224 122.592 148.526 121.752C149.093 120.082 149.587 118.31 150.005 116.611V116.573C150.111 116.195 150.358 115.873 150.696 115.672C151.034 115.472 151.435 115.41 151.818 115.498C152.2 115.587 152.534 115.819 152.749 116.147C152.965 116.475 153.046 116.873 152.976 117.259L153.005 117.317Z" fill="#FF8B7B"/>
<path d="M166.195 197.678L163.205 197.784L160.051 187.162L164.174 186.662L166.195 197.678Z" fill="#FF8B7B"/>
<path d="M163.003 196.829H166.363C166.42 196.826 166.475 196.846 166.517 196.884C166.559 196.921 166.585 196.974 166.589 197.03L166.79 199.675C166.792 199.744 166.779 199.812 166.754 199.876C166.729 199.94 166.692 199.999 166.644 200.048C166.596 200.098 166.539 200.137 166.476 200.165C166.413 200.192 166.345 200.207 166.277 200.208C165.11 200.208 164.549 200.136 163.075 200.146C162.168 200.146 160.838 200.256 159.586 200.266C158.333 200.275 158.347 199.037 158.88 198.917C161.251 198.398 161.669 197.702 162.499 197.035C162.64 196.913 162.817 196.841 163.003 196.829Z" fill="#263238"/>
<path d="M150.182 116.006C149.76 117.979 149.28 122.434 149.28 132.48L161.28 133.541C161.832 129.005 162.288 126.082 165.451 117.95C165.564 117.663 165.613 117.354 165.596 117.045C165.578 116.737 165.495 116.435 165.35 116.162C165.206 115.889 165.004 115.65 164.759 115.461C164.514 115.273 164.231 115.14 163.93 115.07C163.157 114.893 162.264 114.71 161.357 114.59C159.556 114.301 157.737 114.141 155.914 114.11C154.584 114.11 153.144 114.216 152.131 114.302C151.665 114.335 151.222 114.519 150.87 114.827C150.518 115.134 150.277 115.549 150.182 116.006Z" fill="#EDE869"/>
<path opacity="0.2" d="M162.989 117.509C162.936 118.949 163.238 121.143 163.896 122.069C164.107 121.469 164.333 120.835 164.582 120.149L162.989 117.509Z" fill="black"/>
<path d="M161.794 108.384C161.165 110.117 160.296 113.318 161.314 114.6C159.375 115.826 157.338 116.887 155.222 117.773C153.974 114.85 155.87 114.12 155.87 114.12C157.901 113.822 158.088 112.358 157.973 110.962L161.794 108.384Z" fill="#FF8B7B"/>
<path opacity="0.2" d="M160.704 109.699L157.987 110.957C158.016 111.286 158.016 111.617 157.987 111.946C158.553 111.998 160.022 111.566 160.579 110.654C160.735 110.362 160.779 110.022 160.704 109.699Z" fill="black"/>
<path d="M164.299 105.648C163.315 108.437 162.96 109.642 161.107 110.688C158.323 112.267 155.112 110.448 155.242 107.419C155.357 104.693 156.95 100.584 160.042 100.248C160.726 100.168 161.42 100.265 162.057 100.529C162.694 100.794 163.252 101.217 163.679 101.758C164.106 102.3 164.387 102.941 164.496 103.622C164.604 104.303 164.537 105.001 164.299 105.648Z" fill="#FF8B7B"/>
<path d="M158.793 100.224C159.129 101.909 161.275 102.907 162.633 102.734C161.995 103.531 161.289 106.915 163.781 107.39C166.512 106.186 166.781 103.027 165.273 100.92C163.766 98.8129 159.633 98.7361 158.793 100.224Z" fill="#263238"/>
<path d="M158.794 99.8401C156.677 100.32 156.437 102.149 157.589 102.058C159.576 101.885 161.558 99.1825 158.794 99.8401Z" fill="#263238"/>
<path d="M149.28 132.48C149.28 132.48 142.954 159.264 143.52 166.027C144.168 173.933 152.818 186.667 152.818 186.667L156.787 183.062C156.787 183.062 152.842 172.622 149.928 165.826C150.864 159.024 159.12 139.81 159.12 133.339L149.28 132.48Z" fill="#165246"/>
<path opacity="0.4" d="M149.28 132.48C149.28 132.48 142.954 159.264 143.52 166.027C144.168 173.933 152.818 186.667 152.818 186.667L156.787 183.062C156.787 183.062 152.842 172.622 149.928 165.826C150.864 159.024 159.12 139.81 159.12 133.339L149.28 132.48Z" fill="black"/>
<path d="M157.488 183.624L152.798 187.123L151.594 186.211L156.744 182.146L157.488 183.624Z" fill="#165246"/>
<path opacity="0.4" d="M153.946 144.278C150.461 149.102 150.288 157.978 150.509 162.965C151.704 158.386 154.21 151.541 156.206 145.378C156.163 143.011 155.573 142.018 153.946 144.278Z" fill="black"/>
<path d="M151.512 132.518C151.512 132.518 153.254 155.16 154.032 162.965C154.949 172.234 159.792 187.445 159.792 187.445L164.194 186.667C164.194 186.667 161.76 174.312 161.03 166.027C161.165 154.987 163.363 140.51 161.27 133.574L151.512 132.518Z" fill="#165246"/>
<path opacity="0.4" d="M151.512 132.518C151.512 132.518 153.254 155.16 154.032 162.965C154.949 172.234 159.792 187.445 159.792 187.445L164.194 186.667C164.194 186.667 161.76 174.312 161.03 166.027C161.165 154.987 163.363 140.51 161.27 133.574L151.512 132.518Z" fill="black"/>
<path d="M164.616 187.43L159.523 187.968L158.952 186.422L164.669 185.486L164.616 187.43Z" fill="#165246"/>
<path d="M159.331 105C159.269 105.23 159.091 105.384 158.942 105.341C158.794 105.298 158.722 105.077 158.784 104.861C158.846 104.645 159.029 104.477 159.178 104.52C159.326 104.563 159.398 104.77 159.331 105Z" fill="#263238"/>
<path d="M156.72 104.256C156.653 104.486 156.475 104.64 156.326 104.597C156.178 104.554 156.106 104.328 156.173 104.117C156.24 103.906 156.413 103.733 156.562 103.776C156.71 103.819 156.782 104.021 156.72 104.256Z" fill="#263238"/>
<path d="M156.629 103.79L156.115 103.469C156.115 103.469 156.278 103.987 156.629 103.79Z" fill="#263238"/>
<path d="M157.545 105.043C157.189 105.512 156.771 105.93 156.302 106.287C156.396 106.404 156.514 106.5 156.648 106.567C156.782 106.634 156.93 106.671 157.08 106.675L157.545 105.043Z" fill="#FF5652"/>
<path d="M158.213 107.914C158.078 107.898 157.945 107.873 157.814 107.837C157.797 107.83 157.783 107.818 157.775 107.802C157.766 107.787 157.763 107.768 157.766 107.751C157.772 107.732 157.784 107.716 157.801 107.706C157.818 107.696 157.838 107.693 157.858 107.698C158.143 107.787 158.445 107.808 158.739 107.758C159.034 107.708 159.312 107.588 159.552 107.41C159.566 107.4 159.584 107.395 159.601 107.397C159.618 107.399 159.634 107.408 159.646 107.421C159.658 107.433 159.664 107.45 159.665 107.468C159.665 107.485 159.659 107.502 159.648 107.515C159.239 107.83 158.725 107.973 158.213 107.914Z" fill="#263238"/>
<path d="M164.534 108.48C164.112 108.866 163.555 109.069 162.984 109.046C162.225 109.013 162.053 108.499 162.461 107.909C162.869 107.318 163.569 106.714 164.381 106.858C165.086 107.002 165.048 108 164.534 108.48Z" fill="#FF8B7B"/>
<path d="M161.184 104.381C161.166 104.376 161.149 104.368 161.134 104.356C161.119 104.345 161.106 104.33 161.098 104.314C161.012 104.159 160.891 104.026 160.744 103.927C160.597 103.827 160.429 103.764 160.253 103.742C160.234 103.742 160.215 103.737 160.198 103.73C160.181 103.722 160.165 103.711 160.152 103.697C160.139 103.683 160.129 103.667 160.123 103.649C160.116 103.631 160.113 103.613 160.114 103.594C160.117 103.557 160.134 103.522 160.162 103.498C160.189 103.473 160.225 103.459 160.262 103.459C160.485 103.483 160.699 103.56 160.886 103.684C161.073 103.808 161.228 103.974 161.338 104.17C161.356 104.202 161.361 104.241 161.352 104.277C161.343 104.314 161.321 104.346 161.29 104.366C161.274 104.376 161.256 104.382 161.238 104.384C161.22 104.387 161.202 104.385 161.184 104.381Z" fill="#263238"/>
<path d="M156.216 103.037C156.189 103.033 156.163 103.022 156.142 103.004C156.121 102.986 156.106 102.963 156.098 102.937C156.09 102.91 156.089 102.882 156.097 102.856C156.104 102.829 156.119 102.806 156.139 102.787C156.308 102.64 156.51 102.534 156.727 102.478C156.945 102.422 157.172 102.418 157.392 102.466C157.427 102.478 157.456 102.503 157.473 102.536C157.49 102.569 157.494 102.608 157.483 102.643C157.478 102.661 157.47 102.677 157.458 102.692C157.447 102.706 157.433 102.718 157.417 102.727C157.401 102.736 157.383 102.742 157.365 102.744C157.346 102.746 157.328 102.744 157.31 102.739C157.137 102.701 156.957 102.705 156.786 102.751C156.615 102.797 156.457 102.883 156.326 103.003C156.311 103.016 156.294 103.026 156.275 103.032C156.256 103.038 156.236 103.039 156.216 103.037Z" fill="#263238"/>
<path d="M165.682 116.707C166.262 118.406 166.752 120.067 167.165 121.824C167.371 122.693 167.568 123.571 167.707 124.474C167.871 125.425 167.95 126.389 167.942 127.354C167.934 127.635 167.908 127.915 167.866 128.194C167.838 128.356 167.799 128.516 167.75 128.674C167.722 128.77 167.698 128.846 167.659 128.947C167.494 129.372 167.196 129.732 166.81 129.974C166.586 130.106 166.343 130.202 166.09 130.258C165.732 130.331 165.365 130.34 165.005 130.286C164.01 130.109 163.053 129.765 162.173 129.269C160.592 128.416 159.095 127.415 157.704 126.278C157.553 126.163 157.452 125.994 157.419 125.807C157.387 125.62 157.426 125.428 157.528 125.268C157.631 125.108 157.79 124.993 157.973 124.944C158.157 124.896 158.352 124.918 158.52 125.006C160.018 125.782 161.554 126.48 163.123 127.099C163.507 127.243 163.886 127.373 164.251 127.474C164.573 127.57 164.905 127.63 165.24 127.651C165.31 127.661 165.381 127.653 165.446 127.627C165.446 127.627 165.398 127.627 165.331 127.67C165.252 127.715 165.185 127.778 165.134 127.853C165.112 127.882 165.095 127.914 165.082 127.949C165.082 127.949 165.082 127.92 165.082 127.906C165.095 127.859 165.103 127.81 165.106 127.762C165.114 127.61 165.114 127.458 165.106 127.306C165.061 126.528 164.951 125.756 164.779 124.997C164.602 124.19 164.419 123.374 164.198 122.558C163.762 120.936 163.267 119.28 162.758 117.682C162.678 117.313 162.736 116.928 162.922 116.601C163.108 116.273 163.409 116.025 163.767 115.906C164.124 115.787 164.513 115.804 164.859 115.955C165.204 116.105 165.482 116.379 165.638 116.722L165.682 116.707Z" fill="#FF8B7B"/>
<path d="M161.357 197.175C161.321 197.126 161.296 197.071 161.285 197.011C161.275 196.952 161.278 196.892 161.294 196.834C161.301 196.79 161.319 196.749 161.346 196.714C161.373 196.679 161.408 196.651 161.448 196.632C161.808 196.474 162.672 197.055 162.773 197.112C162.783 197.12 162.792 197.132 162.796 197.144C162.8 197.157 162.8 197.171 162.797 197.184C162.794 197.198 162.787 197.212 162.777 197.222C162.767 197.232 162.753 197.239 162.739 197.242C162.345 197.338 161.649 197.458 161.385 197.203L161.357 197.175ZM162.547 197.146C162.192 196.925 161.688 196.666 161.501 196.762C161.482 196.769 161.466 196.782 161.454 196.798C161.443 196.814 161.435 196.833 161.433 196.853C161.419 196.896 161.417 196.942 161.427 196.986C161.437 197.03 161.459 197.07 161.491 197.103C161.63 197.242 162.019 197.28 162.547 197.146Z" fill="#165246"/>
<path d="M162.336 196.91C162.125 196.695 162.006 196.406 162.005 196.104C162.021 196.049 162.055 196 162.101 195.965C162.146 195.93 162.201 195.91 162.259 195.907C162.312 195.899 162.365 195.903 162.416 195.919C162.467 195.934 162.513 195.962 162.552 195.998C162.854 196.282 162.801 197.141 162.797 197.179C162.797 197.192 162.793 197.204 162.786 197.214C162.779 197.224 162.77 197.232 162.758 197.237C162.748 197.243 162.736 197.246 162.725 197.246C162.713 197.246 162.701 197.243 162.691 197.237C162.557 197.146 162.438 197.036 162.336 196.91ZM162.48 196.138L162.451 196.104C162.426 196.081 162.397 196.063 162.364 196.053C162.332 196.043 162.297 196.041 162.264 196.046C162.173 196.046 162.153 196.099 162.144 196.133C162.091 196.334 162.393 196.819 162.662 197.04C162.686 196.728 162.623 196.416 162.48 196.138Z" fill="#165246"/>
<path d="M161.544 132.864L161.678 133.968C161.702 134.059 161.592 134.136 161.453 134.122L149.117 133.032C149.011 133.032 148.929 132.96 148.934 132.893L149.001 131.803C149.001 131.726 149.107 131.669 149.227 131.683L161.366 132.754C161.453 132.763 161.529 132.806 161.544 132.864Z" fill="white"/>
<path d="M159.691 134.083L160.017 134.112C160.085 134.112 160.137 134.112 160.137 134.05L160.214 132.634C160.214 132.59 160.166 132.552 160.104 132.547L159.777 132.518C159.71 132.518 159.657 132.542 159.653 132.581L159.581 134.021C159.576 134.04 159.629 134.078 159.691 134.083Z" fill="#165246"/>
<path opacity="0.4" d="M159.691 134.083L160.017 134.112C160.085 134.112 160.137 134.112 160.137 134.05L160.214 132.634C160.214 132.59 160.166 132.552 160.104 132.547L159.777 132.518C159.71 132.518 159.657 132.542 159.653 132.581L159.581 134.021C159.576 134.04 159.629 134.078 159.691 134.083Z" fill="black"/>
<path d="M150.01 133.229L150.336 133.258C150.403 133.258 150.456 133.234 150.461 133.19L150.533 131.75C150.533 131.712 150.485 131.674 150.422 131.664L150.096 131.635C150.029 131.635 149.976 131.635 149.976 131.702L149.899 133.118C149.894 133.186 149.947 133.224 150.01 133.229Z" fill="#165246"/>
<path opacity="0.4" d="M150.01 133.229L150.336 133.258C150.403 133.258 150.456 133.234 150.461 133.19L150.533 131.75C150.533 131.712 150.485 131.674 150.422 131.664L150.096 131.635C150.029 131.635 149.976 131.635 149.976 131.702L149.899 133.118C149.894 133.186 149.947 133.224 150.01 133.229Z" fill="black"/>
<path d="M154.853 133.656L155.179 133.685C155.242 133.685 155.299 133.661 155.299 133.622L155.376 132.182C155.376 132.144 155.328 132.106 155.261 132.101L154.934 132.072C154.872 132.072 154.814 132.072 154.814 132.134L154.738 133.55C154.738 133.613 154.786 133.651 154.853 133.656Z" fill="#165246"/>
<path opacity="0.4" d="M154.853 133.656L155.179 133.685C155.242 133.685 155.299 133.661 155.299 133.622L155.376 132.182C155.376 132.144 155.328 132.106 155.261 132.101L154.934 132.072C154.872 132.072 154.814 132.072 154.814 132.134L154.738 133.55C154.738 133.613 154.786 133.651 154.853 133.656Z" fill="black"/>
<path d="M140.899 118.08L139.939 116.688C139.829 116.524 139.666 116.403 139.478 116.343C139.29 116.282 139.087 116.288 138.902 116.357L137.981 116.702C137.871 116.743 137.771 116.806 137.686 116.886C137.601 116.966 137.533 117.062 137.485 117.169C137.438 117.276 137.412 117.391 137.41 117.508C137.408 117.625 137.429 117.741 137.472 117.85L137.856 118.81C137.983 119.125 138.218 119.385 138.518 119.544L140.798 120.744L142.008 120.494C142.315 119.251 140.899 118.08 140.899 118.08Z" fill="#FF8B7B"/>
<path d="M142.08 120.168C142.212 119.353 142.098 118.518 141.754 117.768C141.667 117.499 141.461 116.578 141.302 116.525C140.928 116.395 140.822 117.043 140.909 117.437C140.932 117.552 140.914 117.672 140.857 117.775C140.801 117.879 140.711 117.959 140.602 118.003C140.602 118.003 141.456 120.096 142.08 120.168Z" fill="#FF8B7B"/>
<path d="M138.662 116.707C138.728 116.722 138.789 116.75 138.843 116.79C138.896 116.829 138.941 116.88 138.974 116.938L140.376 109.839C140.731 111.252 140.776 112.726 140.51 114.159L139.68 114.72L139.075 117.787C138.97 118.315 138.595 118.69 138.264 118.618C137.933 118.546 137.726 118.071 137.832 117.543C137.938 117.015 138.317 116.64 138.662 116.707ZM138.336 118.354C138.581 118.402 138.845 118.133 138.922 117.754C138.998 117.375 138.854 117.024 138.61 116.976C138.365 116.928 138.101 117.192 138.024 117.576C137.947 117.96 138.086 118.306 138.336 118.354Z" fill="#263238"/>
<path d="M140.611 116.078C140.502 116.159 140.43 116.28 140.41 116.414L136.382 110.4C136.601 111.846 137.13 113.228 137.933 114.451L138.893 114.643L140.63 117.235C140.933 117.682 141.408 117.888 141.701 117.715C141.994 117.542 141.979 117 141.701 116.554C141.422 116.107 140.904 115.882 140.611 116.078ZM141.547 117.475C141.341 117.614 140.99 117.475 140.779 117.144C140.568 116.813 140.558 116.448 140.779 116.304C141 116.16 141.331 116.304 141.547 116.635C141.763 116.966 141.758 117.331 141.547 117.475Z" fill="#263238"/>
<path d="M159.24 104.534L158.731 104.218C158.731 104.218 158.88 104.731 159.24 104.534Z" fill="#263238"/>
<path d="M159.427 125.626L158.357 123.317C158.205 122.987 157.939 122.722 157.608 122.573L156.696 122.15C156.589 122.101 156.474 122.074 156.357 122.07C156.239 122.066 156.122 122.086 156.013 122.128C155.903 122.17 155.803 122.233 155.718 122.315C155.634 122.396 155.566 122.494 155.52 122.602L155.131 123.504C155.052 123.685 155.036 123.886 155.086 124.077C155.136 124.268 155.248 124.436 155.405 124.555L156.749 125.563C156.749 125.563 157.858 127.037 159.11 126.816L159.427 125.626Z" fill="#FF8B7B"/>
<path d="M71.7312 146.304H96.1872C97.0205 146.319 97.8194 146.639 98.4325 147.203C99.0456 147.767 99.4303 148.537 99.5136 149.366L103.517 195.12C103.56 195.51 103.519 195.904 103.398 196.277C103.276 196.65 103.077 196.993 102.813 197.283C102.548 197.573 102.225 197.803 101.865 197.958C101.505 198.113 101.115 198.19 100.723 198.182H76.272C75.4419 198.162 74.6476 197.84 74.0379 197.276C73.4283 196.713 73.045 195.946 72.96 195.12L68.9568 149.366C68.914 148.978 68.9541 148.585 69.0744 148.214C69.1947 147.842 69.3925 147.5 69.6548 147.211C69.917 146.921 70.2377 146.691 70.5957 146.534C70.9536 146.378 71.3407 146.3 71.7312 146.304Z" fill="#263238"/>
<path d="M99.144 185.477H102.024C102.202 185.479 102.374 185.547 102.506 185.667C102.637 185.788 102.72 185.952 102.739 186.13L104.131 202.085C104.141 202.168 104.133 202.252 104.107 202.332C104.081 202.412 104.039 202.485 103.982 202.547C103.926 202.609 103.857 202.658 103.78 202.691C103.703 202.724 103.62 202.74 103.536 202.738H100.656C100.478 202.736 100.307 202.668 100.175 202.548C100.044 202.427 99.9622 202.262 99.9456 202.085L98.5488 186.13C98.5392 186.046 98.5475 185.962 98.5732 185.883C98.5989 185.803 98.6414 185.73 98.6978 185.668C98.7542 185.606 98.8232 185.557 98.9002 185.524C98.9772 185.491 99.0603 185.475 99.144 185.477Z" fill="#263238"/>
<path d="M72.7679 185.477H75.6479C75.8255 185.481 75.9957 185.549 76.1264 185.669C76.2572 185.789 76.3397 185.953 76.3583 186.13L77.7599 202.08C77.7688 202.163 77.7598 202.248 77.7336 202.328C77.7073 202.407 77.6643 202.48 77.6075 202.542C77.5508 202.604 77.4815 202.653 77.4043 202.686C77.3271 202.719 77.2438 202.735 77.1599 202.733H74.2799C74.1021 202.73 73.9313 202.662 73.8003 202.542C73.6693 202.421 73.5872 202.257 73.5695 202.08L72.1727 186.125C72.1646 186.042 72.174 185.959 72.2004 185.88C72.2267 185.801 72.2693 185.729 72.3255 185.668C72.3817 185.607 72.4501 185.558 72.5264 185.525C72.6026 185.492 72.6849 185.476 72.7679 185.477Z" fill="#263238"/>
<path d="M94.5889 146.304H70.1377C69.3039 146.319 68.5044 146.638 67.8905 147.203C67.2766 147.767 66.8909 148.537 66.8065 149.366L62.8033 195.12C62.7602 195.51 62.8008 195.904 62.9222 196.277C63.0437 196.65 63.2432 196.993 63.5076 197.283C63.7719 197.573 64.095 197.803 64.4553 197.958C64.8155 198.113 65.2047 198.19 65.5969 198.182H90.0481C90.8819 198.168 91.6814 197.848 92.2953 197.284C92.9092 196.72 93.2949 195.95 93.3793 195.12L97.3825 149.366C97.4255 148.977 97.385 148.582 97.2635 148.209C97.1421 147.836 96.9426 147.493 96.6782 147.204C96.4139 146.914 96.0908 146.684 95.7305 146.529C95.3703 146.373 94.9811 146.297 94.5889 146.304Z" fill="#165246"/>
<path d="M67.2 185.477H64.32C64.1421 185.479 63.9714 185.547 63.8404 185.668C63.7094 185.788 63.6272 185.953 63.6096 186.13L62.1936 202.08C62.184 202.163 62.1923 202.247 62.218 202.327C62.2437 202.407 62.2862 202.48 62.3426 202.542C62.399 202.604 62.468 202.653 62.545 202.686C62.6219 202.719 62.7051 202.735 62.7888 202.733H65.6688C65.8467 202.73 66.0174 202.662 66.1484 202.542C66.2794 202.421 66.3615 202.257 66.3792 202.08L67.7712 186.125C67.7799 186.044 67.7716 185.962 67.747 185.885C67.7224 185.807 67.6819 185.736 67.6282 185.675C67.5745 185.614 67.5087 185.565 67.435 185.531C67.3612 185.497 67.2812 185.478 67.2 185.477Z" fill="#165246"/>
<path d="M93.5568 185.477H90.6768C90.4984 185.479 90.3271 185.547 90.1953 185.667C90.0635 185.788 89.9804 185.952 89.9616 186.13L88.5744 202.08C88.5648 202.163 88.5731 202.247 88.5988 202.327C88.6245 202.407 88.667 202.48 88.7234 202.542C88.7798 202.604 88.8489 202.653 88.9258 202.686C89.0028 202.719 89.0859 202.735 89.1696 202.733H92.0496C92.2279 202.731 92.3991 202.664 92.5304 202.543C92.6616 202.422 92.7434 202.257 92.76 202.08L94.1568 186.125C94.1658 186.042 94.1568 185.957 94.1305 185.878C94.1042 185.799 94.0612 185.726 94.0043 185.664C93.9474 185.603 93.8781 185.554 93.8009 185.522C93.7237 185.49 93.6405 185.474 93.5568 185.477Z" fill="#165246"/>
<path d="M65.7072 196.954C65.4724 196.958 65.2393 196.912 65.0236 196.819C64.8078 196.726 64.6143 196.588 64.4559 196.415C64.2974 196.241 64.1777 196.036 64.1046 195.813C64.0316 195.59 64.0068 195.354 64.032 195.12L68.0352 149.366C68.0856 148.87 68.3162 148.409 68.6832 148.072C69.0503 147.734 69.5284 147.542 70.0272 147.533H94.4784C94.7135 147.528 94.9469 147.573 95.1631 147.666C95.3792 147.759 95.573 147.896 95.7316 148.07C95.8902 148.244 96.0099 148.449 96.0827 148.673C96.1555 148.896 96.1797 149.133 96.1536 149.366L92.16 195.12C92.1086 195.616 91.8778 196.076 91.511 196.414C91.1441 196.751 90.6665 196.943 90.168 196.954H65.7072Z" fill="white"/>
<path d="M69.9407 159.36L71.5151 159.264C71.5152 159.468 71.5699 159.669 71.6735 159.845C71.7525 159.953 71.8579 160.04 71.9797 160.096C72.1015 160.152 72.2357 160.177 72.3695 160.166C72.5682 160.176 72.7644 160.119 72.9263 160.003C72.9885 159.958 73.0407 159.901 73.0795 159.835C73.1184 159.769 73.143 159.695 73.1519 159.619C73.157 159.55 73.1463 159.481 73.1205 159.417C73.0947 159.353 73.0545 159.296 73.0031 159.25C72.7593 159.083 72.4798 158.976 72.1871 158.938C71.6444 158.853 71.1322 158.632 70.6991 158.294C70.5607 158.164 70.4548 158.004 70.3898 157.825C70.3247 157.647 70.3024 157.456 70.3247 157.267C70.3514 156.984 70.458 156.715 70.6319 156.49C70.8293 156.233 71.0933 156.036 71.3951 155.918C71.8203 155.762 72.272 155.691 72.7247 155.707C73.2594 155.667 73.7929 155.8 74.2463 156.086C74.4223 156.233 74.5619 156.419 74.6544 156.629C74.7468 156.839 74.7895 157.067 74.7791 157.296L73.2191 157.387C73.2191 157.192 73.1434 157.005 73.0079 156.864C72.8565 156.746 72.6668 156.688 72.4751 156.701C72.3171 156.69 72.1601 156.733 72.0287 156.821C71.9811 156.856 71.9414 156.9 71.9124 156.951C71.8835 157.003 71.8658 157.06 71.8607 157.118C71.8569 157.162 71.8642 157.205 71.8819 157.244C71.8995 157.284 71.9269 157.318 71.9615 157.344C72.1214 157.45 72.3038 157.517 72.4943 157.541C73.0131 157.638 73.5178 157.799 73.9967 158.021C74.2617 158.149 74.4811 158.355 74.6255 158.611C74.7469 158.855 74.7968 159.128 74.7695 159.398C74.7413 159.747 74.6148 160.079 74.4047 160.358C74.1852 160.648 73.8917 160.874 73.5551 161.011C73.1407 161.172 72.6985 161.248 72.2543 161.237C71.3471 161.237 70.7375 161.064 70.4159 160.714C70.0885 160.341 69.9182 159.856 69.9407 159.36Z" fill="#165246"/>
<path d="M75.9167 155.803H77.5631L77.3999 157.666H79.1999L79.3631 155.803H81.0191L80.5391 161.126H78.8831L79.0751 158.971H77.2799L77.0927 161.126H75.4463L75.9167 155.803Z" fill="#165246"/>
<path d="M81.6671 158.467C81.6701 158.087 81.7511 157.71 81.9052 157.362C82.0593 157.014 82.2832 156.701 82.563 156.443C82.8428 156.185 83.1727 155.986 83.5321 155.861C83.8916 155.735 84.273 155.684 84.6528 155.712C85.0157 155.684 85.3806 155.733 85.7231 155.856C86.0657 155.98 86.3782 156.174 86.6399 156.427C86.8679 156.702 87.0342 157.022 87.1278 157.367C87.2214 157.711 87.24 158.072 87.1824 158.424C87.1551 158.962 87.0023 159.487 86.7359 159.955C86.4948 160.348 86.1535 160.669 85.7471 160.886C85.2796 161.119 84.7619 161.233 84.2399 161.218C83.7346 161.237 83.2317 161.139 82.7712 160.93C82.3889 160.731 82.0821 160.412 81.8975 160.022C81.6745 159.537 81.5946 158.997 81.6671 158.467ZM83.3087 158.467C83.234 158.864 83.3039 159.274 83.5056 159.624C83.5988 159.742 83.7191 159.835 83.8562 159.896C83.9932 159.957 84.143 159.984 84.2928 159.974C84.4504 159.98 84.6075 159.953 84.7538 159.895C84.9002 159.836 85.0326 159.747 85.1424 159.634C85.4027 159.273 85.5422 158.84 85.5408 158.395C85.6111 158.016 85.5375 157.624 85.3343 157.296C85.2385 157.181 85.117 157.089 84.9794 157.029C84.8419 156.969 84.6922 156.942 84.5424 156.95C84.387 156.946 84.2324 156.975 84.0892 157.036C83.946 157.096 83.8174 157.187 83.7119 157.301C83.4508 157.637 83.309 158.051 83.3087 158.477V158.467Z" fill="#165246"/>
<path d="M88.2913 155.803H91.0273C91.2613 155.783 91.4971 155.81 91.7205 155.883C91.9439 155.955 92.1505 156.072 92.3281 156.226C92.4691 156.39 92.5723 156.584 92.6304 156.793C92.6884 157.002 92.6999 157.221 92.6641 157.435C92.6547 157.675 92.5972 157.91 92.4949 158.127C92.3927 158.344 92.2478 158.538 92.0689 158.698C91.6348 159.027 91.0957 159.187 90.5521 159.149H89.6497L89.4769 161.126H87.8401L88.2913 155.803ZM89.7313 158.074H90.1345C90.3739 158.094 90.6134 158.035 90.8161 157.906C90.8824 157.856 90.9373 157.792 90.9771 157.719C91.0168 157.647 91.0405 157.566 91.0465 157.483C91.0557 157.408 91.049 157.331 91.0267 157.258C91.0043 157.185 90.9669 157.118 90.9169 157.061C90.8317 156.991 90.7334 156.94 90.6278 156.909C90.5222 156.879 90.4116 156.87 90.3025 156.883H89.8225L89.7313 158.074Z" fill="#165246"/>
<path d="M69.1201 166.382L69.4417 162.696H71.3617C71.632 162.685 71.9024 162.716 72.1633 162.787C72.3408 162.843 72.4912 162.963 72.5857 163.123C72.6874 163.304 72.7278 163.513 72.7009 163.718C72.6912 163.907 72.6298 164.09 72.5233 164.246C72.4232 164.396 72.2902 164.521 72.1345 164.611C72.0043 164.678 71.8653 164.727 71.7217 164.755C71.8215 164.788 71.9167 164.833 72.0049 164.89C72.0679 164.949 72.1243 165.015 72.1729 165.086C72.2257 165.159 72.2722 165.236 72.3121 165.317L72.7681 166.382H71.4817L70.9681 165.254C70.9296 165.149 70.8691 165.052 70.7905 164.971C70.7115 164.913 70.6152 164.882 70.5169 164.885H70.4161L70.2865 166.382H69.1201ZM70.4593 164.189H70.9393C71.043 164.182 71.1458 164.166 71.2465 164.141C71.3222 164.127 71.3904 164.086 71.4385 164.026C71.4919 163.966 71.5239 163.89 71.5297 163.81C71.5379 163.761 71.5343 163.71 71.5193 163.663C71.5043 163.615 71.4782 163.572 71.4433 163.536C71.3186 163.459 71.1717 163.425 71.0257 163.44H70.5457L70.4593 164.189Z" fill="#165246"/>
<path d="M73.44 162.72H76.4928L76.4256 163.507H74.5056L74.4528 164.093H76.2288L76.1616 164.846H74.4L74.3376 165.571H76.3056L76.2336 166.406H73.104L73.44 162.72Z" fill="#165246"/>
<path d="M76.8432 164.544C76.8423 164.278 76.8966 164.016 77.0025 163.772C77.1085 163.528 77.2638 163.31 77.4587 163.129C77.6536 162.949 77.8838 162.811 78.1348 162.724C78.3857 162.637 78.652 162.603 78.9168 162.624C79.1673 162.602 79.4196 162.633 79.6571 162.716C79.8946 162.799 80.1118 162.931 80.2944 163.104C80.452 163.294 80.5669 163.516 80.6315 163.755C80.6961 163.993 80.7088 164.243 80.6688 164.486C80.6492 164.859 80.5441 165.222 80.3616 165.547C80.1964 165.821 79.9589 166.043 79.6752 166.19C79.3506 166.352 78.9912 166.431 78.6288 166.421C78.2788 166.436 77.9303 166.368 77.6112 166.224C77.3466 166.086 77.1342 165.865 77.0064 165.595C76.8574 165.266 76.801 164.903 76.8432 164.544ZM77.9856 164.544C77.9324 164.819 77.9801 165.103 78.12 165.346C78.1847 165.428 78.2683 165.493 78.3636 165.535C78.4588 165.578 78.563 165.597 78.6672 165.59C78.7763 165.595 78.8851 165.576 78.9862 165.534C79.0873 165.493 79.1782 165.43 79.2528 165.35C79.4353 165.101 79.5329 164.8 79.5312 164.491C79.5782 164.229 79.527 163.959 79.3872 163.733C79.3224 163.651 79.2388 163.586 79.1436 163.543C79.0483 163.501 78.9441 163.482 78.84 163.488C78.7321 163.486 78.6249 163.506 78.5255 163.548C78.4262 163.59 78.337 163.653 78.264 163.733C78.0841 163.967 77.9862 164.254 77.9856 164.549V164.544Z" fill="#165246"/>
<path d="M81.4369 162.72H83.3569C83.5193 162.705 83.6831 162.723 83.8383 162.773C83.9934 162.824 84.1367 162.905 84.2593 163.013C84.3569 163.127 84.4285 163.262 84.4691 163.407C84.5097 163.552 84.5184 163.704 84.4945 163.853C84.4777 164.187 84.3293 164.501 84.0817 164.726C83.7794 164.952 83.4068 165.062 83.0305 165.038H82.4065L82.2865 166.406H81.1201L81.4369 162.72ZM82.4449 164.29H82.7233C82.8909 164.304 83.0587 164.265 83.2033 164.179C83.2492 164.144 83.287 164.099 83.3143 164.047C83.3416 163.996 83.3577 163.94 83.3617 163.882C83.368 163.829 83.3632 163.776 83.3475 163.725C83.3318 163.675 83.3055 163.628 83.2705 163.589C83.2122 163.541 83.1446 163.505 83.0719 163.485C82.9992 163.464 82.923 163.459 82.8481 163.469H82.5217L82.4449 164.29Z" fill="#165246"/>
<path d="M85.1615 162.72H88.2191L88.1471 163.507H86.2271L86.1743 164.093H87.9503L87.8831 164.846H86.1071L86.0447 165.571H88.0127L87.9407 166.406H84.8303L85.1615 162.72Z" fill="#165246"/>
<path d="M88.896 162.72H89.9616L91.1712 164.76L91.3488 162.72H92.424L92.1024 166.406H91.0272L89.8224 164.381L89.6448 166.406H88.5696L88.896 162.72Z" fill="#165246"/>
<path d="M83.2753 185.645L80.5873 184.526C80.9761 186.082 79.4545 187.205 78.1873 187.848C77.5825 188.155 77.7073 188.947 78.4417 189.24L80.1937 189.97C82.3153 190.853 83.2753 185.645 83.2753 185.645Z" fill="#165246"/>
<path d="M83.8225 185.87L78.8929 183.84C78.5099 183.671 78.1662 183.424 77.8833 183.115C77.6004 182.806 77.3845 182.442 77.2493 182.046C77.114 181.649 77.0623 181.229 77.0973 180.812C77.1324 180.395 77.2534 179.989 77.4529 179.621C77.8264 178.827 78.4828 178.202 79.2935 177.867C80.1042 177.532 81.0107 177.512 81.8353 177.811L86.7601 179.861C87.1433 180.031 87.4871 180.278 87.77 180.587C88.0529 180.897 88.2688 181.261 88.404 181.658C88.5393 182.055 88.591 182.475 88.5559 182.893C88.5208 183.31 88.3997 183.716 88.2001 184.085C87.8234 184.874 87.166 185.494 86.3566 185.824C85.5471 186.154 84.6436 186.171 83.8225 185.87Z" fill="#165246"/>
<path opacity="0.3" d="M83.8225 185.87L78.8929 183.84C78.5099 183.671 78.1662 183.424 77.8833 183.115C77.6004 182.806 77.3845 182.442 77.2493 182.046C77.114 181.649 77.0623 181.229 77.0973 180.812C77.1324 180.395 77.2534 179.989 77.4529 179.621C77.8264 178.827 78.4828 178.202 79.2935 177.867C80.1042 177.532 81.0107 177.512 81.8353 177.811L86.7601 179.861C87.1433 180.031 87.4871 180.278 87.77 180.587C88.0529 180.897 88.2688 181.261 88.404 181.658C88.5393 182.055 88.591 182.475 88.5559 182.893C88.5208 183.31 88.3997 183.716 88.2001 184.085C87.8234 184.874 87.166 185.494 86.3566 185.824C85.5471 186.154 84.6436 186.171 83.8225 185.87Z" fill="black"/>
<path d="M69.8592 183.12L78.8976 185.112C79.6512 185.424 83.6448 177.254 82.8912 176.952L75.2832 172.027C74.2032 171.566 68.7792 182.674 69.8592 183.12Z" fill="#165246"/>
</svg>
