<svg width="20" height="20" viewBox="0 0 20 20" fill="none" xmlns="http://www.w3.org/2000/svg">
<path fill-rule="evenodd" clip-rule="evenodd" d="M13.101 7.96L7.96 13.101C7.814 13.247 7.622 13.32 7.43 13.32C7.238 13.32 7.046 13.247 6.9 13.101C6.607 12.808 6.607 12.333 6.9 12.04L12.04 6.899C12.333 6.606 12.808 6.606 13.101 6.899C13.394 7.192 13.394 7.667 13.101 7.96ZM12.504 13.25C12.09 13.25 11.749 12.914 11.749 12.5C11.749 12.086 12.081 11.75 12.496 11.75H12.504C12.918 11.75 13.254 12.086 13.254 12.5C13.254 12.914 12.918 13.25 12.504 13.25ZM7.496 6.75H7.504C7.918 6.75 8.254 7.086 8.254 7.5C8.254 7.914 7.918 8.25 7.504 8.25C7.09 8.25 6.749 7.914 6.749 7.5C6.749 7.086 7.081 6.75 7.496 6.75ZM10 0.25C2.802 0.25 0.25 2.802 0.25 10C0.25 17.198 2.802 19.75 10 19.75C17.199 19.75 19.75 17.198 19.75 10C19.75 2.802 17.199 0.25 10 0.25Z" fill="#262626"/>
</svg>
