<svg width="24" height="25" viewBox="0 0 24 25" fill="none" xmlns="http://www.w3.org/2000/svg">
<path fill-rule="evenodd" clip-rule="evenodd" d="M11.9615 12.1943H11.9925C14.8245 12.1943 17.1285 9.8903 17.1285 7.0583C17.1285 4.2263 14.8245 1.9213 11.9925 1.9213C9.1595 1.9213 6.8555 4.22629 6.8555 7.05529C6.8505 8.42429 7.3795 9.7123 8.3435 10.6833C9.3065 11.6533 10.5915 12.1903 11.9615 12.1943ZM8.3555 7.0583C8.3555 5.0533 9.9875 3.4213 11.9925 3.4213C13.9975 3.4213 15.6285 5.0533 15.6285 7.0583C15.6285 9.0633 13.9975 10.6943 11.9925 10.6943H11.9645C10.9965 10.6923 10.0895 10.3123 9.4075 9.6253C8.7255 8.9393 8.3525 8.0283 8.3555 7.0583Z" fill="#D4D4D4"/>
<path fill-rule="evenodd" clip-rule="evenodd" d="M4.40527 19.0582C4.40527 22.6832 10.1213 22.6832 11.9993 22.6832C13.8773 22.6832 19.5943 22.6832 19.5943 19.0362C19.5943 16.2432 16.1163 13.8832 11.9993 13.8832C7.88327 13.8832 4.40527 16.2532 4.40527 19.0582ZM5.90527 19.0582C5.90527 17.3232 8.51127 15.3832 11.9993 15.3832C15.4883 15.3832 18.0943 17.3122 18.0943 19.0362C18.0943 20.4602 16.0433 21.1832 11.9993 21.1832C7.95627 21.1832 5.90527 20.4682 5.90527 19.0582Z" fill="#D4D4D4"/>
</svg>
