<svg width="20" height="20" viewBox="0 0 20 20" fill="none" xmlns="http://www.w3.org/2000/svg">
<path d="M17.1543 11.82C16.6668 14.3218 15.0516 16.6067 12.7935 17.796C10.5354 18.9826 7.67467 19.0014 5.46213 17.7344C3.24959 16.462 1.80046 13.9147 1.96654 11.3673C1.97993 11.1503 2.00404 10.9387 2.03886 10.7271C2.30672 9.05833 3.18799 7.51009 4.27015 6.19489C5.4916 4.71362 6.96751 3.46806 8.34432 2.13144C8.8104 1.67875 9.28451 1.16446 9.59523 0.596589C9.97024 -0.089137 10.9211 -0.16146 11.3765 0.476051C11.7087 0.934094 11.939 1.46446 12.0381 2.02161C12.2524 3.2136 11.8962 4.42165 11.8131 5.62971C11.7354 6.77883 12.0274 8.10743 12.9864 8.70744C13.0319 8.7369 13.0774 8.76369 13.1256 8.78779C13.8382 9.15477 14.7784 9.01816 15.3596 8.46368L15.3757 8.44761C15.9864 7.85028 17.0016 8.13421 17.165 8.96994C17.3498 9.9021 17.3311 10.8905 17.1516 11.82H17.1543Z" fill="#D3478F"/>
<path d="M12.8794 16.0014C11.3579 17.4425 8.95253 17.8765 7.03196 17.0381C5.10872 16.2023 3.78548 14.1318 3.85781 12.0344C3.89531 10.9174 4.29174 9.83258 4.87836 8.87899C5.4623 7.92541 6.22838 7.09503 7.04 6.32627C7.58912 5.81198 8.15698 5.32447 8.73556 4.845C9.02753 4.60392 9.37307 4.16195 9.64897 3.77623C9.8579 3.48158 10.3133 3.62891 10.3267 3.98784C10.3668 5.16107 9.86326 6.41199 10.0213 7.60933C10.1472 8.55756 10.7204 9.43347 11.5374 9.93437C12.0544 10.2504 12.6571 10.4085 13.2624 10.4031C13.9535 10.3978 14.5321 10.9362 14.5723 11.6246C14.666 13.2371 14.0553 14.8952 12.8794 16.0041V16.0014Z" fill="#DF66A1"/>
<path d="M11.6338 11.9271C12.2579 12.6932 12.3651 13.837 11.9285 14.7236C11.4945 15.6129 10.5543 16.221 9.56861 16.3013C8.58288 16.379 7.57572 15.9451 6.92482 15.2031C6.2016 14.3808 5.91766 13.2397 5.95516 12.1441C5.99802 10.9414 6.41588 9.75479 7.12572 8.77977C7.2784 8.56816 7.60787 8.6137 7.69358 8.86013C7.79001 9.14674 7.95877 9.41728 8.16234 9.63693C8.63646 10.1485 9.28736 10.4512 9.91683 10.7539C10.5463 11.0566 11.1892 11.3861 11.6311 11.9245L11.6338 11.9271Z" fill="#EEBE97"/>
<g style="mix-blend-mode:soft-light" opacity="0.5">
<path d="M17.1543 11.8201C16.6668 14.3219 15.0516 16.6068 12.7935 17.7961C10.5354 18.9827 7.67467 19.0014 5.46213 17.7345C3.24959 16.4621 1.80046 13.9148 1.96654 11.3674C1.97993 11.1504 2.00404 10.9388 2.03886 10.7272C2.26654 11.3272 2.59333 11.887 3.00584 12.3853C4.70944 14.4344 7.68806 14.9701 10.0372 13.7246C11.8801 12.7469 12.9783 10.7433 12.989 8.70485C13.0346 8.73431 13.0801 8.7611 13.1283 8.7852C13.8408 9.15217 14.781 9.01557 15.3623 8.46109L15.3784 8.44502C15.9891 7.84769 17.0043 8.13162 17.1677 8.96735C17.3525 9.89951 17.3338 10.8879 17.1543 11.8174V11.8201Z" fill="#322256"/>
</g>
<g style="mix-blend-mode:soft-light" opacity="0.5">
<path d="M3.05135 11.0406C2.93617 8.45034 4.65852 5.80655 7.07999 4.87439C5.38442 6.72799 4.06387 8.73963 3.05135 11.0406Z" fill="white"/>
</g>
<path d="M9.59263 0.599334C9.85245 0.0555752 10.581 -0.172107 11.1087 0.14397C11.5989 0.481475 11.8534 1.07345 12.0516 1.61453C12.4132 2.74223 12.1721 3.94492 12.065 5.08066C11.9471 6.13603 12.0168 7.34677 12.74 8.15035C13.3266 8.82 14.3954 8.87626 15.0624 8.31107C15.5231 7.77534 16.4231 7.61731 17.0097 8.09678C17.6767 8.65125 17.599 9.60752 17.6499 10.387C17.6419 12.7951 16.5811 15.1415 14.8427 16.7969C11.2775 20.33 4.80594 19.7327 2.46215 15.104C1.28089 12.9853 1.43892 10.2932 2.6068 8.21732C3.70771 6.13871 5.48095 4.5744 7.21134 3.05295C8.04975 2.2815 8.98726 1.57971 9.59263 0.596655C9.06226 1.62524 8.15957 2.39668 7.35866 3.20831C5.01487 5.50388 2.33358 8.16107 2.27465 11.6406C2.2934 16.3898 7.13902 19.438 11.5239 17.8925C14.6472 16.8853 16.8758 13.6469 16.9427 10.3843C16.9481 9.91824 16.9133 9.24055 16.7686 8.84411C16.5945 8.47446 16.1017 8.34589 15.7534 8.55482C15.5686 8.67268 15.282 8.96465 15.0302 9.05572C13.3186 9.84859 11.8105 8.50661 11.6364 6.81104C11.3605 5.0753 12.2873 3.38509 11.8453 1.67614C11.6927 1.16452 11.4703 0.577905 11.0444 0.248435C10.5757 -0.075677 9.87656 0.098433 9.59263 0.599334Z" fill="#BB2E80"/>
</svg>
