<svg width="240" height="240" viewBox="0 0 240 240" fill="none" xmlns="http://www.w3.org/2000/svg">
<path d="M240 183.552H0V183.672H240V183.552Z" fill="#E0E0E0"/>
<path d="M188.726 187.2H180.634V187.32H188.726V187.2Z" fill="#E0E0E0"/>
<path d="M215.309 187.142H193.92V187.262H215.309V187.142Z" fill="#E0E0E0"/>
<path d="M153.95 187.949H127.325V188.069H153.95V187.949Z" fill="#E0E0E0"/>
<path d="M124.56 187.949H114.614V188.069H124.56V187.949Z" fill="#E0E0E0"/>
<path d="M72.7489 187.022H68.3809V187.142H72.7489V187.022Z" fill="#E0E0E0"/>
<path d="M82.632 187.022H75.4128V187.142H82.632V187.022Z" fill="#E0E0E0"/>
<path d="M64.056 189.187H32.1072V189.307H64.056V189.187Z" fill="#E0E0E0"/>
<path d="M113.76 162.144H21.0768C20.3507 162.143 19.6548 161.853 19.1419 161.34C18.6289 160.826 18.3408 160.129 18.3408 159.403V29.1168C18.3471 28.3949 18.638 27.7046 19.1503 27.1959C19.6626 26.6873 20.3549 26.4012 21.0768 26.4H113.76C114.487 26.4 115.184 26.6888 115.698 27.2028C116.212 27.7168 116.501 28.4139 116.501 29.1408V159.403C116.501 160.13 116.212 160.827 115.698 161.341C115.184 161.855 114.487 162.144 113.76 162.144ZM21.0768 26.496C20.3826 26.4973 19.7172 26.774 19.2267 27.2653C18.7363 27.7567 18.4608 28.4226 18.4608 29.1168V159.403C18.4608 160.097 18.7363 160.763 19.2267 161.255C19.7172 161.746 20.3826 162.023 21.0768 162.024H113.76C114.455 162.023 115.121 161.746 115.612 161.255C116.103 160.764 116.38 160.098 116.381 159.403V29.1168C116.38 28.4221 116.103 27.7562 115.612 27.265C115.121 26.7738 114.455 26.4973 113.76 26.496H21.0768Z" fill="#E0E0E0"/>
<path d="M217.589 162.144H124.901C124.174 162.143 123.478 161.854 122.964 161.34C122.45 160.826 122.161 160.13 122.16 159.403V29.1168C122.168 28.3945 122.46 27.7042 122.973 27.1956C123.486 26.6871 124.178 26.4012 124.901 26.4H217.589C218.31 26.4025 219.001 26.6891 219.512 27.1976C220.023 27.7062 220.314 28.3957 220.32 29.1168V159.403C220.32 160.128 220.033 160.824 219.521 161.338C219.009 161.852 218.314 162.141 217.589 162.144ZM124.901 26.496C124.206 26.4973 123.54 26.7738 123.049 27.265C122.558 27.7562 122.281 28.4221 122.28 29.1168V159.403C122.281 160.098 122.558 160.764 123.049 161.255C123.54 161.746 124.206 162.023 124.901 162.024H217.589C218.284 162.023 218.949 161.746 219.441 161.255C219.932 160.764 220.208 160.098 220.21 159.403V29.1168C220.208 28.4221 219.932 27.7562 219.441 27.265C218.949 26.7738 218.284 26.4973 217.589 26.496H124.901Z" fill="#E0E0E0"/>
<path d="M152.539 125.059H129.806V183.552H152.539V125.059Z" fill="#E0E0E0"/>
<path d="M148.219 183.552H152.539V171.269H143.693L148.219 183.552Z" fill="#F0F0F0"/>
<path d="M67.5792 125.059H44.8464V183.552H67.5792V125.059Z" fill="#E0E0E0"/>
<path d="M152.534 125.059H63.8112V176.016H152.534V125.059Z" fill="#F0F0F0"/>
<path d="M109.622 128.76V160.661H149.189V128.76H109.622Z" fill="#E0E0E0"/>
<path d="M67.1616 128.765V160.666H106.728V128.765H67.1616Z" fill="#E0E0E0"/>
<path d="M149.189 171.269V168.922H109.622V171.269H149.189Z" fill="#E0E0E0"/>
<path d="M106.728 171.269V168.922H67.1616V171.269H106.728Z" fill="#E0E0E0"/>
<path d="M149.184 166.733V164.386H109.618V166.733H149.184Z" fill="#E0E0E0"/>
<path d="M106.723 166.738V164.39H67.1567V166.738H106.723Z" fill="#E0E0E0"/>
<path d="M90.8592 132.197H83.04C81.3576 132.197 79.6928 131.854 78.1471 131.19C76.6014 130.526 75.2072 129.554 74.0496 128.333H99.84C98.6838 129.553 97.2912 130.525 95.7472 131.189C94.2032 131.853 92.54 132.196 90.8592 132.197Z" fill="#F0F0F0"/>
<path d="M133.718 132.197H125.894C124.212 132.197 122.547 131.855 121.001 131.191C119.455 130.526 118.061 129.554 116.904 128.333H142.709C141.552 129.554 140.157 130.526 138.612 131.191C137.066 131.855 135.401 132.197 133.718 132.197Z" fill="#F0F0F0"/>
<path d="M68.1312 183.552H63.8112V171.269H72.6576L68.1312 183.552Z" fill="#F0F0F0"/>
<path d="M152.05 35.5152H32.808V103.627H152.05V35.5152Z" fill="#E0E0E0"/>
<path d="M158.645 33.4128H28.8C28.6384 33.4128 28.4833 33.477 28.369 33.5913C28.2547 33.7057 28.1904 33.8607 28.1904 34.0224C28.1898 34.1029 28.2051 34.1826 28.2355 34.2572C28.2658 34.3317 28.3106 34.3994 28.3673 34.4566C28.424 34.5137 28.4914 34.559 28.5657 34.5899C28.6399 34.6209 28.7196 34.6368 28.8 34.6368H158.645C158.725 34.6368 158.805 34.6209 158.879 34.5899C158.954 34.559 159.021 34.5137 159.078 34.4566C159.134 34.3994 159.179 34.3317 159.209 34.2572C159.24 34.1826 159.255 34.1029 159.254 34.0224C159.254 33.8607 159.19 33.7057 159.076 33.5913C158.962 33.477 158.807 33.4128 158.645 33.4128Z" fill="#E0E0E0"/>
<path d="M154.661 35.5152H34.0272V103.627H154.661V35.5152Z" fill="#E6E6E6"/>
<path d="M152.05 103.627H32.808V108.48H152.05V103.627Z" fill="#E0E0E0"/>
<path d="M159.01 103.627H38.376V108.48H159.01V103.627Z" fill="#E6E6E6"/>
<path d="M150.998 99.9696V39.1728L37.68 39.1728V99.9696H150.998Z" fill="#F5F5F5"/>
<path d="M93.7632 99.9696L115.224 39.1728H125.352L103.891 99.9696H93.7632Z" fill="#FAFAFA"/>
<path d="M106.07 99.9696L127.531 39.1728H131.477L110.021 99.9696H106.07Z" fill="#FAFAFA"/>
<path d="M150.998 99.9696V39.1728H150.533V99.9696H150.998Z" fill="#E0E0E0"/>
<path d="M37.7232 32.3184H31.4304V90.984H37.7232V32.3184Z" fill="#EBEBEB"/>
<path d="M40.1759 32.3184H35.2751V90.984H40.1759V32.3184Z" fill="#E0E0E0"/>
<path d="M44.0159 32.3184H37.7231V90.984H44.0159V32.3184Z" fill="#EBEBEB"/>
<path d="M46.4688 32.3184H41.568V90.984H46.4688V32.3184Z" fill="#E0E0E0"/>
<path d="M50.3088 32.3184H44.016V90.984H50.3088V32.3184Z" fill="#EBEBEB"/>
<path d="M148.656 32.3184H145.032V90.984H148.656V32.3184Z" fill="#EBEBEB"/>
<path d="M150.077 32.3184H147.25V90.984H150.077V32.3184Z" fill="#E0E0E0"/>
<path d="M152.285 32.3184H148.661V90.984H152.285V32.3184Z" fill="#EBEBEB"/>
<path d="M153.701 32.3184H150.874V90.984H153.701V32.3184Z" fill="#E0E0E0"/>
<path d="M155.909 32.3184H152.285V90.984H155.909V32.3184Z" fill="#EBEBEB"/>
<path d="M188.894 57.768H180.85V79.7184H188.894V57.768Z" fill="#E6E6E6"/>
<path d="M177.792 83.3808L175.93 88.4544H177.792L189.182 83.3808H177.792Z" fill="#F0F0F0"/>
<path d="M175.93 83.3808V88.4544L187.325 83.3808H175.93Z" fill="#E0E0E0"/>
<path d="M197.275 83.3808L195.413 88.4544H197.275L208.666 83.3808H197.275Z" fill="#F0F0F0"/>
<path d="M195.413 83.3808V88.4544L206.808 83.3808H195.413Z" fill="#E0E0E0"/>
<path d="M167.573 83.616H179.962V79.752H167.573V83.616Z" fill="#E0E0E0"/>
<path d="M215.309 79.752H179.957V83.616H215.309V79.752Z" fill="#F0F0F0"/>
<path d="M202.296 79.7184H182.717L180.293 53.1216H199.872L202.296 79.7184Z" fill="#E0E0E0"/>
<path d="M203.309 79.7184H183.73L181.31 53.1216H200.89L203.309 79.7184Z" fill="#F0F0F0"/>
<path d="M186.408 76.776L184.522 56.064H198.211L200.098 76.776H186.408Z" fill="#FAFAFA"/>
<path d="M75.5568 116.52C75.5568 116.52 67.1136 101.971 78.8256 90.3888C78.8256 90.3888 81.8832 92.3808 81.8352 95.0592C81.7872 97.7376 78.5616 98.4192 79.2576 100.646C79.9536 102.874 82.9968 105.077 80.9952 106.925C78.9936 108.773 81.3168 110.414 81.1824 112.685C81.048 114.955 75.5568 116.52 75.5568 116.52Z" fill="#E0E0E0"/>
<path d="M76.1952 117.85C76.1952 117.85 79.6176 101.381 64.8528 94.08C64.8528 94.08 62.5824 96.936 63.4704 99.4608C64.3584 101.986 67.632 101.616 67.68 103.954C67.728 106.291 65.5296 109.334 68.0064 110.458C70.4832 111.581 68.8032 113.875 69.648 115.978C70.4928 118.08 76.1952 117.85 76.1952 117.85Z" fill="#E0E0E0"/>
<path d="M63.264 114.202C63.264 114.202 63.5424 125.059 74.304 125.059C85.0656 125.059 85.344 114.202 85.344 114.202H63.264Z" fill="#F0F0F0"/>
<path d="M190.248 183.552H191.347L194.477 168.115L195.029 165.413L198.442 148.613H211.541L218.64 183.552H219.739L212.506 147.946C212.48 147.825 212.414 147.716 212.318 147.638C212.221 147.56 212.101 147.518 211.978 147.518H198.005C197.881 147.517 197.762 147.559 197.666 147.637C197.57 147.715 197.505 147.824 197.482 147.946L194.482 162.72L193.92 165.422L190.248 183.552Z" fill="#EBEBEB"/>
<path d="M169.219 183.552H170.318L177.418 148.594H190.517L193.92 165.422L194.467 168.115L197.602 183.552H198.72L195.038 165.413L194.482 162.72L191.482 147.946C191.456 147.825 191.39 147.716 191.294 147.638C191.197 147.56 191.077 147.518 190.954 147.518H176.981C176.857 147.518 176.737 147.56 176.641 147.638C176.545 147.716 176.478 147.825 176.453 147.946L169.219 183.552Z" fill="#EBEBEB"/>
<path d="M201.509 148.056H177.442C175.233 148.055 173.112 147.189 171.535 145.643C169.957 144.097 169.048 141.994 169.003 139.786L168.106 103.2C168.094 102.386 168.243 101.578 168.546 100.822C168.849 100.067 169.298 99.3787 169.869 98.7982C170.44 98.2177 171.12 97.7563 171.87 97.4408C172.621 97.1252 173.426 96.9618 174.24 96.96H189.326C190.837 96.9597 192.295 97.5154 193.422 98.5211C194.549 99.5268 195.266 100.912 195.437 102.413L201.509 148.056Z" fill="#E6E6E6"/>
<path d="M188.381 143.443H211.934C212.809 143.443 213.648 143.791 214.266 144.409C214.885 145.027 215.232 145.866 215.232 146.741V146.856C215.232 147.174 215.106 147.479 214.881 147.705C214.656 147.93 214.35 148.056 214.032 148.056H188.381V143.443Z" fill="#E6E6E6"/>
<path d="M120 205.229C171.4 205.229 213.067 202.796 213.067 199.795C213.067 196.794 171.4 194.362 120 194.362C68.6005 194.362 26.9329 196.794 26.9329 199.795C26.9329 202.796 68.6005 205.229 120 205.229Z" fill="#F5F5F5"/>
<path d="M89.5439 61.5744C89.5458 60.6804 89.4735 59.7877 89.3279 58.9056C88.6846 55.0068 86.6875 51.4595 83.6878 48.8873C80.6881 46.3151 76.8776 44.8826 72.9263 44.8416H72.7823C70.1314 44.8432 67.5189 45.4752 65.1603 46.6853C62.8018 47.8955 60.7648 49.6491 59.2175 51.8016C58.9631 52.152 58.7375 52.512 58.5071 52.872C58.4883 52.8958 58.4722 52.9215 58.4591 52.9488C56.8834 55.5549 56.0533 58.5434 56.0591 61.5888V61.6224C56.069 65.1619 57.2004 68.6071 59.2907 71.4634C61.3811 74.3197 64.3228 76.44 67.6936 77.5198C71.0643 78.5997 74.6905 78.5835 78.0515 77.4736C81.4124 76.3637 84.3351 74.2172 86.3999 71.3424C86.6495 70.992 86.8799 70.6368 87.1055 70.272C87.1243 70.2482 87.1404 70.2225 87.1535 70.1952C88.7273 67.5958 89.5543 64.613 89.5439 61.5744ZM56.7743 61.1952C56.8298 58.4546 57.5956 55.7752 58.9967 53.4192H64.2335C63.4333 55.9346 63.0142 58.5557 62.9903 61.1952H56.7743ZM64.9679 53.4192H72.4367V61.1952H63.7103C63.7262 58.5539 64.1504 55.9309 64.9679 53.4192ZM73.1567 52.6992V45.5376C74.1949 45.6317 75.1891 46.0012 76.0367 46.608C77.8175 47.8272 79.3103 49.968 80.3567 52.6992H73.1567ZM80.6159 53.4192C81.2097 55.2173 81.5962 57.0774 81.7679 58.9632C81.8399 59.712 81.8735 60.456 81.8831 61.1952H73.1567V53.4192H80.6159ZM71.3807 45.7392C71.7253 45.6413 72.0793 45.5802 72.4367 45.5568V52.7136H65.2367C66.5807 49.0944 68.7599 46.464 71.3807 45.7248V45.7392ZM72.4367 61.9296V69.7056H64.9823C64.3884 67.9031 64.005 66.0379 63.8399 64.1472C63.7727 63.3984 63.7343 62.6544 63.7247 61.9152L72.4367 61.9296ZM72.4367 70.4256V77.5872C71.3987 77.4924 70.4047 77.123 69.5567 76.5168C67.7807 75.2976 66.2879 73.1568 65.2367 70.4256H72.4367ZM74.2127 77.4C73.8682 77.4983 73.5142 77.5595 73.1567 77.5824V70.4112H80.3567C79.0127 74.016 76.8335 76.6512 74.2127 77.3856V77.4ZM73.1567 69.72V61.92H81.8831C81.8695 64.5615 81.4453 67.1849 80.6255 69.696L73.1567 69.72ZM82.6031 61.92H88.8431C88.785 64.6602 88.0194 67.3389 86.6207 69.696H81.3599C82.1602 67.1806 82.5792 64.5595 82.6031 61.92ZM88.8431 61.2H82.6031C82.6031 60.4416 82.5551 59.6736 82.4831 58.9008C82.3193 57.0403 81.9507 55.2036 81.3839 53.424H86.6111C87.6213 55.1391 88.3033 57.0273 88.6223 58.992C88.7366 59.7213 88.804 60.4572 88.8239 61.1952L88.8431 61.2ZM82.1855 48.5616C83.7544 49.6917 85.1071 51.0948 86.1791 52.704H81.1199C80.0447 49.7328 78.4271 47.3808 76.4447 46.0176L76.2911 45.9168C78.4078 46.3908 80.4064 47.2889 82.1663 48.5568L82.1855 48.5616ZM69.2879 45.9264C67.2671 47.256 65.6063 49.6752 64.4879 52.704H59.4479L59.7983 52.1904C62.0778 49.0083 65.449 46.7768 69.2687 45.9216L69.2879 45.9264ZM56.8079 61.92H63.0239C63.0239 62.6784 63.0719 63.4464 63.1439 64.2192C63.3101 66.0793 63.6787 67.9158 64.2431 69.696H58.9871C57.9749 67.9819 57.2928 66.0933 56.9759 64.128C56.8564 63.3977 56.7891 62.6598 56.7743 61.92H56.8079ZM59.4671 70.416H64.4879C65.5631 73.3872 67.1807 75.7392 69.1631 77.1024L69.3215 77.2032C65.2883 76.2872 61.7608 73.8576 59.4671 70.416ZM76.3199 77.1888C78.3359 75.864 79.9967 73.44 81.1199 70.4112H86.1503C86.0351 70.584 85.9199 70.7568 85.7999 70.9248C83.5185 74.1083 80.1431 76.3387 76.3199 77.1888Z" fill="#1C6758"/>
<path opacity="0.8" d="M89.5439 61.5744C89.5458 60.6804 89.4735 59.7877 89.3279 58.9056C88.6846 55.0068 86.6875 51.4595 83.6878 48.8873C80.6881 46.3151 76.8776 44.8826 72.9263 44.8416H72.7823C70.1314 44.8432 67.5189 45.4752 65.1603 46.6853C62.8018 47.8955 60.7648 49.6491 59.2175 51.8016C58.9631 52.152 58.7375 52.512 58.5071 52.872C58.4883 52.8958 58.4722 52.9215 58.4591 52.9488C56.8834 55.5549 56.0533 58.5434 56.0591 61.5888V61.6224C56.069 65.1619 57.2004 68.6071 59.2907 71.4634C61.3811 74.3197 64.3228 76.44 67.6936 77.5198C71.0643 78.5997 74.6905 78.5835 78.0515 77.4736C81.4124 76.3637 84.3351 74.2172 86.3999 71.3424C86.6495 70.992 86.8799 70.6368 87.1055 70.272C87.1243 70.2482 87.1404 70.2225 87.1535 70.1952C88.7273 67.5958 89.5543 64.613 89.5439 61.5744ZM56.7743 61.1952C56.8298 58.4546 57.5956 55.7752 58.9967 53.4192H64.2335C63.4333 55.9346 63.0142 58.5557 62.9903 61.1952H56.7743ZM64.9679 53.4192H72.4367V61.1952H63.7103C63.7262 58.5539 64.1504 55.9309 64.9679 53.4192ZM73.1567 52.6992V45.5376C74.1949 45.6317 75.1891 46.0012 76.0367 46.608C77.8175 47.8272 79.3103 49.968 80.3567 52.6992H73.1567ZM80.6159 53.4192C81.2097 55.2173 81.5962 57.0774 81.7679 58.9632C81.8399 59.712 81.8735 60.456 81.8831 61.1952H73.1567V53.4192H80.6159ZM71.3807 45.7392C71.7253 45.6413 72.0793 45.5802 72.4367 45.5568V52.7136H65.2367C66.5807 49.0944 68.7599 46.464 71.3807 45.7248V45.7392ZM72.4367 61.9296V69.7056H64.9823C64.3884 67.9031 64.005 66.0379 63.8399 64.1472C63.7727 63.3984 63.7343 62.6544 63.7247 61.9152L72.4367 61.9296ZM72.4367 70.4256V77.5872C71.3987 77.4924 70.4047 77.123 69.5567 76.5168C67.7807 75.2976 66.2879 73.1568 65.2367 70.4256H72.4367ZM74.2127 77.4C73.8682 77.4983 73.5142 77.5595 73.1567 77.5824V70.4112H80.3567C79.0127 74.016 76.8335 76.6512 74.2127 77.3856V77.4ZM73.1567 69.72V61.92H81.8831C81.8695 64.5615 81.4453 67.1849 80.6255 69.696L73.1567 69.72ZM82.6031 61.92H88.8431C88.785 64.6602 88.0194 67.3389 86.6207 69.696H81.3599C82.1602 67.1806 82.5792 64.5595 82.6031 61.92ZM88.8431 61.2H82.6031C82.6031 60.4416 82.5551 59.6736 82.4831 58.9008C82.3193 57.0403 81.9507 55.2036 81.3839 53.424H86.6111C87.6213 55.1391 88.3033 57.0273 88.6223 58.992C88.7366 59.7213 88.804 60.4572 88.8239 61.1952L88.8431 61.2ZM82.1855 48.5616C83.7544 49.6917 85.1071 51.0948 86.1791 52.704H81.1199C80.0447 49.7328 78.4271 47.3808 76.4447 46.0176L76.2911 45.9168C78.4078 46.3908 80.4064 47.2889 82.1663 48.5568L82.1855 48.5616ZM69.2879 45.9264C67.2671 47.256 65.6063 49.6752 64.4879 52.704H59.4479L59.7983 52.1904C62.0778 49.0083 65.449 46.7768 69.2687 45.9216L69.2879 45.9264ZM56.8079 61.92H63.0239C63.0239 62.6784 63.0719 63.4464 63.1439 64.2192C63.3101 66.0793 63.6787 67.9158 64.2431 69.696H58.9871C57.9749 67.9819 57.2928 66.0933 56.9759 64.128C56.8564 63.3977 56.7891 62.6598 56.7743 61.92H56.8079ZM59.4671 70.416H64.4879C65.5631 73.3872 67.1807 75.7392 69.1631 77.1024L69.3215 77.2032C65.2883 76.2872 61.7608 73.8576 59.4671 70.416ZM76.3199 77.1888C78.3359 75.864 79.9967 73.44 81.1199 70.4112H86.1503C86.0351 70.584 85.9199 70.7568 85.7999 70.9248C83.5185 74.1083 80.1431 76.3387 76.3199 77.1888Z" fill="#FAFAFA"/>
<path d="M198.859 69.552H47.9471V106.118H198.859V69.552Z" fill="#1C6758"/>
<path opacity="0.6" d="M198.859 69.552H47.9471V106.118H198.859V69.552Z" fill="#FAFAFA"/>
<path d="M195.456 72.9552H44.5439V109.522H195.456V72.9552Z" fill="#1C6758"/>
<path opacity="0.3" d="M195.456 72.9552H44.5439V109.522H195.456V72.9552Z" fill="black"/>
<path d="M192.053 76.3584H41.1407V112.925H192.053V76.3584Z" fill="#1C6758"/>
<path opacity="0.1" d="M192.053 76.3584H41.1407V112.925H192.053V76.3584Z" fill="#FAFAFA"/>
<path d="M184.853 105.725V83.5584L48.3408 83.5584V105.725H184.853Z" fill="#1C6758"/>
<path opacity="0.9" d="M184.853 105.725V83.5584L48.3408 83.5584V105.725H184.853Z" fill="#FAFAFA"/>
<path d="M161.89 83.5584V105.725H162.691V83.5584H161.89Z" fill="#1C6758"/>
<path opacity="0.6" d="M161.89 83.5584V105.725H162.691V83.5584H161.89Z" fill="#FAFAFA"/>
<path d="M51.7439 86.616V102.667H52.5455V86.616H51.7439Z" fill="#1C6758"/>
<path opacity="0.6" d="M51.7439 86.616V102.667H52.5455V86.616H51.7439Z" fill="#FAFAFA"/>
<path d="M173.006 97.44C172.424 97.4397 171.851 97.2959 171.337 97.0212C170.823 96.7464 170.385 96.3493 170.062 95.8649C169.739 95.3806 169.539 94.8239 169.482 94.2443C169.425 93.6646 169.512 93.0799 169.735 92.5418C169.958 92.0037 170.31 91.5289 170.761 91.1593C171.211 90.7898 171.745 90.537 172.316 90.4233C172.888 90.3096 173.478 90.3386 174.035 90.5075C174.593 90.6765 175.1 90.9803 175.512 91.392C176.008 91.8874 176.345 92.5187 176.482 93.2061C176.619 93.8935 176.549 94.6059 176.281 95.2534C176.012 95.9009 175.558 96.4542 174.975 96.8435C174.392 97.2327 173.707 97.4403 173.006 97.44ZM173.006 91.32C172.409 91.3202 171.83 91.5276 171.368 91.9069C170.906 92.2862 170.59 92.8139 170.474 93.4001C170.358 93.9863 170.448 94.5946 170.731 95.1214C171.013 95.6482 171.469 96.0609 172.021 96.2891C172.573 96.5173 173.188 96.5469 173.759 96.3728C174.331 96.1987 174.825 95.8318 175.156 95.3345C175.487 94.8372 175.636 94.2404 175.577 93.6458C175.517 93.0511 175.254 92.4955 174.83 92.0736C174.593 91.8291 174.31 91.6344 173.997 91.5009C173.684 91.3674 173.347 91.2977 173.006 91.296V91.32Z" fill="#1C6758"/>
<path d="M177.6 98.9472C177.536 98.9469 177.474 98.9341 177.415 98.9093C177.357 98.8846 177.304 98.8485 177.259 98.8032L174.835 96.3792C174.785 96.3362 174.744 96.2832 174.715 96.2237C174.686 96.1641 174.67 96.0992 174.668 96.0331C174.665 95.967 174.676 95.9011 174.7 95.8395C174.725 95.7779 174.761 95.722 174.808 95.6752C174.855 95.6284 174.911 95.5918 174.972 95.5677C175.034 95.5436 175.1 95.5324 175.166 95.535C175.232 95.5375 175.297 95.5537 175.356 95.5825C175.416 95.6113 175.469 95.6521 175.512 95.7024L177.936 98.1264C178.025 98.2163 178.076 98.338 178.076 98.4648C178.076 98.5916 178.025 98.7133 177.936 98.8032C177.847 98.8936 177.727 98.9454 177.6 98.9472Z" fill="#1C6758"/>
<g opacity="0.6">
<path d="M173.006 97.44C172.424 97.4397 171.851 97.2959 171.337 97.0212C170.823 96.7464 170.385 96.3493 170.062 95.8649C169.739 95.3806 169.539 94.8239 169.482 94.2443C169.425 93.6646 169.512 93.0799 169.735 92.5418C169.958 92.0037 170.31 91.5289 170.761 91.1593C171.211 90.7898 171.745 90.537 172.316 90.4233C172.888 90.3096 173.478 90.3386 174.035 90.5075C174.593 90.6765 175.1 90.9803 175.512 91.392C176.008 91.8874 176.345 92.5187 176.482 93.2061C176.619 93.8935 176.549 94.6059 176.281 95.2534C176.012 95.9009 175.558 96.4542 174.975 96.8435C174.392 97.2327 173.707 97.4403 173.006 97.44ZM173.006 91.32C172.409 91.3202 171.83 91.5276 171.368 91.9069C170.906 92.2862 170.59 92.8139 170.474 93.4001C170.358 93.9863 170.448 94.5946 170.731 95.1214C171.013 95.6482 171.469 96.0609 172.021 96.2891C172.573 96.5173 173.188 96.5469 173.759 96.3728C174.331 96.1987 174.825 95.8318 175.156 95.3345C175.487 94.8372 175.636 94.2404 175.577 93.6458C175.517 93.0511 175.254 92.4955 174.83 92.0736C174.593 91.8291 174.31 91.6344 173.997 91.5009C173.684 91.3674 173.347 91.2977 173.006 91.296V91.32Z" fill="#FAFAFA"/>
<path d="M177.6 98.9472C177.536 98.9469 177.474 98.9341 177.415 98.9093C177.357 98.8846 177.304 98.8485 177.259 98.8032L174.835 96.3792C174.785 96.3362 174.744 96.2832 174.715 96.2237C174.686 96.1641 174.67 96.0992 174.668 96.0331C174.665 95.967 174.676 95.9011 174.7 95.8395C174.725 95.7779 174.761 95.722 174.808 95.6752C174.855 95.6284 174.911 95.5918 174.972 95.5677C175.034 95.5436 175.1 95.5324 175.166 95.535C175.232 95.5375 175.297 95.5537 175.356 95.5825C175.416 95.6113 175.469 95.6521 175.512 95.7024L177.936 98.1264C178.025 98.2163 178.076 98.338 178.076 98.4648C178.076 98.5916 178.025 98.7133 177.936 98.8032C177.847 98.8936 177.727 98.9454 177.6 98.9472Z" fill="#FAFAFA"/>
</g>
<path d="M140.443 47.448H125.352V47.8224H140.443V47.448Z" fill="#1C6758"/>
<path d="M140.443 49.0368H125.352V49.4112H140.443V49.0368Z" fill="#1C6758"/>
<path d="M140.443 50.6304H125.352V51.0048H140.443V50.6304Z" fill="#1C6758"/>
<path d="M140.443 52.2192H125.352V52.5936H140.443V52.2192Z" fill="#1C6758"/>
<path d="M140.443 53.808H125.352V54.1824H140.443V53.808Z" fill="#1C6758"/>
<path d="M135.192 55.4016H125.352V55.776H135.192V55.4016Z" fill="#1C6758"/>
<g opacity="0.5">
<path d="M140.443 47.448H125.352V47.8224H140.443V47.448Z" fill="#FAFAFA"/>
<path d="M140.443 49.0368H125.352V49.4112H140.443V49.0368Z" fill="#FAFAFA"/>
<path d="M140.443 50.6304H125.352V51.0048H140.443V50.6304Z" fill="#FAFAFA"/>
<path d="M140.443 52.2192H125.352V52.5936H140.443V52.2192Z" fill="#FAFAFA"/>
<path d="M140.443 53.808H125.352V54.1824H140.443V53.808Z" fill="#FAFAFA"/>
<path d="M135.192 55.4016H125.352V55.776H135.192V55.4016Z" fill="#FAFAFA"/>
</g>
<path d="M49.608 116.083H33.528V116.323H49.608V116.083Z" fill="#1C6758"/>
<path d="M49.608 117.101H33.528V117.341H49.608V117.101Z" fill="#1C6758"/>
<path d="M49.608 118.118H33.528V118.358H49.608V118.118Z" fill="#1C6758"/>
<path d="M49.608 119.136H33.528V119.376H49.608V119.136Z" fill="#1C6758"/>
<path d="M49.608 120.154H33.528V120.394H49.608V120.154Z" fill="#1C6758"/>
<path d="M43.6368 121.176H33.528V121.416H43.6368V121.176Z" fill="#1C6758"/>
<g opacity="0.4">
<path d="M49.608 116.083H33.528V116.323H49.608V116.083Z" fill="#FAFAFA"/>
<path d="M49.608 117.101H33.528V117.341H49.608V117.101Z" fill="#FAFAFA"/>
<path d="M49.608 118.118H33.528V118.358H49.608V118.118Z" fill="#FAFAFA"/>
<path d="M49.608 119.136H33.528V119.376H49.608V119.136Z" fill="#FAFAFA"/>
<path d="M49.608 120.154H33.528V120.394H49.608V120.154Z" fill="#FAFAFA"/>
<path d="M43.6368 121.176H33.528V121.416H43.6368V121.176Z" fill="#FAFAFA"/>
</g>
<path d="M102.456 49.8048C101.651 49.8048 100.88 50.1244 100.311 50.6933C99.742 51.2622 99.4224 52.0338 99.4224 52.8384V62.8464C99.4224 63.651 99.742 64.4226 100.311 64.9915C100.88 65.5604 101.651 65.88 102.456 65.88C103.261 65.88 104.032 65.5604 104.601 64.9915C105.17 64.4226 105.49 63.651 105.49 62.8464V52.8384C105.49 52.0338 105.17 51.2622 104.601 50.6933C104.032 50.1244 103.261 49.8048 102.456 49.8048Z" fill="#1C6758"/>
<path opacity="0.2" d="M102.456 49.8048C101.651 49.8048 100.88 50.1244 100.311 50.6933C99.742 51.2622 99.4224 52.0338 99.4224 52.8384V62.8464C99.4224 63.651 99.742 64.4226 100.311 64.9915C100.88 65.5604 101.651 65.88 102.456 65.88C103.261 65.88 104.032 65.5604 104.601 64.9915C105.17 64.4226 105.49 63.651 105.49 62.8464V52.8384C105.49 52.0338 105.17 51.2622 104.601 50.6933C104.032 50.1244 103.261 49.8048 102.456 49.8048Z" fill="#FAFAFA"/>
<path d="M110.059 43.8384C109.257 43.8422 108.489 44.1635 107.923 44.732C107.358 45.3005 107.04 46.0699 107.04 46.872V62.8464C107.04 63.651 107.36 64.4226 107.928 64.9915C108.497 65.5604 109.269 65.88 110.074 65.88C110.878 65.88 111.65 65.5604 112.219 64.9915C112.788 64.4226 113.107 63.651 113.107 62.8464V46.872C113.107 46.4724 113.028 46.0767 112.875 45.7078C112.721 45.3388 112.497 45.0037 112.214 44.7218C111.93 44.4399 111.594 44.2168 111.224 44.0652C110.855 43.9136 110.459 43.8365 110.059 43.8384Z" fill="#1C6758"/>
<path opacity="0.3" d="M110.059 43.8384C109.257 43.8422 108.489 44.1635 107.923 44.732C107.358 45.3005 107.04 46.0699 107.04 46.872V62.8464C107.04 63.651 107.36 64.4226 107.928 64.9915C108.497 65.5604 109.269 65.88 110.074 65.88C110.878 65.88 111.65 65.5604 112.219 64.9915C112.788 64.4226 113.107 63.651 113.107 62.8464V46.872C113.107 46.4724 113.028 46.0767 112.875 45.7078C112.721 45.3388 112.497 45.0037 112.214 44.7218C111.93 44.4399 111.594 44.2168 111.224 44.0652C110.855 43.9136 110.459 43.8365 110.059 43.8384Z" fill="black"/>
<path d="M117.658 55.7712C116.853 55.7712 116.081 56.0908 115.513 56.6597C114.944 57.2286 114.624 58.0002 114.624 58.8048V62.8464C114.624 63.651 114.944 64.4226 115.513 64.9915C116.081 65.5604 116.853 65.88 117.658 65.88C118.056 65.8806 118.451 65.8026 118.82 65.6505C119.189 65.4983 119.524 65.2749 119.806 64.9932C120.088 64.7114 120.312 64.3768 120.465 64.0084C120.617 63.6401 120.696 63.2452 120.696 62.8464V58.8048C120.696 58.406 120.617 58.0111 120.465 57.6428C120.312 57.2744 120.088 56.9398 119.806 56.658C119.524 56.3763 119.189 56.1529 118.82 56.0007C118.451 55.8486 118.056 55.7706 117.658 55.7712Z" fill="#1C6758"/>
<path opacity="0.6" d="M117.658 55.7712C116.853 55.7712 116.081 56.0908 115.513 56.6597C114.944 57.2286 114.624 58.0002 114.624 58.8048V62.8464C114.624 63.651 114.944 64.4226 115.513 64.9915C116.081 65.5604 116.853 65.88 117.658 65.88C118.056 65.8806 118.451 65.8026 118.82 65.6505C119.189 65.4983 119.524 65.2749 119.806 64.9932C120.088 64.7114 120.312 64.3768 120.465 64.0084C120.617 63.6401 120.696 63.2452 120.696 62.8464V58.8048C120.696 58.406 120.617 58.0111 120.465 57.6428C120.312 57.2744 120.088 56.9398 119.806 56.658C119.524 56.3763 119.189 56.1529 118.82 56.0007C118.451 55.8486 118.056 55.7706 117.658 55.7712Z" fill="#FAFAFA"/>
<path d="M181.733 124.382H193.997L173.059 102.667L181.733 124.382Z" fill="#1C6758"/>
<g opacity="0.1">
<path d="M181.733 124.382H193.997L173.059 102.667L181.733 124.382Z" fill="black"/>
</g>
<g style="mix-blend-mode:multiply">
<path d="M169.944 112.92L173.059 102.667L174.826 112.92H169.944Z" fill="#1C6758"/>
</g>
<path d="M173.059 102.667V133.051L175.229 130.886L181.733 124.382L173.059 102.667Z" fill="#1C6758"/>
<path opacity="0.3" d="M173.059 102.667V133.051L175.229 130.886L181.733 124.382L173.059 102.667Z" fill="#FAFAFA"/>
<path d="M194.746 37.4928H167.866C166.503 37.4978 165.198 38.0409 164.234 39.0038C163.271 39.9666 162.726 41.2713 162.72 42.6336V56.5152C162.726 57.8767 163.27 59.1806 164.233 60.1433C165.195 61.106 166.499 61.6497 167.861 61.656H187.584L187.44 66.5088L192.418 61.656H194.736C196.098 61.6509 197.403 61.1079 198.367 60.145C199.331 59.1821 199.875 57.8775 199.882 56.5152V42.6336C199.875 41.2729 199.332 39.9697 198.371 39.0072C197.409 38.0446 196.106 37.5004 194.746 37.4928ZM167.261 43.4064C167.261 43.0245 167.412 42.6582 167.683 42.3882C167.953 42.1181 168.319 41.9664 168.701 41.9664H174.888C175.27 41.9664 175.636 42.1181 175.906 42.3882C176.176 42.6582 176.328 43.0245 176.328 43.4064C176.328 43.7883 176.176 44.1546 175.906 44.4246C175.636 44.6947 175.27 44.8464 174.888 44.8464H168.696C168.315 44.8451 167.95 44.6929 167.681 44.4229C167.412 44.153 167.261 43.7875 167.261 43.4064ZM193.219 56.8464H182.525C182.318 56.8827 182.105 56.8732 181.902 56.8186C181.7 56.7641 181.511 56.6658 181.35 56.5306C181.189 56.3954 181.06 56.2267 180.971 56.0362C180.882 55.8457 180.836 55.6381 180.836 55.428C180.836 55.2179 180.882 55.0103 180.971 54.8198C181.06 54.6293 181.189 54.4606 181.35 54.3254C181.511 54.1902 181.7 54.0919 181.902 54.0374C182.105 53.9828 182.318 53.9733 182.525 54.0096H193.219C193.426 53.9733 193.639 53.9828 193.842 54.0374C194.044 54.0919 194.233 54.1902 194.394 54.3254C194.555 54.4606 194.684 54.6293 194.773 54.8198C194.862 55.0103 194.908 55.2179 194.908 55.428C194.908 55.6381 194.862 55.8457 194.773 56.0362C194.684 56.2267 194.555 56.3954 194.394 56.5306C194.233 56.6658 194.044 56.7641 193.842 56.8186C193.639 56.8732 193.426 56.8827 193.219 56.8464ZM193.219 50.8416H170.136C169.929 50.8779 169.717 50.8684 169.514 50.8138C169.311 50.7593 169.122 50.661 168.961 50.5258C168.8 50.3906 168.671 50.2219 168.582 50.0314C168.493 49.8409 168.447 49.6333 168.447 49.4232C168.447 49.2131 168.493 49.0055 168.582 48.815C168.671 48.6245 168.8 48.4558 168.961 48.3206C169.122 48.1854 169.311 48.0871 169.514 48.0326C169.717 47.978 169.929 47.9685 170.136 48.0048H193.219C193.426 47.9685 193.639 47.978 193.842 48.0326C194.044 48.0871 194.233 48.1854 194.394 48.3206C194.555 48.4558 194.684 48.6245 194.773 48.815C194.862 49.0055 194.908 49.2131 194.908 49.4232C194.908 49.6333 194.862 49.8409 194.773 50.0314C194.684 50.2219 194.555 50.3906 194.394 50.5258C194.233 50.661 194.044 50.7593 193.842 50.8138C193.639 50.8684 193.426 50.8779 193.219 50.8416ZM193.219 44.8368H179.554C179.172 44.8368 178.805 44.6851 178.535 44.415C178.265 44.145 178.114 43.7787 178.114 43.3968C178.114 43.0149 178.265 42.6486 178.535 42.3786C178.805 42.1085 179.172 41.9568 179.554 41.9568H193.219C193.601 41.9568 193.967 42.1085 194.237 42.3786C194.507 42.6486 194.659 43.0149 194.659 43.3968C194.659 43.7787 194.507 44.145 194.237 44.415C193.967 44.6851 193.601 44.8368 193.219 44.8368Z" fill="#1C6758"/>
<path d="M152.707 81.4944C151.559 78.3408 149.806 75.4418 147.547 72.96H109.382C107.123 75.4418 105.37 78.3408 104.222 81.4944L109.502 107.779C113.542 112.158 118.972 115.003 124.872 115.832C130.771 116.661 136.775 115.421 141.865 112.325C146.954 109.228 150.814 104.465 152.79 98.8453C154.766 93.2251 154.735 87.0943 152.702 81.4944H152.707Z" fill="#1C6758"/>
<path opacity="0.1" d="M152.707 81.4944C151.559 78.3408 149.806 75.4418 147.547 72.96H109.382C107.123 75.4418 105.37 78.3408 104.222 81.4944L109.502 107.779C113.542 112.158 118.972 115.003 124.872 115.832C130.771 116.661 136.775 115.421 141.865 112.325C146.954 109.228 150.814 104.465 152.79 98.8453C154.766 93.2251 154.735 87.0943 152.702 81.4944H152.707Z" fill="#FAFAFA"/>
<path d="M154.229 91.4928C153.956 97.5536 151.549 103.323 147.432 107.779H109.512C106.311 104.301 104.126 100.01 103.195 95.3755C102.264 90.7407 102.622 85.9393 104.232 81.4944H152.712C153.876 84.6935 154.392 88.0924 154.229 91.4928Z" fill="#1C6758"/>
<path opacity="0.9" d="M154.229 91.4928C153.956 97.5536 151.549 103.323 147.432 107.779H109.512C106.311 104.301 104.126 100.01 103.195 95.3755C102.264 90.7407 102.622 85.9393 104.232 81.4944H152.712C153.876 84.6935 154.392 88.0924 154.229 91.4928Z" fill="#FAFAFA"/>
<path opacity="0.3" d="M154.229 91.4928C153.93 97.8707 151.271 103.91 146.769 108.437C142.266 112.964 136.241 115.655 129.865 115.988C123.489 116.32 117.217 114.271 112.267 110.237C107.318 106.203 104.045 100.473 103.084 94.1612C102.124 87.849 103.544 81.4051 107.069 76.0817C110.595 70.7582 115.973 66.9355 122.16 65.3563C128.346 63.7772 134.899 64.5543 140.544 67.5368C146.19 70.5193 150.525 75.494 152.707 81.4944C153.872 84.6935 154.389 88.0921 154.229 91.4928Z" fill="white"/>
<path opacity="0.4" d="M143.002 69.0048L105.917 102.826C105.731 102.483 105.549 102.138 105.37 101.789C104.236 99.5188 103.448 97.0919 103.032 94.5888L135.062 65.376C137.897 66.1229 140.582 67.3503 143.002 69.0048Z" fill="white"/>
<path opacity="0.4" d="M152.923 82.1136L118.08 113.909C114.466 112.314 111.267 109.91 108.73 106.882L146.803 72.1584C149.578 74.965 151.671 78.3708 152.923 82.1136Z" fill="white"/>
<path d="M154.219 75.432C151.278 70.3317 146.89 66.2185 141.61 63.6128C136.33 61.0071 130.396 60.0261 124.559 60.7938C118.721 61.5615 113.243 64.0435 108.816 67.9257C104.39 71.8079 101.214 76.9159 99.6916 82.6033C98.169 88.2908 98.3675 94.302 100.262 99.8766C102.157 105.451 105.663 110.338 110.336 113.92C115.009 117.502 120.639 119.617 126.514 119.997C132.39 120.378 138.246 119.008 143.342 116.059C150.168 112.11 155.147 105.614 157.187 97.9961C159.226 90.3786 158.159 82.2631 154.219 75.432ZM108.139 102.043C105.818 98.0238 104.742 93.4065 105.045 88.7752C105.348 84.1438 107.018 79.7064 109.843 76.0241C112.668 72.3417 116.522 69.5798 120.917 68.0876C125.312 66.5954 130.05 66.4399 134.534 67.6407C139.017 68.8416 143.043 71.3449 146.104 74.8341C149.165 78.3232 151.122 82.6416 151.728 87.2431C152.334 91.8446 151.563 96.5226 149.51 100.685C147.458 104.848 144.218 108.309 140.198 110.63C137.53 112.172 134.584 113.172 131.529 113.575C128.474 113.977 125.369 113.774 122.392 112.977C119.416 112.179 116.625 110.803 114.181 108.927C111.736 107.051 109.685 104.712 108.144 102.043H108.139Z" fill="#1C6758"/>
<path opacity="0.1" d="M154.219 75.432C151.278 70.3317 146.89 66.2185 141.61 63.6128C136.33 61.0071 130.396 60.0261 124.559 60.7938C118.721 61.5615 113.243 64.0435 108.816 67.9257C104.39 71.8079 101.214 76.9159 99.6916 82.6033C98.169 88.2908 98.3675 94.302 100.262 99.8766C102.157 105.451 105.663 110.338 110.336 113.92C115.009 117.502 120.639 119.617 126.514 119.997C132.39 120.378 138.246 119.008 143.342 116.059C150.168 112.11 155.147 105.614 157.187 97.9961C159.226 90.3786 158.159 82.2631 154.219 75.432ZM108.139 102.043C105.818 98.0238 104.742 93.4065 105.045 88.7752C105.348 84.1438 107.018 79.7064 109.843 76.0241C112.668 72.3417 116.522 69.5798 120.917 68.0876C125.312 66.5954 130.05 66.4399 134.534 67.6407C139.017 68.8416 143.043 71.3449 146.104 74.8341C149.165 78.3232 151.122 82.6416 151.728 87.2431C152.334 91.8446 151.563 96.5226 149.51 100.685C147.458 104.848 144.218 108.309 140.198 110.63C137.53 112.172 134.584 113.172 131.529 113.575C128.474 113.977 125.369 113.774 122.392 112.977C119.416 112.179 116.625 110.803 114.181 108.927C111.736 107.051 109.685 104.712 108.144 102.043H108.139Z" fill="black"/>
<path d="M60.0288 120.907L63.7056 121.762L60.6576 124.037C60.6576 124.037 58.4736 123.048 58.3728 121.498L60.0288 120.907Z" fill="#E4897B"/>
<path d="M65.6736 124.21L63.024 125.976L60.6576 124.037L63.7056 121.766L65.6736 124.21Z" fill="#E4897B"/>
<path d="M107.266 105.974C103.358 108.854 99.3504 111.59 95.3232 114.264C91.296 116.938 87.216 119.544 83.1168 122.102C79.0176 124.661 74.88 127.166 70.728 129.6C68.6544 130.838 66.5616 132.038 64.488 133.258C63.458 133.913 62.335 134.41 61.1568 134.731C60.5283 134.898 59.8855 135.006 59.2368 135.053C58.5167 135.112 57.792 135.074 57.0816 134.942C56.574 134.842 56.0911 134.642 55.6607 134.355C55.2302 134.068 54.8607 133.699 54.5731 133.268C54.2855 132.838 54.0856 132.355 53.9848 131.848C53.884 131.34 53.8843 130.818 53.9856 130.31C54.0185 130.147 54.0634 129.987 54.12 129.83C54.3518 129.15 54.6747 128.504 55.08 127.91C55.4416 127.377 55.8531 126.878 56.3088 126.422C57.1769 125.563 58.1687 124.838 59.2512 124.272C61.3488 123.077 63.432 121.872 65.544 120.686C69.7488 118.31 73.992 115.997 78.2448 113.712C82.4976 111.427 86.8032 109.214 91.1328 107.054C95.4624 104.894 99.8256 102.792 104.28 100.853C104.952 100.556 105.711 100.517 106.409 100.745C107.108 100.973 107.698 101.451 108.066 102.087C108.434 102.723 108.554 103.473 108.402 104.192C108.251 104.912 107.839 105.55 107.246 105.984L107.266 105.974Z" fill="#1C6758"/>
<path opacity="0.1" d="M107.266 105.974C103.358 108.854 99.3504 111.59 95.3232 114.264C91.296 116.938 87.216 119.544 83.1168 122.102C79.0176 124.661 74.88 127.166 70.728 129.6C68.6544 130.838 66.5616 132.038 64.488 133.258C63.458 133.913 62.335 134.41 61.1568 134.731C60.5283 134.898 59.8855 135.006 59.2368 135.053C58.5167 135.112 57.792 135.074 57.0816 134.942C56.574 134.842 56.0911 134.642 55.6607 134.355C55.2302 134.068 54.8607 133.699 54.5731 133.268C54.2855 132.838 54.0856 132.355 53.9848 131.848C53.884 131.34 53.8843 130.818 53.9856 130.31C54.0185 130.147 54.0634 129.987 54.12 129.83C54.3518 129.15 54.6747 128.504 55.08 127.91C55.4416 127.377 55.8531 126.878 56.3088 126.422C57.1769 125.563 58.1687 124.838 59.2512 124.272C61.3488 123.077 63.432 121.872 65.544 120.686C69.7488 118.31 73.992 115.997 78.2448 113.712C82.4976 111.427 86.8032 109.214 91.1328 107.054C95.4624 104.894 99.8256 102.792 104.28 100.853C104.952 100.556 105.711 100.517 106.409 100.745C107.108 100.973 107.698 101.451 108.066 102.087C108.434 102.723 108.554 103.473 108.402 104.192C108.251 104.912 107.839 105.55 107.246 105.984L107.266 105.974Z" fill="black"/>
<path d="M65.3568 98.1696C65.1168 98.5584 64.8432 99.0288 64.584 99.4704C64.3248 99.912 64.0704 100.373 63.8304 100.838C63.3504 101.755 62.8704 102.686 62.3904 103.632C61.9104 104.578 61.5216 105.552 61.128 106.512C60.936 106.992 60.7344 107.472 60.5568 107.952L60.288 108.686C60.2352 108.826 60.2256 108.883 60.192 108.984C60.1584 109.085 60.144 109.181 60.1152 109.277C59.9279 110.225 59.833 111.19 59.832 112.157C59.808 113.189 59.832 114.24 59.8896 115.301C59.9472 116.362 60.0048 117.427 60.1008 118.493C60.1968 119.558 60.2928 120.643 60.3936 121.699L58.5408 122.078C58.2144 121.008 57.96 119.942 57.7056 118.862C57.4512 117.782 57.2592 116.698 57.072 115.594C56.8848 114.49 56.76 113.381 56.6784 112.234C56.5786 111.032 56.6092 109.824 56.7696 108.629C56.7984 108.461 56.8224 108.302 56.8656 108.149C56.9088 107.995 56.952 107.779 56.9904 107.669L57.2256 106.853C57.3792 106.31 57.5568 105.773 57.7392 105.24C58.1088 104.17 58.512 103.118 58.9632 102.082C59.4144 101.045 59.8944 100.032 60.4032 99.0336C60.6672 98.5536 60.9456 98.04 61.2288 97.5456C61.512 97.0512 61.7952 96.5856 62.1504 96.0624L65.3568 98.1696Z" fill="#E4897B"/>
<path d="M63.3073 197.28C62.9834 197.27 62.6615 197.225 62.3473 197.146C62.3305 197.143 62.3149 197.135 62.3029 197.123C62.2908 197.111 62.2829 197.095 62.2801 197.078C62.277 197.061 62.279 197.043 62.2858 197.027C62.2926 197.011 62.304 196.997 62.3185 196.987C62.4481 196.901 63.5809 196.171 64.0177 196.368C64.0662 196.39 64.1079 196.425 64.1383 196.469C64.1687 196.513 64.1867 196.564 64.1905 196.618C64.213 196.703 64.2115 196.793 64.1861 196.878C64.1607 196.963 64.1124 197.039 64.0465 197.098C63.8302 197.246 63.5676 197.311 63.3073 197.28ZM62.5729 197.021C63.2257 197.15 63.7153 197.126 63.9025 196.954C63.9436 196.914 63.9737 196.865 63.9897 196.81C64.0057 196.755 64.0071 196.697 63.9937 196.642C63.9931 196.617 63.9855 196.593 63.972 196.573C63.9584 196.553 63.9393 196.536 63.9169 196.526C63.6913 196.426 63.0337 196.742 62.5729 197.021Z" fill="#1C6758"/>
<path d="M62.3424 197.15C62.3283 197.155 62.3133 197.155 62.2992 197.15C62.2854 197.143 62.274 197.132 62.2663 197.118C62.2587 197.105 62.2551 197.089 62.256 197.074C62.256 197.03 62.256 195.955 62.664 195.595C62.7144 195.55 62.7738 195.516 62.8383 195.495C62.9029 195.474 62.9711 195.468 63.0384 195.475C63.1092 195.476 63.1774 195.502 63.2316 195.547C63.2859 195.592 63.3227 195.655 63.336 195.725C63.4224 196.142 62.7408 196.949 62.376 197.165C62.3638 197.163 62.3523 197.158 62.3424 197.15ZM62.9808 195.634C62.908 195.634 62.838 195.662 62.784 195.71C62.548 196.058 62.4271 196.471 62.4384 196.891C62.7936 196.603 63.216 195.998 63.1632 195.744C63.1632 195.701 63.1296 195.653 63.0192 195.638L62.9808 195.634Z" fill="#1C6758"/>
<path d="M80.3088 197.28C79.9133 197.274 79.5194 197.229 79.1328 197.146C79.1144 197.144 79.0973 197.135 79.0842 197.122C79.0711 197.109 79.0629 197.092 79.0608 197.074C79.0587 197.055 79.0621 197.037 79.0707 197.021C79.0792 197.004 79.0925 196.991 79.1088 196.982C79.2768 196.896 80.7648 196.138 81.2208 196.387C81.2646 196.41 81.3019 196.443 81.3288 196.484C81.3557 196.526 81.3715 196.573 81.3744 196.622C81.3849 196.702 81.3754 196.782 81.3469 196.857C81.3184 196.931 81.2718 196.998 81.2112 197.05C80.9458 197.228 80.6271 197.309 80.3088 197.28ZM79.4256 197.021C80.256 197.16 80.8656 197.122 81.096 196.92C81.1343 196.884 81.1634 196.84 81.1809 196.791C81.1985 196.741 81.2039 196.689 81.1968 196.637C81.1966 196.617 81.1912 196.598 81.1811 196.581C81.1709 196.564 81.1565 196.55 81.1392 196.541C80.8896 196.406 80.0352 196.728 79.4256 197.021Z" fill="#1C6758"/>
<path d="M79.1472 197.15C79.1396 197.154 79.1314 197.155 79.1232 197.155C79.115 197.155 79.1068 197.154 79.0992 197.15C79.0854 197.143 79.0742 197.132 79.0673 197.118C79.0604 197.105 79.0581 197.089 79.0608 197.074C79.0608 197.03 79.152 196.022 79.6176 195.634C79.7514 195.522 79.9237 195.466 80.0976 195.48C80.3424 195.504 80.4096 195.629 80.4288 195.73C80.496 196.152 79.6176 196.958 79.1712 197.17L79.1472 197.15ZM80.04 195.634C79.9272 195.635 79.8185 195.676 79.7328 195.749C79.4575 196.074 79.2898 196.476 79.2528 196.901C79.704 196.627 80.304 195.994 80.2608 195.739C80.2608 195.739 80.2608 195.653 80.088 195.638L80.04 195.634Z" fill="#1C6758"/>
<path d="M71.0401 83.7552C71.3329 85.9968 72.0001 90.5424 70.3777 91.9152C70.3777 91.9152 70.8577 94.2 74.9473 94.464C79.4689 94.7568 77.2513 92.3616 77.2513 92.3616C74.8225 91.6128 75.0049 89.784 75.5473 88.0944L71.0401 83.7552Z" fill="#E4897B"/>
<path d="M79.4257 79.2C79.3968 79.1994 79.3687 79.1911 79.3441 79.176C79.3232 79.1654 79.3046 79.1507 79.2896 79.1327C79.2745 79.1148 79.2633 79.0939 79.2566 79.0715C79.2498 79.049 79.2477 79.0254 79.2504 79.0021C79.2531 78.9788 79.2604 78.9563 79.2721 78.936C79.3968 78.6821 79.5811 78.4621 79.8093 78.295C80.0375 78.1278 80.3028 78.0183 80.5825 77.976C80.6254 77.9777 80.6663 77.9948 80.6976 78.0244C80.7288 78.0539 80.7483 78.0937 80.7524 78.1365C80.7565 78.1793 80.745 78.2221 80.7199 78.2571C80.6948 78.292 80.6579 78.3166 80.6161 78.3264C80.3972 78.3646 80.1902 78.453 80.0111 78.5846C79.8321 78.7161 79.6859 78.8873 79.5841 79.0848C79.5704 79.1164 79.5485 79.1438 79.5207 79.1641C79.4928 79.1844 79.46 79.1968 79.4257 79.2Z" fill="#263238"/>
<path d="M80.7168 81.168C81.0475 81.8272 81.4674 82.4378 81.9648 82.9824C81.8222 83.1064 81.6542 83.1977 81.4727 83.2499C81.2911 83.3022 81.1003 83.3141 80.9136 83.2848L80.7168 81.168Z" fill="#DE5753"/>
<path d="M80.4 80.6784C80.4288 80.9808 80.6112 81.2064 80.8032 81.1872C80.9952 81.168 81.1392 80.9136 81.1104 80.6112C81.0816 80.3088 80.8992 80.0832 80.7024 80.1024C80.5056 80.1216 80.3712 80.3808 80.4 80.6784Z" fill="#263238"/>
<path d="M80.64 80.1264L81.3408 79.8528C81.3408 79.8528 81.0048 80.448 80.64 80.1264Z" fill="#263238"/>
<path d="M75.0385 197.059H78.7776L79.0273 188.41H75.2881L75.0385 197.059Z" fill="#E4897B"/>
<path d="M58.0608 197.059H61.8L63 188.41H59.2656L58.0608 197.059Z" fill="#E4897B"/>
<path d="M62.0304 196.627H57.8304C57.7585 196.626 57.6886 196.652 57.6339 196.699C57.5792 196.745 57.5433 196.81 57.5328 196.882L57.0528 200.203C57.0434 200.287 57.0517 200.372 57.0773 200.452C57.1029 200.533 57.1452 200.607 57.2013 200.67C57.2575 200.733 57.3263 200.783 57.4033 200.818C57.4803 200.852 57.5637 200.87 57.648 200.87C59.088 200.846 59.8176 200.76 61.6656 200.76C62.7984 200.76 64.4592 200.875 66.0288 200.875C67.5984 200.875 67.68 199.325 67.0272 199.186C64.0992 198.557 63.6384 197.688 62.6496 196.858C62.477 196.71 62.2576 196.628 62.0304 196.627Z" fill="#263238"/>
<path d="M78.9024 196.627H74.7072C74.635 196.625 74.5646 196.65 74.5096 196.697C74.4547 196.744 74.4191 196.81 74.4096 196.882L73.9296 200.203C73.9209 200.287 73.9299 200.372 73.9561 200.453C73.9822 200.533 74.0249 200.607 74.0815 200.67C74.138 200.733 74.2071 200.783 74.2843 200.818C74.3615 200.852 74.4451 200.87 74.5296 200.87C75.9696 200.846 76.6992 200.76 78.5424 200.76C79.68 200.76 82.0272 200.875 83.5968 200.875C85.1664 200.875 85.248 199.325 84.5952 199.186C81.6672 198.557 80.5152 197.688 79.5264 196.858C79.3525 196.709 79.1312 196.627 78.9024 196.627Z" fill="#263238"/>
<path d="M79.0224 188.41L78.8976 192.869H75.1584L75.288 188.41H79.0224Z" fill="#CE6F64"/>
<path d="M59.2608 188.41H63L62.3808 192.869H58.6416L59.2608 188.41Z" fill="#CE6F64"/>
<path d="M66.9504 98.7456C66.2408 99.8543 65.4189 100.887 64.4976 101.827L64.0704 101.544L59.3376 98.4C59.3376 98.4 61.92 92.64 63.864 92.3472C65.7216 92.0496 67.0752 93.9696 67.704 96.024C67.944 96.768 67.5456 97.776 66.9504 98.7456Z" fill="#1C6758"/>
<path opacity="0.6" d="M66.9504 98.7456C66.2408 99.8543 65.4189 100.887 64.4976 101.827L64.0704 101.544L59.3376 98.4C59.3376 98.4 61.92 92.64 63.864 92.3472C65.7216 92.0496 67.0752 93.9696 67.704 96.024C67.944 96.768 67.5456 97.776 66.9504 98.7456Z" fill="#FAFAFA"/>
<path d="M66.9504 98.7456C66.2408 99.8543 65.4189 100.887 64.4976 101.827L64.0704 101.544C64.2816 99.816 64.9536 98.1024 65.7216 97.56C66.192 97.608 66.6096 98.1072 66.9504 98.7456Z" fill="#1C6758"/>
<path opacity="0.4" d="M66.9504 98.7456C66.2408 99.8543 65.4189 100.887 64.4976 101.827L64.0704 101.544C64.2816 99.816 64.9536 98.1024 65.7216 97.56C66.192 97.608 66.6096 98.1072 66.9504 98.7456Z" fill="#FAFAFA"/>
<path d="M83.1408 101.621C82.9152 103.061 82.6224 104.755 82.2288 106.766C81.7488 109.339 81.0768 112.426 80.2272 116.117L65.0832 115.157C65.736 109.008 65.9904 105.206 63.864 92.3664C66.0139 92.0661 68.1829 91.9233 70.3536 91.9392C72.6525 91.9241 74.9496 92.0733 77.2272 92.3856C80.1648 92.8656 83.4672 93.7488 83.4672 93.7488C83.4672 93.7488 84.312 94.08 83.1408 101.621Z" fill="#1C6758"/>
<path opacity="0.6" d="M83.1408 101.621C82.9152 103.061 82.6224 104.755 82.2288 106.766C81.7488 109.339 81.0768 112.426 80.2272 116.117L65.0832 115.157C65.736 109.008 65.9904 105.206 63.864 92.3664C66.0139 92.0661 68.1829 91.9233 70.3536 91.9392C72.6525 91.9241 74.9496 92.0733 77.2272 92.3856C80.1648 92.8656 83.4672 93.7488 83.4672 93.7488C83.4672 93.7488 84.312 94.08 83.1408 101.621Z" fill="#FAFAFA"/>
<path d="M83.1408 101.621C82.9152 103.061 82.6224 104.755 82.2288 106.766C81.3959 104.995 80.7042 103.16 80.16 101.28H82.9728L83.1408 101.621Z" fill="#1C6758"/>
<path opacity="0.4" d="M83.1408 101.621C82.9152 103.061 82.6224 104.755 82.2288 106.766C81.3959 104.995 80.7042 103.16 80.16 101.28H82.9728L83.1408 101.621Z" fill="#FAFAFA"/>
<path d="M70.2144 80.6016C70.7856 84.264 70.9536 85.8288 72.9936 87.5424C76.0608 90.1248 80.4336 88.6176 80.9664 84.8544C81.4464 81.4704 80.4288 76.0464 76.68 74.9232C75.8554 74.6702 74.9798 74.6324 74.1365 74.8135C73.2932 74.9945 72.5102 75.3884 71.8621 75.9576C71.2141 76.5267 70.7224 77.2523 70.434 78.0652C70.1456 78.8781 70.07 79.7512 70.2144 80.6016Z" fill="#E4897B"/>
<path d="M76.2241 115.858C76.2241 115.858 75.9841 122.525 75.4081 130.934C74.9281 137.99 74.2033 146.266 73.1905 152.861L73.1617 153.043C71.3425 164.717 63.2833 192 63.2833 192H58.1857C58.1857 192 62.3857 165.648 63.3073 154.08C65.6449 124.862 59.7889 121.555 65.0833 115.114L76.2241 115.858Z" fill="#1C6758"/>
<path opacity="0.3" d="M76.2241 115.858C76.2241 115.858 75.9841 122.525 75.4081 130.934C74.9281 137.99 74.2033 146.266 73.1905 152.861L73.1617 153.043C71.3425 164.717 63.2833 192 63.2833 192H58.1857C58.1857 192 62.3857 165.648 63.3073 154.08C65.6449 124.862 59.7889 121.555 65.0833 115.114L76.2241 115.858Z" fill="black"/>
<path d="M75.408 130.934C74.928 137.99 74.2032 146.266 73.1904 152.861C71.4672 144.293 68.6352 131.779 72.4368 123.581C73.344 125.909 74.4 128.539 75.408 130.934Z" fill="#1C6758"/>
<path opacity="0.4" d="M75.408 130.934C74.928 137.99 74.2032 146.266 73.1904 152.861C71.4672 144.293 68.6352 131.779 72.4368 123.581C73.344 125.909 74.4 128.539 75.408 130.934Z" fill="black"/>
<path d="M80.2272 116.122C80.2272 116.122 84.5472 141.725 84.288 153.12C84.0336 164.976 79.6896 192 79.6896 192H74.64C74.64 192 75.4368 165.662 74.9904 154.022C74.5104 141.331 69.1344 115.397 69.1344 115.397L80.2272 116.122Z" fill="#1C6758"/>
<path opacity="0.3" d="M80.2272 116.122C80.2272 116.122 84.5472 141.725 84.288 153.12C84.0336 164.976 79.6896 192 79.6896 192H74.64C74.64 192 75.4368 165.662 74.9904 154.022C74.5104 141.331 69.1344 115.397 69.1344 115.397L80.2272 116.122Z" fill="black"/>
<path d="M73.776 192.24H80.5488L81.0768 189.97L73.536 190.022L73.776 192.24Z" fill="#263238"/>
<path d="M57.4464 192.24H64.2192L64.7472 189.97L57.4944 190.022L57.4464 192.24Z" fill="#263238"/>
<path d="M64.9105 114.24L64.1425 115.555C64.0801 115.656 64.2001 115.771 64.3729 115.781L80.2561 116.813C80.3905 116.813 80.5105 116.765 80.5249 116.678L80.7505 115.33C80.7505 115.238 80.6497 115.152 80.5009 115.142L65.1409 114.144C65.0978 114.142 65.0547 114.15 65.0149 114.166C64.9751 114.183 64.9394 114.208 64.9105 114.24Z" fill="#263238"/>
<path d="M66.8593 116.083L66.4513 116.054C66.3697 116.054 66.3073 116.002 66.3169 115.954L66.6241 114.202C66.6241 114.154 66.7057 114.115 66.7873 114.12L67.2001 114.144C67.2817 114.144 67.3393 114.197 67.3345 114.25L67.0273 115.997C67.0177 116.05 66.9409 116.088 66.8593 116.083Z" fill="#1C6758"/>
<path opacity="0.3" d="M66.8593 116.083L66.4513 116.054C66.3697 116.054 66.3073 116.002 66.3169 115.954L66.6241 114.202C66.6241 114.154 66.7057 114.115 66.7873 114.12L67.2001 114.144C67.2817 114.144 67.3393 114.197 67.3345 114.25L67.0273 115.997C67.0177 116.05 66.9409 116.088 66.8593 116.083Z" fill="black"/>
<path d="M76.8001 116.726L76.3921 116.702C76.3105 116.702 76.2481 116.65 76.2577 116.597L76.5649 114.85C76.5649 114.797 76.6465 114.763 76.7329 114.768L77.1409 114.792C77.2225 114.792 77.2849 114.845 77.2753 114.898L76.9681 116.645C76.9729 116.698 76.8961 116.731 76.8001 116.726Z" fill="#1C6758"/>
<path opacity="0.3" d="M76.8001 116.726L76.3921 116.702C76.3105 116.702 76.2481 116.65 76.2577 116.597L76.5649 114.85C76.5649 114.797 76.6465 114.763 76.7329 114.768L77.1409 114.792C77.2225 114.792 77.2849 114.845 77.2753 114.898L76.9681 116.645C76.9729 116.698 76.8961 116.731 76.8001 116.726Z" fill="black"/>
<path d="M84.3264 97.5888C84.9024 99.5088 85.4496 101.453 85.9824 103.392L87.5904 109.195L87.792 109.915L87.8448 110.093L87.8688 110.184V110.232C87.886 110.296 87.9069 110.358 87.9312 110.419C88.0491 110.711 88.211 110.983 88.4112 111.226C88.9844 111.83 89.6484 112.342 90.3792 112.742C92.0537 113.649 93.8249 114.364 95.6592 114.874L95.3808 116.746C93.2284 116.635 91.1082 116.176 89.1024 115.387C87.9926 114.952 86.97 114.321 86.0832 113.525C85.5753 113.054 85.1531 112.499 84.8352 111.883C84.7494 111.717 84.6741 111.545 84.6096 111.37L84.5568 111.24L84.5232 111.149L84.4608 110.971L84.2064 110.246C83.5344 108.326 82.9104 106.406 82.32 104.458C81.7296 102.509 81.1488 100.589 80.6208 98.6304L84.3264 97.5888Z" fill="#E4897B"/>
<path d="M83.4672 93.7296C85.3872 94.3584 87.4032 100.637 87.4032 100.637L80.472 103.622C80.472 103.622 77.592 96.576 78.8688 94.9824C80.1456 93.3888 81.264 93.0096 83.4672 93.7296Z" fill="#1C6758"/>
<path opacity="0.6" d="M83.4672 93.7296C85.3872 94.3584 87.4032 100.637 87.4032 100.637L80.472 103.622C80.472 103.622 77.592 96.576 78.8688 94.9824C80.1456 93.3888 81.264 93.0096 83.4672 93.7296Z" fill="#FAFAFA"/>
<path d="M79.7616 74.712C78.5376 73.2 69.0816 72.12 68.5776 76.2384C65.2176 78.5904 68.4048 84.6672 68.8848 86.2128C66.5664 86.856 59.0976 89.4096 64.5648 94.3728C70.032 99.336 78.2304 98.4912 79.8336 93.3552C80.9568 89.7648 77.3904 83.7552 77.4672 81.6528C77.544 79.5504 81.8592 77.28 79.7616 74.712Z" fill="#263238"/>
<path d="M69.5473 86.9712C69.5297 86.9718 69.5123 86.9681 69.4965 86.9606C69.4806 86.9531 69.4668 86.9419 69.4561 86.928C68.5873 85.872 65.5633 80.3232 66.6241 77.6832C66.7886 77.2736 67.0675 76.92 67.4276 76.6647C67.7876 76.4093 68.2135 76.263 68.6545 76.2432C68.67 76.2412 68.6858 76.2424 68.7008 76.2467C68.7158 76.251 68.7298 76.2583 68.742 76.2681C68.7541 76.278 68.7641 76.2903 68.7713 76.3041C68.7786 76.318 68.7829 76.3332 68.7841 76.3488C68.7882 76.3799 68.78 76.4114 68.7611 76.4366C68.7423 76.4617 68.7143 76.4784 68.6833 76.4832C68.2868 76.4978 67.9029 76.6259 67.577 76.8522C67.2512 77.0786 66.9971 77.3936 66.8449 77.76C65.8225 80.3136 68.7889 85.7328 69.6385 86.7696C69.6537 86.7865 69.6635 86.8075 69.6667 86.83C69.67 86.8525 69.6665 86.8754 69.6568 86.896C69.647 86.9165 69.6314 86.9337 69.612 86.9453C69.5925 86.957 69.57 86.9627 69.5473 86.9616V86.9712Z" fill="#263238"/>
<path d="M76.7184 81.4272C76.8255 82.1282 77.1633 82.7734 77.6784 83.2608C78.36 83.9136 79.0032 83.4672 79.0656 82.6368C79.1232 81.8928 78.8352 80.6592 78.0288 80.3136C77.2224 79.968 76.6176 80.5968 76.7184 81.4272Z" fill="#E4897B"/>
<path d="M93.3073 114.355L96.0337 113.429L95.6065 116.707C95.6065 116.707 94.5313 117.187 93.1393 115.978L91.8097 115.128L92.8561 114.557C92.9996 114.475 93.1507 114.408 93.3073 114.355Z" fill="#E4897B"/>
<path d="M97.9392 113.419L97.1041 116.285L95.6064 116.702L96.0337 113.429L97.9392 113.419Z" fill="#E4897B"/>
</svg>
