<svg width="24" height="25" viewBox="0 0 24 25" fill="none" xmlns="http://www.w3.org/2000/svg">
<path fill-rule="evenodd" clip-rule="evenodd" d="M12.0023 9.94235C10.6704 9.94235 9.59033 11.0217 9.59033 12.3544C9.59033 13.6861 10.6705 14.7664 12.0023 14.7664C13.3341 14.7664 14.4143 13.6861 14.4143 12.3544C14.4143 11.0217 13.3343 9.94235 12.0023 9.94235ZM8.09033 12.3544C8.09033 10.193 9.84227 8.44235 12.0023 8.44235C14.1624 8.44235 15.9143 10.193 15.9143 12.3544C15.9143 14.5146 14.1625 16.2664 12.0023 16.2664C9.84212 16.2664 8.09033 14.5146 8.09033 12.3544Z" fill="#D4D4D4"/>
<path fill-rule="evenodd" clip-rule="evenodd" d="M4.97577 6.9006C6.77017 5.38352 9.25098 4.30234 12.0022 4.30234C14.7529 4.30234 17.2337 5.38267 19.0282 6.89939C20.8033 8.3996 22.0042 10.4164 22.0042 12.3543C22.0042 14.2923 20.8033 16.3091 19.0282 17.8093C17.2337 19.326 14.7529 20.4063 12.0022 20.4063C9.25098 20.4063 6.77017 19.3252 4.97577 17.8081C3.20099 16.3076 2.00024 14.2908 2.00024 12.3543C2.00024 10.4178 3.20099 8.4011 4.97577 6.9006ZM5.94422 8.04608C4.3705 9.37658 3.50024 11.0108 3.50024 12.3543C3.50024 13.6978 4.3705 15.3321 5.94422 16.6626C7.49832 17.9765 9.64351 18.9063 12.0022 18.9063C14.3606 18.9063 16.5058 17.9772 18.06 16.6636C19.6337 15.3336 20.5042 13.6994 20.5042 12.3543C20.5042 11.0093 19.6337 9.37508 18.06 8.04503C16.5058 6.7315 14.3606 5.80234 12.0022 5.80234C9.64351 5.80234 7.49832 6.73216 5.94422 8.04608Z" fill="#D4D4D4"/>
</svg>
