<svg width="20" height="20" viewBox="0 0 20 20" fill="none" xmlns="http://www.w3.org/2000/svg">
<path fill-rule="evenodd" clip-rule="evenodd" d="M10.0051 14.645C9.59108 14.645 9.25108 14.309 9.25108 13.895C9.25108 13.481 9.58208 13.145 9.99608 13.145H10.0051C10.4191 13.145 10.7551 13.481 10.7551 13.895C10.7551 14.309 10.4191 14.645 10.0051 14.645ZM9.25008 6.5C9.25008 6.086 9.58608 5.75 10.0001 5.75C10.4141 5.75 10.7501 6.086 10.7501 6.5V10.395C10.7501 10.809 10.4141 11.145 10.0001 11.145C9.58608 11.145 9.25008 10.809 9.25008 10.395V6.5ZM17.0601 8.158L16.8481 7.784C13.8621 2.474 12.0061 0.5 10.0001 0.5C7.99408 0.5 6.13808 2.474 3.15208 7.784L2.94108 8.158C1.86808 10.04 -0.361919 13.955 0.0520812 16.291C0.540081 19.054 3.38508 19.5 10.0001 19.5C16.6161 19.5 19.4611 19.054 19.9481 16.291C20.3621 13.955 18.1321 10.04 17.0601 8.158Z" fill="#FAFAFA"/>
</svg>
