<svg width="20" height="20" viewBox="0 0 20 20" fill="none" xmlns="http://www.w3.org/2000/svg">
<path fill-rule="evenodd" clip-rule="evenodd" d="M14.091 8.157L9.341 12.903C9.2 13.044 9.01 13.123 8.811 13.123C8.612 13.123 8.421 13.044 8.28 12.903L5.909 10.53C5.616 10.237 5.616 9.762 5.909 9.469C6.203 9.176 6.678 9.178 6.97 9.469L8.811 11.312L13.03 7.096C13.323 6.803 13.798 6.804 14.091 7.096C14.384 7.389 14.384 7.864 14.091 8.157ZM10 0.25C2.802 0.25 0.25 2.802 0.25 10C0.25 17.198 2.802 19.75 10 19.75C17.198 19.75 19.75 17.198 19.75 10C19.75 2.802 17.198 0.25 10 0.25Z" fill="#1AA536"/>
</svg>
