<svg width="24" height="24" viewBox="0 0 24 24" fill="none" xmlns="http://www.w3.org/2000/svg">
<path d="M18.4139 7.89997V9.58597C18.414 9.78372 18.4726 9.97702 18.5825 10.1414C18.6924 10.3058 18.8486 10.434 19.0313 10.5097C19.214 10.5853 19.415 10.6051 19.609 10.5666C19.8029 10.528 19.9811 10.4328 20.1209 10.293L23.7069 6.70697C23.8944 6.51944 23.9997 6.26514 23.9997 5.99997C23.9997 5.73481 23.8944 5.4805 23.7069 5.29297L20.1209 1.70697C19.9811 1.56716 19.8029 1.47196 19.609 1.43339C19.415 1.39482 19.214 1.41462 19.0313 1.49029C18.8486 1.56596 18.6924 1.6941 18.5825 1.85851C18.4726 2.02292 18.414 2.21622 18.4139 2.41397V4.81397C15.0639 5.54597 12.8139 7.59497 10.9039 9.72497C8.71793 7.31597 6.07993 5.02097 1.82993 4.58597C1.78393 4.57597 1.51893 4.54697 1.49993 4.54697C1.11398 4.54774 0.743176 4.69725 0.46463 4.96441C0.186084 5.23157 0.0212357 5.59581 0.00436475 5.9814C-0.0125062 6.36699 0.119899 6.74424 0.374046 7.0347C0.628193 7.32517 0.984523 7.50649 1.36893 7.54097C4.83293 7.84097 6.86893 9.69997 8.91793 11.999C6.87193 14.299 4.83093 16.165 1.36593 16.461C0.985106 16.5001 0.633669 16.6835 0.383609 16.9733C0.13355 17.2632 0.00379493 17.6378 0.0209236 18.0202C0.0380522 18.4027 0.200768 18.7641 0.47574 19.0305C0.750712 19.2968 1.11713 19.448 1.49993 19.453C1.53793 19.453 1.57293 19.453 1.61093 19.445C6.83993 19 9.64893 15.753 12.1479 12.86C14.0589 10.65 15.7919 8.69997 18.4139 7.89997Z" fill="#EDE869"/>
<path d="M20.1209 13.707C19.9811 13.5672 19.8029 13.472 19.609 13.4334C19.415 13.3948 19.214 13.4146 19.0313 13.4903C18.8486 13.566 18.6924 13.6941 18.5825 13.8585C18.4727 14.0229 18.414 14.2162 18.4139 14.414V16.114C17.1307 15.7082 15.9522 15.0255 14.9619 14.114C14.6673 13.8623 14.2849 13.7375 13.8985 13.7669C13.5122 13.7964 13.1531 13.9776 12.8999 14.271L12.8749 14.299C12.7463 14.448 12.6484 14.621 12.587 14.8081C12.5256 14.9952 12.5019 15.1926 12.5172 15.3889C12.5326 15.5852 12.5867 15.7765 12.6764 15.9517C12.7661 16.127 12.8897 16.2828 13.0399 16.41C14.5627 17.7849 16.4132 18.7456 18.4139 19.2V21.591C18.414 21.7887 18.4727 21.982 18.5825 22.1464C18.6924 22.3108 18.8486 22.439 19.0313 22.5146C19.214 22.5903 19.415 22.6101 19.609 22.5716C19.8029 22.533 19.9811 22.4378 20.1209 22.298L23.707 18.712C23.8944 18.5244 23.9997 18.2701 23.9997 18.005C23.9997 17.7398 23.8944 17.4855 23.707 17.298L20.1209 13.707Z" fill="#EDE869"/>
</svg>
