<svg width="24" height="24" viewBox="0 0 24 24" fill="none" xmlns="http://www.w3.org/2000/svg">
<path fill-rule="evenodd" clip-rule="evenodd" d="M12.0006 3.74658C11.2856 3.74658 10.8766 4.64658 10.3346 6.01858C10.0006 6.86758 9.65357 7.74358 9.09857 8.31758C8.37757 9.06158 7.22857 9.11958 6.11657 9.17458C4.64857 9.24658 3.93957 9.35258 3.78457 10.0126C3.61457 10.7376 4.09557 11.2276 5.15457 12.1016C5.94257 12.7516 6.83557 13.4876 7.07357 14.5706C7.27757 15.4996 7.02857 16.4746 6.78757 17.4166C6.41657 18.8686 6.30757 19.6016 6.91157 20.0586C7.46757 20.4776 8.05757 20.1716 9.26957 19.3696C10.1236 18.8056 11.0046 18.2216 12.0006 18.2216C12.9956 18.2216 13.8776 18.8056 14.7306 19.3696C15.9416 20.1706 16.5306 20.4776 17.0896 20.0586C17.6936 19.6016 17.5846 18.8676 17.2126 17.4156C16.9726 16.4746 16.7236 15.4996 16.9276 14.5696C17.1646 13.4876 18.0576 12.7516 18.8456 12.1016C19.9046 11.2286 20.3856 10.7376 20.2156 10.0116C20.0606 9.35258 19.3526 9.24658 17.8846 9.17458C16.7726 9.11958 15.6226 9.06158 14.9026 8.31758C14.3476 7.74358 14.0006 6.86758 13.6666 6.01858C13.1236 4.64558 12.7146 3.74658 12.0006 3.74658ZM7.41957 21.7536C6.95657 21.7536 6.48257 21.6126 6.00857 21.2556C4.54057 20.1486 4.98057 18.4276 5.33357 17.0456C5.53157 16.2716 5.73557 15.4746 5.60757 14.8926C5.48157 14.3146 4.85957 13.8026 4.20157 13.2596C3.18657 12.4236 1.92257 11.3816 2.32457 9.66958C2.75557 7.83858 4.65557 7.74458 6.04257 7.67658C6.82557 7.63758 7.71257 7.59358 8.02057 7.27458C8.36857 6.91558 8.65857 6.18058 8.93957 5.46858C9.50657 4.03258 10.2116 2.24658 12.0006 2.24658C13.7886 2.24658 14.4946 4.03258 15.0616 5.46858C15.3426 6.18058 15.6326 6.91558 15.9806 7.27458C16.2886 7.59358 17.1756 7.63758 17.9586 7.67658C19.3456 7.74458 21.2456 7.83858 21.6756 9.66858C22.0776 11.3816 20.8136 12.4236 19.7996 13.2596C19.1406 13.8026 18.5186 14.3146 18.3926 14.8926C18.2646 15.4736 18.4686 16.2716 18.6666 17.0446C19.0206 18.4276 19.4596 20.1476 17.9926 21.2556C16.5276 22.3576 15.0726 21.3946 13.9026 20.6206C13.2346 20.1786 12.5436 19.7216 12.0006 19.7216C11.4566 19.7216 10.7656 20.1786 10.0976 20.6206C9.30657 21.1436 8.38557 21.7536 7.41957 21.7536Z" fill="#D32D28"/>
</svg>
