<svg width="21" height="22" viewBox="0 0 21 22" fill="none" xmlns="http://www.w3.org/2000/svg">
<path fill-rule="evenodd" clip-rule="evenodd" d="M6.28058 11.0368C6.28058 10.6226 6.59771 10.2868 6.98891 10.2868H13.7472C14.1384 10.2868 14.4555 10.6226 14.4555 11.0368C14.4555 11.451 14.1384 11.7868 13.7472 11.7868H6.98891C6.59771 11.7868 6.28058 11.451 6.28058 11.0368Z" fill="#171717"/>
<path fill-rule="evenodd" clip-rule="evenodd" d="M3.68486 3.96045C2.45798 5.25949 1.88053 7.42738 1.88053 11.0368C1.88053 14.6463 2.45798 16.8142 3.68486 18.1132C4.91174 19.4123 6.95918 20.0237 10.3681 20.0237C13.777 20.0237 15.8245 19.4123 17.0514 18.1132C18.2782 16.8142 18.8557 14.6463 18.8557 11.0368C18.8557 7.42738 18.2782 5.25949 17.0514 3.96045C15.8245 2.6614 13.777 2.04999 10.3681 2.04999C6.95918 2.04999 4.91174 2.6614 3.68486 3.96045ZM2.68312 2.89979C4.33009 1.15594 6.8806 0.549988 10.3681 0.549988C13.8556 0.549988 16.4061 1.15594 18.0531 2.89979C19.7001 4.64364 20.2723 7.34418 20.2723 11.0368C20.2723 14.7295 19.7001 17.43 18.0531 19.1739C16.4061 20.9177 13.8556 21.5237 10.3681 21.5237C6.8806 21.5237 4.33009 20.9177 2.68312 19.1739C1.03616 17.43 0.463867 14.7295 0.463867 11.0368C0.463867 7.34418 1.03616 4.64364 2.68312 2.89979Z" fill="#171717"/>
</svg>
