<svg width="200" height="200" viewBox="0 0 200 200" fill="none" xmlns="http://www.w3.org/2000/svg">
<g filter="url(#filter0_d_518_1060)">
<path d="M54.716 93.3479C53.4513 92.3597 51.9618 91.6997 50.3802 91.4269C48.7986 91.154 47.1741 91.2766 45.6514 91.7839C44.1287 92.2912 42.7552 93.1674 41.6533 94.3343C40.5513 95.5013 39.7553 96.9227 39.336 98.4719C37.1 97.1159 34.628 96.0719 32.012 96.0719C29.396 96.0719 26.7 97.2159 25.212 99.3799C23.724 101.544 23.816 104.772 25.696 106.58C23.512 107.328 21.296 108.092 19.364 109.38C17.432 110.668 15.764 112.492 15.224 114.74C14.468 117.816 15.996 121.168 18.508 123.088C21.02 125.008 24.352 125.636 27.508 125.368C28.044 130.676 31.728 135.748 36.96 136.78C42.192 137.812 47.948 135.092 50.468 130.38C52.9695 132.159 55.9377 133.165 59.0053 133.274C62.0728 133.384 65.1051 132.591 67.7269 130.995C70.3486 129.399 72.4448 127.069 73.756 124.293C75.0672 121.518 75.5359 118.419 75.104 115.38C76.9353 115.135 78.6796 114.449 80.1865 113.38C81.6934 112.311 82.9177 110.892 83.7539 109.244C84.59 107.597 85.0129 105.77 84.9861 103.923C84.9593 102.076 84.4836 100.263 83.6 98.6399C86.488 95.4999 86.696 89.5239 83.672 86.5199C80.648 83.5159 75.22 83.4319 72.104 86.3359C70.7216 85.4706 69.156 84.9404 67.5323 84.7876C65.9086 84.6348 64.2716 84.8637 62.752 85.4559C59.716 86.6599 55.492 90.1879 54.716 93.3479Z" fill="#F0F0F0"/>
<path d="M175.116 130.624C176.254 132.267 176.896 134.203 176.965 136.201C177.034 138.199 176.527 140.175 175.505 141.893C174.483 143.611 172.988 144.999 171.2 145.892C169.411 146.784 167.403 147.144 165.416 146.928C167.212 150.172 166.42 154.452 164.052 157.304C161.684 160.156 158.008 161.704 154.324 162.104C150.64 162.504 146.916 161.932 143.296 161.136C142.069 162.831 140.407 164.165 138.486 164.995C136.565 165.826 134.456 166.123 132.38 165.856C130.304 165.588 128.339 164.766 126.691 163.476C125.043 162.186 123.774 160.475 123.016 158.524C118.372 159.504 113.328 159.276 109.144 157.032C104.96 154.788 101.836 150.292 102.02 145.548C102.204 140.804 106.212 136.072 110.96 136.084C110.035 134.704 109.598 133.055 109.719 131.398C109.84 129.741 110.513 128.173 111.63 126.943C112.746 125.713 114.243 124.892 115.88 124.612C117.518 124.332 119.202 124.608 120.664 125.396C121.12 122.982 122.136 120.708 123.63 118.758C125.124 116.807 127.055 115.234 129.267 114.165C131.479 113.096 133.911 112.56 136.367 112.601C138.824 112.642 141.237 113.258 143.412 114.4C144.252 111.128 146.908 109.892 150.16 108.976C151.798 108.539 153.521 108.53 155.164 108.95C156.806 109.37 158.313 110.206 159.54 111.376C160.921 109.085 162.994 107.291 165.46 106.253C167.926 105.215 170.658 104.986 173.262 105.599C175.866 106.213 178.208 107.636 179.952 109.666C181.695 111.695 182.75 114.225 182.964 116.892C183.388 122.16 180.024 128.604 175.116 130.624Z" fill="#F0F0F0"/>
<path d="M91.696 178C91.3836 179.63 90.5852 181.128 89.4058 182.296C88.2264 183.464 86.7212 184.247 85.088 184.544C81.82 185.076 77.708 182.708 76.14 179.796C74.008 182.052 71.012 183.58 67.908 183.56C64.804 183.54 61.672 181.82 60.308 179.024C58.944 176.228 59.724 172.468 62.272 170.696C61.5313 170.11 61.0159 169.287 60.8133 168.364C60.6106 167.442 60.7331 166.478 61.16 165.636C62.06 163.984 64.676 163.036 66.44 163.692C65.2704 163.176 64.2594 162.358 63.5107 161.321C62.762 160.285 62.3027 159.068 62.18 157.796C62.0853 156.521 62.2708 155.24 62.7234 154.044C63.176 152.848 63.8848 151.765 64.8 150.872C66.657 149.092 69.0656 147.998 71.628 147.772C73.1961 147.599 74.7829 147.736 76.2977 148.177C77.8125 148.618 79.2255 149.353 80.456 150.34C82.54 146.88 87.94 146.528 91.508 148.42C93.2655 149.405 94.6721 150.914 95.532 152.736C96.9061 155.544 97.1495 158.773 96.212 161.756C99.764 161.356 103.068 164.692 103.768 168.196C104.468 171.7 102.352 175.508 99.072 176.932C97.356 177.68 93.508 178.504 91.696 178Z" fill="#F0F0F0"/>
<path d="M176.328 27.4679C177.147 27.0013 177.791 26.2798 178.162 25.4133C178.534 24.5468 178.611 23.5828 178.384 22.6679C178.128 21.765 177.63 20.9494 176.943 20.3098C176.256 19.6701 175.407 19.231 174.488 19.0399C173.558 18.8723 172.603 18.91 171.69 19.1504C170.776 19.3909 169.927 19.8283 169.2 20.4319C168.808 19.2754 168.063 18.271 167.07 17.5605C166.076 16.8501 164.885 16.4693 163.664 16.4719C161.228 16.5279 158.268 19.0239 157.664 21.3759C155.148 21.4639 152.564 21.6199 150.284 22.6759C148.004 23.7319 146.028 25.8999 145.976 28.3999C145.984 29.6204 146.414 30.8004 147.194 31.7396C147.973 32.6788 149.054 33.3191 150.252 33.5519C149.228 34.5319 148.84 37.0599 149.536 38.2959C149.909 38.9017 150.422 39.4089 151.032 39.7751C151.641 40.1412 152.33 40.3555 153.04 40.3999C154.467 40.4721 155.881 40.0928 157.08 39.3159C159.576 41.9719 163.412 42.7879 166.984 42.0759C168.31 41.8619 169.541 41.2559 170.52 40.3359C171 39.8698 171.349 39.2867 171.534 38.6441C171.72 38.0015 171.734 37.3218 171.576 36.6719C173.352 36.5959 175.24 36.6039 176.852 35.8719C178.464 35.1399 179.828 33.5359 179.752 31.7599C179.676 29.9839 177.756 28.4599 176.328 27.4679Z" fill="#F0F0F0"/>
<path d="M46.308 160C46.8377 159.998 47.3565 160.151 47.8014 160.438C48.2463 160.726 48.5981 161.137 48.8141 161.62C49.0301 162.104 49.1011 162.64 49.0183 163.163C48.9356 163.686 48.7027 164.174 48.348 164.568C47.428 165.588 45.948 165.572 44.592 165.684C44.8078 166.732 44.645 167.823 44.1323 168.763C43.6196 169.703 42.7904 170.43 41.792 170.816C39.768 171.516 37.332 170.36 36.432 168.416C35.9396 169.025 35.2975 169.496 34.5686 169.782C33.8397 170.068 33.0489 170.161 32.2737 170.05C31.4984 169.939 30.7652 169.629 30.1458 169.15C29.5264 168.67 29.042 168.038 28.74 167.316C28.4939 166.78 28.4117 166.183 28.504 165.6C28.5512 165.31 28.6684 165.036 28.8455 164.802C29.0225 164.568 29.2541 164.38 29.52 164.256C28.8865 164.013 28.3626 163.549 28.0455 162.95C27.7284 162.35 27.6398 161.656 27.796 160.996C28.16 159.692 30.072 158.456 31.396 158.74C30.9025 158.408 30.5204 157.935 30.2992 157.383C30.0781 156.831 30.0282 156.225 30.156 155.644C30.2979 155.066 30.5654 154.527 30.9395 154.064C31.3135 153.602 31.7848 153.228 32.32 152.968C33.3936 152.464 34.5856 152.268 35.764 152.4C36.6948 152.447 37.5999 152.722 38.4 153.2C38.796 153.445 39.1343 153.773 39.3918 154.161C39.6493 154.549 39.8199 154.988 39.892 155.448C41.192 154.988 42.776 154.912 44.016 155.516C45.256 156.12 46.768 158.696 46.308 160Z" fill="#F0F0F0"/>
<path d="M186.216 85.56C186.746 85.5585 187.265 85.7108 187.709 85.9984C188.154 86.286 188.506 86.6966 188.722 87.1803C188.938 87.664 189.009 88.2001 188.926 88.7233C188.844 89.2466 188.611 89.7345 188.256 90.128C187.336 91.144 185.856 91.132 184.5 91.24C184.716 92.291 184.551 93.3846 184.035 94.325C183.518 95.2654 182.683 95.991 181.68 96.372C179.66 97.076 177.224 95.92 176.324 93.972C175.831 94.5807 175.188 95.0511 174.459 95.3371C173.729 95.6232 172.938 95.715 172.163 95.6038C171.387 95.4925 170.654 95.182 170.034 94.7024C169.415 94.2229 168.93 93.5908 168.628 92.868C168.386 92.3307 168.304 91.7348 168.392 91.152C168.442 90.8631 168.56 90.5904 168.737 90.3566C168.913 90.1228 169.144 89.9347 169.408 89.808C168.775 89.5649 168.252 89.1004 167.936 88.5009C167.62 87.9014 167.532 87.2075 167.688 86.548C168.048 85.244 169.964 84.012 171.288 84.296C170.794 83.9634 170.411 83.4901 170.189 82.9373C169.967 82.3845 169.917 81.7779 170.044 81.196C170.186 80.6189 170.453 80.0802 170.828 79.6183C171.202 79.1564 171.673 78.7828 172.208 78.524C173.286 78.013 174.486 77.8122 175.672 77.944C176.603 77.9887 177.509 78.2635 178.308 78.744C178.703 78.9892 179.041 79.3165 179.3 79.7036C179.558 80.0907 179.73 80.5287 179.804 80.988C181.104 80.528 182.688 80.452 183.924 81.06C185.16 81.668 186.676 84.256 186.216 85.56Z" fill="#F0F0F0"/>
<path d="M35.972 37.0239C35.374 36.9401 34.7657 37.0731 34.2573 37.3988C33.7488 37.7246 33.3738 38.2216 33.2 38.7999C33.053 39.3861 33.0892 40.0033 33.3038 40.5684C33.5183 41.1334 33.9009 41.619 34.4 41.9599C34.912 42.2836 35.4982 42.4712 36.1031 42.5048C36.7079 42.5384 37.3113 42.4169 37.856 42.1519C38.3962 41.8802 38.8767 41.5031 39.2689 41.0428C39.6612 40.5825 39.9573 40.0484 40.14 39.4719C40.076 39.6599 42.164 39.3719 42.364 39.2919C43.1368 38.9993 43.7976 38.4701 44.252 37.7799C45.052 36.5079 44.996 34.5799 44.292 33.2639C42.988 30.7999 38.8 30.4999 36.776 32.1679C36.0978 32.7572 35.6463 33.5647 35.4996 34.4511C35.3528 35.3376 35.5199 36.2474 35.972 37.0239Z" fill="#F0F0F0"/>
<path d="M113.524 36.028C111.073 35.4145 108.493 35.5551 106.123 36.4315C103.753 37.3079 101.703 38.8793 100.24 40.94C98.9558 38.8757 97.0484 37.2732 94.7934 36.3643C92.5385 35.4554 90.0529 35.2872 87.696 35.884C89.6986 34.651 92.0869 34.2036 94.4 34.628C96.7747 35.0726 98.907 36.3647 100.4 38.2641C104.476 33.0481 110.096 34.272 113.524 36.028Z" fill="#E0E0E0"/>
<path d="M148.828 177.2C146.382 176.59 143.81 176.73 141.444 177.6C139.071 178.485 137.015 180.057 135.54 182.116C134.257 180.051 132.35 178.449 130.096 177.54C127.841 176.631 125.356 176.463 123 177.06C125.005 175.823 127.399 175.375 129.716 175.804C132.082 176.253 134.206 177.545 135.692 179.44C139.78 174.232 145.4 175.456 148.828 177.2Z" fill="#E0E0E0"/>
<path d="M131.016 28.104C129.438 27.7075 127.777 27.7971 126.251 28.361C124.725 28.9249 123.405 29.9368 122.464 31.264C121.638 29.9368 120.412 28.9058 118.963 28.3193C117.514 27.7327 115.917 27.621 114.4 28C115.693 27.2072 117.233 26.9222 118.724 27.2C120.248 27.4881 121.615 28.3196 122.572 29.54C125.2 26.184 128.8 26.972 131.016 28.104Z" fill="#E0E0E0"/>
<path d="M165.804 169.78C164.225 169.385 162.564 169.475 161.037 170.04C159.51 170.604 158.19 171.617 157.248 172.944C156.422 171.614 155.195 170.581 153.742 169.995C152.29 169.41 150.689 169.302 149.172 169.688C150.466 168.895 152.008 168.61 153.5 168.888C155.024 169.176 156.391 170.008 157.348 171.228C159.976 167.86 163.6 168.648 165.804 169.78Z" fill="#E0E0E0"/>
<path d="M32.544 146.6C30.9669 146.207 29.3078 146.298 27.7835 146.863C26.2593 147.427 24.9407 148.438 24 149.764C23.1736 148.434 21.9456 147.402 20.4937 146.817C19.0419 146.232 17.4415 146.123 15.924 146.508C17.2166 145.715 18.7573 145.43 20.248 145.708C21.7718 145.996 23.1392 146.828 24.096 148.048C26.72 144.68 30.336 145.468 32.544 146.6Z" fill="#E0E0E0"/>
<path d="M125.044 170.108C123.943 169.832 122.784 169.894 121.719 170.287C120.654 170.681 119.733 171.386 119.076 172.312C118.499 171.385 117.642 170.665 116.629 170.257C115.616 169.848 114.499 169.772 113.44 170.04C114.342 169.485 115.418 169.284 116.46 169.476C117.524 169.678 118.478 170.259 119.144 171.112C120.98 168.768 123.504 169.316 125.044 170.108Z" fill="#E0E0E0"/>
<path d="M114.28 12.54C112.706 12.1476 111.051 12.2368 109.528 12.796C107.999 13.3638 106.675 14.375 105.724 15.7C104.898 14.3716 103.67 13.3405 102.219 12.7559C100.768 12.1713 99.1685 12.0634 97.652 12.448C98.9446 11.6552 100.485 11.3702 101.976 11.648C103.502 11.9392 104.869 12.7751 105.824 14C108.456 10.62 112.072 11.408 114.28 12.54Z" fill="#E0E0E0"/>
<path d="M53.352 69.1521L80.648 54.6841L53.36 71.7361C52.736 72.0961 52.232 71.8081 52.228 71.0921C52.2495 70.7031 52.3625 70.3247 52.5578 69.9876C52.7531 69.6505 53.0252 69.3642 53.352 69.1521Z" fill="#E0E0E0"/>
<path d="M18.28 61.416L38.8 50.536L18.284 63.36C17.816 63.628 17.436 63.412 17.436 62.876C17.4507 62.5831 17.535 62.298 17.6817 62.0441C17.8285 61.7903 18.0335 61.575 18.28 61.416Z" fill="#E0E0E0"/>
<path d="M25.04 87.888L45.568 77.012L25.048 89.832C24.58 90.104 24.2 89.888 24.196 89.352C24.2117 89.0588 24.2963 88.7734 24.443 88.5191C24.5896 88.2647 24.7941 88.0485 25.04 87.888Z" fill="#E0E0E0"/>
<path d="M38.656 53.452L59.2 42.572L38.68 55.396C38.212 55.664 37.832 55.448 37.828 54.912C37.8426 54.6209 37.925 54.3373 38.0688 54.0838C38.2126 53.8303 38.4137 53.6139 38.656 53.452Z" fill="#E0E0E0"/>
<path d="M52.248 54.1601L72.776 43.2841L52.252 56.1041C51.788 56.3761 51.408 56.1601 51.404 55.6241C51.4197 55.3309 51.5043 55.0455 51.651 54.7912C51.7976 54.5368 52.0022 54.3206 52.248 54.1601Z" fill="#E0E0E0"/>
<path d="M49.968 51.304L78.06 36.4L49.976 53.948C49.34 54.316 48.816 54.02 48.816 53.284C48.8398 52.8869 48.9564 52.5009 49.1565 52.157C49.3566 51.8132 49.6345 51.521 49.968 51.304Z" fill="#E0E0E0"/>
<path d="M87.64 137.6L118.74 121.12L87.648 140.548C86.94 140.948 86.364 140.628 86.36 139.816C86.3844 139.372 86.513 138.94 86.7354 138.555C86.9578 138.17 87.2677 137.843 87.64 137.6Z" fill="#E0E0E0"/>
<path d="M122.832 117.54L153.936 101.056L122.84 120.484C122.132 120.884 121.556 120.564 121.556 119.752C121.578 119.309 121.705 118.877 121.927 118.492C122.149 118.107 122.459 117.781 122.832 117.54Z" fill="#E0E0E0"/>
<path d="M138.472 117.272L155.64 108.176L138.476 118.9C138.076 119.124 137.768 118.944 137.768 118.5C137.781 118.254 137.851 118.015 137.974 117.802C138.096 117.589 138.267 117.407 138.472 117.272Z" fill="#E0E0E0"/>
<path d="M129.6 118.8L148.06 109.016L129.6 120.556C129.18 120.8 128.84 120.604 128.836 120.12C128.85 119.855 128.926 119.598 129.059 119.368C129.192 119.139 129.377 118.944 129.6 118.8Z" fill="#E0E0E0"/>
<path d="M137.94 155.732L178.34 134.324L137.94 159.556C137.02 160.088 136.272 159.66 136.268 158.604C136.299 158.027 136.467 157.466 136.758 156.967C137.049 156.467 137.454 156.044 137.94 155.732Z" fill="#E0E0E0"/>
<path d="M150.132 153.76L168.868 143.832L150.14 155.532C149.712 155.78 149.364 155.58 149.364 155.092C149.378 154.825 149.455 154.565 149.588 154.334C149.722 154.103 149.908 153.906 150.132 153.76Z" fill="#E0E0E0"/>
<path d="M144.132 148.856L167.52 136.456L144.14 151.064C143.608 151.372 143.176 151.124 143.172 150.516C143.19 150.183 143.286 149.86 143.453 149.571C143.62 149.283 143.853 149.038 144.132 148.856Z" fill="#E0E0E0"/>
<path d="M66.924 121.888L90.312 109.488L66.932 124.096C66.4 124.404 65.964 124.156 65.964 123.548C65.982 123.215 66.0783 122.892 66.2452 122.603C66.412 122.315 66.6446 122.07 66.924 121.888Z" fill="#E0E0E0"/>
<path d="M67.828 125.736L98.932 109.256L67.836 128.684C67.128 129.084 66.552 128.764 66.552 127.948C66.5741 127.505 66.7013 127.073 66.9231 126.688C67.145 126.303 67.4552 125.977 67.828 125.736Z" fill="#E0E0E0"/>
<path d="M166.4 72.996L195.524 57.564L166.4 75.752C165.74 76.152 165.2 75.828 165.2 75.068C165.224 74.6528 165.345 74.249 165.553 73.8891C165.762 73.5292 166.052 73.2233 166.4 72.996Z" fill="#E0E0E0"/>
<path d="M137.108 62.1841L166.232 46.7521L137.116 64.9401C136.456 65.3401 135.916 65.0161 135.916 64.2561C135.938 63.8413 136.057 63.4375 136.264 63.0774C136.471 62.7174 136.76 62.4113 137.108 62.1841Z" fill="#E0E0E0"/>
<path d="M138.644 100.764L154.716 92.248L138.648 102.288C138.28 102.496 137.984 102.328 137.984 101.908C137.995 101.679 138.061 101.455 138.176 101.256C138.29 101.057 138.451 100.888 138.644 100.764Z" fill="#E0E0E0"/>
<path d="M133.928 100.764L150 92.248L133.928 102.288C133.564 102.496 133.268 102.328 133.264 101.908C133.277 101.679 133.344 101.456 133.459 101.257C133.575 101.058 133.735 100.889 133.928 100.764Z" fill="#E0E0E0"/>
<path d="M171.532 75.016L187.6 66.496L171.532 76.536C171.164 76.748 170.868 76.576 170.868 76.136C170.882 75.9101 170.95 75.6908 171.065 75.4961C171.181 75.3015 171.341 75.1369 171.532 75.016Z" fill="#E0E0E0"/>
<path d="M174.728 63.036L190.8 54.516L174.732 64.556C174.364 64.768 174.068 64.596 174.064 64.176C174.077 63.947 174.144 63.7244 174.259 63.5262C174.374 63.3281 174.535 63.1601 174.728 63.036Z" fill="#E0E0E0"/>
<path d="M103.252 57.48L132.372 42.048L103.26 60.236C102.596 60.636 102.06 60.312 102.06 59.552C102.082 59.1372 102.201 58.7334 102.408 58.3733C102.615 58.0133 102.904 57.7072 103.252 57.48Z" fill="#E0E0E0"/>
<path d="M108.4 59.496L124.472 50.98L108.4 61.02C108.032 61.232 107.736 61.06 107.732 60.62C107.748 60.3936 107.817 60.1741 107.933 59.979C108.049 59.7839 108.209 59.6185 108.4 59.496Z" fill="#E0E0E0"/>
<path d="M111.6 47.516L127.668 39L111.6 49.04C111.236 49.252 110.936 49.08 110.936 48.66C110.949 48.4306 111.016 48.2075 111.131 48.0087C111.247 47.81 111.407 47.6412 111.6 47.516Z" fill="#E0E0E0"/>
<path d="M148.508 61.016L164.58 52.5L148.512 62.54C148.144 62.748 147.848 62.58 147.848 62.16C147.859 61.9306 147.925 61.7071 148.04 61.5081C148.154 61.3092 148.315 61.1404 148.508 61.016Z" fill="#E0E0E0"/>
<path d="M151.716 51.7121L167.788 43.2001L151.72 53.2401C151.356 53.4521 151.056 53.2841 151.056 52.8641C151.067 52.6336 151.133 52.4092 151.248 52.209C151.363 52.0088 151.523 51.8385 151.716 51.7121Z" fill="#E0E0E0"/>
<path d="M24.216 64.3241C22.176 66.2281 23.816 68.1721 25.16 68.7881C27.668 66.4481 24.216 64.3241 24.216 64.3241Z" fill="#1C6758"/>
<path opacity="0.3" d="M24.216 64.3241C22.176 66.2281 23.816 68.1721 25.16 68.7881C27.668 66.4481 24.216 64.3241 24.216 64.3241Z" fill="black"/>
<path opacity="0.3" d="M24.216 64.3241C22.176 66.2281 23.816 68.1721 25.16 68.7881C27.668 66.4481 24.216 64.3241 24.216 64.3241Z" fill="black"/>
<path d="M49.348 63.6681C46.236 62.0241 40.3 63.3161 35.144 63.8681C26.4 62.8001 16.82 66.1681 16.82 66.1681C16.82 66.1681 14.116 65.3441 12.704 65.7681C11.292 66.1921 11.54 68.8401 12.032 69.4241C12.524 70.0081 14.432 70.5681 14.432 70.5681C14.4167 70.7094 14.4557 70.8513 14.5411 70.965C14.6265 71.0786 14.752 71.1555 14.892 71.1801L15.012 71.2041C15.7813 71.347 16.5761 71.1849 17.228 70.7521C17.5407 70.5471 17.8121 70.2853 18.028 69.9801L18.924 68.7081C27.456 68.0681 34.124 67.9401 34.124 67.9401L48.644 67.5401L49.348 63.6681Z" fill="#FFA8A7"/>
<path opacity="0.3" d="M49.348 63.6681C46.236 62.0241 40.3 63.3161 35.144 63.8681C26.4 62.8001 16.82 66.1681 16.82 66.1681C16.82 66.1681 14.116 65.3441 12.704 65.7681C11.292 66.1921 11.54 68.8401 12.032 69.4241C12.524 70.0081 14.432 70.5681 14.432 70.5681C14.4167 70.7094 14.4557 70.8513 14.5411 70.965C14.6265 71.0786 14.752 71.1555 14.892 71.1801L15.012 71.2041C15.7813 71.347 16.5761 71.1849 17.228 70.7521C17.5407 70.5471 17.8121 70.2853 18.028 69.9801L18.924 68.7081C27.456 68.0681 34.124 67.9401 34.124 67.9401L48.644 67.5401L49.348 63.6681Z" fill="black"/>
<path opacity="0.3" d="M14.448 70.5521L15.192 70.704C15.3749 70.744 15.566 70.7185 15.732 70.632L16.316 70.3401C16.4153 70.2899 16.4975 70.2114 16.5523 70.1146C16.6071 70.0178 16.632 69.907 16.624 69.7961L16.552 68.8L16.828 69.18C16.9164 69.3039 16.9716 69.4483 16.9884 69.5996C17.0052 69.7508 16.983 69.9038 16.924 70.044C16.8736 70.1669 16.7986 70.2781 16.7037 70.371C16.6088 70.4638 16.4959 70.5363 16.372 70.5841L15.684 70.86C15.5262 70.9239 15.3498 70.9239 15.192 70.86L14.448 70.5521Z" fill="black"/>
<path d="M25.16 68.8C25.16 68.8 26.488 66.764 24.216 64.336C28.548 63.136 34.384 63.428 35.352 63.584C39.752 62.492 47.504 61.936 49.352 63.68L48.676 67.544C40.364 68.536 25.16 68.8 25.16 68.8Z" fill="#1C6758"/>
<path opacity="0.2" d="M25.16 68.8C25.16 68.8 26.488 66.764 24.216 64.336C28.548 63.136 34.384 63.428 35.352 63.584C39.752 62.492 47.504 61.936 49.352 63.68L48.676 67.544C40.364 68.536 25.16 68.8 25.16 68.8Z" fill="black"/>
<path d="M99.336 59.864C99.6344 59.8072 99.9416 59.8157 100.236 59.8889C100.531 59.9621 100.807 60.0983 101.044 60.288C101.577 60.7348 102.04 61.2593 102.416 61.844C103.038 62.6691 103.752 63.4206 104.544 64.084C105.054 64.4748 105.54 64.8955 106 65.344C106.463 65.7982 106.768 66.3882 106.872 67.028C106.927 67.4869 106.807 67.9497 106.536 68.324C106.766 68.136 106.944 67.8919 107.053 67.6152C107.161 67.3385 107.197 67.0385 107.156 66.744C107.053 66.1038 106.747 65.5135 106.284 65.06C105.824 64.6115 105.338 64.1908 104.828 63.8C104.037 63.1356 103.323 62.3842 102.7 61.56C102.324 60.954 101.861 60.4057 101.328 59.932C101.091 59.742 100.815 59.606 100.52 59.5334C100.225 59.4609 99.9181 59.4536 99.62 59.512L99.336 59.864Z" fill="#263238"/>
<path d="M103.772 66.0281C103.372 65.6281 102.912 66.376 102.12 66.392C102.288 66.54 102.448 66.6961 102.608 66.8561C103.456 66.7001 104.048 66.3041 103.772 66.0281Z" fill="white"/>
<path d="M102.896 65.2C102.496 64.8 101.872 65.6 101.052 65.632C101.176 65.6908 101.296 65.7576 101.412 65.832C101.508 65.892 101.604 65.96 101.696 66.028C102.564 65.896 103.172 65.492 102.896 65.2Z" fill="white"/>
<path d="M97.484 62.56C97.3773 62.72 97.3345 62.9141 97.364 63.104L99.512 65.36C100.043 65.2993 100.579 65.3996 101.052 65.648C101.872 65.648 102.484 64.804 102.896 65.216C103.172 65.492 102.564 65.896 101.696 66.044C101.844 66.1522 101.985 66.2684 102.12 66.392C102.92 66.392 103.364 65.624 103.772 66.028C104.048 66.304 103.456 66.7 102.608 66.856L102.912 67.168C103.004 67.26 103.092 67.36 103.18 67.464C104.628 67.632 105.392 67.008 106.38 65.812C106.263 65.6481 106.136 65.4918 106 65.344C105.54 64.8955 105.054 64.4748 104.544 64.084C103.752 63.4206 103.038 62.6691 102.416 61.844C102.04 61.2593 101.577 60.7348 101.044 60.288C100.807 60.0982 100.531 59.9621 100.236 59.8889C99.9416 59.8157 99.6344 59.8072 99.336 59.864L97.484 62.56Z" fill="#455A64"/>
<path d="M103.2 67.464C103.505 67.8873 103.877 68.2587 104.3 68.564C104.57 68.7468 104.884 68.8549 105.209 68.8774C105.534 68.8999 105.859 68.8359 106.152 68.692C106.31 68.5996 106.447 68.4741 106.552 68.324C106.823 67.9497 106.943 67.4869 106.888 67.028C106.823 66.5942 106.654 66.1825 106.396 65.828C105.392 67.008 104.628 67.632 103.2 67.464Z" fill="white"/>
<path d="M96.564 68.5961L100.008 64.9961C100.123 64.88 100.187 64.7233 100.187 64.5601C100.187 64.3968 100.123 64.2402 100.008 64.1241L98.896 63.0161C98.7104 62.83 98.4596 62.7235 98.1969 62.719C97.9341 62.7145 97.6799 62.8125 97.488 62.9921L93.708 66.4001L96.564 68.5961Z" fill="#FFA8A7"/>
<path opacity="0.3" d="M96.564 68.5961L100.008 64.9961C100.123 64.88 100.187 64.7233 100.187 64.5601C100.187 64.3968 100.123 64.2402 100.008 64.1241L98.896 63.0161C98.7104 62.83 98.4596 62.7235 98.1969 62.719C97.9341 62.7145 97.6799 62.8125 97.488 62.9921L93.708 66.4001L96.564 68.5961Z" fill="black"/>
<path d="M85.62 52C85.9001 51.8817 86.2027 51.8258 86.5066 51.8362C86.8105 51.8465 87.1085 51.9229 87.38 52.06C87.9937 52.3876 88.5546 52.8056 89.044 53.3C89.8225 53.9801 90.676 54.5692 91.588 55.056C92.1679 55.3319 92.7303 55.6431 93.272 55.988C93.8171 56.3381 94.2373 56.8521 94.472 57.456C94.6194 57.8969 94.5937 58.3774 94.4 58.8C94.5864 58.5688 94.7101 58.2936 94.7591 58.0007C94.8082 57.7078 94.7809 57.4073 94.68 57.128C94.4472 56.523 94.0266 56.0085 93.48 55.66C92.9374 55.3153 92.3752 55.0028 91.796 54.724C90.8832 54.2402 90.0295 53.6523 89.252 52.972C88.728 52.516 88.212 51.944 87.576 51.664C87.3045 51.5269 87.0065 51.4505 86.7026 51.4402C86.3987 51.4298 86.0961 51.4857 85.816 51.604L85.62 52Z" fill="#263238"/>
<path d="M91.236 57.124C90.752 56.812 90.464 57.64 89.692 57.82C89.888 57.932 90.092 58.052 90.264 58.172C91.064 57.848 91.56 57.34 91.236 57.124Z" fill="white"/>
<path d="M90.208 56.508C89.724 56.192 89.296 57.128 88.492 57.308C88.628 57.3453 88.7613 57.3853 88.892 57.428L89.212 57.564C90.024 57.244 90.536 56.724 90.208 56.508Z" fill="white"/>
<path d="M84.364 55.0281C84.2975 55.2074 84.2975 55.4047 84.364 55.5841L86.932 57.3481C87.4384 57.1822 87.9825 57.1697 88.496 57.3121C89.296 57.1281 89.728 56.1921 90.212 56.5121C90.54 56.7281 90.028 57.2481 89.212 57.5721C89.376 57.6481 89.536 57.7321 89.696 57.8241C90.468 57.6441 90.756 56.8161 91.24 57.1281C91.564 57.3441 91.068 57.8521 90.268 58.1761L90.632 58.4201C90.74 58.4921 90.848 58.5721 90.952 58.6561C92.408 58.5201 93.024 57.7521 93.752 56.3801C93.6053 56.2424 93.4489 56.1154 93.284 56.0001C92.7423 55.6552 92.1799 55.3439 91.6 55.0681C90.688 54.5813 89.8345 53.9922 89.056 53.3121C88.5666 52.8177 88.0057 52.3997 87.392 52.0721C87.1206 51.935 86.8225 51.8586 86.5186 51.8483C86.2147 51.8379 85.9122 51.8938 85.632 52.0121L84.364 55.0281Z" fill="#455A64"/>
<path d="M90.948 58.6521C91.3354 59.0015 91.7755 59.2877 92.252 59.5001C92.5539 59.6241 92.8833 59.6657 93.2066 59.6207C93.5299 59.5758 93.8354 59.4458 94.092 59.2441C94.2246 59.1193 94.3296 58.968 94.4 58.8001C94.5889 58.3787 94.6118 57.9016 94.464 57.4641C94.3109 57.0469 94.0583 56.6734 93.728 56.3761C93.02 57.7481 92.4 58.5161 90.948 58.6521Z" fill="white"/>
<path d="M84.712 61.1241L87.336 56.8841C87.4251 56.7472 87.4561 56.5806 87.4224 56.4208C87.3886 56.2611 87.2928 56.1212 87.156 56.0321L85.84 55.1721C85.6198 55.0303 85.3533 54.979 85.0962 55.0289C84.8391 55.0788 84.6111 55.2261 84.46 55.4401L81.46 59.5481L84.712 61.1241Z" fill="#FFA8A7"/>
<path opacity="0.3" d="M84.712 61.1241L87.336 56.8841C87.4251 56.7472 87.4561 56.5806 87.4224 56.4208C87.3886 56.2611 87.2928 56.1212 87.156 56.0321L85.84 55.1721C85.6198 55.0303 85.3533 54.979 85.0962 55.0289C84.8391 55.0788 84.6111 55.2261 84.46 55.4401L81.46 59.5481L84.712 61.1241Z" fill="black"/>
<path d="M66.964 81.7561C72.4694 81.8033 77.9704 81.4343 83.42 80.6521C85.8798 80.281 88.1317 79.0596 89.784 77.2001L98.052 67.9001C97.012 65.2561 93.504 64.1841 93.504 64.1841C91.244 66.9201 84.108 69.8201 83.244 72.9841C80.5715 72.575 77.8751 72.3412 75.172 72.2841L77.088 71.4841C78.5982 70.862 79.8764 69.7838 80.744 68.4001L86.4 59.3961C84.292 56.9121 80.724 56.7361 80.724 56.7361C79.18 59.8881 74.724 63.2161 73.768 65.8921C66.808 66.4881 64.14 67.7961 61.488 69.4441L66.964 81.7561Z" fill="#37474F"/>
<g opacity="0.2">
<path d="M86 76.4001C86.7 73.2521 85.032 71.8841 84.164 71.4241C83.7547 71.8658 83.4462 72.3913 83.26 72.9641C83.9739 73.2525 84.6012 73.7203 85.0812 74.3223C85.5612 74.9242 85.8777 75.6399 86 76.4001Z" fill="black"/>
<path d="M67.868 68.8C67.868 68.8 70.316 69.412 72.544 72.268C72.544 72.268 73.548 72.268 75.172 72.268L77.088 71.468L77.42 71.316L73.244 71.5C71.8284 69.9917 69.9233 69.0348 67.868 68.8Z" fill="black"/>
<path d="M76.456 68.3561C76.584 65.9801 75.068 65.0041 74.384 64.6841C74.1308 65.0589 73.9214 65.4615 73.76 65.8841C74.3698 66.0599 74.9306 66.3746 75.3983 66.8035C75.8661 67.2324 76.2281 67.7638 76.456 68.3561Z" fill="black"/>
</g>
<path d="M44.8 65.432C43.764 73.236 46.932 79.4321 54.56 81.6641C58.636 82.8321 67.268 82.244 67.268 82.244C69.988 75.512 67.724 72.328 61.472 69.444C57.592 70.696 56.672 66.244 56.508 65.7C53.708 64.228 46.708 62.1281 46.708 62.1281C45.152 62.8001 44.8 65.432 44.8 65.432Z" fill="#F0F0F0"/>
<path d="M52.072 64.356L50.952 62.332L46.464 65.36L48.24 67.76C48.6116 67.9412 49.0168 68.0433 49.4299 68.0598C49.843 68.0763 50.2551 68.0069 50.64 67.856C51.0276 67.678 51.3737 67.421 51.6562 67.1014C51.9386 66.7817 52.1511 66.4066 52.28 66C52.3552 65.7258 52.3756 65.4394 52.3399 65.1573C52.3042 64.8752 52.2132 64.6029 52.072 64.356Z" fill="#FFA8A7"/>
<path opacity="0.3" d="M52.072 64.356L50.952 62.332L46.464 65.36L48.24 67.76C48.6116 67.9412 49.0168 68.0433 49.4299 68.0598C49.843 68.0763 50.2551 68.0069 50.64 67.856C51.0276 67.678 51.3737 67.421 51.6562 67.1014C51.9386 66.7817 52.1511 66.4066 52.28 66C52.3552 65.7258 52.3756 65.4394 52.3399 65.1573C52.3042 64.8752 52.2132 64.6029 52.072 64.356Z" fill="black"/>
<path opacity="0.3" d="M50.532 62.6161C50.532 65.0521 48.596 66.2161 47.408 66.6161L46.464 65.3481L50.532 62.6161Z" fill="black"/>
<path d="M41.228 60.124C40.6568 59.9657 40.1234 59.6936 39.66 59.324C39.1973 58.9547 38.8904 58.4251 38.8 57.84C38.7614 57.5473 38.8027 57.2496 38.9196 56.9785C39.0365 56.7074 39.2246 56.4729 39.464 56.3C39.2569 56.0319 39.1251 55.7133 39.0822 55.3772C39.0393 55.0411 39.0868 54.6996 39.22 54.388C39.368 54.0642 39.595 53.7827 39.8801 53.5696C40.1653 53.3564 40.4995 53.2183 40.852 53.168C40.7808 52.7638 40.7953 52.3492 40.8945 51.9509C40.9938 51.5526 41.1755 51.1796 41.428 50.856C41.6792 50.5388 41.9956 50.2793 42.3559 50.095C42.7161 49.9108 43.1118 49.8061 43.516 49.788C43.4833 49.4632 43.5539 49.1364 43.7177 48.854C43.8815 48.5716 44.1301 48.348 44.4283 48.2151C44.7265 48.0822 45.059 48.0467 45.3785 48.1137C45.698 48.1806 45.9882 48.3466 46.208 48.588C46.4236 48.0545 46.8207 47.6142 47.3291 47.3446C47.8376 47.0751 48.4248 46.9936 48.9875 47.1145C49.5501 47.2355 50.052 47.5511 50.4048 48.0057C50.7576 48.4604 50.9386 49.025 50.916 49.6C51.0474 49.3905 51.2197 49.2097 51.4227 49.0684C51.6256 48.9272 51.8551 48.8284 52.0972 48.7779C52.3393 48.7275 52.5891 48.7265 52.8315 48.775C53.074 48.8235 53.3042 48.9205 53.5083 49.0602C53.7124 49.1998 53.8862 49.3793 54.0192 49.5877C54.1522 49.7962 54.2418 50.0294 54.2825 50.2733C54.3232 50.5172 54.3142 50.7669 54.256 51.0072C54.1978 51.2476 54.0917 51.4737 53.944 51.672C54.3302 51.6599 54.7098 51.7741 55.0253 51.9973C55.3407 52.2205 55.5748 52.5405 55.692 52.9087C55.8091 53.2769 55.803 53.6733 55.6745 54.0377C55.546 54.4021 55.3022 54.7147 54.98 54.928C55.3555 55.1229 55.662 55.4286 55.8577 55.8038C56.0534 56.1789 56.1289 56.6052 56.0738 57.0247C56.0187 57.4442 55.8358 57.8366 55.55 58.1485C55.2641 58.4604 54.8891 58.6767 54.476 58.768C54.5849 59.1234 54.5823 59.5035 54.4688 59.8574C54.3552 60.2112 54.1361 60.5218 53.8408 60.7475C53.5455 60.9731 53.1882 61.1029 52.8169 61.1194C52.4456 61.136 52.0782 61.0385 51.764 60.84C51.4746 61.2612 51.0794 61.5987 50.6181 61.8185C50.1568 62.0383 49.6457 62.1327 49.1364 62.0921C48.627 62.0516 48.1373 61.8775 47.7166 61.5875C47.2959 61.2974 46.9591 60.9017 46.74 60.44C46.4213 60.8538 46.0079 61.185 45.5346 61.4056C45.0612 61.6263 44.5418 61.73 44.02 61.708C43.4652 61.6718 42.9259 61.5104 42.4424 61.2361C41.9589 60.9618 41.5437 60.5816 41.228 60.124Z" fill="#263238"/>
<path d="M41.036 55.668C40.5511 58.5649 40.8693 61.5393 41.956 64.268C42.1573 64.9225 42.5693 65.4921 43.128 65.888C43.744 66.24 44.508 66.164 45.212 66.06C46.3535 65.9304 47.4665 65.617 48.508 65.132C49.5556 64.6371 50.3722 63.7575 50.788 62.676C51.163 62.751 51.5518 62.7152 51.9069 62.5732C52.262 62.4312 52.5681 62.1889 52.788 61.876C53.2253 61.2343 53.4518 60.4724 53.436 59.696C53.436 59.2 53.344 58.62 52.9 58.4C52.456 58.18 51.996 58.428 51.636 58.716C51.049 59.1934 50.6207 59.8379 50.408 60.564C50.08 59.364 49.572 58.2 49.248 57C49.1759 56.5099 48.9269 56.0631 48.548 55.744C48.044 55.424 47.384 55.608 46.804 55.744C44.9062 56.2098 42.9209 56.1837 41.036 55.668Z" fill="#FFA8A7"/>
<path opacity="0.3" d="M41.036 55.668C40.5511 58.5649 40.8693 61.5393 41.956 64.268C42.1573 64.9225 42.5693 65.4921 43.128 65.888C43.744 66.24 44.508 66.164 45.212 66.06C46.3535 65.9304 47.4665 65.617 48.508 65.132C49.5556 64.6371 50.3722 63.7575 50.788 62.676C51.163 62.751 51.5518 62.7152 51.9069 62.5732C52.262 62.4312 52.5681 62.1889 52.788 61.876C53.2253 61.2343 53.4518 60.4724 53.436 59.696C53.436 59.2 53.344 58.62 52.9 58.4C52.456 58.18 51.996 58.428 51.636 58.716C51.049 59.1934 50.6207 59.8379 50.408 60.564C50.08 59.364 49.572 58.2 49.248 57C49.1759 56.5099 48.9269 56.0631 48.548 55.744C48.044 55.424 47.384 55.608 46.804 55.744C44.9062 56.2098 42.9209 56.1837 41.036 55.668Z" fill="black"/>
<path d="M44.54 59.316L43.132 61.684L44.808 61.996L44.54 59.316Z" fill="#F28F8F"/>
<path opacity="0.3" d="M44.54 59.316L43.132 61.684L44.808 61.996L44.54 59.316Z" fill="black"/>
<path d="M46.424 62.8L45.152 63.4201C45.2613 63.5641 45.4143 63.6689 45.5881 63.7186C45.7619 63.7684 45.9471 63.7605 46.116 63.6961C46.2629 63.6052 46.3738 63.4664 46.43 63.303C46.4861 63.1397 46.484 62.962 46.424 62.8Z" fill="#F28F8F"/>
<path opacity="0.5" d="M46.424 62.8L45.152 63.4201C45.2613 63.5641 45.4143 63.6689 45.5881 63.7186C45.7619 63.7684 45.9471 63.7605 46.116 63.6961C46.2629 63.6052 46.3738 63.4664 46.43 63.303C46.4861 63.1397 46.484 62.962 46.424 62.8Z" fill="black"/>
<path d="M45.676 63.7481C45.8235 63.7777 45.9763 63.7638 46.116 63.7081C46.2329 63.6424 46.3277 63.5435 46.3883 63.4238C46.4488 63.3042 46.4724 63.1692 46.456 63.0361C46.2559 63.0262 46.06 63.0953 45.9104 63.2285C45.7607 63.3616 45.6694 63.5482 45.656 63.7481H45.676Z" fill="#F28F8F"/>
<path d="M46.968 59.4081C46.9787 59.5035 46.9607 59.5999 46.9164 59.6851C46.8721 59.7703 46.8034 59.8404 46.7192 59.8865C46.635 59.9325 46.5389 59.9525 46.4433 59.9438C46.3477 59.9352 46.2568 59.8982 46.1822 59.8378C46.1076 59.7773 46.0527 59.6961 46.0244 59.6043C45.9962 59.5125 45.9958 59.4144 46.0235 59.3225C46.0511 59.2305 46.1055 59.1489 46.1796 59.0879C46.2538 59.0269 46.3444 58.9894 46.44 58.9801C46.5028 58.9734 46.5663 58.9792 46.6268 58.9972C46.6873 59.0151 46.7438 59.0448 46.7928 59.0845C46.8418 59.1243 46.8826 59.1733 46.9126 59.2289C46.9427 59.2844 46.9615 59.3453 46.968 59.4081Z" fill="#263238"/>
<path d="M42.928 59.6601C42.9347 59.7229 42.9289 59.7863 42.9109 59.8469C42.893 59.9074 42.8633 59.9638 42.8236 60.0129C42.7838 60.0619 42.7348 60.1026 42.6792 60.1327C42.6237 60.1628 42.5628 60.1816 42.5 60.1881C42.373 60.1993 42.2467 60.1604 42.148 60.0797C42.0493 59.9989 41.9861 59.8828 41.972 59.7561C41.9593 59.6293 41.9974 59.5027 42.0781 59.404C42.1587 59.3054 42.2752 59.2428 42.402 59.2301C42.5288 59.2173 42.6554 59.2555 42.7541 59.3361C42.8527 59.4168 42.9153 59.5333 42.928 59.6601Z" fill="#263238"/>
<path d="M42.272 57.8L41.284 58.64C41.2237 58.5134 41.2041 58.3713 41.2277 58.2331C41.2513 58.0949 41.3171 57.9674 41.416 57.868C41.5384 57.7787 41.6833 57.725 41.8344 57.713C41.9855 57.701 42.137 57.7311 42.272 57.8Z" fill="#263238"/>
<path d="M46.368 57.3281C46.744 57.5401 47.124 57.7481 47.504 57.9561C47.5364 57.8197 47.5266 57.6766 47.4758 57.5459C47.4251 57.4152 47.3359 57.3029 47.22 57.2241C47.0828 57.1587 46.9297 57.1337 46.7789 57.1521C46.628 57.1706 46.4854 57.2316 46.368 57.3281Z" fill="#263238"/>
<path d="M38.268 78.2961C37.18 77.8321 35.52 75.6441 37.312 73.6281C40.064 74.1681 39.664 77.4921 38.268 78.2961Z" fill="#1C6758"/>
<path opacity="0.3" d="M38.268 78.2961C37.18 77.8321 35.52 75.6441 37.312 73.6281C40.064 74.1681 39.664 77.4921 38.268 78.2961Z" fill="black"/>
<path opacity="0.3" d="M38.268 78.2961C37.18 77.8321 35.52 75.6441 37.312 73.6281C40.064 74.1681 39.664 77.4921 38.268 78.2961Z" fill="black"/>
<path d="M56.632 65.688C53.48 64.916 42.744 71.476 42.744 71.476C39.752 71.78 30.8 77.304 30.8 77.304L27.72 76.728C27.5817 76.7024 27.4396 76.7057 27.3027 76.7377C27.1657 76.7696 27.0368 76.8296 26.9241 76.9137C26.8114 76.9978 26.7174 77.1044 26.6478 77.2266C26.5783 77.3489 26.5348 77.4842 26.52 77.624L26.32 79.456C26.2864 79.762 26.3417 80.0711 26.4793 80.3464C26.617 80.6216 26.8311 80.8514 27.096 81.008L29.292 82.308C29.4926 82.4273 29.7168 82.5013 29.9489 82.5248C30.1811 82.5483 30.4156 82.5208 30.636 82.444L30.932 82.344C31.0324 82.3094 31.1245 82.2542 31.2026 82.1822C31.2806 82.1101 31.3428 82.0226 31.3853 81.9252C31.4278 81.8278 31.4496 81.7227 31.4494 81.6165C31.4491 81.5103 31.4269 81.4052 31.384 81.308C32.276 81.132 33.144 79.656 33.144 79.656C36.508 78.204 42.788 76.104 45.088 75.188C52.452 72.076 61.28 69.2 56.632 65.688Z" fill="#FFA8A7"/>
<path opacity="0.3" d="M56.632 65.688C53.48 64.916 42.744 71.476 42.744 71.476C39.752 71.78 30.8 77.304 30.8 77.304L27.72 76.728C27.5817 76.7024 27.4396 76.7057 27.3027 76.7377C27.1657 76.7696 27.0368 76.8296 26.9241 76.9137C26.8114 76.9978 26.7174 77.1044 26.6478 77.2266C26.5783 77.3489 26.5348 77.4842 26.52 77.624L26.32 79.456C26.2864 79.762 26.3417 80.0711 26.4793 80.3464C26.617 80.6216 26.8311 80.8514 27.096 81.008L29.292 82.308C29.4926 82.4273 29.7168 82.5013 29.9489 82.5248C30.1811 82.5483 30.4156 82.5208 30.636 82.444L30.932 82.344C31.0324 82.3094 31.1245 82.2542 31.2026 82.1822C31.2806 82.1101 31.3428 82.0226 31.3853 81.9252C31.4278 81.8278 31.4496 81.7227 31.4494 81.6165C31.4491 81.5103 31.4269 81.4052 31.384 81.308C32.276 81.132 33.144 79.656 33.144 79.656C36.508 78.204 42.788 76.104 45.088 75.188C52.452 72.076 61.28 69.2 56.632 65.688Z" fill="black"/>
<path d="M38.268 78.2961C38.888 77.6441 39.068 74.5681 37.312 73.6281C38.9167 72.4991 40.7102 71.666 42.608 71.1681C46.244 68.4481 54.416 64.6241 56.632 65.6881C58.988 66.7161 58.868 69.0001 56.632 70.2041C54.396 71.4081 47.976 74.5001 45.496 75.5161C43.016 76.5321 38.268 78.2961 38.268 78.2961Z" fill="#1C6758"/>
<path opacity="0.2" d="M38.268 78.2961C38.888 77.6441 39.068 74.5681 37.312 73.6281C38.9167 72.4991 40.7102 71.666 42.608 71.1681C46.244 68.4481 54.416 64.6241 56.632 65.6881C58.988 66.7161 58.868 69.0001 56.632 70.2041C54.396 71.4081 47.976 74.5001 45.496 75.5161C43.016 76.5321 38.268 78.2961 38.268 78.2961Z" fill="black"/>
<path opacity="0.3" d="M31.4 81.308C31.0574 81.1928 30.6866 81.1928 30.344 81.308C30.648 80.752 30.496 79.708 30.496 79.708C30.6465 79.8847 30.7461 80.0991 30.7841 80.3281C30.8222 80.5571 30.7973 80.7921 30.712 81.008C30.8437 80.9731 30.9833 80.9837 31.1082 81.0382C31.2332 81.0926 31.336 81.1877 31.4 81.308Z" fill="black"/>
<path d="M153.9 62.188C154.7 62.224 155.576 61.788 155.788 61.024C156 60.26 155.54 59.536 155.108 58.9C154.556 58.1 154.008 57.276 153.456 56.468C152.996 55.788 152.504 55.076 151.768 54.708C151.394 54.5273 150.984 54.4335 150.568 54.4335C150.152 54.4335 149.742 54.5273 149.368 54.708C148.923 54.928 148.533 55.2435 148.224 55.632C148.192 56.116 148.156 56.596 148.148 57.076C148.094 57.6885 148.19 58.3049 148.428 58.872C148.916 59.824 149.96 60.152 150.904 60.444C151.68 60.684 152.048 61.244 152.548 61.808C152.971 62.0177 153.43 62.1465 153.9 62.188Z" fill="#F28F8F"/>
<path opacity="0.3" d="M152.4 61.6719C152.061 61.1997 151.612 60.8168 151.092 60.5559L152.12 59.1639C152.406 59.9669 152.502 60.8255 152.4 61.6719Z" fill="black"/>
<path d="M148.212 55.648C148.521 55.2595 148.911 54.944 149.356 54.724C149.73 54.5433 150.14 54.4495 150.556 54.4495C150.972 54.4495 151.382 54.5433 151.756 54.724C152.492 55.092 152.984 55.804 153.444 56.484C153.996 57.284 154.544 58.104 155.096 58.916C155.528 59.552 155.98 60.3 155.776 61.04C155.572 61.78 154.684 62.24 153.888 62.204C153.415 62.169 152.952 62.0455 152.524 61.84L152.696 62.032C153.148 62.514 153.649 62.947 154.192 63.324C154.755 63.7847 155.465 64.0287 156.192 64.012C156.634 63.9362 157.044 63.7301 157.368 63.4201C157.692 63.1101 157.916 62.7103 158.012 62.272C158.181 61.3851 158.04 60.4671 157.612 59.672C157.191 58.8828 156.709 58.1272 156.172 57.412C155.489 56.4133 154.885 55.362 154.368 54.268C154.024 53.4401 153.606 52.6449 153.12 51.892C152.622 51.1353 151.849 50.6028 150.964 50.408C150.593 50.3371 150.21 50.3702 149.857 50.5036C149.504 50.6371 149.195 50.8656 148.964 51.164C148.719 51.5736 148.569 52.0328 148.524 52.508C148.367 53.5487 148.263 54.5967 148.212 55.648Z" fill="#37474F"/>
<path d="M148.16 56.48C147.248 58.456 146.092 63.16 146.092 63.16C148.428 64.504 151.364 63.484 151.364 63.484L152.128 59.164C152.056 56.088 148.604 55.512 148.16 56.48Z" fill="#F28F8F"/>
<path d="M126.4 94.604C135.664 94.6559 147.868 93.18 153.6 92.412C155.82 92.1105 157.864 91.0371 159.372 89.3799C163.372 84.9799 169.132 77.628 169.132 77.628C167.8 74.28 165.18 73.9719 165.18 73.9719C161.704 76.9719 157.068 78.968 154.712 81.212C153.937 81.8981 153.309 82.7334 152.864 83.668L142.864 82.928L145.784 81.588C146.399 81.3046 146.94 80.8832 147.365 80.3567C147.79 79.8301 148.088 79.2125 148.236 78.552L151.736 62.8C148.56 64.188 146.896 62.492 146.372 62.028C144.552 66.528 141.376 70.32 141.376 75.376C135.152 77.304 125.84 77.532 124.052 81.108L126.4 94.604Z" fill="#1C6758"/>
<path opacity="0.4" d="M126.4 94.604C135.664 94.6559 147.868 93.18 153.6 92.412C155.82 92.1105 157.864 91.0371 159.372 89.3799C163.372 84.9799 169.132 77.628 169.132 77.628C167.8 74.28 165.18 73.9719 165.18 73.9719C161.704 76.9719 157.068 78.968 154.712 81.212C153.937 81.8981 153.309 82.7334 152.864 83.668L142.864 82.928L145.784 81.588C146.399 81.3046 146.94 80.8832 147.365 80.3567C147.79 79.8301 148.088 79.2125 148.236 78.552L151.736 62.8C148.56 64.188 146.896 62.492 146.372 62.028C144.552 66.528 141.376 70.32 141.376 75.376C135.152 77.304 125.84 77.532 124.052 81.108L126.4 94.604Z" fill="black"/>
<g opacity="0.3">
<path d="M132.1 79.6321C135.796 78.7361 139.588 80.0001 140.792 81.6961L144.88 82.0001L142.856 82.9281L140.204 82.7321C139.134 81.6925 137.864 80.8815 136.471 80.3486C135.078 79.8157 133.59 79.5719 132.1 79.6321Z" fill="black"/>
<path d="M143.852 77.172C143.596 76.7092 143.242 76.3084 142.814 75.998C142.386 75.6876 141.895 75.4752 141.376 75.376C141.378 74.9751 141.401 74.5746 141.444 74.176C142.123 74.3336 142.729 74.7146 143.166 75.2578C143.602 75.8011 143.844 76.4751 143.852 77.172Z" fill="black"/>
<path d="M155.156 86.4C155.124 85.7544 154.88 85.1373 154.462 84.6441C154.044 84.151 153.476 83.8093 152.844 83.672C153.042 83.2181 153.296 82.7907 153.6 82.4C154.636 82.728 156.088 84.592 155.156 86.4Z" fill="black"/>
</g>
<path d="M83.808 96.1199L95.048 88.3999C95.048 88.3999 100 82.7999 102.432 79.6959C104.864 76.5919 105.632 76.8959 109.036 76.7679L106.256 84.4319L100.844 89.6759C99.2637 91.2043 97.4638 92.4878 95.504 93.4839L85.6 98.5119L83.824 100.66L81.908 102.056C81.8119 102.125 81.6965 102.163 81.578 102.163C81.4595 102.163 81.3441 102.125 81.248 102.056C81.1859 102.013 81.1331 101.958 81.0925 101.894C81.052 101.83 81.0246 101.759 81.0119 101.685C80.9992 101.61 81.0016 101.534 81.0188 101.46C81.0359 101.387 81.0676 101.317 81.112 101.256L82.236 99.6559L80.184 99.9799C79.7822 100.045 79.4029 100.208 79.08 100.456L77.524 101.656C77.4066 101.749 77.2578 101.793 77.1087 101.779C76.9596 101.765 76.8217 101.693 76.724 101.58C76.6399 101.483 76.5907 101.36 76.5842 101.232C76.5777 101.104 76.6142 100.977 76.688 100.872L78.288 98.5919C78.719 97.9766 79.3401 97.5198 80.056 97.2919L83.808 96.1199Z" fill="#F28F8F"/>
<path d="M113.636 75.8679L120.476 77.0319C121.404 79.8759 122.76 80.9879 124.052 81.1079C127.384 85.0559 127.384 92.6839 126.396 94.6039C117.068 95.0039 114.396 92.2679 110.66 89.9239C105.928 89.9879 105.336 84.6239 106.096 82.4639C106.556 81.1559 107.044 79.4039 107.356 78.2279C107.458 77.8459 107.666 77.5006 107.956 77.2322C108.247 76.9639 108.607 76.7834 108.996 76.7119L113.636 75.8679Z" fill="#1C6758"/>
<path opacity="0.5" d="M113.636 75.8679L120.476 77.0319C121.404 79.8759 122.76 80.9879 124.052 81.1079C127.384 85.0559 127.384 92.6839 126.396 94.6039C117.068 95.0039 114.396 92.2679 110.66 89.9239C105.928 89.9879 105.336 84.6239 106.096 82.4639C106.556 81.1559 107.044 79.4039 107.356 78.2279C107.458 77.8459 107.666 77.5006 107.956 77.2322C108.247 76.9639 108.607 76.7834 108.996 76.7119L113.636 75.8679Z" fill="white"/>
<path d="M116.688 76.4C116.732 82 111.776 81.408 109.412 80.692C107.048 79.976 108.272 77 108.272 77L113.636 75.88L116.688 76.4Z" fill="#F28F8F"/>
<path d="M113.08 72.616L113.636 75.868C113.544 81.604 110.12 80.892 109.412 80.668L107.684 75.64L113.08 72.616Z" fill="#F28F8F"/>
<path opacity="0.3" d="M112.544 72.916C112.208 76.216 110.068 77.232 108.252 77.316L107.684 75.664L112.544 72.916Z" fill="black"/>
<path d="M102.652 70.476C101.604 69.072 100.524 67.604 100.2 65.88C99.876 64.156 100.564 62.112 102.2 61.456C103.124 61.08 104.2 61.2 105.108 60.8C106.54 60.172 107.14 58.516 107.908 57.148C109.264 54.7201 111.46 52.8709 114.084 51.948C115.532 51.444 117.196 51.256 118.548 51.972C119.9 52.688 120.696 54.552 119.872 55.84C120.852 55.272 122.456 55.732 123.216 56.568C123.587 56.9981 123.806 57.5385 123.838 58.1055C123.871 58.6725 123.715 59.2344 123.396 59.704C122.804 60.504 121.752 60.952 121.272 61.84C120.872 62.56 120.956 63.42 120.912 64.24C120.806 65.4931 120.429 66.7083 119.808 67.8015C119.186 68.8948 118.335 69.84 117.312 70.572C115.248 72.0302 112.752 72.7503 110.228 72.616C107.712 72.508 104.152 72.48 102.652 70.476Z" fill="#263238"/>
<path d="M101.928 66.272C101.443 68.7202 101.413 71.2369 101.84 73.696C102.004 74.62 102.272 75.604 103.004 76.192C103.904 76.916 105.192 76.808 106.34 76.66C107.598 76.5625 108.836 76.285 110.016 75.836C110.605 75.6075 111.139 75.2576 111.583 74.8089C112.028 74.3602 112.373 73.8229 112.596 73.232C112.911 73.4062 113.275 73.4694 113.629 73.4113C113.984 73.3533 114.309 73.1774 114.552 72.912C115.032 72.3701 115.29 71.6676 115.276 70.944C115.276 70.296 115.124 69.564 114.564 69.228C114.368 69.1234 114.152 69.064 113.93 69.0543C113.709 69.0446 113.488 69.0848 113.284 69.172C112.878 69.3524 112.515 69.6154 112.216 69.944C112.07 70.1145 111.899 70.2615 111.708 70.38C111.611 70.437 111.5 70.467 111.388 70.467C111.275 70.467 111.165 70.437 111.068 70.38C110.969 70.2832 110.893 70.1653 110.846 70.0351C110.799 69.9049 110.782 69.7657 110.796 69.628C110.74 68.5 110.624 67.332 110.048 66.36C109.472 65.388 108.304 64.68 107.216 64.976C106.716 65.108 106.264 65.44 105.748 65.452C105.333 65.4311 104.931 65.2999 104.584 65.072C103.388 64.4 102.192 64.956 101.928 66.272Z" fill="#F28F8F"/>
<path d="M105.448 69.3159L103.964 71.8159L105.732 72.1479L105.448 69.3159Z" fill="#F28F8F"/>
<path opacity="0.1" d="M105.448 69.3159L103.964 71.8159L105.732 72.1479L105.448 69.3159Z" fill="black"/>
<path d="M107.44 73.0079L106.096 73.6639C106.212 73.8164 106.373 73.9273 106.557 73.98C106.741 74.0326 106.937 74.0242 107.116 73.9559C107.27 73.8584 107.386 73.7113 107.445 73.5389C107.504 73.3665 107.502 73.1792 107.44 73.0079Z" fill="#F28F8F"/>
<path opacity="0.3" d="M107.44 73.0079L106.096 73.6639C106.212 73.8164 106.373 73.9273 106.557 73.98C106.741 74.0326 106.937 74.0242 107.116 73.9559C107.27 73.8584 107.386 73.7113 107.445 73.5389C107.504 73.3665 107.502 73.1792 107.44 73.0079Z" fill="black"/>
<path d="M106.648 74C106.805 74.0302 106.967 74.0149 107.116 73.956C107.239 73.8853 107.338 73.7802 107.402 73.6537C107.466 73.5273 107.492 73.3849 107.476 73.244C107.283 73.2433 107.095 73.3082 106.944 73.428C106.859 73.4991 106.79 73.5862 106.739 73.6844C106.688 73.7826 106.657 73.8898 106.648 74Z" fill="#F28F8F"/>
<path opacity="0.1" d="M106.648 74C106.805 74.0302 106.967 74.0149 107.116 73.956C107.239 73.8853 107.338 73.7802 107.402 73.6537C107.466 73.5273 107.492 73.3849 107.476 73.244C107.283 73.2433 107.095 73.3082 106.944 73.428C106.859 73.4991 106.79 73.5862 106.739 73.6844C106.688 73.7826 106.657 73.8898 106.648 74Z" fill="black"/>
<path d="M108 69.416C108.01 69.516 107.99 69.6166 107.942 69.7052C107.895 69.7937 107.822 69.8662 107.734 69.9136C107.645 69.9609 107.545 69.9809 107.445 69.9711C107.345 69.9612 107.25 69.922 107.172 69.8583C107.095 69.7946 107.038 69.7093 107.008 69.6132C106.979 69.5172 106.979 69.4146 107.008 69.3184C107.037 69.2223 107.094 69.1369 107.172 69.0732C107.249 69.0094 107.344 68.97 107.444 68.96C107.51 68.9534 107.578 68.9599 107.641 68.9793C107.705 68.9986 107.765 69.0304 107.817 69.0727C107.868 69.1151 107.911 69.1672 107.942 69.2261C107.974 69.285 107.993 69.3496 108 69.416Z" fill="#263238"/>
<path d="M103.748 69.6799C103.758 69.7799 103.738 69.8805 103.69 69.9691C103.643 70.0576 103.57 70.1302 103.482 70.1775C103.393 70.2248 103.293 70.2448 103.193 70.235C103.093 70.2252 102.998 70.1859 102.92 70.1222C102.843 70.0585 102.786 69.9733 102.756 69.8772C102.727 69.7811 102.727 69.6785 102.756 69.5823C102.785 69.4862 102.842 69.4009 102.92 69.3371C102.997 69.2733 103.092 69.2339 103.192 69.2239C103.258 69.2173 103.326 69.2239 103.39 69.2432C103.453 69.2625 103.513 69.2943 103.565 69.3366C103.616 69.379 103.659 69.4311 103.69 69.49C103.722 69.5489 103.742 69.6135 103.748 69.6799Z" fill="#263238"/>
<path d="M103.052 67.716L102 68.604C101.941 68.4718 101.923 68.3251 101.948 68.1826C101.973 68.0401 102.04 67.9083 102.14 67.804C102.268 67.7053 102.422 67.6447 102.583 67.6291C102.745 67.6136 102.907 67.6436 103.052 67.716Z" fill="#263238"/>
<path d="M107.38 67.22L108.58 67.88C108.616 67.7365 108.607 67.5854 108.554 67.4473C108.501 67.3092 108.407 67.1907 108.284 67.108C108.138 67.0392 107.976 67.0133 107.816 67.0331C107.656 67.0529 107.505 67.1177 107.38 67.22Z" fill="#263238"/>
<path d="M118.912 76.768C121.912 76.224 124.768 79.924 125.98 81.128C126.72 81.864 134.72 92.76 134.72 92.76L142.964 107.248L145.34 108.524C146.299 109.039 147.171 109.702 147.924 110.488L148.548 111.144C148.652 111.253 148.729 111.385 148.774 111.529C148.818 111.673 148.828 111.826 148.804 111.975C148.78 112.123 148.721 112.265 148.633 112.387C148.545 112.509 148.429 112.61 148.296 112.68L147.3 113.2C146.989 113.365 146.643 113.454 146.291 113.459C145.939 113.463 145.591 113.384 145.276 113.228L141.676 111.452L142.8 113.2C142.844 113.269 142.874 113.345 142.888 113.426C142.902 113.506 142.9 113.589 142.881 113.668C142.862 113.748 142.828 113.823 142.78 113.889C142.731 113.955 142.67 114.01 142.6 114.052C142.489 114.119 142.36 114.148 142.231 114.136C142.102 114.124 141.98 114.071 141.884 113.984L140.824 113.04C140.247 112.527 139.86 111.835 139.724 111.076L139.38 109.168L130.28 96.4C130.28 96.4 122.22 85.792 119.676 82.724C117.132 79.656 118.912 76.768 118.912 76.768Z" fill="#F28F8F"/>
<path d="M182.548 76.424C182.592 75.776 182.148 75.196 181.748 74.704C180.465 73.2256 178.984 71.9308 177.348 70.856C176.434 70.2284 175.436 69.7328 174.384 69.384C173.142 69.0075 171.83 68.9281 170.552 69.152C169.792 70.14 166.132 73.528 165.216 74.376C166.256 75.596 167.696 76.648 168.744 77.86L173.188 73.892C176.032 74.6676 178.718 75.9391 181.12 77.648C181.297 77.6696 181.477 77.6546 181.648 77.6038C181.819 77.553 181.978 77.4675 182.114 77.3527C182.251 77.2379 182.362 77.0962 182.442 76.9364C182.521 76.7766 182.567 76.6022 182.576 76.424H182.548Z" fill="#F28F8F"/>
<path d="M171.48 67.8239C171.18 68.2799 170.856 68.7199 170.524 69.1519C171.802 68.928 173.114 69.0074 174.356 69.3839C175.408 69.7328 176.406 70.2283 177.32 70.8559C178.956 71.9307 180.437 73.2255 181.72 74.7039C182.148 75.1959 182.576 75.7759 182.52 76.4239C182.511 76.6021 182.465 76.7765 182.386 76.9363C182.306 77.0961 182.195 77.2378 182.058 77.3526C181.922 77.4674 181.763 77.5529 181.592 77.6037C181.421 77.6545 181.241 77.6696 181.064 77.6479L181.608 78.0479C182.196 78.5663 182.874 78.973 183.608 79.2479C184.356 79.4679 185.284 79.3159 185.712 78.6639C186.112 78.0759 185.98 77.2879 185.772 76.6079C184.968 73.9976 183.235 71.773 180.9 70.3559C179.456 69.4839 177.764 68.9079 176.696 67.6039C176.088 66.8599 175.636 65.8519 174.696 65.6039C174.348 65.5292 173.987 65.5416 173.645 65.64C173.303 65.7384 172.991 65.9197 172.736 66.1679C172.246 66.6623 171.824 67.2191 171.48 67.8239Z" fill="#37474F"/>
<path d="M85.644 123.04C83.872 125.004 84.18 128.64 86.708 129.868C91.012 126.328 87.128 123.496 85.644 123.04Z" fill="#1C6758"/>
<path opacity="0.3" d="M85.644 123.04C83.872 125.004 84.18 128.64 86.708 129.868C91.012 126.328 87.128 123.496 85.644 123.04Z" fill="black"/>
<path d="M100.952 121.7C96.952 120.072 89.86 122.384 83.628 123.7C72.828 123.448 61.532 128.756 61.532 128.756C61.532 128.756 58.124 128.084 56.448 128.756C54.772 129.428 55.404 132.652 56.076 133.308C56.748 133.964 59.168 134.404 59.168 134.404C59.1683 134.578 59.2336 134.746 59.3512 134.875C59.4689 135.004 59.6303 135.084 59.804 135.1H59.956C60.9136 135.181 61.8651 134.886 62.608 134.276C62.9614 133.986 63.2583 133.634 63.484 133.236L64.424 131.572C74.752 130.372 82.856 129.644 82.856 129.644L100.484 128.184L100.952 121.7Z" fill="#FFA8A7"/>
<path d="M86.708 129.868C86.708 129.868 89.148 126.824 85.644 123.04C89.436 121.968 97.944 119.4 100.952 121.7L100.484 128.18L86.708 129.868Z" fill="#1C6758"/>
<path opacity="0.3" d="M86.708 129.868C86.708 129.868 89.148 126.824 85.644 123.04C89.436 121.968 97.944 119.4 100.952 121.7L100.484 128.18L86.708 129.868Z" fill="white"/>
<path opacity="0.3" d="M59.168 134.4L60.096 134.496C60.3243 134.521 60.5543 134.467 60.748 134.344L61.424 133.912C61.5395 133.839 61.6309 133.734 61.6865 133.609C61.742 133.485 61.7592 133.347 61.736 133.212L61.524 131.988L61.904 132.42C62.0282 132.56 62.1145 132.729 62.1544 132.912C62.1943 133.095 62.1866 133.285 62.132 133.464C62.0844 133.62 62.006 133.765 61.9016 133.89C61.7972 134.015 61.6688 134.117 61.524 134.192L60.724 134.612C60.5395 134.71 60.3241 134.731 60.124 134.672L59.168 134.4Z" fill="black"/>
<path d="M170.712 116.544C171.292 116.336 172.248 116.568 173.004 117.112C173.76 117.656 174.284 118.456 174.848 119.2C175.682 120.308 176.64 121.318 177.704 122.208C178.389 122.734 179.042 123.301 179.66 123.904C180.28 124.513 180.69 125.303 180.832 126.16C180.904 126.776 180.743 127.397 180.38 127.9C180.688 127.647 180.926 127.319 181.072 126.948C181.217 126.577 181.266 126.175 181.212 125.78C181.072 124.921 180.661 124.129 180.04 123.52C179.423 122.917 178.77 122.352 178.084 121.828C177.023 120.935 176.065 119.926 175.228 118.82C174.664 118.076 174.144 117.18 173.388 116.636C172.632 116.092 171.672 115.864 171.092 116.068L170.712 116.544Z" fill="#263238"/>
<path d="M176.668 124.82C176.12 124.272 175.512 125.284 174.448 125.308C174.672 125.504 174.892 125.708 175.104 125.928C176.244 125.724 177.04 125.2 176.668 124.82Z" fill="white"/>
<path d="M175.488 123.728C174.94 123.176 174.12 124.284 173.016 124.308C173.182 124.387 173.342 124.477 173.496 124.576C173.629 124.659 173.763 124.747 173.896 124.84C175.044 124.64 175.864 124.1 175.488 123.728Z" fill="white"/>
<path d="M168.224 120.16C168.082 120.376 168.025 120.637 168.064 120.892L170.944 123.924C171.659 123.846 172.381 123.985 173.016 124.324C174.12 124.3 174.94 123.192 175.488 123.744C175.864 124.116 175.044 124.656 173.888 124.856C174.084 125.004 174.288 125.16 174.456 125.324C175.52 125.3 176.128 124.288 176.676 124.836C177.048 125.208 176.252 125.74 175.112 125.944L175.512 126.364C175.636 126.488 175.752 126.624 175.868 126.764C177.816 126.992 178.844 126.152 180.168 124.548C180.013 124.329 179.843 124.12 179.66 123.924C179.042 123.321 178.389 122.754 177.704 122.228C176.64 121.338 175.682 120.329 174.848 119.22C174.284 118.476 173.764 117.676 173.004 117.132C172.244 116.588 171.292 116.356 170.712 116.564L168.224 120.16Z" fill="#455A64"/>
<path d="M175.868 126.744C176.279 127.313 176.779 127.813 177.348 128.224C177.711 128.468 178.132 128.613 178.569 128.643C179.006 128.673 179.443 128.588 179.836 128.396C180.048 128.268 180.233 128.099 180.38 127.9C180.743 127.397 180.904 126.776 180.832 126.16C180.746 125.57 180.518 125.01 180.168 124.528C178.844 126.132 177.816 126.972 175.868 126.744Z" fill="white"/>
<path d="M166.992 128.268L171.6 123.424C171.677 123.347 171.738 123.256 171.78 123.155C171.822 123.055 171.843 122.947 171.843 122.838C171.843 122.729 171.822 122.621 171.78 122.521C171.738 122.42 171.677 122.329 171.6 122.252L170.108 120.764C169.859 120.514 169.523 120.371 169.17 120.365C168.818 120.359 168.477 120.491 168.22 120.732L163.144 125.292L166.992 128.268Z" fill="#FFA8A7"/>
<path d="M152.296 106C152.824 105.676 153.808 105.708 154.66 106.08C155.512 106.452 156.188 107.136 156.892 107.748C157.939 108.657 159.085 109.446 160.308 110.1C161.087 110.473 161.843 110.892 162.572 111.356C163.301 111.825 163.861 112.515 164.172 113.324C164.371 113.911 164.341 114.551 164.088 115.116C164.337 114.805 164.503 114.436 164.57 114.043C164.636 113.651 164.601 113.247 164.468 112.872C164.157 112.063 163.597 111.373 162.868 110.904C162.139 110.441 161.383 110.022 160.604 109.648C159.38 108.995 158.234 108.206 157.188 107.296C156.484 106.684 155.788 105.916 154.936 105.54C154.084 105.164 153.1 105.14 152.572 105.456L152.296 106Z" fill="#263238"/>
<path d="M159.836 112.868C159.188 112.444 158.8 113.56 157.764 113.8C158.024 113.948 158.28 114.108 158.532 114.272C159.6 113.836 160.272 113.152 159.836 112.868Z" fill="white"/>
<path d="M158.456 112.04C157.804 111.612 157.228 112.868 156.156 113.12C156.334 113.164 156.508 113.217 156.68 113.28C156.829 113.336 156.973 113.396 157.112 113.46C158.212 113.024 158.9 112.328 158.456 112.04Z" fill="white"/>
<path d="M150.612 110.048C150.52 110.289 150.52 110.555 150.612 110.796L154.056 113.168C154.738 112.942 155.472 112.925 156.164 113.12C157.236 112.868 157.812 111.612 158.464 112.04C158.908 112.328 158.22 113.024 157.12 113.46C157.344 113.564 157.56 113.676 157.772 113.8C158.808 113.56 159.196 112.444 159.844 112.868C160.28 113.152 159.612 113.836 158.54 114.272L159.028 114.6C159.172 114.696 159.316 114.804 159.46 114.916C161.412 114.736 162.24 113.716 163.204 111.86C163.009 111.675 162.8 111.506 162.58 111.352C161.851 110.888 161.095 110.469 160.316 110.096C159.093 109.442 157.947 108.653 156.9 107.744C156.196 107.132 155.524 106.452 154.668 106.076C153.812 105.7 152.832 105.676 152.304 105.996L150.612 110.048Z" fill="#455A64"/>
<path d="M159.452 114.916C159.97 115.387 160.56 115.771 161.2 116.056C161.606 116.222 162.048 116.277 162.482 116.217C162.917 116.157 163.327 115.982 163.672 115.712C163.854 115.543 164 115.339 164.1 115.112C164.353 114.547 164.383 113.906 164.184 113.32C163.981 112.759 163.641 112.257 163.196 111.86C162.232 113.7 161.404 114.736 159.452 114.916Z" fill="white"/>
<path d="M151.076 118.236L154.6 112.544C154.719 112.359 154.76 112.136 154.715 111.921C154.67 111.706 154.543 111.518 154.36 111.396L152.592 110.248C152.297 110.054 151.938 109.983 151.592 110.049C151.245 110.116 150.938 110.315 150.736 110.604L146.712 116.116L151.076 118.236Z" fill="#FFA8A7"/>
<path d="M127.252 145.932C134.643 145.999 142.028 145.504 149.344 144.452C152.648 143.948 155.671 142.302 157.888 139.8L168.988 127.312C167.588 123.756 162.88 122.32 162.88 122.32C159.844 125.992 150.264 129.888 149.108 134.128C144.496 133.3 138.268 133.188 138.268 133.188L140.84 132.128C142.866 131.295 144.582 129.852 145.752 128L153.332 115.928C150.504 112.592 145.712 112.352 145.712 112.352C143.636 116.584 137.648 121.056 136.372 124.648C127.032 125.448 123.448 127.204 119.884 129.42L127.252 145.932Z" fill="#455A64"/>
<path opacity="0.5" d="M127.252 145.932C134.643 145.999 142.028 145.504 149.344 144.452C152.648 143.948 155.671 142.302 157.888 139.8L168.988 127.312C167.588 123.756 162.88 122.32 162.88 122.32C159.844 125.992 150.264 129.888 149.108 134.128C144.496 133.3 138.268 133.188 138.268 133.188L140.84 132.128C142.866 131.295 144.582 129.852 145.752 128L153.332 115.928C150.504 112.592 145.712 112.352 145.712 112.352C143.636 116.584 137.648 121.056 136.372 124.648C127.032 125.448 123.448 127.204 119.884 129.42L127.252 145.932Z" fill="white"/>
<g opacity="0.2">
<path d="M152.8 138.74C153.74 134.512 151.5 132.676 150.336 132.056C149.789 132.65 149.379 133.358 149.136 134.128C152.024 135.38 152.756 138.036 152.8 138.74Z" fill="black"/>
<path d="M128.46 128.528C128.46 128.528 131.748 129.352 134.74 133.188C134.74 133.188 136.092 133.164 138.268 133.188L140.84 132.128C140.992 132.064 141.14 131.992 141.288 131.924L135.688 132.168C133.788 130.135 131.225 128.844 128.46 128.528Z" fill="black"/>
<path d="M140 127.944C140.172 124.744 138.14 123.444 137.2 123.016C136.861 123.516 136.579 124.053 136.36 124.616C137.184 124.85 137.942 125.272 138.573 125.85C139.205 126.428 139.694 127.145 140 127.944Z" fill="black"/>
</g>
<path d="M97.504 124C96.112 134.48 100.364 142.8 110.604 145.796C116.08 147.364 127.668 146.596 127.668 146.596C131.324 137.556 128.284 133.28 119.884 129.396C114.684 131.072 113.444 125.084 113.22 124.364C109.468 122.388 100.064 119.564 100.064 119.564C97.964 120.5 97.504 124 97.504 124Z" fill="#1C6758"/>
<path d="M107.256 122.576L105.752 119.856L99.728 123.92L102.128 127.12C102.629 127.366 103.175 127.504 103.732 127.526C104.29 127.548 104.846 127.454 105.364 127.248C105.877 127.012 106.335 126.673 106.711 126.252C107.087 125.831 107.372 125.336 107.548 124.8C107.651 124.429 107.678 124.04 107.628 123.658C107.578 123.276 107.451 122.908 107.256 122.576Z" fill="#FFA8A7"/>
<path opacity="0.3" d="M105.2 120.236C105.2 123.508 102.6 125.036 101.008 125.624L99.74 123.92L105.2 120.236Z" fill="black"/>
<path d="M106.844 117.688C106.34 118.316 105.68 118.888 104.88 118.984C103.828 119.092 102.88 118.312 102.284 117.444C101.688 116.576 101.272 115.564 100.54 114.804C100.04 114.326 99.4473 113.954 98.7989 113.711C98.1505 113.468 97.4596 113.36 96.768 113.392C95.3697 113.477 94.0059 113.86 92.768 114.516C91.902 114.033 91.2141 113.284 90.8058 112.38C90.3975 111.476 90.2903 110.465 90.5 109.496C90.5133 109.418 90.5497 109.345 90.6046 109.287C90.6595 109.229 90.7303 109.189 90.8081 109.172C90.8859 109.155 90.967 109.161 91.0411 109.191C91.1152 109.22 91.1789 109.27 91.224 109.336C91.3409 109.497 91.475 109.644 91.624 109.776C91.5193 108.496 91.8202 107.215 92.484 106.116C93.0426 105.205 93.8246 104.452 94.756 103.928C94.8244 103.889 94.9001 103.865 94.9784 103.856C95.0567 103.848 95.1359 103.856 95.211 103.879C95.2861 103.903 95.3555 103.942 95.4149 103.994C95.4742 104.045 95.5223 104.109 95.556 104.18C95.7203 104.528 95.9675 104.83 96.276 105.06C97.1953 103.773 98.4844 102.797 99.972 102.26C100.043 102.235 100.118 102.227 100.193 102.236C100.267 102.246 100.338 102.272 100.401 102.313C100.463 102.355 100.515 102.41 100.552 102.475C100.59 102.54 100.612 102.613 100.616 102.688C100.768 104.836 104.476 106.228 105.672 107.188C105.83 106.588 106.208 106.069 106.732 105.736C107.263 105.385 107.906 105.242 108.536 105.336L106.536 107.424C107.255 107.404 107.964 107.252 108.628 106.976C108.71 106.94 108.8 106.923 108.89 106.928C108.98 106.933 109.068 106.959 109.146 107.004C109.224 107.05 109.29 107.113 109.339 107.188C109.388 107.264 109.419 107.35 109.428 107.44C109.534 108.341 109.311 109.25 108.8 110C109.021 109.905 109.238 109.798 109.448 109.68C109.503 109.651 109.565 109.637 109.627 109.64C109.689 109.644 109.749 109.665 109.8 109.7C109.851 109.736 109.891 109.785 109.916 109.842C109.941 109.9 109.949 109.962 109.94 110.024C109.758 111.239 109.168 112.356 108.268 113.192C108.427 113.182 108.584 113.154 108.736 113.108C108.804 113.077 108.879 113.066 108.953 113.075C109.027 113.085 109.096 113.115 109.154 113.162C109.212 113.209 109.255 113.271 109.28 113.341C109.304 113.412 109.308 113.487 109.292 113.56C109.151 114.203 108.878 114.811 108.492 115.344C108 116.112 107.412 116.984 106.844 117.688Z" fill="#263238"/>
<path d="M92.436 110.908C91.7898 114.798 92.2185 118.791 93.676 122.456C94.016 123.3 94.452 124.176 95.244 124.628C96.036 125.08 97.1 125.004 98.044 124.86C99.5775 124.684 101.072 124.258 102.468 123.6C103.876 122.935 104.974 121.753 105.532 120.3C106.033 120.401 106.552 120.356 107.027 120.169C107.503 119.983 107.914 119.663 108.212 119.248C108.801 118.387 109.104 117.363 109.08 116.32C109.08 115.66 108.96 114.876 108.364 114.584C107.768 114.292 107.144 114.616 106.668 115.004C105.881 115.646 105.305 116.51 105.016 117.484C104.576 115.884 103.896 114.316 103.456 112.684C103.284 112.048 103.056 111.356 102.52 111.004C101.84 110.568 100.956 110.82 100.176 111.004C97.6298 111.631 94.9659 111.598 92.436 110.908Z" fill="#FFA8A7"/>
<path d="M97.14 115.808L95.256 118.984L97.504 119.404L97.14 115.808Z" fill="#F28F8F"/>
<path d="M99.676 120.5L97.964 121.332C98.11 121.527 98.3158 121.668 98.5499 121.735C98.784 121.801 99.0335 121.789 99.26 121.7C99.4559 121.578 99.604 121.392 99.6797 121.173C99.7553 120.955 99.754 120.717 99.676 120.5Z" fill="#F28F8F"/>
<path opacity="0.3" d="M99.676 120.5L97.964 121.332C98.11 121.527 98.3158 121.668 98.5499 121.735C98.784 121.801 99.0335 121.789 99.26 121.7C99.4559 121.578 99.604 121.392 99.6797 121.173C99.7553 120.955 99.754 120.717 99.676 120.5Z" fill="black"/>
<path d="M98.668 121.756C98.8665 121.797 99.0726 121.777 99.26 121.7C99.4172 121.613 99.5447 121.48 99.6259 121.32C99.7072 121.16 99.7386 120.978 99.716 120.8C99.4715 120.799 99.234 120.882 99.044 121.036C98.829 121.217 98.694 121.476 98.668 121.756Z" fill="#F28F8F"/>
<path d="M100.4 115.932C100.413 116.059 100.388 116.186 100.328 116.299C100.268 116.411 100.177 116.503 100.065 116.564C99.9526 116.624 99.8252 116.65 99.6985 116.638C99.5718 116.626 99.4515 116.576 99.3528 116.496C99.2541 116.416 99.1814 116.308 99.1439 116.186C99.1063 116.065 99.1057 115.935 99.142 115.813C99.1783 115.691 99.2499 115.582 99.3478 115.501C99.4457 115.42 99.5654 115.369 99.692 115.356C99.8621 115.339 100.032 115.39 100.165 115.498C100.297 115.606 100.382 115.762 100.4 115.932Z" fill="#263238"/>
<path d="M94.98 116.268C94.9928 116.395 94.9677 116.522 94.908 116.635C94.8483 116.747 94.7567 116.839 94.6446 116.9C94.5326 116.96 94.4052 116.986 94.2785 116.974C94.1518 116.962 94.0315 116.912 93.9328 116.832C93.8341 116.752 93.7614 116.644 93.7239 116.522C93.6864 116.401 93.6857 116.271 93.722 116.149C93.7583 116.027 93.8299 115.918 93.9278 115.837C94.0257 115.756 94.1455 115.705 94.272 115.692C94.4421 115.675 94.612 115.726 94.7446 115.834C94.8772 115.942 94.9618 116.098 94.98 116.268Z" fill="#263238"/>
<path d="M94.096 113.772L92.772 114.9C92.692 114.73 92.666 114.54 92.6975 114.354C92.729 114.169 92.8164 113.998 92.948 113.864C93.1116 113.743 93.3059 113.67 93.5088 113.654C93.7118 113.637 93.9152 113.678 94.096 113.772Z" fill="#263238"/>
<path d="M99.6 113.14L101.124 113.98C101.167 113.795 101.152 113.602 101.08 113.426C101.008 113.251 100.884 113.102 100.724 113C100.542 112.918 100.341 112.888 100.142 112.912C99.9441 112.937 99.7564 113.016 99.6 113.14Z" fill="#263238"/>
<path d="M131.744 136.316L123.244 129.516C120.282 127.147 116.873 125.4 113.22 124.38C113.011 126.773 113.494 129.177 114.611 131.304C115.727 133.431 117.431 135.193 119.52 136.38L127.5 140.92L127.844 154.896L127.72 157.532L126.244 158.5L123.704 161.552C123.637 161.631 123.598 161.729 123.591 161.832C123.585 161.935 123.612 162.037 123.668 162.124C123.736 162.23 123.843 162.304 123.965 162.333C124.088 162.361 124.216 162.341 124.324 162.276L126.624 160.892L126.196 163.132C126.136 163.446 126.012 163.744 125.832 164.008L124.128 166.484C124.052 166.593 124.019 166.726 124.034 166.858C124.05 166.99 124.113 167.111 124.212 167.2C124.291 167.27 124.388 167.316 124.492 167.333C124.597 167.349 124.704 167.335 124.8 167.292L126.344 166.592C127.344 166.139 128.235 165.475 128.956 164.647C129.678 163.819 130.212 162.845 130.524 161.792L131.64 158.036C131.803 157.492 131.913 156.933 131.968 156.368L133.516 140.52C133.593 139.727 133.471 138.928 133.161 138.194C132.852 137.46 132.365 136.815 131.744 136.316Z" fill="#FFA8A7"/>
<path d="M113.22 124.376L116.188 125.288C118.399 125.967 120.487 126.996 122.372 128.336L127.392 131.9C127.352 136.092 122.88 139.248 122.88 139.248L116.604 135.54C115.156 134.685 114.007 133.404 113.313 131.873C112.62 130.341 112.415 128.632 112.728 126.98L113.22 124.376Z" fill="#1C6758"/>
<path opacity="0.3" d="M113.22 124.376L116.188 125.288C118.399 125.967 120.487 126.996 122.372 128.336L127.392 131.9C127.352 136.092 122.88 139.248 122.88 139.248L116.604 135.54C115.156 134.685 114.007 133.404 113.313 131.873C112.62 130.341 112.415 128.632 112.728 126.98L113.22 124.376Z" fill="white"/>
</g>
<defs>
<filter id="filter0_d_518_1060" x="-4" y="0" width="208" height="208" filterUnits="userSpaceOnUse" color-interpolation-filters="sRGB">
<feFlood flood-opacity="0" result="BackgroundImageFix"/>
<feColorMatrix in="SourceAlpha" type="matrix" values="0 0 0 0 0 0 0 0 0 0 0 0 0 0 0 0 0 0 127 0" result="hardAlpha"/>
<feOffset dy="4"/>
<feGaussianBlur stdDeviation="2"/>
<feComposite in2="hardAlpha" operator="out"/>
<feColorMatrix type="matrix" values="0 0 0 0 0 0 0 0 0 0 0 0 0 0 0 0 0 0 0.25 0"/>
<feBlend mode="normal" in2="BackgroundImageFix" result="effect1_dropShadow_518_1060"/>
<feBlend mode="normal" in="SourceGraphic" in2="effect1_dropShadow_518_1060" result="shape"/>
</filter>
</defs>
</svg>
