<svg width="90" height="96" viewBox="0 0 90 96" fill="none" xmlns="http://www.w3.org/2000/svg">
<g clip-path="url(#clip0_851_165)">
<path d="M54.4058 61.0188L60.2437 89.3096L51.6116 93.4069" stroke="#3A4125" stroke-width="3" stroke-miterlimit="10"/>
<path d="M37.8567 61.0188L32.0188 89.3096L40.6462 93.4069" stroke="#3A4125" stroke-width="3" stroke-miterlimit="10"/>
<path d="M76.6235 39.9018V40.1653C76.6235 40.2641 76.6235 40.3628 76.6141 40.4616V40.5087C76.6141 40.5369 76.6141 40.5604 76.6141 40.5839C76.6141 40.6733 76.6141 40.758 76.6141 40.8474C76.6141 40.8944 76.6141 40.9367 76.6141 40.9791C76.6141 41.2002 76.6141 41.4307 76.5953 41.6518C76.5953 41.6706 76.5953 41.6988 76.5953 41.7176C76.5765 42.0987 76.5483 42.4797 76.5059 42.8655C76.0684 47.6637 74.5019 52.1468 72.0934 56.0371C71.3643 57.2131 70.5599 58.328 69.6849 59.3959C64.0916 66.1793 55.6241 70.5024 46.1453 70.5024C45.8019 70.5024 45.4632 70.5024 45.1198 70.4789C44.7905 70.4695 44.4612 70.4601 44.1366 70.4318H44.0943C43.7603 70.413 43.431 70.3848 43.1017 70.3472C42.81 70.3236 42.5184 70.286 42.2314 70.2484C42.1467 70.2484 42.0621 70.2248 41.9821 70.2154C41.3611 70.1308 40.7496 70.032 40.1428 69.9097C39.8182 69.8438 39.4983 69.7732 39.1784 69.698C38.8585 69.6274 38.5386 69.5427 38.2235 69.4628C37.9365 69.3828 37.6496 69.3028 37.3673 69.2182C37.3061 69.204 37.2497 69.1852 37.1932 69.1664C36.911 69.0817 36.6335 68.9924 36.3559 68.8936C36.3371 68.8936 36.323 68.8842 36.3089 68.8842C36.0172 68.776 35.7255 68.6772 35.4386 68.569C35.1752 68.4702 34.9164 68.3667 34.6577 68.2632C34.0838 68.0327 33.5193 67.7787 32.9642 67.5105C32.8184 67.4447 32.6725 67.3741 32.5267 67.2942C32.0845 67.0731 31.6517 66.8473 31.2237 66.6026C31.1061 66.5415 30.9885 66.4709 30.8756 66.4051C30.6968 66.3063 30.5275 66.2075 30.3534 66.0899C29.8453 65.7935 29.342 65.4642 28.8528 65.1302C28.7352 65.0409 28.6176 64.9656 28.5 64.8762C27.5215 64.1894 26.5854 63.4367 25.701 62.6323C25.367 62.3313 25.0518 62.0302 24.7319 61.7103C24.5391 61.5222 24.3462 61.3293 24.1627 61.1317C23.9228 60.8871 23.6923 60.6331 23.4665 60.3837C23.4148 60.3273 23.363 60.2708 23.316 60.2191C23.1654 60.0545 23.0196 59.8804 22.8832 59.711C22.7891 59.6029 22.695 59.4947 22.6056 59.3865C22.441 59.1889 22.2811 58.9866 22.1258 58.789C22.0835 58.742 22.0459 58.6902 22.0035 58.6338C21.8577 58.4456 21.7213 58.2669 21.5895 58.074C21.4766 57.9282 21.3732 57.7823 21.2697 57.6318C21.2603 57.6318 21.2508 57.6224 21.2508 57.6036C21.0674 57.359 20.8933 57.1049 20.724 56.8415C20.5452 56.5828 20.3759 56.3099 20.2065 56.0371C17.7886 52.1515 16.2268 47.6637 15.7846 42.8655C15.6952 41.9246 15.6482 40.965 15.6482 40.0006C15.6482 37.3145 15.9916 34.7131 16.6455 32.2388C17.0736 30.6017 17.6381 29.0164 18.3202 27.5017C19.388 25.1261 20.7475 22.9151 22.3657 20.9111C23.3912 19.6269 24.5249 18.4226 25.748 17.3219C26.369 16.7668 27.0134 16.2258 27.6814 15.7272C32.809 11.818 39.2066 9.49414 46.15 9.49414C46.8791 9.49414 47.6036 9.52237 48.3233 9.57411C49.043 9.62115 49.7534 9.70112 50.4543 9.79521C51.1599 9.89399 51.8561 10.0163 52.5429 10.1668C52.9381 10.2515 53.3285 10.3409 53.7143 10.4397C53.9306 10.4961 54.1423 10.5526 54.354 10.6137C54.514 10.6561 54.6739 10.7031 54.8338 10.7502C55.0173 10.7972 55.2008 10.8536 55.3842 10.9195C55.5677 10.976 55.7512 11.0371 55.9346 11.0983C56.1181 11.15 56.2968 11.2159 56.4756 11.2864C67.1117 15.1156 75.01 24.6933 76.4212 36.2796C76.5671 37.4651 76.6423 38.6787 76.647 39.9018H76.6235Z" fill="#679CF1"/>
<path d="M70.207 58.7797C64.6185 65.9159 55.9252 70.5024 46.1546 70.5024C40.5614 70.5024 35.321 68.9971 30.8144 66.3722C27.4462 64.4153 24.492 61.828 22.1023 58.7797C20.4652 56.691 19.0963 54.386 18.0426 51.9116C16.4808 48.2423 15.6152 44.2062 15.6152 39.963C15.6152 36.9288 16.0574 33.9982 16.8854 31.2321C17.2711 29.9243 17.7462 28.6589 18.2966 27.4311C20.8651 21.7344 25.1223 16.9644 30.438 13.7703V25.8976C30.438 26.3774 30.4475 26.8525 30.471 27.3277C30.5509 29.2328 30.7909 31.091 31.186 32.8974C34.3942 47.692 47.5612 58.7797 63.3201 58.7797H70.207Z" fill="#5178FF"/>
<path opacity="0.5" d="M76.6235 39.9018C76.6235 40.4334 76.6047 40.9603 76.5765 41.4824C76.5765 41.5342 76.5765 41.5906 76.5765 41.6518C76.5765 41.6706 76.5765 41.6941 76.5765 41.7129C76.5577 42.0987 76.5294 42.4797 76.4871 42.8607H67.982C55.9723 42.8607 46.2205 33.1514 46.1735 21.1416L46.1265 9.49414C46.8556 9.49414 47.58 9.51766 48.2998 9.56941C49.0195 9.62115 49.7298 9.69642 50.4308 9.79521C51.1364 9.89399 51.8326 10.0163 52.5194 10.1621C65.1077 12.8247 74.8218 23.2068 76.3977 36.0821C76.5483 37.291 76.6235 38.5235 76.6235 39.7748V39.9018Z" fill="#A6D7FF"/>
<path d="M46.5356 59.3394C46.5356 61.1599 45.0632 62.6323 43.2427 62.6323H25.6774C25.3434 62.3359 25.0282 62.0349 24.7083 61.715C24.5154 61.5268 24.3226 61.3339 24.1391 61.1364C23.8992 60.8918 23.6687 60.6377 23.4429 60.3884C23.3911 60.332 23.3394 60.2755 23.2923 60.2238C23.1418 60.0591 22.996 59.8851 22.8596 59.7157C22.7655 59.6075 22.6714 59.4993 22.582 59.3911C22.4174 59.1936 22.2574 58.9913 22.1022 58.7937C22.0599 58.7467 22.0222 58.6949 21.9799 58.6385C21.8341 58.4503 21.6976 58.2715 21.5659 58.0787C21.5424 58.0504 21.5236 58.0222 21.5001 57.9893L21.246 57.6365C21.246 57.6365 21.2319 57.6177 21.2272 57.6082C21.1237 57.4671 21.0249 57.3213 20.9262 57.1802C20.8462 57.072 20.7709 56.9591 20.7004 56.8462C20.5875 56.6862 20.4793 56.5169 20.3758 56.3475C20.3099 56.244 20.2441 56.1453 20.1829 56.0418C20.0794 55.8771 19.9806 55.7125 19.8818 55.5431C19.8677 55.5196 19.8583 55.5008 19.8442 55.482C19.6796 55.1997 19.5149 54.9128 19.3597 54.6258C19.1997 54.3342 19.0445 54.0378 18.8893 53.7414C18.7387 53.4404 18.5929 53.1393 18.4518 52.8382C18.3106 52.5325 18.1742 52.2267 18.0425 51.9162C17.9484 51.6951 17.8543 51.4693 17.765 51.2435C17.7556 51.2153 17.7414 51.1824 17.7273 51.1541C17.6474 50.9425 17.5674 50.7355 17.4921 50.5238C17.4027 50.2792 17.3134 50.0346 17.2287 49.7899C17.1393 49.5171 17.0499 49.2396 16.9653 48.9667C16.8853 48.7127 16.81 48.4587 16.7395 48.2046C16.6736 47.9741 16.6124 47.7389 16.556 47.5037C16.5089 47.3297 16.4666 47.1509 16.4243 46.9674C16.3725 46.751 16.3208 46.5347 16.2784 46.3136C16.0432 45.1846 15.8692 44.0367 15.761 42.8701H36.0359C37.8564 42.8701 39.3288 44.3425 39.3288 46.163C39.3288 46.784 39.1548 47.372 38.8537 47.8659C38.2798 48.8209 37.2308 49.4559 36.0359 49.4559H35.288C33.4674 49.4559 31.995 50.9283 31.995 52.7489C31.995 53.6615 32.362 54.4894 32.9594 55.0821C33.5521 55.6795 34.3801 56.0418 35.288 56.0418L43.2427 56.0465C45.0632 56.0465 46.5356 57.5189 46.5356 59.3394Z" fill="#91AA55"/>
<path d="M46.5356 59.3394C46.5356 61.1599 45.0632 62.6323 43.2427 62.6323H25.6915C24.3884 61.4563 23.1889 60.1673 22.1022 58.7843C21.9187 58.5538 21.74 58.3186 21.5659 58.0787C21.5424 58.0504 21.5236 58.0222 21.5001 57.9893L21.246 57.6365C21.246 57.6365 21.2319 57.6177 21.2272 57.6082C21.1237 57.4671 21.0249 57.3213 20.9262 57.1802C20.738 56.9026 20.5545 56.6251 20.3758 56.3475C20.2064 56.0794 20.0418 55.8113 19.8818 55.5431C19.8677 55.5196 19.8583 55.5008 19.8442 55.482C19.6796 55.1997 19.5149 54.9128 19.3597 54.6258C19.1997 54.3342 19.0445 54.0378 18.8893 53.7414C18.7387 53.4404 18.5929 53.1393 18.4518 52.8382C18.3106 52.5325 18.1742 52.2267 18.0425 51.9162C17.9484 51.6951 17.8543 51.4693 17.765 51.2435C17.7556 51.2153 17.7414 51.1824 17.7273 51.1541C17.6474 50.9425 17.5674 50.7355 17.4921 50.5238C17.4027 50.2792 17.3134 50.0346 17.2287 49.7899C17.1393 49.5171 17.0499 49.2396 16.9653 48.9667C16.8853 48.7127 16.81 48.4587 16.7395 48.2046C16.6736 47.9741 16.6124 47.7389 16.556 47.5037C16.5089 47.3297 16.4666 47.1509 16.4243 46.9674C16.3725 46.751 16.3208 46.5347 16.2784 46.3136C16.0432 45.1846 15.8692 44.0367 15.761 42.8701H35.1515C36.2288 44.653 37.466 46.3277 38.8537 47.8659C38.2798 48.8209 37.2308 49.4559 36.0359 49.4559H35.288C33.4674 49.4559 31.995 50.9283 31.995 52.7489C31.995 53.6615 32.362 54.4894 32.9594 55.0821C33.5521 55.6795 34.3801 56.0418 35.288 56.0418L43.2427 56.0465C45.0632 56.0465 46.5356 57.5189 46.5356 59.3394Z" fill="#697F3E"/>
<path d="M76.5765 38.1613H65.1642C63.3437 38.1613 61.8712 36.6889 61.8712 34.8684C61.8712 33.0479 63.3437 31.5755 65.1642 31.5755H66.1238C67.9396 31.5755 69.412 30.0937 69.412 28.2826C69.412 27.37 69.0451 26.5468 68.4477 25.9493C67.8596 25.366 67.0411 24.9944 66.1473 24.985H59.9096C58.0891 24.985 56.6167 23.5126 56.6167 21.6921C56.6167 19.8716 58.0891 18.3992 59.9096 18.3992H67.7279C72.3992 23.0563 75.5556 29.214 76.3977 36.0821C76.4824 36.7689 76.5435 37.4604 76.5765 38.1613Z" fill="#91AA55"/>
<path d="M33.6228 24.2134C33.6228 25.9774 32.2304 27.4263 30.4804 27.4969C30.4287 27.5063 30.3816 27.5063 30.3299 27.5063H18.2966C19.3645 25.1307 20.724 22.9197 22.3422 20.9158H30.3299C30.3675 20.9158 30.4004 20.9158 30.4381 20.9205C31.3036 20.944 32.0892 21.3109 32.6584 21.8801C33.2559 22.4776 33.6228 23.3008 33.6228 24.2134Z" fill="#91AA55"/>
<path d="M30.3299 27.5063H18.2966C19.3645 25.1307 20.724 22.9197 22.3422 20.9158H30.3299C30.3675 20.9158 30.4004 20.9158 30.4381 20.9205V25.9022C30.4381 26.382 30.4475 26.8571 30.471 27.3322C30.471 27.3887 30.4757 27.4404 30.4804 27.4969C30.4287 27.5063 30.3816 27.5063 30.3299 27.5063Z" fill="#697F3E"/>
<path d="M38.3928 35.1272C37.2121 35.1272 36.2524 34.1675 36.2524 32.9868V29.9902C36.2524 28.8095 37.2121 27.8499 38.3928 27.8499C39.5736 27.8499 40.5332 28.8095 40.5332 29.9902V32.9868C40.5332 34.1675 39.5736 35.1272 38.3928 35.1272Z" fill="#3A4125"/>
<path d="M53.8555 35.1272C52.6747 35.1272 51.7151 34.1675 51.7151 32.9868V29.9902C51.7151 28.8095 52.6747 27.8499 53.8555 27.8499C55.0362 27.8499 55.9959 28.8095 55.9959 29.9902V32.9868C55.9959 34.1675 55.0362 35.1272 53.8555 35.1272Z" fill="#3A4125"/>
<path d="M44.8987 40.3958H49.0525C51.7809 40.3958 53.9918 42.6067 53.9918 45.3351" stroke="#1A1A12" stroke-width="3" stroke-miterlimit="10"/>
<path d="M47.3544 40.3958H43.2006C40.4722 40.3958 38.2612 42.6067 38.2612 45.3351" stroke="#1A1A12" stroke-width="3" stroke-miterlimit="10"/>
<path d="M66.8248 44.0461C67.6762 45.7866 66.9518 47.8847 65.2112 48.7361C63.4707 49.5876 61.3726 48.8632 60.5212 47.1226C59.6697 45.3821 60.6764 39.4548 60.6764 39.4548C60.6764 39.4548 65.9733 42.3056 66.8248 44.0461Z" fill="white"/>
<path d="M25.8469 44.0461C24.9955 45.7866 25.7199 47.8847 27.4605 48.7361C29.201 49.5876 31.2991 48.8632 32.1505 47.1226C33.002 45.3821 31.9953 39.4548 31.9953 39.4548C31.9953 39.4548 26.6984 42.3056 25.8469 44.0461Z" fill="white"/>
<path d="M76.1436 45.4199C80.1939 45.4199 83.421 48.6987 83.421 52.749C83.421 56.7993 80.1375 60.0828 76.0872 60.0828C69.9295 60.0828 63.9505 58.0083 59.1193 54.1932L57.2847 52.749" stroke="#3A4125" stroke-width="4" stroke-miterlimit="10"/>
<path d="M29.9395 59.7863H13.522C9.36818 59.7863 6 56.4182 6 52.2644C6 48.1106 9.36818 44.7424 13.522 44.7424H15.9352" stroke="#3A4125" stroke-width="3" stroke-miterlimit="10"/>
<path d="M24.8824 55.3645H28.4199C30.7626 55.3645 32.8606 56.804 33.698 58.9914L38.3175 71.0058H24.8777V55.3645H24.8824Z" fill="#EFC546"/>
<path opacity="0.3" d="M29.6382 71.0058V61.9597L32.9452 71.0058H29.6382Z" fill="#E07021"/>
<path d="M47.0861 15.1956H43.1534C38.2752 15.1956 34.3237 19.1471 34.3237 24.0253H38.2564C43.1346 24.0253 47.0861 20.0738 47.0861 15.1956Z" fill="#4E6021"/>
<path d="M45.1763 15.1956H49.1089C53.9872 15.1956 57.9387 19.1471 57.9387 24.0253H54.006C49.1278 24.0253 45.1763 20.0738 45.1763 15.1956Z" fill="#697F3E"/>
<path d="M87.2574 16.8704C90.9126 13.2153 90.9126 7.29272 87.2574 3.63759C83.6023 -0.0175429 77.6798 -0.0175429 74.0246 3.63759C70.7788 6.88346 70.4165 11.9216 72.9427 15.5673L70.887 20.0081L75.3277 17.9523C78.9734 20.4738 84.0116 20.1163 87.2574 16.8704Z" fill="#91AA55"/>
<g clip-path="url(#clip1_851_165)">
<path d="M80.6747 6.63276L78.5425 5.97801C78.0718 5.83467 77.5638 5.88163 77.1273 6.10881C76.6909 6.33598 76.361 6.72526 76.2085 7.19301L76.138 7.39513H74.875C74.3779 7.39573 73.9013 7.59346 73.5498 7.94496C73.1983 8.29647 73.0006 8.77303 73 9.27013V13.0201C73.0006 13.5172 73.1983 13.9938 73.5498 14.3453C73.9013 14.6968 74.3779 14.8945 74.875 14.8951H77.125C77.4091 14.8941 77.6892 14.8283 77.9439 14.7026C78.1987 14.5769 78.4214 14.3947 78.595 14.1699C78.6806 14.1823 78.7669 14.1888 78.8534 14.1894C79.256 14.1897 79.648 14.0597 79.9708 13.8189C80.2935 13.5781 80.5297 13.2394 80.644 12.8533L81.925 8.95363C82.0618 8.48012 82.0076 7.97182 81.7738 7.53789C81.54 7.10395 81.1455 6.77898 80.6747 6.63276ZM77.125 14.1451H74.875C74.5766 14.1451 74.2905 14.0266 74.0795 13.8156C73.8685 13.6046 73.75 13.3185 73.75 13.0201V9.27013C73.75 8.97176 73.8685 8.68561 74.0795 8.47464C74.2905 8.26366 74.5766 8.14513 74.875 8.14513H77.125C77.4234 8.14513 77.7095 8.26366 77.9205 8.47464C78.1315 8.68561 78.25 8.97176 78.25 9.27013V13.0201C78.25 13.3185 78.1315 13.6046 77.9205 13.8156C77.7095 14.0266 77.4234 14.1451 77.125 14.1451ZM81.2076 8.73126L79.9281 12.6313C79.8645 12.847 79.7376 13.0387 79.5637 13.1814C79.3899 13.3241 79.1771 13.4112 78.9531 13.4315C78.9839 13.2965 78.9996 13.1586 79 13.0201V9.27013C78.9994 8.77303 78.8017 8.29647 78.4502 7.94496C78.0987 7.59346 77.6221 7.39573 77.125 7.39513H76.9349C77.0317 7.12235 77.2299 6.89737 77.4883 6.76697C77.7467 6.63658 78.0454 6.6108 78.3224 6.69501L80.4546 7.34976C80.7355 7.43642 80.9714 7.62934 81.112 7.8874C81.2527 8.14547 81.287 8.44826 81.2076 8.73126ZM77.5 10.7701C77.5 11.3139 76.921 12.0418 76.4823 12.4119C76.3474 12.5259 76.1766 12.5885 76 12.5885C75.8234 12.5885 75.6526 12.5259 75.5178 12.4119C75.079 12.0418 74.5 11.3139 74.5 10.7701C74.5 10.5712 74.579 10.3805 74.7197 10.2398C74.8603 10.0991 75.0511 10.0201 75.25 10.0201C75.4489 10.0201 75.6397 10.0991 75.7803 10.2398C75.921 10.3805 76 10.5712 76 10.7701C76 10.5712 76.079 10.3805 76.2197 10.2398C76.3603 10.0991 76.5511 10.0201 76.75 10.0201C76.9489 10.0201 77.1397 10.0991 77.2803 10.2398C77.421 10.3805 77.5 10.5712 77.5 10.7701Z" fill="#FAFAFA"/>
</g>
<path d="M85.1472 13.6991C84.3139 13.6991 83.6772 13.3858 83.2372 12.7591C82.7972 12.1258 82.5772 11.2258 82.5772 10.0591C82.5772 9.27245 82.6739 8.61245 82.8672 8.07912C83.0672 7.53912 83.3572 7.13245 83.7372 6.85912C84.1239 6.58579 84.5939 6.44912 85.1472 6.44912C85.9872 6.44912 86.6239 6.75579 87.0572 7.36912C87.4972 7.98245 87.7172 8.87579 87.7172 10.0491C87.7172 10.8291 87.6172 11.4925 87.4172 12.0391C87.2239 12.5791 86.9372 12.9925 86.5572 13.2791C86.1772 13.5591 85.7072 13.6991 85.1472 13.6991ZM85.1472 12.6491C85.6006 12.6491 85.9339 12.4391 86.1472 12.0191C86.3672 11.5991 86.4772 10.9425 86.4772 10.0491C86.4772 9.15579 86.3672 8.50912 86.1472 8.10912C85.9339 7.70245 85.6006 7.49912 85.1472 7.49912C84.7006 7.49912 84.3672 7.70245 84.1472 8.10912C83.9272 8.50912 83.8172 9.15579 83.8172 10.0491C83.8172 10.9425 83.9272 11.5991 84.1472 12.0191C84.3672 12.4391 84.7006 12.6491 85.1472 12.6491Z" fill="#A92420"/>
</g>
<defs>
<clipPath id="clip0_851_165">
<rect width="90" height="94.2102" fill="white" transform="translate(0 0.89502)"/>
</clipPath>
<clipPath id="clip1_851_165">
<rect width="9" height="9" fill="white" transform="translate(73 5.89502)"/>
</clipPath>
</defs>
</svg>
