<svg width="26" height="24" viewBox="0 0 26 24" fill="none" xmlns="http://www.w3.org/2000/svg">
<path fill-rule="evenodd" clip-rule="evenodd" d="M19.4752 12.3084C18.3352 12.3084 17.2652 12.5384 16.3652 12.9284C19.5152 13.8384 21.7452 16.0184 21.8052 18.5684C23.4452 18.3584 25.2152 17.7384 25.2152 16.0484C25.2152 14.0184 22.5852 12.3084 19.4752 12.3084Z" fill="#262626"/>
<path fill-rule="evenodd" clip-rule="evenodd" d="M19.4452 10.8684H19.4652C21.5951 10.8684 23.3352 9.12843 23.3352 7.00843C23.3352 4.87843 21.5951 3.13843 19.4652 3.13843C19.0452 3.13843 18.6452 3.20843 18.2652 3.32843C18.9552 4.34843 19.3552 5.57843 19.3552 6.90843C19.3652 8.25843 18.9452 9.55843 18.1552 10.6384C18.5652 10.7884 18.9952 10.8684 19.4452 10.8684Z" fill="#262626"/>
<path fill-rule="evenodd" clip-rule="evenodd" d="M9.62516 12.9184C8.72516 12.5384 7.65516 12.3084 6.52516 12.3084C3.41516 12.3084 0.785156 14.0184 0.785156 16.0484C0.785156 17.7384 2.54516 18.3484 4.18516 18.5684C4.23516 16.0184 6.46516 13.8384 9.62516 12.9184Z" fill="#262626"/>
<path fill-rule="evenodd" clip-rule="evenodd" d="M6.52516 10.8684H6.55516C7.00516 10.8684 7.43516 10.7884 7.84516 10.6384C7.08516 9.59843 6.63516 8.30843 6.63516 6.90843C6.63516 5.57843 7.03516 4.34843 7.72516 3.32843C7.34516 3.20843 6.94516 3.13843 6.52516 3.13843C4.39516 3.13843 2.66516 4.87843 2.66516 7.00843C2.66516 9.12843 4.39516 10.8684 6.52516 10.8684Z" fill="#262626"/>
<path fill-rule="evenodd" clip-rule="evenodd" d="M12.9948 13.9454C9.03377 13.9454 5.68677 16.1014 5.68677 18.6534C5.68677 21.9534 11.1868 21.9534 12.9948 21.9534C16.1328 21.9534 20.3048 21.6134 20.3048 18.6744C20.3048 16.1104 16.9568 13.9454 12.9948 13.9454Z" fill="#262626"/>
<path fill-rule="evenodd" clip-rule="evenodd" d="M12.9958 11.7745H13.0288C14.3238 11.7705 15.5398 11.2615 16.4518 10.3425C17.3648 9.42351 17.8648 8.20451 17.8598 6.91151C17.8598 4.22851 15.6788 2.04651 12.9958 2.04651C10.3138 2.04651 8.13275 4.22851 8.13275 6.91151C8.13275 9.59251 10.3138 11.7745 12.9958 11.7745Z" fill="#262626"/>
</svg>
