<svg width="86" height="95" viewBox="0 0 86 95" fill="none" xmlns="http://www.w3.org/2000/svg">
<path d="M50.4058 61.0188L56.2437 89.3096L47.6116 93.4069" stroke="#3A4125" stroke-width="3" stroke-miterlimit="10"/>
<path d="M33.8567 61.0188L28.0188 89.3096L36.6462 93.4069" stroke="#3A4125" stroke-width="3" stroke-miterlimit="10"/>
<path d="M72.6235 39.9018V40.1653C72.6235 40.2641 72.6235 40.3628 72.6141 40.4616V40.5087C72.6141 40.5369 72.6141 40.5604 72.6141 40.5839C72.6141 40.6733 72.6141 40.758 72.6141 40.8474C72.6141 40.8944 72.6141 40.9367 72.6141 40.9791C72.6141 41.2002 72.6141 41.4307 72.5953 41.6518C72.5953 41.6706 72.5953 41.6988 72.5953 41.7176C72.5765 42.0987 72.5483 42.4797 72.5059 42.8655C72.0684 47.6637 70.5019 52.1468 68.0934 56.0371C67.3643 57.2131 66.5599 58.328 65.6849 59.3959C60.0916 66.1793 51.6241 70.5024 42.1453 70.5024C41.8019 70.5024 41.4632 70.5024 41.1198 70.4789C40.7905 70.4695 40.4612 70.4601 40.1366 70.4318H40.0943C39.7603 70.413 39.431 70.3848 39.1017 70.3472C38.81 70.3236 38.5184 70.286 38.2314 70.2484C38.1467 70.2484 38.0621 70.2248 37.9821 70.2154C37.3611 70.1308 36.7496 70.032 36.1428 69.9097C35.8182 69.8438 35.4983 69.7732 35.1784 69.698C34.8585 69.6274 34.5386 69.5427 34.2235 69.4628C33.9365 69.3828 33.6496 69.3028 33.3673 69.2182C33.3061 69.204 33.2497 69.1852 33.1932 69.1664C32.911 69.0817 32.6335 68.9924 32.3559 68.8936C32.3371 68.8936 32.323 68.8842 32.3089 68.8842C32.0172 68.776 31.7255 68.6772 31.4386 68.569C31.1752 68.4702 30.9164 68.3667 30.6577 68.2632C30.0838 68.0327 29.5193 67.7787 28.9642 67.5105C28.8184 67.4447 28.6725 67.3741 28.5267 67.2942C28.0845 67.0731 27.6517 66.8473 27.2237 66.6026C27.1061 66.5415 26.9885 66.4709 26.8756 66.4051C26.6968 66.3063 26.5275 66.2075 26.3534 66.0899C25.8453 65.7935 25.342 65.4642 24.8528 65.1302C24.7352 65.0409 24.6176 64.9656 24.5 64.8762C23.5215 64.1894 22.5854 63.4367 21.701 62.6323C21.367 62.3313 21.0518 62.0302 20.7319 61.7103C20.5391 61.5222 20.3462 61.3293 20.1627 61.1317C19.9228 60.8871 19.6923 60.6331 19.4665 60.3837C19.4148 60.3273 19.363 60.2708 19.316 60.2191C19.1654 60.0545 19.0196 59.8804 18.8832 59.711C18.7891 59.6029 18.695 59.4947 18.6056 59.3865C18.441 59.1889 18.2811 58.9866 18.1258 58.789C18.0835 58.742 18.0459 58.6902 18.0035 58.6338C17.8577 58.4456 17.7213 58.2669 17.5895 58.074C17.4766 57.9282 17.3732 57.7823 17.2697 57.6318C17.2603 57.6318 17.2508 57.6224 17.2508 57.6036C17.0674 57.359 16.8933 57.1049 16.724 56.8415C16.5452 56.5828 16.3759 56.3099 16.2065 56.0371C13.7886 52.1515 12.2268 47.6637 11.7846 42.8655C11.6952 41.9246 11.6482 40.965 11.6482 40.0006C11.6482 37.3145 11.9916 34.7131 12.6455 32.2388C13.0736 30.6017 13.6381 29.0164 14.3202 27.5017C15.388 25.1261 16.7475 22.9151 18.3657 20.9111C19.3912 19.6269 20.5249 18.4226 21.748 17.3219C22.369 16.7668 23.0134 16.2258 23.6814 15.7272C28.809 11.818 35.2066 9.49414 42.15 9.49414C42.8791 9.49414 43.6036 9.52237 44.3233 9.57411C45.043 9.62115 45.7534 9.70112 46.4543 9.79521C47.1599 9.89399 47.8561 10.0163 48.5429 10.1668C48.9381 10.2515 49.3285 10.3409 49.7143 10.4397C49.9306 10.4961 50.1423 10.5526 50.354 10.6137C50.514 10.6561 50.6739 10.7031 50.8338 10.7502C51.0173 10.7972 51.2008 10.8536 51.3842 10.9195C51.5677 10.976 51.7512 11.0371 51.9346 11.0983C52.1181 11.15 52.2968 11.2159 52.4756 11.2864C63.1117 15.1156 71.01 24.6933 72.4212 36.2796C72.5671 37.4651 72.6423 38.6787 72.647 39.9018H72.6235Z" fill="#679CF1"/>
<path d="M66.207 58.7797C60.6185 65.9159 51.9252 70.5024 42.1546 70.5024C36.5614 70.5024 31.321 68.9971 26.8144 66.3722C23.4462 64.4153 20.492 61.828 18.1023 58.7797C16.4652 56.691 15.0963 54.386 14.0426 51.9116C12.4808 48.2423 11.6152 44.2062 11.6152 39.963C11.6152 36.9288 12.0574 33.9982 12.8854 31.2321C13.2711 29.9243 13.7462 28.6589 14.2966 27.4311C16.8651 21.7344 21.1223 16.9644 26.438 13.7703V25.8976C26.438 26.3774 26.4475 26.8525 26.471 27.3277C26.5509 29.2328 26.7909 31.091 27.186 32.8974C30.3942 47.692 43.5612 58.7797 59.3201 58.7797H66.207Z" fill="#5178FF"/>
<path opacity="0.5" d="M72.6235 39.9018C72.6235 40.4334 72.6047 40.9603 72.5765 41.4824C72.5765 41.5342 72.5765 41.5906 72.5765 41.6518C72.5765 41.6706 72.5765 41.6941 72.5765 41.7129C72.5577 42.0987 72.5294 42.4797 72.4871 42.8607H63.982C51.9723 42.8607 42.2205 33.1514 42.1735 21.1416L42.1265 9.49414C42.8556 9.49414 43.58 9.51766 44.2998 9.56941C45.0195 9.62115 45.7298 9.69642 46.4308 9.79521C47.1364 9.89399 47.8326 10.0163 48.5194 10.1621C61.1077 12.8247 70.8218 23.2068 72.3977 36.0821C72.5483 37.291 72.6235 38.5235 72.6235 39.7748V39.9018Z" fill="#A6D7FF"/>
<path d="M42.5356 59.3394C42.5356 61.1599 41.0632 62.6323 39.2427 62.6323H21.6774C21.3434 62.3359 21.0282 62.0349 20.7083 61.715C20.5154 61.5268 20.3226 61.3339 20.1391 61.1364C19.8992 60.8918 19.6687 60.6377 19.4429 60.3884C19.3911 60.332 19.3394 60.2755 19.2923 60.2238C19.1418 60.0591 18.996 59.8851 18.8596 59.7157C18.7655 59.6075 18.6714 59.4993 18.582 59.3911C18.4174 59.1936 18.2574 58.9913 18.1022 58.7937C18.0599 58.7467 18.0222 58.6949 17.9799 58.6385C17.8341 58.4503 17.6976 58.2715 17.5659 58.0787C17.5424 58.0504 17.5236 58.0222 17.5001 57.9893L17.246 57.6365C17.246 57.6365 17.2319 57.6177 17.2272 57.6082C17.1237 57.4671 17.0249 57.3213 16.9262 57.1802C16.8462 57.072 16.7709 56.9591 16.7004 56.8462C16.5875 56.6862 16.4793 56.5169 16.3758 56.3475C16.3099 56.244 16.2441 56.1453 16.1829 56.0418C16.0794 55.8771 15.9806 55.7125 15.8818 55.5431C15.8677 55.5196 15.8583 55.5008 15.8442 55.482C15.6796 55.1997 15.5149 54.9128 15.3597 54.6258C15.1997 54.3342 15.0445 54.0378 14.8893 53.7414C14.7387 53.4404 14.5929 53.1393 14.4518 52.8382C14.3106 52.5325 14.1742 52.2267 14.0425 51.9162C13.9484 51.6951 13.8543 51.4693 13.765 51.2435C13.7556 51.2153 13.7414 51.1824 13.7273 51.1541C13.6474 50.9425 13.5674 50.7355 13.4921 50.5238C13.4027 50.2792 13.3134 50.0346 13.2287 49.7899C13.1393 49.5171 13.0499 49.2396 12.9653 48.9667C12.8853 48.7127 12.81 48.4587 12.7395 48.2046C12.6736 47.9741 12.6124 47.7389 12.556 47.5037C12.5089 47.3297 12.4666 47.1509 12.4243 46.9674C12.3725 46.751 12.3208 46.5347 12.2784 46.3136C12.0432 45.1846 11.8692 44.0367 11.761 42.8701H32.0359C33.8564 42.8701 35.3288 44.3425 35.3288 46.163C35.3288 46.784 35.1548 47.372 34.8537 47.8659C34.2798 48.8209 33.2308 49.4559 32.0359 49.4559H31.288C29.4674 49.4559 27.995 50.9283 27.995 52.7489C27.995 53.6615 28.362 54.4894 28.9594 55.0821C29.5521 55.6795 30.3801 56.0418 31.288 56.0418L39.2427 56.0465C41.0632 56.0465 42.5356 57.5189 42.5356 59.3394Z" fill="#91AA55"/>
<path d="M42.5356 59.3394C42.5356 61.1599 41.0632 62.6323 39.2427 62.6323H21.6915C20.3884 61.4563 19.1889 60.1673 18.1022 58.7843C17.9187 58.5538 17.74 58.3186 17.5659 58.0787C17.5424 58.0504 17.5236 58.0222 17.5001 57.9893L17.246 57.6365C17.246 57.6365 17.2319 57.6177 17.2272 57.6082C17.1237 57.4671 17.0249 57.3213 16.9262 57.1802C16.738 56.9026 16.5545 56.6251 16.3758 56.3475C16.2064 56.0794 16.0418 55.8113 15.8818 55.5431C15.8677 55.5196 15.8583 55.5008 15.8442 55.482C15.6796 55.1997 15.5149 54.9128 15.3597 54.6258C15.1997 54.3342 15.0445 54.0378 14.8893 53.7414C14.7387 53.4404 14.5929 53.1393 14.4518 52.8382C14.3106 52.5325 14.1742 52.2267 14.0425 51.9162C13.9484 51.6951 13.8543 51.4693 13.765 51.2435C13.7556 51.2153 13.7414 51.1824 13.7273 51.1541C13.6474 50.9425 13.5674 50.7355 13.4921 50.5238C13.4027 50.2792 13.3134 50.0346 13.2287 49.7899C13.1393 49.5171 13.0499 49.2396 12.9653 48.9667C12.8853 48.7127 12.81 48.4587 12.7395 48.2046C12.6736 47.9741 12.6124 47.7389 12.556 47.5037C12.5089 47.3297 12.4666 47.1509 12.4243 46.9674C12.3725 46.751 12.3208 46.5347 12.2784 46.3136C12.0432 45.1846 11.8692 44.0367 11.761 42.8701H31.1515C32.2288 44.653 33.466 46.3277 34.8537 47.8659C34.2798 48.8209 33.2308 49.4559 32.0359 49.4559H31.288C29.4674 49.4559 27.995 50.9283 27.995 52.7489C27.995 53.6615 28.362 54.4894 28.9594 55.0821C29.5521 55.6795 30.3801 56.0418 31.288 56.0418L39.2427 56.0465C41.0632 56.0465 42.5356 57.5189 42.5356 59.3394Z" fill="#697F3E"/>
<path d="M72.5765 38.1613H61.1642C59.3437 38.1613 57.8712 36.6889 57.8712 34.8684C57.8712 33.0479 59.3437 31.5755 61.1642 31.5755H62.1238C63.9396 31.5755 65.412 30.0937 65.412 28.2826C65.412 27.37 65.0451 26.5468 64.4477 25.9493C63.8596 25.366 63.0411 24.9944 62.1473 24.985H55.9096C54.0891 24.985 52.6167 23.5126 52.6167 21.6921C52.6167 19.8716 54.0891 18.3992 55.9096 18.3992H63.7279C68.3992 23.0563 71.5556 29.214 72.3977 36.0821C72.4824 36.7689 72.5435 37.4604 72.5765 38.1613Z" fill="#91AA55"/>
<path d="M29.6228 24.2134C29.6228 25.9774 28.2304 27.4263 26.4804 27.4969C26.4287 27.5063 26.3816 27.5063 26.3299 27.5063H14.2966C15.3645 25.1307 16.724 22.9197 18.3422 20.9158H26.3299C26.3675 20.9158 26.4004 20.9158 26.4381 20.9205C27.3036 20.944 28.0892 21.3109 28.6584 21.8801C29.2559 22.4776 29.6228 23.3008 29.6228 24.2134Z" fill="#91AA55"/>
<path d="M26.3299 27.5063H14.2966C15.3645 25.1307 16.724 22.9197 18.3422 20.9158H26.3299C26.3675 20.9158 26.4004 20.9158 26.4381 20.9205V25.9022C26.4381 26.382 26.4475 26.8571 26.471 27.3322C26.471 27.3887 26.4757 27.4404 26.4804 27.4969C26.4287 27.5063 26.3816 27.5063 26.3299 27.5063Z" fill="#697F3E"/>
<path d="M34.3928 35.1272C33.2121 35.1272 32.2524 34.1675 32.2524 32.9868V29.9902C32.2524 28.8095 33.2121 27.8499 34.3928 27.8499C35.5736 27.8499 36.5332 28.8095 36.5332 29.9902V32.9868C36.5332 34.1675 35.5736 35.1272 34.3928 35.1272Z" fill="#3A4125"/>
<path d="M49.8555 35.1272C48.6747 35.1272 47.7151 34.1675 47.7151 32.9868V29.9902C47.7151 28.8095 48.6747 27.8499 49.8555 27.8499C51.0362 27.8499 51.9959 28.8095 51.9959 29.9902V32.9868C51.9959 34.1675 51.0362 35.1272 49.8555 35.1272Z" fill="#3A4125"/>
<path d="M40.8987 40.3958H45.0525C47.7809 40.3958 49.9918 42.6067 49.9918 45.3351" stroke="#1A1A12" stroke-width="3" stroke-miterlimit="10"/>
<path d="M43.3544 40.3958H39.2006C36.4722 40.3958 34.2612 42.6067 34.2612 45.3351" stroke="#1A1A12" stroke-width="3" stroke-miterlimit="10"/>
<path d="M62.8248 44.0461C63.6762 45.7866 62.9518 47.8847 61.2112 48.7361C59.4707 49.5876 57.3726 48.8632 56.5212 47.1226C55.6697 45.3821 56.6764 39.4548 56.6764 39.4548C56.6764 39.4548 61.9733 42.3056 62.8248 44.0461Z" fill="white"/>
<path d="M21.8469 44.0461C20.9955 45.7866 21.7199 47.8847 23.4605 48.7361C25.201 49.5876 27.2991 48.8632 28.1505 47.1226C29.002 45.3821 27.9953 39.4548 27.9953 39.4548C27.9953 39.4548 22.6984 42.3056 21.8469 44.0461Z" fill="white"/>
<path d="M72.1436 45.4199C76.1939 45.4199 79.421 48.6987 79.421 52.749C79.421 56.7993 76.1375 60.0828 72.0872 60.0828C65.9295 60.0828 59.9505 58.0083 55.1193 54.1932L53.2847 52.749" stroke="#3A4125" stroke-width="4" stroke-miterlimit="10"/>
<path d="M25.9395 59.7863H9.52195C5.36818 59.7863 2 56.4182 2 52.2644C2 48.1106 5.36818 44.7424 9.52195 44.7424H11.9352" stroke="#3A4125" stroke-width="3" stroke-miterlimit="10"/>
<path d="M20.8824 55.3645H24.4199C26.7626 55.3645 28.8606 56.804 29.698 58.9914L34.3175 71.0058H20.8777V55.3645H20.8824Z" fill="#EFC546"/>
<path opacity="0.3" d="M25.6382 71.0058V61.9597L28.9452 71.0058H25.6382Z" fill="#E07021"/>
<path d="M43.0861 15.1956H39.1534C34.2752 15.1956 30.3237 19.1471 30.3237 24.0253H34.2564C39.1346 24.0253 43.0861 20.0738 43.0861 15.1956Z" fill="#4E6021"/>
<path d="M41.1763 15.1956H45.1089C49.9872 15.1956 53.9387 19.1471 53.9387 24.0253H50.006C45.1278 24.0253 41.1763 20.0738 41.1763 15.1956Z" fill="#697F3E"/>
<path d="M83.2574 16.8704C86.9126 13.2153 86.9126 7.29272 83.2574 3.63759C79.6023 -0.0175429 73.6798 -0.0175429 70.0246 3.63759C66.7788 6.88346 66.4165 11.9216 68.9427 15.5673L66.887 20.0081L71.3277 17.9523C74.9734 20.4738 80.0116 20.1163 83.2574 16.8704Z" fill="#91AA55"/>
<path fill-rule="evenodd" clip-rule="evenodd" d="M76.9582 9.17341C76.9582 9.04358 76.8528 8.9382 76.723 8.9382H70.5154C70.3851 8.9382 70.2802 9.04358 70.2802 9.17341C70.2802 9.64242 70.2717 10.0794 70.2637 10.4845C70.2289 12.2481 70.2058 13.4133 70.9185 14.1401C71.4247 14.6561 72.2559 14.8866 73.614 14.8866C74.9735 14.8866 75.8061 14.6556 76.3137 14.1387C77.0297 13.4086 77.0071 12.2377 76.9737 10.4642C76.9662 10.0648 76.9582 9.63442 76.9582 9.17341Z" fill="#FAFAFA"/>
<path fill-rule="evenodd" clip-rule="evenodd" d="M77.4173 7.37491H75.4693C75.45 7.06726 75.3649 6.63354 75.0586 6.28167C74.735 5.90957 74.2505 5.72046 73.6182 5.72046C72.9865 5.72046 72.5019 5.90957 72.1783 6.28167C71.8721 6.63354 71.7864 7.06726 71.7671 7.37491H69.8201C69.6253 7.37491 69.4673 7.53297 69.4673 7.72772C69.4673 7.92248 69.6253 8.08054 69.8201 8.08054H77.4173C77.6121 8.08054 77.7701 7.92248 77.7701 7.72772C77.7701 7.53297 77.6121 7.37491 77.4173 7.37491Z" fill="#FAFAFA"/>
</svg>
