<svg width="20" height="20" viewBox="0 0 20 20" fill="none" xmlns="http://www.w3.org/2000/svg">
<path fill-rule="evenodd" clip-rule="evenodd" d="M14.0905 7.09675C14.3834 7.38964 14.3834 7.86451 14.0905 8.15741L9.34452 12.9034C9.05167 13.1963 8.57688 13.1963 8.28397 12.9035L5.90997 10.5305C5.61701 10.2377 5.61691 9.76281 5.90974 9.46986C6.20258 9.1769 6.67745 9.1768 6.9704 9.46963L8.81407 11.3125L13.0299 7.09675C13.3227 6.80385 13.7976 6.80385 14.0905 7.09675Z" fill="#A3A3A3"/>
<path fill-rule="evenodd" clip-rule="evenodd" d="M2.24308 2.24342C3.91086 0.57564 6.48969 0.00012207 9.99979 0.00012207C13.5099 0.00012207 16.0887 0.57564 17.7565 2.24342C19.4243 3.91119 19.9998 6.49002 19.9998 10.0001C19.9998 13.5102 19.4243 16.0891 17.7565 17.7568C16.0887 19.4246 13.5099 20.0001 9.99979 20.0001C6.48969 20.0001 3.91086 19.4246 2.24308 17.7568C0.575304 16.0891 -0.000213623 13.5102 -0.000213623 10.0001C-0.000213623 6.49002 0.575304 3.91119 2.24308 2.24342ZM3.30374 3.30408C2.08077 4.52705 1.49979 6.57322 1.49979 10.0001C1.49979 13.427 2.08077 15.4732 3.30374 16.6962C4.52671 17.9191 6.57289 18.5001 9.99979 18.5001C13.4267 18.5001 15.4729 17.9191 16.6958 16.6962C17.9188 15.4732 18.4998 13.427 18.4998 10.0001C18.4998 6.57322 17.9188 4.52705 16.6958 3.30408C15.4729 2.0811 13.4267 1.50012 9.99979 1.50012C6.57289 1.50012 4.52671 2.0811 3.30374 3.30408Z" fill="#A3A3A3"/>
</svg>
