<svg width="20" height="20" viewBox="0 0 20 20" fill="none" xmlns="http://www.w3.org/2000/svg">
<path fill-rule="evenodd" clip-rule="evenodd" d="M15.916 7.99801C15.916 7.76801 15.7293 7.58134 15.4993 7.58134H4.50266C4.27183 7.58134 4.08599 7.76801 4.08599 7.99801C4.08599 8.82884 4.07099 9.60301 4.05683 10.3205C3.99516 13.4447 3.95433 15.5088 5.21683 16.7963C6.11349 17.7105 7.58599 18.1188 9.99183 18.1188C12.4002 18.1188 13.8752 17.7097 14.7743 16.7938C16.0427 15.5005 16.0027 13.4263 15.9435 10.2847C15.9302 9.57717 15.916 8.81467 15.916 7.99801Z" fill="#7F1B18"/>
<path fill-rule="evenodd" clip-rule="evenodd" d="M16.7293 4.812H13.2785C13.2443 4.267 13.0935 3.49866 12.551 2.87533C11.9777 2.21616 11.1193 1.88116 9.99933 1.88116C8.88016 1.88116 8.02183 2.21616 7.4485 2.87533C6.906 3.49866 6.75433 4.267 6.72016 4.812H3.271C2.926 4.812 2.646 5.092 2.646 5.437C2.646 5.782 2.926 6.062 3.271 6.062H16.7293C17.0743 6.062 17.3543 5.782 17.3543 5.437C17.3543 5.092 17.0743 4.812 16.7293 4.812Z" fill="#7F1B18"/>
</svg>
