<svg width="24" height="25" viewBox="0 0 24 25" fill="none" xmlns="http://www.w3.org/2000/svg">
<path fill-rule="evenodd" clip-rule="evenodd" d="M13.0149 3.55444L14.9271 5.43134C15.0974 5.59926 15.3226 5.6838 15.5466 5.6838C15.7694 5.6838 15.9934 5.59926 16.1638 5.43362C16.5068 5.09891 16.5068 4.55629 16.1661 4.22158L12.7594 0.876743C12.4316 0.553455 11.8483 0.553455 11.5204 0.876743L8.11377 4.22158C7.7731 4.55629 7.7731 5.09891 8.1161 5.43362C8.4591 5.76719 9.0121 5.76719 9.35277 5.43134L11.2649 3.55444V6.96781C11.8599 6.95639 12.4433 6.95639 13.0149 6.96781V3.55444Z" fill="#404040"/>
<path fill-rule="evenodd" clip-rule="evenodd" d="M17.1333 7.11611C15.8267 7.02472 14.4499 6.97924 13.0149 6.96781L13.015 15.2383C13.015 15.7067 12.6183 16.0951 12.14 16.0951C11.6617 16.0951 11.265 15.7067 11.265 15.2383L11.2649 6.96781C9.85327 6.97924 8.38333 7.03615 6.86667 7.11611H6.84333C2.14167 7.53878 0.625 9.6293 0.625 15.6838C0.625 24.3658 3.95 24.3658 12 24.3658C20.05 24.3658 23.375 24.3658 23.375 15.6838C23.375 9.6293 21.8583 7.53878 17.1333 7.11611Z" fill="#404040"/>
</svg>
