<svg width="61" height="61" viewBox="0 0 61 61" fill="none" xmlns="http://www.w3.org/2000/svg">
<path d="M30.485 60.97C47.3214 60.97 60.97 47.3214 60.97 30.485C60.97 13.6486 47.3214 0 30.485 0C13.6486 0 0 13.6486 0 30.485C0 47.3214 13.6486 60.97 30.485 60.97Z" fill="#EBE869"/>
<path d="M9.52182 28.7416C11.0978 28.7416 12.3753 27.4641 12.3753 25.8881C12.3753 24.3122 11.0978 23.0346 9.52182 23.0346C7.94588 23.0346 6.66833 24.3122 6.66833 25.8881C6.66833 27.4641 7.94588 28.7416 9.52182 28.7416Z" fill="#BFB942"/>
<path d="M16.6985 24.0427C17.5629 24.0427 18.2637 23.3419 18.2637 22.4775C18.2637 21.613 17.5629 20.9123 16.6985 20.9123C15.8341 20.9123 15.1333 21.613 15.1333 22.4775C15.1333 23.3419 15.8341 24.0427 16.6985 24.0427Z" fill="#BFB942"/>
<path d="M49.4595 36.1037C50.3239 36.1037 51.0247 35.4029 51.0247 34.5385C51.0247 33.674 50.3239 32.9733 49.4595 32.9733C48.5951 32.9733 47.8943 33.674 47.8943 34.5385C47.8943 35.4029 48.5951 36.1037 49.4595 36.1037Z" fill="#BFB942"/>
<path fill-rule="evenodd" clip-rule="evenodd" d="M24.8196 14.032C25.2552 14.2062 25.5157 14.5431 25.7437 14.9417C26.4065 16.1009 27.1026 17.2411 27.774 18.3956C29.0602 20.6077 29.242 22.9165 28.322 25.3004C25.771 31.9105 23.2106 38.517 20.6534 45.1249C20.327 45.968 19.7595 46.2219 18.9253 45.9017C18.6564 45.7983 18.3875 45.6944 18.1198 45.5882C17.3847 45.2967 17.1208 44.6996 17.4071 43.9569C18.3015 41.6369 19.199 39.3184 20.0953 36.9992C21.765 32.6797 23.4329 28.3595 25.1052 24.041C25.6306 22.6844 25.5282 21.3837 24.7888 20.1319C24.0717 18.9176 23.3539 17.7037 22.6383 16.4884C22.2031 15.7492 22.3607 15.131 23.0956 14.6961C23.4754 14.4713 23.8591 14.2533 24.2413 14.0322C24.4341 14.032 24.6269 14.032 24.8196 14.032ZM22.053 34.6551C21.6364 35.7147 21.2159 36.7728 20.8034 37.834C19.981 39.9495 19.1628 42.0667 18.3434 44.1835C18.1982 44.5587 18.2178 44.5984 18.5979 44.7453C18.8067 44.8258 19.0148 44.9086 19.2236 44.989C19.5983 45.1333 19.6308 45.1189 19.7809 44.7312C20.5314 42.7929 21.284 40.8552 22.0305 38.9154C22.4933 37.7127 22.9467 36.5067 23.4044 35.302C23.8637 34.1315 24.3265 32.9625 24.7817 31.7904C25.5887 29.7127 26.3873 27.6316 27.2014 25.5567C27.2903 25.3302 27.2523 25.2412 27.0283 25.1697C26.7241 25.0726 26.4248 24.9559 26.1326 24.8265C25.9359 24.7395 25.8538 24.7578 25.7682 24.983C24.9907 27.0257 24.1941 29.0613 23.4079 31.1008C22.952 32.2838 22.5043 33.4703 22.053 34.6551ZM26.7173 18.5085C26.7064 18.485 26.6958 18.4551 26.68 18.4284C26.0297 17.3262 25.3796 16.2238 24.7268 15.123C24.65 14.9935 24.5413 14.959 24.4012 15.0435C24.109 15.2198 23.8145 15.392 23.519 15.5626C23.356 15.6566 23.3326 15.776 23.4265 15.935C24.0666 17.0184 24.7057 18.1022 25.3421 19.1876C25.4039 19.2931 25.4564 19.3102 25.5659 19.2428C25.9106 19.0303 26.2634 18.8311 26.6117 18.624C26.6546 18.5984 26.713 18.5805 26.7173 18.5085ZM26.6198 21.4918C26.9998 21.461 27.3299 21.4289 27.6607 21.4096C27.8207 21.4003 27.8604 21.33 27.8296 21.1829C27.7128 20.6285 27.5499 20.0897 27.3166 19.5721C27.251 19.4264 27.1939 19.3786 27.0366 19.4811C26.7238 19.6847 26.3989 19.8707 26.0714 20.0499C25.9314 20.1265 25.8949 20.1936 25.9706 20.3468C26.0978 20.6046 26.1957 20.8784 26.2407 21.1634C26.2815 21.4219 26.3696 21.5863 26.6198 21.4918ZM27.622 24.3783C27.8316 23.769 27.9106 23.1492 27.9295 22.518C27.9344 22.3491 27.864 22.3295 27.7158 22.3474C27.3451 22.3921 26.9726 22.4301 26.6 22.4475C26.429 22.4554 26.3773 22.5231 26.3768 22.6781C26.3757 22.9996 26.3289 23.3158 26.2404 23.6248C26.1982 23.7722 26.2315 23.857 26.3886 23.9126C26.7988 24.0574 27.2033 24.2189 27.622 24.3783Z" fill="#090909"/>
<path fill-rule="evenodd" clip-rule="evenodd" d="M39.9147 33.1149C40.2081 33.3003 40.2497 33.5454 40.1273 33.8611C38.5441 37.9465 36.9633 42.0331 35.3902 46.1225C35.2276 46.5457 34.9184 46.7782 34.5245 46.9381C34.3316 46.9381 34.1388 46.9381 33.9459 46.9381C33.6495 46.7228 33.2907 46.6508 32.9602 46.5158C32.1446 46.1829 31.8815 45.6187 32.1955 44.8057C34.7556 38.1773 37.3169 31.5493 39.8784 24.9215C40.3978 23.5774 40.2963 22.285 39.5638 21.043C38.8475 19.8284 38.1312 18.6136 37.4157 17.3984C36.969 16.6399 37.1248 16.0299 37.8773 15.5857C38.1716 15.4118 38.4603 15.227 38.7624 15.0677C39.3015 14.7832 39.9467 14.9223 40.2609 15.4441C41.1476 16.9174 42.086 18.3646 42.859 19.9C43.8683 21.9046 43.9228 23.9909 43.1313 26.0875C42.4416 27.914 41.7227 29.7296 41.0213 31.5518C40.9043 31.8555 40.7108 32.0024 40.3808 31.9373C40.041 31.7099 39.987 31.5601 40.1313 31.1874C40.7425 29.6079 41.3523 28.028 41.9746 26.4531C42.0623 26.2312 42.0254 26.136 41.8004 26.0648C41.5065 25.9719 41.2142 25.8652 40.9371 25.7314C40.6837 25.6092 40.5976 25.7018 40.5089 25.9344C39.8335 27.7053 39.1436 29.4706 38.4632 31.2396C37.9127 32.6702 37.3691 34.1037 36.8223 35.536C36.2807 36.921 35.7362 38.3048 35.1982 39.6913C34.4943 41.5054 33.7986 43.3228 33.0908 45.1356C32.9924 45.3876 33.0218 45.5348 33.2977 45.619C33.531 45.6903 33.7543 45.7941 33.9822 45.8827C34.3739 46.035 34.3911 46.0291 34.5403 45.6435C35.3513 43.5506 36.1634 41.4581 36.9706 39.364C37.3837 38.2928 37.7875 37.2183 38.1955 36.1453C38.534 35.291 38.8732 34.437 39.2105 33.5823C39.3846 33.1402 39.4484 33.096 39.9147 33.1149ZM39.2787 15.8983C39.2646 15.9019 39.2301 15.9031 39.2038 15.9185C38.8813 16.1069 38.5576 16.2933 38.2398 16.4891C38.1054 16.5721 38.1096 16.6895 38.1877 16.8213C38.829 17.9039 39.4696 18.9872 40.1038 20.074C40.1777 20.2007 40.2374 20.2025 40.3515 20.1327C40.6787 19.9322 41.0082 19.7345 41.3449 19.5507C41.5046 19.4634 41.486 19.3838 41.4056 19.249C40.7784 18.1946 40.1586 17.136 39.5352 16.0795C39.4814 15.988 39.4282 15.8889 39.2787 15.8983ZM41.378 22.3929C41.7545 22.3629 42.0841 22.3369 42.4137 22.3102C42.538 22.3002 42.6473 22.2892 42.6075 22.1069C42.4824 21.5345 42.3209 20.9756 42.0737 20.4418C42.0043 20.2921 41.9466 20.2892 41.8152 20.3722C41.4915 20.5768 41.1598 20.7697 40.8247 20.9555C40.6929 21.0285 40.6776 21.0948 40.7337 21.2348C40.8439 21.5098 40.947 21.7916 41.0097 22.08C41.0637 22.3286 41.1451 22.4744 41.378 22.3929ZM42.6919 23.6893C42.6919 23.6033 42.6838 23.538 42.6934 23.4754C42.729 23.245 42.6271 23.2181 42.4228 23.2486C42.0753 23.3006 41.723 23.3292 41.3718 23.3463C41.2113 23.354 41.1373 23.394 41.1447 23.565C41.1594 23.8985 41.0849 24.2231 41.0055 24.543C40.9694 24.6887 40.9973 24.7504 41.1357 24.8001C41.5055 24.9333 41.873 25.0732 42.2362 25.2234C42.3718 25.2794 42.4098 25.2523 42.4484 25.1127C42.5795 24.6385 42.6644 24.1585 42.6919 23.6893Z" fill="#080909"/>
<path fill-rule="evenodd" clip-rule="evenodd" d="M28.3177 36.6142C27.9852 36.3671 27.9473 36.2307 28.1072 35.8175C29.5511 32.085 30.9869 28.3496 32.4446 24.6227C33.0153 23.1642 32.9193 21.7911 32.1002 20.4513C31.3923 19.2938 30.7175 18.1161 30.0287 16.947C29.584 16.192 29.7414 15.5833 30.4969 15.1347C30.7816 14.9656 31.0623 14.7885 31.3535 14.6309C31.9054 14.3323 32.5614 14.4679 32.8795 14.9984C33.764 16.4735 34.7043 17.9197 35.4767 19.4559C36.4968 21.4847 36.5383 23.5923 35.7238 25.7049C33.1634 32.3466 30.5926 38.9842 28.0248 45.6229C27.7263 46.3946 27.1289 46.6578 26.3533 46.3634C26.0341 46.242 25.7126 46.1252 25.3995 45.9898C24.7938 45.7274 24.5203 45.1247 24.7558 44.5071C25.5654 42.3831 26.3892 40.2645 27.208 38.1441C27.3206 37.8526 27.5291 37.7295 27.8402 37.7964C28.183 38.0177 28.234 38.1758 28.079 38.5767C27.2936 40.6075 26.5102 42.6388 25.7163 44.6661C25.6122 44.9323 25.6426 45.0844 25.9325 45.1727C26.1768 45.2471 26.4163 45.3437 26.6476 45.4521C26.9171 45.5784 27.0425 45.4994 27.1468 45.2246C27.7446 43.6478 28.3617 42.0785 28.9678 40.5048C29.5775 38.9222 30.1816 37.3375 30.7882 35.7539C31.1474 34.8417 31.5102 33.9311 31.8647 33.0173C32.771 30.6816 33.6709 28.3436 34.5818 26.0099C34.665 25.7969 34.6542 25.6924 34.4146 25.6212C34.1297 25.5365 33.8492 25.4259 33.5815 25.2961C33.3319 25.175 33.2267 25.2266 33.126 25.4917C32.3809 27.4549 31.6165 29.4108 30.8623 31.3707C30.3842 32.6134 29.9135 33.8593 29.4395 35.1036C29.287 35.4826 29.1358 35.8622 28.9814 36.2405C28.8446 36.576 28.6867 36.6631 28.3177 36.6142ZM31.8766 15.4514C31.8453 15.4668 31.7864 15.4912 31.7319 15.523C31.4739 15.6739 31.2212 15.8339 30.9589 15.9766C30.7403 16.0957 30.7178 16.2267 30.8462 16.4407C31.4724 17.4837 32.0881 18.5332 32.7016 19.5838C32.7789 19.7163 32.8323 19.7721 32.9872 19.6717C33.3002 19.4686 33.6266 19.286 33.9511 19.1009C34.0715 19.0323 34.1221 18.9758 34.035 18.8295C33.3952 17.7572 32.765 16.6792 32.1306 15.6036C32.0814 15.5201 32.023 15.4405 31.8766 15.4514ZM34.0121 21.9389C34.3843 21.9067 34.7144 21.8748 35.0451 21.8508C35.1956 21.8399 35.2422 21.788 35.2091 21.6283C35.0964 21.0825 34.9321 20.5548 34.7091 20.044C34.6416 19.8892 34.5785 19.8251 34.4073 19.9398C34.1415 20.1177 33.8648 20.2828 33.5796 20.4273C33.3545 20.5414 33.2537 20.64 33.403 20.9076C33.525 21.126 33.5905 21.387 33.6299 21.6372C33.6731 21.9113 33.7966 22.001 34.0121 21.9389ZM34.8588 22.8292C34.5723 22.8533 34.2859 22.8869 33.9989 22.8978C33.8393 22.904 33.7666 22.9555 33.7666 23.1207C33.7665 23.4525 33.7135 23.7784 33.6251 24.0976C33.5844 24.2437 33.6438 24.3065 33.7751 24.3543C34.1346 24.485 34.4919 24.6219 34.8462 24.766C34.9746 24.8183 35.0243 24.7999 35.062 24.6579C35.1831 24.2038 35.2746 23.7457 35.2963 23.276C35.318 22.8017 35.3143 22.8015 34.8588 22.8292Z" fill="#0B0909"/>
<path fill-rule="evenodd" clip-rule="evenodd" d="M39.9147 33.1149C39.4484 33.0961 39.3846 33.1403 39.2103 33.5819C38.873 34.4367 38.5337 35.2906 38.1953 36.1449C37.631 36.1819 37.1451 36.0426 36.8221 35.5356C37.369 34.1034 37.9126 32.6699 38.4631 31.2392C39.1436 29.4702 39.8335 27.7049 40.5088 25.9341C40.5974 25.7016 40.6835 25.6088 40.9369 25.7311C41.214 25.8649 41.5064 25.9716 41.8003 26.0645C42.0253 26.1357 42.0621 26.2309 41.9745 26.4528C41.3522 28.0278 40.7424 29.6077 40.1312 31.1871C39.9869 31.5598 40.0408 31.7096 40.3807 31.9369C40.1842 32.3135 40.0486 32.714 39.9147 33.1149Z" fill="#A8D2D4"/>
<path fill-rule="evenodd" clip-rule="evenodd" d="M30.7886 35.7538C30.1819 37.3373 29.5777 38.922 28.9681 40.5047C28.3621 42.0784 27.745 43.6476 27.1471 45.2244C27.0429 45.4994 26.9174 45.5783 26.648 45.452C26.4165 45.3437 26.177 45.247 25.9328 45.1725C25.643 45.0841 25.6125 44.9321 25.7166 44.666C26.5105 42.6387 27.2939 40.6072 28.0793 38.5766C28.2343 38.1757 28.1833 38.0176 27.8405 37.7962C27.9998 37.4022 28.1589 37.0081 28.3179 36.614C28.6867 36.6629 28.8447 36.5759 28.9818 36.2402C29.1363 35.8619 29.2874 35.4822 29.4399 35.1034C29.7562 35.5964 30.2581 35.7044 30.7886 35.7538Z" fill="#F15494"/>
<path fill-rule="evenodd" clip-rule="evenodd" d="M22.053 34.6552C22.5044 33.4703 22.9519 32.2839 23.4081 31.1008C24.1943 29.0612 24.9907 27.0256 25.7683 24.9829C25.854 24.7577 25.9361 24.7394 26.1327 24.8264C26.4249 24.9558 26.7241 25.0727 27.0285 25.1696C27.2525 25.2411 27.2905 25.3301 27.2016 25.5566C26.3875 27.6316 25.5889 29.7126 24.7819 31.7903C24.3267 32.9624 23.8639 34.1314 23.4045 35.3019C22.8643 35.2734 22.3743 35.1405 22.053 34.6552Z" fill="#DCE7EC"/>
<path fill-rule="evenodd" clip-rule="evenodd" d="M22.053 34.6552C22.3744 35.1405 22.8643 35.2734 23.4044 35.3019C22.9469 36.5065 22.4934 37.7126 22.0306 38.9153C21.2841 40.8551 20.5315 42.7928 19.781 44.7311C19.6307 45.1188 19.5982 45.1332 19.2237 44.989C19.0149 44.9085 18.8067 44.8257 18.598 44.7452C18.2179 44.5984 18.1983 44.5586 18.3435 44.1835C19.1629 42.0666 19.9811 39.9494 20.8035 37.8339C21.2159 36.7729 21.6363 35.7147 22.053 34.6552Z" fill="#A8D2D4"/>
<path fill-rule="evenodd" clip-rule="evenodd" d="M26.7173 18.5085C26.7132 18.5805 26.6546 18.5984 26.6118 18.624C26.2636 18.8311 25.9107 19.0303 25.566 19.2429C25.4566 19.3102 25.404 19.2931 25.3422 19.1876C24.7058 18.1022 24.0668 17.0183 23.4266 15.9351C23.3327 15.7761 23.3561 15.6567 23.5191 15.5626C23.8145 15.3921 24.1091 15.2199 24.4013 15.0436C24.5414 14.9592 24.6501 14.9935 24.7269 15.123C25.3798 16.2238 26.0298 17.3262 26.6801 18.4284C26.6958 18.4551 26.7064 18.485 26.7173 18.5085Z" fill="#DBE6EB"/>
<path fill-rule="evenodd" clip-rule="evenodd" d="M26.6199 21.4919C26.3697 21.5864 26.2815 21.4219 26.2406 21.1635C26.1956 20.8786 26.0978 20.6047 25.9705 20.347C25.8948 20.1937 25.9314 20.1267 26.0713 20.0501C26.399 19.8708 26.7239 19.6849 27.0365 19.4812C27.1938 19.3788 27.251 19.4266 27.3165 19.5722C27.5498 20.0898 27.7127 20.6286 27.8295 21.183C27.8605 21.33 27.8207 21.4005 27.6606 21.4098C27.33 21.429 26.9999 21.461 26.6199 21.4919Z" fill="#A8D2D4"/>
<path fill-rule="evenodd" clip-rule="evenodd" d="M27.622 24.3783C27.2034 24.2189 26.7988 24.0574 26.3884 23.9125C26.2314 23.8571 26.1981 23.7721 26.2402 23.6247C26.3287 23.3157 26.3757 22.9995 26.3766 22.678C26.3772 22.523 26.4289 22.4555 26.5998 22.4474C26.9725 22.43 27.3449 22.392 27.7157 22.3473C27.8639 22.3295 27.9342 22.3491 27.9293 22.5179C27.9105 23.1491 27.8316 23.769 27.622 24.3783Z" fill="#A8D2D4"/>
<path fill-rule="evenodd" clip-rule="evenodd" d="M36.8221 35.5358C37.1451 36.0428 37.6309 36.182 38.1952 36.1451C37.7872 37.2181 37.3834 38.2926 36.9703 39.3638C36.1631 41.4579 35.3511 43.5505 34.54 45.6433C34.3907 46.0289 34.3737 46.0348 33.9819 45.8825C33.754 45.794 33.5307 45.6901 33.2974 45.6188C33.0217 45.5346 32.9922 45.3874 33.0906 45.1354C33.7984 43.3226 34.4941 41.5052 35.1979 39.6911C35.736 38.3046 36.2806 36.9209 36.8221 35.5358Z" fill="#8DBAC5"/>
<path fill-rule="evenodd" clip-rule="evenodd" d="M39.2787 15.8983C39.4282 15.8889 39.4815 15.988 39.5352 16.0793C40.1587 17.1357 40.7784 18.1945 41.4056 19.2488C41.4859 19.3836 41.5045 19.4632 41.3449 19.5504C41.0081 19.7344 40.6786 19.9319 40.3515 20.1325C40.2374 20.2023 40.1776 20.2005 40.1038 20.0737C39.4696 18.9869 38.8289 17.9037 38.1877 16.8211C38.1096 16.6894 38.1054 16.5719 38.2398 16.4889C38.5577 16.293 38.8814 16.1067 39.2038 15.9183C39.2301 15.9031 39.2646 15.9019 39.2787 15.8983Z" fill="#A8D2D4"/>
<path fill-rule="evenodd" clip-rule="evenodd" d="M41.3781 22.3929C41.1451 22.4744 41.0637 22.3286 41.0098 22.08C40.9471 21.7915 40.844 21.5097 40.7338 21.2348C40.6776 21.0949 40.6929 21.0285 40.8247 20.9555C41.1598 20.7697 41.4915 20.5768 41.8153 20.3722C41.9466 20.2892 42.0044 20.2922 42.0737 20.4418C42.3209 20.9755 42.4826 21.5345 42.6076 22.1069C42.6474 22.2892 42.5381 22.3003 42.4138 22.3102C42.0842 22.3368 41.7546 22.3629 41.3781 22.3929Z" fill="#8DBAC5"/>
<path fill-rule="evenodd" clip-rule="evenodd" d="M42.692 23.6893C42.6644 24.1586 42.5796 24.6386 42.4484 25.1126C42.4098 25.2522 42.3718 25.2793 42.2362 25.2233C41.8729 25.0731 41.5054 24.9333 41.1356 24.8C40.9973 24.7502 40.9694 24.6885 41.0054 24.5429C41.0849 24.2231 41.1594 23.8985 41.1447 23.5649C41.1372 23.3939 41.2112 23.3538 41.3718 23.3461C41.7231 23.3292 42.0752 23.3006 42.4228 23.2484C42.627 23.2179 42.729 23.2449 42.6934 23.4753C42.6838 23.5379 42.692 23.6033 42.692 23.6893Z" fill="#8DBAC5"/>
<path fill-rule="evenodd" clip-rule="evenodd" d="M30.7886 35.7538C30.2583 35.7044 29.7564 35.5964 29.4399 35.1035C29.914 33.8592 30.3847 32.6134 30.8628 31.3706C31.6169 29.4106 32.3814 27.4547 33.1265 25.4916C33.2272 25.2264 33.3323 25.1749 33.5819 25.296C33.8497 25.4258 34.13 25.5364 34.4151 25.6211C34.6547 25.6923 34.6655 25.7967 34.5823 26.0097C33.6714 28.3435 32.7715 30.6815 31.8652 33.0172C31.5105 33.9309 31.1476 34.8415 30.7886 35.7538Z" fill="#F275A6"/>
<path fill-rule="evenodd" clip-rule="evenodd" d="M31.8766 15.4514C32.023 15.4405 32.0813 15.5203 32.1306 15.6036C32.765 16.679 33.3952 17.7572 34.0349 18.8295C34.1221 18.9758 34.0713 19.0324 33.9511 19.101C33.6267 19.2859 33.3002 19.4686 32.9872 19.6717C32.8322 19.7721 32.7789 19.7165 32.7015 19.5838C32.0881 18.5332 31.4724 17.4837 30.8462 16.4407C30.7179 16.2267 30.7403 16.0957 30.9588 15.9766C31.2212 15.8339 31.4739 15.6739 31.7319 15.523C31.7864 15.4911 31.8453 15.4667 31.8766 15.4514Z" fill="#F275A6"/>
<path fill-rule="evenodd" clip-rule="evenodd" d="M34.0121 21.9389C33.7966 22.0009 33.6731 21.9113 33.6298 21.6373C33.5904 21.387 33.5249 21.1261 33.403 20.9077C33.2536 20.6401 33.3544 20.5416 33.5795 20.4275C33.8647 20.2829 34.1414 20.1178 34.4072 19.9399C34.5784 19.8252 34.6415 19.8895 34.709 20.0441C34.932 20.5549 35.0963 21.0826 35.209 21.6284C35.2421 21.7881 35.1955 21.84 35.045 21.8509C34.7144 21.8749 34.3844 21.9067 34.0121 21.9389Z" fill="#EF5392"/>
<path fill-rule="evenodd" clip-rule="evenodd" d="M34.8588 22.8292C35.3142 22.8015 35.3179 22.8017 35.2961 23.276C35.2744 23.7457 35.1829 24.2038 35.0619 24.6578C35.0241 24.7999 34.9744 24.8182 34.846 24.766C34.4917 24.6219 34.1344 24.4849 33.775 24.3543C33.6436 24.3065 33.5844 24.2437 33.6249 24.0976C33.7134 23.7785 33.7663 23.4525 33.7665 23.1207C33.7665 22.9554 33.8392 22.9039 33.9987 22.8978C34.2857 22.8869 34.5722 22.8533 34.8588 22.8292Z" fill="#EF327F"/>
</svg>
