<svg width="20" height="18" viewBox="0 0 20 18" fill="none" xmlns="http://www.w3.org/2000/svg">
<path fill-rule="evenodd" clip-rule="evenodd" d="M12.109 11.544C12.109 11.958 11.773 12.294 11.359 12.294C10.945 12.294 10.609 11.958 10.609 11.544V6.255C10.609 5.841 10.945 5.505 11.359 5.505C11.773 5.505 12.109 5.841 12.109 6.255V11.544ZM19.5 10.55C18.451 10.55 17.982 9.772 17.982 8.999C17.982 8.228 18.451 7.449 19.5 7.449C19.776 7.449 20 7.226 20 6.949C20 2.094 19.595 0.296 12.109 0.038V3.255C12.109 3.669 11.773 4.005 11.359 4.005C10.945 4.005 10.609 3.669 10.609 3.255V0.007C10.403 0.006 10.216 0 10 0C0.455 0 0 1.67 0 6.949C0 7.226 0.224 7.449 0.5 7.449C1.549 7.449 2.018 8.228 2.018 8.999C2.018 9.409 1.88 9.804 1.637 10.08C1.364 10.392 0.982 10.55 0.5 10.55C0.224 10.55 0 10.773 0 11.05C0 16.33 0.455 18 10 18C10.216 18 10.403 17.995 10.609 17.993V14.544C10.609 14.13 10.945 13.794 11.359 13.794C11.773 13.794 12.109 14.13 12.109 14.544V17.962C19.595 17.704 20 15.906 20 11.05C20 10.773 19.776 10.55 19.5 10.55Z" fill="#1C6758"/>
</svg>
