<svg width="41" height="40" viewBox="0 0 41 40" fill="none" xmlns="http://www.w3.org/2000/svg">
<path d="M15.975 29.5C14.4583 29.5 13.1667 28.9666 12.1 27.9C11.0333 26.8333 10.5 25.5416 10.5 24.025C10.5 22.5916 10.9793 21.354 11.938 20.312C12.8967 19.27 14.0923 18.691 15.525 18.575L11.5 10.5H18.5L20.5 14.5L22.5 10.5H29.5L25.5 18.525C26.9167 18.6583 28.1043 19.246 29.063 20.288C30.0217 21.33 30.5007 22.5673 30.5 24C30.5 25.5333 29.9667 26.8333 28.9 27.9C27.8333 28.9666 26.5333 29.5 25 29.5C24.85 29.5 24.696 29.496 24.538 29.488C24.38 29.48 24.2257 29.459 24.075 29.425C24.9917 28.825 25.7083 28.046 26.225 27.088C26.7417 26.13 27 25.1006 27 24C27 22.1833 26.3707 20.646 25.112 19.388C23.8533 18.13 22.316 17.5006 20.5 17.5C18.684 17.4993 17.1467 18.1286 15.888 19.388C14.6293 20.6473 14 22.1846 14 24C14 25.1333 14.2333 26.2 14.7 27.2C15.1667 28.2 15.9 28.9416 16.9 29.425C16.75 29.4583 16.596 29.4793 16.438 29.488C16.28 29.4966 16.1257 29.5006 15.975 29.5ZM20.5 28.5C19.25 28.5 18.1877 28.0626 17.313 27.188C16.4383 26.3133 16.0007 25.2506 16 24C15.9993 22.7493 16.437 21.687 17.313 20.813C18.189 19.939 19.2513 19.5013 20.5 19.5C21.7487 19.4986 22.8113 19.9363 23.688 20.813C24.5647 21.6896 25.002 22.752 25 24C24.998 25.248 24.5607 26.3106 23.688 27.188C22.8153 28.0653 21.7527 28.5026 20.5 28.5ZM18.65 26.75L20.5 25.35L22.35 26.75L21.65 24.475L23.5 23.15H21.225L20.5 20.75L19.775 23.15H17.5L19.35 24.475L18.65 26.75Z" fill="#1C6758"/>
</svg>
